<svg xmlns="http://www.w3.org/2000/svg" viewBox="2.2 .4 251 260"><g fill="none" fill-rule="evenodd"><path fill="#f90" fill-rule="nonzero" d="M221.5 210.3C116.3 260.4 51 218.5 9.2 193.1c-2.6-1.7-7 .3-3.2 4.7 14 16.9 59.6 57.6 119.1 57.6 59.7 0 95.1-32.5 99.6-38.2 4.4-5.6 1.3-8.7-3.2-6.9zm29.6-16.3c-2.9-3.7-17.2-4.4-26.3-3.3-9 1.1-22.6 6.7-21.4 10 .6 1.2 1.8.7 8 .1 6.3-.6 23.7-2.8 27.4 2 3.6 4.7-5.6 27.5-7.3 31.2-1.6 3.7.6 4.7 3.7 2.2 3-2.4 8.5-8.8 12.1-17.8 3.7-9 5.9-21.6 3.8-24.4z"/><path fill="#000" d="M150.7 108.1c0 13.2.4 24.1-6.3 35.8-5.3 9.5-13.8 15.3-23.3 15.3-13 0-20.5-9.8-20.5-24.4 0-28.8 25.8-34 50.1-34zm34 82.2a7 7 0 01-8 .9c-11.1-9.3-13.1-13.7-19.3-22.5-18.5 18.8-31.6 24.5-55.6 24.5-28.3 0-50.4-17.5-50.4-52.6 0-27.3 14.8-46 36-55.1 18.2-8 43.8-9.5 63.3-11.7v-4.4c0-8 .7-17.5-4-24.4-4.2-6.2-12-8.8-19-8.8-12.8 0-24.3 6.6-27.1 20.3-.6 3-2.8 6-5.8 6.1L62 59.1c-2.7-.6-5.8-2.8-5-7C64.5 12.4 100.4.4 132.4.4c16.4 0 37.9 4.4 50.8 16.8 16.5 15.4 14.9 35.8 14.9 58v52.6c0 15.8 6.5 22.7 12.7 31.3 2.2 3 2.7 6.7 0 9-7 5.7-19.2 16.4-26 22.3"/><path fill="#f90" fill-rule="nonzero" d="M221.5 210.3C116.3 260.4 51 218.5 9.2 193.1c-2.6-1.7-7 .3-3.2 4.7 14 16.9 59.6 57.6 119.1 57.6 59.7 0 95.1-32.5 99.6-38.2 4.4-5.6 1.3-8.7-3.2-6.9zm29.6-16.3c-2.9-3.7-17.2-4.4-26.3-3.3-9 1.1-22.6 6.7-21.4 10 .6 1.2 1.8.7 8 .1 6.3-.6 23.7-2.8 27.4 2 3.6 4.7-5.6 27.5-7.3 31.2-1.6 3.7.6 4.7 3.7 2.2 3-2.4 8.5-8.8 12.1-17.8 3.7-9 5.9-21.6 3.8-24.4z"/><path fill="#000" d="M150.7 108.1c0 13.2.4 24.1-6.3 35.8-5.3 9.5-13.8 15.3-23.3 15.3-13 0-20.5-9.8-20.5-24.4 0-28.8 25.8-34 50.1-34zm34 82.2a7 7 0 01-8 .9c-11.1-9.3-13.1-13.7-19.3-22.5-18.5 18.8-31.6 24.5-55.6 24.5-28.3 0-50.4-17.5-50.4-52.6 0-27.3 14.8-46 36-55.1 18.2-8 43.8-9.5 63.3-11.7v-4.4c0-8 .7-17.5-4-24.4-4.2-6.2-12-8.8-19-8.8-12.8 0-24.3 6.6-27.1 20.3-.6 3-2.8 6-5.8 6.1L62 59.1c-2.7-.6-5.8-2.8-5-7C64.5 12.4 100.4.4 132.4.4c16.4 0 37.9 4.4 50.8 16.8 16.5 15.4 14.9 35.8 14.9 58v52.6c0 15.8 6.5 22.7 12.7 31.3 2.2 3 2.7 6.7 0 9-7 5.7-19.2 16.4-26 22.3"/></g></svg>