<?xml version="1.0" encoding="utf-8"?>
<!-- Generator: Adobe Illustrator 24.1.2, SVG Export Plug-In . SVG Version: 6.00 Build 0)  -->
<svg version="1.1" id="Layer_1" xmlns="http://www.w3.org/2000/svg" xmlns:xlink="http://www.w3.org/1999/xlink" x="0px" y="0px"
	 viewBox="0 0 1081.1 123.8" style="enable-background:new 0 0 1081.1 123.8;" xml:space="preserve">
<style type="text/css">
	.st0{fill:#2B4055;stroke:#2B4055;stroke-width:0.2081;stroke-miterlimit:10;}
	.st1{fill:#FFDFAA;stroke:#2B4055;stroke-width:0.2081;stroke-miterlimit:10;}
	.st2{fill:#2C9FAA;stroke:#2B4055;stroke-width:0.2081;stroke-miterlimit:10;}
	.st3{fill:#56C0AA;}
	.st4{fill:#EF4458;}
	.st5{fill:#EF4458;stroke:#2B4055;stroke-width:0.2081;stroke-miterlimit:10;}
	.st6{opacity:0.7;fill:#FFDFAA;stroke:#2B4055;stroke-width:0.2081;stroke-miterlimit:10;}
	.st7{fill:#56C0AA;stroke:#2B4055;stroke-width:0.2081;stroke-miterlimit:10;}
	.st8{fill:#FDBF56;stroke:#2B4055;stroke-width:0.2081;stroke-miterlimit:10;}
	.st9{fill:none;stroke:#2B4055;stroke-width:0.25;stroke-miterlimit:10;}
</style>
<g>
	<g>
		<g>
			<path class="st0" d="M394.6,36.1L394.6,36.1C394.6,36.1,394.6,36.1,394.6,36.1c-0.2-0.1-0.3-0.2-0.5-0.3
				c-0.9-0.3-1.7-0.4-2.4-0.3l0,0.1c-0.2,0-0.5,0-0.7,0.1l0-0.1c-0.8,0.2-1.3,0.5-1.7,0.7c-0.1,0.1-0.2,0.1-0.2,0.2
				c-1.1,0.9-1.4,2.1-1.4,2.1l0,0c-1.3,3.5,1.6,7.2,1.6,7.2l3.2-3.6l4.1,2.4C396.6,44.6,398.7,38.7,394.6,36.1z"/>
			<path class="st0" d="M393.1,34.5c0.3,1.1-0.5,2.3-1.8,2.7s-2.7-0.2-3-1.3c-0.3-1.1,0.5-2.3,1.8-2.7
				C391.5,32.8,392.8,33.4,393.1,34.5z"/>
		</g>
		<path class="st1" d="M395.3,47.3c1.2-1.1,1.9-3,1.8-5.2c-0.3-3.2-2.5-5.6-4.9-5.4c-2.4,0.2-4.2,3-3.9,6.1c0.2,2.5,1.7,4.6,3.5,5.2
			c0,1.3-0.3,3.9-3.8,3.4c0,0,7.5,6.1,12.2-2C400.1,49.5,396.4,50.6,395.3,47.3z"/>
		<path class="st1" d="M367,42.9c-0.3-0.3-0.6-0.6-0.9-0.6h0.1c-2.7-0.6-4.3-3-7.1-2.1c0.2,0.1,0.4,0.2,0.8,0.2
			c-0.8,0.3-1.6,0-2.1-0.6c-0.7,0.8,0.7,2.1,1.4,2.5c0.9,0.6,1.7,0.6,2.8,0.7c1.6,0.2,3.2,0.8,4.7,1.3L367,42.9z"/>
		<path class="st2" d="M402.3,50.3c1-3.6,1.3-7.2,2.1-10.8c0.8-3.8,3.4-7.2,4.2-11l-1.2-0.4c-2.4,1.9-5.2,9.6-5.7,11.6
			c-1.1,4.6-2.7,10.9-8.4,11.3c-2.5,0.2-4.9-0.9-7.2-1.6c-2.4-0.7-4.9-1-7.2-1.9c-2.5-1-4.5-2.7-7-3.7c-1.3-0.5-4.8-1.8-6.4-1.7
			l-0.3,1.7L369,46c0.9,0.4,1.9,0.9,2.7,1.5c0.2,0.1,0.4,0.3,0.6,0.4l0,0l0,0c1.9,1.3,3.7,2.6,5.9,3.4c2.2,0.8,5,1,6.9,2.2
			c2.3,1.5,3,4.5,4.4,6.8c1.5,2.5,2.5,3.7,2.4,6.8c0,0.3,0,0.6-0.1,1c0,0.1-0.3,2-0.3,4.2c0.3,5.7,4.6,6.7,4.7,6.7
			c0.9-0.2,2.1-0.6,3.4-1.4c1-0.4,1.9-0.9,2.6-1.7c0.1-0.1,0.1-0.1,0.2-0.2c0,0,0,0,0,0l0,0c0.6-0.7,0.9-1.5,1.1-2.3
			c0.4-2.2-1.8-6.9-1.8-6.9c-1.1-2.7-0.3-8.1-0.3-8.1C401.5,55.5,401.6,52.9,402.3,50.3z"/>
		<path class="st1" d="M406.9,29l1.3,0.5c0.7-1.1,1.3-2.5,1.4-3.7c0.3-1.8,0-3.3,0.9-5c-0.1,0.2-0.2,0.3-0.3,0.5
			c0.1-0.2,0.2-0.3,0.3-0.5c0,0-2.2,1.7-2.3,4.3c-0.2-0.6,0-1.2-0.2-1.8c-0.2,0.5-0.5,1.1-0.6,1.6c-0.1,0.7,0,0.8,0.1,1.4
			C407.8,27.4,407.4,28.2,406.9,29z"/>
		<path class="st1" d="M430.7,58.3c-0.8-0.4-1.5-0.6-2.2-0.7l0,0c0,0,0,0,0,0c-1.5-0.2-3-0.1-4.7,0c-7.2-0.4-16.1-1.9-16.1-1.9l0,0
			c-3.5-0.5-7.7,5-9.2,7.3c-2.4,3.5-7.6,8.9-3.4,13c4,3.9,7.4-3.5,9-6.3c1.2-2.1,2-4.3,3-6.5c1.1-2.3,1.7-3.3,4.2-2.7
			c2.5,0.6,4.3,1.6,7,1.3c2.3-0.3,4.9-2.3,7.2-2.2c2.8,0.1,0.5,1,1.7,2.2c1,0.9,1.6,0.2,2.9,0c1.1-0.2,6.5,1.4,7,0.6
			C437.6,61.2,431.7,58.7,430.7,58.3z"/>
		<path class="st1" d="M402.8,74.7c1.3,3.5,1.4,8.7,0.7,12.3c-0.9,4.2-3.9,7.8-4.3,12.1c-0.4,4.2-0.2,8.4-0.2,12.7
			c0,4.2-0.9,8.5,2.4,11.6c-1.6,0.6-4.5,0.2-5.3-1.4c-0.5-1,0.3-1.9-0.1-2.9c-0.5-1-2-0.5-2-2.2c0-1.2,1.4-1.8,1.7-3
			c0.2-0.9-0.1-2.2-0.3-3.1c-0.4-2.2-1.5-4.2-1.9-6.3c-0.7-4.7,2.4-8.6,2.8-13.2c0.4-4.3-0.8-8.5-0.7-12.8c1.7,0.1,2.7-0.3,4.1-1.2
			C400.7,76.8,402.2,74.7,402.8,74.7L402.8,74.7z"/>
	</g>
	<g>
		<path class="st3" d="M478.1,9.9c0,0,0.2-0.1,0.8-0.1c0.3,0,0.6,0,1,0c0.4,0.1,0.9,0.3,1.2,0.8c0.2,0.5,0.2,1.1,0,1.7
			c-0.1,0.6-0.4,1.2-0.7,1.9c-0.6,1.3-1.4,2.7-2.4,4.2c-0.5,0.8-1,1.6-1.4,2.4c-0.1,0.2-0.2,0.4-0.3,0.7c0,0.1-0.1,0.2-0.1,0.3
			l0,0.4c-0.1,0.5,0,1,0.2,1.4c0.2,0.4,0.7,0.7,1.2,0.8c0.5,0.1,1.1,0.1,1.7,0c1.1-0.1,2.3-0.5,3.5-0.9c2.4-0.8,4.8-1.9,7.6-2.6
			c0.3-0.1,0.7-0.1,1.1-0.2c0.4-0.1,0.7-0.1,1.1-0.1c0.4,0,0.7-0.1,1.1-0.1c0.4,0,0.7,0,1.1,0c1.5,0.1,3.1,0.8,4.2,2
			c1,1.3,1.5,3,1.4,4.6c-0.1,1.7-0.5,3.3-1.1,4.9c-0.4,0.7-0.7,1.5-1.2,2.2c-0.2,0.4-0.5,0.7-0.7,1.1l-0.4,0.5
			c-0.1,0.2-0.3,0.3-0.4,0.5c-0.6,0.7-1.1,1.4-1.8,1.9l-1,0.9c-0.4,0.3-0.7,0.5-1.1,0.8c-0.8,0.5-1.6,0.9-2.5,1.2
			c-0.5,0.1-0.9,0.2-1.4,0.3c-0.2,0-0.5,0.1-0.7,0c-0.3,0-0.7-0.2-0.8-0.5c-0.2-0.6,0-1.1,0.1-1.5c0.1-0.2,0.1-0.4,0.3-0.7l0.3-0.6
			c0.5-0.9,1.1-1.6,1.7-2.3c1.4-1.3,3-2.3,4.7-3.2c1.7-0.8,3.5-1.5,5.5-2c1.9-0.4,4-0.5,5.9,0.1c2,0.6,3.7,1.9,4.7,3.7
			c1,1.7,1.7,3.8,1.9,5.8c0.2,2.1-0.1,4.1-0.7,6.1c-0.5,2-1.4,3.9-2.4,5.7c-1,1.8-2.1,3.5-3.4,5.2c-1.2,1.7-2.6,3.2-4,4.7
			c-0.7,0.8-1.5,1.5-2.4,2.1c-0.9,0.6-1.8,1.2-2.8,1.5c-0.5,0.1-1.1,0.2-1.7,0.1c-0.6-0.1-1.1-0.5-1.4-1c-0.2-0.2-0.3-0.5-0.4-0.7
			c0-0.1-0.1-0.2-0.1-0.4l-0.1-0.4c-0.1-0.6,0-1.1,0.2-1.7c0.4-1,1-1.9,1.8-2.7c0.7-0.8,1.5-1.4,2.4-2c1.7-1.2,3.6-2.2,5.7-2.5
			c1-0.2,2.1-0.2,3.1,0l0.8,0.2c0.3,0.1,0.5,0.2,0.8,0.3c0.5,0.2,0.9,0.5,1.3,0.8c1.7,1.4,2.6,3.3,3,5.3c0.5,2,0.5,4.1,0.3,6.1
			c-0.4,4-1.7,7.8-3.6,11.2c-1,1.7-2.1,3.3-3.4,4.7c-0.7,0.7-1.3,1.4-2.1,2l-0.3,0.2c-0.1,0.1-0.2,0.1-0.3,0.2
			c-0.2,0.1-0.5,0.2-0.7,0.3c-0.5,0.1-1.1,0.1-1.5-0.2c-0.9-0.4-1.6-1.4-1.5-2.4c0-0.5,0.3-1,0.6-1.4c0.4-0.4,0.7-0.6,1.1-0.9
			c1.5-1,3.5-1.6,5.3-1.2c0.9,0.2,1.8,0.7,2.4,1.3c0.6,0.6,1.1,1.5,1.4,2.3c0.6,1.7,0.7,3.5,0.5,5.1c-0.3,3.4-1.4,6.5-2.4,9.4
			c-1,2.9-1.9,5.8-2.1,8.6c-0.1,1.4,0,2.8,0.3,4c0.2,0.6,0.4,1.2,0.8,1.8c0.2,0.3,0.3,0.5,0.5,0.8c0.2,0.2,0.4,0.5,0.6,0.7
			c1.6,1.9,4,2.7,6.1,2.2c2.1-0.4,3.9-1.4,5.4-2.3c2.9-2.1,4.9-4.2,6.2-5.6c1.3-1.4,2-2.2,2-2.2c0.1-0.1,0.2-0.1,0.2,0
			c0.1,0.1,0.1,0.2,0,0.2c0,0-0.7,0.8-2,2.2c-1.3,1.4-3.3,3.5-6.2,5.6c-0.8,0.5-1.6,1-2.5,1.4c-0.4,0.2-0.9,0.4-1.4,0.6
			c-0.5,0.1-1,0.3-1.6,0.4c-0.5,0.1-1.1,0.1-1.7,0.2c-0.6-0.1-1.2-0.1-1.7-0.4c-1.1-0.4-2.2-1.1-3-2.1c-0.2-0.3-0.4-0.5-0.6-0.8
			c-0.2-0.3-0.3-0.5-0.5-0.8c-0.3-0.6-0.6-1.2-0.8-1.9c-0.4-1.3-0.5-2.7-0.4-4.2c0.2-2.9,1.2-5.7,2.1-8.7c1-2.9,2.1-6,2.4-9.3
			c0.1-1.6,0.1-3.4-0.5-4.9c-0.3-0.8-0.7-1.5-1.3-2.2c-0.6-0.6-1.3-1-2.2-1.2c-1.7-0.4-3.5,0.1-4.9,1.1c-0.7,0.5-1.5,1.1-1.5,1.9
			c-0.1,0.8,0.5,1.6,1.3,2c0.4,0.2,0.8,0.2,1.2,0.1c0.2-0.1,0.4-0.1,0.6-0.3c0.1-0.1,0.2-0.1,0.3-0.2l0.3-0.2c0.7-0.6,1.4-1.2,2-1.9
			c1.3-1.4,2.4-3,3.3-4.6c1.9-3.3,3.1-7.1,3.5-11.1c0.2-2,0.1-4-0.3-5.9c-0.5-1.9-1.3-3.8-2.9-5c-0.4-0.3-0.8-0.6-1.2-0.8
			c-0.2-0.1-0.4-0.2-0.7-0.3l-0.7-0.2c-1-0.1-2-0.2-3,0c-2,0.3-3.8,1.3-5.5,2.4c-0.8,0.6-1.6,1.2-2.3,2c-0.7,0.7-1.3,1.5-1.6,2.5
			c-0.2,0.5-0.2,0.9-0.2,1.4l0.1,0.4c0,0.1,0.1,0.2,0.1,0.3c0.1,0.2,0.2,0.4,0.3,0.6c0.2,0.4,0.6,0.6,1.1,0.7c0.4,0.1,0.9,0,1.4-0.1
			c0.9-0.3,1.8-0.8,2.6-1.4c0.8-0.6,1.6-1.2,2.3-2c1.4-1.5,2.7-3.1,4-4.7c1.2-1.6,2.4-3.3,3.3-5.1c1-1.8,1.8-3.6,2.3-5.6
			c0.5-1.9,0.9-3.9,0.6-5.9c-0.2-2-0.8-3.8-1.8-5.6c-0.9-1.6-2.5-2.9-4.4-3.4c-1.8-0.5-3.8-0.5-5.6-0.1c-1.9,0.4-3.6,1.1-5.3,1.9
			c-1.7,0.8-3.3,1.8-4.6,3.1c-0.6,0.6-1.2,1.3-1.6,2.1L488,39c-0.1,0.2-0.2,0.4-0.2,0.6c-0.1,0.4-0.2,0.9-0.1,1.2
			c0.1,0.1,0.1,0.2,0.3,0.2c0.2,0,0.4,0,0.6,0c0.4,0,0.9-0.2,1.3-0.2c0.8-0.3,1.6-0.6,2.4-1.1c0.4-0.2,0.7-0.5,1.1-0.7l1-0.9
			c0.7-0.5,1.2-1.2,1.8-1.9c0.1-0.2,0.3-0.3,0.4-0.5l0.3-0.5l0.7-1c0.4-0.7,0.8-1.5,1.2-2.2c0.7-1.5,1.1-3.1,1.1-4.7
			c0.1-1.6-0.3-3.1-1.3-4.3c-1-1.1-2.4-1.7-3.8-1.8c-0.4,0-0.7,0-1.1,0c-0.3,0-0.7,0-1.1,0.1c-0.4,0-0.7,0.1-1.1,0.1
			c-0.3,0.1-0.7,0.1-1,0.2c-2.7,0.6-5.2,1.8-7.6,2.5c-1.2,0.4-2.4,0.7-3.6,0.9c-0.6,0.1-1.2,0.1-1.8,0c-0.6-0.1-1.2-0.4-1.5-1
			c-0.3-0.5-0.4-1.2-0.3-1.7l0-0.4c0-0.2,0.1-0.3,0.1-0.4c0.1-0.3,0.2-0.5,0.3-0.7c0.5-0.9,1-1.7,1.5-2.5c0.9-1.5,1.8-2.9,2.3-4.2
			c0.3-0.6,0.5-1.2,0.7-1.8c0.1-0.6,0.2-1.1,0-1.5c-0.2-0.4-0.6-0.5-0.9-0.6c-0.3,0-0.6,0-0.9,0c-0.5,0.1-0.7,0.1-0.7,0.1
			c-0.1,0-0.2,0-0.2-0.1C477.9,10,478,9.9,478.1,9.9L478.1,9.9z"/>
		<g>
			<path class="st4" d="M494.5,24c-0.1,0-0.2,0-0.2-0.1l-16.6-13.5c-0.2-0.1-0.2-0.3-0.1-0.5c0.1-0.2,0.3-0.2,0.5-0.1l16.6,13.5
				c0.2,0.1,0.2,0.3,0.1,0.5C494.7,24,494.6,24,494.5,24z"/>
			<path class="st1" d="M486,49.2c-1.6-2.4,0.5-5.2,1.1-7.5c0.6-2.4,0.5-5.1,0.5-7.6c0-2.8,1.3-5.2,1.5-8c0.1-1.1,0.2-2.6,0-3.7
				c-0.3-1.3-1.3-2.1-1-3.7c0.2,0.2,0.6,0.2,0.8,0.6c-0.1-0.6-0.3-1.3-0.6-1.8c1.4-0.3,2.8,1.8,3.2,3c0.4,1.3,0,2.5-0.3,3.9
				c-0.6,2.8-0.7,5.7-0.5,8.6c0.1,3.2-0.5,6.1-0.5,9.2c0,2.4,1.1,9.2-1.1,10.8c-1.4-0.9-2.7-2.7-3.4-4.2L486,49.2z"/>
			<path class="st1" d="M492.3,71.2c1.5,3.4,0.7,7.8-0.2,11.2c-1.1,3.8-2.4,6.8-2.6,10.8c-0.2,3.7-2.2,7.2-2.7,11
				c-0.5,3.9,0.1,7.9-0.3,11.8c-0.3,2.7-1.2,4.9-0.1,7.6c-2.1,0.6-2.5-2.7-2.8-4.1c-0.3-1.9-0.5-3.4-2.1-4.7c-0.6-0.5-2.1-1.1-2.2-2
				c0-1.2,1.4-1.4,2.1-1.9c1.8-1.4,1.7-2.8,1.5-4.9c-0.2-2.1-1.1-4.1-1.2-6.2c-0.1-1.9,0.8-3.4,1.5-5.1c1.8-4,2.1-6.9,1.7-11.3
				c-0.3-2.8-0.9-5.8,0.2-8.5c1-2.5,4.7-5.8,7.2-3.2V71.2z"/>
			<path class="st2" d="M494.3,55.5c0-3.5-2.1-4.6-4.4-5.8c1.6,2.9,1.3,3.7,1.3,3.7c-3.2,0-8.3-2-9.8-2.7c-1.1,1.1-3.1,0.5-4.6,1
				c0.7,1.2,1.8,2.4,2.9,3.5c0,0,1.2-0.1,4.6,4.9c0.1,0.2,0.3,0.4,0.4,0.6c0,0.1,0.1,0.1,0.1,0.2l0,0c0.6,0.9,1,1.9,1.2,3
				c0.4,2.5-0.3,2.8-1.5,3.4c-3.3,2.1-2.6,5.5-2.6,5.5l0,0c1.1-1.2,2.7-1.7,4.5-1c2.3,0.9,3.2,3.2,4.4,4.5c1.4-2.3,2.3-4.6,2.9-6.2
				c0.6-2,0.7-4.3,0.8-5.8C494.5,61.3,494.3,58.3,494.3,55.5z"/>
			<path class="st1" d="M491.7,69.6c-1.1-1.8-2.6-2-3.7-1.9c-1,0.2-1.9,0.5-2.6,0.9l0,0c0,0,0,0,0,0c-1.6,1-2.6,2.3-3.1,3.2
				c-0.1,0.2-0.2,0.3-0.3,0.5c-0.7,0.9-1.3,1.9-1.8,3c0,0,0,0,0,0l0,0c-0.2,0.4-0.4,0.8-0.6,1.1c-0.7,1.3-2.7,3.8-4.4,3.7
				c-0.6-0.1-0.9-1.2-1.1-1.6c-0.4-0.9-1.1-1.8-1.7-2.6c-1.8-2.1-4.2-3.4-6.3-5c-0.7-0.5-1.8-1.2-1.9-2.1c0-0.8,0.4-1.5,0.1-2.4
				c-0.6-1.8-3.6-1.1-4.9-2.2c-1-0.9-1.5-2.4-2.9-2.9c-0.6-0.2-0.9,0.3-0.8,0.8c0.1,1.2,1.4,2.7,1.9,3.8c1.1,2.1,2.7,3.1,4.4,4.7
				c2,1.9,3.5,4.2,4.9,6.5c1.5,2.5,2.8,4.9,4.6,7.2c0.7,0.8,1.2,1.7,1.9,2.6c0.7,0.9,1.8,0.5,2.6,0.2c2-0.7,4.1-1.7,6.2-2.8
				c3.7-2.1,9.8-6.4,10.1-12.3l0.1,0.2C492.3,71.3,492.1,70.4,491.7,69.6z"/>
			<path class="st1" d="M481.8,51.5c-0.3-0.2-0.7-0.3-1-0.4c0,0,0,0,0,0c-1-0.4-16.7,1.1-16.7,1.1c-3,0-5.7,0.7-8.7,0.5
				c-3.2-0.2-5.5,2-8.7,2.7c2.1,1.7,6.1-2.1,7.1-0.4c-0.9,0.3-1.5,0.9-1.8,1.9c1-0.5,2-1.1,3.1-1.5l0,0c0,0,1.2-0.9,2.4-1.1
				c0,0,3.8,0.7,6.8,0.5c0,0,2.8-0.2,5.6-0.5l0,0.1c4.8-0.2,9.8,1.8,14.7,1.2C484.7,54.6,482.5,51.5,481.8,51.5z"/>
			<path class="st1" d="M491.2,53.4c-3.2,0-8.3-2-9.8-2.7c0.1-0.1,0.1-0.1,0.2-0.2c-0.2-0.2-0.4-0.3-0.7-0.4c-1.4-0.5-3.9,0-5.3-0.6
				c-0.5-0.2-0.9-0.5-1.3-0.8c-0.7-0.5-1.2-1.2-1.6-2c-0.5-1-0.7-2.2-0.6-3.3v-0.5c-0.2-2.3,1.6-4.6,3.7-5.3
				c0.3-0.1,0.6-0.1,0.9-0.2c2-0.1,4.4,2.8,6,0.8l2.4,2.1c0.4,0.4,0.6,1,0.4,1.5l-0.2,0.8l-0.1,0.4c-0.2,0.7-0.4,2.1,0.2,3.1
				c0.3,0.4,0.6,0.8,1.2,1.2c1,1,2.2,1.6,3.3,2.2C491.4,52.6,491.2,53.4,491.2,53.4z"/>
			<path class="st0" d="M480.4,46C480.4,46,480.4,46,480.4,46l-0.1,0c-0.8-0.2-1.7-0.8-0.9-1.7c0.4-0.4-1.5-2.5-1.8-2.8
				c-0.9-1-1.5-2-1.7-3.4c0-0.2-0.1-0.3-0.1-0.4c-0.9,0.2-1.6,0.8-2.3,1.4l0,0c0,0-0.1,0.1-0.2,0.2c0,0-0.1,0.1-0.1,0.1
				c-0.1,0.1-0.1,0.1-0.2,0.2c0,0-0.1,0.1-0.1,0.1c-0.7,0.9-1.7,2.8-1.3,5.2c-0.4,0.1-0.8,0.3-1.1,0.6c-1,1.1-0.8,3,0.5,4.2
				c1.3,1.2,3.2,1.4,4.2,0.3c0.1-0.2,0.3-0.3,0.4-0.5c1.4,0.6,3.8,0.1,5.3,0.6c0.5-0.2,0.9-0.4,1.2-0.9
				C482.9,47.7,481.7,46.3,480.4,46z"/>
		</g>
	</g>
	<g>
		<g>
			<path class="st1" d="M614,42.8c-0.9,0.3-1.7,0.2-2.6,0.4c0.8-0.8,2.1-0.9,2.7-1.8c-1,0.1-2.5,0.1-3.4,0.4c-1.2,0.3-2.1,1.5-3.3,2
				c-2.3,0.9-5,1-7.5,1.4c-5.2,1-9.4,3.9-14.3,5.9c-1.6,0.6-3.2,0.7-3.9,2.3c-0.1,0.3-0.2,0.6-0.2,0.9l0,0c0,0,0,0.1,0,0.3v0
				c0,0.4,0.1,1.2,0.6,2c0.1,0.2,0.2,0.4,0.4,0.5c0,0,0,0,0,0l0,0c0.1,0.1,0.3,0.2,0.4,0.3c2.3-0.6,6.2-3.4,6.2-3.4l0,0
				c0.6-0.5,1.3-1,2-1.4c2.6-1.2,4.9-2.4,7.7-3.3c2.7-0.9,4.8-2.7,7.6-3.4c2.2-0.6,4.6-0.6,6.6-1.4c1.1-0.4,3.4-1.8,3.8-2.9
				C615.8,41.8,614.9,42.5,614,42.8z"/>
			<path class="st1" d="M590,75c3.9-0.6,7.5-7.1,8.9-10.3c1.3-3.3,3-6.8,3.7-10.2c0.9-4,2.9-8,5.7-11c3.1-3.4,5.5-5.8,6.1-10.5
				c0.3-2.3,0.9-5.5,0.5-7.8c-2.2-0.1-2.1,3.4-3,4.6c-0.6,0.8-1.7,0.7-2.3,1.6c-0.6,1-0.2,1.6,0,2.6c0.7,4.7-4.9,5.5-7.2,8.5
				c-2.6,3.5-2.8,8-5.1,11.6c-2.4,3.7-6.4,6-9,9.4c-0.4,0.5-1.5,1.8-1.6,2.5c-0.1,0.9,1.1,2.3,1.4,3.2c0.6,1.7,0.6,4.1,1.8,5.5
				L590,75z"/>
			<path class="st2" d="M585,64.3L585,64.3c-0.2,0-0.5,0-0.7,0c-1.9,0.2-2.9,0.3-2.8-2.1c0-1.5,0.9-2.8,1.4-4.3
				c0.2-0.7,0.3-1.3,0.4-2c0.1-1.9-0.8-3-1.3-3.4c-0.1-0.1-0.1-0.1-0.2-0.2c0,0,0,0,0,0l0,0c-1.4-1.2-2.4-2.6-3.6-4.2
				c-2.5,1.3-7.4,3.4-8.7,6c-0.8,1.5-0.1,2.9,0.1,4.4c0.2,1.5,0.1,3,0.4,4.5c0.7,4.1,2.6,5.6,5.4,8.4c2.1,2.1,3.8,4.4,6.3,5.9
				c-0.2-1.7-0.2-3,0.1-4.1c0.1-0.4,0.8-3.1,3-4.3c0.3-0.1,0.6-0.2,0.8-0.4c3.9-0.9,5.1,2.2,5.3,2.9c0,0.2,0.1,0.4,0.1,0.4
				C592.5,62.9,585,64.3,585,64.3z"/>
			<path class="st1" d="M590.7,74L590.7,74c0-0.8,0.1-1.6,0.1-2.4l0,0c-0.2-1.2-0.8-2.5-2.5-3.3c0,0,0,0,0,0c-0.1,0-0.1,0-0.2,0
				c0,0-0.1,0-0.1,0c-2.5-0.6-4.2,0.8-4.2,0.8l0,0c-0.2,0.1-0.3,0.2-0.4,0.3c0,0,0,0,0,0l0,0c-2.5,2.2-2.3,7.3-2.3,7.3l0,0
				c-0.1,1.5-0.1,3.6,0.5,6.6c0,0.1,0,0.1,0,0.2c0,0,0,0,0,0c0.2,1.7,0.6,3.4,1,5.2c1,4.7-0.3,7.1-1.6,11.6c-1.2,4.3-1,8.9-2.4,13
				c-0.6,1.9-2,4-3.3,5.5c-1.5,1.8-4.9,2.6-5.9,4.2c3.1,1.5,4.3,0.2,6.8-1.4c2.1-1.4,5-0.2,5.5-3.5c0.4-2.5-0.6-4.1,0.6-6.7
				c1.2-2.5,3.2-4.5,4-7.1c1.4-4.3,0.7-9.1,2-13.5c1.4-4.9,2.2-9.5,2.4-14.5C590.6,75.5,590.7,74.7,590.7,74L590.7,74z"/>
			<path class="st1" d="M593.2,50c0,0.8-0.3,1.5-0.7,2.2c-1.6,2.8-3.8,3.4-5.4,3.4c-1.3,0-2.3-0.4-2.3-0.4c-0.9-0.3-1.7-1-2.2-1.9
				c-0.3-0.4-0.4-0.9-0.6-1.3c0-0.1-0.1-0.2-0.1-0.4c-0.2,0.3-0.4,0.6-0.5,0.8c-0.2,0.5-0.7,0.2-1,0.1c-1.6-1.1-4.7-3.4-3.1-4.1
				c0.1,0,0.2-0.1,0.3-0.1c1-0.5,2.2-1.5,3.1-2.3c0.9-0.8,1.6-1.5,1.6-1.5c0.1-0.2,0.2-0.4,0.3-0.5c0.3-0.7,0.9-1.5,1.8-1.3
				c0.9,0.2,1.5,0.4,2.5,0.2c0.3-0.1,1-0.4,1.2-0.1c0.2,0.3,0.2,0.9,0.2,1.3c0.2,1.7,1.8,2.1,3,3c0.1,0.1,0.2,0.2,0.4,0.3
				C592.8,48.1,593.2,49.1,593.2,50z"/>
			<path class="st1" d="M578.2,51.7c0.1-2.6-0.9-5.1-2-7.4c-1.1-2.5-2.8-4.9-3.2-7.6c-0.2-1.2-0.1-2.5-0.3-3.7
				c-0.2-1.4-0.9-2.6-1.4-3.8c-0.6-1.4-1.5-2.6-1.9-4c-0.4-1.2-0.6-2.5-0.7-3.7c-0.2-1.5,0.1-2.1,0.7-3.4c0.3-0.5,0.3-1.4,0.7-1.8
				c0.3-0.4,0.7-0.3,0.9-0.6c0-0.1,0-0.2-0.1-0.2c-1.1,0-1.4,0.7-2.3,1c-0.1,0-0.2-0.1-0.2-0.2c0.1-1,0.9-1.9,1-2.8
				c-0.2,0-0.3,0.1-0.3,0.1c-0.2,0.2-0.4,0.6-0.4,0.6c-0.5,1-1.1,1.5-1.1,1.5c-0.2-0.3-0.1-1-0.1-1.2c0.1-0.5,0.2-1,0.2-1.6
				c0,0,0,0-0.1,0c-0.1,0.1-0.4,0.4-0.6,1.4c0,0-0.3,1-0.5,1.2c0,0-0.2,0-0.5-0.9c0,0,0,0,0-0.1c0,0,0,0,0-0.1l0,0
				c-0.1-0.3-0.1-0.7-0.2-1c0,0,0,0,0,0c0,0,0,0,0,0c0,0,0,0,0,0c0,0,0,0,0,0c0-0.1-0.1-0.1-0.1-0.1c-0.1,0-0.1,0-0.1,0.1
				c0,0,0,0,0,0c-0.1,0.4-0.1,1-0.1,1.5l0,0c0.1,0.6,0.1,1,0.1,1.2c0,0,0,0,0,0c0,0.1,0,0.1,0,0.1c0,0.2-0.1,0.2-0.2,0.2
				c-0.1-0.1-0.3-0.2-0.4-0.3c-0.3-0.3-1.2-1.7-1.2-0.7c0,0.8,0.9,1.1,1.2,1.6c0.1,0.1,0.2,0.3,0.3,0.5c0,0,0,0,0,0.1
				c0.1,0.3,0.6,1.5,0.6,1.7l0,0c0.1,0.3,0.1,0.6,0.2,0.9l0,0c0.2,0.8,0.4,1.7,0.6,2.5c0.5,2.4,1.1,4.7,1.5,7.1
				c0.5,2.5,1.7,4.8,2.1,7.3c0.4,2.5,0.6,5,1.7,7.4c0.7,1.7,1.3,3.2,1.5,5c0.2,2.1-0.3,2.8-1.4,4.5c0,0,4.5,1.3,5.8-1.3l0,0
				C578.1,52.5,578.2,52.1,578.2,51.7z"/>
			<path class="st0" d="M590.6,57.2c-1.5,0.7-3.2,0.3-3.8-0.9c-0.6-1.2,0.2-2.8,1.7-3.5c1.5-0.7,3.2-0.3,3.8,0.9
				C592.9,54.9,592.1,56.5,590.6,57.2z"/>
			<path class="st0" d="M593.2,50c0,0.8-0.3,1.5-0.7,2.2c-1.6,2.8-3.8,3.4-5.4,3.4c-1.3,0-2.3-0.4-2.3-0.4c-0.9-0.3-1.7-1-2.2-1.9
				c-0.3-0.4-0.4-0.9-0.6-1.3c0.1-0.6,0.5-1.2,0.9-1.6c0.3-0.3,0.6-0.5,0.8-0.8c0.2-0.3,0.3-0.6,0.6-0.8c0.2,1.3,1.4,0.9,2.3,0.7
				c0.8-0.1,1.4,0.3,2.2,0.4c1.6,0.3,3.4-0.8,2.9-2.7l0,0C592.8,48.1,593.2,49.1,593.2,50z"/>
		</g>
		<path class="st4" d="M545.7,41.8c-1.5,0-2.9-0.4-4.1-1.1c-5.9-3.7-5.1-15.5,1.7-26.5c5.3-8.5,12.9-14.3,19-14.3
			c1.5,0,2.9,0.4,4.1,1.1c2.9,1.8,4.3,5.6,3.9,10.6c-0.3,5-2.3,10.6-5.6,15.9C559.4,36.1,551.7,41.8,545.7,41.8z M562.3,0.7
			c-5.8,0-13.2,5.6-18.4,13.9c-6.6,10.6-7.5,22-1.9,25.5c1.1,0.7,2.3,1,3.7,1c5.8,0,13.2-5.6,18.4-13.9c3.2-5.2,5.2-10.7,5.5-15.5
			c0.3-4.8-1-8.3-3.6-10C564.9,1,563.7,0.7,562.3,0.7z"/>
	</g>
	<g>
		<path class="st1" d="M697.5,62.5c-0.8-3-1.7-6.3-1.6-9.5c0.2-3.2,0.3-6.4-0.4-9.4c-0.3-1.2-0.3-3.9-1.1-4.8
			c-1.6-1.9-1.6,1.4-1.6,2.3c0,1.4,0.1,3-0.7,4.2c-1,1.7-2.3,2-1,4c0.9,1.4,1.9,2.4,2,4.1c0.1,1.6-0.7,3.2-1,4.7
			c-0.4,2.6,0,5.9,1.6,8.1c-2-2.4-4-4.9-6.9-6.4c-2.5-1.3-6.2-3.3-9.1-3.2c0.4,0.8,0.8,2.8,0.7,4.2c-0.2,2.1,0.1,3.5,1.4,5.2
			c0.8,1.1,1.9,1.8,3.1,2.4c0,0,7,4,12.4,4.6c0.3,0,0.6,0.1,0.9,0.1c0.1,0,0.1,0,0.2,0l0,0c1-0.1,1.9-0.6,2.1-2
			C699.1,68.5,698.2,65.1,697.5,62.5z"/>
		<path class="st1" d="M663.4,84.3c-1.4,2.2-0.3,7.1,0.1,9.5c0.7,3.5,1.3,7,1.4,10.6c0.1,3.6,0.7,7,1.4,10.5
			c0.3,1.4,0.6,2.7,0.6,4.2c0,0.6,0.2,1.8,0,2.3c-0.4,1.1-0.5,0.7-1.6,0.5c-2.7-0.4-5.3,0.4-7.8,1.3c2.5,0.7,6.1,0.3,8.6,0.4
			c1.8,0.1,2.7,0.3,2.8-1.6c0.1-1.6,0.2-3.1,0.3-4.6c0.3-3,0.8-6.1,0.5-9.2c-0.2-2.9-1-5.7-1.2-8.7c-0.2-3.5,0.2-7.1-0.1-10.6
			c-0.1-0.9-0.1-3.7-0.8-4.5C667.3,83.8,665.3,82.5,663.4,84.3L663.4,84.3z"/>
		<path class="st1" d="M665.1,85.9c0-0.2,0-0.3,0-0.5c0-0.1,0-0.3,0-0.4c0-0.1,0-0.1,0-0.2c0-0.2,0-0.3,0-0.5v0c0-0.4,0.1-0.7,0.1-1
			c0.3-1.7-0.1-3-0.9-3.9c-1.2,1.3-2,2.6-2.1,2.9c-0.2,0.5-0.5,1-0.7,1.6c-0.8,2.1-3.2,3.6-5.4,3.7c0.3,1.2,1.3,2.4,1.8,3.6
			l-0.1,0.6c2.2-2.7,6.4-0.1,9,0.3c0.3,0.1,0.7,0.1,1.2,0.2C666.1,90.7,665.3,88.2,665.1,85.9z"/>
		<path class="st1" d="M658.9,86.9c-0.1,1.9-0.8,3.7-0.9,5.7c-0.1,1.7,0.2,2.9-1.7,3c-1.4,0.1-2.7-0.4-4.1,0.3
			c-0.4-1-0.7-1.9-1.6-2.6c-0.8-0.7-2-1.1-3-1.6c-1-0.6-1.9-1.3-2.5-2.3c-0.6-0.9-1-2-1-3.2c0.2-4,2-6.1,4.3-7.1
			c0.6-0.2,7.8-2.4,10.3,5.3C659,85.3,659,86.1,658.9,86.9z"/>
		<path class="st0" d="M655.5,77.3c0,1.5-1.7,2.7-3.9,2.7c-2.1,0-3.9-1.2-3.9-2.7c0-1.5,1.7-2.7,3.9-2.7
			C653.7,74.7,655.5,75.9,655.5,77.3z"/>
		<path class="st2" d="M680.2,62.1c-0.6-2.7-1.3-5.7-4.1-6.9c-3.1-1.3-6.1-0.7-7.3,2.7c-1.1,3.1-1,6.3,0.6,9.1
			c1.3,2.1,2.3,4,1.3,6.4c-0.6,1.6-1.9,2.7-3.2,3.6c-0.2,0.1-0.4,0.3-0.6,0.4l0,0c0,0,0,0,0,0c-0.6,0.4-1.1,0.7-1.6,1.1
			c-0.2,0.1-0.4,0.3-0.6,0.4c-0.9,0.9-1.6,1.8-2.1,2.5c0.6,0.2,1.5,0.5,1.9,1.3c0,0.1,0.4,0.9,0.6,2.1c0,0,0,0,0,0
			c0,0.2,0,0.4,0,0.6c0,0.2,0,0.3,0,0.5v0c0.1,1.1,0.4,2.3,0.8,3.4c0.4,1.1,1.1,2.1,1.9,2.9c1.1,0.2,2.3,0.4,3.2,0.2
			c1.5-0.5,3-2.8,4.1-3.9c2.3-2.5,3.9-5.5,3.9-9c0-1.7-0.2-3.2,0.6-4.6c0.8-1.5,1.6-2.4,1.7-4.2C681.5,67.6,680.9,65,680.2,62.1z"/>
		<path class="st1" d="M667.2,84.3c-1.4,2.2-0.3,7.1,0.1,9.5c0.7,3.5,1.3,7,1.4,10.6c0.1,3.6,0.7,7,1.4,10.5
			c0.3,1.4,0.6,2.7,0.6,4.2c0,0.6,0.2,1.8,0,2.3c-0.4,1.1-0.5,0.7-1.6,0.5c-2.7-0.4-5.3,0.4-7.8,1.3c2.5,0.7,6.1,0.3,8.6,0.4
			c1.8,0.1,2.7,0.3,2.8-1.6c0.1-1.6,0.2-3.1,0.3-4.6c0.3-3,0.8-6.1,0.5-9.2c-0.2-2.9-1-5.7-1.2-8.7c-0.2-3.5,0.2-7.1-0.1-10.6
			c-0.1-0.9-0.1-3.7-0.8-4.5C671,83.8,669,82.5,667.2,84.3L667.2,84.3z"/>
		<path class="st1" d="M676.4,59.4c0.2-0.7,0.2-1.5,0.1-2.3h0c0,0,0,0,0-0.1c0,0,0,0,0-0.1c0-0.1,0-0.2-0.1-0.3c0,0,0-0.1,0-0.1
			c0,0,0-0.1,0-0.1c-0.2-0.7-0.5-1.4-0.7-2c-0.5-1-1-2.2-1.6-3.3c-0.8-1.9-1.8-3.5-2.8-5c0,0,0,0,0,0l0,0c-3.8-5.6-8.2-8.7-9.4-9.4
			c-2.7-1.9-5.8,1.4-8.1,4.2c-3.2,3.7-6.1,7.3-10,10.3c-3.7,2.8-6.3,6.4-7.9,10.9c-1.4,3.8,1.7,0.8,3-0.4c1.7-1.5,3.3-1.6,5.3-2.2
			c4-1.4-0.3-2.1,0.4-4.1c0-0.1,0.2-0.3,0.5-0.4c0.9-0.8,3-2.4,5.4-2.9c0,0,8-2.3,9.9-7.8c1.7,1.7,2.5,4.9,3.3,7.3l0,0
			c0,0,1.9,9.1,6.7,10.4l0,0c0,0,0,0,0,0c0.2,0,0.4,0.1,0.5,0.1c1,0.1,3.2,0.2,4.7-1.4C676,60.4,676.3,59.9,676.4,59.4
			C676.4,59.4,676.4,59.4,676.4,59.4L676.4,59.4z"/>
		<path class="st0" d="M655.8,87.3c0.3,0,0.5,0,0.8,0.1c0.2,0,1.7,0.2,2.4-0.7c0.1-0.8,0-1.5-0.1-2.4c-2.5-7.7-9.7-5.5-10.3-5.3
			c-2.3,1-4,3.1-4.3,7.1c-0.1,1.2,0.3,2.2,1,3.2c0.2-0.2,0.4-0.4,0.6-0.6c0.2-0.3,0.5-0.5,0.7-0.6c0.4-0.2,0.8-0.3,1.3-0.3
			c1.7,0,3.7,0.8,4.8-0.3c0.9-0.9-0.8-2.8,1.4-2.8C655.2,84.8,656.7,86.2,655.8,87.3z"/>
	</g>
	<g>
		<path class="st1" d="M18.9,104.8c-5.9,0.5-0.4,6.1,0.7,8.5c0.9,2,0.5,3.3,2.8,4.2c1.3,0.5,3.6,1.4,4.8,0.4
			c-0.9-2.1-3.1-2.4-3.6-5.1c-0.1-0.4-0.2-0.8-0.2-1.1c-0.4-1.9-0.4-2.5,2.3-3.1c3.1-0.7,6.3-1,9.5-1.3c1.7-0.1,3.4-0.2,5.1-0.3
			c0.1,0,0.2,0,0.2,0c0.7,0,1.8-0.1,2.9-0.2c1-0.1,2-0.2,2.8-0.5c0.9-0.3,1.6-0.7,1.9-1.2c1.4-2.3,0-5-1.6-6.4
			c-2.8-2.6-6-5.8-9.4-8.3c-1.9-1.3-3.9-2.4-6-3c-3.5-0.5-5.2,1.5-5.6,3.8c-0.4,2.1,0.3,4.4,1.6,5.4c1.7,1.3,4.2,1.5,6.4,1.9
			c0.2,0,0.3,0.1,0.4,0.1c0.4,0.1,0.9,0.3,1.5,0.5l0,0c1.1,0.3,1.8,0.6,2.4,1c0,0,0.1,0,0.1,0c0,0,0,0-0.1,0c1,0.6,1.3,1.2,1.3,1.2
			l-0.4,0l0.1,0c-0.1,0-0.2,0-0.2,0l-2.2-0.2c-4.7,0.2-9.2,3.4-9.2,3.4c-2.9,1.7-6.5,0.6-6.7,0.5c0,0,0,0-0.1,0
			c-0.2,0-0.9-0.1-1.1-0.3L18.9,104.8z"/>
		<path class="st1" d="M48.2,84.7c0,0.7,0.1,1.4,0.2,2c0.4,2.3,1.1,4.5,1.3,6.8c0.2,3,0,5.6,0.8,8.5c0.8,2.7,2.1,5.6,2.2,8.4
			c0,0.7-0.1,1.9-0.1,3c-0.1,0.5-0.2,1-0.4,1.4c-0.4,0.8-1.1,1.1-1.6,1.7c-0.7,0.9,0.3,0.6,0.9,0.2c0.5-0.3,0.9-0.7,1.3-1.1
			c0.3,0.8,0.9,1.2,2.1,1c0.1,0.7,0.3,1.6,1.1,1.8c0-0.8,0.1-1.6,0.2-2.3c0.6,0.4,1.3,0.7,1.8,0c-0.5-0.7-1.4-0.5-1.7-1.5
			c0,0,0,0,0-0.1c0-0.5,0-1,0-1.5c-0.2-2.7-0.9-5.3-1.2-8c-0.3-2.8,0.7-5.6-0.3-8.4c-0.8-2.4-0.9-5.7-0.9-8.3c0-0.7,0.2-1.5,0.3-2.2
			c0.1-0.2,0.1-0.4,0.2-0.7c0.5-1.6,1-3.2,0.4-4.8c0-0.1-0.1-0.3-0.2-0.4l0.1,0.4l0.1,0.3c0-0.1-0.1-0.2-0.1-0.3
			c-0.3-0.8-0.7-1.3-1.2-1.5c-0.5-0.2-1.1-0.1-1.8,0.1c-0.3,0.1-0.7,0.3-1.1,0.6C48.9,81.2,48.1,82.5,48.2,84.7z"/>
		<path class="st5" d="M55,81.4L55,81.4c0.3,1.4-0.2,2.8-0.6,4.3c-1.5-0.2-3.8-0.1-6.1,1.1c-0.1-0.7-0.2-1.3-0.2-2l-0.6-8.6
			C54.5,75.9,55,81.4,55,81.4z"/>
		<g>
			<path class="st5" d="M23.5,112.9c-0.1-0.4-0.2-0.8-0.2-1.1c-2.4-2.2-2.7-4.9-2.6-6.4c-0.5-0.2-4.2-1.2-3.8,3.4
				c0.8,1.7,2.2,3.5,2.7,4.6c0.9,2,0.5,3.3,2.8,4.2c1.3,0.5,3.6,1.4,4.8,0.4C26.3,115.9,24.1,115.5,23.5,112.9z"/>
			<path class="st5" d="M20.7,105.2C20.7,105.2,20.7,105.2,20.7,105.2L20.7,105.2L20.7,105.2z"/>
		</g>
		<path class="st1" d="M40.4,115.7c-0.4,0.5-0.9,0.8-1.4,0.9c-1.2,0.4-2.8,0-4.3-0.7c-2-0.9-4-1.4-5.3-2.2c-2-1.2-4.1-2-6.3-2.9
			c-0.3-0.1-0.6-0.2-0.9-0.4c-1.7-0.7-3.5-1.3-5.2-2.1c0,0.1-0.1,0.2-0.1,0.3v0c-0.2,0.5-0.5,1-0.7,1.4v0c-0.3,0.5-0.6,1-0.9,1.5
			c-0.2,0.4-0.5,0.8-0.6,1.2c0,0.1-0.1,0.2-0.1,0.3c0,0.1-0.1,0.2-0.1,0.3c-0.2,0.8-0.3,1.7,0,2.9c-1.4,0.5-2.2,0.1-2.8-0.6
			c-0.1-0.1-0.2-0.3-0.3-0.5c-0.3-0.6-0.5-1.4-0.6-2.2c-0.1-1.3,0-2.6,0.3-3.9c0.1-0.4,0.2-0.9,0.2-1.3c0.1-1-0.2-2.6-0.2-4
			c0-1.2,1-2.2,2.2-2.3c0.1,0,0.1,0,0.2,0c0.2,0,0.4,0,0.6,0h0c1,0.1,1.6,0.6,2.2,1.1c0.3,0.3,0.5,0.5,0.8,0.8c0,0,0,0,0,0
			c0.5,0.5,1,0.9,1.8,1.2c0,0,0,0,0,0c0.5,0.2,1,0.4,1.5,0.5c0.5,0.1,1,0.2,1.6,0.4c0,0,0,0,0.1,0c0.7,0.1,1.5,0.3,2.1,0.4
			c4.4,0.9,9.4,3.9,10.6,4.1c-0.9-0.7-6.8-4.7-7.6-5.4c-0.2-0.1-0.3-0.3-0.5-0.4c-0.2-0.1-0.4-0.3-0.5-0.4c-3.1-2.6-4.7-4.6-4.7-4.6
			c-0.5-0.3-1-0.6-1.4-1c-0.3-0.2-0.6-0.5-0.9-0.8c-0.1-0.1-0.3-0.3-0.4-0.4c-0.1-0.1-0.1-0.1-0.2-0.2c0,0,0,0,0,0c0,0,0,0,0,0
			c-0.4-0.5-0.7-1-0.8-1.6c0-0.2-0.1-0.3-0.1-0.5c0,0,0,0,0,0c-0.4-2.1,0.4-3.6,1.9-4.7c1.4-1.1,3.2-1.4,4.9-1.2
			c0.7,0.1,1.3,0.3,1.9,0.6c0.2,0.1,0.5,0.2,0.7,0.4c0.5,0.3,1,0.6,1.4,1c0.2,0.2,0.5,0.4,0.7,0.5c0.1,0.1,0.3,0.2,0.4,0.3h0
			c0.4,0.3,0.8,0.7,1.2,1h0c0.2,0.2,0.4,0.4,0.6,0.5c2.3,2.2,4,4.6,5.2,6.3c0.1,0.1,0.1,0.2,0.2,0.2c0,0,0,0,0,0
			c0.5,0.8,0.9,1.4,1,1.7c0.1,0.1,0.1,0.2,0.1,0.2c0.3,0.5,0.5,1,0.8,1.6c0.2,0.5,0.4,0.9,0.6,1.4c0.3,0.8,0.7,1.7,1.1,2.5
			C41.6,110.3,42.9,112.8,40.4,115.7z"/>
		<path class="st6" d="M43.4,107.2c-1.8,0.6-1.6-0.2-3-0.1c0.7,0,1.8-0.1,2.9-0.2C43.3,107,43.4,107.1,43.4,107.2z"/>
		<path class="st2" d="M25.4,91.3c2.4,0.5,5.2,1.2,5.8,1.9c0,0,1.7-2.6,5.6-2.7c0.1,0,0.2,0,0.3,0.1c-1.9-1.3-3.9-2.4-6-3
			C27.5,87,25.8,89,25.4,91.3z"/>
		<path class="st5" d="M17.3,87.3c0.7-1.6,2.1-3.2,3.6-4.6c0,0,0,0,0,0c1.4-1.3,3-2.4,4.3-3.2c2.9-1.8,5.5-4,8.4-5.7
			c0.9-0.5,1.7-0.9,2.6-1.1l0,0c3-1.2,6.4-0.9,8.6-0.5l0,0c0,0,0,0,0.1,0c0.1,0,0.2,0,0.4,0.1c0.5,0.1,1,0.2,1.4,0.3
			c3.2,1.3,4.5,4.3,4.9,5.6c0.4,1.8,0.2,3.1,0,3.7l0,0c-0.1,0.2-0.1,0.4-0.2,0.6c0,0,0,0.1,0,0.1l0,0c-0.4,0.9-1,1.7-2.1,2.5
			c-1.2,0.7-2.4,1.2-3.7,1.7c-3,1.2-6.3,1.8-9.3,2.9c-0.1,0-0.1,0-0.2,0.1c-0.7,0.2-1.4,0.5-2.2,0.7c-0.5,0.1-1.4,0.4-2.4,0.7h0
			c-0.5,0.2-1.1,0.3-1.8,0.5c-1.3,0.4-2.7,0.8-4.1,1.1c-2.9,0.8-5.6,1.6-6.2,1.9c0,0.3,0,0.7-0.1,1c-0.7-0.1-1.2-0.5-1.5-0.9
			C15.9,92.9,16.5,89,17.3,87.3z"/>
		<path class="st1" d="M35.4,122.8c0.2,0.7,1.1,0.2,1.7,0.1c0,0.2,0,0.4-0.1,0.5c0.7,0.1,1.3-0.3,2-0.5c-0.2,0.2-0.2,0.6-0.2,0.8
			c0.9-0.1,2-0.4,2.8-0.9c0.4-0.2,1.1-1.2,1.5-1.2c0.3,0,0.8,0.7,1.2,0.8c0-0.7-0.5-1.2-0.7-1.9c-0.1-0.6,0-1.4-0.1-2
			c-0.2-1.2-0.5-2.4-0.6-3.6c-0.3-2.7,0.2-5.4,0.7-8c0.6-3,0.7-5.7,0.4-8.8c-0.1-1.3-0.2-2.7-0.1-4c0-1.5,0.2-2.9,0.4-4.2
			c0.2-0.8,0.3-1.6,0.5-2.4c0.1-0.4,0.2-0.8,0.3-1.2c0.3-1.1,0.5-2.2,0.6-3.3c0-0.5-0.1-3.4-3.1-3.1c-1.7,0.5-2.9,1.3-3.7,3.1
			c-0.4,1-0.7,2.1-0.8,3.2c-0.1,0.8,0,1.6,0,2.4c0.1,1.3,0.4,2.6,0.6,3.8c0,0.2,0.1,0.3,0.1,0.5c0.6,2.6-0.4,5.4-0.4,8.1
			c0,2.9,0.8,5.6,1.2,8.4c0.4,2.5,0.1,5.5-0.4,7.9c-0.3,1.6-1.4,2.5-2.4,3.7C36.4,121.2,35.2,122.4,35.4,122.8z"/>
		<path class="st1" d="M62.2,67.7c-0.6-2.4-2.9-4.4-5.8-4.7c-2.4-0.3-4.6,0.6-6,2.2c0,0,0,0-0.1,0.1c-0.4,0.4-0.6,0.9-0.9,1.4
			c-0.3,0.7-0.7,1.6-0.8,2.7c0,0,0,0,0,0l-0.1,0c0,0-0.6,3-3.9,2.7c0,0,2.3,6.8,5,7.6c0,0,0.9-2.3,2.8-1.9c0.3,0.4,0.7,0.9,1.1,1.5
			c0.4,0.5,0.8,1.1,1.2,1.5c0,0,0,0,0,0c0,0,0.1,0,0.1,0.1c0.4,0.3,0.8,0.5,1.2,0.5c0.2,0,0.3,0,0.5-0.1c1.2-0.4,2.3-2.3,3.7-2.6
			c-1.1-2.6,0.6-4.4,1.6-6.5C62.7,70,62.4,68.2,62.2,67.7z"/>
		<path class="st2" d="M16.5,90.5v-0.3l0.1,0c0.1-1.2,0.4-2.3,0.7-3c0.7-1.6,2.1-3.2,3.6-4.6c0,0.2,0.2,3.7,3.3,6.1
			c0.5,0.4,1,0.8,1.7,1.1c0.7,0.3,1.5,0.6,2.4,0.8c0.9,0.2,1.8,0.3,2.9,0.4h0l-0.6,1.5v0c0,0-2.3-1-5.3,0.4
			c-1.7,0.8-3.5,2.4-5.3,5.3c-0.3-0.2-0.6-0.5-0.9-0.8C16,95,16.5,90.5,16.5,90.5z"/>
		<g>
			<path class="st5" d="M37.9,86.1c0,0.3,0,0.6,0,0.9c0-0.1,0-0.2,0-0.2l0,0c-1.1-9.5,3.8-9.4,3.8-9.4c1.8,0.2,2.8,1,3.2,1.9l0,0
				c0,0,0,0,0,0c0.3,0.6,0.4,1.3,0.5,1.8c0.1,0.4,0.1,0.9,0.1,1.4c0,0.2,0,0.3,0,0.4c0,0.1,0,0.2,0,0.4c0,0.5-0.1,0.9-0.2,1.4l0,0
				c-0.1,0.5-0.2,1-0.3,1.5C43.6,85.8,41.3,85.5,37.9,86.1z"/>
			<path class="st5" d="M37.9,88.4c0-0.3,0-0.7-0.1-1C37.9,87.8,37.9,88.1,37.9,88.4z"/>
		</g>
		<path class="st0" d="M48.6,67c0.2-0.3,0.3-0.7,0.6-1c0.1-0.1,0.2-0.3,0.3-0.4c0,0,0.1-0.1,0.1-0.1c0,0,0,0,0,0l0,0
			c1.3-1.5,3.2-2.5,5.2-2.8c1-0.2,1.9-0.1,2.7,0.1l0,0c0,0,3.6-0.1,5.7,5.5c0,0,1,2.2,1.4,2.9c-2.5,0.8-4.7-0.8-6.4-2.2
			c-0.1,0.1-0.2,0.2-0.3,0.4l0,0c0,0-5.7,6.1-10.6,2.1C47.3,71.4,47.7,69,48.6,67z"/>
		<path class="st5" d="M15.5,108.7c-1.1-3.6,1.4-5.1,1.6-5.1c-0.3-0.3-0.5-0.5-0.8-0.8c-0.6-0.6-1.2-1-2.2-1.1h0c-0.2,0-0.4,0-0.6,0
			c-0.1,0-0.1,0-0.2,0c-1.2,0.1-2.1,1.1-2.2,2.3c-0.1,1.4,0.3,3,0.2,4c0,0.4-0.1,0.9-0.2,1.3c-0.3,1.3-0.4,2.6-0.3,3.9
			c0.1,0.8,0.3,1.6,0.6,2.2c0.1,0.2,0.2,0.3,0.3,0.5c0.6,0.8,1.4,1.1,2.8,0.6c-0.3-1.2-0.2-2.1,0-2.9c0-0.1,0.1-0.2,0.1-0.3
			c0-0.1,0.1-0.2,0.1-0.3c0.2-0.4,0.4-0.8,0.6-1.2c0.3-0.5,0.6-1,0.9-1.5v0c0.2-0.4,0.5-0.9,0.7-1.4v0c0,0,0,0,0,0
			C16.4,108.5,15.9,108.5,15.5,108.7z"/>
	</g>
	<g>
		<path class="st1" d="M240,89c-0.5,1.1-1.4,2.1-2.1,2.9c-2.4,3.2-4.9,5.2-8.5,6.9c-2.1,1-4.2,2.5-6,4.2c-0.5,0.5-1,1-1.5,1.6
			c-0.2,0.3-0.5,0.6-0.7,0.9c0,0.1-0.1,0.1-0.1,0.2c-0.5,0.7-0.9,1.4-1.2,2.2c-0.2,0.6-0.4,1.2-0.5,1.8c0,0.1,0,0.2,0,0.2
			c0,0,0,0.1,0,0.1c-0.1,0.7-0.2,1.4-0.2,2.2c0,0.1,0,0.1,0,0.2c0,0.7,0.5,1.8,0.3,2.5c-0.4,1.7-2.6,0.5-3.2-0.8
			c-0.6-1.2-0.5-3.1-0.5-4.5c0-0.8,0.1-1.6,0-2.4c0-0.3-0.1-0.6-0.3-0.8c-0.2-0.3-0.4-0.6-0.5-1c0,0,0-0.1,0-0.1c0,0,0,0,0,0
			c0-0.1,0-0.2,0-0.2c0,0,0,0,0,0c0,0,0-0.1,0-0.1c0-0.5,0.2-0.9,0.5-1.2c0,0,0.8-0.6,1.8-0.7c0.1,0,0.1,0,0.2,0c0.1,0,0.2,0,0.3,0
			c0.1,0,0.2,0,0.3,0c0,0,0.3-0.2,0.9-0.7c0.7-0.6,1.7-1.4,2.7-2.5c0.6-0.6,1.1-1.2,1.6-1.9c0.1-0.1,0.2-0.2,0.2-0.3
			c0.7-0.8,1.4-1.8,2-2.9c1.4-2.9,3.2-5.1,6.5-5.7c-1.1-0.6-2.3-1-3.4-1.7c0,0-1-0.5-2.1-1.3c-0.3-0.2-0.7-0.5-1.1-0.8
			c-0.8-0.6-1.4-1.4-1.7-2.1v0c-0.1-0.4-0.2-0.7-0.1-1.1c0.1-0.4,0.5-0.9,1.1-1.2c0.5-0.4,1.3-0.8,2-1.1c0.1,0,0.2-0.1,0.3-0.1
			c1.1-0.4,2.2-0.6,2.7-0.6c3.3,0.2,4.7,2.3,7,4.3c1.3,1.1,3.4,2.1,3.5,4C240.4,87.9,240.3,88.4,240,89z"/>
		<path class="st0" d="M250.6,107.3c-0.1,0-0.2,0-0.2-0.1l-58.7-41.9c-0.2-0.1-0.2-0.4-0.1-0.6c0.1-0.2,0.4-0.2,0.6-0.1l58.7,41.9
			c0.2,0.1,0.2,0.4,0.1,0.6C250.9,107.3,250.8,107.3,250.6,107.3z"/>
		<path class="st1" d="M248,84.4c-1.5-1.1-2.9-2.4-4.5-3.4c-2.6-1.6-5.6-3-8.4-4.2c-1.5-0.6-2.8-1-4.1-1.8c-0.7-0.5-1.4-1-2.1-1.3
			c-0.1-0.1-0.2-0.1-0.3-0.2c0,0,0,0,0,0c-0.7-1-2.6-1.7-4.5-2.2c-1.6-0.4-3.2-0.7-4.2-0.9c-0.1,0-0.1,0-0.2,0
			c-2.8-0.5-5.9-1-8.8-0.7c-1.3,0.1-2.6,0.4-3.9,0.8c0.4-0.9,1-1.7,1.9-2l-0.3,0.1c1.1-0.3,1.2-1.3,1.7-2.2c0.3-0.5,0.4-0.8,0.8-1.1
			c0.4-0.3,0.9-0.3,1.3-0.8c-0.4,0.1-0.9-0.1-1.2-0.2c0.7-0.5,2-0.8,2.3-1.7c-0.5-0.2-1-0.2-1.5,0c0.2-0.1,0.4-0.2,0.6-0.3
			c-0.9-0.4-2-0.1-3,0.2c0.2-0.1,0.4-0.4,0.5-0.5c-3.3-0.4-2.6,4.7-4,6.3c-0.9,1-2.8,1.8-3.9,2.6c-0.9,0.7-1.7,1.2-2.6,1.8h0
			c-1.3,0.4-2.6,0.9-3.7,1.7h0c0,0,0,0,0,0c-0.1,0.1-0.3,0.2-0.4,0.3c0,0,0,0,0,0c0,0-0.1,0-0.1,0.1l0,0c-0.2,0.1-0.4,0.3-0.5,0.5
			c-1.2,1-1.9,2-1.9,2c-0.3,0.5-0.5,1.1-0.6,1.8c0,0.8,0.3,1.3,0.6,1.7c0,0.2-0.1,0.3-0.1,0.5c-0.1,0.4-0.4,0.7-0.6,1.1c0,0,0,0,0,0
			c-1.5,1.1-2.6,2.4-4.6,2.9c-1,0.3-2,0.3-2.4,1.4c-0.3,0.9-0.1,1.9-0.5,2.8c-0.2,0.5-0.9,1-0.9,1.4c0,0.6,0.7,0.8,1,1.2
			c0.6,0.8,0.5,1.9,0.6,2.9c0.3,2.1,1.1,3.6,4.2,3.8c0.4-0.1,0.8,0,1.1,0c1.8-0.1,5-0.9,5.7-5c0,0,0-0.1,0-0.1
			c0-0.4,0.1-1.6-0.5-3.3c-0.4-1-0.9-1.9-0.6-2.9c0.3,0.1,0.7,0.2,1,0.4c0.1,0,0.3,0.1,0.5,0.1c0.6,0.2,1.2,0.4,1.7,0.7
			c1.5,1.5,3.9,1.9,6,2.7c0.3,0.1,0.6,0.3,0.9,0.4c1.4,0.8,3.1,2.1,4.3,3.2c1.1,1,1.4,2.5,2.6,3.4c2,1.7,4.3,2.8,6.5,4.2
			c0.8,0.5,1.7,1.1,2.4,1.7c0.2,0.2,0.4,0.4,0.7,0.6c2.2,1.9,4.7,3.9,6.3,6.3c0.4-1.1-0.4-1.6-0.8-2.5c1.4,0.5,4.1,1.6,5.4,0.6
			c-1.4-2.8-5.2-4-7.8-5c-0.7-0.3-1.2-0.6-1.6-1.1c-0.5-0.6-0.9-1.4-1.3-2.2c-0.2-0.3-0.3-0.6-0.5-0.9c-0.8-1.3-1.7-2.5-2.8-3.6
			c-1.2-1.3-2.6-2.7-3.9-3.8c-1.2-1-2.5-1.2-3.8-1.8c-1.3-0.6-2.2-1.6-3-2.7c-0.4-0.6-0.9-1.1-1.3-1.7c2.3-2.1,4.4-4.9,6.9-6.1
			c2.9-1.3,3.2,1,4.7,2.8c0.3,0.3,0.6,0.6,0.9,0.9c0.2,0.1,0.4,0.3,0.7,0.4c1.4,0.8,3.5,1.5,5.5,0.9c0.4-0.1,0.9-0.3,1.3-0.5
			c0.1,0.1,0.2,0.1,0.3,0.2c2.4,1.4,4.5,2.6,7.4,3.3c1.8,0.4,3.7,0.6,5.6,0.9c1.2,0.2,2.5,0.4,3.7,0.8c-0.3,0.6-1,1.3-1.6,2
			c-0.3,0.3-0.5,0.5-0.8,0.8c-1.8,2.2-2.2,5-2.2,6.2c-0.1,3,0.9,5.7,0.9,8.6c0,0.7,0.1,1.5-0.3,2.2c-0.2,0.3-0.3,0.5-0.5,0.6
			c-0.3,0.2-0.6,0.1-1.2,0.4c-1.7,0.8-1.9,2.2-1.2,3.7c0.8,1.7,1.8,3.2,2.5,4.9c0.5,1.1,1.1,3.1,1.9,3.9c0.2,0.2,0.5,0.4,0.9,0.5
			c1,0.2,2.4-0.2,2.5-1.1c0.1-0.5-0.5-1.7-0.6-2.2c0-0.3-0.1-0.5-0.1-0.8c0-0.5,0-1,0-1.6c0,0,0-0.1,0-0.2c-0.1-1.4-0.3-2.7-0.5-4.1
			c-0.2-1.6-0.3-3.1,0-4.7c0.5-3.4,2.2-6.8,3.3-10.1c1.1-3.5,2.6-6.9,3.3-10.5C250.4,86.4,249.6,85.5,248,84.4z"/>
		<path class="st5" d="M219.9,70.3c-0.1,0-0.1,0-0.2,0c-2.4-0.4-5-0.9-7.5-0.8l-3.9,0.5c0,0-0.1,0-0.1,0c-0.6,0.2-6.2,1.7-8.4,2.5
			c0,0,0,0,0,0h0c-0.6,0.2-1.1,0.4-1.7,0.6c-2.5,1.2-4.2,2.9-4.5,3.1c-0.5,0.7-1,1.5-1.1,2.6c0,0.8,0.3,1.3,0.6,1.7
			c0,0,0.7-0.2,1.5,0.2c1.1,0.5,2.4,2.1,2,6.8c0.1,0,0.3,0.1,0.5,0.1c0.6,0.2,1.2,0.4,1.7,0.7c1.5,1.5,3.9,1.9,6,2.7
			c0.9-1,2.2-2.3,3.3-3.2c-0.4-0.6-0.9-1.1-1.3-1.7c2.3-2.1,4.4-4.9,6.9-6.1c2.9-1.3,3.2,1,4.7,2.8c0.3,0.3,0.6,0.6,0.9,0.9
			c0.2,0.1,0.4,0.3,0.7,0.4l1.5-4.6l2-6.1l0.8-2.4C222.6,70.8,221,70.5,219.9,70.3z"/>
		<path class="st2" d="M228.9,73.6L228.9,73.6c-0.1,0.1-0.1,0.1-0.1,0.1c0,0,0,0,0,0c-0.3,0.4-1.8,2.6-2,5.8c0,0.7,0,1.4,0,2.2
			c-0.1,1.7,0.2,3,0.2,3l-0.5,1.2c-0.3-0.2-0.7-0.5-1.1-0.8c-2,0.5-4.1-0.1-5.5-0.9c-0.3-0.1-0.5-0.3-0.7-0.4
			c-0.4-0.3-0.6-0.6-0.9-0.9c1.7-3.9,1.8-8.9,1.6-12.6c1,0.2,2.7,0.4,4.2,0.9c1.9,0.5,3.7,1.2,4.5,2.2c0,0,0,0,0,0
			C228.7,73.5,228.8,73.5,228.9,73.6z"/>
		<path class="st5" d="M244.1,120.2c0-0.3-0.1-0.5-0.1-0.8c0-0.5,0-1,0-1.6c0,0,0-0.1,0-0.2c-0.1-1.4-0.3-2.7-0.5-4.1
			c-0.3,0.1-0.5,0.3-0.7,0.6l0,0c0,0-2.6-1.2-3.4-3.5c-0.1-0.2-0.1-0.3-0.1-0.5c-0.3,0.2-0.6,0.1-1.2,0.4c-1.7,0.8-1.9,2.2-1.2,3.7
			c0.8,1.7,1.8,3.2,2.5,4.9c0.5,1.1,1.1,3.1,1.9,3.9c0.2,0.2,0.5,0.4,0.9,0.5c1,0.2,2.4-0.2,2.5-1.1
			C244.8,122,244.2,120.8,244.1,120.2z"/>
		<path class="st5" d="M219.5,110c0-0.1,0-0.2,0-0.2c0.1-0.6,0.3-1.2,0.5-1.8c0.2-0.6,0.5-1.1,0.8-1.6c-0.5-0.3-0.9-0.1-1.2,0
			c-0.1,0.1-0.4,0.3-0.5,0.6c0,0,0,0,0,0c-0.9-1.3-1-3.2-1.1-3.5c0,0,0,0,0,0c0-0.3,0-0.4,0-0.4c-0.1,0-0.2,0-0.3,0s-0.2,0-0.3,0v0
			c-0.1,0-0.1,0-0.2,0c-1.1,0.1-1.7,0.5-2,0.9h0c0,0,0,0,0,0.1c0,0,0,0,0,0c0,0,0,0,0,0c-0.2,0.3-0.2,0.6-0.2,0.6h0
			c0,0.1,0,0.1,0,0.2c0,0,0,0.1,0,0.1c0,0,0,0.1,0,0.1c0,0,0,0,0,0c0,0.1,0,0.1,0,0.2v0c0,0,0,0,0,0c0,0,0,0.1,0,0.1l0,0
			c0.1,0.4,0.3,0.7,0.5,1c0.1,0.2,0.2,0.5,0.3,0.8c0.1,0.8,0,1.6,0,2.4c0,1.3-0.1,3.2,0.5,4.5c0.6,1.2,2.8,2.4,3.2,0.8
			c0.2-0.6-0.3-1.8-0.3-2.5c0-0.1,0-0.1,0-0.2c0-0.7,0.1-1.5,0.2-2.2C219.5,110.1,219.5,110,219.5,110z"/>
		<path class="st0" d="M188.4,98.8c0.4,0.1,0.8,0.2,1.2,0.4l0,0c4.5,1.7,6.8-0.9,6.8-0.9l0,0c1.3-1.1,1.8-3.1,1.5-4.7
			c-0.4-2.2-1.6-4.2-1.5-6.4c-0.4,0.1-1,0.1-1.4-0.2c-0.1,1.3,0.1,3-1.2,3.8c-0.1-0.5-0.4-1.2-0.9-1.4c-0.1,1.2-0.4,1.6-1,2.6
			c-0.7,1-0.6,1.5-0.3,2.6c-1.2,0.5-2.7,0.1-4,0.7c-1.1,0.5-2.7,1.7-2.8,2.9C186.1,98.3,187.1,98.4,188.4,98.8z"/>
	</g>
	<g>
		<g>
			<path class="st1" d="M162.4,60.2c0-2.1-0.9-0.9-1.4,0.4c-0.3,0.7-0.1,1.4,0,2c0,0.3,0,1.2-1.6,2.8c-0.3,0.2-0.6,0.4-0.8,0.5
				c-0.9,0.7-1.8,1.4-2.6,2.2c0,0,0,0,0,0v0c-0.2,0.2-0.4,0.4-0.5,0.6c-0.8,1.1-1.4,1.4-2.7,1.2c-1.6-0.2-3.2-0.6-4.9-0.8
				c-0.6-0.1-1.2-0.2-1.8-0.2c-0.1,0-0.2,0-0.4,0c-0.7-0.8-1.8-1.4-3.3-1.7c-0.8-0.1-1.6-0.2-2.3-0.1h0c0,0,0,0,0,0
				c-0.4-0.5-0.8-1-1-1.6c0-0.1,0-0.2,0-0.3c0.9,0.6,2.4,2.3,3.5,1.8c1.2-0.6,0.7-2.8,2.8-2.5c0-0.3-0.1-0.6-0.2-0.9
				c-0.1-0.5-0.2-0.9-0.1-1.3c0.2-0.8,1.2-1.4,1.7-2.1c0.4-0.7,0.9-1.8,0.9-2.9c0-0.3,0-0.6-0.1-1c0,0-0.9-3.6-4.7-4.3
				c-0.4-0.1-0.9-0.2-1.3-0.1c-2.8,0.4-5.2,2.2-6,4.8l-0.1,0.2l0,0.2c0,0,0,0,0,0.1c0,0,0,0,0,0c0,0.1-0.1,0.2-0.1,0.3
				c-0.1,0.7-0.2,1.3-0.2,1.8c0,0,0,0,0,0c-0.1,0.5-0.3,1.1-0.5,1.6c-0.1,0.2-0.1,0.3-0.2,0.4c0,0,0,0,0,0c-0.2,0.3-0.5,0.7-0.8,1
				c0,0,0,0,0,0l0,0c-0.7,0.7-1.3,1.2-1.9,1.1c-0.1,0-0.2,0-0.3-0.1h0l0,0h0c0,0,0,0,0,0c-0.4-1-1.8-1.7-3.4-1.7c0,0,0,0-0.1,0
				c0,0,0,0,0,0c0,0,0,0,0,0c-0.9,0-1.7,0.2-2.3,0.6c-1.8,0.3-3.6,0.2-5.5,0.3c-0.5,0-1,0.1-1.5,0.1c-1.8,0.2-3.4,0.8-5.1,1.4
				c-1.6,0.6-2.6,2-3.4,3.5c-0.5,1.1-1,2.3-1.4,3.5c-0.3,0.9-0.5,1.8-0.7,2.5c-0.4,1.1-0.9,2.1-1.3,2.9c-0.3,0.4-0.5,0.8-0.7,1.2
				c0,0,0,0,0,0c-0.6,1.1-0.8,2-0.8,2.2c-0.1,0.9-0.1,1.7-0.1,2.5c0.2,3.3,2.4-1.9,3.4-2.1c0.5,2,1.1,0.7,1.3-0.7
				c0.1-0.8-0.2-1.4-0.5-1.9c-0.1-0.3-0.2-1.2,0.9-3.1c0.2-0.2,0.5-0.5,0.7-0.7c0.7-0.9,1.5-1.8,2-2.7c0,0,0,0,0,0v0
				c0.1-0.2,0.3-0.5,0.4-0.7c0.6-1.2,1-1.6,2.4-1.8c1.4-0.2,2.8-0.2,4.2-0.2c0.9,0,1.7-0.1,2.6-0.2c0.1,0,0.2,0,0.4-0.1
				c0.3,0.2,0.7,0.4,1.1,0.6c-0.5,1.4-0.8,2.9-1.1,4.5c-0.3,1.7-0.6,3.4-0.7,5.2c-0.1,1.5,0.2,3.1-0.3,4.6c0,0.2-0.1,0.3-0.2,0.5
				c-0.2,0.4-0.4,0.8-0.6,1.2c0,0,0,0,0,0c0,0,0,0-0.1,0c0,0-0.1,0-0.1,0.1c-0.1,0.1-0.2,0.2-0.4,0.3c0,0,0,0,0,0
				c-0.1,0.1-0.2,0.1-0.2,0.2c-0.1,0.1-0.2,0.1-0.2,0.2c-0.1,0.1-0.1,0.1-0.2,0.2l-0.1,0.1c-0.1,0.1-0.2,0.2-0.3,0.3
				c0,0-0.1,0.1-0.1,0.2c-0.1,0.1-0.2,0.2-0.2,0.3c-0.4,0.5-0.7,1.1-0.9,1.8c-0.1,0.2-0.1,0.5-0.1,0.7c0,0.1,0,0.3,0,0.5
				c0,0.6,0.1,1.3,0.4,2c-0.1,0.1-0.1,0.1-0.2,0.2c-0.1,0.1-0.2,0.2-0.2,0.3h0c-0.9,1-1.8,2-2.6,3.1c-0.7,1.1-1.3,2.4-1.7,3.6
				c-0.3,1-0.4,2-0.7,3c-0.4,1.2-1.2,1.7-2.4,1.7c-1,0-2.1,0.1-3.1,0.4c-2,0.6-3.8,1.8-5.3,3.3c-1,1-1.9,2.1-3.1,2.8
				c-0.6,0.4-1.3,0.7-2,0.3c-0.3-0.2-0.6-0.4-0.9-0.5c-1.2-0.5-2.9-0.3-3.4,1c-0.5,1.3-0.4,2.6-0.7,4c0,0.1,0,0.2-0.1,0.3
				c-0.7,2.4-5.2,5.8-1.9,8.1c0.1,0,0.2,0,0.2,0c0.6-0.7,1-1.5,1.4-2.3c0.5-1,1.3-2,2.1-2.8c0.4-0.4,0.8-0.8,1.2-1.2
				c0.2-0.2,0.4-0.3,0.6-0.5c0.3-0.2,0.7-0.5,1-0.7c0.5-0.3,1-0.6,1.5-0.8c0.5-0.2,1-0.5,1.6-0.7c2.2-0.8,4.4-1.8,6.5-2.7
				c1.9-0.8,3.7-1.1,5.7-1.6c1.6-0.4,3.1-0.9,4.2-2.3c0.7-0.8,1.2-1.8,1.9-2.5c0.8-0.9,1.8-1.6,2.8-2.3c2-1.5,3.8-3.4,5.1-5.6
				c0.2-0.3,0.4-0.7,0.6-1c0,0,0,0,0-0.1c0.4,0.1,0.8,0.2,1.2,0.3c0,0,0,0,0.1,0c0.5,0,0.9,0.1,1.4,0.1c1.1,0.1,2.3,0.1,3.4,0.1
				c2.7-0.1,5.8-0.3,8.3-1.5c-2.2,3.3-1.1,7-0.5,10.8c0.3,2,0.6,4.6-0.8,6.3c0,0.1-0.1,0.1-0.1,0.2c0,0,0,0.1-0.1,0.1
				c-1,1-2,2.4-1.1,3.9c0.7,1.1,2.1,1.6,3,2.5c0.9,0.9,1.8,1.9,2.8,2.8c0.7,0.7,1.7,1.6,2.8,1.6c1,0.1,1.4-0.8,1.5-1.7
				c0-0.1,0-0.2-0.1-0.2c-1.5-1-2.4-2.8-3-4.4c0-0.1-0.1-0.3-0.1-0.4c-0.1-0.4-0.3-0.8-0.4-1.3c-0.1-0.4-0.2-0.8-0.3-1.2
				c-0.1-0.5-0.2-1.1-0.2-1.6c0-0.3,0-0.5,0-0.8c0-2.2,0.5-4.5,1.1-6.6c0.6-2.4,1.4-4.8,2.3-7.1c0.6-1.7,1.5-4.1,0.5-5.9
				c-0.8-1.4-2.3-2.2-3.8-2.8c-1.9-0.7-3.8-1.3-5.8-1.7c-1.7-0.3-3.4-0.6-5.1-0.7c-0.1,0-0.2,0-0.3,0c-0.5,0-1.1-0.1-1.7-0.1
				c0.1-0.2,0.1-0.4,0.1-0.4c0.1-0.2,0.2-0.4,0.3-0.6c0.2-0.4,0.4-0.8,0.6-1.1v0c0.1-0.2,0.2-0.4,0.4-0.6c0.9-1.3,1.6-2.6,2.3-4
				c0.9-1.8,1.9-2.5,3.6-3.5c1.2-0.7,2.1-1.7,2.7-2.8c0,0,0,0,0,0c0,0,0,0,0,0c1.3,0,2.6,0.2,3.9,0.5c0.7,0.1,1.4,0.3,2.1,0.4
				c2.3,0.4,4.5,0.2,6.7-0.1c1.7-0.2,3-1.4,4.1-2.7c0.8-0.9,1.5-2,2.1-3.1c0.5-0.8,0.9-1.6,1.2-2.2c0.7-1,1.4-1.9,1.9-2.5
				c0.4-0.4,0.7-0.7,1-1.1c0,0,0,0,0,0h0c0.8-1,1.2-1.8,1.3-2c0.3-0.8,0.5-1.7,0.6-2.5C166.7,55.7,163.4,60.3,162.4,60.2z"/>
			<path class="st2" d="M131.4,87.2L131.4,87.2C131.4,87.2,131.4,87.2,131.4,87.2c0,1.3-0.9,3.3-1.9,5c0,0-0.1,0.1-0.1,0.1
				c-0.6,1.1-1.3,2.1-1.8,2.8c0,0,0,0,0,0c-0.2,0.2-0.3,0.4-0.4,0.6c0,0,0,0-0.1-0.1c0,0,0,0,0-0.1c-0.3-0.4-1.4-1.7-3.4-2.6
				c-0.3-0.1-0.5-0.2-0.8-0.3c-1.1-0.4-2.5-0.7-4.2-0.8c-0.3-0.7-0.4-1.4-0.4-2c0-0.2,0-0.3,0-0.5c0-0.3,0.1-0.5,0.1-0.7
				c0.2-0.7,0.5-1.3,0.9-1.8c0.1-0.1,0.2-0.2,0.2-0.3c0-0.1,0.1-0.1,0.1-0.2c0.1-0.1,0.2-0.2,0.3-0.3l0.1-0.1
				c0.1-0.1,0.1-0.1,0.2-0.2c0.1-0.1,0.2-0.1,0.2-0.2c0.1-0.1,0.2-0.1,0.2-0.2c0,0,0,0,0,0c0.2-0.1,0.3-0.2,0.4-0.3
				c0,0,0.1,0,0.1-0.1c0,0,0.1,0,0.1,0c0,0,0,0,0,0c0.2-0.4,0.4-0.8,0.6-1.2C126.6,86.9,131.4,87.2,131.4,87.2z"/>
			<path class="st7" d="M146.1,69c-0.1,0-0.2,0-0.4,0c-0.7-0.8-1.8-1.4-3.3-1.7c-0.4-0.1-0.8-0.1-1.1-0.1l-1.1,0.1
				c-8.1,3.5-9.1-4.2-9.1-4.2h0c-0.6-0.7-1.7-1.2-3.1-1.2c0,0,0,0-0.1,0c0,0,0,0,0,0c0,0,0,0,0,0c-0.9,0-1.7,0.2-2.3,0.6
				c-1.8,0.3-3.6,0.2-5.5,0.3c-0.5,0-1,0.1-1.5,0.1c0.4,1.4,1.1,3.9,1.3,5.7l4.1,0.3c-0.5,1.4-0.8,2.9-1.2,4.5
				c-0.3,1.7-0.6,3.4-0.7,5.2c-0.1,1.6,0.2,3.1-0.3,4.6c-0.1,0.2-0.1,0.3-0.2,0.5c-0.2,0.4-0.4,0.8-0.6,1.2c0,0,4,3.1,10.1,2.4
				c0.1-0.2,0.1-0.4,0.1-0.4c0.1-0.2,0.2-0.4,0.3-0.6c0.2-0.4,0.4-0.8,0.6-1.1v0c0.1-0.2,0.2-0.4,0.4-0.6c0.9-1.3,1.6-2.6,2.3-4
				c0.9-1.8,1.9-2.5,3.6-3.5c1.2-0.7,2.1-1.7,2.7-2.8c1.3,0,2.6,0.2,3.9,0.5l2.7-5.4C147.3,69.1,146.7,69.1,146.1,69z"/>
			<path class="st0" d="M147.3,54.9c-0.2-0.3-0.5-0.6-0.8-0.9l0,0c-2.9-3.8-6.3-2.9-6.3-2.9l0,0c-1.6,0.2-3.1,1.6-3.8,3.1
				c-0.8,2-0.8,4.4-2.2,6.2c0.4,0.1,0.9,0.4,1,0.9c0.8-1,1.5-2.6,3-2.6c-0.2,0.4-0.3,1.2,0,1.6c0.7-0.9,1.2-1.2,2.3-1.6
				c1.1-0.5,1.3-1,1.7-2c1.3,0.3,2.4,1.4,3.8,1.6c1.2,0.2,3.1,0,3.9-1C148.9,56.5,148.1,55.9,147.3,54.9z"/>
			<path class="st2" d="M148.3,122c-0.1,0.9-0.5,1.7-1.5,1.7c-1-0.1-2-1-2.8-1.6c-1-0.9-1.9-1.9-2.8-2.8c-0.9-1-2.3-1.4-3-2.5
				c-0.9-1.5,0.1-2.9,1.1-3.9c0,0,0.1-0.1,0.1-0.1c0,0,0.1-0.1,0.1-0.2c1,1.4,2.7,1.8,3.8,1.9c0.6,0,1,0,1.1,0
				c0.1,0.4,0.2,0.8,0.3,1.2c0.1,0.4,0.2,0.9,0.4,1.3c0,0.1,0.1,0.3,0.1,0.4c0.6,1.7,1.5,3.4,3,4.4
				C148.3,121.8,148.3,121.9,148.3,122z"/>
			<path class="st2" d="M145,116.9l-1.6-1c0,0-0.1-0.3-0.1-0.7c0-0.2,0-0.5,0-0.8c0-0.6,0.3-1.2,0.8-1.6c0,0.5,0.1,1.1,0.2,1.6
				c0.1,0.4,0.2,0.8,0.3,1.2C144.7,116.1,144.9,116.5,145,116.9z"/>
		</g>
		<path class="st2" d="M96.4,115.1c-0.2-2.2,0.6-4.1,0.6-4.4c0,0,0,0,0,0c-0.3-0.2-0.6-0.4-0.9-0.5c-1.2-0.5-2.9-0.3-3.4,1
			c-0.5,1.3-0.4,2.6-0.7,4c0,0.1,0,0.2-0.1,0.3c-0.7,2.4-5.2,5.8-1.9,8.1c0.1,0,0.2,0,0.2,0c0.6-0.7,1-1.5,1.4-2.3
			c0.5-1,1.3-2,2.1-2.8c0.4-0.4,0.8-0.8,1.2-1.2c0.2-0.2,0.4-0.3,0.6-0.5c0.3-0.2,0.7-0.5,1-0.7c0.5-0.3,1-0.6,1.5-0.8
			C97.5,114.9,96.9,115,96.4,115.1z"/>
	</g>
	<g>
		<g>
			<path class="st1" d="M332.1,117.3c-1.4,0.9-2.7,3.4-4.5,2.5c-0.8-0.4-1-1.6-1.5-2.2c-0.1-0.1-0.2-0.2-0.3-0.3
				c-0.5-0.6-1-1-1.6-1.4c0,0-0.1-0.1-0.3-0.2c0,0-0.1-0.1-0.1-0.1c0,0,0,0,0,0c-1.2-0.8-4.3-2.7-5.7-3.1c-6-2.7-6.2-8.7-6.2-8.7
				c-1.9-1.3-5.1-1.2-5.1-1.2c-0.4,0-0.8,0-1.2,0c-0.2,0-0.4,0-0.5,0c-0.4,0-0.9,0-1.3,0c-4.1,0-8.8,1.8-12.8,1
				c-0.3-0.1-0.6-0.1-0.8-0.2c-0.3-0.1-0.6-0.3-0.8-0.5c-2.4-2-1.4-7,1.1-8.7h0c0.1-0.1,0.2-0.1,0.3-0.2c1.9-0.3,3.7-0.5,5.5-0.5
				c0,0,0,0,0,0c2.1,0,4.2,0.2,6,0.5c6.4,1,10.6,3.4,10.6,3.4c0.6,0.1,1.2,0.3,1.6,0.7c1.5,1.2,2.3,4.6,3.4,6.3
				c1.6,2.4,3.6,4.4,5.4,6.6c1.1,1.3,2.8,3,4.7,3.1c0.1,0,0.3,0,0.4,0c0.6,0,1.3-0.1,2-0.3c0.4-0.1,0.7-0.1,1.1-0.2
				c0.5-0.1,1.1-0.2,1.6-0.2c1.7-0.1,3.3-0.3,4.5-1.4h0c0.7-0.5,1,0.5,1,0.6C339.1,115.8,334.7,115.6,332.1,117.3z"/>
			<path class="st1" d="M319.8,68.8c2.1-0.9,4.7-2,7-2.2c2.2-0.2,4.6,0.4,6.8,0c2.7-0.6,3.4-3.9,6-2.1c0.7,0.4,2.7,1.6,2.7,2.5
				c-0.1,0.9-2.3,2-3,2.3c0-0.6-0.3-0.7,0.1-1.3c-0.9,1.8-3,1.2-4.6,1.5c-1.7,0.3-3.6,1.1-5.2,1.7c-3.4,1.3-7.5,2.8-11.2,2.3
				c-0.1-1.2,0.7-3.7,1.3-4.7H319.8z"/>
			<path class="st1" d="M320.4,66.5c-2.7-3.8-8.6-2.8-11.4,0.9c0,0-1,1.1-2.5,2.3c-0.6,0.5-1.3,1-2.1,1.5h0c0,0,0,0,0,0l0,0
				c-0.9,0.3-2.2,0.7-3.7,1.4v0c-2.4,1.2-5.4,3-8.1,6c-0.7,0.7-1.4,1.5-2,2.4l0,0c0,0.1-0.1,0.1-0.1,0.2c-1.9,2.8-3.5,6.1-4.7,8.9
				c-0.4,0.9-0.8,1.9-1.1,2.9c-0.1,0.2-0.1,0.4-0.2,0.5c-0.9,2.9-1.2,6,0.4,8.5c0.5,0.9,1.3,1.6,2.1,2.3c0.6,0.5,1.2,0.9,1.9,1.2
				c2.7,1.5,6,2.3,8.9,3.1c0.1,0,5.1,0.9,5.2,0.9c-3.8,0.6-12.6,1.3-15.9,2.6c0,0,0,0,0,0c0,0,0,0,0,0c-0.1,0.1-0.3,0.1-0.4,0.2
				c-1.6,0.6-2.6,0.9-4.2,0.6c-0.1,0-0.2,0-0.2,0c-1.2-0.2-3.8-1.2-4.9-0.1c-0.7,0.7-0.3,1.7-0.5,2.5c-0.2,0.7-0.8,1.6-1.2,2.2
				c-0.9,1.4-2.9,3.3-2.8,5.1c0.2,2.6,2.6-0.3,3.7-1c0.9-0.6,1.9-1,2.8-1.5c0.7-0.3,1.5-0.7,2.2-1.1c0.1,0,0.2-0.1,0.3-0.1
				c0.4-0.2,0.7-0.4,1-0.6c1.2-0.8,2.1-1.4,3.9-1.5c1.5-0.1,3.1,0,4.7,0c3.4,0,6.8,0.1,10.1-0.2c3.5-0.3,6-1.2,8.5-3.2
				c0.7-0.1,1.3-0.4,1.8-0.9l0,0c0.1-0.1,0.1-0.2,0.2-0.3c0.9-1.3,0.3-2.9,0.2-3.1c-0.1-0.2-0.2-0.4-0.3-0.5
				c-0.9-1.6-2.8-3.3-4.8-4.7c-0.7-0.5-1.3-1-2-1.4c-0.7-0.4-1.4-0.8-2-1.2c-0.3-0.2-0.4-0.2-0.4-0.2v0c-0.2-0.1-0.3-0.2-0.5-0.3
				c-0.9-0.4-2.5-1-4-1.8c0,0,0,0,0,0c0,0,0,0,0,0c-1.7-0.9-3.1-2.1-2.9-3.7c0-0.2,0.1-0.4,0.2-0.7c0.2-0.4,0.5-0.8,1-1.2h0
				c1-0.8,2.4-1.4,3.2-2c1.5-1,2.8-2.3,4.2-3.4c0.5-0.4,1-0.8,1.4-1.3c1.9-1.8,3.1-3.6,4-6.2c0.1-0.3,0.2-0.6,0.3-1l-1-1.7l0.1,0
				c0.1,0.1,0.1,0.3,0.2,0.4c2,3.1,5.1,0,7.9,0.3c0-0.5,0-0.8,0.1-1.1c0.1-0.4,0.3-0.6,0.6-0.8c0.2-0.2,0.6-0.3,1-0.6
				c1.4-0.8,2.1-1.2,2.8-2.7c0.1-0.1,0.1-0.2,0.2-0.4C322.4,70.4,322,68.5,320.4,66.5z"/>
			<path class="st1" d="M338.5,91.3c-0.4-0.5-0.6-1.2-0.2-1.8c-1.8-0.1-2.2,0.5-4-0.5c-1.3-0.7-2.5-1.1-4.1-1.2
				c-3.6-0.3-6.7-1.1-9.9-2.8c-1.1-0.6-2.1-1.4-3.2-2c-0.4-0.2-0.7-0.4-1.1-0.5c-1.5-0.5-3.1-0.6-4.5-1.1c-0.8-0.3-1.6-0.6-2.3-0.9
				c-0.7-0.3-1.5-0.5-2.3-0.7c-0.4-0.1-0.8-0.2-1.2-0.5c-0.9-0.5-1.5-1.3-1.8-2.6c-0.1-0.6-0.1-1.4,0.2-2c0.2-0.6,0.6-1.2,1.1-1.6
				c0,0,0,0,0,0c0.1-0.1,0.2-0.1,0.3-0.2c0.3-0.2,0.7-0.3,1.1-0.3c1.6-0.3,3.2,0.5,3.2,0.5c1.2,0.4,2.4,1.1,3.5,1.8
				c0.3,0.2,0.5,0.3,0.8,0.5c0.8,0.5,1.5,1.1,2.1,1.5c0.2,0.1,0.4,0.3,0.6,0.4c0.9,0.6,1.7,1.1,2.7,1.5c0.3,0.1,0.6,0.2,0.9,0.3
				c1.5,0.5,3.2,0.7,4.6,1.4c3.1,1.5,5.2,4.3,8.7,4.9c2.2,0.4,6.7-1.2,7.7,1.2C342.4,89.3,340.9,90.7,338.5,91.3z"/>
			<path class="st0" d="M321.9,69.2c-0.1-0.4-0.3-0.9-0.5-1.3l0,0c-1.4-5.2-5.3-5.7-5.3-5.7l0,0c-1.8-0.4-4,0.4-5.3,1.7
				c-1.8,1.8-2.8,4.2-4.9,5.5c1.4,0.7,2.9,0,2.9,0v0c0.7-0.3,1.3-0.4,2.1-0.1c-0.4,0.4-0.8,1.2-0.7,1.7c1.1-0.7,1.8-0.7,3.1-0.7
				c1.3,0,1.8-0.5,2.6-1.4c1.3,0.8,1.9,2.4,3.3,3.3c1.2,0.7,3.3,1.4,4.5,0.6C322.9,71.6,322.3,70.6,321.9,69.2z"/>
			<path class="st7" d="M316.5,77.3C316.5,77.3,316.5,77.3,316.5,77.3c-0.4,0.3-0.9,0.7-1.4,1.3c-0.7,0.8-1.4,1.8-2.2,3.2
				c-0.3-0.1-0.6-0.1-0.8-0.2c-0.1,0-0.3-0.1-0.4-0.1c-0.1,0-0.3-0.1-0.4-0.1c-0.8-0.3-1.6-0.6-2.3-0.9c-0.8,2.6-2.1,4.4-4,6.2
				c-0.4,0.4-0.9,0.8-1.4,1.3c-1.4,1.1-2.7,2.4-4.2,3.4c-0.8,0.5-2.2,1.2-3.2,2h0c-0.4,0.4-0.8,0.7-1,1.2c-0.1,0.2-0.2,0.4-0.2,0.7
				c0,0-1.8-0.6-4.7-1.1h0c-1.4-0.2-3.1-0.4-5-0.5c-0.3,0-0.7,0-1,0c0.1-0.2,0.1-0.4,0.2-0.5c0.3-1,0.7-2,1.1-2.9
				c1.2-2.8,2.8-6.2,4.7-8.9c0-0.1,0.1-0.1,0.1-0.2l0,0c0.6-0.9,1.3-1.7,2-2.4c2.8-3,5.7-4.9,8.1-6c2.2,0.7,4.4,0.6,4.4,0.6
				c0.1-0.1,0.3-0.2,0.4-0.2c0.7-0.3,1.6-0.4,2.5-0.3c0.1,0,0.3,0,0.4,0.1c0.1,0,0.2,0,0.2,0c0.1,0,0.1,0,0.2,0c0.1,0,0.1,0,0.2,0
				c0,0,0,0,0,0c0.1,0,0.2,0.1,0.3,0.1C312.5,74,315.8,76.7,316.5,77.3z"/>
			<path class="st2" d="M284.5,93.3c0,0.1-0.1,0.2-0.1,0.3c-0.9,2.9-1.2,6,0.4,8.5c0.5,0.9,1.3,1.6,2.1,2.3c0.6,0.5,1.2,0.9,1.9,1.2
				c0.4-0.9,0.8-1.7,1.4-2.4c0.8-1.2,1.8-2,2.6-2.5c0.8-0.4,1.6-0.8,2.2-1c0,0,0,0,0,0c2-0.8,2.8-0.8,3-0.8c0,0,0,0,0,0c0,0,0,0,0,0
				c0.2-1.4,2.1-3.3,4.3-5.1c-1.8-0.3-3.9-0.5-6-0.5C296.2,93.4,291.2,92.3,284.5,93.3z"/>
		</g>
		<path class="st2" d="M281,117.7c-0.2-2,0.6-3.8,1.2-4.7c-0.1,0-0.2,0-0.2,0c-1.2-0.2-3.8-1.2-4.9-0.1c-0.7,0.7-0.3,1.7-0.5,2.5
			c-0.2,0.7-0.8,1.6-1.2,2.2c-0.9,1.4-2.9,3.3-2.8,5.1c0.2,2.6,2.6-0.3,3.7-1c0.9-0.6,1.9-1,2.8-1.5c0.7-0.3,1.5-0.7,2.2-1.1
			c0.1,0,0.2-0.1,0.3-0.1c0.4-0.2,0.7-0.4,1-0.6C282.1,117.8,281.5,117.7,281,117.7z"/>
		<path class="st2" d="M338.5,112.3c0,0-0.3-1.1-1-0.6h0c-1.2,1.1-2.9,1.4-4.5,1.4c-0.5,0-1.1,0.1-1.6,0.2c-0.4,0.1-0.7,0.1-1.1,0.2
			c-0.7,0.1-1.3,0.2-2,0.3c0.4,0.3,0.9,0.6,1.3,0.7c-1.2,1.5-2.7,2.3-3.9,2.7c0.1,0.1,0.2,0.2,0.3,0.3c0.5,0.6,0.7,1.8,1.5,2.2
			c1.9,0.9,3.1-1.6,4.5-2.5C334.7,115.6,339.1,115.8,338.5,112.3z"/>
	</g>
	<g>
		<path class="st1" d="M886.1,91.9c-0.7-0.1-1-0.1-1.4,0.5c0.1-0.1,0.1-0.3,0.2-0.4c0,0-0.2,0,0-0.3c-1.5-0.4-2.9,1.1-4.3,1.6
			c-1.6,0.6-3.3,0.8-4.9,0.5c-3.8-0.6-7.1-2.4-11-2.6c-3.5-0.2-6.9,0.2-10.4-1.2h0c-1-0.4-2.1-0.8-3.1-1.2c0.4,0,0.7-0.1,1.1-0.1
			c0.5,0,1.1-0.1,1.7-0.1c1.9-0.2,3.9-0.5,5.7-1c2.4-0.6,4.8-2,7.3-2.2c1.5-0.1,2.5,0.5,4,0.1c1.1-0.2,2.3-0.5,3.4-0.9
			c-0.7-0.6-1.6,0.1-2.4-0.4c1-1.9,2.9-2.6,3.6-4.9c-0.6,0.1-0.8,0.2-1,0.7c0-0.1,0.1-0.3,0.1-0.4c0,0-0.1,0-0.1-0.2
			c-1.4,0-2.2,1.6-3.3,2.3c-1.2,0.8-2.6,1.4-4.1,1.6c-3.3,0.3-6.6-0.5-9.9,0.3c-1.5,0.3-2.9,0.7-4.3,1c-1.5,0.3-3.1,0.5-4.8,0.3
			c-2.5-0.3-5.3-0.9-7.7,0.1c-0.1,0-0.2,0.1-0.2,0.1c0-0.2-0.1-0.4-0.1-0.6c-0.1-0.9,0.1-1.9,0.1-2.9c0.1-1.7,0-3.5-0.7-5
			c0,0,0.1-0.1,0.1-0.1c1.8,2.4,7.5-1.3,7-4.7c-0.1,0-0.1,0.1-0.2,0.2c0.4-1,0.4-2.8-0.3-3.5c-0.1,0.2-0.4,0.3-0.5,0.4
			c0.3-0.7,0.2-1.4-0.1-2.1c-2,2.9-10.2-0.1-8,6.4l0.1,0.1c-0.2,0.1-0.3,0.2-0.5,0.4c0,0,0,0.1,0.1,0.1c-2.6-1.6-6.3-0.9-8.4,1.3
			l0,0c0,0-1,0.7-1.6,2c-0.3,0.6-0.5,1.4-0.5,2.3c0,0.4,0.1,0.8,0.2,1.2c0.4,1,1.2,2,1.7,2.9c0.5,1.1,0.4,1.8,0.1,2.9
			c-0.6,2,0,0.9,1.3,2c0.6,0.5,0.6,1.9,1.2,2.4c0.9,0.7,2-0.1,2.8-0.6c0.3-0.2,0.7-0.6,1-0.9c0,0,1-0.7,2.5,0.9c0,0,0,0,0,0
			c0.6,1.3,0.9,2.8,1,4.1c0.2,2.9-0.4,5.4-0.5,5.4c0.8,1.3,1.7,2.4,2.9,2.9c2.6,1.2,4,0.7,6.1,3.1c0.5,0.6,1.1,1.4,1.7,2.2
			c-0.1,0.1-0.1,0.3-0.2,0.4c-0.1,0.2-0.2,0.4-0.3,0.6c-0.2,0.5-0.3,1-0.4,1.7c-0.7-0.2-1.4-0.4-2.2-0.6c-5.7-1.2-12.6-0.8-17-0.8
			c-4.4,0-6.9,4.4-11,5.8c-3.3,1.1-8.6,1.5-12.1,1.1c-0.4-0.1-0.7-0.3-1-0.5c-0.2-0.2-0.4-0.3-0.6-0.5c-1.2-1.5-1.2-3.7-2.5-4.7
			c-2-1.4-3.6,1.3-3.6,3.3c0,2.3,1.7,3.8,2.5,5.8c0.5,1.3,0.5,2.6,1.2,3.3l0,0c0,0,0.1,0.1,0.2,0.2c0.1,0,0.1,0.1,0.2,0.1
			c0,0,0.1,0,0.1,0c0.1,0,0.2,0.1,0.3,0.1c0,0,0,0,0.1,0c0.4,0.1,1,0,1.7-0.4c0.1,0,0.2-0.1,0.3-0.2v0c0.4-0.3,0.7-0.5,1.1-0.7
			c4.1-2.1,9.4,0,11.1,0c2.4,0,5.1-0.6,7.3-1.7c2.2-1.1,3.8-3.2,6.3-3.5c3.5-0.5,12.5,4.2,19.5,5.8c0,0,0.1,0,0.1,0
			c2,0.4,4,0.1,5.7-1c1.7-1.2,3.4-3.5,3.1-7.6c-0.2-1.5-0.5-3.1-0.8-4.6c-0.1-0.7-0.3-1.4-0.5-2.2c-0.6-2.4-1.2-4.8-1.9-7
			c-0.6-2.2-1.5-4-2.6-5.6c0.9-0.1,1.8,0,2.7,0.1c0.7,0.1,1.5,0.2,2.2,0.4c2.6,0.5,5.8,0.9,8.5,0.9c2.8,0,5.9-0.8,8.7-0.3
			c1.7,0.3,2.7,1.3,4.4,1.3c1.3,0,2.7,0.1,4,0c-0.6-0.8-1.8-0.4-2.5-1.2C882.3,94.4,884.6,94.2,886.1,91.9z"/>
		<path class="st8" d="M848.6,108.7c0.1-0.2,0.1-0.3,0.2-0.4c-0.5-0.8-1.1-1.5-1.7-2.2c-2.1-2.4-3.5-1.9-6.1-3.1
			c-1.1-0.5-2.1-1.6-2.9-2.9c0,0,0.7-2.5,0.5-5.4c1.5-1,3-2.6,3.4-5.1c0-0.1,0-0.3,0-0.4v0c0-0.4,0-0.7,0-1.1l-0.6-1l-1-1.4
			c0,0,0-0.2,0.1-0.5c2.4-1,5.2-0.3,7.7-0.1c1.7,0.2,3.2,0,4.8-0.3l0.9,3.9c-0.6,0.1-1.1,0.1-1.7,0.1c-0.4,0-0.7,0-1.1,0.1
			c1.1,0.4,2.1,0.9,3.1,1.2h0l1.2,4.8c-0.9-0.1-1.8-0.2-2.7-0.1c1.1,1.6,2,3.5,2.6,5.6c0.6,2.2,1.3,4.6,1.9,7
			c0.2,0.7,0.3,1.4,0.5,2.2c-2.9,0-6.8-0.1-9.5-0.3C848.4,109.1,848.5,108.9,848.6,108.7z"/>
		<path class="st2" d="M855.5,121.9c-1.6,1.1-3.7,1.4-5.7,1c-0.5-5.6-3-10.3-4.2-12.4c0.8,0.2,1.5,0.3,2.2,0.6
			c0.1-0.6,0.3-1.2,0.4-1.7c0.1-0.2,0.2-0.4,0.3-0.6l8.7-1.3c0.2,0.7,0.3,1.4,0.5,2.2c0.3,1.6,0.6,3.1,0.8,4.6
			C858.9,118.4,857.3,120.7,855.5,121.9z"/>
		<path class="st0" d="M846.7,72.1c0.5,3.3-5.1,7.1-7,4.7c0,0-0.1,0.1-0.1,0.1c0.7,1.5,0.8,3.3,0.7,5c-0.1,1-0.2,1.9-0.1,2.9
			c-0.4,0.2-0.9,0.3-1.6,0.2c-0.7-0.1-1-0.3-1.5-0.8c-0.7-0.7-0.5-0.7-0.4-1.4c0-1.2-0.1-2-1.5-2c-0.1,0-0.6,0.2-0.8,0.2
			c-0.2,0-0.5-0.1-0.7-0.1c-0.5-0.1-1-0.1-1.5-0.2c-1.7-0.4-3.2-2.8-4.9-3.2c0.6-1.3,1.6-2,1.6-2l0,0c2.1-2.2,5.7-2.9,8.4-1.3
			c0,0,0-0.1-0.1-0.1c0.2-0.2,0.3-0.3,0.5-0.4l-0.1-0.1c-2.2-6.5,6.1-3.5,8-6.4c0.3,0.7,0.3,1.4,0.1,2.1c0.2-0.1,0.4-0.3,0.5-0.4
			c0.8,0.7,0.8,2.5,0.3,3.5C846.6,72.2,846.6,72.1,846.7,72.1z"/>
		<path class="st8" d="M804.5,123.1L804.5,123.1c-0.1,0.1-0.2,0.1-0.3,0.2c-0.7,0.4-1.3,0.5-1.7,0.4c-0.1,0-0.1,0-0.1,0
			c-0.1,0-0.2-0.1-0.3-0.1c0,0-0.1,0-0.1,0c-0.1,0-0.1-0.1-0.2-0.1c-0.2-0.1-0.2-0.2-0.2-0.2l0,0c-0.8-0.7-0.8-2-1.2-3.3
			c-0.7-2-2.5-3.5-2.5-5.8c0-2,1.6-4.8,3.6-3.3c1.3,1,1.3,3.2,2.5,4.7c0.2,0.2,0.3,0.4,0.6,0.5c0,0.2,0,0.5,0.1,0.8
			c0.1,1.6,0.5,3.8,1.1,5.6C805.3,122.6,804.9,122.8,804.5,123.1z"/>
		<path class="st8" d="M805.5,116.6c-0.4,0.2-0.7,0.3-1,0.2c-0.7,0-1.1-0.5-1.1-0.5l0.4-0.8c0.2,0.2,0.3,0.4,0.6,0.5
			C804.7,116.2,805.1,116.4,805.5,116.6z"/>
	</g>
	<g>
		<g>
			<path class="st1" d="M1008.8,83.1c-1.7,1.2-2,1.4-2.4,1.7c-0.3,0.2-0.6,0.5-0.9,0.7c0,0,0,0,0,0c-0.3,0.2-0.5,0.4-0.8,0.7
				c-0.3,0.2-0.6,0.4-0.9,0.5c-0.8,0.3-0.6,0.1-1.4-0.1c-1.2-0.3-2.3-0.5-3.6-0.5c-1.9,0-3.7,0.3-5.7,0.1c-1.4-0.2-1.4-0.9-2.6-1.4
				c-0.9-0.5-2.1,0.1-3-0.6c-0.2,0.9,0.9,0.9,1.1,1.5c-1.3,0.2-2.9,0.4-4,1.1c0.3,0.2,0.7,0.3,1.1,0.4c-0.3,0-0.7,0-1,0
				c0.4,0.2,0.8,0.3,1.2,0.4c-0.3,0-0.5,0.1-0.8,0.2c2,0.7,4.6-0.2,6.8-0.1c2.4,0.1,4.8,1.3,7.1,1.7c2,0.3,3.9,0.4,5.8,0
				c0.3-0.1,0.6-0.1,0.9-0.2c0.2-0.1,0.4-0.1,0.5-0.2c0.2-0.1,0.4-0.1,0.6-0.2c0.2-0.1,2.5-1.7,2.7-1.7c0,0-2.2,1.5-0.8,0.6
				L1008.8,83.1z"/>
			<path class="st1" d="M1032.5,99.6c-1.8-0.1-4.6,0.6-5.6,5.3c0,0.1,0,0.3-0.1,0.4c0,0,0,0-0.1,0c-1.4,0.2-2.8,0.2-4,0.2
				c-2.9,0-5.2-0.3-5.3-0.3c-1.4-0.3-2.9-0.7-4.3-1c-3.2-0.6-5.1,0.3-7.8,1.9c-2.3,1.3-5,1.9-7.6,2c-2.3,0-6.5-0.8-8.3,1
				c0,0,0,0-0.1,0.1c-0.8,0.9-1.2,2.2-2.8,1.5c-1.1-0.4-1.8-2.4-2.5-3.3c-0.9-1.1-2.1-2.1-3.1-3c-0.6-0.5-1.3-0.9-1.3-1.7
				c0-0.3,0.2-0.6,0.3-0.8c0,0,0.5-0.7,0.9-0.4v0c0.9,0.5,2,0.9,2.9,1.2c0.4,0.2,0.7,0.3,1.1,0.5c0.3,0.2,0.7,0.4,1,0.6v0
				c0.6,0.3,1.2,0.6,1.8,0.9c0,0,0.1,0,0.1,0c2,0.8,4.7-0.5,6.7-1c2.5-0.6,5.2-1.5,7.5-2.7c2.5-1.2,4.7-2.6,7.4-2.7
				c0.7,0,2.2-0.3,4-0.7c1.1-0.2,2.3-0.5,3.6-0.8c1.6-0.3,3.1-0.7,4.6-1c0.2,0,0.4-0.1,0.7-0.1c1.7-0.4,3.1-0.6,3.9-0.6
				c0.2,0,0.4,0,0.6,0.1c0.6,0.1,1.4,0.4,2.2,0.7c0,0,0,0,0,0c1,0.4,1.9,1,2.5,1.6c0,0,0.1,0.1,0.1,0.1c0.1,0.1,0.1,0.2,0.2,0.3
				C1032,98.4,1032.2,99,1032.5,99.6z"/>
			<path class="st1" d="M1073.4,120c-1.4-2.1-4.3-2.7-5.7-5c-1-1.7-1.7-3.3-3.6-3.6c-0.6-0.1-1.3,0.2-1.6,0.8
				c-0.2,0.3-0.3,0.5-0.5,0.7c-1.8,1.7-5-0.1-7-1.1c-3-1.5-6-1.7-9.3-1.5c-1.8,0.1-3,0.7-4.3-0.8c-1.1-1.3-1.6-3.1-2.3-4.5
				c-0.6-1.3-1.4-2.5-2.3-3.6c-0.4-0.5-0.8-0.9-1.3-1.3c0.3-0.9,0.2-2.1-0.3-3.3c-0.1-0.3-0.3-0.6-0.4-0.8c-0.6-1-1.5-1.7-2.3-2.1
				c0,0,0,0,0,0c0,0,0,0,0,0c-0.4-0.1-0.8-0.3-1.1-0.6c-0.6-0.4-1-0.9-1.2-1.2c-1.4-1.7-2.7-3.7-3.7-5.6c-0.2-0.5-0.5-0.9-0.8-1.3
				c0.1-0.1,0.2-0.3,0.3-0.4c0.5-0.5,1.1-1.1,1.6-1.6c2.3-2.2,4.4-4.4,5.6-7.6c0.6-1.7-0.4-2.3-1.8-2.4l0,0c-2-0.2-4.1,0-6,0.4
				c-1.2,0.2-2.2,0.5-3.1,0.8c-0.7,0.2-1.3,0.4-1.7,0.6c0,0,0,0,0,0c-0.2,0.1-0.4,0.2-0.5,0.2c0,0,0,0,0,0c0,0-0.1,0-0.1,0
				c-0.3,0.1-0.6,0.2-0.9,0.4v0c0,0-0.4,0-0.9,0c-1.1,0.1-1.8,0.8-2.2,1.5h0c-0.5-0.2-0.9-0.5-1.2-0.7c0,0,0,0,0.1,0c0,0,0,0-0.1,0
				c0,0,0,0,0,0c-0.6-0.5-0.9-1-1.1-1.5c-0.3-0.6-0.2-1.1-0.2-1.1c0.2-2.1,0.6-4.5,0.5-5.4c-0.3-1.4-1-2.4-2-3v0c0,0,0,0,0,0
				c0,0-0.1,0-0.1-0.1c2.1-0.5,4.7,3.3,7.2,2.4c-0.2-0.2-0.3-0.5-0.5-0.7c0.8,0.4,1.8,0.2,2.6-0.2c-0.2-0.1-0.4-0.3-0.6-0.4
				c1.1-0.1,2.5,0.1,3.1-1c-1.6-0.2-2.8-0.3-4.1-1.4c-1.2-1.1-2.1-2.4-3.7-3.1c-1.4-0.6-3.2-0.9-4.4,0.3c-0.7,0.7-1.8,2.5-1.4,3.5
				l0.1,0.1c-4.6-1.4-6.8,1.3-7.1,1.7c0,0,0,0,0,0c-0.5,0.6-0.7,1.4-0.7,2.2c0,2,1,4.4-0.4,6l0,0c0,0,0.2,0.4,0.6,0.6l0.6,0.3
				c0,0,0.8,0.9,1.2,2.2h0c0,0,0.3,1.3,1.6,0.6c0.8-0.4,1.6-1.1,2.5-0.8c0.5,0.2,0.9,0.8,1.3,1.4c0,0,0,0,0,0c0,0,0.1,0.2,0.2,0.5
				c0,0,0,0,0,0c0.1,0.4,0.3,1,0.4,1.7c0.1,0.6,0.1,1.2,0.1,2c-0.1,1-0.1,2.1-0.1,3c0,0.3,0,0.5,0,0.8c0,0.1,0,0.1,0,0.2
				c0.1,2.2,2.7,3.1,4.7,3.4c1.1,0.2,1.7,0,2.6,0.6c1,0.7,1.6,2,2.4,2.9c0.4,0.5,0.9,0.9,1.4,1.4c0.1,0.1,0.1,0.2,0.2,0.2h0
				c0,0,0,0.1,0.1,0.1c0,0,0,0,0.1,0.1c0.6,0.8,1.9,2.6,3.2,4.7c0.3,0.5,0.6,1,0.9,1.5c0.1,1.1,0.6,2.2,1.2,3.2
				c0.2,0.4,0.5,0.7,0.7,1.1c1.3,1.7,3.1,3.2,4.5,4.3c1.8,1.4,3.6,2.4,5.2,4c1.7,1.7,2.5,2.4,4.9,2.5c4,0.2,8-0.2,11.9-0.2
				c3.2,0,6.4-0.4,9.2,0.9c0.4,0.2,0.8,0.4,1.2,0.6c0.2,0.1,0.4,0.2,0.6,0.3c0.3,0.2,0.6,0.3,0.9,0.5c1.8,0.9,3.6,1.6,5.2,2.8
				c1.1,0.9,1.7,2.1,2.5,0.7C1074.2,122.2,1073.9,120.8,1073.4,120z M1021.9,79.6c0.6-0.3,1.2-0.7,1.8-1.1c0.1,0,0.1-0.1,0.2-0.1
				c0.2-0.1,0.4-0.2,0.6-0.3c0.1-0.1,0.3-0.1,0.4-0.2v0c1.3-0.6,2.5-1.1,3.2-1c-0.8,1.5-1.3,3.2-2.2,4.7c-0.4,0.7-0.9,1.4-1.6,2
				c-1-1.2-2-2.3-3.2-3.4C1021.4,80,1021.6,79.8,1021.9,79.6z"/>
			<path class="st2" d="M1036.7,101.3c-4.1,1.5-7.3,3.6-9.2,5.1c-0.3-0.3-0.5-0.7-0.7-1.1c-1.4,0.2-2.8,0.2-4,0.2
				c-0.6-1.9-1.7-3.7-2.8-5.2c-1.1-1.6-2.3-2.8-2.9-3.4c1.6-0.3,3.1-0.7,4.6-1c0,0,0-0.1-0.1-0.1c0,0,0-0.1-0.1-0.1
				c0.3,0,0.5,0,0.8,0c1.7,0,3.2-0.2,4.5-0.6c1.9-0.5,3.4-1.3,4.5-2c0.3,0.2,0.7,0.4,1.1,0.6c0,0,0,0,0,0c0,0,0,0,0,0
				c0.8,0.4,1.7,1.1,2.3,2.1c0.2,0.3,0.3,0.5,0.4,0.8c0.5,1.2,0.6,2.4,0.3,3.3C1035.9,100.4,1036.3,100.8,1036.7,101.3z"/>
			<path class="st8" d="M1014.6,79.1c-0.1,0.9-0.8,2.8-3.2,3.9c0,0,0,0-0.1,0c-0.2,0-0.9,0.1-1.1-0.9c-0.1-0.2-0.1-0.6-0.1-1
				c-0.5,0.4-1,0.8-1.4,1.3c-0.4,0.3-0.7,0.7-1.1,1c0,0,0,0,0,0c-0.3,0.3-0.6,0.6-1,0.9v0l1.7,3.5c0.2-0.1,0.4-0.2,0.7-0.3
				c0.2-0.1,0.5-0.2,0.7-0.3c0.2-0.1,0.4-0.2,0.6-0.3c0,0.1,0,0.1,0,0.2c0.1,2.2,2.7,3.1,4.7,3.4c1.1,0.2,1.7,0,2.6,0.6
				c1,0.7,1.6,2,2.4,2.9c0.4,0.5,0.9,0.9,1.4,1.4c0.1,0.1,0.1,0.2,0.2,0.2h0c0,0,0,0.1,0.1,0.1c0,0,0,0,0.1,0.1
				c0,0,5.2,2.7,10.8-2.2c-0.4-0.1-0.8-0.3-1.1-0.6c-0.6-0.4-1-0.9-1.2-1.2c-0.3-0.3-0.5-0.6-0.8-1c-0.2-0.3-0.5-0.7-0.7-1
				c-0.2-0.3-0.5-0.7-0.7-1c-0.2-0.3-0.4-0.7-0.6-1h0c-0.5-0.8-1.1-1.7-1.8-2.7c0,0,0,0-0.1,0.1c-0.1,0.1-0.2,0.2-0.2,0.3
				c-0.1,0.2-0.3,0.4-0.5,0.6c-0.1,0.1-0.1,0.1-0.2,0.2c0,0-0.1,0.1-0.1,0.1c-0.1,0.1-0.1,0.1-0.2,0.2c-0.2,0.2-0.4,0.4-0.6,0.6
				c-0.1,0-0.1,0.1-0.2,0.1c-0.4,0.2-0.8,0.3-1.3,0.2c-0.1,0-0.2-0.1-0.4-0.1c-1-0.4-1-0.8-0.7-1.9c0.4-1.4,1-0.9,2-1.4
				c0.2-0.1,0.5-0.2,0.7-0.4c0.1-0.1,0.2-0.1,0.3-0.2c0.1-0.1,0.2-0.1,0.3-0.2c-0.4-0.5-0.7-1-0.8-1.2c-0.5-0.6-1-1.1-1.6-1.7
				c-0.2-0.2-0.5-0.4-0.7-0.6c0.2-0.2,0.5-0.3,0.8-0.5c0.6-0.3,1.2-0.7,1.8-1.1c-0.6-1.2-1.2-3.2-1.6-4.2c-0.7,0.2-1.3,0.4-1.7,0.6
				c0,0,0,0,0,0c-0.2,0.1-0.4,0.2-0.5,0.2c0,0,0,0,0,0c0,0-0.1,0-0.1,0c-0.3,0.1-0.6,0.2-0.9,0.4v0c0,0-0.4,0-0.9,0c0,0-0.2,0-0.5,0
				c-0.6,0-1.8,0.1-2.9,0.7c0,0,0,0-0.1,0v0C1014.8,77.4,1014.7,78.3,1014.6,79.1C1014.7,79.3,1014.6,79.2,1014.6,79.1z"/>
			<path class="st0" d="M1020.1,66.4c0.2,0.1,0.4,0.3,0.6,0.4c-0.8,0.3-1.8,0.6-2.6,0.2c0.2,0.2,0.3,0.5,0.5,0.7
				c-2.5,0.9-5.1-2.8-7.2-2.4c0,0,0.1,0,0.1,0.1c0,0,0,0,0,0v0c1,0.6,1.7,1.6,2,3c0.2,0.9-0.3,3.2-0.5,5.4c0,0,0,0.5,0.2,1.1
				c-1.9,0.6-3.8,0.3-4.3-2.3c0.8-0.4,1-2,0.1-2.5c-1-0.5-1.5,1-2.8,0.3c-1.5-0.9-2-3.3-3.6-3.9c0.3-0.4,2.5-3.1,7.1-1.7l-0.1-0.1
				c-0.4-1,0.7-2.8,1.4-3.5c1.2-1.2,3-0.9,4.4-0.3c1.5,0.7,2.4,2,3.7,3.1c1.2,1.1,2.5,1.2,4.1,1.4
				C1022.6,66.6,1021.2,66.3,1020.1,66.4z"/>
		</g>
		<path class="st8" d="M1073.4,120c-1.4-2.1-4.3-2.7-5.7-5c-1-1.7-1.7-3.3-3.6-3.6c-0.6-0.1-1.3,0.2-1.6,0.8
			c-0.2,0.3-0.3,0.5-0.5,0.7c1,1,2.5,2.6,3,4.8c-0.4,0-1,0-1.6,0.3c0.4,0.2,0.8,0.4,1.2,0.6c0.2,0.1,0.4,0.2,0.6,0.3
			c0.3,0.2,0.6,0.3,0.9,0.5c1.8,0.9,3.6,1.6,5.2,2.8c1.1,0.9,1.7,2.1,2.5,0.7C1074.2,122.2,1073.9,120.8,1073.4,120z"/>
		<path class="st8" d="M986.4,105c0.4,0,0.8-0.1,1.2-0.3c-0.6-0.3-1.2-0.6-1.8-0.9v0c-0.3-0.2-0.7-0.4-1-0.6
			c-0.4-0.2-0.7-0.4-1.1-0.5c-0.8-0.4-2-0.7-2.9-1.2v0c-0.4-0.2-0.9,0.4-0.9,0.4c-0.2,0.2-0.3,0.5-0.3,0.8c0,0.8,0.7,1.2,1.3,1.7
			c1.1,0.9,2.2,1.9,3.1,3c0.7,0.9,1.4,2.9,2.5,3.3c1.6,0.7,2-0.7,2.8-1.5C988.1,107.9,987.1,106.3,986.4,105z"/>
	</g>
	<g>
		<g>
			<path class="st0" d="M895.5,104.6C895.5,104.6,895.5,104.6,895.5,104.6c-0.3,0-0.4-0.2-0.4-0.5c0.1-0.4,5.3-37.1,32.5-55.5
				c16.1-10.8,36.5-13.2,60.7-7.1c0.2,0.1,0.4,0.3,0.3,0.5c-0.1,0.2-0.3,0.4-0.5,0.3c-24-6.1-44.1-3.7-60,7
				c-26.9,18.2-32.1,54.5-32.2,54.9C895.9,104.4,895.7,104.6,895.5,104.6z"/>
			<path class="st1" d="M977.5,41.7c-1.2,0.8-2.5,1.3-3.6,2.4c-2.2,2.2-2.9,5.2-5.6,7.1c-1.2,0.8-2.6,1.5-3.6,2.6
				c-0.8,1-1.5,2.3-2.2,3.4c-0.1,0.2-0.2,0.3-0.3,0.5c-0.8,1.2-1.9,3-3.1,4.4c-1,1.1-2.1,2.1-3.4,2.3c0-1,0.6-4,0.2-5.7
				c0-0.2-0.1-0.4-0.2-0.5c-0.2-0.3-0.4-0.6-0.8-0.6c0.1,0,0.3,0,0.4,0l-0.3-0.1c0.2-0.1,0.3-0.3,0.5-0.4c0.9-0.8,1.8-1.7,2.7-2.5
				c1-0.9,2-1.7,3-2.6c0.8-0.6,1.5-1.3,2.1-2.1c0.1-0.1,0.2-0.2,0.2-0.2c0.9-1,1.8-2,2.9-2.8c1.7-1.4,3.7-2.4,5.6-3.6
				c0.3-0.2,1.1-0.6,1.3-0.9c0.4-0.5,0.3-0.8,0.6-1.3c0.5-0.9,1.3-1.7,2.4-2.2c0,0.1,0.1,0.3,0.1,0.5c0.4-0.6,1.1-0.8,1.8-0.6
				C978.2,40.2,979.3,40.5,977.5,41.7z"/>
			<path class="st1" d="M959.4,55.6c1.4-1,3.3-1.9,3.9-3.7c0.6-1.7-0.2-3.6-1.5-4.9l0,0c-1.5-1.5-3.4-1.7-4.3-1.7
				c-0.2,0-0.4,0-0.6,0c0,0-0.1,0-0.1,0l0,0c-1.4,0.3-2.5,1.5-3.3,2.5c-0.4,0.4-0.7,0.6-1,0.8l-1.3,0.5c0,0-0.1,0-0.1,0l0,0l0,0
				c-0.3,0.1-0.2,0.4-0.2,0.5c0,0.1,0.1,0.1,0.1,0.1l0,0c0.1,0.3,0.2,0.6,0.2,0.9c-0.1,0.7-1.2,1.5-1.1,2.2c0.1,0.8,1.5,1,2.1,1.3
				c0.2,0.1,0.4,0.2,0.6,0.3c0,0,0.1,0.7-0.6,1.5c-0.4,0-0.7,0-1.1,0h-0.1c-0.4-1.2-2.4-1.5-3.4-2.1c-1-0.6-1.6-1.7-2.5-2.4
				c0,0,0,0,0,0c-0.9-0.6-1.9-0.8-2.9-1.2c1.4-1.6,1.7-3.2,2.7-5c1-1.7,3.2-1,3.9-3.2c-0.1,0-0.4-0.2-0.5-0.2
				c0.7-1.1,1.5-0.3,1.5-2.2c0-1.7-0.4-1.6-1.7-1.8c-2-0.3-2.8,0.7-3.5,2c-0.3,0.6-0.5,1.2-0.6,1.6c0,0.1,0,0.1-0.1,0.2c0,0,0,0,0,0
				c-0.3,0.7-0.8,1.3-1.3,1.8c-0.6,0.5-1.3,1-1.9,1.7c-1.2,1.2-4.3,4.6-3.9,6.2c0.2,1.1,2.3,2.7,4.6,4.3c1.3,0.9,2.6,1.9,3.8,2.7
				c-2.9,2.5-4.7,6.3-6.5,9.3c-1.6,2.7-2.9,5.3-4,8.1c-0.1,0.2-0.2,0.4-0.3,0.6c-0.3,0.7-0.6,1.5-0.9,2.3c-1.8,0.6-3.5,1.3-5.1,2.2
				c-3.3,1.8-6.2,4.1-9,6.7c-1.1,1-2,1.7-1.3,3.2c0.5,1.2,1.4,2.3,2.1,3.4c1.2,2.1,2.3,4.4,3.5,6.6c1.4,2.8,3,5.1,3.4,8.3
				c0,0.1,0,0.3,0.1,0.4c0.1,0.4,0.2,0.8,0.3,1.2c0.2,0.8,0.4,1.7,0.5,2.5c0,0.1,0,0.2,0,0.3c0.1,1.4-0.1,2.6-0.4,4
				c2.6,2.1,3.1-3.2,3.3-4.6c0.1-0.6,0.3-1.1,0.6-1.7c0.3-0.5,1.2-0.9,1.5-1.4c0.4-1.1-0.8-2.4-1.6-2.9c-0.4-0.2-0.7-0.4-1-0.6
				c-0.6-0.4-0.9-0.9-1.1-1.9c-0.3-1.3-0.3-2.8-0.6-4.1c-0.5-2-1-4.4-2.1-6.2c-0.7-1.2-1.9-2.1-2.8-3.1c1.5-2.2,5.7-3,8.1-3.2
				c0.2,0,0.4,0,0.5,0c1,0,2,0,2.9-0.1c0,0,0.1,0,0.2,0c0,0.6,0.2,1.2,0.3,1.8c0.3,1.2,0.7,2.4,1.1,3.3c0.8,2.2,1.9,4.4,3.4,6.2
				c0.8,1,1.8,1.6,2.4,2.8c0.7,1.2,1.5,1.9,2.7,2.6c2.4,1.6,4.9,2.5,7.1,4.4c1.8,1.6,4.8,3.1,5.6,5.4c0.1,0.3,0.2,0.6,0.3,0.9
				c0.2,0.5,0.3,0.9,0.4,1.4c0.1,0.2,0.1,0.4,0.2,0.6c0.3,1.3,0.5,2.7,0.5,4c-0.1,1.1-1,2.5,0.6,2.2c1.2-0.2,2.1-1.2,2.3-2.4
				c0.2-1.3-0.3-2.5-0.2-3.7c0.1-1.3,1.2-2.4,1.2-3.6c0.1-1.3-1.3-1.4-2.2-1.8c-0.1-0.1-0.3-0.1-0.4-0.2c-1.1-0.5-1.5-1.2-2-2.4
				c-1.2-2.4-2.7-4.9-4.7-6.7c-1.8-1.5-4.3-1.6-6.1-3c-1.1-0.9-1.3-2.3-1.6-3.7c-0.3-1.2-0.8-2.4-1.1-3.7c-0.2-1-0.5-2-0.8-2.9
				c-0.2-0.8-0.5-1.6-0.7-2.5c0-0.1,0-0.2-0.1-0.3c1.1-1.7,1.7-3.1,1.7-4.9c0-0.6,0-1.3-0.1-2.1c0-0.3,0-0.7-0.1-1
				c-0.1-2.8,0.6-4.4,3.3-6.3c4.1-2.9,10.8-5,10.8-10.4c0-0.4,0-0.9-0.1-1.3c-0.2-1-0.7-1.9-1.6-2.6c-0.2-0.1-0.4-0.3-0.6-0.5h0
				C957.6,56.9,958.5,56.2,959.4,55.6z"/>
			<path class="st7" d="M962.5,57.2c-0.1,0.2-0.2,0.3-0.3,0.5c-0.8,1.2-1.9,3-3.1,4.4c0,5.5-6.7,7.5-10.8,10.4
				c-2.7,1.9-3.4,3.5-3.3,6.3c0,0.3,0,0.6,0.1,1c0.1,0.8,0.1,1.5,0.1,2.1l-4-2l-4.5-2.3l-2.4-1.2c0.1-0.2,0.2-0.4,0.3-0.6
				c1.1-2.8,2.4-5.4,4-8.1c1.8-3.1,3.6-6.9,6.5-9.3c-1.1-0.9-2.5-1.8-3.8-2.7l3.7-4.3c0,0,0,0,0,0c0.9,0.7,1.5,1.7,2.5,2.4
				c1,0.6,3,0.9,3.4,2.1h0.1c0,0,0,0,0,0.1c0,0,0.1,0.2,0.3,0.5c0.5,0.8,1.9,2.3,4.4,1.6c0.3-0.1,0.7-0.2,1.1-0.4h0l0.1-0.1l0.5-0.5
				l1.8-1.8L962.5,57.2z"/>
			<path class="st2" d="M945.1,81.9c-0.1,1.9-0.6,3.3-1.7,4.9c0,0.1,0,0.2,0.1,0.3c0.2,0.8,0.5,1.7,0.7,2.5c-3-0.3-6.4-0.1-8.6,0.1
				c-0.1-0.6-0.3-1.2-0.3-1.8c0,0-0.1,0-0.2,0c-0.9,0.1-1.9,0-2.9,0.1l-3.9-6.9c1.6-0.9,3.3-1.6,5.1-2.2c0.3-0.8,0.6-1.6,0.9-2.3
				c0.1-0.2,0.2-0.4,0.3-0.6c1.1,0.7,2.2,1.3,3.4,1.7c0.7,0.2,1.3,0.4,2,0.6c0,0,0,0,0,0c1.9,0.4,3.7,0.6,5.1,0.6c0,0.3,0,0.6,0.1,1
				C945.1,80.6,945.2,81.3,945.1,81.9z"/>
			<path class="st0" d="M960.2,55.1C960.2,55.1,960.2,55.1,960.2,55.1c0.1-0.1,0.2-0.1,0.3-0.2c0.7-0.5,1.9-1.6,1.9-1.6
				c1-1.1,1.5-2.9,1.1-4.3l0,0c0,0-0.6-3.2-4.8-4l0,0c-0.4-0.1-0.7-0.2-1.1-0.3c-1.2-0.3-2-0.7-3-1.3c-0.5,1,0.1,2.7,0.7,3.6
				c0.7,1,2.1,1.5,2.8,2.5c-0.7,0.7-1.1,1.1-1,2.2c0,1.1,0.1,1.6-0.4,2.5c0.5,0.1,1.1-0.3,1.3-0.6c0.6,1.3-0.4,2.5-0.9,3.5
				c0.2,0,0.3,0,0.4,0l0,0C958.5,56.2,959.5,55.5,960.2,55.1L960.2,55.1z"/>
		</g>
		<path class="st2" d="M961.9,117.5c0.1-1.3,1.2-2.4,1.2-3.6c0.1-1.3-1.3-1.4-2.2-1.8c-0.1-0.1-0.3-0.1-0.4-0.2
			c-0.1,1.1-0.5,2.6-1.4,4c-0.2-0.2-0.5-0.5-1-0.6c0.2,0.5,0.3,0.9,0.4,1.4c0.1,0.2,0.1,0.4,0.2,0.6c0.3,1.3,0.5,2.7,0.5,4
			c-0.1,1.1-1,2.5,0.6,2.2c1.2-0.2,2.1-1.2,2.3-2.4C962.3,120,961.8,118.8,961.9,117.5z"/>
		<path class="st2" d="M931.2,107.1c-0.4-0.2-0.7-0.4-1-0.6c-0.6,1-1.4,2.3-2.4,3.6c-0.3-0.2-0.6-0.3-0.9-0.4
			c0.1,0.4,0.2,0.8,0.3,1.2c0.2,0.8,0.4,1.7,0.5,2.5c0,0.1,0,0.2,0,0.3c0.1,1.4-0.1,2.6-0.4,4c2.6,2.1,3.1-3.2,3.3-4.6
			c0.1-0.6,0.3-1.1,0.6-1.7c0.3-0.5,1.2-0.9,1.5-1.4C933.3,108.9,932.1,107.6,931.2,107.1z"/>
	</g>
	<g>
		<path class="st1" d="M777.6,122.6c-0.5,2.2-1.8,0.6-2.3-0.7c-0.7-1.8-1.4-3.3-2.3-4.8c-0.2-0.4-0.5-0.8-0.8-1.2
			c-0.3-0.4-0.7-0.8-1-1.2c-0.2-0.2-0.4-0.4-0.6-0.6c-2.6-2.5-4.9-5-8.3-6.6c-1.5-0.7-3-1.2-4.4-1.9c-1.4-0.7-1.8-1.8-2.7-3
			c-2.1-1.5-4-3.7-4-3.7c-1.2-1.2-2.1-2.6-3-4.1c-0.7-1.2-1.5-2.6-2.1-4.1c-0.2-0.4-0.3-0.8-0.4-1.2c-0.2-0.7-0.4-1.4-0.5-2l0.1,0.8
			c-0.4-1.9-0.6-4.4,1.1-5.8c0.3-0.3,0.7-0.5,1.1-0.6h0c1.7-0.4,3.8,0.6,5.3,2c0.4,0.3,0.7,0.7,0.9,1.1c0.3,0.4,0.5,0.7,0.6,1.1
			c0.1,0.2,0.2,0.5,0.3,0.8c0.8,2.1,1.3,4.5,2,6.7c0.9,3,1.3,5.8,4.7,6.9c1.4,0.5,2.5,0.7,3.7,1.6c1.4,1.1,2.1,2.3,3.1,3.8
			c0.8,1.2,1.9,3.1,3.1,3.8c0.5,0.3,1.1,0.3,1.7,0.3c0.8,0,1.6-0.2,2.3,0.1c1.9,0.9,0.7,2.6,0.7,4.1c0,1.5,0.6,2.7,1,4.1
			C777.1,119.5,777.9,121.3,777.6,122.6z"/>
		<path class="st1" d="M770.4,77c0-3.1,0.2-5.9-1-8.8c-0.9-2.2-2-4-3.5-5.6c-0.7-0.7-1.4-1.4-2.2-2.2c-1.1-1-2.5-2.4-4-3.4
			c0,0,0,0,0,0c-0.3-0.2-0.5-0.3-0.7-0.5c0,0-0.1,0-0.1-0.1c-1.5-0.9-2.7-1.5-3.7-1.9c-0.5-0.2-1-0.4-1.4-0.6l-0.2-0.1l0,0
			c-0.5-0.9-0.4-2.3-0.2-3.3c1.6-1.7,2.4-4,1.3-6.4c-0.1-0.2-0.2-0.4-0.3-0.7c-1.4-2.2-3.5-2.6-4.3-2.6c-4.4,0-5,3-5.1,3.3
			c-0.2,1.2-0.1,2.6-0.2,3.6c-0.1,1.5-0.6,4.2,0.7,5.2c0,0,0,0,0,0c-0.8,0.1-1.5,0.2-2.1,0.3c-1.1,0.2-2,0.5-2.8,0.8
			c-2.4,0.9-3,2-3.1,2.2c0,0,0,0,0,0c-0.1,0.2-0.3,0.3-0.4,0.5c-0.4,0.5-0.8,1.1-1.1,1.7c-0.4,0.7-0.8,1.4-1.1,2
			c-0.3,0.6-0.6,1.1-0.9,1.6c-1.1,1.7-3.1,3.4-3.4,5.4c-0.1,0.7-0.2,1.5-0.2,2.2c0,0.3,0.4,2.7,3.5,2.3c1.2-0.2,2.5-0.5,3.7-1
			c1.2-0.5,2.3-1.1,3.4-1.7c0,2.9,0.1,5.7,0.9,8.4c0.1,0.5,0.3,1.1,0.5,1.6c0.1,0.2,0.2,0.4,0.2,0.6c-0.9,0.3-1.8,0.7-2.7,1.2
			c-1.4,0.7-2.7,1.6-4,2.8c-1.9,1.7-4.5,3.4-6,5.6c-1.6,2.3,0.3,4,1.5,6.4c2.1,4.3,4.3,8.2,4.7,13c0.1,0.7,0.1,1.4,0,2
			c-0.1,0.7-0.3,1.4-0.6,2.1c-0.1,0.3-0.3,0.6-0.4,0.9c-0.2,0.4-0.5,0.9-0.8,1.3c-0.4,0.6-2.3,2.3-2.3,3c0.1,1.5,1.8,1.3,2.7,1
			c1.8-0.6,3.8-3.7,5.4-4.9c1-0.8,1.6-0.9,1.7-2.3c0.2-1.6-0.8-1.7-1.4-2.8c0,0,0-0.1-0.1-0.1c-2.1-3.9-0.6-8.7-2.2-12.9
			c-0.9-2.3-3-4.1,0.3-5.3c1.8-0.7,4.1-0.9,6.1-1.2c0.4-0.1,0.8-0.1,1.2-0.2c0.1,0,0.2,0,0.3-0.1c1.6-0.4,3.4-1.2,4.8-2.4
			c1.8-0.4,2.7-1.3,3.2-2c0.4-0.5,0.5-1,0.5-1h0c0.7-1.7,0.3-3.6,0-4.6c-0.1-0.5-0.2-0.7-0.2-0.7c-0.2-0.3-0.3-0.6-0.5-0.8
			c-0.2-0.2-0.3-0.4-0.5-0.5l0,0c-0.2-0.3-0.4-0.5-0.6-0.8c-0.1-0.3-0.3-0.6-0.3-0.9c-0.6-2.7,0.3-5.4,2.2-7.4
			c1.3-1.5,2.7-3.2,3.3-5c1.6,0.6,3,1.9,4.3,2.7c0.3,0.2,0.7,0.4,1.1,0.7c0.8,0.6,1.7,1.3,1.9,2.1c0.3,1.2-0.1,2.5,0.3,3.7
			c0.4,1.4,1.1,2.7,1.6,4c0.2,0.6,0.7,1.2,0.7,1.8c0,0.3,0.2,0.5,0.1,0.8c-0.1,0.4-0.6,0.2-0.7,0.4c-0.3,0.7-0.4,2.8,0,3.3
			c0.2,0.2,0.6,0,0.8,0.2c0.2,0.2,0.4,0.6,0.7,0.7c0,0,0,0,0,0c1.2,0.7,2.6-0.3,2.6-1.6C771.1,80.4,770.4,78.4,770.4,77z
			 M737.7,66.8h-0.2c-0.2,0-0.4,0-0.5,0c-0.5,0.1-0.9,0.2-1.2,0.3l0.6-0.4c0.4-0.3,0.8-0.6,1.1-0.9c0.5-0.4,0.9-0.8,1.3-1.3
			c0.1-0.1,0.2-0.2,0.3-0.4c0.4-0.6,0.7-1.4,1.1-2c0.1,0.7,0.2,1.5,0.3,2.2c0.1,0.8,0.2,1.5,0.2,2.3C739.7,67,737.8,66.8,737.7,66.8
			z"/>
		<path class="st0" d="M753.5,40.1c-1.4-0.8-3.7-1.7-5.3-1.1c-2.4,0.9-3.4,3.9-6.1,4.6c1.5,1.3,4.9,1.9,6.7,1.2
			c-0.2,0.2-0.3,0.6-0.5,0.8c1.5,0.1,2.5-0.1,3.7-1.2c-0.1,0.2-0.1,0.3-0.2,0.5c-0.3,0.7-0.6,2-0.1,3.5c0.4,1,0.9,2,0.9,3.2
			C756.1,48.9,757.7,42.6,753.5,40.1z"/>
		<path class="st7" d="M763.6,60.4c-1.1-1-2.5-2.4-4-3.4c0,0,0,0,0,0c-0.3-0.2-0.5-0.3-0.7-0.5c0,0-0.1,0-0.1-0.1
			c-1.5-0.9-2.7-1.5-3.7-1.9c-0.1,0.1-0.2,0.2-0.4,0.3c-4.3,3-7.4,2.2-9.3,0.9c-1.5-1-2.2-2.3-2.2-2.3c-1.1,0.2-2,0.5-2.8,0.8
			c-2.4,0.9-3,2-3.1,2.2c0,0,0,0,0,0l-0.4,0.3c0,0,0,0.1,0,0.1v0.1c-0.4,0.5-0.8,1.1-1.1,1.7c-0.4,0.7-0.8,1.4-1.1,2l4.2,4
			c0.1-0.1,0.2-0.2,0.3-0.4c0.4-0.6,0.7-1.4,1.1-2c0.1,0.7,0.2,1.5,0.3,2.2c0.1,0.8,0.2,1.5,0.2,2.3c0.1,0,0.1-0.1,0.2-0.1
			c0.1,0,0.2-0.1,0.2-0.2c0,0,0,0,0,0v0c0.1-0.4,0-0.9,0.1-1.3c0.3-0.9,1.2-1.1,1.6-1.9c0,0,0,0,0.1,0c0,0-0.1,0.1-0.1,0.1
			c0,0,0.1-0.1,0.1-0.1c0.6,0.3,0.3,1,0,1.5h0c0.4,0,0.6-0.7,0.7-1.2l0.1-0.5c0.5-0.1,0.9,0,1.4,0.3c0,0,0.6,0.6,0.7,0.6
			c0.2,0.3,0.5,0.8,0.4,1.2c-0.2,1.4-3,2.6-4.1,3.4c-0.5,0.4-0.9,0.7-1.4,1c0,2.9,0.1,5.7,0.9,8.4c0.1,0.5,0.3,1.1,0.5,1.6h12.2
			c-0.1-0.5-0.2-0.7-0.2-0.7c-0.2-0.3-0.3-0.6-0.5-0.8c-0.2-0.2-0.3-0.4-0.5-0.5l0,0c-0.2-0.3-0.4-0.5-0.6-0.8
			c-0.1-0.3-0.3-0.6-0.3-0.9c-0.6-2.7,0.3-5.4,2.2-7.4c1.3-1.5,2.7-3.2,3.3-5c1.6,0.6,3,1.9,4.3,2.7c0.3,0.2,0.7,0.4,1.1,0.7
			l2.7-4.1C765.1,61.8,764.4,61.1,763.6,60.4z"/>
		<path class="st2" d="M754.6,86.9c-3.1,1-6.6,2.8-8.6,3.8c-0.2-0.4-0.3-0.8-0.4-1.2c-0.1,0-0.2,0-0.3,0.1c-0.4,0.1-0.8,0.2-1.2,0.2
			c-0.9-3-3.5-7-4.5-8.6c0.9-0.5,1.8-0.9,2.7-1.2c-0.1-0.2-0.2-0.4-0.2-0.6c-0.2-0.5-0.3-1.1-0.5-1.6c4.1,0.6,8.4-0.4,11-1.3
			c0.2,0.3,0.3,0.6,0.6,0.8l0,0c0.1,0.2,0.3,0.4,0.5,0.5c0.1,0.2,0.3,0.5,0.5,0.8c0,0,0.1,0.3,0.2,0.7c0.3,1,0.6,3,0,4.6h0
			c0,0-0.1,0.4-0.5,1c0.3,0.4,0.5,0.7,0.6,1.1C754.4,86.3,754.5,86.6,754.6,86.9z"/>
		<path class="st2" d="M740,109.3c0,0,0-0.1-0.1-0.1c-0.8,1.1-2,2.4-3.5,3.3c-0.1-0.5-0.3-1.1-0.7-1.5c-0.1,0.7-0.3,1.4-0.6,2.1
			c-0.1,0.3-0.3,0.6-0.4,0.9c-0.2,0.4-0.5,0.9-0.8,1.3c-0.4,0.6-2.3,2.3-2.3,3c0.1,1.5,1.8,1.3,2.7,1c1.8-0.6,3.8-3.7,5.4-4.9
			c1-0.8,1.6-0.9,1.7-2.3C741.5,110.5,740.5,110.3,740,109.3z"/>
		<path class="st2" d="M776.8,118.3c-0.3-1.4-0.9-2.7-1-4.1c0-1.5,1.2-3.2-0.7-4.1c-0.7-0.3-1.5-0.2-2.3-0.1c0.1,1.2,0,2.8-0.4,4.6
			c-0.3,0-0.8,0-1.4,0.1c0.4,0.4,0.7,0.8,1,1.2c0.3,0.4,0.6,0.8,0.8,1.2c0.9,1.5,1.6,3,2.3,4.8c0.5,1.3,1.8,2.9,2.3,0.7
			C777.9,121.3,777.1,119.5,776.8,118.3z"/>
		<path class="st1" d="M745.3,53.1c0,0,3.2,1.4,6.3-1.1C751.5,52,749.5,55.7,745.3,53.1z"/>
		<polygon class="st0" points="742.5,63.4 715.8,45.6 741.9,64 		"/>
		<g>
			<path class="st0" d="M766.9,80.3l-21.1-14.7c-0.1,0.2-0.3,0.4-0.5,0.6l21.6,14.5L766.9,80.3z"/>
			<path class="st0" d="M770.8,83.4l13.5,9.1l-13.4-9.3C770.9,83.2,770.8,83.3,770.8,83.4z"/>
		</g>
		<path class="st0" d="M743.2,63.8l0.2,0.1c0,0-0.2,0.6-0.6,0.6C742.9,64.5,743.2,64,743.2,63.8z"/>
	</g>
	<line class="st9" x1="1081.1" y1="123.7" x2="0" y2="123.7"/>
</g>
</svg>
