<svg width="131px" height="109px" viewBox="0 0 131 109" version="1.1" xmlns="http://www.w3.org/2000/svg" xmlns:xlink="http://www.w3.org/1999/xlink">
    <title>19D94B9C-FC24-4049-B620-F4C88960DEFA</title>
    <defs>
        <polygon id="path-1" points="0 0 105.026 0 105.026 105.025 0 105.025"></polygon>
    </defs>
    <g id="Page-1" stroke="none" stroke-width="1" fill="none" fill-rule="evenodd">
        <g id="00-Landing-Research---V2" transform="translate(-1283.000000, -1322.000000)">
            <g id="Group" transform="translate(1283.000000, 1322.000000)">
                <g id="Group-3" transform="translate(-0.000000, 2.000000)">
                    <mask id="mask-2" fill="white">
                        <use xlink:href="#path-1"></use>
                    </mask>
                    <g id="Clip-2"></g>
                    <path d="M103.6317,0 C102.8617,0 102.2367,0.624 102.2367,1.394 C102.2367,2.164 102.8617,2.788 103.6317,2.788 C104.4017,2.788 105.0267,2.164 105.025701,1.394 C105.0267,0.624 104.4017,0 103.6317,0 M94.3377,9.294 C93.5677,9.294 92.9437,9.918 92.9437,10.688 C92.9437,11.458 93.5677,12.082 94.3377,12.082 C95.1077,12.082 95.7317,11.458 95.7317,10.688 C95.7317,9.918 95.1077,9.294 94.3377,9.294 M103.6317,9.294 C102.8617,9.294 102.2367,9.918 102.2367,10.688 C102.2367,11.458 102.8607,12.082 103.6317,12.082 C104.4017,12.082 105.0267,11.458 105.0267,10.688 C105.0257,9.918 104.4017,9.294 103.6317,9.294 M85.0427,18.588 C84.2737,18.589 83.6496988,19.213 83.6496988,19.982 C83.6487,20.753 84.2737,21.377 85.0427,21.377 C85.8137,21.377 86.4377,20.753 86.4377,19.982 C86.4377,19.213 85.8127,18.588 85.0427,18.588 M94.3377,18.588 C93.5677,18.588 92.9437,19.213 92.9437,19.982 C92.9437,20.753 93.5677,21.377 94.3377,21.377 C95.1077,21.377 95.7317,20.753 95.7317,19.982 C95.7317,19.213 95.1077,18.588 94.3377,18.588 M103.6317,18.588 C102.8607,18.588 102.2367,19.213 102.2367,19.982 C102.2367,20.753 102.8607,21.377 103.6317,21.377 C104.4017,21.377 105.0257,20.752 105.0257,19.982 C105.0257,19.213 104.4017,18.588 103.6317,18.588 M75.7487,27.883 C74.9787,27.883 74.3547,28.507 74.3547,29.276 C74.3547,30.047 74.9787,30.671 75.7487,30.671 C76.5187,30.671 77.1427,30.047 77.1427,29.276 C77.1427,28.507 76.5187,27.883 75.7487,27.883 M85.0427,27.883 C84.2737,27.883 83.6497,28.507 83.6487,29.276 C83.6497,30.047 84.2737,30.671 85.0427,30.671 C85.8137,30.671 86.4377,30.047 86.4377,29.276 C86.4377,28.507 85.8137,27.883 85.0427,27.883 M94.3377,27.883 C93.5677,27.883 92.9437,28.507 92.9437,29.276 C92.9437,30.047 93.5677,30.671 94.3377,30.671 C95.1077,30.671 95.7317,30.047 95.7317,29.276 C95.7317,28.507 95.1077,27.883 94.3377,27.883 M103.6317,27.883 C102.8607,27.883 102.2367,28.507 102.2367,29.276 C102.2367,30.047 102.8607,30.671 103.6317,30.671 C104.4017,30.671 105.0257,30.047 105.0257,29.276 C105.0257,28.507 104.4017,27.883 103.6317,27.883 M66.4537,37.177 C65.6847,37.177 65.0607,37.801 65.0607,38.571 C65.0607,39.341 65.6847,39.965 66.4537,39.965 C67.2247,39.965 67.8487,39.341 67.8487,38.571 C67.8487,37.801 67.2247,37.177 66.4537,37.177 M75.7487,37.177 C74.9787,37.177 74.3547,37.801 74.3547,38.571 C74.3547,39.341 74.9787,39.965 75.7487,39.965 C76.5187,39.965 77.1427,39.341 77.1427,38.571 C77.1427,37.801 76.5187,37.177 75.7487,37.177 M85.0427,37.177 C84.2727,37.177 83.6487,37.801 83.6487,38.571 C83.6487,39.341 84.2727,39.965 85.0427,39.965 C85.8127,39.965 86.4377,39.341 86.4377,38.571 C86.4377,37.801 85.8127,37.177 85.0427,37.177 M94.3367,37.177 C93.5677,37.177 92.9437,37.801 92.9437,38.571 C92.9437,39.341 93.5677,39.965 94.3367,39.965 C95.1077,39.965 95.7317,39.341 95.7317,38.571 C95.7317,37.801 95.1077,37.177 94.3367,37.177 M103.6317,37.177 C102.8607,37.177 102.2367,37.801 102.2367,38.571 C102.2367,39.341 102.8607,39.965 103.6317,39.965 C104.4017,39.965 105.0257,39.341 105.0257,38.571 C105.0257,37.801 104.4017,37.177 103.6317,37.177 M57.1597,46.4719988 C56.3907,46.4719988 55.7657,47.096 55.7657,47.865 C55.7657,48.635 56.3907,49.26 57.1597,49.26 C57.9297,49.26 58.5547,48.636 58.5547,47.865 C58.5547,47.096 57.9297,46.471 57.1597,46.4719988 M66.4537,46.471 C65.6847,46.471 65.0607,47.096 65.0607,47.865 C65.0607,48.636 65.6847,49.26 66.4537,49.26 C67.2247,49.26 67.8487,48.635 67.8487,47.865 C67.8487,47.096 67.2247,46.472 66.4537,46.471 M75.7487,46.4719988 C74.9787,46.471 74.3547,47.096 74.3547,47.865 C74.3547,48.635 74.9787,49.26 75.7487,49.26 C76.5187,49.26 77.1427,48.635 77.1427,47.865 C77.1427,47.096 76.5187,46.471 75.7487,46.4719988 M85.0427,46.471 C84.2737,46.471 83.6487,47.096 83.6487,47.865 C83.6487,48.635 84.2737,49.26 85.0427,49.26 C85.8127,49.26 86.4377,48.635 86.4377,47.865 C86.4377,47.096 85.8127,46.471 85.0427,46.471 M94.3367,46.471 C93.5677,46.471 92.9437,47.096 92.9437,47.865 C92.9437,48.635 93.5677,49.26 94.3367,49.26 C95.1077,49.26 95.7317,48.635 95.7317,47.865 C95.7317,47.096 95.1077,46.471 94.3367,46.471 M103.6317,46.4719988 C102.8607,46.471 102.2367,47.096 102.2367,47.865 C102.2367,48.635 102.8617,49.26 103.6317,49.26 C104.4017,49.26 105.025701,48.635 105.025701,47.865 C105.0267,47.096 104.4017,46.471 103.6317,46.4719988 M47.8657,55.766 C47.0957,55.766 46.4717,56.39 46.4717,57.16 C46.4717,57.93 47.0957,58.554 47.8657,58.554 C48.6357,58.554 49.2597,57.93 49.2597,57.16 C49.2597,56.39 48.6357,55.766 47.8657,55.766 M57.1597,55.766 C56.3907,55.766 55.7657,56.39 55.7657,57.159 C55.7657,57.93 56.3907,58.554 57.1597,58.554 C57.9297,58.554 58.5547,57.93 58.5547,57.16 C58.5547,56.39 57.9297,55.766 57.1597,55.766 M66.4537,55.766 C65.6847,55.766 65.0607,56.39 65.0607,57.16 C65.0607,57.93 65.6847,58.554 66.4537,58.554 C67.2247,58.554 67.8487,57.93 67.8487,57.16 C67.8487,56.39 67.2247,55.766 66.4537,55.766 M75.7487,55.766 C74.9787,55.766 74.3547,56.39 74.3547,57.159 C74.3547,57.93 74.9787,58.554 75.7487,58.554 C76.5187,58.554 77.1427,57.93 77.1427,57.159 C77.1427,56.39 76.5187,55.766 75.7487,55.766 M85.0427,55.766 C84.2727,55.766 83.6487,56.39 83.6487,57.159 C83.6487,57.93 84.2727,58.554 85.0427,58.554 C85.8127,58.554 86.4377,57.93 86.4367012,57.159 C86.4377,56.39 85.8127,55.766 85.0427,55.766 M94.3377,55.766 C93.5677,55.766 92.9437,56.39 92.9437,57.16 C92.9437,57.93 93.5677,58.554 94.3377,58.554 C95.1077,58.554 95.7317,57.93 95.7317,57.16 C95.7317,56.39 95.1077,55.766 94.3377,55.766 M103.6317,55.766 C102.8607,55.766 102.2367,56.39 102.2367,57.16 C102.2367,57.93 102.8607,58.554 103.6317,58.554 C104.4017,58.554 105.0257,57.93 105.0257,57.159 C105.0257,56.39 104.4017,55.766 103.6317,55.766 M38.5707,65.06 C37.8017,65.06 37.1777,65.685 37.1767,66.454 C37.1767,67.224 37.8017,67.849 38.5707,67.849 C39.3417,67.849 39.9657,67.225 39.9657,66.454 C39.9657,65.685 39.3417,65.06 38.5707,65.06 M47.8657,65.06 C47.0957,65.06 46.4717,65.684 46.4717,66.454 C46.4717,67.224 47.0957,67.849 47.8657,67.849 C48.6357,67.849 49.2597,67.224 49.2597,66.454 C49.2597,65.684 48.6357,65.06 47.8657,65.06 M57.1597,65.06 C56.3907,65.06 55.7657,65.684 55.7657,66.454 C55.7657,67.224 56.3897,67.849 57.1597,67.849 C57.9297,67.849 58.5547,67.224 58.5547,66.454 C58.5537,65.684 57.9297,65.06 57.1597,65.06 M66.4537,65.06 C65.6847,65.06 65.0607,65.684 65.0607,66.454 C65.0607,67.224 65.6847,67.849 66.4537,67.8480012 C67.2247,67.849 67.8487,67.224 67.8487,66.454 C67.8487,65.684 67.2247,65.06 66.4537,65.06 M75.7477,65.06 C74.9787,65.06 74.3547,65.684 74.3547,66.454 C74.3547,67.224 74.9787,67.8480012 75.7477,67.8480012 C76.5187,67.849 77.1427,67.224 77.1427,66.454 C77.1427,65.684 76.5187,65.06 75.7477,65.06 M85.0427,65.06 C84.2737,65.06 83.6487,65.684 83.6496988,66.454 C83.6487,67.224 84.2737,67.849 85.0427,67.849 C85.8127,67.849 86.4377,67.224 86.4377,66.454 C86.4377,65.685 85.8127,65.06 85.0427,65.06 M94.3367,65.06 C93.5677,65.06 92.9437,65.684 92.9437,66.454 C92.9437,67.224 93.5677,67.849 94.3367,67.849 C95.1077,67.849 95.7317,67.224 95.7317,66.454 C95.7317,65.684 95.1077,65.06 94.3367,65.06 M103.6317,65.06 C102.8607,65.06 102.2367,65.684 102.2367,66.454 C102.2367,67.224 102.8617,67.849 103.6317,67.849 C104.4017,67.849 105.0267,67.224 105.0267,66.454 C105.0267,65.684 104.4017,65.06 103.6317,65.06 M29.2777,74.354 C28.5077,74.354 27.8827,74.979 27.8827,75.748 C27.8827,76.519 28.5067,77.143 29.2777,77.143 C30.0467,77.143 30.6717,76.519 30.6707012,75.748 C30.6707012,74.979 30.0467,74.354 29.2777,74.354 M38.5707,74.354 C37.8017,74.354 37.1777,74.979 37.1767,75.748 C37.1777,76.519 37.8017,77.143 38.5707,77.143 C39.3417,77.143 39.9657,76.519 39.9657,75.748 C39.9657,74.979 39.3417,74.354 38.5707,74.354 M47.8657,74.354 C47.0957,74.354 46.4717,74.979 46.4717,75.748 C46.4717,76.519 47.0957,77.143 47.8647,77.143 C48.6357,77.143 49.2597,76.519 49.2597,75.748 C49.2597,74.979 48.6357,74.354 47.8657,74.354 M57.1597,74.354 C56.3907,74.354 55.7657,74.979 55.7657,75.748 C55.7657,76.519 56.3907,77.143 57.1597,77.143 C57.9297,77.143 58.5547,76.519 58.5547,75.748 C58.5547,74.979 57.9297,74.354 57.1597,74.354 M66.4537,74.354 C65.6847,74.354 65.0607,74.979 65.0607,75.748 C65.0607,76.519 65.6847,77.143 66.4537,77.143 C67.2247,77.143 67.8487,76.519 67.8487,75.748 C67.8487,74.979 67.2247,74.354 66.4537,74.354 M75.7487,74.354 C74.9787,74.354 74.3547,74.979 74.3547,75.748 C74.3547,76.519 74.9787,77.143 75.7487,77.143 C76.5187,77.143 77.1427,76.519 77.1427,75.748 C77.1427,74.979 76.5187,74.354 75.7487,74.354 M85.0427,74.354 C84.2737,74.354 83.6487,74.979 83.6487,75.748 C83.6487,76.519 84.2737,77.143 85.0427,77.143 C85.8127,77.143 86.4377,76.519 86.4377,75.748 C86.4377,74.979 85.8127,74.354 85.0427,74.354 M94.3367,74.354 C93.5677,74.354 92.9437,74.979 92.9437,75.748 C92.9437,76.519 93.5677,77.143 94.3377,77.143 C95.1077,77.143 95.7317,76.519 95.7317,75.748 C95.7317,74.979 95.1077,74.354 94.3367,74.354 M103.6317,74.354 C102.8617,74.354 102.2367,74.979 102.2367,75.748 C102.2367,76.519 102.8617,77.143 103.6317,77.143 C104.4017,77.143 105.025701,76.519 105.025701,75.748 C105.0267,74.979 104.4017,74.354 103.6317,74.354 M19.9837,83.648 C19.2127,83.648 18.5887,84.272 18.5887,85.043 C18.5887,85.813 19.2127,86.437 19.9827,86.437 C20.7527,86.437 21.3767,85.813 21.3767,85.043 C21.3767,84.272 20.7527,83.648 19.9837,83.648 M29.2777,83.648 C28.5067,83.648 27.8827,84.272 27.8827,85.043 C27.8827,85.813 28.5067,86.437 29.2777,86.437 C30.0467,86.437 30.6707,85.813 30.6707,85.043 C30.6707,84.272 30.0467,83.648 29.2777,83.648 M38.5707,83.648 C37.8017,83.648 37.1767,84.272 37.1767,85.043 C37.1767,85.813 37.8017,86.437 38.5707,86.437 C39.3417,86.437 39.9657,85.813 39.9657,85.043 C39.9657,84.272 39.3417,83.648 38.5707,83.648 M47.8647,83.648 C47.0957,83.648 46.4717,84.272 46.4717,85.043 C46.4717,85.813 47.0957,86.437 47.8647,86.437 C48.6357,86.437 49.2597,85.813 49.2597,85.043 C49.2597,84.272 48.6357,83.648 47.8647,83.648 M57.1597,83.648 C56.3897,83.648 55.7657,84.272 55.7657,85.043 C55.7657,85.813 56.3897,86.437 57.1597,86.437 C57.9297,86.437 58.5537,85.813 58.5537,85.042 C58.5537,84.272 57.9297,83.648 57.1597,83.648 M66.4537,83.648 C65.6847,83.648 65.0607,84.272 65.0607,85.043 C65.0607,85.813 65.6847,86.437 66.4537,86.437 C67.2247,86.437 67.8487,85.813 67.8487,85.043 C67.8487,84.272 67.2247,83.648 66.4537,83.648 M75.7487,83.648 C74.9787,83.648 74.3547,84.272 74.3547,85.043 C74.3547,85.813 74.9787,86.437 75.7487,86.437 C76.5187,86.437 77.1427,85.813 77.1427,85.043 C77.1427,84.272 76.5187,83.648 75.7487,83.648 M85.0427,83.648 C84.2727,83.648 83.6487,84.272 83.6487,85.042 C83.6487,85.813 84.2737,86.437 85.0427,86.437 C85.8137,86.437 86.4377,85.813 86.4377,85.043 C86.4377,84.272 85.8127,83.648 85.0427,83.648 M94.3377,83.648 C93.5677,83.648 92.9437,84.272 92.9437,85.043 C92.9437,85.813 93.5677,86.437 94.3377,86.437 C95.1077,86.437 95.7317,85.813 95.7317,85.043 C95.7317,84.272 95.1077,83.648 94.3377,83.648 M103.6317,83.648 C102.8617,83.648 102.2367,84.272 102.2367,85.043 C102.2367,85.813 102.8607,86.437 103.6317,86.437 C104.4017,86.437 105.0267,85.813 105.025701,85.043 C105.025701,84.272 104.4017,83.648 103.6317,83.648 M10.6887,92.942 C9.9187,92.943 9.2947,93.567 9.2937,94.337 C9.2937,95.106 9.9187,95.731 10.6887,95.731 C11.4587,95.731 12.0827,95.107 12.0827,94.337 C12.0827,93.567 11.4587,92.942 10.6887,92.942 M19.9827,92.942 C19.2127,92.942 18.5887,93.567 18.5887,94.337 C18.5887,95.107 19.2127,95.731 19.9837,95.731 C20.7527,95.731 21.3767,95.106 21.3767,94.337 C21.3767,93.567 20.7527,92.943 19.9827,92.942 M29.2777,92.942 C28.5067,92.942 27.8827,93.567 27.8827,94.337 C27.8827,95.106 28.5067,95.73 29.2777,95.731 C30.0467,95.731 30.6707,95.106 30.6707,94.337 C30.6707,93.566 30.0467,92.942 29.2777,92.942 M38.5707,92.942 C37.8017,92.942 37.1767,93.567 37.1767,94.337 C37.1767,95.106 37.8017,95.7300012 38.5707,95.7300012 C39.3417,95.731 39.9657,95.106 39.9657,94.337 C39.9657,93.566 39.3417,92.942 38.5707,92.942 M47.8647,92.942 C47.0957,92.942 46.4717,93.566 46.4717,94.337 C46.4717,95.106 47.0957,95.73 47.8647,95.73 C48.6357,95.73 49.2597,95.106 49.2597,94.337 C49.2597,93.566 48.6357,92.942 47.8647,92.942 M57.1597,92.9429988 C56.3907,92.942 55.7657,93.566 55.7657,94.337 C55.7657,95.106 56.3907,95.731 57.1597,95.731 C57.9297,95.73 58.5547,95.106 58.5547,94.337 C58.5547,93.567 57.9297,92.942 57.1597,92.9429988 M66.4537,92.942 C65.6847,92.943 65.0607,93.567 65.0607,94.337 C65.0607,95.106 65.6847,95.731 66.4537,95.731 C67.2247,95.731 67.8487,95.107 67.8487,94.337 C67.8487,93.567 67.2247,92.942 66.4537,92.942 M75.7487,92.942 C74.9787,92.942 74.3547,93.566 74.3547,94.337 C74.3547,95.106 74.9787,95.731 75.7487,95.731 C76.5187,95.731 77.1427,95.107 77.1427,94.337 C77.1427,93.567 76.5187,92.942 75.7487,92.942 M85.0427,92.943 C84.2737,92.943 83.6496988,93.567 83.6496988,94.337 C83.6487,95.107 84.2737,95.731 85.0427,95.731 C85.8127,95.731 86.4377,95.106 86.4377,94.337 C86.4377,93.567 85.8127,92.943 85.0427,92.943 M94.3377,92.942 C93.5677,92.943 92.9437,93.567 92.9437,94.337 C92.9437,95.107 93.5677,95.731 94.3377,95.7300012 C95.1077,95.731 95.7317,95.107 95.7317,94.337 C95.7317,93.567 95.1077,92.943 94.3377,92.942 M103.6317,92.9429988 C102.8607,92.942 102.2367,93.567 102.2367,94.337 C102.2367,95.106 102.8607,95.73 103.6317,95.731 C104.4017,95.731 105.0257,95.106 105.0257,94.337 C105.0257,93.566 104.4017,92.942 103.6317,92.9429988 M1.3947,102.237 C0.6237,102.237 -0.0003,102.861 -0.0003,103.631 C-0.0003,104.401 0.6237,105.025 1.3947,105.025 C2.1637,105.025 2.7877,104.401 2.7877,103.632 C2.7877,102.861 2.1637,102.237 1.3947,102.237 M10.6887,102.237 C9.9187,102.237 9.2937,102.861 9.2937,103.631 C9.2937,104.401 9.9187,105.025 10.6887,105.025 C11.4587,105.025 12.0827,104.401 12.0827,103.631 C12.0827,102.861 11.4587,102.237 10.6887,102.237 M19.9837,102.237 C19.2127,102.237 18.5887,102.861 18.5887,103.631 C18.5887,104.401 19.2127,105.025 19.9827,105.025 C20.7527,105.025 21.3767,104.401 21.3767,103.631 C21.3767,102.861 20.7527,102.237 19.9837,102.237 M29.2777,102.237 C28.5067,102.237 27.8827,102.861 27.8827,103.631 C27.8827,104.401 28.5067,105.025 29.2777,105.025 C30.0467,105.025 30.6707,104.401 30.6707,103.631 C30.6707,102.861 30.0467,102.237 29.2777,102.237 M38.5707,102.237 C37.8017,102.237 37.1767,102.861 37.1767,103.631 C37.1767,104.401 37.8017,105.025 38.5707,105.025 C39.3407,105.025 39.9657,104.401 39.9657,103.631 C39.9657,102.861 39.3417,102.237 38.5707,102.237 M47.8657,102.237 C47.0957,102.237 46.4717,102.861 46.4717,103.631 C46.4717,104.401 47.0957,105.025 47.8657,105.025 C48.6357,105.025 49.2597,104.401 49.2597,103.631 C49.2597,102.861 48.6357,102.237 47.8657,102.237 M57.1597,102.237 C56.3907,102.237 55.7657,102.861 55.7657,103.631 C55.7657,104.401 56.3907,105.025 57.1597,105.025 C57.9297,105.025 58.5547,104.401 58.5547,103.631 C58.5547,102.861 57.9297,102.237 57.1597,102.237 M66.4537,102.237 C65.6847,102.237 65.0607,102.861 65.0607,103.631 C65.0607,104.401 65.6847,105.025 66.4537,105.025 C67.2247,105.025 67.8487,104.401 67.8487,103.632 C67.8487,102.861 67.2247,102.237 66.4537,102.237 M75.7487,102.237 C74.9787,102.237 74.3547,102.861 74.3547,103.632 C74.3547,104.401 74.9787,105.025 75.7487,105.025 C76.5187,105.025 77.1427,104.401 77.1427,103.631 C77.1427,102.861 76.5187,102.237 75.7487,102.237 M85.0427,102.237 C84.2737,102.237 83.6497,102.861 83.6487,103.631 C83.6497,104.401 84.2737,105.025 85.0427,105.025 C85.8137,105.025 86.4377,104.401 86.4377,103.631 C86.4377,102.861 85.8137,102.237 85.0427,102.237 M94.3377,102.237 C93.5677,102.237 92.9437,102.861 92.9437,103.631 C92.9437,104.401 93.5677,105.025 94.3377,105.025 C95.1077,105.025 95.7317,104.401 95.7317,103.631 C95.7317,102.861 95.1077,102.237 94.3377,102.237 M105.0257,103.631 C105.0257,102.861 104.4017,102.237 103.6317,102.237 C102.8607,102.237 102.2367,102.861 102.2367,103.631 C102.2367,104.401 102.8607,105.025 103.6317,105.025 C104.4017,105.025 105.0257,104.401 105.0257,103.631" id="Fill-1" fill="#47D58C" mask="url(#mask-2)"></path>
                </g>
                <g id="Group-12" transform="translate(119.000000, -0.000000)" fill="#DA63DD">
                    <path d="M11.503,104.638 L11.503,108.071 L-7.10542736e-14,108.071 L-7.10542736e-14,104.638 L11.503,104.638 Z M11.503,94.175 L11.503,97.608 L-7.10542736e-14,97.608 L-7.10542736e-14,94.175 L11.503,94.175 Z M11.503,83.71 L11.503,87.143 L-7.10542736e-14,87.143 L-7.10542736e-14,83.71 L11.503,83.71 Z M11.503,73.246 L11.503,76.68 L-7.10542736e-14,76.68 L-7.10542736e-14,73.246 L11.503,73.246 Z M11.503,62.782 L11.503,66.216 L-7.10542736e-14,66.216 L-7.10542736e-14,62.782 L11.503,62.782 Z M11.503,52.318 L11.503,55.752 L-7.10542736e-14,55.752 L-7.10542736e-14,52.318 L11.503,52.318 Z M11.503,41.855 L11.503,45.288 L-7.10542736e-14,45.288 L-7.10542736e-14,41.855 L11.503,41.855 Z M11.503,31.392 L11.503,34.825 L-7.10542736e-14,34.825 L-7.10542736e-14,31.392 L11.503,31.392 Z M11.503,20.927 L11.503,24.36 L-7.10542736e-14,24.36 L-7.10542736e-14,20.927 L11.503,20.927 Z M11.503,10.463 L11.503,13.897 L-7.10542736e-14,13.897 L-7.10542736e-14,10.463 L11.503,10.463 Z M11.503,-1.42108547e-14 L11.503,3.433 L-7.10542736e-14,3.433 L-7.10542736e-14,-1.42108547e-14 L11.503,-1.42108547e-14 Z" id="Combined-Shape"></path>
                </g>
            </g>
        </g>
    </g>
</svg>