<svg xmlns="http://www.w3.org/2000/svg" viewBox="0 0 650.9 1077.3" overflow="visible"><style>.st0{fill:#f9e39a}.st1{fill:#f8f3dc}</style><g id="stars_13_"><g id="starsy4_4_"><circle class="st0" cx="263.4" cy="679.1" r="1.2"/><circle class="st0" cx="269.8" cy="763" r="1.2"/><path class="st0" d="M285.7 624c.7 0 1.2-.6 1.2-1.2 0-.7-.5-1.2-1.2-1.2s-1.2.6-1.2 1.2c0 .7.5 1.2 1.2 1.2z"/><circle class="st0" cx="214.1" cy="622.1" r=".6"/><circle class="st0" cx="192.5" cy="630" r=".6"/><circle class="st0" cx="192.5" cy="617.6" r=".6"/><circle class="st0" cx="205.9" cy="590.7" r=".6"/><path class="st0" d="M176.4 631.2c.3.1.6-.2.7-.5.1-.3-.2-.7-.5-.7-.3-.1-.6.2-.7.5 0 .3.2.6.5.7zM332.2 517.6c.3 0 .6-.3.6-.6s-.3-.6-.6-.6-.6.3-.6.6c0 .4.3.6.6.6z"/><circle class="st0" cx="347" cy="511.4" r=".6"/><path class="st0" d="M193.1 622.7c.3 0 .6-.3.6-.6s-.3-.6-.6-.6-.6.3-.6.6.3.6.6.6zM342.2 645.6c.1.3.4.5.8.4.3-.1.5-.4.4-.8-.1-.3-.4-.5-.8-.4-.3.1-.5.5-.4.8zM357.7 656.7c.1.3.4.5.8.4.3-.1.5-.4.4-.8-.1-.3-.4-.5-.8-.4-.3.1-.5.5-.4.8zM355.9 634.3c.1.3.4.5.8.4.3-.1.5-.4.4-.8-.1-.3-.4-.5-.8-.4-.3.2-.5.5-.4.8zM366.1 635c.1.3.4.5.8.4.3-.1.5-.4.4-.8-.1-.3-.4-.5-.8-.4-.3.1-.5.4-.4.8zM342.8 622.9c.1.3.4.5.8.4.3-.1.5-.4.4-.8-.1-.3-.4-.5-.8-.4-.3.1-.5.5-.4.8z"/><circle class="st0" cx="341" cy="429" r=".6"/><circle class="st0" cx="189.3" cy="520.7" r=".6"/><circle class="st0" cx="334.2" cy="412.5" r=".6"/><circle class="st0" cx="347.7" cy="385.6" r=".6"/><path class="st0" d="M274.6 518.8c-.1.3 0 .7.3.8.3.1.7 0 .8-.3s0-.7-.3-.8-.7 0-.8.3zM258 475.6c-.1.3 0 .7.3.8.3.1.7 0 .8-.3.1-.3 0-.7-.3-.8-.3-.1-.6 0-.8.3zM261 448.4c-.1.3 0 .7.3.8.3.1.7 0 .8-.3.1-.3 0-.7-.3-.8-.3-.2-.6 0-.8.3z"/><circle class="st0" cx="333.6" cy="371.1" r=".6"/><path class="st0" d="M308.8 551c0 .3.3.6.6.6s.6-.3.6-.6-.3-.6-.6-.6-.6.3-.6.6zM285.7 536.6c0 .3.3.6.6.6s.6-.3.6-.6-.3-.6-.6-.6-.6.3-.6.6zM295 530.4c0 .3.3.6.6.6s.6-.3.6-.6-.3-.6-.6-.6-.6.2-.6.6zM275.6 521.5c-.1.3.2.7.5.7.3.1.6-.2.7-.5.1-.3-.2-.7-.5-.7s-.6.2-.7.5zM285.7 511c0 .3.3.6.6.6s.6-.3.6-.6-.3-.6-.6-.6-.6.2-.6.6zM279.4 528.7c0 .3.3.6.6.6s.6-.3.6-.6-.3-.6-.6-.6-.6.3-.6.6zM290.7 526.1c0 .3.3.6.6.6s.6-.3.6-.6-.3-.6-.6-.6-.6.3-.6.6zM300.5 516.7c0 .3.3.6.6.6s.6-.3.6-.6-.3-.6-.6-.6-.6.3-.6.6zM264 561.6c0 .3.3.6.6.6s.6-.3.6-.6-.3-.6-.6-.6-.6.3-.6.6zM255 560.4c0 .3.3.6.6.6s.6-.3.6-.6-.3-.6-.6-.6-.6.3-.6.6zM264.4 554.1c0 .3.3.6.6.6s.6-.3.6-.6-.3-.6-.6-.6c-.4 0-.6.3-.6.6zM283 559.4c-.1.3.2.7.5.7.3.1.6-.2.7-.5.1-.3-.2-.7-.5-.7s-.7.2-.7.5zM255 534.7c0 .3.3.6.6.6s.6-.3.6-.6-.3-.6-.6-.6-.6.3-.6.6zM237.6 537.3c0 .3.3.6.6.6s.6-.3.6-.6-.3-.6-.6-.6c-.4 0-.6.2-.6.6zM259.5 515.5c0 .3.3.6.6.6s.6-.3.6-.6-.3-.6-.6-.6c-.4 0-.6.2-.6.6zM269.8 540.5c0 .3.3.6.6.6s.6-.3.6-.6-.3-.6-.6-.6-.6.2-.6.6zM352.8 724.1c0 .3.3.6.6.6s.6-.3.6-.6-.3-.6-.6-.6-.5.3-.6.6zM353.2 716.6c0 .3.3.6.6.6s.6-.3.6-.6-.3-.6-.6-.6-.6.2-.6.6zM343.9 697.2c0 .3.3.6.6.6s.6-.3.6-.6-.3-.6-.6-.6-.6.2-.6.6zM358.7 702.9c0 .3.3.6.6.6s.6-.3.6-.6-.3-.6-.6-.6-.6.3-.6.6zM211.8 478.7c-.1.3.2.7.5.7.3.1.6-.2.7-.5.1-.3-.2-.7-.5-.7-.4 0-.7.2-.7.5z"/><circle class="st0" cx="263.8" cy="745.5" r=".6"/><path class="st0" d="M241.3 763.3c-.2.3-.1.7.2.9s.7.1.8-.2c.2-.3.1-.7-.2-.9s-.6-.1-.8.2zM240.7 739.4c-.2.2-.2.6 0 .9.2.2.6.2.9 0 .2-.2.2-.6 0-.9-.3-.3-.6-.3-.9 0zM251.3 745.1c-.2.3-.1.7.2.9.3.2.7.1.8-.2.2-.3.1-.7-.2-.9s-.6-.1-.8.2zM391.6 443.7c.3 0 .6-.3.6-.6s-.3-.6-.6-.6-.6.3-.6.6.2.6.6.6zM368.4 437c-.2.2-.2.6 0 .9.2.2.6.2.9 0 .2-.2.2-.6 0-.9-.2-.2-.6-.2-.9 0zM379 442.8c-.2.3-.1.7.2.9.3.2.7.1.8-.2.2-.3.1-.7-.2-.9-.2-.2-.6-.1-.8.2zM229.6 722.6c-.2.3-.1.7.1.9.3.2.7.1.8-.2.2-.3.1-.7-.2-.9-.1-.1-.5-.1-.7.2zM274.4 734.8c-.3-.1-.7.1-.7.5-.1.3.1.7.5.7.3.1.7-.1.7-.5.1-.3-.1-.6-.5-.7zM278.6 745.4c-.3-.1-.7.1-.7.5-.1.3.1.7.5.7.3.1.7-.1.7-.5s-.2-.6-.5-.7zM291 727.9c-.3-.1-.7 0-.8.3-.1.3 0 .7.3.8.3.1.7 0 .8-.3.2-.4 0-.7-.3-.8zM283.3 730.1c-.3-.1-.7.1-.7.5-.1.3.1.7.5.7.3.1.7-.1.7-.5s-.2-.6-.5-.7zM283.5 742c-.3-.1-.7.1-.7.5s.1.7.5.7c.3.1.7-.1.7-.5.1-.3-.1-.6-.5-.7zM336.8 761.8c.3 0 .6-.3.6-.6s-.3-.6-.6-.6-.6.3-.6.6.3.6.6.6zM327.6 763.9c-.2.3-.1.7.2.9s.7.1.8-.2c.2-.3.1-.7-.2-.9-.2-.1-.6 0-.8.2zM342.9 754.7c-.3-.1-.7.1-.7.5-.1.3.1.7.5.7.3.1.7-.1.7-.5.1-.3-.1-.6-.5-.7zM347.8 751.3c-.3-.1-.7.1-.7.5s.1.7.5.7c.3.1.7-.1.7-.5.1-.3-.1-.6-.5-.7zM309.5 615.9c-.3-.1-.7.1-.7.5-.1.3.1.7.5.7.3.1.7-.1.7-.5.1-.3-.1-.6-.5-.7zM313.7 626.4c-.3-.1-.7.1-.7.5-.1.3.1.7.5.7.3.1.7-.1.7-.5.1-.2-.1-.6-.5-.7zM318.6 623c-.3-.1-.7.1-.7.5-.1.3.1.7.5.7s.7-.1.7-.5c.1-.3-.1-.6-.5-.7zM317.4 384.8c.3 0 .6-.3.6-.6s-.3-.6-.6-.6-.6.3-.6.6c0 .4.3.6.6.6zM312.7 387.7c-.2.3-.1.7.2.9s.7.1.8-.2c.2-.3.1-.7-.2-.9s-.6 0-.8.2zM305.2 386c-.3-.1-.7.1-.7.5-.1.3.1.7.5.7.3.1.7-.1.7-.5 0-.3-.2-.6-.5-.7zM290.6 753.6c-.3-.1-.7.1-.7.5-.1.3.1.7.5.7.3.1.7-.1.7-.5.1-.3-.1-.6-.5-.7zM254.8 708.2c-.3-.1-.7.1-.7.5-.1.3.1.7.5.7.3.1.7-.1.7-.5 0-.3-.2-.6-.5-.7zM257.7 699.5c-.3-.1-.7.1-.7.5-.1.3.1.7.5.7.3.1.7-.1.7-.5s-.1-.6-.5-.7zM261.9 710.1c-.3-.1-.7.1-.7.5-.1.3.1.7.5.7.3.1.7-.1.7-.5.1-.3-.1-.7-.5-.7zM253 727.6c-.3-.1-.7 0-.8.3-.1.3 0 .7.3.8.3.1.7 0 .8-.3.2-.4.1-.7-.3-.8z"/><circle class="st0" cx="284.5" cy="640" r=".6"/><path class="st0" d="M261.4 633.9c-.2.2-.2.6 0 .9.2.2.6.2.9 0 .2-.2.2-.6 0-.9-.2-.2-.6-.2-.9 0zM272 639.7c-.2.3-.1.7.2.9.3.2.7.1.8-.2.2-.3.1-.7-.2-.9-.2-.2-.6-.1-.8.2zM273.8 624.2c-.3-.1-.7 0-.8.3-.1.3 0 .7.3.8.3.1.7 0 .8-.3.1-.3 0-.7-.3-.8zM282.5 704.7c-.3-.1-.7.1-.7.5-.1.3.1.7.5.7.3.1.7-.1.7-.5 0-.3-.2-.7-.5-.7zM300.1 712.9c-.3-.1-.7.1-.7.5s.1.7.5.7c.3.1.7-.1.7-.5 0-.3-.2-.6-.5-.7zM274 718.3c-.3-.1-.7.1-.7.5-.1.3.1.7.5.7.3.1.7-.1.7-.5 0-.3-.2-.7-.5-.7zM341 461.3c-.3-.1-.7.1-.7.5-.1.3.1.7.5.7.3.1.7-.1.7-.5.1-.3-.1-.6-.5-.7zM191.1 557.9c-.3-.1-.7 0-.8.3-.1.3 0 .7.3.8.3.1.7 0 .8-.3.2-.3 0-.6-.3-.8zM349.9 456.6c-.3-.1-.7.1-.7.5-.1.3.1.7.5.7.3.1.7-.1.7-.5 0-.3-.2-.6-.5-.7zM273.8 425.2c.5-.3.7-.9.4-1.4-.3-.5-.9-.7-1.4-.4-.5.3-.7.9-.4 1.4.3.5.9.7 1.4.4zM279.5 435.3c-.5.2-.9.8-.7 1.3.2.6.7.9 1.3.7.5-.2.9-.8.7-1.3-.2-.5-.7-.8-1.3-.7zM302.5 683.3c-.2.3-.1.7.2.9s.7.1.8-.2c.2-.3.1-.7-.2-.9-.3-.2-.6-.1-.8.2zM301.9 659.3c-.2.2-.2.6 0 .9.2.2.6.2.9 0 .2-.2.2-.6 0-.9-.3-.2-.7-.2-.9 0zM350.8 647.7c-.2.3-.1.7.2.9s.7.1.8-.2c.2-.3.1-.7-.2-.9-.3-.1-.6 0-.8.2zM295.4 646.1c-.2.2-.2.6 0 .9.2.2.6.2.9 0 .2-.2.2-.6 0-.9-.3-.3-.7-.3-.9 0zM328 493.7c.3 0 .6-.3.6-.6s-.3-.6-.6-.6-.6.3-.6.6.3.6.6.6zM224.9 742.1c-.3.2-.3.6-.1.9.2.3.6.3.8.2.3-.2.3-.6.1-.9-.1-.3-.5-.4-.8-.2zM247.9 596c-.3.2-.4.5-.3.8.1.3.5.4.8.3.3-.2.4-.5.3-.8s-.5-.4-.8-.3zM215.6 584.5c-.3-.2-.6-.2-.9.1-.2.3-.2.7.1.9.3.2.6.2.9-.1.2-.3.1-.7-.1-.9zM218.3 592c-.3-.2-.6-.2-.9.1-.2.3-.2.7.1.9.3.2.6.2.9-.1.2-.3.1-.7-.1-.9zM210.7 601.7c-.3-.2-.6-.2-.9.1-.2.3-.2.7.1.9.3.2.6.2.9-.1.2-.3.1-.7-.1-.9zM241.4 550.2c0-.3-.3-.6-.6-.6s-.6.3-.6.6.3.6.6.6c.4 0 .6-.3.6-.6zM223.1 560.2c.3-.1.5-.5.3-.8-.1-.3-.5-.5-.8-.3-.3.1-.5.5-.3.8.1.3.5.5.8.3zM197.4 574.4c.3-.1.5-.4.5-.7-.1-.3-.4-.5-.7-.5-.3.1-.5.4-.5.7 0 .4.3.6.7.5zM202.4 568.1c.3-.1.5-.5.3-.8-.1-.3-.5-.5-.8-.3-.3.1-.5.5-.3.8.1.2.5.4.8.3zM278.1 401.1c-.3-.1-.7.1-.7.5-.1.3.1.7.5.7.3.1.7-.1.7-.5.1-.2-.1-.6-.5-.7zM287 396.5c-.3-.1-.7.1-.7.5-.1.3.1.7.5.7.3.1.7-.1.7-.5 0-.3-.2-.7-.5-.7zM300.9 410.7c.3-.1.5-.4.5-.7-.1-.3-.4-.5-.7-.5-.3.1-.5.4-.5.7.1.3.4.6.7.5zM306 404.3c.3-.1.5-.5.3-.8-.1-.3-.5-.5-.8-.3-.3.1-.5.5-.3.8.1.3.5.4.8.3zM375.7 459.8c.3.1.6-.2.7-.5.1-.3-.2-.7-.5-.7-.3-.1-.6.2-.7.5 0 .3.2.6.5.7z"/><circle class="st0" cx="317.1" cy="438.6" r=".6"/><circle class="st0" cx="338" cy="437.2" r=".6"/><path class="st0" d="M331.9 433.7c.3 0 .6-.3.6-.6s-.3-.6-.6-.6-.6.3-.6.6.3.6.6.6zM310.6 433.7c.3-.1.5-.4.5-.7-.1-.3-.4-.5-.7-.5-.3.1-.5.4-.5.7.1.4.4.6.7.5zM315.6 427.4c.3-.1.5-.5.3-.8-.1-.3-.5-.5-.8-.3-.3.1-.5.5-.3.8.2.2.5.4.8.3zM238.2 569.4c.3-.1.5-.5.3-.8-.1-.3-.5-.5-.8-.3-.3.1-.5.5-.3.8.1.3.4.4.8.3zM231.2 572c.3-.1.5-.5.3-.8-.1-.3-.5-.5-.8-.3-.3.1-.5.5-.3.8.2.3.5.5.8.3zM228.6 552.5c.3-.1.5-.4.5-.7-.1-.3-.4-.5-.7-.5-.3.1-.5.4-.5.7.1.4.4.6.7.5zM216.7 572.3c.3-.1.5-.5.3-.8-.1-.3-.5-.5-.8-.3-.3.1-.5.5-.3.8.2.3.5.5.8.3zM344.6 663.7c.3-.1.5-.5.3-.8-.1-.3-.5-.5-.8-.3-.3.1-.5.5-.3.8.2.2.5.4.8.3zM318.9 677.9c.3-.1.5-.4.5-.7-.1-.3-.4-.5-.7-.5-.3.1-.5.4-.5.7 0 .3.3.6.7.5zM323.9 671.5c.3-.1.5-.5.3-.8-.1-.3-.5-.5-.8-.3-.3.1-.5.5-.3.8.1.3.5.4.8.3zM334.1 663.5c.3-.1.5-.5.3-.8-.1-.3-.5-.5-.8-.3-.3.1-.5.5-.3.8.1.3.5.4.8.3zM352.7 675.5c.3-.1.5-.5.3-.8-.1-.3-.5-.5-.8-.3-.3.1-.5.5-.3.8.2.3.5.4.8.3zM350.2 656c.3-.1.5-.4.5-.7-.1-.3-.4-.5-.7-.5-.3.1-.5.4-.5.7 0 .3.3.5.7.5zM411.1 683.5c.1.3.4.5.8.4.3-.1.5-.4.4-.8-.1-.3-.4-.5-.8-.4-.3.2-.5.5-.4.8zM395.4 710.6c0 .3.3.6.6.6s.6-.3.6-.6-.3-.6-.6-.6-.5.3-.6.6zM398.2 697.8c0 .3.3.6.6.6s.6-.3.6-.6-.3-.6-.6-.6-.6.3-.6.6zM397.8 492.3c0 .3.3.6.6.6s.6-.3.6-.6-.3-.6-.6-.6-.6.3-.6.6zM421.7 657.9c0 .3.3.6.6.6s.6-.3.6-.6-.3-.6-.6-.6-.6.3-.6.6zM398 690.5c.3-.1.5-.5.3-.8-.1-.3-.5-.5-.8-.3-.3.1-.5.5-.3.8.2.3.5.5.8.3zM387.5 690.4c.3-.1.5-.5.3-.8-.1-.3-.5-.5-.8-.3-.3.1-.5.5-.3.8s.5.4.8.3zM406.1 702.3c.3-.1.5-.5.3-.8-.1-.3-.5-.5-.8-.3-.3.1-.5.5-.3.8.2.3.5.5.8.3zM403.6 682.8c.3-.1.5-.4.5-.7-.1-.3-.4-.5-.7-.5-.3.1-.5.4-.5.7 0 .4.3.6.7.5zM391.7 702.6c.3-.1.5-.5.3-.8s-.5-.5-.8-.3c-.3.1-.5.5-.3.8.1.3.5.5.8.3zM274.4 510.3c0 .3.3.6.6.6s.6-.3.6-.6-.3-.6-.6-.6-.6.3-.6.6zM360.8 501.9c-.1.3.2.7.5.7.3.1.6-.2.7-.5.1-.3-.2-.7-.5-.7s-.6.2-.7.5zM370.9 491.4c0 .3.3.6.6.6s.6-.3.6-.6-.3-.6-.6-.6-.6.2-.6.6zM364.6 509.2c0 .3.3.6.6.6s.6-.3.6-.6-.3-.6-.6-.6-.6.2-.6.6zM359.6 490.8c0 .3.3.6.6.6s.6-.3.6-.6-.3-.6-.6-.6-.6.2-.6.6zM295 474.7c0 .3.3.6.6.6s.6-.3.6-.6-.3-.6-.6-.6-.6.3-.6.6zM275.6 480.2c-.1.3.2.7.5.7.3.1.6-.2.7-.5.1-.3-.2-.7-.5-.7s-.6.2-.7.5zM285.7 455.3c0 .3.3.6.6.6s.6-.3.6-.6-.3-.6-.6-.6-.6.3-.6.6zM286.3 492.7c0 .3.3.6.6.6s.6-.3.6-.6-.3-.6-.6-.6-.6.2-.6.6zM290.7 470.5c0 .3.3.6.6.6s.6-.3.6-.6-.3-.6-.6-.6-.6.3-.6.6zM264.4 498.5c0 .3.3.6.6.6s.6-.3.6-.6-.3-.6-.6-.6c-.4 0-.6.2-.6.6zM255 479.1c0 .3.3.6.6.6s.6-.3.6-.6-.3-.6-.6-.6-.6.2-.6.6zM286.9 484.2c0 .3.3.6.6.6s.6-.3.6-.6-.3-.6-.6-.6-.6.3-.6.6zM411.2 650.8c0 .3.3.6.6.6s.6-.3.6-.6-.3-.6-.6-.6-.6.3-.6.6zM406.9 636.7c0 .3.3.6.6.6s.6-.3.6-.6-.3-.6-.6-.6c-.3-.1-.6.2-.6.6zM370.5 621.7c-.1.3.2.7.5.7.3.1.6-.2.7-.5s-.2-.7-.5-.7c-.3-.1-.6.1-.7.5zM332 487.4c.1.3.4.5.8.4.3-.1.5-.4.4-.8-.1-.3-.4-.5-.8-.4-.3.1-.4.5-.4.8zM347.5 498.5c.1.3.4.5.8.4.3-.1.5-.4.4-.8-.1-.3-.4-.5-.8-.4-.3.1-.5.5-.4.8zM332.7 464.7c.1.3.4.5.8.4.3-.1.5-.4.4-.8-.1-.3-.4-.5-.8-.4-.4.1-.5.5-.4.8zM334.4 505.5c.3-.1.5-.5.3-.8s-.5-.5-.8-.3c-.3.1-.5.5-.3.8.2.3.5.4.8.3zM342.5 517.3c.3-.1.5-.5.3-.8-.1-.3-.5-.5-.8-.3-.3.1-.5.5-.3.8.2.3.5.4.8.3zM340 497.8c.3-.1.5-.4.5-.7-.1-.3-.4-.5-.7-.5-.3.1-.5.4-.5.7 0 .3.3.6.7.5zM391.3 635.1c0 .3.3.6.6.6s.6-.3.6-.6-.3-.6-.6-.6c-.4-.1-.6.2-.6.6zM402.6 632.4c0 .3.3.6.6.6s.6-.3.6-.6-.3-.6-.6-.6-.6.3-.6.6zM375.9 667.9c0 .3.3.6.6.6s.6-.3.6-.6-.3-.6-.6-.6c-.4 0-.6.3-.6.6zM376.2 660.4c0 .3.3.6.6.6s.6-.3.6-.6-.3-.6-.6-.6-.6.3-.6.6zM394.8 665.8c-.1.3.2.7.5.7.3.1.6-.2.7-.5s-.2-.7-.5-.7c-.3-.1-.6.1-.7.5zM381.7 646.8c0 .3.3.6.6.6s.6-.3.6-.6-.3-.6-.6-.6-.6.2-.6.6zM222.4 697.3c.7 0 1.2-.6 1.2-1.2s-.5-1.2-1.2-1.2-1.2.6-1.2 1.2.5 1.2 1.2 1.2z"/><circle class="st0" cx="270.4" cy="668" r="1.2"/><circle class="st0" cx="326.3" cy="634.5" r="1.2"/><circle class="st0" cx="338" cy="706.1" r="1.2"/><path class="st0" d="M370.5 740.4c.7 0 1.2-.6 1.2-1.2s-.5-1.2-1.2-1.2-1.2.6-1.2 1.2.5 1.2 1.2 1.2z"/><circle class="st0" cx="380.2" cy="466.4" r="1.2"/><path class="st0" d="M257 689.7c.7 0 1.2-.6 1.2-1.2s-.5-1.2-1.2-1.2-1.2.6-1.2 1.2.5 1.2 1.2 1.2zM414.5 445.1c.7 0 1.2-.6 1.2-1.2 0-.7-.5-1.2-1.2-1.2s-1.2.6-1.2 1.2.5 1.2 1.2 1.2zM404.5 480c-.3-.1-.7.1-.7.5-.1.3.1.7.5.7.3.1.7-.1.7-.5 0-.3-.2-.6-.5-.7zM407.5 471.3c-.3-.1-.7.1-.7.5-.1.3.1.7.5.7s.7-.1.7-.5c0-.3-.2-.6-.5-.7zM411.7 481.9c-.3-.1-.7.1-.7.5-.1.3.1.7.5.7.3.1.7-.1.7-.5 0-.3-.2-.7-.5-.7zM408.1 454.4c.7 0 1.2-.6 1.2-1.2 0-.7-.5-1.2-1.2-1.2s-1.2.6-1.2 1.2.5 1.2 1.2 1.2z"/><circle class="st0" cx="255.3" cy="666.9" r="2.3"/><circle class="st0" cx="328.7" cy="695.9" r="2.3"/><circle class="st0" cx="380.6" cy="721.3" r="2.3"/><path class="st0" d="M378.9 755.3c0 .3.3.6.6.6s.6-.3.6-.6-.3-.6-.6-.6-.6.3-.6.6zM402.1 740c0 .3.3.6.6.6s.6-.3.6-.6-.3-.6-.6-.6-.6.2-.6.6zM411.4 733.7c0 .3.3.6.6.6s.6-.3.6-.6-.3-.6-.6-.6-.6.2-.6.6zM395.8 725c0 .3.3.6.6.6s.6-.3.6-.6-.3-.6-.6-.6-.6.2-.6.6zM407.1 729.5c0 .3.3.6.6.6s.6-.3.6-.6-.3-.6-.6-.6c-.3-.1-.6.2-.6.6zM390.8 748.5c.7 0 1.2-.6 1.2-1.2s-.5-1.2-1.2-1.2-1.2.6-1.2 1.2.6 1.2 1.2 1.2z"/><circle class="st0" cx="247.5" cy="496.6" r="2.3"/><circle class="st0" cx="227.7" cy="666.3" r="1.2"/><circle class="st0" cx="241.7" cy="516.7" r="1.2"/><circle class="st0" cx="222.4" cy="519.2" r="1.2"/><path class="st0" d="M310.6 450.9c.7 0 1.2-.6 1.2-1.2s-.5-1.2-1.2-1.2-1.2.6-1.2 1.2.6 1.2 1.2 1.2z"/><circle class="st0" cx="391.3" cy="650.8" r="1.2"/><circle class="st0" cx="321.4" cy="516.7" r="1.2"/><path class="st0" d="M205.9 505.2c.7 0 1.2-.6 1.2-1.2s-.5-1.2-1.2-1.2-1.2.6-1.2 1.2.6 1.2 1.2 1.2zM309.4 738.4c.7 0 1.2-.6 1.2-1.2s-.5-1.2-1.2-1.2-1.2.6-1.2 1.2.5 1.2 1.2 1.2zM303 747.7c.7 0 1.2-.6 1.2-1.2 0-.7-.5-1.2-1.2-1.2s-1.2.6-1.2 1.2.6 1.2 1.2 1.2zM346.8 657.9c.3-.1.5-.4.5-.7-.1-.3-.4-.5-.7-.5-.3.1-.5.4-.5.7.1.4.4.6.7.5zM359.8 480.1c.1.3.4.5.8.4.3-.1.5-.4.4-.8-.1-.3-.4-.5-.8-.4-.3.1-.5.4-.4.8zM368.3 482.2c-.2.3-.1.7.2.9.3.2.7.1.8-.2.2-.3.1-.7-.2-.9-.2-.1-.6-.1-.8.2zM362.2 498.2c.3-.1.5-.5.3-.8-.1-.3-.5-.5-.8-.3-.3.1-.5.5-.3.8.1.2.4.4.8.3zM367.7 490.4c.3-.1.5-.4.5-.7-.1-.3-.4-.5-.7-.5-.3.1-.5.4-.5.7 0 .4.4.6.7.5zM284.1 656.7c.3-.1.5-.4.5-.7-.1-.3-.4-.5-.7-.5-.3.1-.5.4-.5.7 0 .3.3.6.7.5zM338.8 640.3c.3-.1.5-.4.5-.7-.1-.3-.4-.5-.7-.5-.3.1-.5.4-.5.7 0 .3.4.5.7.5zM351.4 684.6c.3-.1.5-.4.5-.7-.1-.3-.4-.5-.7-.5-.3.1-.5.4-.5.7 0 .4.4.6.7.5z"/><path class="st0" d="M284.1 656.7c.3-.1.5-.4.5-.7-.1-.3-.4-.5-.7-.5-.3.1-.5.4-.5.7 0 .3.3.6.7.5zM347.2 685.6c.3-.1.5-.4.5-.7-.1-.3-.4-.5-.7-.5-.3.1-.5.4-.5.7.1.4.4.6.7.5zM351.3 694.8c.7 0 1.2-.6 1.2-1.2s-.5-1.2-1.2-1.2-1.2.6-1.2 1.2.5 1.2 1.2 1.2zM272.6 620.7c0 .3.3.6.6.6s.6-.3.6-.6-.3-.6-.6-.6c-.3-.1-.6.2-.6.6z"/><path class="st0" d="M272.6 620.7c0 .3.3.6.6.6s.6-.3.6-.6-.3-.6-.6-.6c-.3-.1-.6.2-.6.6zM268.2 617.7c.3-.1.5-.4.5-.7-.1-.3-.4-.5-.7-.5-.3.1-.5.4-.5.7 0 .3.4.5.7.5zM343.6 530.8c0 .3.3.6.6.6s.6-.3.6-.6-.3-.6-.6-.6c-.3-.1-.6.2-.6.6zM357.1 687.2c0 .3.3.6.6.6s.6-.3.6-.6-.3-.6-.6-.6c-.4 0-.6.2-.6.6zM354.4 507.4c.3-.1.5-.4.5-.7-.1-.3-.4-.5-.7-.5-.3.1-.5.4-.5.7 0 .3.4.5.7.5zM356.2 512.7c.3-.1.5-.4.5-.7-.1-.3-.4-.5-.7-.5-.3.1-.5.4-.5.7.1.4.4.6.7.5zM352.1 513.7c.3-.1.5-.4.5-.7-.1-.3-.4-.5-.7-.5-.3.1-.5.4-.5.7 0 .4.3.6.7.5zM361.9 515.3c0 .3.3.6.6.6s.6-.3.6-.6-.3-.6-.6-.6-.6.3-.6.6z"/><path class="st0" d="M268.2 617.7c.3-.1.5-.4.5-.7-.1-.3-.4-.5-.7-.5-.3.1-.5.4-.5.7 0 .3.4.5.7.5zM280.9 621.4c0 .3.3.6.6.6s.6-.3.6-.6-.3-.6-.6-.6-.6.2-.6.6zM338.2 526.3c.3-.1.5-.4.5-.7-.1-.3-.4-.5-.7-.5-.3.1-.5.4-.5.7 0 .4.4.6.7.5z"/><path class="st0" d="M280.9 621.4c0 .3.3.6.6.6s.6-.3.6-.6-.3-.6-.6-.6-.6.2-.6.6zM347.5 740.6c.3-.1.5-.4.5-.7-.1-.3-.4-.5-.7-.5-.3.1-.5.4-.5.7 0 .4.3.6.7.5zM326.1 485.6c0 .3.3.6.6.6s.6-.3.6-.6-.3-.6-.6-.6-.6.3-.6.6zM317.2 484.4c0 .3.3.6.6.6s.6-.3.6-.6-.3-.6-.6-.6-.6.3-.6.6zM326.5 478.1c0 .3.3.6.6.6s.6-.3.6-.6-.3-.6-.6-.6-.6.3-.6.6zM311.3 468.8c.7 0 1.2-.6 1.2-1.2 0-.7-.5-1.2-1.2-1.2s-1.2.6-1.2 1.2c0 .7.6 1.2 1.2 1.2zM349.4 487.2c0 .3.3.6.6.6s.6-.3.6-.6-.3-.6-.6-.6-.6.3-.6.6zM316.4 498c.3-.1.5-.4.5-.7-.1-.3-.4-.5-.7-.5-.3.1-.5.4-.5.7 0 .4.3.6.7.5zM320.7 502.1c.3-.1.5-.4.5-.7-.1-.3-.4-.5-.7-.5-.3.1-.5.4-.5.7.1.4.4.6.7.5zM329.5 652.6c0 .3.3.6.6.6s.6-.3.6-.6-.3-.6-.6-.6-.6.3-.6.6zM331.1 647.3c0 .3.3.6.6.6s.6-.3.6-.6-.3-.6-.6-.6-.6.3-.6.6zM348.9 629.9c.3-.1.5-.4.5-.7-.1-.3-.4-.5-.7-.5-.3.1-.5.4-.5.7.1.4.4.6.7.5zM358 629.9c.3-.1.5-.4.5-.7-.1-.3-.4-.5-.7-.5s-.5.4-.5.7c0 .4.3.6.7.5z"/></g><g id="starsy3_4_"><circle class="st0" cx="296.2" cy="437.5" r="1.2"/><path class="st0" d="M309.4 293.1c.3 0 .6-.3.6-.6s-.3-.6-.6-.6-.6.3-.6.6.2.6.6.6z"/><circle class="st0" cx="324.2" cy="280.5" r=".6"/><circle class="st0" cx="302.6" cy="288.3" r=".6"/><circle class="st0" cx="302.6" cy="275.9" r=".6"/><path class="st0" d="M286.6 289.6c.3.1.6-.2.7-.5.1-.3-.2-.7-.5-.7-.3-.1-.6.2-.7.5-.1.3.1.6.5.7zM275.9 279.6c.3 0 .6-.3.6-.6s-.3-.6-.6-.6-.6.3-.6.6c0 .4.3.6.6.6z"/><circle class="st0" cx="302" cy="297.4" r=".6"/><circle class="st0" cx="290.7" cy="273.4" r=".6"/><path class="st0" d="M306.6 317.9c.1.3.4.5.8.4.3-.1.5-.4.4-.8-.1-.3-.4-.5-.8-.4-.4.1-.5.4-.4.8zM322 329c.1.3.4.5.8.4.3-.1.5-.4.4-.8-.1-.3-.4-.5-.8-.4-.3.1-.5.5-.4.8zM308.6 310.1c.1.3.4.5.8.4.3-.1.5-.4.4-.8-.1-.3-.4-.5-.8-.4-.4.1-.5.5-.4.8zM320.2 306.6c.1.3.4.5.8.4.3-.1.5-.4.4-.8-.1-.3-.4-.5-.8-.4-.3.2-.5.5-.4.8zM335.2 225.5c0 .3.3.6.6.6s.6-.3.6-.6-.3-.6-.6-.6-.6.3-.6.6zM312.1 211.1c0 .3.3.6.6.6s.6-.3.6-.6-.3-.6-.6-.6-.6.3-.6.6zM321.4 204.8c0 .3.3.6.6.6s.6-.3.6-.6-.3-.6-.6-.6-.6.3-.6.6zM302 196c-.1.3.2.7.5.7.3.1.6-.2.7-.5.1-.3-.2-.7-.5-.7-.3-.1-.6.2-.7.5zM312.1 185.4c0 .3.3.6.6.6s.6-.3.6-.6-.3-.6-.6-.6-.6.3-.6.6zM305.8 203.2c0 .3.3.6.6.6s.6-.3.6-.6-.3-.6-.6-.6-.6.3-.6.6zM317.1 200.6c0 .3.3.6.6.6s.6-.3.6-.6-.3-.6-.6-.6-.6.3-.6.6zM326.9 191.2c0 .3.3.6.6.6s.6-.3.6-.6-.3-.6-.6-.6-.6.3-.6.6zM290.4 236.1c0 .3.3.6.6.6s.6-.3.6-.6-.3-.6-.6-.6-.6.3-.6.6zM281.4 234.9c0 .3.3.6.6.6s.6-.3.6-.6-.3-.6-.6-.6-.6.3-.6.6zM290.8 228.6c0 .3.3.6.6.6s.6-.3.6-.6-.3-.6-.6-.6c-.4 0-.6.3-.6.6zM309.4 233.9c-.1.3.2.7.5.7.3.1.6-.2.7-.5.1-.3-.2-.7-.5-.7s-.7.2-.7.5zM281.4 209.2c0 .3.3.6.6.6s.6-.3.6-.6-.3-.6-.6-.6-.6.3-.6.6zM285.9 190c0 .3.3.6.6.6s.6-.3.6-.6-.3-.6-.6-.6c-.4 0-.6.2-.6.6zM296.2 215c0 .3.3.6.6.6s.6-.3.6-.6-.3-.6-.6-.6-.6.2-.6.6zM379.2 398.6c0 .3.3.6.6.6s.6-.3.6-.6-.3-.6-.6-.6-.5.3-.6.6zM370.3 397.4c0 .3.3.6.6.6s.6-.3.6-.6-.3-.6-.6-.6-.6.2-.6.6zM379.6 391.1c0 .3.3.6.6.6s.6-.3.6-.6-.3-.6-.6-.6-.6.2-.6.6zM240.9 130.4c0 .3.3.6.6.6s.6-.3.6-.6-.3-.6-.6-.6-.6.3-.6.6zM230.8 115.3c-.1.3.2.7.5.7.3.1.6-.2.7-.5.1-.3-.2-.7-.5-.7-.3-.1-.6.1-.7.5zM234.6 122.5c0 .3.3.6.6.6s.6-.3.6-.6-.3-.6-.6-.6-.6.3-.6.6zM245.9 119.9c0 .3.3.6.6.6s.6-.3.6-.6-.3-.6-.6-.6-.6.3-.6.6zM388 251.9c0 .3.3.6.6.6s.6-.3.6-.6-.3-.6-.6-.6-.6.3-.6.6zM379.1 250.7c0 .3.3.6.6.6s.6-.3.6-.6-.3-.6-.6-.6-.6.3-.6.6zM388.4 244.4c0 .3.3.6.6.6s.6-.3.6-.6-.3-.6-.6-.6-.6.3-.6.6zM407 249.7c-.1.3.2.7.5.7.3.1.6-.2.7-.5.1-.3-.2-.7-.5-.7s-.6.2-.7.5zM393.9 230.8c0 .3.3.6.6.6s.6-.3.6-.6-.3-.6-.6-.6-.6.2-.6.6zM255.4 381.6c-.2.3-.1.7.2.9s.7.1.8-.2c.2-.3.1-.7-.2-.9-.2-.1-.6-.1-.8.2z"/><circle class="st0" cx="300" cy="380.7" r=".6"/><path class="st0" d="M257.4 364.1c-.2.3-.1.7.1.9.3.2.7.1.8-.2.2-.3.1-.7-.2-.9-.2-.2-.5-.1-.7.2zM272.6 385.5c-.2.3-.1.7.2.9.3.2.7.1.8-.2.2-.3.1-.7-.2-.9-.2-.2-.6-.1-.8.2zM272 361.5c-.2.2-.2.6 0 .9.2.2.6.2.9 0 .2-.2.2-.6 0-.9-.3-.2-.6-.2-.9 0zM246.8 366.8c.3 0 .6-.3.6-.6s-.3-.6-.6-.6-.6.3-.6.6.3.6.6.6zM266 368.1c-.2.3-.1.7.2.9s.7.1.8-.2c.2-.3.1-.7-.2-.9-.2-.2-.6-.1-.8.2zM295.3 384.2c-.2.3-.1.7.2.9.3.2.7.1.8-.2s.1-.7-.2-.9c-.2-.1-.6 0-.8.2zM267.7 437.8c-.2.3-.1.7.2.9.3.2.7.1.8-.2.2-.3.1-.7-.2-.9s-.6-.1-.8.2zM267.1 413.9c-.2.2-.2.6 0 .9.2.2.6.2.9 0 .2-.2.2-.6 0-.9-.3-.3-.6-.3-.9 0zM418 118.2c.3 0 .6-.3.6-.6s-.3-.6-.6-.6-.6.3-.6.6c-.1.4.2.6.6.6zM394.8 111.5c-.2.2-.2.6 0 .9.2.2.6.2.9 0 .2-.2.2-.6 0-.9-.2-.2-.6-.2-.9 0zM405.4 117.3c-.2.3-.1.7.2.9.3.2.7.1.8-.2.2-.3.1-.7-.2-.9-.2-.2-.6-.1-.8.2zM339.7 381c-.2.3-.1.7.1.9.3.2.7.1.8-.2.2-.3.1-.7-.2-.9-.1-.2-.5-.1-.7.2zM363.2 436.3c.3 0 .6-.3.6-.6s-.3-.6-.6-.6-.6.3-.6.6.3.6.6.6zM354 438.4c-.2.3-.1.7.2.9.3.2.7.1.8-.2.2-.3.1-.7-.2-.9s-.6-.1-.8.2zM369.3 429.2c-.3-.1-.7.1-.7.5-.1.3.1.7.5.7.3.1.7-.1.7-.5.1-.3-.1-.6-.5-.7zM374.2 425.8c-.3-.1-.7.1-.7.5-.1.3.1.7.5.7.3.1.7-.1.7-.5.1-.3-.1-.7-.5-.7zM283.6 372c-.3-.1-.7.1-.7.5-.1.3.1.7.5.7.3.1.7-.1.7-.5 0-.3-.2-.7-.5-.7zM287.8 382.5c-.3-.1-.7.1-.7.5-.1.3.1.7.5.7.3.1.7-.1.7-.5 0-.2-.2-.6-.5-.7zM292.7 379.1c-.3-.1-.7.1-.7.5s.1.7.5.7c.3.1.7-.1.7-.5 0-.3-.2-.6-.5-.7zM269.8 117.1c.5-.3.7-.9.4-1.4-.3-.5-.9-.7-1.4-.4-.5.3-.7.9-.4 1.4.3.6.9.7 1.4.4zM280.3 107.9c-.5.2-.9.8-.7 1.3.2.6.7.9 1.3.7.5-.2.9-.8.7-1.3-.2-.6-.8-.9-1.3-.7zM290.7 107.9c-.5.2-.9.8-.7 1.3.2.6.7.9 1.3.7.5-.2.9-.8.7-1.3-.2-.6-.8-.9-1.3-.7zM288.5 122.1c-.5.2-.9.8-.7 1.3.2.6.7.9 1.3.7.5-.2.9-.8.7-1.3-.2-.5-.8-.8-1.3-.7zM275.5 127.3c-.5.2-.9.8-.7 1.3.2.6.7.9 1.3.7.5-.2.9-.8.7-1.3-.2-.5-.7-.8-1.3-.7z"/><circle class="st0" cx="288.6" cy="354.3" r=".6"/><path class="st0" d="M265.5 348.2c-.2.2-.2.6 0 .9.2.2.6.2.9 0 .2-.2.2-.6 0-.9-.3-.2-.7-.2-.9 0zM266 330.9c-.2.3-.1.7.2.9.3.2.7.1.8-.2.2-.3.1-.7-.2-.9-.2-.2-.6-.1-.8.2zM254.4 331.5c-.2.3-.1.7.1.9.3.2.7.1.8-.2.2-.3.1-.7-.2-.9-.1-.2-.5-.1-.7.2zM286.7 333.3c-.3-.1-.7.1-.7.5-.1.3.1.7.5.7.3.1.7-.1.7-.5.1-.3-.2-.6-.5-.7zM303.4 354.3c-.3-.1-.7.1-.7.5-.1.3.1.7.5.7.3.1.7-.1.7-.5 0-.3-.2-.7-.5-.7zM216.5 322.6c-.3-.1-.7.1-.7.5-.1.3.1.7.5.7.3.1.7-.1.7-.5 0-.2-.2-.6-.5-.7zM236.3 304.9c-.3-.1-.7.1-.7.5-.1.3.1.7.5.7.3.1.7-.1.7-.5 0-.2-.2-.6-.5-.7zM315.8 336.7c-.3-.1-.7 0-.8.3-.1.3 0 .7.3.8s.7 0 .8-.3 0-.7-.3-.8zM308.1 339c-.3-.1-.7.1-.7.5-.1.3.1.7.5.7.3.1.7-.1.7-.5 0-.3-.2-.6-.5-.7zM295.3 339.6c-.3-.1-.7.1-.7.5-.1.3.1.7.5.7.3.1.7-.1.7-.5 0-.3-.2-.6-.5-.7zM279.5 317c-.3-.1-.7.1-.7.5-.1.3.1.7.5.7.3.1.7-.1.7-.5.1-.3-.1-.6-.5-.7zM286.7 318.9c-.3-.1-.7.1-.7.5-.1.3.1.7.5.7.3.1.7-.1.7-.5.1-.3-.2-.6-.5-.7zM277.8 336.4c-.3-.1-.7 0-.8.3-.1.3 0 .7.3.8s.7 0 .8-.3c.2-.3.1-.7-.3-.8zM298.7 327.1c-.3-.1-.7.1-.7.5-.1.3.1.7.5.7.3.1.7-.1.7-.5.1-.3-.1-.6-.5-.7zM268.8 280.5c.1.3.4.5.8.4.3-.1.5-.4.4-.8-.1-.3-.4-.5-.8-.4-.3.1-.5.4-.4.8z"/><circle class="st0" cx="250.9" cy="316.9" r=".6"/><path class="st0" d="M249 295.9c-.3-.1-.7.1-.7.5s.1.7.5.7c.3.1.7-.1.7-.5 0-.3-.2-.6-.5-.7zM265.7 316.9c-.3-.1-.7.1-.7.5-.1.3.1.7.5.7.3.1.7-.1.7-.5 0-.3-.2-.7-.5-.7zM270.4 301.6c-.3-.1-.7.1-.7.5-.1.3.1.7.5.7.3.1.7-.1.7-.5 0-.3-.2-.6-.5-.7zM273.9 296.2c-.3-.1-.7.1-.7.5-.1.3.1.7.5.7.3.1.7-.1.7-.5 0-.3-.2-.6-.5-.7zM249 281.5c-.3-.1-.7.1-.7.5-.1.3.1.7.5.7.3.1.7-.1.7-.5 0-.3-.2-.6-.5-.7zM261 289.7c-.3-.1-.7.1-.7.5-.1.3.1.7.5.7.3.1.7-.1.7-.5.1-.3-.1-.6-.5-.7zM230.1 420.3c-.3.2-.3.6-.1.9.2.3.6.3.8.2.3-.2.3-.6.1-.9-.1-.4-.5-.4-.8-.2zM238 419.7c-.3.2-.3.6-.1.9.2.3.6.3.8.2.3-.2.3-.6.1-.9-.1-.3-.5-.4-.8-.2zM358 254.4c-.3.2-.4.5-.3.8.1.3.5.4.8.3.3-.2.4-.5.3-.8-.1-.3-.5-.5-.8-.3zM205.1 426.8c-.3.2-.3.6-.1.9.2.3.6.3.8.2.3-.2.3-.6.1-.9-.1-.3-.5-.4-.8-.2zM233.4 411.9c-.3.2-.3.6-.1.9.2.3.6.3.8.2.3-.2.3-.6.1-.9-.2-.3-.5-.4-.8-.2zM383.7 235.4c-.3.2-.3.6-.1.9.2.3.6.3.8.2.3-.2.3-.6.1-.9-.1-.3-.5-.4-.8-.2zM257.9 420.6c-.3.2-.3.6-.1.9.2.3.6.3.8.2.3-.2.3-.6.1-.9-.1-.3-.5-.4-.8-.2zM325.7 242.8c-.3-.2-.6-.2-.9.1-.2.3-.2.7.1.9.3.2.6.2.9-.1.2-.2.2-.6-.1-.9zM328.4 250.4c-.3-.2-.6-.2-.9.1-.2.3-.2.7.1.9.3.2.6.2.9-.1.2-.3.2-.7-.1-.9zM320.8 260c-.3-.2-.6-.2-.9.1-.2.3-.2.7.1.9.3.2.6.2.9-.1.2-.3.2-.6-.1-.9zM402.1 134.2c.3.1.6-.2.7-.5.1-.3-.2-.7-.5-.7-.3-.1-.6.2-.7.5 0 .4.2.7.5.7zM437.5 358c.1.3.4.5.8.4.3-.1.5-.4.4-.8-.1-.3-.4-.5-.8-.4-.3.2-.5.5-.4.8zM421.8 385.1c0 .3.3.6.6.6s.6-.3.6-.6-.3-.6-.6-.6-.5.3-.6.6zM424.6 372.3c0 .3.3.6.6.6s.6-.3.6-.6-.3-.6-.6-.6-.6.2-.6.6zM424.2 166.8c0 .3.3.6.6.6s.6-.3.6-.6-.3-.6-.6-.6-.6.3-.6.6zM448.1 332.4c0 .3.3.6.6.6s.6-.3.6-.6-.3-.6-.6-.6-.6.3-.6.6zM448.9 246.3c0 .3.3.6.6.6s.6-.3.6-.6-.3-.6-.6-.6-.6.3-.6.6zM424.4 365c.3-.1.5-.5.3-.8-.1-.3-.5-.5-.8-.3-.3.1-.5.5-.3.8.2.3.5.5.8.3zM432.5 376.8c.3-.1.5-.5.3-.8-.1-.3-.5-.5-.8-.3-.3.1-.5.5-.3.8.2.3.5.5.8.3zM430 357.3c.3-.1.5-.4.5-.7-.1-.3-.4-.5-.7-.5-.3.1-.5.4-.5.7 0 .4.3.6.7.5zM300.8 184.8c0 .3.3.6.6.6s.6-.3.6-.6-.3-.6-.6-.6-.6.3-.6.6zM397.3 191.6c0 .3.3.6.6.6s.6-.3.6-.6-.3-.6-.6-.6-.6.2-.6.6zM406.6 185.3c0 .3.3.6.6.6s.6-.3.6-.6-.3-.6-.6-.6-.6.2-.6.6zM387.2 176.4c-.1.3.2.7.5.7.3.1.6-.2.7-.5.1-.3-.2-.7-.5-.7s-.6.2-.7.5zM397.3 165.9c0 .3.3.6.6.6s.6-.3.6-.6-.3-.6-.6-.6-.6.2-.6.6zM391 183.7c0 .3.3.6.6.6s.6-.3.6-.6-.3-.6-.6-.6c-.3-.1-.6.2-.6.6zM402.3 181.1c0 .3.3.6.6.6s.6-.3.6-.6-.3-.6-.6-.6c-.3-.1-.6.2-.6.6zM386 165.2c0 .3.3.6.6.6s.6-.3.6-.6-.3-.6-.6-.6-.6.3-.6.6zM302 154.7c-.1.3.2.7.5.7.3.1.6-.2.7-.5.1-.3-.2-.7-.5-.7s-.6.2-.7.5zM312.7 167.2c0 .3.3.6.6.6s.6-.3.6-.6-.3-.6-.6-.6-.6.2-.6.6zM290.8 173c0 .3.3.6.6.6s.6-.3.6-.6-.3-.6-.6-.6c-.4 0-.6.2-.6.6zM281.4 153.6c0 .3.3.6.6.6s.6-.3.6-.6-.3-.6-.6-.6-.6.2-.6.6zM285.9 134.3c0 .3.3.6.6.6s.6-.3.6-.6-.3-.6-.6-.6c-.4 0-.6.3-.6.6zM313.3 158.7c0 .3.3.6.6.6s.6-.3.6-.6-.3-.6-.6-.6-.6.3-.6.6zM437.5 325.3c0 .3.3.6.6.6s.6-.3.6-.6-.3-.6-.6-.6-.5.3-.6.6zM433.3 311.2c0 .3.3.6.6.6s.6-.3.6-.6-.3-.6-.6-.6c-.3-.1-.6.2-.6.6zM396.9 296.2c-.1.3.2.7.5.7.3.1.6-.2.7-.5s-.2-.7-.5-.7c-.3-.1-.6.1-.7.5zM358.4 161.9c.1.3.4.5.8.4.3-.1.5-.4.4-.8-.1-.3-.4-.5-.8-.4-.3.1-.5.5-.4.8zM373.9 173c.1.3.4.5.8.4.3-.1.5-.4.4-.8-.1-.3-.4-.5-.8-.4-.3.1-.5.5-.4.8zM380.5 201c.1.3.4.5.8.4.3-.1.5-.4.4-.8-.1-.3-.4-.5-.8-.4-.3.2-.5.5-.4.8zM434.8 217.2c.1.3.4.5.8.4.3-.1.5-.4.4-.8-.1-.3-.4-.5-.8-.4-.3.2-.5.5-.4.8zM445 217.8c.1.3.4.5.8.4.3-.1.5-.4.4-.8-.1-.3-.4-.5-.8-.4-.3.2-.5.5-.4.8zM433.8 204.8c.1.3.4.5.8.4.3-.1.5-.4.4-.8-.1-.3-.4-.5-.8-.4-.3.2-.5.5-.4.8zM360.8 180c.3-.1.5-.5.3-.8-.1-.3-.5-.5-.8-.3-.3.1-.5.5-.3.8.2.3.5.4.8.3zM368.9 191.8c.3-.1.5-.5.3-.8-.1-.3-.5-.5-.8-.3-.3.1-.5.5-.3.8.2.3.5.4.8.3zM366.4 172.3c.3-.1.5-.4.5-.7-.1-.3-.4-.5-.7-.5-.3.1-.5.4-.5.7 0 .3.3.5.7.5zM386.7 138c-.1.3.2.7.5.7.3.1.6-.2.7-.5.1-.3-.2-.7-.5-.7-.3-.1-.6.1-.7.5zM424 291.8c0 .3.3.6.6.6s.6-.3.6-.6-.3-.6-.6-.6-.6.2-.6.6zM429 306.9c0 .3.3.6.6.6s.6-.3.6-.6-.3-.6-.6-.6-.6.3-.6.6zM438.8 297.5c0 .3.3.6.6.6s.6-.3.6-.6-.3-.6-.6-.6-.6.3-.6.6zM442.6 284.6c0 .3.3.6.6.6s.6-.3.6-.6-.3-.6-.6-.6-.6.3-.6.6zM412.7 291.1c0 .3.3.6.6.6s.6-.3.6-.6-.3-.6-.6-.6-.6.3-.6.6zM433.3 255.5c0 .3.3.6.6.6s.6-.3.6-.6-.3-.6-.6-.6-.6.3-.6.6zM413.9 261c-.1.3.2.7.5.7.3.1.6-.2.7-.5.1-.3-.2-.7-.5-.7s-.6.2-.7.5zM424.6 273.5c0 .3.3.6.6.6s.6-.3.6-.6-.3-.6-.6-.6-.6.2-.6.6zM429 251.3c0 .3.3.6.6.6s.6-.3.6-.6-.3-.6-.6-.6-.6.3-.6.6zM402.6 279.3c0 .3.3.6.6.6s.6-.3.6-.6-.3-.6-.6-.6-.6.2-.6.6zM425.2 265c0 .3.3.6.6.6s.6-.3.6-.6-.3-.6-.6-.6-.6.3-.6.6zM332.5 355.7c.7 0 1.2-.6 1.2-1.2 0-.7-.5-1.2-1.2-1.2s-1.2.6-1.2 1.2.5 1.2 1.2 1.2zM414.4 226.8c.7 0 1.2-.6 1.2-1.2 0-.7-.5-1.2-1.2-1.2s-1.2.6-1.2 1.2.5 1.2 1.2 1.2zM396.9 414.9c.7 0 1.2-.6 1.2-1.2 0-.7-.5-1.2-1.2-1.2s-1.2.6-1.2 1.2c0 .7.5 1.2 1.2 1.2z"/><circle class="st0" cx="406.6" cy="140.9" r="1.2"/><path class="st0" d="M440.9 119.6c.7 0 1.2-.6 1.2-1.2s-.5-1.2-1.2-1.2-1.2.6-1.2 1.2.5 1.2 1.2 1.2zM430.9 154.5c-.3-.1-.7.1-.7.5-.1.3.1.7.5.7.3.1.7-.1.7-.5 0-.3-.2-.6-.5-.7zM433.9 145.8c-.3-.1-.7.1-.7.5-.1.3.1.7.5.7.3.1.7-.1.7-.5 0-.3-.2-.6-.5-.7zM438.1 156.4c-.3-.1-.7.1-.7.5-.1.3.1.7.5.7.3.1.7-.1.7-.5 0-.3-.2-.7-.5-.7zM434.5 128.9c.7 0 1.2-.6 1.2-1.2 0-.7-.5-1.2-1.2-1.2s-1.2.6-1.2 1.2.5 1.2 1.2 1.2z"/><circle class="st0" cx="250" cy="349.3" r="2.3"/><circle class="st0" cx="407" cy="395.8" r="2.3"/><circle class="st0" cx="407" cy="207.2" r="2.3"/><path class="st0" d="M405.3 429.8c0 .3.3.6.6.6s.6-.3.6-.6-.3-.6-.6-.6-.6.2-.6.6zM428.5 414.5c0 .3.3.6.6.6s.6-.3.6-.6-.3-.6-.6-.6-.6.2-.6.6zM437.8 408.2c0 .3.3.6.6.6s.6-.3.6-.6-.3-.6-.6-.6-.6.2-.6.6zM422.2 399.5c0 .3.3.6.6.6s.6-.3.6-.6-.3-.6-.6-.6-.6.2-.6.6zM433.5 404c0 .3.3.6.6.6s.6-.3.6-.6-.3-.6-.6-.6-.6.2-.6.6zM417.2 423c.7 0 1.2-.6 1.2-1.2s-.5-1.2-1.2-1.2-1.2.6-1.2 1.2.6 1.2 1.2 1.2z"/><circle class="st0" cx="372" cy="280.5" r="1.2"/><circle class="st0" cx="337.8" cy="324.7" r="1.2"/><circle class="st0" cx="347.8" cy="191.2" r="1.2"/><path class="st0" d="M386.2 154.6c.1.3.4.5.8.4.3-.1.5-.4.4-.8-.1-.3-.4-.5-.8-.4-.3.1-.5.4-.4.8zM388.2 146.8c.1.3.4.5.8.4.3-.1.5-.4.4-.8-.1-.3-.4-.5-.8-.4-.3.1-.5.5-.4.8zM394.7 156.7c-.2.3-.1.7.2.9.3.2.7.1.8-.2s.1-.7-.2-.9c-.2-.1-.6-.1-.8.2zM388.6 172.6c.3-.1.5-.5.3-.8-.1-.3-.5-.5-.8-.3-.3.1-.5.5-.3.8.1.3.4.5.8.3zM394.1 164.9c.3-.1.5-.4.5-.7-.1-.3-.4-.5-.7-.5-.3.1-.5.4-.5.7 0 .4.4.6.7.5zM390.8 166.9c.3-.1.5-.4.5-.7-.1-.3-.4-.5-.7-.5-.3.1-.5.4-.5.7 0 .4.3.6.7.5zM377.9 244c.3-.1.5-.4.5-.7-.1-.3-.4-.5-.7-.5-.3.1-.5.4-.5.7 0 .3.3.5.7.5zM383.6 248.9c.3-.1.5-.4.5-.7-.1-.3-.4-.5-.7-.5-.3.1-.5.4-.5.7.1.4.4.6.7.5z"/><circle class="st0" cx="387.9" cy="222.2" r="1.2"/><path class="st0" d="M384.5 207.1c0 .3.3.6.6.6s.6-.3.6-.6-.3-.6-.6-.6-.6.3-.6.6zM384.1 197.4c0 .3.3.6.6.6s.6-.3.6-.6-.3-.6-.6-.6-.6.3-.6.6zM370 205.3c0 .3.3.6.6.6s.6-.3.6-.6-.3-.6-.6-.6c-.3-.1-.6.2-.6.6zM382.5 174.2c.3-.1.5-.5.3-.8-.1-.3-.5-.5-.8-.3-.3.1-.5.5-.3.8.2.3.5.4.8.3zM380.8 181.9c.3-.1.5-.4.5-.7-.1-.3-.4-.5-.7-.5-.3.1-.5.4-.5.7 0 .3.4.5.7.5zM382.6 187.2c.3-.1.5-.4.5-.7-.1-.3-.4-.5-.7-.5-.3.1-.5.4-.5.7.1.4.4.6.7.5zM378.5 188.2c.3-.1.5-.4.5-.7-.1-.3-.4-.5-.7-.5-.3.1-.5.4-.5.7 0 .4.3.6.7.5zM388.3 189.8c0 .3.3.6.6.6s.6-.3.6-.6-.3-.6-.6-.6-.6.3-.6.6zM364.6 200.8c.3-.1.5-.4.5-.7-.1-.3-.4-.5-.7-.5-.3.1-.5.4-.5.7 0 .4.3.6.7.5zM372.6 402c0 .3.3.6.6.6s.6-.3.6-.6-.3-.6-.6-.6-.6.2-.6.6zM389 205.5c0 .3.3.6.6.6s.6-.3.6-.6-.3-.6-.6-.6-.6.2-.6.6zM373.8 415.1c.3-.1.5-.4.5-.7-.1-.3-.4-.5-.7-.5-.3.1-.5.4-.5.7.1.4.4.6.7.5zM352.5 160.1c0 .3.3.6.6.6s.6-.3.6-.6-.3-.6-.6-.6-.6.3-.6.6zM343.6 158.9c0 .3.3.6.6.6s.6-.3.6-.6-.3-.6-.6-.6-.6.2-.6.6zM352.9 152.6c0 .3.3.6.6.6s.6-.3.6-.6-.3-.6-.6-.6-.6.3-.6.6zM375.8 161.7c0 .3.3.6.6.6s.6-.3.6-.6-.3-.6-.6-.6-.6.2-.6.6zM342.8 172.5c.3-.1.5-.4.5-.7-.1-.3-.4-.5-.7-.5-.3.1-.5.4-.5.7 0 .4.3.6.7.5zM347.1 176.6c.3-.1.5-.4.5-.7-.1-.3-.4-.5-.7-.5-.3.1-.5.4-.5.7.1.4.4.6.7.5zM390.4 283.3c0 .3.3.6.6.6s.6-.3.6-.6-.3-.6-.6-.6c-.4 0-.6.3-.6.6zM380.8 286.7c0 .3.3.6.6.6s.6-.3.6-.6-.3-.6-.6-.6-.6.3-.6.6zM387.2 290.3c0 .4.3.7.6.7s.6-.3.6-.6c0-.4-.3-.7-.6-.7-.3-.1-.6.2-.6.6zM381.1 222.4c.1.3.4.5.8.4.3-.1.5-.4.4-.8-.1-.3-.4-.5-.8-.4-.3.1-.5.4-.4.8zM377.2 228.6c.3-.1.5-.4.5-.7-.1-.3-.4-.5-.7-.5-.3.1-.5.4-.5.7 0 .4.3.6.7.5z"/></g><g id="starsy2_4_"><circle class="st0" cx="310.6" cy="1008.7" r="1.2"/><path class="st0" d="M332.9 953.6c.7 0 1.2-.6 1.2-1.2s-.5-1.2-1.2-1.2-1.2.6-1.2 1.2.5 1.2 1.2 1.2z"/><circle class="st0" cx="367" cy="998.1" r=".6"/><circle class="st0" cx="345.4" cy="1006" r=".6"/><circle class="st0" cx="345.4" cy="993.6" r=".6"/><path class="st0" d="M364.8 1046.6c.1.3.4.5.8.4s.5-.4.4-.8c-.1-.3-.4-.5-.8-.4-.3.2-.5.5-.4.8zM351.3 1027.8c.1.3.4.5.8.4.3-.1.5-.4.4-.8-.1-.3-.4-.5-.8-.4-.3.1-.5.4-.4.8zM363 1024.3c.1.3.4.5.8.4s.5-.4.4-.8c-.1-.3-.4-.5-.8-.4-.3.1-.5.5-.4.8zM413.3 964.6c.1.3.4.5.8.4.3-.1.5-.4.4-.8-.1-.3-.4-.5-.8-.4-.3.1-.5.4-.4.8z"/><circle class="st0" cx="364.2" cy="1068.5" r=".6"/><circle class="st0" cx="402.4" cy="1063.9" r=".6"/><circle class="st0" cx="415.8" cy="1037.1" r=".6"/><circle class="st0" cx="390.4" cy="1061.5" r=".6"/><circle class="st0" cx="274.1" cy="804.3" r=".6"/><path class="st0" d="M356 880.6c0 .3.3.6.6.6s.6-.3.6-.6-.3-.6-.6-.6-.6.3-.6.6zM332.9 866.2c0 .3.3.6.6.6s.6-.3.6-.6-.3-.6-.6-.6-.6.3-.6.6zM332.9 840.5c0 .3.3.6.6.6s.6-.3.6-.6-.3-.6-.6-.6-.6.3-.6.6zM326.6 858.3c0 .3.3.6.6.6s.6-.3.6-.6-.3-.6-.6-.6-.6.3-.6.6zM347.7 846.3c0 .3.3.6.6.6s.6-.3.6-.6-.3-.6-.6-.6-.6.3-.6.6zM311.2 891.2c0 .3.3.6.6.6s.6-.3.6-.6-.3-.6-.6-.6-.6.3-.6.6zM302.3 890c0 .3.3.6.6.6s.6-.3.6-.6-.3-.6-.6-.6c-.4 0-.6.2-.6.6zM311.6 883.7c0 .3.3.6.6.6s.6-.3.6-.6-.3-.6-.6-.6-.6.3-.6.6zM330.2 889c-.1.3.2.7.5.7.3.1.6-.2.7-.5.1-.3-.2-.7-.5-.7s-.6.2-.7.5zM302.3 864.3c0 .3.3.6.6.6s.6-.3.6-.6-.3-.6-.6-.6c-.4 0-.6.3-.6.6zM317.1 870.1c0 .3.3.6.6.6s.6-.3.6-.6-.3-.6-.6-.6-.6.2-.6.6zM400.1 1053.7c0 .3.3.6.6.6s.6-.3.6-.6-.3-.6-.6-.6-.6.3-.6.6zM391.1 1052.5c0 .3.3.6.6.6s.6-.3.6-.6-.3-.6-.6-.6-.6.2-.6.6zM400.5 1046.2c0 .3.3.6.6.6s.6-.3.6-.6-.3-.6-.6-.6c-.4 0-.6.2-.6.6zM391.1 1026.8c0 .3.3.6.6.6s.6-.3.6-.6-.3-.6-.6-.6-.6.2-.6.6zM405.9 1032.5c0 .3.3.6.6.6s.6-.3.6-.6-.3-.6-.6-.6-.6.3-.6.6zM321.5 785.5c0 .3.3.6.6.6s.6-.3.6-.6-.3-.6-.6-.6-.6.3-.6.6zM311.4 770.4c-.1.3.2.7.5.7.3.1.6-.2.7-.5s-.2-.7-.5-.7-.6.1-.7.5zM315.2 777.6c0 .3.3.6.6.6s.6-.3.6-.6-.3-.6-.6-.6-.6.3-.6.6zM318.8 808.3c-.1.3.2.7.5.7.3.1.6-.2.7-.5s-.2-.7-.5-.7c-.4 0-.7.2-.7.5zM305.6 789.3c0 .3.3.6.6.6s.6-.3.6-.6-.3-.6-.6-.6-.6.3-.6.6zM427.9 904.8c-.1.3.2.7.5.7.3.1.6-.2.7-.5.1-.3-.2-.7-.5-.7-.4 0-.7.2-.7.5z"/><circle class="st0" cx="311.1" cy="1075.1" r=".6"/><path class="st0" d="M298.5 1074.7c-.2.3-.1.7.2.9s.7.1.8-.2c.2-.3.1-.7-.2-.9s-.6-.1-.8.2zM438.8 773.3c.3 0 .6-.3.6-.6s-.3-.6-.6-.6-.6.3-.6.6c0 .4.2.6.6.6zM415.7 766.6c-.2.2-.2.6 0 .9.2.2.6.2.9 0 .2-.2.2-.6 0-.9-.3-.2-.7-.2-.9 0zM426.3 772.4c-.2.3-.1.7.2.9.3.2.7.1.8-.2.2-.3.1-.7-.2-.9-.3-.2-.6-.1-.8.2zM321.7 1064.4c-.3-.1-.7.1-.7.5s.1.7.5.7.7-.1.7-.5c0-.3-.2-.6-.5-.7zM325.9 1075c-.3-.1-.7.1-.7.5-.1.3.1.7.5.7.3.1.7-.1.7-.5 0-.3-.2-.6-.5-.7zM338.3 1057.5c-.3-.1-.7 0-.8.3-.1.3 0 .7.3.8s.7 0 .8-.3c.1-.4 0-.7-.3-.8zM330.5 1059.7c-.3-.1-.7.1-.7.5-.1.3.1.7.5.7.3.1.7-.1.7-.5.1-.3-.1-.6-.5-.7zM330.8 1071.6c-.3-.1-.7.1-.7.5-.1.3.1.7.5.7s.7-.1.7-.5c0-.3-.2-.7-.5-.7zM356.8 945.5c-.3-.1-.7.1-.7.5-.1.3.1.7.5.7.3.1.7-.1.7-.5 0-.3-.2-.7-.5-.7zM361 956c-.3-.1-.7.1-.7.5-.1.3.1.7.5.7.3.1.7-.1.7-.5s-.2-.6-.5-.7zM365.7 940.8c-.3-.1-.7.1-.7.5-.1.3.1.7.5.7.3.1.7-.1.7-.5 0-.3-.2-.6-.5-.7zM365.9 952.6c-.3-.1-.7.1-.7.5s.1.7.5.7c.3.1.7-.1.7-.5 0-.3-.2-.6-.5-.7zM385.6 1036.3c.3 0 .6-.3.6-.6s-.3-.6-.6-.6-.6.3-.6.6.3.6.6.6zM380.9 1039.2c-.2.3-.1.7.2.9.3.2.7.1.8-.2.2-.3.1-.7-.2-.9s-.6-.1-.8.2zM378.3 1034c-.3-.1-.7.1-.7.5-.1.3.1.7.5.7s.7-.1.7-.5c0-.2-.2-.6-.5-.7zM410.2 1002.6c-.3-.1-.7.1-.7.5-.1.3.1.7.5.7.3.1.7-.1.7-.5 0-.3-.2-.6-.5-.7zM413.2 993.9c-.3-.1-.7.1-.7.5-.1.3.1.7.5.7.3.1.7-.1.7-.5 0-.3-.2-.6-.5-.7zM309.2 1039.7c-.3-.1-.7.1-.7.5s.1.7.5.7.7-.1.7-.5c0-.3-.2-.7-.5-.7zM300.3 1057.1c-.3-.1-.7 0-.8.3-.1.3 0 .7.3.8s.7 0 .8-.3c.1-.3 0-.6-.3-.8z"/><circle class="st0" cx="331.8" cy="969.6" r=".6"/><path class="st0" d="M308.7 963.5c-.2.2-.2.6 0 .9.2.2.6.2.9 0 .2-.2.2-.6 0-.9-.3-.3-.7-.3-.9 0zM319.3 969.3c-.2.3-.1.7.2.9s.7.1.8-.2c.2-.3.1-.7-.2-.9-.3-.2-.7-.1-.8.2zM321 953.8c-.3-.1-.7 0-.8.3-.1.3 0 .7.3.8s.7 0 .8-.3c.2-.3 0-.7-.3-.8zM329.7 1034.2c-.3-.1-.7.1-.7.5s.1.7.5.7.7-.1.7-.5c0-.2-.2-.6-.5-.7zM347.3 1042.5c-.3-.1-.7.1-.7.5-.1.3.1.7.5.7s.7-.1.7-.5c0-.3-.2-.6-.5-.7zM321.2 1047.9c-.3-.1-.7.1-.7.5-.1.3.1.7.5.7.3.1.7-.1.7-.5 0-.3-.2-.7-.5-.7zM295.1 925.6c-.3.2-.4.5-.3.8.1.3.5.4.8.3.3-.2.4-.5.3-.8-.1-.3-.5-.4-.8-.3zM371.2 968c-.3-.2-.6-.2-.9.1-.2.3-.2.7.1.9.3.2.6.2.9-.1.2-.3.2-.7-.1-.9zM363.6 977.7c-.3-.2-.6-.2-.9.1-.2.3-.2.7.1.9.3.2.6.2.9-.1.2-.3.2-.7-.1-.9z"/><circle class="st0" cx="364.4" cy="768.2" r=".6"/><circle class="st0" cx="385.3" cy="766.8" r=".6"/><path class="st0" d="M379.1 763.3c.3 0 .6-.3.6-.6s-.3-.6-.6-.6-.6.3-.6.6.3.6.6.6zM357.8 763.3c.3-.1.5-.4.5-.7-.1-.3-.4-.5-.7-.5-.3.1-.5.4-.5.7.1.4.4.6.7.5zM362.9 756.9c.3-.1.5-.5.3-.8-.1-.3-.5-.5-.8-.3-.3.1-.5.5-.3.8.1.3.5.5.8.3zM458.3 1013.1c.1.3.4.5.8.4.3-.1.5-.4.4-.8-.1-.3-.4-.5-.8-.4-.3.2-.5.5-.4.8zM442.7 1040.2c0 .3.3.6.6.6s.6-.3.6-.6-.3-.6-.6-.6-.6.3-.6.6zM445.4 1027.4c0 .3.3.6.6.6s.6-.3.6-.6-.3-.6-.6-.6-.6.2-.6.6zM445 821.9c0 .3.3.6.6.6s.6-.3.6-.6-.3-.6-.6-.6-.6.3-.6.6zM468.9 987.5c0 .3.3.6.6.6s.6-.3.6-.6-.3-.6-.6-.6-.6.3-.6.6zM469.7 901.4c0 .3.3.6.6.6s.6-.3.6-.6-.3-.6-.6-.6-.6.3-.6.6zM445.3 1020.1c.3-.1.5-.5.3-.8-.1-.3-.5-.5-.8-.3-.3.1-.5.5-.3.8.1.3.5.4.8.3zM434.7 1020c.3-.1.5-.5.3-.8-.1-.3-.5-.5-.8-.3-.3.1-.5.5-.3.8.2.2.5.4.8.3zM453.4 1031.9c.3-.1.5-.5.3-.8-.1-.3-.5-.5-.8-.3-.3.1-.5.5-.3.8.1.3.5.5.8.3zM450.8 1012.4c.3-.1.5-.4.5-.7s-.4-.5-.7-.5c-.3.1-.5.4-.5.7 0 .4.4.6.7.5zM438.9 1032.2c.3-.1.5-.5.3-.8-.1-.3-.5-.5-.8-.3-.3.1-.5.5-.3.8.1.3.5.4.8.3zM418.1 846.7c0 .3.3.6.6.6s.6-.3.6-.6-.3-.6-.6-.6-.6.2-.6.6zM427.4 840.4c0 .3.3.6.6.6s.6-.3.6-.6-.3-.6-.6-.6-.5.2-.6.6zM423.2 836.2c0 .3.3.6.6.6s.6-.3.6-.6-.3-.6-.6-.6c-.4-.1-.6.2-.6.6zM342.2 804.3c0 .3.3.6.6.6s.6-.3.6-.6-.3-.6-.6-.6-.5.3-.6.6zM332.9 784.9c0 .3.3.6.6.6s.6-.3.6-.6-.3-.6-.6-.6-.6.3-.6.6zM333.5 822.3c0 .3.3.6.6.6s.6-.3.6-.6-.3-.6-.6-.6-.6.2-.6.6zM338 800.1c0 .3.3.6.6.6s.6-.3.6-.6-.3-.6-.6-.6-.6.3-.6.6zM334.1 813.8c0 .3.3.6.6.6s.6-.3.6-.6-.3-.6-.6-.6-.6.3-.6.6zM458.4 980.4c0 .3.3.6.6.6s.6-.3.6-.6-.3-.6-.6-.6-.6.3-.6.6zM454.1 966.3c0 .3.3.6.6.6s.6-.3.6-.6-.3-.6-.6-.6c-.3-.1-.6.2-.6.6zM455.7 872.3c.1.3.4.5.8.4.3-.1.5-.4.4-.8-.1-.3-.4-.5-.8-.4-.3.1-.5.5-.4.8zM465.8 872.9c.1.3.4.5.8.4.3-.1.5-.4.4-.8s-.4-.5-.8-.4c-.3.2-.5.5-.4.8zM454.6 859.9c.1.3.4.5.8.4.3-.1.5-.4.4-.8-.1-.3-.4-.5-.8-.4-.3.2-.4.5-.4.8zM379.9 794.3c.1.3.4.5.8.4.3-.1.5-.4.4-.8-.1-.3-.4-.5-.8-.4-.3.1-.5.5-.4.8zM389.8 846.9c.3-.1.5-.5.3-.8-.1-.3-.5-.5-.8-.3-.3.1-.5.5-.3.8.1.3.5.4.8.3zM407.6 793.1c-.1.3.2.7.5.7.3.1.6-.2.7-.5.1-.3-.2-.7-.5-.7-.3-.1-.7.1-.7.5zM444.8 946.9c0 .3.3.6.6.6s.6-.3.6-.6-.3-.6-.6-.6c-.3-.1-.6.2-.6.6zM438.5 964.6c0 .3.3.6.6.6s.6-.3.6-.6-.3-.6-.6-.6-.6.3-.6.6zM449.8 962c0 .3.3.6.6.6s.6-.3.6-.6-.3-.6-.6-.6-.6.3-.6.6zM459.6 952.6c0 .3.3.6.6.6s.6-.3.6-.6-.3-.6-.6-.6-.6.3-.6.6zM423.1 997.5c0 .3.3.6.6.6s.6-.3.6-.6-.3-.6-.6-.6-.6.3-.6.6zM423.5 990c0 .3.3.6.6.6s.6-.3.6-.6-.3-.6-.6-.6-.6.3-.6.6zM442.1 995.3c-.1.3.2.7.5.7.3.1.6-.2.7-.5.1-.3-.2-.7-.5-.7s-.7.2-.7.5zM463.4 939.7c0 .3.3.6.6.6s.6-.3.6-.6-.3-.6-.6-.6-.6.3-.6.6zM428.9 976.4c0 .3.3.6.6.6s.6-.3.6-.6-.3-.6-.6-.6-.5.2-.6.6zM433.5 946.2c0 .3.3.6.6.6s.6-.3.6-.6-.3-.6-.6-.6-.6.3-.6.6zM454.1 910.6c0 .3.3.6.6.6s.6-.3.6-.6-.3-.6-.6-.6-.6.3-.6.6zM445.4 928.6c0 .3.3.6.6.6s.6-.3.6-.6-.3-.6-.6-.6-.6.2-.6.6zM423.5 934.4c0 .3.3.6.6.6s.6-.3.6-.6-.3-.6-.6-.6-.6.2-.6.6zM377.8 991.7c.7 0 1.2-.6 1.2-1.2s-.5-1.2-1.2-1.2-1.2.6-1.2 1.2.5 1.2 1.2 1.2z"/><circle class="st0" cx="317.7" cy="997.6" r="1.2"/><circle class="st0" cx="385.3" cy="1021.3" r="1.2"/><path class="st0" d="M435.2 881.9c.7 0 1.2-.6 1.2-1.2 0-.7-.5-1.2-1.2-1.2s-1.2.6-1.2 1.2.5 1.2 1.2 1.2zM417.8 1070c.7 0 1.2-.6 1.2-1.2 0-.7-.5-1.2-1.2-1.2s-1.2.6-1.2 1.2c-.1.7.5 1.2 1.2 1.2z"/><circle class="st0" cx="427.4" cy="796" r="1.2"/><path class="st0" d="M412.4 984.1c.7 0 1.2-.6 1.2-1.2s-.5-1.2-1.2-1.2-1.2.6-1.2 1.2.5 1.2 1.2 1.2zM461.7 774.7c.7 0 1.2-.6 1.2-1.2s-.5-1.2-1.2-1.2-1.2.6-1.2 1.2.6 1.2 1.2 1.2zM451.7 809.6c-.3-.1-.7.1-.7.5-.1.3.1.7.5.7.3.1.7-.1.7-.5 0-.3-.2-.6-.5-.7zM454.7 800.9c-.3-.1-.7.1-.7.5s.1.7.5.7c.3.1.7-.1.7-.5 0-.3-.2-.6-.5-.7zM458.9 811.5c-.3-.1-.7.1-.7.5-.1.3.1.7.5.7.3.1.7-.1.7-.5 0-.3-.2-.7-.5-.7zM455.3 784c.7 0 1.2-.6 1.2-1.2s-.5-1.2-1.2-1.2-1.2.6-1.2 1.2.6 1.2 1.2 1.2z"/><circle class="st0" cx="376" cy="1011.2" r="2.3"/><circle class="st0" cx="427.8" cy="1050.9" r="2.3"/><circle class="st0" cx="427.8" cy="862.3" r="2.3"/><path class="st0" d="M449.3 1069.6c0 .3.3.6.6.6s.6-.3.6-.6-.3-.6-.6-.6c-.3-.1-.6.2-.6.6zM458.7 1063.3c0 .3.3.6.6.6s.6-.3.6-.6-.3-.6-.6-.6-.6.2-.6.6zM443 1054.6c0 .3.3.6.6.6s.6-.3.6-.6-.3-.6-.6-.6-.6.2-.6.6zM454.4 1059.1c0 .3.3.6.6.6s.6-.3.6-.6-.3-.6-.6-.6c-.3-.1-.6.2-.6.6z"/><circle class="st0" cx="383.1" cy="960.7" r="1.2"/><path class="st0" d="M357.9 780.5c.7 0 1.2-.6 1.2-1.2 0-.7-.5-1.2-1.2-1.2s-1.2.6-1.2 1.2c0 .7.5 1.2 1.2 1.2z"/><circle class="st0" cx="438.5" cy="980.4" r="1.2"/><circle class="st0" cx="368.6" cy="846.3" r="1.2"/><path class="st0" d="M312.9 834.8c.7 0 1.2-.6 1.2-1.2s-.5-1.2-1.2-1.2-1.2.6-1.2 1.2.6 1.2 1.2 1.2zM356.6 1068c.7 0 1.2-.6 1.2-1.2 0-.7-.5-1.2-1.2-1.2s-1.2.6-1.2 1.2.6 1.2 1.2 1.2zM350.3 1077.3c.7 0 1.2-.6 1.2-1.2 0-.7-.5-1.2-1.2-1.2s-1.2.6-1.2 1.2.5 1.2 1.2 1.2zM331.3 986.3c.3-.1.5-.4.5-.7-.1-.3-.4-.5-.7-.5-.3.1-.5.4-.5.7 0 .3.4.5.7.5z"/><path class="st0" d="M331.3 986.3c.3-.1.5-.4.5-.7-.1-.3-.4-.5-.7-.5-.3.1-.5.4-.5.7 0 .3.4.5.7.5zM398.5 1024.4c.7 0 1.2-.6 1.2-1.2 0-.7-.5-1.2-1.2-1.2s-1.2.6-1.2 1.2.5 1.2 1.2 1.2zM319.8 950.3c0 .3.3.6.6.6s.6-.3.6-.6-.3-.6-.6-.6c-.3-.1-.6.2-.6.6zM405.3 862.2c0 .3.3.6.6.6s.6-.3.6-.6-.3-.6-.6-.6-.6.3-.6.6z"/><path class="st0" d="M319.8 950.3c0 .3.3.6.6.6s.6-.3.6-.6-.3-.6-.6-.6c-.3-.1-.6.2-.6.6zM315.4 947.2c.3-.1.5-.4.5-.7-.1-.3-.4-.5-.7-.5-.3.1-.5.4-.5.7.1.4.4.6.7.5zM404.3 1016.8c0 .3.3.6.6.6s.6-.3.6-.6-.3-.6-.6-.6-.6.2-.6.6zM403.5 842.3c.3-.1.5-.4.5-.7-.1-.3-.4-.5-.7-.5-.3.1-.5.4-.5.7 0 .4.3.6.7.5zM399.3 843.3c.3-.1.5-.4.5-.7-.1-.3-.4-.5-.7-.5-.3.1-.5.4-.5.7 0 .4.4.6.7.5z"/><path class="st0" d="M315.4 947.2c.3-.1.5-.4.5-.7-.1-.3-.4-.5-.7-.5-.3.1-.5.4-.5.7.1.4.4.6.7.5zM328.1 951c0 .3.3.6.6.6s.6-.3.6-.6-.3-.6-.6-.6c-.3-.1-.5.2-.6.6zM407.6 1027.2c0 .3.3.6.6.6s.6-.3.6-.6-.3-.6-.6-.6-.6.3-.6.6zM385.4 855.9c.3-.1.5-.4.5-.7-.1-.3-.4-.5-.7-.5-.3.1-.5.4-.5.7.1.4.4.6.7.5z"/><path class="st0" d="M328.1 951c0 .3.3.6.6.6s.6-.3.6-.6-.3-.6-.6-.6c-.3-.1-.5.2-.6.6zM408.3 1035.4c0 .3.3.6.6.6s.6-.3.6-.6-.3-.6-.6-.6-.6.3-.6.6zM391.6 1032.9c.3-.1.5-.4.5-.7-.1-.3-.4-.5-.7-.5-.3.1-.5.4-.5.7 0 .3.4.5.7.5zM393.4 1057.1c0 .3.3.6.6.6s.6-.3.6-.6-.3-.6-.6-.6-.6.2-.6.6zM409.9 860.6c0 .3.3.6.6.6s.6-.3.6-.6-.3-.6-.6-.6c-.4 0-.6.2-.6.6zM390.3 1066.1c.3-.1.5-.4.5-.7-.1-.3-.4-.5-.7-.5-.3.1-.5.4-.5.7 0 .4.4.6.7.5zM394.7 1070.2c.3-.1.5-.4.5-.7-.1-.3-.4-.5-.7-.5-.3.1-.5.4-.5.7 0 .4.4.6.7.5zM364.4 814c0 .3.3.6.6.6s.6-.3.6-.6-.3-.6-.6-.6-.6.2-.6.6zM373.7 807.7c0 .3.3.6.6.6s.6-.3.6-.6-.3-.6-.6-.6-.6.3-.6.6zM358.6 798.4c.7 0 1.2-.6 1.2-1.2s-.5-1.2-1.2-1.2-1.2.6-1.2 1.2.5 1.2 1.2 1.2zM396.6 816.8c0 .3.3.6.6.6s.6-.3.6-.6-.3-.6-.6-.6-.5.2-.6.6zM363.6 827.6c.3-.1.5-.4.5-.7-.1-.3-.4-.5-.7-.5-.3.1-.5.4-.5.7 0 .4.4.6.7.5zM368 831.7c.3-.1.5-.4.5-.7-.1-.3-.4-.5-.7-.5-.3.1-.5.4-.5.7 0 .4.3.6.7.5zM396.2 959.5c.3-.1.5-.4.5-.7-.1-.3-.4-.5-.7-.5-.3.1-.5.4-.5.7 0 .4.3.6.7.5zM405.2 959.5c.3-.1.5-.4.5-.7-.1-.3-.4-.5-.7-.5-.3.1-.5.4-.5.7 0 .4.4.6.7.5zM396.9 778.3c.7 0 1.2-.6 1.2-1.2s-.5-1.2-1.2-1.2-1.2.6-1.2 1.2.5 1.2 1.2 1.2z"/></g><g id="starsy_4_"><circle class="st0" cx="328.8" cy="23.7" r="1.2"/><circle class="st0" cx="335.2" cy="107.6" r="1.2"/><path class="st0" d="M261.8 4.1c.1.3.4.5.8.4.3-.1.5-.4.4-.8-.1-.3-.4-.5-.8-.4-.3.1-.5.4-.4.8zM277.3 15.2c.1.3.4.5.8.4.3-.1.5-.4.4-.8-.1-.3-.4-.5-.8-.4-.3.1-.5.4-.4.8z"/><circle class="st0" cx="255.3" cy="66.9" r=".6"/><path class="st0" d="M227.9 71.6c-.2.3-.1.7.2.9.3.2.7.1.8-.2.2-.3.1-.7-.2-.9-.2-.1-.6 0-.8.2zM227.3 47.7c-.2.2-.2.6 0 .9.2.2.6.2.9 0 .2-.2.2-.6 0-.9-.3-.3-.7-.3-.9 0zM221.3 54.2c-.2.3-.1.7.2.9.3.2.7.1.8-.2.2-.3.1-.7-.2-.9-.3-.1-.6 0-.8.2zM250.6 70.4c-.2.3-.1.7.2.9.3.2.7.1.8-.2.2-.3.1-.7-.2-.9-.2-.1-.6-.1-.8.2z"/><circle class="st0" cx="329.2" cy="90" r=".6"/><path class="st0" d="M306.7 107.9c-.2.3-.1.7.2.9.3.2.7.1.8-.2.2-.3.1-.7-.2-.9-.2-.2-.6-.1-.8.2zM306.1 83.9c-.2.2-.2.6 0 .9.2.2.6.2.9 0 .2-.2.2-.6 0-.9-.3-.2-.6-.2-.9 0zM316.7 89.7c-.2.3-.1.7.2.9.3.2.7.1.8-.2.2-.3.1-.7-.2-.9-.2-.2-.6-.1-.8.2zM295 67.2c-.2.3-.1.7.1.9.3.2.7.1.8-.2.2-.3.1-.7-.2-.9-.1-.2-.5-.1-.7.2zM339.8 79.4c-.3-.1-.7.1-.7.5-.1.3.1.7.5.7s.7-.1.7-.5c.1-.3-.1-.6-.5-.7zM344 90c-.3-.1-.7.1-.7.5-.1.3.1.7.5.7.3.1.7-.1.7-.5.1-.3-.1-.7-.5-.7zM356.4 72.4c-.3-.1-.7 0-.8.3-.1.3 0 .7.3.8.3.1.7 0 .8-.3.2-.3 0-.7-.3-.8zM348.7 74.7c-.3-.1-.7.1-.7.5-.1.3.1.7.5.7.3.1.7-.1.7-.5 0-.3-.2-.6-.5-.7zM348.9 86.5c-.3-.1-.7.1-.7.5-.1.3.1.7.5.7.3.1.7-.1.7-.5.1-.3-.1-.6-.5-.7zM402.2 106.4c.3 0 .6-.3.6-.6s-.3-.6-.6-.6-.6.3-.6.6.3.6.6.6zM393 108.5c-.2.3-.1.7.2.9.3.2.7.1.8-.2.2-.3.1-.7-.2-.9-.2-.2-.6-.1-.8.2zM408.3 99.3c-.3-.1-.7.1-.7.5-.1.3.1.7.5.7.3.1.7-.1.7-.5.1-.3-.1-.7-.5-.7zM413.3 95.8c-.3-.1-.7.1-.7.5-.1.3.1.7.5.7.3.1.7-.1.7-.5 0-.3-.2-.6-.5-.7zM238.9 58.1c-.3-.1-.7.1-.7.5-.1.3.1.7.5.7.3.1.7-.1.7-.5 0-.2-.2-.6-.5-.7zM243 68.7c-.3-.1-.7.1-.7.5-.1.3.1.7.5.7.3.1.7-.1.7-.5.1-.3-.1-.6-.5-.7zM248 65.3c-.3-.1-.7.1-.7.5-.1.3.1.7.5.7.3.1.7-.1.7-.5 0-.3-.2-.6-.5-.7zM356 98.2c-.3-.1-.7.1-.7.5-.1.3.1.7.5.7.3.1.7-.1.7-.5.1-.3-.1-.7-.5-.7zM320.2 52.7c-.3-.1-.7.1-.7.5-.1.3.1.7.5.7.3.1.7-.1.7-.5 0-.3-.2-.6-.5-.7zM323.2 44c-.3-.1-.7.1-.7.5-.1.3.1.7.5.7.3.1.7-.1.7-.5 0-.3-.2-.6-.5-.7zM327.3 54.6c-.3-.1-.7.1-.7.5-.1.3.1.7.5.7.3.1.7-.1.7-.5.1-.3-.1-.6-.5-.7zM318.5 72.1c-.3-.1-.7 0-.8.3s0 .7.3.8c.3.1.7 0 .8-.3s0-.7-.3-.8zM347.9 49.2c-.3-.1-.7.1-.7.5-.1.3.1.7.5.7s.7-.1.7-.5c0-.3-.2-.6-.5-.7zM365.5 57.5c-.3-.1-.7.1-.7.5-.1.3.1.7.5.7.3.1.7-.1.7-.5 0-.3-.2-.6-.5-.7zM339.4 62.8c-.3-.1-.7.1-.7.5-.1.3.1.7.5.7.3.1.7-.1.7-.5 0-.3-.2-.6-.5-.7z"/><circle class="st0" cx="243.9" cy="40.5" r=".6"/><path class="st0" d="M367.9 27.8c-.2.3-.1.7.2.9s.7.1.8-.2c.2-.3.1-.7-.2-.9-.3-.1-.6 0-.8.2zM367.3 3.9c-.2.2-.2.6 0 .9.2.2.6.2.9 0 .2-.2.2-.6 0-.9-.3-.2-.7-.2-.9 0zM242 19.5c-.3-.1-.7.1-.7.5-.1.3.1.7.5.7.3.1.7-.1.7-.5 0-.3-.2-.6-.5-.7zM258.7 40.5c-.3-.1-.7.1-.7.5-.1.3.1.7.5.7.3.1.7-.1.7-.5 0-.3-.2-.7-.5-.7zM171.7 8.8c-.3-.1-.7.1-.7.5-.1.3.1.7.5.7.3.1.7-.1.7-.5s-.1-.6-.5-.7zM271.1 22.9c-.3-.1-.7 0-.8.3-.1.3 0 .7.3.8.3.1.7 0 .8-.3.1-.3 0-.7-.3-.8zM263.4 25.2c-.3-.1-.7.1-.7.5-.1.3.1.7.5.7.3.1.7-.1.7-.5 0-.3-.2-.6-.5-.7zM250.5 25.8c-.3-.1-.7.1-.7.5-.1.3.1.7.5.7.3.1.7-.1.7-.5.1-.3-.1-.6-.5-.7zM242 5.1c-.3-.1-.7.1-.7.5-.1.3.1.7.5.7s.7-.1.7-.5c0-.3-.2-.6-.5-.7zM254 13.3c-.3-.1-.7.1-.7.5-.1.3.1.7.5.7.3.1.7-.1.7-.5 0-.3-.2-.6-.5-.7zM269.2 90.3c-.3.2-.3.6-.1.9.2.3.6.3.8.2.3-.2.3-.6.1-.9-.2-.3-.6-.4-.8-.2zM277 89.8c-.3.2-.3.6-.1.9.2.3.6.3.8.2.3-.2.3-.6.1-.9-.1-.4-.5-.4-.8-.2zM290.3 86.7c-.3.2-.3.6-.1.9s.6.3.8.2c.3-.2.3-.6.1-.9-.1-.3-.5-.4-.8-.2zM244.1 96.9c-.3.2-.3.6-.1.9.2.3.6.3.8.2.3-.2.3-.6.1-.9-.1-.3-.5-.4-.8-.2zM272.4 82c-.3.2-.3.6-.1.9.2.3.6.3.8.2.3-.2.3-.6.1-.9-.2-.4-.5-.4-.8-.2zM296.9 90.7c-.3.2-.3.6-.1.9.2.3.6.3.8.2.3-.2.3-.6.1-.9-.1-.4-.5-.4-.8-.2zM384.3 22.4c.3-.1.5-.4.5-.7-.1-.3-.4-.5-.7-.5-.3.1-.5.4-.5.7 0 .4.4.6.7.5zM389.3 16.1c.3-.1.5-.5.3-.8-.1-.3-.5-.5-.8-.3-.3.1-.5.5-.3.8.1.2.5.4.8.3zM287.8 41.9c.7 0 1.2-.6 1.2-1.2s-.5-1.2-1.2-1.2-1.2.6-1.2 1.2.5 1.2 1.2 1.2z"/><circle class="st0" cx="335.9" cy="12.5" r="1.2"/><path class="st0" d="M322.4 34.2c.7 0 1.2-.6 1.2-1.2 0-.7-.5-1.2-1.2-1.2s-1.2.6-1.2 1.2c0 .7.5 1.2 1.2 1.2z"/><circle class="st0" cx="320.7" cy="11.4" r="2.3"/><path class="st0" d="M444.3 99.8c0 .3.3.6.6.6s.6-.3.6-.6-.3-.6-.6-.6-.6.3-.6.6z"/><circle class="st0" cx="293.1" cy="10.9" r="1.2"/><path class="st0" d="M374.8 82.9c.7 0 1.2-.6 1.2-1.2s-.5-1.2-1.2-1.2-1.2.6-1.2 1.2.5 1.2 1.2 1.2zM368.4 92.2c.7 0 1.2-.6 1.2-1.2 0-.7-.5-1.2-1.2-1.2s-1.2.6-1.2 1.2c0 .7.6 1.2 1.2 1.2zM349.5 1.2c.3-.1.5-.4.5-.7-.1-.3-.4-.5-.7-.5-.3.1-.5.4-.5.7 0 .4.3.6.7.5z"/><path class="st0" d="M349.5 1.2c.3-.1.5-.4.5-.7-.1-.3-.4-.5-.7-.5-.3.1-.5.4-.5.7 0 .4.3.6.7.5z"/></g><g id="stars_16_"><path class="st1" d="M297.7 399.8l-1.1-.6-.6-1.2-.6 1.2-1.1.6 1.1.6.6 1.1.6-1.1zM157.3 507.9l-1.1-.7-.6-1.1-.6 1.1-1.1.7 1.1.6.6 1.1.6-1.1zM6.7 658.6l-1.1-.7-.6-1.1-.6 1.1-1.1.6 1.1.7.6 1.1.6-1.1zM181.7 232.8l-1.1-.6-.6-1.1-.6 1.1-1.1.6 1.1.6.6 1.1.6-1.1z"/><circle class="st1" cx="340.7" cy="320.1" r=".6"/><circle class="st1" cx="48.1" cy="319.3" r=".6"/><circle class="st1" cx="110.4" cy="276.1" r=".6"/><circle class="st1" cx="371.6" cy="453.8" r=".6"/><circle class="st1" cx="246" cy="308" r=".6"/></g><g id="stars_15_"><path class="st1" d="M371.7 224.2l-1.6-.9-.9-1.7-.9 1.7-1.6.9 1.6.9.9 1.6.9-1.6zM203.5 395.7l-1.6-.9-.9-1.6-.9 1.6-1.6.9 1.6.9.9 1.7.9-1.7zM60 594.6l-1.6-.9-.9-1.6-.8 1.6-1.6.9 1.6.9.8 1.6.9-1.6z"/><circle class="st1" cx="230.1" cy="176.1" r=".8"/><circle class="st1" cx="5.9" cy="106.3" r=".8"/><circle class="st1" cx="97.1" cy="42.9" r=".8"/><circle class="st1" cx="434.7" cy="566.8" r=".8"/><circle class="st1" cx="342.6" cy="22.8" r=".8"/></g><g id="stars_14_"><path class="st1" d="M434.5 936.3l1.9 1 1 1.9 1-1.9 1.9-1-1.9-1.1-1-1.9-1 1.9zM417 708.5l1.9 1.1 1 1.9 1-1.9 1.9-1.1-1.9-1-1-1.9-1 1.9zM440.5 430.9l1.8 1 1.1 1.9 1-1.9 1.9-1-1.9-1.1-1-1.9-1.1 1.9z"/><circle class="st1" cx="329.5" cy="922.9" r="1"/><circle class="st1" cx="99.3" cy="420.3" r="1"/><circle class="st1" cx="1" cy="463.5" r="1"/><circle class="st1" cx="176.3" cy="856.9" r="1"/></g></g><g id="stars_9_"><g id="starsy4_3_"><circle class="st0" cx="443.4" cy="71.5" r="1.2"/><circle class="st0" cx="449.8" cy="155.4" r="1.2"/><path class="st0" d="M465.7 16.4c.7 0 1.2-.6 1.2-1.2s-.5-1.2-1.2-1.2-1.2.6-1.2 1.2.5 1.2 1.2 1.2z"/><circle class="st0" cx="394.1" cy="14.5" r=".6"/><circle class="st0" cx="372.5" cy="22.3" r=".6"/><circle class="st0" cx="372.5" cy="10" r=".6"/><path class="st0" d="M356.4 23.6c.3.1.6-.2.7-.5.1-.3-.2-.7-.5-.7-.3-.1-.6.2-.7.5 0 .3.2.6.5.7zM373.1 15.1c.3 0 .6-.3.6-.6s-.3-.6-.6-.6-.6.3-.6.6.3.6.6.6zM522.2 38c.1.3.4.5.8.4.3-.1.5-.4.4-.8-.1-.3-.4-.5-.8-.4-.3.1-.5.4-.4.8zM537.7 49.1c.1.3.4.5.8.4.3-.1.5-.4.4-.8-.1-.3-.4-.5-.8-.4-.3.1-.5.5-.4.8zM535.9 26.7c.1.3.4.5.8.4.3-.1.5-.4.4-.8-.1-.3-.4-.5-.8-.4-.3.2-.5.5-.4.8zM546.1 27.4c.1.3.4.5.8.4.3-.1.5-.4.4-.8-.1-.3-.4-.5-.8-.4-.3.1-.5.4-.4.8zM522.8 15.3c.1.3.4.5.8.4.3-.1.5-.4.4-.8-.1-.3-.4-.5-.8-.4-.3.1-.5.5-.4.8zM532.8 116.5c0 .3.3.6.6.6s.6-.3.6-.6-.3-.6-.6-.6-.5.3-.6.6zM533.2 109c0 .3.3.6.6.6s.6-.3.6-.6-.3-.6-.6-.6-.6.2-.6.6zM523.9 89.6c0 .3.3.6.6.6s.6-.3.6-.6-.3-.6-.6-.6-.6.2-.6.6zM538.7 95.3c0 .3.3.6.6.6s.6-.3.6-.6-.3-.6-.6-.6-.6.3-.6.6z"/><circle class="st0" cx="443.8" cy="137.9" r=".6"/><path class="st0" d="M421.3 155.7c-.2.3-.1.7.2.9.3.2.7.1.8-.2s.1-.7-.2-.9c-.2-.1-.6-.1-.8.2zM420.7 131.8c-.2.2-.2.6 0 .9.2.2.6.2.9 0 .2-.2.2-.6 0-.9-.3-.3-.6-.3-.9 0zM431.3 137.5c-.2.3-.1.7.2.9.3.2.7.1.8-.2.2-.3.1-.7-.2-.9-.2-.1-.6-.1-.8.2zM409.6 115c-.2.3-.1.7.1.9.3.2.7.1.8-.2.2-.3.1-.7-.2-.9-.1-.1-.5-.1-.7.2zM454.4 127.2c-.3-.1-.7.1-.7.5-.1.3.1.7.5.7.3.1.7-.1.7-.5.1-.3-.1-.6-.5-.7zM458.6 137.8c-.3-.1-.7.1-.7.5-.1.3.1.7.5.7.3.1.7-.1.7-.5s-.2-.6-.5-.7zM471 120.3c-.3-.1-.7 0-.8.3-.1.3 0 .7.3.8.3.1.7 0 .8-.3s0-.7-.3-.8zM463.3 122.5c-.3-.1-.7.1-.7.5-.1.3.1.7.5.7.3.1.7-.1.7-.5s-.2-.6-.5-.7zM463.5 134.4c-.3-.1-.7.1-.7.5s.1.7.5.7c.3.1.7-.1.7-.5.1-.3-.1-.7-.5-.7zM516.8 154.2c.3 0 .6-.3.6-.6s-.3-.6-.6-.6-.6.3-.6.6.3.6.6.6zM507.6 156.3c-.2.3-.1.7.2.9.3.2.7.1.8-.2s.1-.7-.2-.9c-.2-.1-.6-.1-.8.2zM522.9 147.1c-.3-.1-.7.1-.7.5s.1.7.5.7c.3.1.7-.1.7-.5.1-.3-.1-.6-.5-.7zM527.8 143.7c-.3-.1-.7.1-.7.5-.1.3.1.7.5.7.3.1.7-.1.7-.5.1-.3-.1-.7-.5-.7zM489.5 8.3c-.3-.1-.7.1-.7.5-.1.3.1.7.5.7s.7-.1.7-.5c.1-.3-.1-.7-.5-.7zM493.7 18.8c-.3-.1-.7.1-.7.5-.1.3.1.7.5.7.3.1.7-.1.7-.5.1-.2-.1-.6-.5-.7zM498.6 15.4c-.3-.1-.7.1-.7.5s.1.7.5.7c.3.1.7-.1.7-.5.1-.3-.1-.6-.5-.7zM470.6 146c-.3-.1-.7.1-.7.5-.1.3.1.7.5.7.3.1.7-.1.7-.5.1-.3-.1-.6-.5-.7zM434.8 100.6c-.3-.1-.7.1-.7.5-.1.3.1.7.5.7.3.1.7-.1.7-.5 0-.3-.2-.7-.5-.7zM437.7 91.9c-.3-.1-.7.1-.7.5-.1.3.1.7.5.7.3.1.7-.1.7-.5.1-.3-.1-.6-.5-.7zM441.9 102.5c-.3-.1-.7.1-.7.5-.1.3.1.7.5.7.3.1.7-.1.7-.5.1-.3-.1-.7-.5-.7zM433 119.9c-.3-.1-.7 0-.8.3-.1.3 0 .7.3.8.3.1.7 0 .8-.3.2-.3.1-.6-.3-.8z"/><circle class="st0" cx="464.5" cy="32.4" r=".6"/><path class="st0" d="M441.4 26.3c-.2.2-.2.6 0 .9.2.2.6.2.9 0 .2-.2.2-.6 0-.9-.2-.2-.6-.3-.9 0zM452 32.1c-.2.3-.1.7.2.9.3.2.7.1.8-.2.2-.3.1-.7-.2-.9-.2-.2-.6-.1-.8.2zM453.8 16.6c-.3-.1-.7 0-.8.3-.1.3 0 .7.3.8.3.1.7 0 .8-.3.1-.3 0-.7-.3-.8zM462.5 97c-.3-.1-.7.1-.7.5-.1.3.1.7.5.7.3.1.7-.1.7-.5 0-.2-.2-.6-.5-.7zM480.1 105.3c-.3-.1-.7.1-.7.5-.1.3.1.7.5.7.3.1.7-.1.7-.5 0-.3-.2-.6-.5-.7zM454 110.7c-.3-.1-.7.1-.7.5-.1.3.1.7.5.7.3.1.7-.1.7-.5 0-.3-.2-.7-.5-.7zM482.5 75.7c-.2.3-.1.7.2.9.3.2.7.1.8-.2.2-.3.1-.7-.2-.9-.3-.2-.6-.1-.8.2zM481.9 51.7c-.2.2-.2.6 0 .9.2.2.6.2.9 0 .2-.2.2-.6 0-.9-.3-.2-.7-.2-.9 0zM530.8 40.1c-.2.3-.1.7.2.9s.7.1.8-.2c.2-.3.1-.7-.2-.9-.3-.1-.6 0-.8.2zM475.4 38.5c-.2.2-.2.6 0 .9.2.2.6.2.9 0 .2-.2.2-.6 0-.9-.3-.3-.7-.3-.9 0zM404.9 134.5c-.3.2-.3.6-.1.9.2.3.6.3.8.2.3-.2.3-.6.1-.9-.1-.3-.5-.4-.8-.2zM524.6 56.1c.3-.1.5-.5.3-.8-.1-.3-.5-.5-.8-.3-.3.1-.5.5-.3.8.2.2.5.4.8.3zM498.9 70.3c.3-.1.5-.4.5-.7-.1-.3-.4-.5-.7-.5-.3.1-.5.4-.5.7 0 .3.3.5.7.5zM503.9 63.9c.3-.1.5-.5.3-.8-.1-.3-.5-.5-.8-.3-.3.1-.5.5-.3.8.1.3.5.4.8.3zM514.1 55.9c.3-.1.5-.5.3-.8-.1-.3-.5-.5-.8-.3-.3.1-.5.5-.3.8.1.3.5.4.8.3zM532.7 67.9c.3-.1.5-.5.3-.8-.1-.3-.5-.5-.8-.3-.3.1-.5.5-.3.8s.5.4.8.3zM530.2 48.4c.3-.1.5-.4.5-.7-.1-.3-.4-.5-.7-.5-.3.1-.5.4-.5.7 0 .3.3.5.7.5zM591.1 75.9c.1.3.4.5.8.4.3-.1.5-.4.4-.8-.1-.3-.4-.5-.8-.4-.3.2-.5.5-.4.8zM575.4 103c0 .3.3.6.6.6s.6-.3.6-.6-.3-.6-.6-.6-.5.3-.6.6zM578.2 90.2c0 .3.3.6.6.6s.6-.3.6-.6-.3-.6-.6-.6-.6.3-.6.6zM601.7 50.3c0 .3.3.6.6.6s.6-.3.6-.6-.3-.6-.6-.6-.6.3-.6.6zM578 82.9c.3-.1.5-.5.3-.8-.1-.3-.5-.5-.8-.3-.3.1-.5.5-.3.8.2.3.5.5.8.3zM567.5 82.8c.3-.1.5-.5.3-.8-.1-.3-.5-.5-.8-.3-.3.1-.5.5-.3.8.1.2.5.4.8.3zM586.1 94.7c.3-.1.5-.5.3-.8-.1-.3-.5-.5-.8-.3-.3.1-.5.5-.3.8.2.3.5.5.8.3zM583.6 75.2c.3-.1.5-.4.5-.7-.1-.3-.4-.5-.7-.5-.3.1-.5.4-.5.7 0 .4.3.6.7.5zM571.7 95c.3-.1.5-.5.3-.8-.1-.3-.5-.5-.8-.3-.3.1-.5.5-.3.8.1.3.5.4.8.3zM591.2 43.2c0 .3.3.6.6.6s.6-.3.6-.6-.3-.6-.6-.6-.6.3-.6.6zM586.9 29.1c0 .3.3.6.6.6s.6-.3.6-.6-.3-.6-.6-.6c-.3-.1-.6.2-.6.6zM550.5 14.1c-.1.3.2.7.5.7s.6-.2.7-.5c.1-.3-.2-.7-.5-.7-.3-.1-.6.1-.7.5zM571.3 27.4c0 .3.3.6.6.6s.6-.3.6-.6-.3-.6-.6-.6c-.4 0-.6.3-.6.6zM582.6 24.8c0 .3.3.6.6.6s.6-.3.6-.6-.3-.6-.6-.6-.6.3-.6.6zM555.9 60.3c0 .3.3.6.6.6s.6-.3.6-.6-.3-.6-.6-.6c-.4 0-.6.3-.6.6zM556.2 52.8c0 .3.3.6.6.6s.6-.3.6-.6-.3-.6-.6-.6-.6.3-.6.6zM574.8 58.1c-.1.3.2.7.5.7.3.1.6-.2.7-.5s-.2-.7-.5-.7-.6.2-.7.5zM561.7 39.2c0 .3.3.6.6.6s.6-.3.6-.6-.3-.6-.6-.6-.6.2-.6.6zM402.4 89.7c.7 0 1.2-.6 1.2-1.2s-.5-1.2-1.2-1.2-1.2.6-1.2 1.2.5 1.2 1.2 1.2z"/><circle class="st0" cx="450.4" cy="60.4" r="1.2"/><circle class="st0" cx="506.3" cy="26.9" r="1.2"/><circle class="st0" cx="518" cy="98.5" r="1.2"/><path class="st0" d="M550.5 132.8c.7 0 1.2-.6 1.2-1.2s-.5-1.2-1.2-1.2-1.2.6-1.2 1.2.5 1.2 1.2 1.2zM437 82.1c.7 0 1.2-.6 1.2-1.2 0-.7-.5-1.2-1.2-1.2s-1.2.6-1.2 1.2.5 1.2 1.2 1.2z"/><circle class="st0" cx="435.3" cy="59.3" r="2.3"/><circle class="st0" cx="508.7" cy="88.3" r="2.3"/><circle class="st0" cx="560.6" cy="113.7" r="2.3"/><path class="st0" d="M558.9 147.7c0 .3.3.6.6.6s.6-.3.6-.6-.3-.6-.6-.6-.6.2-.6.6zM582.1 132.4c0 .3.3.6.6.6s.6-.3.6-.6-.3-.6-.6-.6-.6.2-.6.6zM591.4 126.1c0 .3.3.6.6.6s.6-.3.6-.6-.3-.6-.6-.6-.6.2-.6.6zM575.8 117.4c0 .3.3.6.6.6s.6-.3.6-.6-.3-.6-.6-.6-.6.2-.6.6zM587.1 121.9c0 .3.3.6.6.6s.6-.3.6-.6-.3-.6-.6-.6c-.3-.1-.6.2-.6.6zM570.8 140.9c.7 0 1.2-.6 1.2-1.2 0-.7-.5-1.2-1.2-1.2s-1.2.6-1.2 1.2.6 1.2 1.2 1.2z"/><circle class="st0" cx="407.7" cy="58.7" r="1.2"/><circle class="st0" cx="571.3" cy="43.2" r="1.2"/><path class="st0" d="M489.4 130.8c.7 0 1.2-.6 1.2-1.2 0-.7-.5-1.2-1.2-1.2s-1.2.6-1.2 1.2.5 1.2 1.2 1.2zM483 140.1c.7 0 1.2-.6 1.2-1.2 0-.7-.5-1.2-1.2-1.2s-1.2.6-1.2 1.2.6 1.2 1.2 1.2zM526.8 50.3c.3-.1.5-.4.5-.7-.1-.3-.4-.5-.7-.5-.3.1-.5.4-.5.7.1.4.4.6.7.5zM464.1 49.1c.3-.1.5-.4.5-.7-.1-.3-.4-.5-.7-.5-.3.1-.5.4-.5.7 0 .3.3.5.7.5zM518.8 32.7c.3-.1.5-.4.5-.7-.1-.3-.4-.5-.7-.5-.3.1-.5.4-.5.7 0 .3.4.5.7.5zM531.4 77c.3-.1.5-.4.5-.7-.1-.3-.4-.5-.7-.5-.3.1-.5.4-.5.7 0 .4.4.6.7.5z"/><path class="st0" d="M464.1 49.1c.3-.1.5-.4.5-.7-.1-.3-.4-.5-.7-.5-.3.1-.5.4-.5.7 0 .3.3.5.7.5zM527.2 78c.3-.1.5-.4.5-.7-.1-.3-.4-.5-.7-.5-.3.1-.5.4-.5.7.1.3.4.6.7.5zM531.3 87.2c.7 0 1.2-.6 1.2-1.2s-.5-1.2-1.2-1.2-1.2.6-1.2 1.2.5 1.2 1.2 1.2zM452.6 13.1c0 .3.3.6.6.6s.6-.3.6-.6-.3-.6-.6-.6-.6.2-.6.6z"/><path class="st0" d="M452.6 13.1c0 .3.3.6.6.6s.6-.3.6-.6-.3-.6-.6-.6-.6.2-.6.6zM448.2 10c.3-.1.5-.4.5-.7-.1-.3-.4-.5-.7-.5-.3.1-.5.4-.5.7 0 .4.4.6.7.5zM537.1 79.6c0 .3.3.6.6.6s.6-.3.6-.6-.3-.6-.6-.6-.6.2-.6.6z"/><path class="st0" d="M448.2 10c.3-.1.5-.4.5-.7-.1-.3-.4-.5-.7-.5-.3.1-.5.4-.5.7 0 .4.4.6.7.5zM460.9 13.8c0 .3.3.6.6.6s.6-.3.6-.6-.3-.6-.6-.6c-.3-.1-.6.2-.6.6z"/><path class="st0" d="M460.9 13.8c0 .3.3.6.6.6s.6-.3.6-.6-.3-.6-.6-.6c-.3-.1-.6.2-.6.6zM527.5 133c.3-.1.5-.4.5-.7-.1-.3-.4-.5-.7-.5-.3.1-.5.4-.5.7 0 .4.3.6.7.5zM509.5 45c0 .3.3.6.6.6s.6-.3.6-.6-.3-.6-.6-.6-.6.3-.6.6zM511.1 39.7c0 .3.3.6.6.6s.6-.3.6-.6-.3-.6-.6-.6-.6.3-.6.6zM528.9 22.3c.3-.1.5-.4.5-.7-.1-.3-.4-.5-.7-.5-.3.1-.5.4-.5.7.1.4.4.6.7.5zM538 22.3c.3-.1.5-.4.5-.7-.1-.3-.4-.5-.7-.5-.3.1-.5.4-.5.7 0 .4.3.6.7.5z"/></g><g id="starsy3_3_"><circle class="st0" cx="486.2" cy="1009.9" r="1.2"/><path class="st0" d="M499.4 865.5c.3 0 .6-.3.6-.6s-.3-.6-.6-.6-.6.3-.6.6.2.6.6.6z"/><circle class="st0" cx="514.2" cy="852.9" r=".6"/><circle class="st0" cx="492.6" cy="860.7" r=".6"/><circle class="st0" cx="492.6" cy="848.3" r=".6"/><path class="st0" d="M476.6 862c.3.1.6-.2.7-.5.1-.3-.2-.7-.5-.7-.3-.1-.6.2-.7.5-.1.3.1.6.5.7zM465.9 852c.3 0 .6-.3.6-.6s-.3-.6-.6-.6-.6.3-.6.6c0 .4.3.6.6.6z"/><circle class="st0" cx="492" cy="869.8" r=".6"/><circle class="st0" cx="480.7" cy="845.8" r=".6"/><path class="st0" d="M496.6 890.3c.1.3.4.5.8.4.3-.1.5-.4.4-.8-.1-.3-.4-.5-.8-.4-.4.1-.5.4-.4.8zM512 901.4c.1.3.4.5.8.4.3-.1.5-.4.4-.8-.1-.3-.4-.5-.8-.4-.3.1-.5.4-.4.8zM498.6 882.5c.1.3.4.5.8.4.3-.1.5-.4.4-.8-.1-.3-.4-.5-.8-.4-.4.1-.5.5-.4.8zM510.2 879c.1.3.4.5.8.4.3-.1.5-.4.4-.8-.1-.3-.4-.5-.8-.4-.3.2-.5.5-.4.8zM525.2 797.9c0 .3.3.6.6.6s.6-.3.6-.6-.3-.6-.6-.6-.6.3-.6.6zM502.1 783.5c0 .3.3.6.6.6s.6-.3.6-.6-.3-.6-.6-.6-.6.3-.6.6zM511.4 777.2c0 .3.3.6.6.6s.6-.3.6-.6-.3-.6-.6-.6-.6.3-.6.6zM492 768.4c-.1.3.2.7.5.7.3.1.6-.2.7-.5.1-.3-.2-.7-.5-.7-.3-.1-.6.2-.7.5zM502.1 757.8c0 .3.3.6.6.6s.6-.3.6-.6-.3-.6-.6-.6-.6.3-.6.6zM495.8 775.6c0 .3.3.6.6.6s.6-.3.6-.6-.3-.6-.6-.6-.6.3-.6.6zM507.1 773c0 .3.3.6.6.6s.6-.3.6-.6-.3-.6-.6-.6-.6.3-.6.6zM516.9 763.6c0 .3.3.6.6.6s.6-.3.6-.6-.3-.6-.6-.6-.6.3-.6.6zM480.4 808.5c0 .3.3.6.6.6s.6-.3.6-.6-.3-.6-.6-.6-.6.3-.6.6zM471.4 807.3c0 .3.3.6.6.6s.6-.3.6-.6-.3-.6-.6-.6-.6.2-.6.6zM480.8 801c0 .3.3.6.6.6s.6-.3.6-.6-.3-.6-.6-.6-.6.3-.6.6zM499.4 806.3c-.1.3.2.7.5.7.3.1.6-.2.7-.5.1-.3-.2-.7-.5-.7s-.7.2-.7.5zM471.4 781.6c0 .3.3.6.6.6s.6-.3.6-.6-.3-.6-.6-.6-.6.2-.6.6zM475.9 762.4c0 .3.3.6.6.6s.6-.3.6-.6-.3-.6-.6-.6c-.4 0-.6.2-.6.6zM486.2 787.4c0 .3.3.6.6.6s.6-.3.6-.6-.3-.6-.6-.6c-.3-.1-.6.2-.6.6zM569.2 971c0 .3.3.6.6.6s.6-.3.6-.6-.3-.6-.6-.6-.5.3-.6.6zM560.3 969.8c0 .3.3.6.6.6s.6-.3.6-.6-.3-.6-.6-.6-.6.2-.6.6zM569.6 963.5c0 .3.3.6.6.6s.6-.3.6-.6-.3-.6-.6-.6-.6.2-.6.6zM430.9 702.8c0 .3.3.6.6.6s.6-.3.6-.6-.3-.6-.6-.6-.6.3-.6.6zM420.8 687.7c-.1.3.2.7.5.7.3.1.6-.2.7-.5.1-.3-.2-.7-.5-.7-.3-.1-.6.1-.7.5zM424.6 694.9c0 .3.3.6.6.6s.6-.3.6-.6-.3-.6-.6-.6-.6.3-.6.6zM435.9 692.3c0 .3.3.6.6.6s.6-.3.6-.6-.3-.6-.6-.6-.6.3-.6.6zM578 824.3c0 .3.3.6.6.6s.6-.3.6-.6-.3-.6-.6-.6-.6.3-.6.6zM569.1 823.1c0 .3.3.6.6.6s.6-.3.6-.6-.3-.6-.6-.6-.6.2-.6.6zM578.4 816.8c0 .3.3.6.6.6s.6-.3.6-.6-.3-.6-.6-.6-.6.3-.6.6zM597 822.1c-.1.3.2.7.5.7.3.1.6-.2.7-.5.1-.3-.2-.7-.5-.7s-.6.2-.7.5zM583.9 803.2c0 .3.3.6.6.6s.6-.3.6-.6-.3-.6-.6-.6-.6.2-.6.6zM445.4 954c-.2.3-.1.7.2.9s.7.1.8-.2c.2-.3.1-.7-.2-.9s-.6-.1-.8.2z"/><circle class="st0" cx="490" cy="953.1" r=".6"/><path class="st0" d="M447.4 936.5c-.2.3-.1.7.1.9.3.2.7.1.8-.2.2-.3.1-.7-.2-.9-.2-.2-.5-.1-.7.2zM462.6 957.8c-.2.3-.1.7.2.9.3.2.7.1.8-.2.2-.3.1-.7-.2-.9-.2-.1-.6 0-.8.2zM462 933.9c-.2.2-.2.6 0 .9.2.2.6.2.9 0 .2-.2.2-.6 0-.9-.3-.2-.6-.2-.9 0zM436.8 939.2c.3 0 .6-.3.6-.6s-.3-.6-.6-.6-.6.3-.6.6.3.6.6.6zM456 940.5c-.2.3-.1.7.2.9s.7.1.8-.2.1-.7-.2-.9c-.2-.2-.6-.1-.8.2zM485.3 956.6c-.2.3-.1.7.2.9.3.2.7.1.8-.2s.1-.7-.2-.9c-.2-.1-.6 0-.8.2zM457.7 1010.2c-.2.3-.1.7.2.9.3.2.7.1.8-.2.2-.3.1-.7-.2-.9s-.6-.1-.8.2zM457.1 986.3c-.2.2-.2.6 0 .9.2.2.6.2.9 0 .2-.2.2-.6 0-.9-.3-.3-.6-.3-.9 0zM608 690.6c.3 0 .6-.3.6-.6s-.3-.6-.6-.6-.6.3-.6.6c-.1.4.2.6.6.6zM584.8 683.9c-.2.2-.2.6 0 .9.2.2.6.2.9 0 .2-.2.2-.6 0-.9-.2-.2-.6-.3-.9 0zM595.4 689.7c-.2.3-.1.7.2.9.3.2.7.1.8-.2.2-.3.1-.7-.2-.9-.2-.2-.6-.1-.8.2zM529.7 953.4c-.2.3-.1.7.1.9.3.2.7.1.8-.2.2-.3.1-.7-.2-.9-.1-.2-.5-.1-.7.2zM553.2 1008.7c.3 0 .6-.3.6-.6s-.3-.6-.6-.6-.6.3-.6.6.3.6.6.6zM544 1010.8c-.2.3-.1.7.2.9s.7.1.8-.2c.2-.3.1-.7-.2-.9-.2-.1-.6-.1-.8.2zM559.3 1001.6c-.3-.1-.7.1-.7.5-.1.3.1.7.5.7.3.1.7-.1.7-.5.1-.3-.1-.6-.5-.7zM564.2 998.2c-.3-.1-.7.1-.7.5-.1.3.1.7.5.7.3.1.7-.1.7-.5.1-.3-.1-.7-.5-.7zM473.6 944.4c-.3-.1-.7.1-.7.5-.1.3.1.7.5.7.3.1.7-.1.7-.5 0-.3-.2-.7-.5-.7zM477.8 954.9c-.3-.1-.7.1-.7.5-.1.3.1.7.5.7.3.1.7-.1.7-.5 0-.3-.2-.6-.5-.7zM482.7 951.5c-.3-.1-.7.1-.7.5-.1.3.1.7.5.7.3.1.7-.1.7-.5 0-.3-.2-.6-.5-.7zM459.8 689.5c.5-.3.7-.9.4-1.4-.3-.5-.9-.7-1.4-.4-.5.3-.7.9-.4 1.4.3.6.9.7 1.4.4zM470.3 680.3c-.5.2-.9.8-.7 1.3.2.6.7.9 1.3.7.5-.2.9-.8.7-1.3-.2-.6-.8-.9-1.3-.7zM480.7 680.3c-.5.2-.9.8-.7 1.3.2.6.7.9 1.3.7.5-.2.9-.8.7-1.3-.2-.6-.8-.9-1.3-.7zM478.5 694.5c-.5.2-.9.8-.7 1.3.2.6.7.9 1.3.7.5-.2.9-.8.7-1.3-.2-.5-.8-.8-1.3-.7zM465.5 699.7c-.5.2-.9.8-.7 1.3.2.6.7.9 1.3.7.5-.2.9-.8.7-1.3-.2-.5-.7-.8-1.3-.7z"/><circle class="st0" cx="478.6" cy="926.7" r=".6"/><path class="st0" d="M455.5 920.6c-.2.2-.2.6 0 .9.2.2.6.2.9 0 .2-.2.2-.6 0-.9-.3-.2-.7-.2-.9 0zM456 903.3c-.2.3-.1.7.2.9.3.2.7.1.8-.2.2-.3.1-.7-.2-.9-.2-.2-.6-.1-.8.2zM444.4 903.9c-.2.3-.1.7.1.9.3.2.7.1.8-.2.2-.3.1-.7-.2-.9-.1-.2-.5-.1-.7.2zM476.7 905.7c-.3-.1-.7.1-.7.5-.1.3.1.7.5.7.3.1.7-.1.7-.5.1-.3-.2-.6-.5-.7zM493.4 926.7c-.3-.1-.7.1-.7.5-.1.3.1.7.5.7.3.1.7-.1.7-.5 0-.3-.2-.7-.5-.7zM406.5 895c-.3-.1-.7.1-.7.5-.1.3.1.7.5.7.3.1.7-.1.7-.5s-.2-.6-.5-.7zM426.3 877.3c-.3-.1-.7.1-.7.5-.1.3.1.7.5.7s.7-.1.7-.5c0-.3-.2-.6-.5-.7zM505.8 909.1c-.3-.1-.7 0-.8.3-.1.3 0 .7.3.8.3.1.7 0 .8-.3.2-.3 0-.7-.3-.8zM498.1 911.4c-.3-.1-.7.1-.7.5-.1.3.1.7.5.7.3.1.7-.1.7-.5 0-.3-.2-.6-.5-.7zM485.3 912c-.3-.1-.7.1-.7.5-.1.3.1.7.5.7.3.1.7-.1.7-.5 0-.3-.2-.6-.5-.7zM469.5 889.4c-.3-.1-.7.1-.7.5s.1.7.5.7c.3.1.7-.1.7-.5.1-.3-.1-.6-.5-.7zM476.7 891.3c-.3-.1-.7.1-.7.5-.1.3.1.7.5.7.3.1.7-.1.7-.5.1-.3-.2-.6-.5-.7zM467.8 908.8c-.3-.1-.7 0-.8.3-.1.3 0 .7.3.8s.7 0 .8-.3c.2-.3.1-.7-.3-.8zM488.7 899.5c-.3-.1-.7.1-.7.5-.1.3.1.7.5.7s.7-.1.7-.5c.1-.3-.1-.6-.5-.7zM458.8 852.9c.1.3.4.5.8.4.3-.1.5-.4.4-.8-.1-.3-.4-.5-.8-.4-.3.1-.5.4-.4.8z"/><circle class="st0" cx="440.9" cy="889.3" r=".6"/><path class="st0" d="M439 868.3c-.3-.1-.7.1-.7.5-.1.3.1.7.5.7.3.1.7-.1.7-.5 0-.3-.2-.6-.5-.7zM455.7 889.3c-.3-.1-.7.1-.7.5-.1.3.1.7.5.7.3.1.7-.1.7-.5s-.2-.7-.5-.7zM460.4 874c-.3-.1-.7.1-.7.5-.1.3.1.7.5.7.3.1.7-.1.7-.5 0-.3-.2-.6-.5-.7zM463.9 868.6c-.3-.1-.7.1-.7.5-.1.3.1.7.5.7.3.1.7-.1.7-.5 0-.3-.2-.6-.5-.7zM439 853.9c-.3-.1-.7.1-.7.5-.1.3.1.7.5.7.3.1.7-.1.7-.5 0-.3-.2-.6-.5-.7zM451 862.1c-.3-.1-.7.1-.7.5-.1.3.1.7.5.7.3.1.7-.1.7-.5.1-.3-.1-.6-.5-.7zM420.1 992.7c-.3.2-.3.6-.1.9.2.3.6.3.8.2.3-.2.3-.6.1-.9-.1-.4-.5-.4-.8-.2zM428 992.1c-.3.2-.3.6-.1.9.2.3.6.3.8.2.3-.2.3-.6.1-.9-.1-.3-.5-.4-.8-.2zM548 826.8c-.3.2-.4.5-.3.8s.5.4.8.3c.3-.2.4-.5.3-.8-.1-.3-.5-.5-.8-.3zM395.1 999.2c-.3.2-.3.6-.1.9.2.3.6.3.8.2.3-.2.3-.6.1-.9-.1-.3-.5-.4-.8-.2zM423.4 984.3c-.3.2-.3.6-.1.9.2.3.6.3.8.2.3-.2.3-.6.1-.9-.2-.3-.5-.4-.8-.2zM573.7 807.8c-.3.2-.3.6-.1.9.2.3.6.3.8.2.3-.2.3-.6.1-.9-.1-.3-.5-.4-.8-.2zM447.9 993c-.3.2-.3.6-.1.9.2.3.6.3.8.2.3-.2.3-.6.1-.9-.1-.3-.5-.4-.8-.2zM515.7 815.2c-.3-.2-.6-.2-.9.1-.2.3-.2.7.1.9.3.2.6.2.9-.1.2-.3.2-.6-.1-.9zM518.4 822.8c-.3-.2-.6-.2-.9.1-.2.3-.2.7.1.9.3.2.6.2.9-.1.2-.3.2-.7-.1-.9zM510.8 832.4c-.3-.2-.6-.2-.9.1-.2.3-.2.7.1.9.3.2.6.2.9-.1.2-.3.2-.7-.1-.9zM592.1 706.6c.3.1.6-.2.7-.5.1-.3-.2-.7-.5-.7-.3-.1-.6.2-.7.5 0 .4.2.7.5.7zM627.5 930.4c.1.3.4.5.8.4.3-.1.5-.4.4-.8-.1-.3-.4-.5-.8-.4-.3.2-.5.5-.4.8zM611.8 957.5c0 .3.3.6.6.6s.6-.3.6-.6-.3-.6-.6-.6-.5.3-.6.6zM614.6 944.7c0 .3.3.6.6.6s.6-.3.6-.6-.3-.6-.6-.6-.6.2-.6.6zM614.2 739.2c0 .3.3.6.6.6s.6-.3.6-.6-.3-.6-.6-.6-.6.3-.6.6zM638.1 904.8c0 .3.3.6.6.6s.6-.3.6-.6-.3-.6-.6-.6-.6.3-.6.6zM638.9 818.7c0 .3.3.6.6.6s.6-.3.6-.6-.3-.6-.6-.6-.6.3-.6.6zM614.4 937.4c.3-.1.5-.5.3-.8-.1-.3-.5-.5-.8-.3-.3.1-.5.5-.3.8.2.3.5.4.8.3zM622.5 949.2c.3-.1.5-.5.3-.8-.1-.3-.5-.5-.8-.3-.3.1-.5.5-.3.8.2.3.5.4.8.3zM620 929.7c.3-.1.5-.4.5-.7-.1-.3-.4-.5-.7-.5-.3.1-.5.4-.5.7 0 .4.3.6.7.5zM490.8 757.2c0 .3.3.6.6.6s.6-.3.6-.6-.3-.6-.6-.6-.6.3-.6.6zM587.3 764c0 .3.3.6.6.6s.6-.3.6-.6-.3-.6-.6-.6c-.3-.1-.6.2-.6.6zM596.6 757.7c0 .3.3.6.6.6s.6-.3.6-.6-.3-.6-.6-.6-.6.2-.6.6zM577.2 748.8c-.1.3.2.7.5.7s.6-.2.7-.5c.1-.3-.2-.7-.5-.7s-.6.2-.7.5zM587.3 738.3c0 .3.3.6.6.6s.6-.3.6-.6-.3-.6-.6-.6-.6.2-.6.6zM581 756.1c0 .3.3.6.6.6s.6-.3.6-.6-.3-.6-.6-.6c-.3-.1-.6.2-.6.6zM592.3 753.4c0 .3.3.6.6.6s.6-.3.6-.6-.3-.6-.6-.6-.6.3-.6.6zM576 737.6c0 .3.3.6.6.6s.6-.3.6-.6-.3-.6-.6-.6-.6.3-.6.6zM492 727.1c-.1.3.2.7.5.7.3.1.6-.2.7-.5.1-.3-.2-.7-.5-.7-.3-.1-.6.2-.7.5zM502.7 739.6c0 .3.3.6.6.6s.6-.3.6-.6-.3-.6-.6-.6c-.3-.1-.6.2-.6.6zM480.8 745.4c0 .3.3.6.6.6s.6-.3.6-.6-.3-.6-.6-.6c-.4-.1-.6.2-.6.6zM471.4 726c0 .3.3.6.6.6s.6-.3.6-.6-.3-.6-.6-.6c-.3-.1-.6.2-.6.6zM475.9 706.7c0 .3.3.6.6.6s.6-.3.6-.6-.3-.6-.6-.6c-.4 0-.6.3-.6.6zM503.3 731.1c0 .3.3.6.6.6s.6-.3.6-.6-.3-.6-.6-.6-.6.3-.6.6zM627.5 897.7c0 .3.3.6.6.6s.6-.3.6-.6-.3-.6-.6-.6-.5.3-.6.6zM623.3 883.5c0 .3.3.6.6.6s.6-.3.6-.6-.3-.6-.6-.6-.6.3-.6.6zM586.9 868.6c-.1.3.2.7.5.7.3.1.6-.2.7-.5s-.2-.7-.5-.7c-.3-.1-.6.1-.7.5zM548.4 734.3c.1.3.4.5.8.4.3-.1.5-.4.4-.8-.1-.3-.4-.5-.8-.4-.3.1-.5.4-.4.8zM563.9 745.4c.1.3.4.5.8.4.3-.1.5-.4.4-.8-.1-.3-.4-.5-.8-.4-.3.1-.5.5-.4.8zM570.5 773.4c.1.3.4.5.8.4.3-.1.5-.4.4-.8-.1-.3-.4-.5-.8-.4-.3.2-.5.5-.4.8zM624.8 789.6c.1.3.4.5.8.4.3-.1.5-.4.4-.8-.1-.3-.4-.5-.8-.4-.3.1-.5.5-.4.8zM635 790.2c.1.3.4.5.8.4.3-.1.5-.4.4-.8-.1-.3-.4-.5-.8-.4-.3.2-.5.5-.4.8zM623.8 777.2c.1.3.4.5.8.4.3-.1.5-.4.4-.8-.1-.3-.4-.5-.8-.4-.3.1-.5.5-.4.8zM550.8 752.4c.3-.1.5-.5.3-.8-.1-.3-.5-.5-.8-.3-.3.1-.5.5-.3.8.2.2.5.4.8.3zM558.9 764.2c.3-.1.5-.5.3-.8-.1-.3-.5-.5-.8-.3-.3.1-.5.5-.3.8.2.3.5.4.8.3zM556.4 744.7c.3-.1.5-.4.5-.7s-.4-.5-.7-.5c-.3.1-.5.4-.5.7 0 .3.3.5.7.5zM576.7 710.4c-.1.3.2.7.5.7.3.1.6-.2.7-.5.1-.3-.2-.7-.5-.7-.3-.1-.6.1-.7.5zM614 864.1c0 .3.3.6.6.6s.6-.3.6-.6-.3-.6-.6-.6c-.4 0-.6.3-.6.6zM619 879.3c0 .3.3.6.6.6s.6-.3.6-.6-.3-.6-.6-.6-.6.3-.6.6zM628.8 869.9c0 .3.3.6.6.6s.6-.3.6-.6-.3-.6-.6-.6-.6.3-.6.6zM632.6 857c0 .3.3.6.6.6s.6-.3.6-.6-.3-.6-.6-.6-.6.3-.6.6zM602.7 863.5c0 .3.3.6.6.6s.6-.3.6-.6-.3-.6-.6-.6-.6.3-.6.6zM623.3 827.9c0 .3.3.6.6.6s.6-.3.6-.6-.3-.6-.6-.6-.6.3-.6.6zM603.9 833.4c-.1.3.2.7.5.7.3.1.6-.2.7-.5s-.2-.7-.5-.7-.6.2-.7.5zM614.6 845.9c0 .3.3.6.6.6s.6-.3.6-.6-.3-.6-.6-.6-.6.2-.6.6zM619 823.7c0 .3.3.6.6.6s.6-.3.6-.6-.3-.6-.6-.6-.6.3-.6.6zM592.6 851.7c0 .3.3.6.6.6s.6-.3.6-.6-.3-.6-.6-.6-.6.2-.6.6zM615.2 837.4c0 .3.3.6.6.6s.6-.3.6-.6-.3-.6-.6-.6-.6.3-.6.6zM522.5 928.1c.7 0 1.2-.6 1.2-1.2 0-.7-.5-1.2-1.2-1.2s-1.2.6-1.2 1.2.5 1.2 1.2 1.2zM604.4 799.2c.7 0 1.2-.6 1.2-1.2s-.5-1.2-1.2-1.2-1.2.6-1.2 1.2.5 1.2 1.2 1.2zM586.9 987.3c.7 0 1.2-.6 1.2-1.2s-.5-1.2-1.2-1.2-1.2.6-1.2 1.2.5 1.2 1.2 1.2z"/><circle class="st0" cx="596.6" cy="713.3" r="1.2"/><path class="st0" d="M630.9 692c.7 0 1.2-.6 1.2-1.2s-.5-1.2-1.2-1.2-1.2.6-1.2 1.2.5 1.2 1.2 1.2zM620.9 726.9c-.3-.1-.7.1-.7.5-.1.3.1.7.5.7.3.1.7-.1.7-.5 0-.3-.2-.7-.5-.7zM623.9 718.2c-.3-.1-.7.1-.7.5-.1.3.1.7.5.7.3.1.7-.1.7-.5 0-.3-.2-.6-.5-.7zM628.1 728.8c-.3-.1-.7.1-.7.5-.1.3.1.7.5.7.3.1.7-.1.7-.5 0-.3-.2-.7-.5-.7zM624.5 701.3c.7 0 1.2-.6 1.2-1.2s-.5-1.2-1.2-1.2-1.2.6-1.2 1.2.5 1.2 1.2 1.2z"/><circle class="st0" cx="440" cy="921.7" r="2.3"/><circle class="st0" cx="597" cy="968.2" r="2.3"/><circle class="st0" cx="597" cy="779.6" r="2.3"/><path class="st0" d="M595.3 1002.2c0 .3.3.6.6.6s.6-.3.6-.6-.3-.6-.6-.6-.6.2-.6.6zM618.5 986.9c0 .3.3.6.6.6s.6-.3.6-.6-.3-.6-.6-.6-.6.2-.6.6zM627.8 980.6c0 .3.3.6.6.6s.6-.3.6-.6-.3-.6-.6-.6-.6.2-.6.6zM612.2 971.9c0 .3.3.6.6.6s.6-.3.6-.6-.3-.6-.6-.6-.6.2-.6.6zM623.5 976.3c0 .3.3.6.6.6s.6-.3.6-.6-.3-.6-.6-.6-.6.3-.6.6zM607.2 995.4c.7 0 1.2-.6 1.2-1.2s-.5-1.2-1.2-1.2-1.2.6-1.2 1.2.6 1.2 1.2 1.2z"/><circle class="st0" cx="562" cy="852.9" r="1.2"/><circle class="st0" cx="527.8" cy="897.1" r="1.2"/><circle class="st0" cx="537.8" cy="763.6" r="1.2"/><path class="st0" d="M576.2 726.9c.1.3.4.5.8.4.3-.1.5-.4.4-.8-.1-.3-.4-.5-.8-.4-.3.2-.5.5-.4.8zM578.2 719.2c.1.3.4.5.8.4.3-.1.5-.4.4-.8-.1-.3-.4-.5-.8-.4-.3.1-.5.5-.4.8zM584.7 729.1c-.2.3-.1.7.2.9.3.2.7.1.8-.2s.1-.7-.2-.9c-.2-.1-.6-.1-.8.2zM578.6 745c.3-.1.5-.5.3-.8-.1-.3-.5-.5-.8-.3-.3.1-.5.5-.3.8.1.3.4.5.8.3zM584.1 737.3c.3-.1.5-.4.5-.7-.1-.3-.4-.5-.7-.5-.3.1-.5.4-.5.7 0 .4.4.6.7.5zM580.8 739.3c.3-.1.5-.4.5-.7s-.4-.5-.7-.5c-.3.1-.5.4-.5.7 0 .4.3.6.7.5zM567.9 816.4c.3-.1.5-.4.5-.7s-.4-.5-.7-.5c-.3.1-.5.4-.5.7 0 .3.3.5.7.5zM573.6 821.3c.3-.1.5-.4.5-.7-.1-.3-.4-.5-.7-.5-.3.1-.5.4-.5.7.1.4.4.6.7.5z"/><circle class="st0" cx="577.9" cy="794.6" r="1.2"/><path class="st0" d="M574.5 779.5c0 .3.3.6.6.6s.6-.3.6-.6-.3-.6-.6-.6-.6.3-.6.6zM574.1 769.8c0 .3.3.6.6.6s.6-.3.6-.6-.3-.6-.6-.6-.6.3-.6.6zM560 777.7c0 .3.3.6.6.6s.6-.3.6-.6-.3-.6-.6-.6c-.3-.1-.6.2-.6.6zM572.5 746.6c.3-.1.5-.5.3-.8-.1-.3-.5-.5-.8-.3-.3.1-.5.5-.3.8.2.2.5.4.8.3zM570.8 754.2c.3-.1.5-.4.5-.7-.1-.3-.4-.5-.7-.5-.3.1-.5.4-.5.7 0 .4.4.6.7.5zM572.6 759.6c.3-.1.5-.4.5-.7-.1-.3-.4-.5-.7-.5-.3.1-.5.4-.5.7.1.4.4.6.7.5zM568.5 760.6c.3-.1.5-.4.5-.7-.1-.3-.4-.5-.7-.5-.3.1-.5.4-.5.7 0 .4.3.6.7.5zM578.3 762.2c0 .3.3.6.6.6s.6-.3.6-.6-.3-.6-.6-.6-.6.3-.6.6zM554.6 773.2c.3-.1.5-.4.5-.7s-.4-.5-.7-.5c-.3.1-.5.4-.5.7 0 .4.3.6.7.5zM562.6 974.4c0 .3.3.6.6.6s.6-.3.6-.6-.3-.6-.6-.6-.6.2-.6.6zM579 777.9c0 .3.3.6.6.6s.6-.3.6-.6-.3-.6-.6-.6-.6.2-.6.6zM563.8 987.5c.3-.1.5-.4.5-.7-.1-.3-.4-.5-.7-.5-.3.1-.5.4-.5.7.1.3.4.6.7.5zM542.5 732.5c0 .3.3.6.6.6s.6-.3.6-.6-.3-.6-.6-.6-.6.3-.6.6zM533.6 731.3c0 .3.3.6.6.6s.6-.3.6-.6-.3-.6-.6-.6-.6.2-.6.6zM542.9 725c0 .3.3.6.6.6s.6-.3.6-.6-.3-.6-.6-.6-.6.2-.6.6zM565.8 734.1c0 .3.3.6.6.6s.6-.3.6-.6-.3-.6-.6-.6-.6.2-.6.6zM532.8 744.9c.3-.1.5-.4.5-.7-.1-.3-.4-.5-.7-.5-.3.1-.5.4-.5.7 0 .4.3.6.7.5zM537.1 749c.3-.1.5-.4.5-.7-.1-.3-.4-.5-.7-.5-.3.1-.5.4-.5.7.1.4.4.6.7.5zM580.4 855.7c0 .3.3.6.6.6s.6-.3.6-.6-.3-.6-.6-.6c-.4 0-.6.3-.6.6zM570.8 859.1c0 .3.3.6.6.6s.6-.3.6-.6-.3-.6-.6-.6-.6.2-.6.6zM577.2 862.7c0 .4.3.7.6.7s.6-.3.6-.6c0-.4-.3-.7-.6-.7s-.6.2-.6.6zM571.1 794.8c.1.3.4.5.8.4.3-.1.5-.4.4-.8s-.4-.5-.8-.4c-.3.1-.5.4-.4.8zM567.2 801c.3-.1.5-.4.5-.7-.1-.3-.4-.5-.7-.5-.3.1-.5.4-.5.7 0 .4.3.6.7.5z"/></g><g id="starsy2_3_"><circle class="st0" cx="490.6" cy="401.1" r="1.2"/><circle class="st0" cx="493.7" cy="514.6" r="1.2"/><path class="st0" d="M512.9 346c.7 0 1.2-.6 1.2-1.2 0-.7-.5-1.2-1.2-1.2s-1.2.6-1.2 1.2c0 .7.5 1.2 1.2 1.2z"/><circle class="st0" cx="547" cy="390.5" r=".6"/><circle class="st0" cx="525.4" cy="398.4" r=".6"/><circle class="st0" cx="525.4" cy="386" r=".6"/><circle class="st0" cx="560.8" cy="530.9" r=".6"/><path class="st0" d="M627.4 489.9c.1.3.4.5.8.4.3-.1.5-.4.4-.8-.1-.3-.4-.5-.8-.4-.3.1-.5.5-.4.8zM544.8 439c.1.3.4.5.8.4.3-.1.5-.4.4-.8-.1-.3-.4-.5-.8-.4-.3.2-.5.5-.4.8zM531.3 420.2c.1.3.4.5.8.4.3-.1.5-.4.4-.8-.1-.3-.4-.5-.8-.4-.3.1-.5.4-.4.8zM543 416.7c.1.3.4.5.8.4.3-.1.5-.4.4-.8-.1-.3-.4-.5-.8-.4-.3.1-.5.5-.4.8zM593.3 357c.1.3.4.5.8.4.3-.1.5-.4.4-.8-.1-.3-.4-.5-.8-.4-.3.1-.5.4-.4.8z"/><circle class="st0" cx="544.2" cy="460.9" r=".6"/><circle class="st0" cx="582.4" cy="456.3" r=".6"/><circle class="st0" cx="595.8" cy="429.5" r=".6"/><circle class="st0" cx="570.4" cy="453.9" r=".6"/><circle class="st0" cx="454.1" cy="196.7" r=".6"/><path class="st0" d="M536 273c0 .3.3.6.6.6s.6-.3.6-.6-.3-.6-.6-.6-.6.3-.6.6zM512.9 258.6c0 .3.3.6.6.6s.6-.3.6-.6-.3-.6-.6-.6-.6.3-.6.6zM512.9 232.9c0 .3.3.6.6.6s.6-.3.6-.6-.3-.6-.6-.6-.6.3-.6.6zM506.6 250.7c0 .3.3.6.6.6s.6-.3.6-.6-.3-.6-.6-.6-.6.3-.6.6zM527.7 238.7c0 .3.3.6.6.6s.6-.3.6-.6-.3-.6-.6-.6-.6.3-.6.6zM491.2 283.6c0 .3.3.6.6.6s.6-.3.6-.6-.3-.6-.6-.6-.6.3-.6.6zM482.3 282.4c0 .3.3.6.6.6s.6-.3.6-.6-.3-.6-.6-.6c-.4 0-.6.2-.6.6zM491.6 276.1c0 .3.3.6.6.6s.6-.3.6-.6-.3-.6-.6-.6-.6.3-.6.6zM510.2 281.4c-.1.3.2.7.5.7.3.1.6-.2.7-.5.1-.3-.2-.7-.5-.7s-.6.2-.7.5zM482.3 256.7c0 .3.3.6.6.6s.6-.3.6-.6-.3-.6-.6-.6-.6.2-.6.6zM592.4 477.5c0 .3.3.6.6.6s.6-.3.6-.6-.3-.6-.6-.6-.5.2-.6.6zM497.1 262.5c0 .3.3.6.6.6s.6-.3.6-.6-.3-.6-.6-.6c-.3-.1-.6.2-.6.6zM580.1 446.1c0 .3.3.6.6.6s.6-.3.6-.6-.3-.6-.6-.6-.6.3-.6.6zM571.1 444.9c0 .3.3.6.6.6s.6-.3.6-.6-.3-.6-.6-.6-.6.2-.6.6zM580.5 438.6c0 .3.3.6.6.6s.6-.3.6-.6-.3-.6-.6-.6c-.4 0-.6.2-.6.6zM571.1 419.2c0 .3.3.6.6.6s.6-.3.6-.6-.3-.6-.6-.6-.6.2-.6.6zM585.9 424.9c0 .3.3.6.6.6s.6-.3.6-.6-.3-.6-.6-.6-.6.3-.6.6zM501.5 177.9c0 .3.3.6.6.6s.6-.3.6-.6-.3-.6-.6-.6-.6.3-.6.6zM491.4 162.8c-.1.3.2.7.5.7.3.1.6-.2.7-.5.1-.3-.2-.7-.5-.7s-.6.1-.7.5zM495.2 170c0 .3.3.6.6.6s.6-.3.6-.6-.3-.6-.6-.6-.6.3-.6.6zM498.8 200.7c-.1.3.2.7.5.7.3.1.6-.2.7-.5.1-.3-.2-.7-.5-.7-.4-.1-.7.2-.7.5zM485.6 181.7c0 .3.3.6.6.6s.6-.3.6-.6-.3-.6-.6-.6-.6.3-.6.6zM607.9 297.2c-.1.3.2.7.5.7.3.1.6-.2.7-.5.1-.3-.2-.7-.5-.7-.4 0-.7.2-.7.5z"/><circle class="st0" cx="497.9" cy="494.9" r=".6"/><path class="st0" d="M493.2 498.5c-.2.3-.1.7.2.9.3.2.7.1.8-.2s.1-.7-.2-.9c-.2-.2-.6-.1-.8.2z"/><circle class="st0" cx="491.1" cy="467.5" r=".6"/><path class="st0" d="M468.6 485.3c-.2.3-.1.7.2.9s.7.1.8-.2.1-.7-.2-.9-.7-.1-.8.2zM478.5 467.1c-.2.3-.1.7.2.9.3.2.7.1.8-.2.2-.3.1-.7-.2-.9s-.6-.1-.8.2zM618.8 165.7c.3 0 .6-.3.6-.6s-.3-.6-.6-.6-.6.3-.6.6.2.6.6.6zM595.7 159c-.2.2-.2.6 0 .9.2.2.6.2.9 0 .2-.2.2-.6 0-.9-.3-.3-.7-.3-.9 0zM606.3 164.8c-.2.3-.1.7.2.9.3.2.7.1.8-.2.2-.3.1-.7-.2-.9-.3-.2-.6-.1-.8.2zM537.6 495.2c-.2.3-.1.7.1.9.3.2.7.1.8-.2.2-.3.1-.7-.2-.9-.1-.1-.5-.1-.7.2zM501.7 456.8c-.3-.1-.7.1-.7.5-.1.3.1.7.5.7.3.1.7-.1.7-.5 0-.3-.2-.6-.5-.7zM505.9 467.4c-.3-.1-.7.1-.7.5-.1.3.1.7.5.7.3.1.7-.1.7-.5 0-.3-.2-.6-.5-.7zM518.3 449.8c-.3-.1-.7 0-.8.3-.1.3 0 .7.3.8.3.1.7 0 .8-.3.1-.3 0-.6-.3-.8zM510.5 452.1c-.3-.1-.7.1-.7.5-.1.3.1.7.5.7.3.1.7-.1.7-.5.1-.3-.1-.6-.5-.7zM510.8 464c-.3-.1-.7.1-.7.5-.1.3.1.7.5.7.3.1.7-.1.7-.5 0-.3-.2-.7-.5-.7zM564.1 483.8c.3 0 .6-.3.6-.6s-.3-.6-.6-.6-.6.3-.6.6.2.6.6.6zM554.9 485.9c-.2.3-.1.7.2.9s.7.1.8-.2c.2-.3.1-.7-.2-.9s-.6-.1-.8.2zM570.2 476.7c-.3-.1-.7.1-.7.5-.1.3.1.7.5.7.3.1.7-.1.7-.5 0-.3-.2-.6-.5-.7zM575.1 473.3c-.3-.1-.7.1-.7.5-.1.3.1.7.5.7.3.1.7-.1.7-.5 0-.3-.2-.7-.5-.7zM536.8 337.9c-.3-.1-.7.1-.7.5-.1.3.1.7.5.7.3.1.7-.1.7-.5 0-.3-.2-.7-.5-.7zM541 348.4c-.3-.1-.7.1-.7.5-.1.3.1.7.5.7.3.1.7-.1.7-.5 0-.2-.2-.6-.5-.7zM545.7 333.2c-.3-.1-.7.1-.7.5-.1.3.1.7.5.7.3.1.7-.1.7-.5 0-.3-.2-.7-.5-.7zM545.9 345c-.3-.1-.7.1-.7.5-.1.3.1.7.5.7.3.1.7-.1.7-.5 0-.3-.2-.6-.5-.7zM565.6 428.7c.3 0 .6-.3.6-.6s-.3-.6-.6-.6-.6.3-.6.6.3.6.6.6zM560.9 431.6c-.2.3-.1.7.2.9.3.2.7.1.8-.2.2-.3.1-.7-.2-.9s-.6-.1-.8.2zM558.3 426.4c-.3-.1-.7.1-.7.5-.1.3.1.7.5.7.3.1.7-.1.7-.5 0-.3-.2-.6-.5-.7zM517.9 475.6c-.3-.1-.7.1-.7.5-.1.3.1.7.5.7.3.1.7-.1.7-.5 0-.3-.2-.6-.5-.7zM590.2 395c-.3-.1-.7.1-.7.5-.1.3.1.7.5.7.3.1.7-.1.7-.5 0-.3-.2-.6-.5-.7zM593.2 386.3c-.3-.1-.7.1-.7.5-.1.3.1.7.5.7.3.1.7-.1.7-.5 0-.3-.2-.6-.5-.7zM489.2 432c-.3-.1-.7.1-.7.5-.1.3.1.7.5.7.3.1.7-.1.7-.5 0-.2-.2-.6-.5-.7zM480.3 449.5c-.3-.1-.7 0-.8.3-.1.3 0 .7.3.8.3.1.7 0 .8-.3.1-.3 0-.6-.3-.8z"/><circle class="st0" cx="511.8" cy="362" r=".6"/><path class="st0" d="M488.7 355.9c-.2.2-.2.6 0 .9.2.2.6.2.9 0 .2-.2.2-.6 0-.9-.3-.3-.7-.3-.9 0zM499.3 361.6c-.2.3-.1.7.2.9s.7.1.8-.2c.2-.3.1-.7-.2-.9-.3-.1-.7 0-.8.2zM501 346.2c-.3-.1-.7 0-.8.3-.1.3 0 .7.3.8s.7 0 .8-.3c.2-.3 0-.7-.3-.8zM509.7 426.6c-.3-.1-.7.1-.7.5-.1.3.1.7.5.7.3.1.7-.1.7-.5 0-.2-.2-.6-.5-.7zM527.3 434.9c-.3-.1-.7.1-.7.5-.1.3.1.7.5.7.3.1.7-.1.7-.5 0-.3-.2-.6-.5-.7zM501.2 440.3c-.3-.1-.7.1-.7.5-.1.3.1.7.5.7.3.1.7-.1.7-.5 0-.3-.2-.7-.5-.7zM546 498.1c-.3-.1-.7 0-.8.3-.1.3 0 .7.3.8.3.1.7 0 .8-.3.2-.3 0-.6-.3-.8zM624.2 526.3c-.3-.1-.7.1-.7.5s.1.7.5.7c.3.1.7-.1.7-.5.1-.3-.1-.6-.5-.7zM636.6 508.8c-.3-.1-.7 0-.8.3-.1.3 0 .7.3.8s.7 0 .8-.3c.2-.4 0-.7-.3-.8zM616.1 511.7c-.3-.1-.7.1-.7.5-.1.3.1.7.5.7.3.1.7-.1.7-.5 0-.3-.2-.7-.5-.7zM619.6 499.2c-.3-.1-.7.1-.7.5-.1.3.1.7.5.7.3.1.7-.1.7-.5 0-.3-.2-.7-.5-.7zM511.8 518.4c-.3.2-.3.6-.1.9.2.3.6.3.8.2.3-.2.3-.6.1-.9-.2-.4-.5-.4-.8-.2zM519.6 517.8c-.3.2-.3.6-.1.9.2.3.6.3.8.2.3-.2.3-.6.1-.9-.1-.3-.5-.4-.8-.2zM533 514.7c-.3.2-.3.6-.1.9.2.3.6.3.8.2.3-.2.3-.6.1-.9-.2-.3-.6-.4-.8-.2zM475.1 318c-.3.2-.4.5-.3.8.1.3.5.4.8.3.3-.2.4-.5.3-.8-.1-.3-.5-.4-.8-.3zM515 510c-.3.2-.3.6-.1.9s.6.3.8.2.3-.6.1-.9c-.1-.3-.5-.4-.8-.2zM539.6 518.7c-.3.2-.3.6-.1.9.2.3.6.3.8.2.3-.2.3-.6.1-.9-.2-.3-.6-.4-.8-.2zM570.5 524.7c-.3-.2-.6-.2-.9.1-.2.3-.2.7.1.9s.6.2.9-.1c.2-.3.1-.7-.1-.9zM551.2 360.4c-.3-.2-.6-.2-.9.1-.2.3-.2.7.1.9.3.2.6.2.9-.1.2-.3.2-.7-.1-.9zM543.6 370.1c-.3-.2-.6-.2-.9.1-.2.3-.2.7.1.9.3.2.6.2.9-.1.2-.3.2-.7-.1-.9zM596.3 490.4c0-.3-.3-.6-.6-.6s-.6.3-.6.6.3.6.6.6.6-.3.6-.6zM578 500.4c.3-.1.5-.5.3-.8-.1-.3-.5-.5-.8-.3-.3.1-.5.5-.3.8.1.3.5.5.8.3zM552.3 514.6c.3-.1.5-.4.5-.7-.1-.3-.4-.5-.7-.5-.3.1-.5.4-.5.7 0 .4.3.6.7.5zM557.3 508.3c.3-.1.5-.5.3-.8-.1-.3-.5-.5-.8-.3s-.5.5-.3.8.5.4.8.3z"/><circle class="st0" cx="544.4" cy="160.6" r=".6"/><circle class="st0" cx="565.3" cy="159.2" r=".6"/><path class="st0" d="M559.1 155.7c.3 0 .6-.3.6-.6s-.3-.6-.6-.6-.6.3-.6.6.3.6.6.6zM537.8 155.7c.3-.1.5-.4.5-.7-.1-.3-.4-.5-.7-.5-.3.1-.5.4-.5.7.1.4.4.6.7.5zM542.9 149.3c.3-.1.5-.5.3-.8-.1-.3-.5-.5-.8-.3-.3.1-.5.5-.3.8.1.3.5.5.8.3zM567.5 500.3c.3-.1.5-.5.3-.8-.1-.3-.5-.5-.8-.3-.3.1-.5.5-.3.8.1.3.4.4.8.3zM593.1 509.6c.3-.1.5-.5.3-.8-.1-.3-.5-.5-.8-.3-.3.1-.5.5-.3.8.1.3.4.4.8.3zM583.5 492.7c.3-.1.5-.4.5-.7-.1-.3-.4-.5-.7-.5-.3.1-.5.4-.5.7.1.4.4.6.7.5zM571.6 512.5c.3-.1.5-.5.3-.8-.1-.3-.5-.5-.8-.3-.3.1-.5.5-.3.8.2.3.5.5.8.3zM638.3 405.5c.1.3.4.5.8.4.3-.1.5-.4.4-.8-.1-.3-.4-.5-.8-.4-.3.2-.5.5-.4.8zM622.7 432.6c0 .3.3.6.6.6s.6-.3.6-.6-.3-.6-.6-.6-.6.3-.6.6zM625.4 419.8c0 .3.3.6.6.6s.6-.3.6-.6-.3-.6-.6-.6-.6.2-.6.6zM625 214.3c0 .3.3.6.6.6s.6-.3.6-.6-.3-.6-.6-.6-.6.3-.6.6zM648.9 379.9c0 .3.3.6.6.6s.6-.3.6-.6-.3-.6-.6-.6-.6.3-.6.6zM649.7 293.8c0 .3.3.6.6.6s.6-.3.6-.6-.3-.6-.6-.6-.6.3-.6.6zM625.3 412.5c.3-.1.5-.5.3-.8-.1-.3-.5-.5-.8-.3-.3.1-.5.5-.3.8.1.3.5.4.8.3zM614.7 412.3c.3-.1.5-.5.3-.8-.1-.3-.5-.5-.8-.3-.3.1-.5.5-.3.8.2.3.5.5.8.3zM633.4 424.3c.3-.1.5-.5.3-.8-.1-.3-.5-.5-.8-.3-.3.1-.5.5-.3.8.1.3.5.4.8.3zM630.8 404.8c.3-.1.5-.4.5-.7-.1-.3-.4-.5-.7-.5-.3.1-.5.4-.5.7 0 .4.4.6.7.5zM618.9 424.6c.3-.1.5-.5.3-.8-.1-.3-.5-.5-.8-.3-.3.1-.5.5-.3.8.1.3.5.4.8.3zM598.1 239.1c0 .3.3.6.6.6s.6-.3.6-.6-.3-.6-.6-.6-.6.2-.6.6zM607.4 232.8c0 .3.3.6.6.6s.6-.3.6-.6-.3-.6-.6-.6c-.3-.1-.5.2-.6.6zM603.2 228.5c0 .3.3.6.6.6s.6-.3.6-.6-.3-.6-.6-.6-.6.3-.6.6zM522.2 196.7c0 .3.3.6.6.6s.6-.3.6-.6-.3-.6-.6-.6-.5.3-.6.6zM512.9 177.3c0 .3.3.6.6.6s.6-.3.6-.6-.3-.6-.6-.6-.6.3-.6.6zM513.5 214.7c0 .3.3.6.6.6s.6-.3.6-.6-.3-.6-.6-.6c-.3-.1-.6.2-.6.6zM518 192.5c0 .3.3.6.6.6s.6-.3.6-.6-.3-.6-.6-.6c-.4 0-.6.3-.6.6zM514.1 206.2c0 .3.3.6.6.6s.6-.3.6-.6-.3-.6-.6-.6-.6.3-.6.6zM638.4 372.8c0 .3.3.6.6.6s.6-.3.6-.6-.3-.6-.6-.6-.6.3-.6.6zM634.1 358.6c0 .3.3.6.6.6s.6-.3.6-.6-.3-.6-.6-.6-.6.3-.6.6zM635.7 264.7c.1.3.4.5.8.4.3-.1.5-.4.4-.8-.1-.3-.4-.5-.8-.4-.3.1-.5.5-.4.8zM645.8 265.3c.1.3.4.5.8.4.3-.1.5-.4.4-.8-.1-.3-.4-.5-.8-.4-.3.2-.5.5-.4.8zM634.6 252.3c.1.3.4.5.8.4.3-.1.5-.4.4-.8-.1-.3-.4-.5-.8-.4-.3.1-.4.5-.4.8zM559.9 186.7c.1.3.4.5.8.4.3-.1.5-.4.4-.8-.1-.3-.4-.5-.8-.4-.3.1-.5.5-.4.8zM569.8 239.3c.3-.1.5-.5.3-.8-.1-.3-.5-.5-.8-.3-.3.1-.5.5-.3.8.1.3.5.4.8.3zM587.6 185.5c-.1.3.2.7.5.7.3.1.6-.2.7-.5.1-.3-.2-.7-.5-.7-.3-.1-.7.1-.7.5zM624.8 339.2c0 .3.3.6.6.6s.6-.3.6-.6-.3-.6-.6-.6-.6.3-.6.6zM618.5 357c0 .3.3.6.6.6s.6-.3.6-.6-.3-.6-.6-.6-.6.3-.6.6zM629.8 354.4c0 .3.3.6.6.6s.6-.3.6-.6-.3-.6-.6-.6-.6.3-.6.6zM639.6 345c0 .3.3.6.6.6s.6-.3.6-.6-.3-.6-.6-.6-.6.3-.6.6zM603.1 389.9c0 .3.3.6.6.6s.6-.3.6-.6-.3-.6-.6-.6-.6.3-.6.6zM603.5 382.4c0 .3.3.6.6.6s.6-.3.6-.6-.3-.6-.6-.6-.6.3-.6.6zM622.1 387.7c-.1.3.2.7.5.7.3.1.6-.2.7-.5.1-.3-.2-.7-.5-.7s-.7.2-.7.5zM643.4 332.1c0 .3.3.6.6.6s.6-.3.6-.6-.3-.6-.6-.6-.6.2-.6.6zM608.9 368.8c0 .3.3.6.6.6s.6-.3.6-.6-.3-.6-.6-.6-.5.2-.6.6zM613.5 338.6c0 .3.3.6.6.6s.6-.3.6-.6-.3-.6-.6-.6-.6.3-.6.6zM634.1 303c0 .3.3.6.6.6s.6-.3.6-.6-.3-.6-.6-.6-.6.3-.6.6zM625.4 321c0 .3.3.6.6.6s.6-.3.6-.6-.3-.6-.6-.6-.6.2-.6.6zM603.5 326.8c0 .3.3.6.6.6s.6-.3.6-.6-.3-.6-.6-.6-.6.2-.6.6zM557.8 384.1c.7 0 1.2-.6 1.2-1.2 0-.7-.5-1.2-1.2-1.2s-1.2.6-1.2 1.2c0 .7.5 1.2 1.2 1.2z"/><circle class="st0" cx="497.7" cy="390" r="1.2"/><circle class="st0" cx="565.3" cy="413.7" r="1.2"/><path class="st0" d="M615.2 274.3c.7 0 1.2-.6 1.2-1.2 0-.7-.5-1.2-1.2-1.2s-1.2.6-1.2 1.2.5 1.2 1.2 1.2zM597.8 462.4c.7 0 1.2-.6 1.2-1.2s-.5-1.2-1.2-1.2-1.2.6-1.2 1.2.5 1.2 1.2 1.2z"/><circle class="st0" cx="607.4" cy="188.4" r="1.2"/><path class="st0" d="M592.4 376.5c.7 0 1.2-.6 1.2-1.2s-.5-1.2-1.2-1.2-1.2.6-1.2 1.2.5 1.2 1.2 1.2zM641.7 167.1c.7 0 1.2-.6 1.2-1.2 0-.7-.5-1.2-1.2-1.2s-1.2.6-1.2 1.2.6 1.2 1.2 1.2zM631.7 202c-.3-.1-.7.1-.7.5-.1.3.1.7.5.7.3.1.7-.1.7-.5 0-.3-.2-.7-.5-.7zM634.7 193.3c-.3-.1-.7.1-.7.5-.1.3.1.7.5.7s.7-.1.7-.5c0-.3-.2-.6-.5-.7zM638.9 203.9c-.3-.1-.7.1-.7.5-.1.3.1.7.5.7.3.1.7-.1.7-.5 0-.3-.2-.7-.5-.7zM635.3 176.4c.7 0 1.2-.6 1.2-1.2 0-.7-.5-1.2-1.2-1.2s-1.2.6-1.2 1.2.6 1.2 1.2 1.2z"/><circle class="st0" cx="521.6" cy="489.8" r="2.3"/><circle class="st0" cx="556" cy="403.6" r="2.3"/><circle class="st0" cx="607.8" cy="443.3" r="2.3"/><circle class="st0" cx="607.8" cy="254.7" r="2.3"/><path class="st0" d="M606.2 477.3c0 .3.3.6.6.6s.6-.3.6-.6-.3-.6-.6-.6-.6.2-.6.6zM629.3 462c0 .3.3.6.6.6s.6-.3.6-.6-.3-.6-.6-.6c-.3-.1-.6.2-.6.6zM638.7 455.7c0 .3.3.6.6.6s.6-.3.6-.6-.3-.6-.6-.6c-.3-.1-.6.2-.6.6zM623 447c0 .3.3.6.6.6s.6-.3.6-.6-.3-.6-.6-.6-.6.2-.6.6zM634.4 451.4c0 .3.3.6.6.6s.6-.3.6-.6-.3-.6-.6-.6-.6.3-.6.6zM618.1 470.5c.7 0 1.2-.6 1.2-1.2 0-.7-.5-1.2-1.2-1.2s-1.2.6-1.2 1.2.5 1.2 1.2 1.2z"/><circle class="st0" cx="563.1" cy="353.1" r="1.2"/><path class="st0" d="M537.9 172.9c.7 0 1.2-.6 1.2-1.2 0-.7-.5-1.2-1.2-1.2s-1.2.6-1.2 1.2c0 .7.5 1.2 1.2 1.2z"/><circle class="st0" cx="618.5" cy="372.8" r="1.2"/><circle class="st0" cx="548.6" cy="238.7" r="1.2"/><path class="st0" d="M492.9 227.2c.7 0 1.2-.6 1.2-1.2s-.5-1.2-1.2-1.2-1.2.6-1.2 1.2.6 1.2 1.2 1.2zM536.6 460.4c.7 0 1.2-.6 1.2-1.2 0-.7-.5-1.2-1.2-1.2s-1.2.6-1.2 1.2.6 1.2 1.2 1.2zM530.3 469.7c.7 0 1.2-.6 1.2-1.2s-.5-1.2-1.2-1.2-1.2.6-1.2 1.2.5 1.2 1.2 1.2zM511.3 378.7c.3-.1.5-.4.5-.7-.1-.3-.4-.5-.7-.5-.3.1-.5.4-.5.7 0 .3.4.5.7.5z"/><path class="st0" d="M511.3 378.7c.3-.1.5-.4.5-.7-.1-.3-.4-.5-.7-.5-.3.1-.5.4-.5.7 0 .3.4.5.7.5zM578.5 416.8c.7 0 1.2-.6 1.2-1.2 0-.7-.5-1.2-1.2-1.2s-1.2.6-1.2 1.2.5 1.2 1.2 1.2zM499.8 342.6c0 .3.3.6.6.6s.6-.3.6-.6-.3-.6-.6-.6-.6.3-.6.6zM585.3 254.6c0 .3.3.6.6.6s.6-.3.6-.6-.3-.6-.6-.6-.6.3-.6.6z"/><path class="st0" d="M499.8 342.6c0 .3.3.6.6.6s.6-.3.6-.6-.3-.6-.6-.6-.6.3-.6.6zM495.4 339.6c.3-.1.5-.4.5-.7-.1-.3-.4-.5-.7-.5-.3.1-.5.4-.5.7.1.4.4.6.7.5zM584.3 409.2c0 .3.3.6.6.6s.6-.3.6-.6-.3-.6-.6-.6-.6.2-.6.6zM583.5 234.7c.3-.1.5-.4.5-.7-.1-.3-.4-.5-.7-.5-.3.1-.5.4-.5.7 0 .4.3.6.7.5zM579.3 235.7c.3-.1.5-.4.5-.7-.1-.3-.4-.5-.7-.5-.3.1-.5.4-.5.7 0 .4.4.6.7.5z"/><path class="st0" d="M495.4 339.6c.3-.1.5-.4.5-.7-.1-.3-.4-.5-.7-.5-.3.1-.5.4-.5.7.1.4.4.6.7.5zM508.1 343.4c0 .3.3.6.6.6s.6-.3.6-.6-.3-.6-.6-.6c-.3-.1-.5.2-.6.6zM587.6 419.6c0 .3.3.6.6.6s.6-.3.6-.6-.3-.6-.6-.6-.6.3-.6.6zM565.4 248.3c.3-.1.5-.4.5-.7-.1-.3-.4-.5-.7-.5-.3.1-.5.4-.5.7.1.4.4.6.7.5z"/><path class="st0" d="M508.1 343.4c0 .3.3.6.6.6s.6-.3.6-.6-.3-.6-.6-.6c-.3-.1-.5.2-.6.6zM588.3 427.8c0 .3.3.6.6.6s.6-.3.6-.6-.3-.6-.6-.6-.6.3-.6.6zM571.6 425.3c.3-.1.5-.4.5-.7-.1-.3-.4-.5-.7-.5-.3.1-.5.4-.5.7 0 .3.4.5.7.5zM573.4 449.5c0 .3.3.6.6.6s.6-.3.6-.6-.3-.6-.6-.6-.6.2-.6.6zM589.9 253c0 .3.3.6.6.6s.6-.3.6-.6-.3-.6-.6-.6c-.4 0-.6.2-.6.6zM570.3 458.5c.3-.1.5-.4.5-.7-.1-.3-.4-.5-.7-.5s-.5.4-.5.7c0 .4.4.6.7.5zM574.7 462.6c.3-.1.5-.4.5-.7-.1-.3-.4-.5-.7-.5-.3.1-.5.4-.5.7 0 .3.4.6.7.5zM544.4 206.4c0 .3.3.6.6.6s.6-.3.6-.6-.3-.6-.6-.6-.6.2-.6.6zM553.7 200.1c0 .3.3.6.6.6s.6-.3.6-.6-.3-.6-.6-.6-.6.2-.6.6zM538.6 190.8c.7 0 1.2-.6 1.2-1.2 0-.7-.5-1.2-1.2-1.2s-1.2.6-1.2 1.2c-.1.7.5 1.2 1.2 1.2zM576.6 209.2c0 .3.3.6.6.6s.6-.3.6-.6-.3-.6-.6-.6-.5.2-.6.6zM543.6 220c.3-.1.5-.4.5-.7-.1-.3-.4-.5-.7-.5-.3.1-.5.4-.5.7 0 .4.4.6.7.5zM548 224.1c.3-.1.5-.4.5-.7-.1-.3-.4-.5-.7-.5-.3.1-.5.4-.5.7 0 .4.3.6.7.5zM576.2 351.9c.3-.1.5-.4.5-.7-.1-.3-.4-.5-.7-.5s-.5.4-.5.7c0 .4.3.6.7.5zM585.2 351.9c.3-.1.5-.4.5-.7-.1-.3-.4-.5-.7-.5-.3.1-.5.4-.5.7 0 .4.4.6.7.5zM576.9 170.6c.7 0 1.2-.6 1.2-1.2 0-.7-.5-1.2-1.2-1.2s-1.2.6-1.2 1.2c0 .7.5 1.2 1.2 1.2z"/></g><g id="starsy_3_"><circle class="st0" cx="518.8" cy="596.1" r="1.2"/><circle class="st0" cx="525.2" cy="680" r="1.2"/><path class="st0" d="M541.1 541c.7 0 1.2-.6 1.2-1.2s-.5-1.2-1.2-1.2-1.2.6-1.2 1.2.5 1.2 1.2 1.2zM454.6 551.7c.3 0 .6-.3.6-.6s-.3-.6-.6-.6-.6.3-.6.6.3.6.6.6z"/><circle class="st0" cx="469.5" cy="539" r=".6"/><circle class="st0" cx="447.9" cy="546.9" r=".6"/><circle class="st0" cx="447.9" cy="534.5" r=".6"/><path class="st0" d="M431.8 548.1c.3.1.6-.2.7-.5.1-.3-.2-.7-.5-.7-.3-.1-.6.2-.7.5 0 .4.2.7.5.7zM421.2 538.2c.3 0 .6-.3.6-.6s-.3-.6-.6-.6-.6.3-.6.6.2.6.6.6z"/><circle class="st0" cx="447.3" cy="556" r=".6"/><circle class="st0" cx="435.9" cy="532" r=".6"/><path class="st0" d="M448.5 539.7c.3 0 .6-.3.6-.6s-.3-.6-.6-.6-.6.3-.6.6.3.6.6.6zM451.8 576.4c.1.3.4.5.8.4.3-.1.5-.4.4-.8-.1-.3-.4-.5-.8-.4-.3.2-.5.5-.4.8zM467.3 587.6c.1.3.4.5.8.4.3-.1.5-.4.4-.8-.1-.3-.4-.5-.8-.4-.3.1-.5.4-.4.8zM453.8 568.7c.1.3.4.5.8.4.3-.1.5-.4.4-.8-.1-.3-.4-.5-.8-.4-.3.1-.5.5-.4.8zM465.5 565.2c.1.3.4.5.8.4.3-.1.5-.4.4-.8-.1-.3-.4-.5-.8-.4-.3.1-.5.5-.4.8zM606.1 532.7c.1.3.4.5.8.4.3-.1.5-.4.4-.8s-.4-.5-.8-.4c-.3.1-.5.5-.4.8zM598.2 539.8c.1.3.4.5.8.4.3-.1.5-.4.4-.8-.1-.3-.4-.5-.8-.4-.3.2-.4.5-.4.8zM363.5 539.4c-.1.3 0 .7.3.8.3.1.7 0 .8-.3s0-.7-.3-.8c-.3-.2-.6 0-.8.3z"/><circle class="st0" cx="445.3" cy="639.3" r=".6"/><path class="st0" d="M417.9 644c-.2.3-.1.7.2.9.3.2.7.1.8-.2s.1-.7-.2-.9c-.2-.1-.6-.1-.8.2zM417.3 620.1c-.2.2-.2.6 0 .9.2.2.6.2.9 0 .2-.2.2-.6 0-.9-.3-.3-.7-.3-.9 0zM411.3 626.6c-.2.3-.1.7.2.9.3.2.7.1.8-.2.2-.3.1-.7-.2-.9-.3-.1-.6 0-.8.2zM440.6 642.8c-.2.3-.1.7.2.9.3.2.7.1.8-.2.2-.3.1-.7-.2-.9-.2-.1-.6-.1-.8.2z"/><circle class="st0" cx="519.2" cy="662.4" r=".6"/><path class="st0" d="M496.7 680.3c-.2.3-.1.7.2.9s.7.1.8-.2c.2-.3.1-.7-.2-.9s-.6-.1-.8.2zM496.1 656.3c-.2.2-.2.6 0 .9.2.2.6.2.9 0 .2-.2.2-.6 0-.9-.3-.2-.6-.2-.9 0zM506.7 662.1c-.2.3-.1.7.2.9.3.2.7.1.8-.2.2-.3.1-.7-.2-.9s-.6-.1-.8.2zM485 639.6c-.2.3-.1.7.1.9.3.2.7.1.8-.2.2-.3.1-.7-.2-.9-.1-.2-.5-.1-.7.2zM529.8 651.8c-.3-.1-.7.1-.7.5-.1.3.1.7.5.7.3.1.7-.1.7-.5.1-.3-.1-.6-.5-.7zM534 662.4c-.3-.1-.7.1-.7.5-.1.3.1.7.5.7.3.1.7-.1.7-.5s-.1-.7-.5-.7zM546.4 644.8c-.3-.1-.7 0-.8.3-.1.3 0 .7.3.8.3.1.7 0 .8-.3.2-.3 0-.7-.3-.8zM538.7 647.1c-.3-.1-.7.1-.7.5-.1.3.1.7.5.7.3.1.7-.1.7-.5 0-.3-.2-.6-.5-.7zM538.9 658.9c-.3-.1-.7.1-.7.5-.1.3.1.7.5.7.3.1.7-.1.7-.5.1-.3-.1-.6-.5-.7zM592.2 678.8c.3 0 .6-.3.6-.6s-.3-.6-.6-.6-.6.3-.6.6.3.6.6.6zM583 680.9c-.2.3-.1.7.2.9s.7.1.8-.2c.2-.3.1-.7-.2-.9s-.6-.1-.8.2zM598.3 671.7c-.3-.1-.7.1-.7.5-.1.3.1.7.5.7.3.1.7-.1.7-.5.1-.3-.1-.7-.5-.7zM603.3 668.2c-.3-.1-.7.1-.7.5-.1.3.1.7.5.7.3.1.7-.1.7-.5 0-.3-.2-.6-.5-.7zM565 532.8c-.3-.1-.7.1-.7.5-.1.3.1.7.5.7.3.1.7-.1.7-.5s-.2-.6-.5-.7zM569.1 543.4c-.3-.1-.7.1-.7.5-.1.3.1.7.5.7.3.1.7-.1.7-.5.1-.3-.1-.6-.5-.7zM573.8 528.1c-.3-.1-.7.1-.7.5s.1.7.5.7c.3.1.7-.1.7-.5.1-.3-.1-.6-.5-.7zM574.1 540c-.3-.1-.7.1-.7.5-.1.3.1.7.5.7s.7-.1.7-.5c0-.3-.2-.7-.5-.7zM428.9 630.5c-.3-.1-.7.1-.7.5-.1.3.1.7.5.7.3.1.7-.1.7-.5 0-.2-.2-.6-.5-.7zM433 641.1c-.3-.1-.7.1-.7.5-.1.3.1.7.5.7.3.1.7-.1.7-.5.1-.3-.1-.6-.5-.7zM438 637.7c-.3-.1-.7.1-.7.5s.1.7.5.7c.3.1.7-.1.7-.5 0-.3-.2-.6-.5-.7zM546 670.6c-.3-.1-.7.1-.7.5-.1.3.1.7.5.7.3.1.7-.1.7-.5.1-.3-.1-.7-.5-.7zM510.2 625.1c-.3-.1-.7.1-.7.5-.1.3.1.7.5.7.3.1.7-.1.7-.5 0-.3-.2-.6-.5-.7zM513.2 616.4c-.3-.1-.7.1-.7.5-.1.3.1.7.5.7.3.1.7-.1.7-.5 0-.3-.2-.6-.5-.7zM517.3 627c-.3-.1-.7.1-.7.5-.1.3.1.7.5.7.3.1.7-.1.7-.5.1-.3-.1-.6-.5-.7zM508.5 644.5c-.3-.1-.7 0-.8.3-.1.3 0 .7.3.8.3.1.7 0 .8-.3.1-.3 0-.7-.3-.8z"/><circle class="st0" cx="539.9" cy="557" r=".6"/><path class="st0" d="M516.8 550.8c-.2.2-.2.6 0 .9.2.2.6.2.9 0 .2-.2.2-.6 0-.9-.2-.2-.6-.2-.9 0zM527.4 556.6c-.2.3-.1.7.2.9s.7.1.8-.2c.2-.3.1-.7-.2-.9-.2-.1-.6-.1-.8.2zM529.2 541.2c-.3-.1-.7 0-.8.3-.1.3 0 .7.3.8.3.1.7 0 .8-.3.1-.4 0-.7-.3-.8zM537.9 621.6c-.3-.1-.7.1-.7.5-.1.3.1.7.5.7.3.1.7-.1.7-.5 0-.3-.2-.6-.5-.7zM555.5 629.9c-.3-.1-.7.1-.7.5-.1.3.1.7.5.7.3.1.7-.1.7-.5 0-.3-.2-.6-.5-.7zM529.4 635.2c-.3-.1-.7.1-.7.5s.1.7.5.7c.3.1.7-.1.7-.5 0-.3-.2-.6-.5-.7z"/><circle class="st0" cx="433.9" cy="612.9" r=".6"/><path class="st0" d="M557.9 600.2c-.2.3-.1.7.2.9.3.2.7.1.8-.2.2-.3.1-.7-.2-.9-.3-.1-.6 0-.8.2zM557.3 576.3c-.2.2-.2.6 0 .9.2.2.6.2.9 0 .2-.2.2-.6 0-.9-.3-.2-.7-.3-.9 0zM432 591.9c-.3-.1-.7.1-.7.5-.1.3.1.7.5.7.3.1.7-.1.7-.5 0-.3-.2-.6-.5-.7zM448.7 612.8c-.3-.1-.7.1-.7.5-.1.3.1.7.5.7.3.1.7-.1.7-.5 0-.2-.2-.6-.5-.7zM361.7 581.2c-.3-.1-.7.1-.7.5-.1.3.1.7.5.7.3.1.7-.1.7-.5.1-.3-.1-.6-.5-.7z"/><circle class="st0" cx="366.7" cy="563.6" r=".6"/><path class="st0" d="M461.1 595.3c-.3-.1-.7 0-.8.3-.1.3 0 .7.3.8s.7 0 .8-.3c.1-.3 0-.7-.3-.8zM453.4 597.6c-.3-.1-.7.1-.7.5-.1.3.1.7.5.7.3.1.7-.1.7-.5 0-.3-.2-.6-.5-.7zM440.5 598.2c-.3-.1-.7.1-.7.5-.1.3.1.7.5.7.3.1.7-.1.7-.5.1-.3-.1-.6-.5-.7zM432 577.5c-.3-.1-.7.1-.7.5-.1.3.1.7.5.7.3.1.7-.1.7-.5 0-.3-.2-.6-.5-.7zM444 585.7c-.3-.1-.7.1-.7.5-.1.3.1.7.5.7.3.1.7-.1.7-.5 0-.3-.2-.6-.5-.7zM416.9 514.2c.3 0 .6-.3.6-.6s-.3-.6-.6-.6-.6.3-.6.6c0 .4.3.6.6.6zM410.2 510.1c.3 0 .6-.3.6-.6s-.3-.6-.6-.6-.6.3-.6.6.3.6.6.6zM394.1 510.7c.3.1.6-.2.7-.5.1-.3-.2-.7-.5-.7-.3-.1-.6.2-.7.5 0 .4.2.7.5.7zM409.6 519.2c.3 0 .6-.3.6-.6s-.3-.6-.6-.6-.6.3-.6.6.2.6.6.6zM414.1 539c.1.3.4.5.8.4.3-.1.5-.4.4-.8-.1-.3-.4-.5-.8-.4-.3.2-.5.5-.4.8zM416.1 531.3c.1.3.4.5.8.4.3-.1.5-.4.4-.8-.1-.3-.4-.5-.8-.4-.3.1-.5.5-.4.8zM394.3 554.5c-.3-.1-.7.1-.7.5s.1.7.5.7.7-.1.7-.5c0-.3-.2-.6-.5-.7zM415.7 560.2c-.3-.1-.7.1-.7.5-.1.3.1.7.5.7.3.1.7-.1.7-.5 0-.3-.2-.7-.5-.7zM419.1 554.8c-.3-.1-.7.1-.7.5-.1.3.1.7.5.7.3.1.7-.1.7-.5.1-.3-.1-.7-.5-.7zM394.3 540.1c-.3-.1-.7.1-.7.5-.1.3.1.7.5.7.3.1.7-.1.7-.5 0-.3-.2-.6-.5-.7zM406.3 548.3c-.3-.1-.7.1-.7.5-.1.3.1.7.5.7.3.1.7-.1.7-.5 0-.3-.2-.6-.5-.7zM459.2 662.7c-.3.2-.3.6-.1.9.2.3.6.3.8.2.3-.2.3-.6.1-.9-.2-.3-.6-.4-.8-.2zM467 662.2c-.3.2-.3.6-.1.9.2.3.6.3.8.2.3-.2.3-.6.1-.9-.1-.4-.5-.4-.8-.2zM480.3 659.1c-.3.2-.3.6-.1.9s.6.3.8.2c.3-.2.3-.6.1-.9-.1-.3-.5-.4-.8-.2zM503.3 513c-.3.2-.4.5-.3.8.1.3.5.4.8.3.3-.2.4-.5.3-.8-.1-.4-.5-.5-.8-.3zM434.1 669.3c-.3.2-.3.6-.1.9.2.3.6.3.8.2.3-.2.3-.6.1-.9-.1-.3-.5-.4-.8-.2zM462.4 654.4c-.3.2-.3.6-.1.9.2.3.6.3.8.2.3-.2.3-.6.1-.9-.2-.4-.5-.4-.8-.2zM486.9 663.1c-.3.2-.3.6-.1.9s.6.3.8.2c.3-.2.3-.6.1-.9-.1-.4-.5-.4-.8-.2zM473.7 508.9c-.3-.2-.6-.2-.9.1-.2.3-.2.7.1.9.3.2.6.2.9-.1.2-.3.2-.6-.1-.9zM466.1 518.6c-.3-.2-.6-.2-.9.1-.2.3-.2.7.1.9.3.2.6.2.9-.1.2-.3.1-.7-.1-.9zM574.3 594.8c.3-.1.5-.4.5-.7-.1-.3-.4-.5-.7-.5-.3.1-.5.4-.5.7 0 .4.4.6.7.5zM579.3 588.5c.3-.1.5-.5.3-.8-.1-.3-.5-.5-.8-.3-.3.1-.5.5-.3.8.1.2.5.4.8.3zM625.9 538.6c-.1.3.2.7.5.7s.6-.2.7-.5c.1-.3-.2-.7-.5-.7-.3-.1-.6.2-.7.5zM641.7 533.6c0 .3.3.6.6.6s.6-.3.6-.6-.3-.6-.6-.6-.6.2-.6.6zM631.6 521.7c0 .3.3.6.6.6s.6-.3.6-.6-.3-.6-.6-.6-.6.3-.6.6zM477.8 614.3c.7 0 1.2-.6 1.2-1.2s-.5-1.2-1.2-1.2-1.2.6-1.2 1.2.5 1.2 1.2 1.2z"/><circle class="st0" cx="525.9" cy="584.9" r="1.2"/><path class="st0" d="M512.4 606.6c.7 0 1.2-.6 1.2-1.2s-.5-1.2-1.2-1.2-1.2.6-1.2 1.2.5 1.2 1.2 1.2z"/><circle class="st0" cx="357.2" cy="557.2" r="1.2"/><circle class="st0" cx="510.7" cy="583.8" r="2.3"/><path class="st0" d="M634.3 672.2c0 .3.3.6.6.6s.6-.3.6-.6-.3-.6-.6-.6-.6.3-.6.6z"/><circle class="st0" cx="601" cy="522.9" r="1.2"/><circle class="st0" cx="483.1" cy="583.3" r="1.2"/><path class="st0" d="M564.8 655.3c.7 0 1.2-.6 1.2-1.2s-.5-1.2-1.2-1.2-1.2.6-1.2 1.2.5 1.2 1.2 1.2zM558.4 664.6c.7 0 1.2-.6 1.2-1.2 0-.7-.5-1.2-1.2-1.2s-1.2.6-1.2 1.2c0 .7.6 1.2 1.2 1.2zM539.5 573.6c.3-.1.5-.4.5-.7-.1-.3-.4-.5-.7-.5-.3.1-.5.4-.5.7 0 .4.3.6.7.5z"/><path class="st0" d="M539.5 573.6c.3-.1.5-.4.5-.7-.1-.3-.4-.5-.7-.5-.3.1-.5.4-.5.7 0 .4.3.6.7.5zM528 537.6c0 .3.3.6.6.6s.6-.3.6-.6-.3-.6-.6-.6-.6.3-.6.6z"/><path class="st0" d="M528 537.6c0 .3.3.6.6.6s.6-.3.6-.6-.3-.6-.6-.6-.6.3-.6.6zM523.6 534.6c.3-.1.5-.4.5-.7-.1-.3-.4-.5-.7-.5-.3.1-.5.4-.5.7 0 .4.4.6.7.5z"/><path class="st0" d="M523.6 534.6c.3-.1.5-.4.5-.7-.1-.3-.4-.5-.7-.5-.3.1-.5.4-.5.7 0 .4.4.6.7.5zM536.3 538.3c0 .3.3.6.6.6s.6-.3.6-.6-.3-.6-.6-.6-.6.3-.6.6z"/><path class="st0" d="M536.3 538.3c0 .3.3.6.6.6s.6-.3.6-.6-.3-.6-.6-.6-.6.3-.6.6zM619.4 525.8c0 .3.3.6.6.6s.6-.3.6-.6-.3-.6-.6-.6-.6.2-.6.6zM609.8 529.1c0 .3.3.6.6.6s.6-.3.6-.6-.3-.6-.6-.6-.6.3-.6.6zM616.2 532.7c0 .4.3.7.6.7s.6-.3.6-.6c0-.4-.3-.7-.6-.7s-.6.3-.6.6z"/></g><g id="stars_12_"><path class="st1" d="M487.7 972.2l-1.1-.7-.6-1.1-.6 1.1-1.1.7 1.1.6.6 1.1.6-1.1zM371.7 805.2l-1.1-.6-.6-1.1-.6 1.1-1.1.6 1.1.6.6 1.1.6-1.1z"/><circle class="st1" cx="530.7" cy="892.5" r=".6"/><circle class="st1" cx="238.1" cy="891.7" r=".6"/><circle class="st1" cx="300.4" cy="848.5" r=".6"/><circle class="st1" cx="561.6" cy="1026.2" r=".6"/><circle class="st1" cx="436" cy="880.4" r=".6"/></g><g id="stars_11_"><path class="st1" d="M561.7 796.6l-1.6-.9-.9-1.7-.9 1.7-1.6.9 1.6.9.9 1.6.9-1.6zM393.5 968.1l-1.6-.9-.9-1.6-.9 1.6-1.6.9 1.6.9.9 1.6.9-1.6zM391.6 551.8l-1.6-.9-.8-1.6-.9 1.6-1.6.9 1.6.9.9 1.6.8-1.6z"/><circle class="st1" cx="420.1" cy="748.5" r=".8"/><circle class="st1" cx="195.9" cy="678.7" r=".8"/><circle class="st1" cx="287.1" cy="615.3" r=".8"/><circle class="st1" cx="532.6" cy="595.2" r=".8"/></g><g id="stars_10_"><path class="st1" d="M614.5 328.7l1.9 1 1 1.9 1-1.9 1.9-1-1.9-1.1-1-1.9-1 1.9zM597 100.9l1.9 1.1 1 1.9 1-1.9 1.9-1.1-1.9-1-1-1.9-1 1.9zM494.4 481.9l1.9 1.1 1 1.9 1-1.9 1.9-1.1-1.9-1-1-1.9-1 1.9z"/><circle class="st1" cx="509.5" cy="315.3" r="1"/><circle class="st1" cx="577" cy="470.4" r="1"/><circle class="st1" cx="356.3" cy="249.3" r="1"/></g></g></svg>