<svg xmlns="http://www.w3.org/2000/svg" width="900" height="900"><g><circle cx="658" cy="402" r="0.622080" fill="#ff00" d-star-name="The Ruby Star"></circle><circle cx="691" cy="307" r="0.806880" fill="#ff871f" d-star-name="Dolones"></circle><circle cx="633" cy="413" r="0.739470" fill="#ffb966" d-star-name="Al Kumm"></circle><circle cx="793" cy="570" r="0.165763" fill="#ffce8b" d-star-name="Suhail"></circle><circle cx="872" cy="389" r="0.693120" fill="#ffcf8d" d-star-name="Zubrah"></circle><circle cx="689" cy="391" r="0.274563" fill="#ffd195" d-star-name="Tejat"></circle><circle cx="882" cy="205" r="0.486413" fill="#ffd197" d-star-name="Giausar"></circle><circle cx="839" cy="335" r="0.312120" fill="#ffd198" d-star-name="Tania Australis"></circle><circle cx="684" cy="391" r="0.365203" fill="#ffd199" d-star-name="Propus"></circle><circle cx="822" cy="497" r="0.813453" fill="#ffd29e" d-star-name="Felis"></circle><circle cx="764" cy="329" r="0.602083" fill="#ffd39f" d-star-name="Alsciaukat"></circle><circle cx="807" cy="390" r="0.622080" fill="#ffd39f" d-star-name="Alterf"></circle><circle cx="760" cy="426" r="0.415363" fill="#ffd5a2" d-star-name="Tarf"></circle><circle cx="805" cy="471" r="0.132003" fill="#ffd7a4" d-star-name="Alphard"></circle><circle cx="874" cy="361" r="0.406003" fill="#ffd8a7" d-star-name="Alula Borealis"></circle><circle cx="702" cy="384" r="0.312120" fill="#ffd9a9" d-star-name="Mebsuta"></circle><circle cx="812" cy="452" r="0.507000" fill="#ffdbad" d-star-name="Ukdah"></circle><circle cx="803" cy="381" r="0.666030" fill="#ffdeb4" d-star-name="Al Minlear al Asad"></circle><circle cx="821" cy="381" r="0.501813" fill="#ffdeb4" d-star-name="Rasalas"></circle><circle cx="743" cy="513" r="0.371853" fill="#ffdeb4" d-star-name="Azmidi"></circle><circle cx="774" cy="441" r="0.660083" fill="#ffdeb4" d-star-name="Minchir"></circle><circle cx="764" cy="635" r="0.115320" fill="#ffdfb6" d-star-name="Avior"></circle><circle cx="891" cy="312" r="0.453870" fill="#ffdfb7" d-star-name="Taiyangshou"></circle><circle cx="775" cy="237" r="0.702270" fill="#ffdfb7" d-star-name="Museida"></circle><circle cx="639" cy="336" r="0.453870" fill="#ffe0b9" d-star-name="Saclateni"></circle><circle cx="838" cy="398" r="0.134670" fill="#ffe1bb" d-star-name="Algieba"></circle><circle cx="875" cy="486" r="0.422453" fill="#ffe2bc" d-star-name="Labr"></circle><circle cx="778" cy="403" r="0.517453" fill="#ffe3be" d-star-name="Asellus Australis"></circle><circle cx="862" cy="495" r="0.554880" fill="#ffe3bf" d-star-name="Alkes"></circle><circle cx="865" cy="251" r="0.109203" fill="#ffe3c0" d-star-name="Dubhe"></circle><circle cx="858" cy="358" r="0.478803" fill="#ffe4c2" d-star-name="Praecipua"></circle><circle cx="729" cy="376" r="0.476280" fill="#ffe5c3" d-star-name="Propus"></circle><circle cx="779" cy="374" r="0.541363" fill="#ffe5c5" d-star-name="Zubanah"></circle><circle cx="805" cy="320" r="0.972000" fill="#ffe6c6" d-star-name="Intercrus"></circle><circle cx="741" cy="376" r="0.044853" fill="#ffe6c6" d-star-name="Pollux"></circle><circle cx="793" cy="392" r="0.887520" fill="#ffe7c8" d-star-name="Nahn"></circle><circle cx="820" cy="486" r="0.563070" fill="#ffe8cc" d-star-name="Zhang"></circle><circle cx="783" cy="375" r="1.184053" fill="#ffead1" d-star-name="Copernicus"></circle><circle cx="769" cy="256" r="0.374083" fill="#ffead2" d-star-name="Muscida"></circle><circle cx="816" cy="388" r="0.294030" fill="#ffecd6" d-star-name="Algenubi"></circle><circle cx="655" cy="502" r="0.263203" fill="#ffecd6" d-star-name="Nihal"></circle><circle cx="648" cy="319" r="0.000213" fill="#ffecd7" d-star-name="Capella"></circle><circle cx="779" cy="433" r="0.380813" fill="#fff0e2" d-star-name="Ashlesha"></circle><circle cx="862" cy="338" r="0.843363" fill="#fff2e8" d-star-name="Chalawan"></circle><circle cx="775" cy="233" r="1.056563" fill="#fff2e8" d-star-name="Muscida"></circle><circle cx="874" cy="366" r="0.478803" fill="#fff3e9" d-star-name="Alula Australis"></circle><circle cx="639" cy="327" r="0.306030" fill="#fff5f0" d-star-name="Almaaz"></circle><circle cx="758" cy="404" r="0.726963" fill="#fff5f1" d-star-name="Tegmine"></circle><circle cx="813" cy="424" r="0.413013" fill="#fff6f3" d-star-name="Subra"></circle><circle cx="797" cy="550" r="0.714563" fill="#fff7f7" d-star-name="Markeb"></circle><circle cx="755" cy="512" r="0.266963" fill="#fff8f9" d-star-name="Tureis"></circle><circle cx="703" cy="416" r="0.374083" fill="#fff8fa" d-star-name="Alzirr"></circle><circle cx="737" cy="436" r="0.005333" fill="#fff9fc" d-star-name="Procyon"></circle><circle cx="737" cy="357" r="0.797070" fill="#fff9fe" d-star-name="Jishui"></circle><circle cx="806" cy="456" r="0.702270" fill="#fffafe" d-star-name="Ukdah"></circle><circle cx="835" cy="389" r="0.392163" fill="#f5f3ff" d-star-name="Adhafera"></circle><circle cx="793" cy="298" r="0.663053" fill="#f3f2ff" d-star-name="Alhaud"></circle><circle cx="787" cy="311" r="0.324480" fill="#ecedff" d-star-name="Talitha"></circle><circle cx="658" cy="494" r="0.221880" fill="#ebedff" d-star-name="Arneb"></circle><circle cx="646" cy="344" r="0.774413" fill="#e8ebff" d-star-name="Alhiba"></circle><circle cx="798" cy="634" r="0.162803" fill="#e8ebff" d-star-name="Aspidiske"></circle><circle cx="690" cy="605" r="0.012813" fill="#e5e9ff" d-star-name="Canopus"></circle><circle cx="642" cy="462" r="0.257613" fill="#e5e9ff" d-star-name="Cursa"></circle><circle cx="787" cy="419" r="0.604920" fill="#e3e8ff" d-star-name="Acubens"></circle><circle cx="871" cy="396" r="0.218453" fill="#e2e7ff" d-star-name="Zosma"></circle><circle cx="893" cy="412" r="0.152653" fill="#dde4ff" d-star-name="Denebola"></circle><circle cx="796" cy="696" r="0.092963" fill="#dbe3ff" d-star-name="Miaplacidus"></circle><circle cx="778" cy="613" r="0.124163" fill="#d8e1ff" d-star-name="Alsephina"></circle><circle cx="734" cy="365" r="0.083213" fill="#d7e0ff" d-star-name="Castor"></circle><circle cx="864" cy="277" r="0.182520" fill="#d7e0ff" d-star-name="Merak"></circle><circle cx="836" cy="330" r="0.396750" fill="#d7e0ff" d-star-name="Tania Borealis"></circle><circle cx="870" cy="508" r="0.663053" fill="#d6e0ff" d-star-name="Al Sharasif"></circle><circle cx="777" cy="394" r="0.723853" fill="#d5dfff" d-star-name="Asellus Borealis"></circle><circle cx="703" cy="491" r="0.069120" fill="#d5deff" d-star-name="Sirius"></circle><circle cx="790" cy="315" r="0.424830" fill="#d4deff" d-star-name="Alkaphrah"></circle><circle cx="774" cy="435" r="0.571320" fill="#d4deff" d-star-name="Minazal"></circle><circle cx="699" cy="407" r="0.124163" fill="#d4deff" d-star-name="Alhena"></circle><circle cx="871" cy="410" r="0.369630" fill="#d1ddff" d-star-name="Chertan"></circle><circle cx="647" cy="469" r="0.001080" fill="#cbd9ff" d-star-name="Rigel"></circle><circle cx="830" cy="406" r="0.403680" fill="#cbd9ff" d-star-name="Al Jabhah"></circle><circle cx="763" cy="387" r="1.168213" fill="#cad7ff" d-star-name="Piautos"></circle><circle cx="728" cy="526" r="0.200083" fill="#c2d1ff" d-star-name="Aludra"></circle><circle cx="830" cy="419" r="0.061653" fill="#c1d0ff" d-star-name="Regulus"></circle><circle cx="729" cy="428" r="0.278403" fill="#bfcfff" d-star-name="Gomeisa"></circle><circle cx="693" cy="397" r="0.568563" fill="#bcccff" d-star-name="Nucatai"></circle><circle cx="654" cy="374" r="0.090750" fill="#bacaff" d-star-name="Elnath"></circle><circle cx="801" cy="614" r="0.203363" fill="#b8c9ff" d-star-name="Markeb"></circle><circle cx="756" cy="584" r="0.102083" fill="#b8c8ff" d-star-name="Regor"></circle><circle cx="642" cy="335" r="0.337080" fill="#b7c8ff" d-star-name="Haedus"></circle><circle cx="813" cy="485" r="0.856830" fill="#b7c8ff" d-star-name="Al Sharasif"></circle><circle cx="659" cy="425" r="0.642403" fill="#b6c7ff" d-star-name="Heka"></circle><circle cx="737" cy="519" r="0.481333" fill="#b6c7ff" d-star-name="Markab"></circle><circle cx="659" cy="424" r="0.383070" fill="#b6c6ff" d-star-name="Meissa"></circle><circle cx="688" cy="528" r="0.304013" fill="#b6c6ff" d-star-name="Furud"></circle><circle cx="638" cy="467" r="0.768000" fill="#b5c6ff" d-star-name="Kursi al Jauzah"></circle><circle cx="657" cy="450" r="0.168750" fill="#b3c5ff" d-star-name="Mintaka"></circle><circle cx="653" cy="433" r="0.089653" fill="#adbfff" d-star-name="Bellatrix"></circle><circle cx="653" cy="455" r="0.374083" fill="#abbeff" d-star-name="Saif al Jabbar"></circle><circle cx="689" cy="495" r="0.130680" fill="#abbeff" d-star-name="Mirzam"></circle><circle cx="657" cy="467" r="0.711480" fill="#a8bcff" d-star-name="Thabit"></circle><circle cx="659" cy="462" r="0.826680" fill="#000" d-star-name="Trapezium"></circle><circle cx="557" cy="279" r="0.473763" fill="#ffcb84" d-star-name="Miram"></circle><circle cx="564" cy="439" r="0.215053" fill="#ffd093" d-star-name="Menkar"></circle><circle cx="575" cy="505" r="0.456333" fill="#ffd196" d-star-name="Angetenar"></circle><circle cx="599" cy="483" r="0.294030" fill="#ffd29b" d-star-name="Zaurak"></circle><circle cx="493" cy="353" r="0.142830" fill="#ffd29c" d-star-name="Mirach"></circle><circle cx="622" cy="407" r="0.025230" fill="#ffd3a0" d-star-name="Aldebaran"></circle><circle cx="566" cy="343" r="0.367413" fill="#ffd4a0" d-star-name="Gorgonea Tertia"></circle><circle cx="480" cy="430" r="0.657120" fill="#ffd4a1" d-star-name="Kuton"></circle><circle cx="672" cy="430" r="0.006750" fill="#ffd4a1" d-star-name="Betelgeuse"></circle><circle cx="636" cy="361" r="0.241203" fill="#ffd5a1" d-star-name="Hassaleh"></circle><circle cx="615" cy="539" r="0.525363" fill="#ffd6a3" d-star-name="Beemim"></circle><circle cx="527" cy="332" r="0.147000" fill="#ffd9a9" d-star-name="Almach"></circle><circle cx="511" cy="309" r="0.429603" fill="#ffdcb0" d-star-name="Nembus"></circle><circle cx="462" cy="471" r="0.422453" fill="#ffdeb4" d-star-name="Deneb Kaitos Shemali"></circle><circle cx="475" cy="277" r="0.167253" fill="#ffe0b8" d-star-name="Shedar"></circle><circle cx="493" cy="474" r="0.399053" fill="#ffe0b8" d-star-name="Dheneb"></circle><circle cx="529" cy="388" r="0.134670" fill="#ffe0b9" d-star-name="Hamal"></circle><circle cx="613" cy="378" r="0.823363" fill="#ffe0b9" d-star-name="Alkalbain"></circle><circle cx="669" cy="545" r="0.324480" fill="#ffe1b9" d-star-name="Wazn"></circle><circle cx="520" cy="475" r="0.466253" fill="#ffe1ba" d-star-name="Baten Kaitos"></circle><circle cx="569" cy="341" r="0.708403" fill="#ffe2bc" d-star-name="Gorgonea Quarta"></circle><circle cx="555" cy="372" r="0.681013" fill="#ffe2bc" d-star-name="Lilii Borea"></circle><circle cx="560" cy="471" r="0.504403" fill="#ffe3be" d-star-name="Azha"></circle><circle cx="466" cy="566" r="0.192000" fill="#ffe3be" d-star-name="Ankaa"></circle><circle cx="624" cy="485" r="0.496653" fill="#ffe3be" d-star-name="Sceptrum"></circle><circle cx="501" cy="321" r="0.790563" fill="#ffe3bf" d-star-name="Adhil"></circle><circle cx="502" cy="469" r="0.432000" fill="#ffe3c0" d-star-name="Al Naymat"></circle><circle cx="563" cy="468" r="1.102083" fill="#ffe4c2" d-star-name="Aludhi"></circle><circle cx="536" cy="272" r="1.196003" fill="#ffe4c2" d-star-name="Misam al Thurayya"></circle><circle cx="570" cy="399" r="0.630750" fill="#ffe4c2" d-star-name="Botein"></circle><circle cx="477" cy="495" r="0.138720" fill="#ffe5c4" d-star-name="Diphda"></circle><circle cx="618" cy="400" r="0.415363" fill="#ffe5c4" d-star-name="Ain"></circle><circle cx="506" cy="315" r="0.925763" fill="#ffe6c5" d-star-name="Thail"></circle><circle cx="477" cy="476" r="0.758430" fill="#ffe6c5" d-star-name="Alnitham"></circle><circle cx="670" cy="502" r="0.471253" fill="#ffe6c7" d-star-name="Arsh al Jauzah"></circle><circle cx="614" cy="404" r="0.473763" fill="#ffe6c7" d-star-name="Secunda Hyadum"></circle><circle cx="612" cy="409" r="0.444083" fill="#ffe6c7" d-star-name="Prima Hyadum"></circle><circle cx="568" cy="323" r="0.478803" fill="#ffe6c7" d-star-name="Misam"></circle><circle cx="507" cy="410" r="0.436813" fill="#ffe6c7" d-star-name="Alpherg"></circle><circle cx="621" cy="527" r="0.672003" fill="#ffe6c8" d-star-name="Beemim"></circle><circle cx="485" cy="264" r="0.711480" fill="#ffe7c9" d-star-name="Castula"></circle><circle cx="622" cy="529" r="0.483870" fill="#ffe7c9" d-star-name="Theemin"></circle><circle cx="516" cy="426" r="0.604920" fill="#ffe7ca" d-star-name="Torcular"></circle><circle cx="589" cy="473" r="0.413013" fill="#ffe8cc" d-star-name="Rana"></circle><circle cx="557" cy="503" r="0.755253" fill="#ffe9cd" d-star-name="Angetenar"></circle><circle cx="583" cy="473" r="0.461280" fill="#ffeacf" d-star-name="Ran"></circle><circle cx="533" cy="427" r="0.633653" fill="#ffead0" d-star-name="Al Kaff al Jidhmah"></circle><circle cx="678" cy="389" r="0.576853" fill="#ffebd4" d-star-name="Propus"></circle><circle cx="609" cy="468" r="0.654163" fill="#ffecd5" d-star-name="Keid"></circle><circle cx="493" cy="284" r="0.890963" fill="#fff0e0" d-star-name="Marfak"></circle><circle cx="NaN" cy="NaN" r="0.129363" fill="#fff2e6" d-star-name="Polaris"></circle><circle cx="481" cy="271" r="0.399053" fill="#fff4eb" d-star-name="Achird"></circle><circle cx="570" cy="525" r="0.481333" fill="#fff5f0" d-star-name="Dalim"></circle><circle cx="510" cy="335" r="0.560333" fill="#fff5f1" d-star-name="Titawin"></circle><circle cx="521" cy="371" r="0.389880" fill="#fff7f6" d-star-name="Mothallah"></circle><circle cx="631" cy="431" r="0.339203" fill="#fff7f6" d-star-name="Tabit"></circle><circle cx="578" cy="305" r="0.106803" fill="#fff7f6" d-star-name="Mirfak"></circle><circle cx="665" cy="507" r="0.429603" fill="#fff7f6" d-star-name="Kursi al Jabbar"></circle><circle cx="456" cy="264" r="0.173280" fill="#fdf8ff" d-star-name="Caph"></circle><circle cx="607" cy="466" r="0.544053" fill="#f7f5ff" d-star-name="Beid"></circle><circle cx="496" cy="430" r="0.904803" fill="#f6f4ff" d-star-name="Revati"></circle><circle cx="596" cy="365" r="0.268853" fill="#f1f1ff" d-star-name="Atik"></circle><circle cx="572" cy="471" r="0.768000" fill="#edeeff" d-star-name="Zibal"></circle><circle cx="618" cy="409" r="0.385333" fill="#e7eaff" d-star-name="Chamukuy"></circle><circle cx="494" cy="283" r="0.627853" fill="#e6eaff" d-star-name="Marfak"></circle><circle cx="522" cy="396" r="0.232320" fill="#e6e9ff" d-star-name="Sheratan"></circle><circle cx="503" cy="259" r="0.235853" fill="#e5e9ff" d-star-name="Ruchbah"></circle><circle cx="531" cy="355" r="0.300000" fill="#e3e8ff" d-star-name="Mizan"></circle><circle cx="561" cy="559" r="0.276480" fill="#e2e7ff" d-star-name="Acamar"></circle><circle cx="634" cy="420" r="0.894413" fill="#e1e6ff" d-star-name="Manica"></circle><circle cx="552" cy="441" r="0.401363" fill="#dee4ff" d-star-name="Kaffaljidhma"></circle><circle cx="550" cy="379" r="0.936333" fill="#dce4ff" d-star-name="Barani"></circle><circle cx="675" cy="323" r="0.120333" fill="#dce3ff" d-star-name="Menkalinan"></circle><circle cx="562" cy="341" r="0.730080" fill="#dbe2ff" d-star-name="Gorgonea Secunda"></circle><circle cx="526" cy="442" r="0.486413" fill="#d6e0ff" d-star-name="Alrescha"></circle><circle cx="590" cy="363" r="0.491520" fill="#d6dfff" d-star-name="Atik"></circle><circle cx="659" cy="462" r="0.877230" fill="#d6dfff" d-star-name="Becklin's Star"></circle><circle cx="599" cy="353" r="0.528013" fill="#d5dfff" d-star-name="Menkib"></circle><circle cx="632" cy="427" r="0.630750" fill="#d5dfff" d-star-name="Al Taj"></circle><circle cx="568" cy="336" r="0.145603" fill="#d1ddff" d-star-name="Algol"></circle><circle cx="551" cy="398" r="1.098253" fill="#cedbff" d-star-name="Koleon"></circle><circle cx="605" cy="313" r="0.522720" fill="#ccdaff" d-star-name="Nembus"></circle><circle cx="541" cy="480" r="0.793813" fill="#ccd9ff" d-star-name="Sadr al Kaitos"></circle><circle cx="590" cy="386" r="0.990083" fill="#cbd8ff" d-star-name="Celaeno"></circle><circle cx="591" cy="385" r="1.105920" fill="#cad8ff" d-star-name="Asterope"></circle><circle cx="455" cy="373" r="0.142830" fill="#cad8ff" d-star-name="Alpheratz"></circle><circle cx="485" cy="257" r="0.154083" fill="#c8d6ff" d-star-name="Navi"></circle><circle cx="521" cy="400" r="0.501813" fill="#c8d6ff" d-star-name="Mesarthim"></circle><circle cx="591" cy="387" r="0.571320" fill="#c7d5ff" d-star-name="Merope"></circle><circle cx="591" cy="386" r="0.499230" fill="#c5d4ff" d-star-name="Maia"></circle><circle cx="556" cy="404" r="0.922253" fill="#c5d3ff" d-star-name="Al Butain"></circle><circle cx="593" cy="387" r="0.436813" fill="#c4d3ff" d-star-name="Atlas"></circle><circle cx="593" cy="387" r="0.850083" fill="#c2d1ff" d-star-name="Pleione"></circle><circle cx="675" cy="348" r="0.234083" fill="#c2d1ff" d-star-name="Mahasim"></circle><circle cx="592" cy="387" r="0.270750" fill="#c1d0ff" d-star-name="Alcyone"></circle><circle cx="680" cy="549" r="0.833333" fill="#c0cfff" d-star-name="Elkurud"></circle><circle cx="556" cy="378" r="0.434403" fill="#bfceff" d-star-name="Bharani"></circle><circle cx="590" cy="387" r="0.461280" fill="#beceff" d-star-name="Electra"></circle><circle cx="611" cy="539" r="0.420083" fill="#becdff" d-star-name="Beemim"></circle><circle cx="562" cy="426" r="0.739470" fill="#bdcdff" d-star-name="Menkar"></circle><circle cx="591" cy="386" r="0.616333" fill="#bdcdff" d-star-name="Taygeta"></circle><circle cx="493" cy="615" r="0.517453" fill="#bccbff" d-star-name="Wurren"></circle><circle cx="662" cy="540" r="0.234083" fill="#bccbff" d-star-name="Phact"></circle><circle cx="661" cy="395" r="0.294030" fill="#b7c8ff" d-star-name="Tianguan"></circle><circle cx="521" cy="241" r="0.374083" fill="#b7c8ff" d-star-name="Segin"></circle><circle cx="511" cy="624" r="0.006750" fill="#b6c7ff" d-star-name="Achernar"></circle><circle cx="667" cy="473" r="0.142830" fill="#b4c5ff" d-star-name="Saiph"></circle><circle cx="660" cy="461" r="0.699213" fill="#b2c4ff" d-star-name="Mizan Batil"></circle><circle cx="660" cy="452" r="0.095203" fill="#b2c4ff" d-star-name="Alnilam"></circle><circle cx="458" cy="410" r="0.266963" fill="#b1c3ff" d-star-name="Algenib"></circle><circle cx="473" cy="288" r="0.453870" fill="#b0c2ff" d-star-name="Fulu"></circle><circle cx="663" cy="454" r="0.100920" fill="#b0c2ff" d-star-name="Alnitak"></circle><circle cx="660" cy="464" r="0.252083" fill="#afc1ff" d-star-name="Hatysa"></circle><circle cx="28" cy="321" r="0.979213" fill="#ff00" d-star-name="La Superba"></circle><circle cx="364" cy="266" r="0.596430" fill="#ff00" d-star-name="The Garnet Star"></circle><circle cx="168" cy="517" r="0.037453" fill="#ff9937" d-star-name="Antares"></circle><circle cx="709" cy="511" r="0.504403" fill="#ffc173" d-star-name="Udra"></circle><circle cx="714" cy="522" r="0.406003" fill="#ffc477" d-star-name="Unurgunite"></circle><circle cx="115" cy="514" r="0.352083" fill="#ffcd89" d-star-name="Brachium"></circle><circle cx="415" cy="376" r="0.198453" fill="#ffcf8e" d-star-name="Scheat"></circle><circle cx="301" cy="521" r="0.654163" fill="#ffd091" d-star-name="Terebellum"></circle><circle cx="408" cy="468" r="0.463763" fill="#ffd194" d-star-name="Hydor"></circle><circle cx="143" cy="403" r="0.557603" fill="#ffd196" d-star-name="Gudja"></circle><circle cx="401" cy="582" r="0.142830" fill="#ffd197" d-star-name="Tiaki"></circle><circle cx="19" cy="624" r="0.084270" fill="#ffd199" d-star-name="Gacrux"></circle><circle cx="116" cy="490" r="0.897870" fill="#ffd19a" d-star-name="Zuben Hakrabi"></circle><circle cx="159" cy="458" r="0.248430" fill="#ffd29b" d-star-name="Yed Prior"></circle><circle cx="236" cy="548" r="0.320333" fill="#ffd29b" d-star-name="Hamalwarid"></circle><circle cx="34" cy="440" r="0.383070" fill="#ffd29d" d-star-name="Minelauva"></circle><circle cx="29" cy="222" r="0.982830" fill="#ffd29d" d-star-name="Tianyi"></circle><circle cx="319" cy="307" r="0.986453" fill="#ffd29d" d-star-name="Ruchba"></circle><circle cx="223" cy="298" r="0.167253" fill="#ffd4a0" d-star-name="Eltanin"></circle><circle cx="365" cy="424" r="0.188813" fill="#ffd4a0" d-star-name="Enif"></circle><circle cx="291" cy="422" r="0.246613" fill="#ffd4a1" d-star-name="Tarazed"></circle><circle cx="280" cy="385" r="0.657120" fill="#ffd4a1" d-star-name="Anser"></circle><circle cx="106" cy="166" r="0.142830" fill="#ffd6a3" d-star-name="Kochab"></circle><circle cx="298" cy="520" r="0.687053" fill="#ffd6a3" d-star-name="Terebellum"></circle><circle cx="180" cy="691" r="0.121603" fill="#ffd6a4" d-star-name="Atria"></circle><circle cx="378" cy="436" r="0.787320" fill="#ffd6a4" d-star-name="Fum al Faras"></circle><circle cx="206" cy="381" r="0.648270" fill="#ffd7a5" d-star-name="Maasym"></circle><circle cx="259" cy="507" r="0.787320" fill="#ffd7a6" d-star-name="Ainalrami"></circle><circle cx="184" cy="566" r="0.436813" fill="#ffd8a8" d-star-name="Grafias"></circle><circle cx="13" cy="640" r="0.429603" fill="#ffd8a8" d-star-name="Ginan"></circle><circle cx="238" cy="527" r="0.246613" fill="#ffd9a8" d-star-name="Kaus Media"></circle><circle cx="123" cy="186" r="0.840013" fill="#ffd9a9" d-star-name="Pherkad Minor"></circle><circle cx="6" cy="507" r="0.304013" fill="#ffdaac" d-star-name="Minkar"></circle><circle cx="83" cy="475" r="0.582413" fill="#ffdbac" d-star-name="Kang"></circle><circle cx="115" cy="379" r="0.681013" fill="#ffddb2" d-star-name="Aulad Alnathlat"></circle><circle cx="84" cy="400" r="0.000083" fill="#ffddb2" d-star-name="Arcturus"></circle><circle cx="218" cy="549" r="0.339203" fill="#ffdfb6" d-star-name="Fuyue"></circle><circle cx="710" cy="484" r="0.833333" fill="#ffdfb7" d-star-name="Isis"></circle><circle cx="241" cy="230" r="0.774413" fill="#ffdfb7" d-star-name="Fafnir"></circle><circle cx="221" cy="275" r="0.463763" fill="#ffdfb7" d-star-name="Grumium"></circle><circle cx="214" cy="437" r="0.253920" fill="#ffe0b8" d-star-name="Cebalrai"></circle><circle cx="140" cy="433" r="0.230563" fill="#ffe0b8" d-star-name="Unukalhai"></circle><circle cx="128" cy="265" r="0.360803" fill="#ffe0b8" d-star-name="Edasich"></circle><circle cx="196" cy="412" r="0.257613" fill="#ffe0b8" d-star-name="Rasalgethi"></circle><circle cx="259" cy="190" r="0.774413" fill="#ffe0b9" d-star-name="Athafi"></circle><circle cx="181" cy="540" r="0.174803" fill="#ffe1ba" d-star-name="Larawag"></circle><circle cx="398" cy="459" r="0.846720" fill="#ffe1ba" d-star-name="Situla"></circle><circle cx="16" cy="375" r="0.630750" fill="#ffe1bb" d-star-name="Al Dafirah"></circle><circle cx="281" cy="376" r="0.310083" fill="#ffe3be" d-star-name="Albireo"></circle><circle cx="262" cy="411" r="0.538680" fill="#ffe3be" d-star-name="Deneb al Okab Borealis"></circle><circle cx="207" cy="213" r="0.856830" fill="#ffe3bf" d-star-name="Adfar Aldib"></circle><circle cx="404" cy="388" r="0.525363" fill="#ffe3bf" d-star-name="Sadalnazi"></circle><circle cx="329" cy="408" r="0.607763" fill="#ffe4c2" d-star-name="Al Salib"></circle><circle cx="437" cy="130" r="0.343470" fill="#ffe4c3" d-star-name="Errai"></circle><circle cx="3" cy="139" r="1.113613" fill="#ffe5c3" d-star-name="Tonatiuh"></circle><circle cx="432" cy="342" r="0.908280" fill="#ffe5c3" d-star-name="Veritate"></circle><circle cx="242" cy="515" r="0.265080" fill="#ffe5c3" d-star-name="Kaus Borealis"></circle><circle cx="296" cy="428" r="0.739470" fill="#ffe5c3" d-star-name="Libertas"></circle><circle cx="329" cy="358" r="0.205013" fill="#ffe5c3" d-star-name="Aljanah"></circle><circle cx="265" cy="505" r="0.471253" fill="#ffe5c4" d-star-name="Manubrij"></circle><circle cx="79" cy="547" r="0.141453" fill="#ffe5c4" d-star-name="Menkent"></circle><circle cx="134" cy="486" r="0.509603" fill="#ffe5c5" d-star-name="Zubenelhakrabi"></circle><circle cx="354" cy="506" r="0.473763" fill="#ffe5c5" d-star-name="Yen"></circle><circle cx="323" cy="583" r="0.322403" fill="#ffe6c5" d-star-name="Persian"></circle><circle cx="270" cy="216" r="0.314163" fill="#ffe6c6" d-star-name="Altais"></circle><circle cx="224" cy="473" r="0.367413" fill="#ffe6c6" d-star-name="Sinistra"></circle><circle cx="228" cy="529" r="0.296013" fill="#ffe6c7" d-star-name="Alnasl"></circle><circle cx="385" cy="468" r="0.579630" fill="#ffe6c7" d-star-name="Ancha"></circle><circle cx="378" cy="450" r="0.290083" fill="#ffe7c8" d-star-name="Sadalmelik"></circle><circle cx="103" cy="378" r="0.184083" fill="#ffe7c8" d-star-name="Izar"></circle><circle cx="161" cy="461" r="0.347763" fill="#ffe7c8" d-star-name="Yed Posterior"></circle><circle cx="122" cy="360" r="0.399053" fill="#ffe7c9" d-star-name="Thiba"></circle><circle cx="113" cy="338" r="0.406003" fill="#ffe7c9" d-star-name="Nekkar"></circle><circle cx="206" cy="295" r="0.259470" fill="#ffe7c9" d-star-name="Rastaban"></circle><circle cx="273" cy="290" r="0.481333" fill="#ffe7c9" d-star-name="Fawaris"></circle><circle cx="169" cy="394" r="0.257613" fill="#ffe7ca" d-star-name="Kornephoros"></circle><circle cx="38" cy="421" r="0.270750" fill="#ffe8cb" d-star-name="Vindemiatrix"></circle><circle cx="336" cy="422" r="1.012003" fill="#ffe8cb" d-star-name="Musica"></circle><circle cx="406" cy="385" r="0.410670" fill="#ffe8cb" d-star-name="Sadalbari"></circle><circle cx="155" cy="406" r="0.833333" fill="#ffe8cb" d-star-name="Marsic"></circle><circle cx="311" cy="480" r="0.616333" fill="#ffe8cb" d-star-name="Prima Giedi"></circle><circle cx="343" cy="478" r="0.675000" fill="#ffe8cc" d-star-name="Albulaan"></circle><circle cx="328" cy="251" r="0.387603" fill="#ffe8cd" d-star-name="Kabalfird"></circle><circle cx="165" cy="252" r="0.248430" fill="#ffe9cd" d-star-name="Athebyne"></circle><circle cx="99" cy="642" r="0.060750" fill="#ffe9ce" d-star-name="Toliman"></circle><circle cx="715" cy="396" r="0.536003" fill="#ffe9ce" d-star-name="Mekbuda"></circle><circle cx="178" cy="67" r="0.590803" fill="#ffe9ce" d-star-name="Circitores"></circle><circle cx="21" cy="509" r="0.234083" fill="#ffe9ce" d-star-name="Kraz"></circle><circle cx="292" cy="198" r="0.491520" fill="#ffe9cf" d-star-name="Tyl"></circle><circle cx="136" cy="338" r="0.918750" fill="#ffe9cf" d-star-name="Ceginus"></circle><circle cx="311" cy="481" r="0.427213" fill="#ffe9cf" d-star-name="Algedi"></circle><circle cx="299" cy="517" r="0.780853" fill="#ffeacf" d-star-name="Terebellum"></circle><circle cx="197" cy="518" r="0.624963" fill="#ffead2" d-star-name="Guniibuu"></circle><circle cx="297" cy="433" r="0.458803" fill="#ffead2" d-star-name="Alshain"></circle><circle cx="402" cy="370" r="0.286163" fill="#ffebd2" d-star-name="Matar"></circle><circle cx="357" cy="463" r="0.280333" fill="#ffebd4" d-star-name="Sadalsuud"></circle><circle cx="313" cy="486" r="0.310083" fill="#ffedd8" d-star-name="Dabih"></circle><circle cx="282" cy="203" r="0.726963" fill="#ffedd8" d-star-name="Alsafi"></circle><circle cx="287" cy="403" r="0.642403" fill="#ffedd9" d-star-name="Sham"></circle><circle cx="228" cy="526" r="0.723853" fill="#ffedd9" d-star-name="Nash"></circle><circle cx="297" cy="517" r="0.736333" fill="#ffeedc" d-star-name="Terebellum"></circle><circle cx="99" cy="642" r="0.000003" fill="#ffefdf" d-star-name="Rigil Kentaurus"></circle><circle cx="215" cy="601" r="0.873813" fill="#fff0e1" d-star-name="Cervantes"></circle><circle cx="92" cy="454" r="0.771203" fill="#fff0e1" d-star-name="Elgafar"></circle><circle cx="32" cy="377" r="0.810163" fill="#fff0e2" d-star-name="Polaris Galacticus Borealis"></circle><circle cx="314" cy="339" r="0.165763" fill="#fff1e3" d-star-name="Sadr"></circle><circle cx="718" cy="517" r="0.111630" fill="#fff1e3" d-star-name="Wezen"></circle><circle cx="411" cy="396" r="0.990083" fill="#fff1e4" d-star-name="Helvetios"></circle><circle cx="175" cy="365" r="0.263203" fill="#fff1e5" d-star-name="Rutilicus"></circle><circle cx="295" cy="446" r="0.499230" fill="#fff2e7" d-star-name="Tarazed"></circle><circle cx="428" cy="389" r="0.651213" fill="#fff3e8" d-star-name="Alkarab"></circle><circle cx="143" cy="375" r="1.156403" fill="#fff3e9" d-star-name="Variabilis Coronae"></circle><circle cx="21" cy="335" r="0.599253" fill="#fff4eb" d-star-name="Chara"></circle><circle cx="71" cy="402" r="0.239413" fill="#fff4ec" d-star-name="Muphrid"></circle><circle cx="272" cy="514" r="0.787320" fill="#fff4ed" d-star-name="Al Kiladah"></circle><circle cx="347" cy="436" r="0.512213" fill="#fff5ef" d-star-name="Kitalpha"></circle><circle cx="213" cy="183" r="1.125203" fill="#fff5f1" d-star-name="Dsiban"></circle><circle cx="894" cy="444" r="0.429603" fill="#fff6f2" d-star-name="Zavijava"></circle><circle cx="85" cy="464" r="0.552163" fill="#fff6f3" d-star-name="Syrma"></circle><circle cx="217" cy="559" r="0.298003" fill="#fff6f3" d-star-name="Girtab"></circle><circle cx="404" cy="418" r="0.588000" fill="#fff6f4" d-star-name="Suudalnujum"></circle><circle cx="90" cy="297" r="0.544053" fill="#fff7f5" d-star-name="Asellus Primus"></circle><circle cx="238" cy="179" r="0.420083" fill="#fff7f5" d-star-name="Alahakan"></circle><circle cx="105" cy="319" r="1.105920" fill="#fff7f6" d-star-name="Merga"></circle><circle cx="366" cy="254" r="0.602083" fill="#fff7f7" d-star-name="Castula"></circle><circle cx="191" cy="286" r="0.803603" fill="#fff7f7" d-star-name="Alrakis"></circle><circle cx="152" cy="478" r="0.576853" fill="#fff8f9" d-star-name="Grafias"></circle><circle cx="43" cy="404" r="0.622080" fill="#fff8f9" d-star-name="Diadem"></circle><circle cx="213" cy="184" r="0.696163" fill="#fff9fb" d-star-name="Dziban"></circle><circle cx="210" cy="209" r="0.758430" fill="#fff9fc" d-star-name="Al Dhih"></circle><circle cx="329" cy="514" r="0.568563" fill="#fff9fc" d-star-name="Wei"></circle><circle cx="323" cy="412" r="0.441653" fill="#fff9fc" d-star-name="Rotanev"></circle><circle cx="211" cy="568" r="0.115320" fill="#fffafe" d-star-name="Sargas"></circle><circle cx="393" cy="449" r="0.444083" fill="#fffafe" d-star-name="Sadaltager"></circle><circle cx="106" cy="489" r="0.884083" fill="#fffaff" d-star-name="Zubenelgenubi"></circle><circle cx="200" cy="503" r="0.642403" fill="#fef9ff" d-star-name="Aggia"></circle><circle cx="161" cy="151" r="0.816750" fill="#fef9ff" d-star-name="Anwa Farkadain"></circle><circle cx="225" cy="458" r="0.711480" fill="#fef9ff" d-star-name="Alava"></circle><circle cx="102" cy="463" r="0.499230" fill="#fdf9ff" d-star-name="Rijl al Awwa"></circle><circle cx="377" cy="235" r="0.604920" fill="#fdf8ff" d-star-name="Kurhah"></circle><circle cx="268" cy="503" r="0.276480" fill="#fdf8ff" d-star-name="Albaldah"></circle><circle cx="311" cy="346" r="0.758430" fill="#fdf8ff" d-star-name="Revenant of the Swan"></circle><circle cx="725" cy="392" r="0.408333" fill="#fcf8ff" d-star-name="Wasat"></circle><circle cx="26" cy="452" r="0.250253" fill="#fcf8ff" d-star-name="Porrima"></circle><circle cx="277" cy="574" r="0.607763" fill="#faf6ff" d-star-name="Arkab Posterior"></circle><circle cx="5" cy="513" r="0.538680" fill="#f8f5ff" d-star-name="Alchiba"></circle><circle cx="333" cy="471" r="0.745763" fill="#f7f5ff" d-star-name="Albulan"></circle><circle cx="362" cy="491" r="0.453870" fill="#f6f4ff" d-star-name="Nashira"></circle><circle cx="130" cy="373" r="0.446520" fill="#f6f4ff" d-star-name="Nusakan"></circle><circle cx="278" cy="441" r="0.376320" fill="#f6f4ff" d-star-name="Almizan"></circle><circle cx="127" cy="348" r="0.619203" fill="#f5f4ff" d-star-name="Alkalurops"></circle><circle cx="34" cy="230" r="0.911763" fill="#f4f3ff" d-star-name="Taiyi"></circle><circle cx="327" cy="411" r="0.654163" fill="#f4f3ff" d-star-name="Al Ukud"></circle><circle cx="163" cy="515" r="0.280333" fill="#f4f3ff" d-star-name="Alniyat"></circle><circle cx="NaN" cy="NaN" r="0.990083" fill="#f2f2ff" d-star-name="Polaris Australis"></circle><circle cx="207" cy="283" r="0.787320" fill="#f2f1ff" d-star-name="Kuma"></circle><circle cx="134" cy="422" r="0.481333" fill="#f1f1ff" d-star-name="Nasak Yamani"></circle><circle cx="219" cy="559" r="0.761613" fill="#f0f0ff" d-star-name="Vanant"></circle><circle cx="349" cy="247" r="0.200083" fill="#f0f0ff" d-star-name="Alderamin"></circle><circle cx="207" cy="283" r="0.797070" fill="#efefff" d-star-name="Kuma"></circle><circle cx="85" cy="299" r="0.752083" fill="#edeeff" d-star-name="Asellus Secundus"></circle><circle cx="83" cy="297" r="0.684030" fill="#edeeff" d-star-name="Asellus Tertius"></circle><circle cx="294" cy="427" r="0.019253" fill="#ecedff" d-star-name="Altair"></circle><circle cx="318" cy="244" r="0.590803" fill="#e9ecff" d-star-name="Al Kidr"></circle><circle cx="233" cy="503" r="0.491520" fill="#e9ecff" d-star-name="Polis"></circle><circle cx="253" cy="347" r="0.627853" fill="#e8ebff" d-star-name="Nasr Alwaki"></circle><circle cx="95" cy="345" r="0.308053" fill="#e8ebff" d-star-name="Seginus"></circle><circle cx="367" cy="490" r="0.270750" fill="#e7eaff" d-star-name="Deneb Algedi"></circle><circle cx="425" cy="388" r="0.699213" fill="#e7eaff" d-star-name="Salm"></circle><circle cx="361" cy="469" r="0.730080" fill="#e7eaff" d-star-name="Bunda"></circle><circle cx="252" cy="341" r="0.726963" fill="#e6eaff" d-star-name="Double Double"></circle><circle cx="53" cy="283" r="0.530670" fill="#e6eaff" d-star-name="Alcor"></circle><circle cx="340" cy="500" r="0.774413" fill="#e6eaff" d-star-name="Arm"></circle><circle cx="260" cy="438" r="0.711480" fill="#e5e9ff" d-star-name="Alya"></circle><circle cx="209" cy="417" r="0.144213" fill="#e4e9ff" d-star-name="Rasalhague"></circle><circle cx="106" cy="490" r="0.252083" fill="#e4e8ff" d-star-name="Zubenelgenubi"></circle><circle cx="411" cy="527" r="0.045630" fill="#e3e8ff" d-star-name="Fomalhaut"></circle><circle cx="87" cy="483" r="0.681013" fill="#e2e7ff" d-star-name="Khambaliya"></circle><circle cx="59" cy="450" r="0.380813" fill="#e0e6ff" d-star-name="Heze"></circle><circle cx="393" cy="116" r="0.990083" fill="#dee4ff" d-star-name="Al Kalb al Rai"></circle><circle cx="326" cy="322" r="0.052083" fill="#dee4ff" d-star-name="Deneb"></circle><circle cx="85" cy="319" r="0.582413" fill="#dde4ff" d-star-name="Xuange"></circle><circle cx="381" cy="433" r="0.413013" fill="#dde4ff" d-star-name="Biham"></circle><circle cx="197" cy="385" r="0.324480" fill="#dce3ff" d-star-name="Sarin"></circle><circle cx="9" cy="274" r="0.367413" fill="#dce3ff" d-star-name="Megrez"></circle><circle cx="157" cy="499" r="0.533333" fill="#dce3ff" d-star-name="Jabbah"></circle><circle cx="141" cy="410" r="0.444083" fill="#dce3ff" d-star-name="Nasak Shamiya"></circle><circle cx="409" cy="489" r="0.356430" fill="#dbe2ff" d-star-name="Skat"></circle><circle cx="264" cy="527" r="0.225333" fill="#dae2ff" d-star-name="Ascella"></circle><circle cx="194" cy="489" r="0.196830" fill="#dae2ff" d-star-name="Sabik"></circle><circle cx="125" cy="186" r="0.300000" fill="#dae2ff" d-star-name="Pherkad"></circle><circle cx="52" cy="284" r="0.165763" fill="#dae2ff" d-star-name="Mizar"></circle><circle cx="19" cy="385" r="0.997363" fill="#dae2ff" d-star-name="Kissin"></circle><circle cx="240" cy="341" r="0.870403" fill="#d9e1ff" d-star-name="Al Athfar"></circle><circle cx="896" cy="289" r="0.193603" fill="#d8e1ff" d-star-name="Phecda"></circle><circle cx="217" cy="442" r="0.468750" fill="#d8e1ff" d-star-name="Muliphen"></circle><circle cx="268" cy="551" r="0.563070" fill="#d8e1ff" d-star-name="Meridiana"></circle><circle cx="140" cy="128" r="0.613470" fill="#d8e1ff" d-star-name="Akfa Farkadain"></circle><circle cx="173" cy="475" r="0.215053" fill="#d8e1ff" d-star-name="Saik"></circle><circle cx="275" cy="229" r="0.705333" fill="#d7e0ff" d-star-name="Tais"></circle><circle cx="134" cy="379" r="0.164280" fill="#d7e0ff" d-star-name="Alphecca"></circle><circle cx="12" cy="451" r="0.504403" fill="#d6e0ff" d-star-name="Zaniah"></circle><circle cx="169" cy="444" r="0.486413" fill="#d6dfff" d-star-name="Marfik"></circle><circle cx="NaN" cy="NaN" r="0.630750" fill="#d6dfff" d-star-name="Yildun"></circle><circle cx="215" cy="289" r="1.102083" fill="#d5dfff" d-star-name="Alruba"></circle><circle cx="266" cy="414" r="0.298003" fill="#d5dfff" d-star-name="Okab"></circle><circle cx="394" cy="534" r="0.613470" fill="#d5dfff" d-star-name="Fum al Hui"></circle><circle cx="256" cy="360" r="0.413013" fill="#d4deff" d-star-name="Sheliak"></circle><circle cx="166" cy="413" r="0.696163" fill="#d4deff" d-star-name="Cujam"></circle><circle cx="113" cy="470" r="0.803603" fill="#d4deff" d-star-name="Zuben Elakribi"></circle><circle cx="330" cy="473" r="0.476280" fill="#d4deff" d-star-name="Albali"></circle><circle cx="248" cy="343" r="0.000030" fill="#d1deff" d-star-name="Vega"></circle><circle cx="290" cy="322" r="0.272653" fill="#d1deff" d-star-name="Fawaris"></circle><circle cx="415" cy="410" r="0.206670" fill="#d1deff" d-star-name="Markab"></circle><circle cx="43" cy="463" r="0.639480" fill="#d0dcff" d-star-name="Apami-Atsa"></circle><circle cx="18" cy="491" r="0.288120" fill="#cfdcff" d-star-name="Algorab"></circle><circle cx="401" cy="372" r="0.768000" fill="#cfdcff" d-star-name="Sadalmatar"></circle><circle cx="33" cy="279" r="0.103253" fill="#cddaff" d-star-name="Alioth"></circle><circle cx="26" cy="590" r="0.161333" fill="#cddaff" d-star-name="Muhlifain"></circle><circle cx="240" cy="541" r="0.106803" fill="#cbd9ff" d-star-name="Kaus Australis"></circle><circle cx="154" cy="502" r="0.514830" fill="#c8d6ff" d-star-name="Jabhat Acrabi"></circle><circle cx="305" cy="129" r="0.639480" fill="#c8d6ff" d-star-name="Al Aghnam"></circle><circle cx="313" cy="481" r="0.758430" fill="#c8d6ff" d-star-name="Alshat"></circle><circle cx="77" cy="237" r="0.448963" fill="#c8d6ff" d-star-name="Thuban"></circle><circle cx="262" cy="362" r="0.352083" fill="#c8d6ff" d-star-name="Sulafat"></circle><circle cx="317" cy="495" r="0.860213" fill="#c8d6ff" d-star-name="Okul"></circle><circle cx="325" cy="409" r="0.473763" fill="#c6d5ff" d-star-name="Sualocin"></circle><circle cx="388" cy="452" r="0.496653" fill="#c6d5ff" d-star-name="Sadachbia"></circle><circle cx="153" cy="499" r="0.218453" fill="#c5d3ff" d-star-name="Acrab"></circle><circle cx="380" cy="582" r="0.099763" fill="#c4d3ff" d-star-name="Alnair"></circle><circle cx="123" cy="472" r="0.227070" fill="#c4d2ff" d-star-name="Zubeneschamali"></circle><circle cx="714" cy="510" r="0.304013" fill="#c3d2ff" d-star-name="Al Zara"></circle><circle cx="285" cy="452" r="0.633653" fill="#c2d1ff" d-star-name="Al Thalimain Posterior"></circle><circle cx="371" cy="550" r="0.300000" fill="#c2d1ff" d-star-name="Aldhanab"></circle><circle cx="276" cy="573" r="0.522720" fill="#c1d0ff" d-star-name="Arkab Prior"></circle><circle cx="401" cy="422" r="0.387603" fill="#c1d0ff" d-star-name="Homam"></circle><circle cx="319" cy="308" r="0.813453" fill="#c1d0ff" d-star-name="Ruchba"></circle><circle cx="238" cy="190" r="0.593613" fill="#c0cfff" d-star-name="Aldhiba"></circle><circle cx="266" cy="461" r="0.392163" fill="#c0cfff" d-star-name="Al Thalimain Prior"></circle><circle cx="67" cy="307" r="0.114083" fill="#bfceff" d-star-name="Alkaid"></circle><circle cx="377" cy="454" r="0.748920" fill="#bfceff" d-star-name="Sadalmulk"></circle><circle cx="277" cy="560" r="0.522720" fill="#beceff" d-star-name="Rukbat"></circle><circle cx="9" cy="493" r="0.221880" fill="#becdff" d-star-name="Gienah"></circle><circle cx="253" cy="519" r="0.334963" fill="#becdff" d-star-name="Namalsadirah"></circle><circle cx="715" cy="488" r="0.563070" fill="#bdcdff" d-star-name="Muliphein"></circle><circle cx="35" cy="345" r="0.278403" fill="#bcccff" d-star-name="Cor Caroli"></circle><circle cx="415" cy="439" r="0.669013" fill="#bcccff" d-star-name="Fumalsamakah"></circle><circle cx="150" cy="507" r="0.174803" fill="#bcccff" d-star-name="Dschubba"></circle><circle cx="316" cy="622" r="0.125453" fill="#bcccff" d-star-name="Peacock"></circle><circle cx="364" cy="299" r="0.733203" fill="#bcccff" d-star-name="Azelfafage"></circle><circle cx="193" cy="229" r="0.334963" fill="#bccbff" d-star-name="Aldhibah"></circle><circle cx="321" cy="420" r="0.541363" fill="#bbcbff" d-star-name="Aldulfin"></circle><circle cx="259" cy="517" r="0.140083" fill="#b9caff" d-star-name="Nunki"></circle><circle cx="207" cy="593" r="0.268853" fill="#b9c9ff" d-star-name="Choo"></circle><circle cx="271" cy="342" r="0.654163" fill="#b7c8ff" d-star-name="Aladfar"></circle><circle cx="101" cy="584" r="0.176333" fill="#b6c7ff" d-star-name="Men"></circle><circle cx="214" cy="555" r="0.190403" fill="#b4c5ff" d-star-name="Mula"></circle><circle cx="391" cy="445" r="0.768000" fill="#b4c5ff" d-star-name="Seat"></circle><circle cx="72" cy="583" r="0.216750" fill="#b3c4ff" d-star-name="Alnair"></circle><circle cx="206" cy="550" r="0.243000" fill="#b3c4ff" d-star-name="Lesath"></circle><circle cx="149" cy="517" r="0.278403" fill="#b3c4ff" d-star-name="Fang"></circle><circle cx="360" cy="499" r="0.678003" fill="#b3c4ff" d-star-name="Kastra"></circle><circle cx="111" cy="569" r="0.239413" fill="#b2c4ff" d-star-name="KeKouan"></circle><circle cx="89" cy="557" r="0.648270" fill="#b2c3ff" d-star-name="Bidelman's Helium Variable Star"></circle><circle cx="201" cy="513" r="0.356430" fill="#b2c3ff" d-star-name="Garafsa"></circle><circle cx="9" cy="631" r="0.259470" fill="#b1c3ff" d-star-name="Imai"></circle><circle cx="148" cy="525" r="0.499230" fill="#b0c2ff" d-star-name="Iklil"></circle><circle cx="182" cy="552" r="0.300000" fill="#b0c2ff" d-star-name="Xamidimura"></circle><circle cx="355" cy="196" r="0.347763" fill="#b0c2ff" d-star-name="Alfirk"></circle><circle cx="172" cy="522" r="0.265080" fill="#afc1ff" d-star-name="Paikauhale"></circle><circle cx="112" cy="565" r="0.326563" fill="#afc1ff" d-star-name="Ke Kwan"></circle><circle cx="182" cy="552" r="0.422453" fill="#afc1ff" d-star-name="Pipirima"></circle><circle cx="712" cy="525" r="0.075000" fill="#aec1ff" d-star-name="Adhara"></circle><circle cx="77" cy="639" r="0.012403" fill="#acbfff" d-star-name="Hadar"></circle><circle cx="208" cy="549" r="0.087480" fill="#acbfff" d-star-name="Shaula"></circle><circle cx="53" cy="477" r="0.032013" fill="#abbeff" d-star-name="Spica"></circle><circle cx="29" cy="636" r="0.052083" fill="#abbeff" d-star-name="Mimosa"></circle><circle cx="16" cy="654" r="0.019763" fill="#aabdff" d-star-name="Acrux"></circle><circle cx="752" cy="558" r="0.162803" fill="#a7bbff" d-star-name="Naos"></circle></g></svg>