<svg id="Layer_1" data-name="Layer 1" xmlns="http://www.w3.org/2000/svg" viewBox="0 0 215.86 149.45"><rect x="0.18" y="53.81" width="41.3" height="95.52" fill="#fffbf0" stroke="#2a3f55" stroke-miterlimit="10" stroke-width="0.23"/><rect x="0.11" y="127.43" width="41.3" height="21.91" fill="#fffbf0" stroke="#2a3f55" stroke-miterlimit="10" stroke-width="0.23"/><rect x="0.18" y="53.51" width="41.3" height="6.82" fill="#2a3f55" stroke="#2a3f55" stroke-miterlimit="10" stroke-width="0.23"/><rect x="31.96" y="64.65" width="5.75" height="25.86" fill="#2a9faa" stroke="#2a3f55" stroke-miterlimit="10" stroke-width="0.23"/><rect x="31.96" y="83.32" width="5.75" height="7.18" fill="#2a3f55" stroke="#2a3f55" stroke-miterlimit="10" stroke-width="0.23"/><rect x="22.62" y="64.65" width="5.75" height="25.86" fill="#2a9faa" stroke="#2a3f55" stroke-miterlimit="10" stroke-width="0.23"/><rect x="22.62" y="83.32" width="5.75" height="7.18" fill="#2a3f55" stroke="#2a3f55" stroke-miterlimit="10" stroke-width="0.23"/><rect x="13.28" y="64.65" width="5.75" height="25.86" fill="#2a9faa" stroke="#2a3f55" stroke-miterlimit="10" stroke-width="0.23"/><rect x="13.28" y="83.32" width="5.75" height="7.18" fill="#2a3f55" stroke="#2a3f55" stroke-miterlimit="10" stroke-width="0.23"/><rect x="3.95" y="64.65" width="5.75" height="25.86" fill="#2a9faa" stroke="#2a3f55" stroke-miterlimit="10" stroke-width="0.23"/><rect x="3.95" y="83.32" width="5.75" height="7.18" fill="#2a3f55" stroke="#2a3f55" stroke-miterlimit="10" stroke-width="0.23"/><rect x="31.96" y="95.53" width="5.75" height="25.86" fill="#2a9faa" stroke="#2a3f55" stroke-miterlimit="10" stroke-width="0.23"/><rect x="31.96" y="114.2" width="5.75" height="7.18" fill="#2a3f55" stroke="#2a3f55" stroke-miterlimit="10" stroke-width="0.23"/><rect x="22.62" y="95.53" width="5.75" height="25.86" fill="#2a9faa" stroke="#2a3f55" stroke-miterlimit="10" stroke-width="0.23"/><rect x="22.62" y="114.2" width="5.75" height="7.18" fill="#2a3f55" stroke="#2a3f55" stroke-miterlimit="10" stroke-width="0.23"/><rect x="13.28" y="95.53" width="5.75" height="25.86" fill="#2a9faa" stroke="#2a3f55" stroke-miterlimit="10" stroke-width="0.23"/><rect x="13.28" y="114.2" width="5.75" height="7.18" fill="#2a3f55" stroke="#2a3f55" stroke-miterlimit="10" stroke-width="0.23"/><rect x="3.95" y="95.53" width="5.75" height="25.86" fill="#2a9faa" stroke="#2a3f55" stroke-miterlimit="10" stroke-width="0.23"/><rect x="3.95" y="114.2" width="5.75" height="7.18" fill="#2a3f55" stroke="#2a3f55" stroke-miterlimit="10" stroke-width="0.23"/><rect x="41.33" y="37.4" width="49.1" height="111.94" fill="#ff3f55" stroke="#2a3f55" stroke-miterlimit="10" stroke-width="0.23"/><rect x="41.33" y="37.27" width="14.21" height="94.8" fill="#ffdfaa" stroke="#2a3f55" stroke-miterlimit="10" stroke-width="0.23"/><rect x="76.22" y="37.27" width="14.21" height="94.8" fill="#ffdfaa" stroke="#2a3f55" stroke-miterlimit="10" stroke-width="0.23"/><rect x="43.69" y="32.29" width="44.37" height="4.99" fill="#2a9faa" stroke="#2a3f55" stroke-miterlimit="10" stroke-width="0.23"/><rect x="45.44" y="15.84" width="40.88" height="16.45" fill="#fffbf0" stroke="#2a3f55" stroke-miterlimit="10" stroke-width="0.23"/><rect x="50.67" y="7.86" width="30.41" height="7.98" fill="#ff3f55" stroke="#2a3f55" stroke-miterlimit="10" stroke-width="0.23"/><polygon points="65.88 0.13 53.16 7.86 78.59 7.86 65.88 0.13" fill="#2a3f55" stroke="#2a3f55" stroke-miterlimit="10" stroke-width="0.23"/><rect x="73.15" y="10.6" width="2.24" height="2.99" fill="#fffbf0" stroke="#2a3f55" stroke-miterlimit="10" stroke-width="0.23"/><rect x="77.34" y="10.6" width="2.24" height="2.99" fill="#fffbf0" stroke="#2a3f55" stroke-miterlimit="10" stroke-width="0.23"/><rect x="64.76" y="10.6" width="2.24" height="2.99" fill="#fffbf0" stroke="#2a3f55" stroke-miterlimit="10" stroke-width="0.23"/><rect x="68.95" y="10.6" width="2.24" height="2.99" fill="#fffbf0" stroke="#2a3f55" stroke-miterlimit="10" stroke-width="0.23"/><rect x="56.36" y="10.6" width="2.24" height="2.99" fill="#fffbf0" stroke="#2a3f55" stroke-miterlimit="10" stroke-width="0.23"/><rect x="52.17" y="10.6" width="2.24" height="2.99" fill="#fffbf0" stroke="#2a3f55" stroke-miterlimit="10" stroke-width="0.23"/><rect x="60.56" y="10.6" width="2.24" height="2.99" fill="#fffbf0" stroke="#2a3f55" stroke-miterlimit="10" stroke-width="0.23"/><rect x="73.54" y="34.28" width="2.24" height="2.99" fill="#fffbf0" stroke="#2a3f55" stroke-miterlimit="10" stroke-width="0.23"/><rect x="77.93" y="34.28" width="2.24" height="2.99" fill="#fffbf0" stroke="#2a3f55" stroke-miterlimit="10" stroke-width="0.23"/><rect x="82.33" y="34.28" width="2.24" height="2.99" fill="#fffbf0" stroke="#2a3f55" stroke-miterlimit="10" stroke-width="0.23"/><rect x="64.76" y="34.28" width="2.24" height="2.99" fill="#fffbf0" stroke="#2a3f55" stroke-miterlimit="10" stroke-width="0.23"/><rect x="69.15" y="34.28" width="2.24" height="2.99" fill="#fffbf0" stroke="#2a3f55" stroke-miterlimit="10" stroke-width="0.23"/><rect x="55.97" y="34.28" width="2.24" height="2.99" fill="#fffbf0" stroke="#2a3f55" stroke-miterlimit="10" stroke-width="0.23"/><rect x="51.58" y="34.28" width="2.24" height="2.99" fill="#fffbf0" stroke="#2a3f55" stroke-miterlimit="10" stroke-width="0.23"/><rect x="47.18" y="34.28" width="2.24" height="2.99" fill="#fffbf0" stroke="#2a3f55" stroke-miterlimit="10" stroke-width="0.23"/><rect x="60.36" y="34.28" width="2.24" height="2.99" fill="#fffbf0" stroke="#2a3f55" stroke-miterlimit="10" stroke-width="0.23"/><rect x="54.56" y="17.83" width="2.74" height="12.96" fill="#fffbf0" stroke="#2a3f55" stroke-miterlimit="10" stroke-width="0.23"/><rect x="59.54" y="17.83" width="2.74" height="12.96" fill="#2a9faa" stroke="#2a3f55" stroke-miterlimit="10" stroke-width="0.23"/><rect x="45.46" y="17.83" width="1.87" height="12.96" fill="#fffbf0" stroke="#2a3f55" stroke-miterlimit="10" stroke-width="0.23"/><rect x="49.57" y="17.83" width="2.74" height="12.96" fill="#2a9faa" stroke="#2a3f55" stroke-miterlimit="10" stroke-width="0.23"/><rect x="64.53" y="17.83" width="2.74" height="12.96" fill="#fffbf0" stroke="#2a3f55" stroke-miterlimit="10" stroke-width="0.23"/><rect x="69.51" y="17.83" width="2.74" height="12.96" fill="#2a9faa" stroke="#2a3f55" stroke-miterlimit="10" stroke-width="0.23"/><rect x="74.5" y="17.83" width="2.74" height="12.96" fill="#fffbf0" stroke="#2a3f55" stroke-miterlimit="10" stroke-width="0.23"/><rect x="79.48" y="17.83" width="2.74" height="12.96" fill="#2a9faa" stroke="#2a3f55" stroke-miterlimit="10" stroke-width="0.23"/><rect x="84.47" y="17.83" width="1.83" height="12.96" fill="#fffbf0" stroke="#2a3f55" stroke-miterlimit="10" stroke-width="0.23"/><rect x="58.9" y="40.39" width="13.96" height="3.24" fill="#fffbf0" stroke="#2a3f55" stroke-miterlimit="10" stroke-width="0.23"/><rect x="58.9" y="43.63" width="13.96" height="3.24" fill="#fffbf0" stroke="#2a3f55" stroke-miterlimit="10" stroke-width="0.23"/><rect x="58.9" y="46.87" width="13.96" height="3.24" fill="#fffbf0" stroke="#2a3f55" stroke-miterlimit="10" stroke-width="0.23"/><rect x="58.9" y="50.11" width="13.96" height="3.24" fill="#fffbf0" stroke="#2a3f55" stroke-miterlimit="10" stroke-width="0.23"/><rect x="58.9" y="53.35" width="13.96" height="3.24" fill="#fffbf0" stroke="#2a3f55" stroke-miterlimit="10" stroke-width="0.23"/><rect x="58.9" y="56.59" width="13.96" height="3.24" fill="#fffbf0" stroke="#2a3f55" stroke-miterlimit="10" stroke-width="0.23"/><rect x="58.9" y="59.83" width="13.96" height="3.24" fill="#fffbf0" stroke="#2a3f55" stroke-miterlimit="10" stroke-width="0.23"/><rect x="58.9" y="63.07" width="13.96" height="3.24" fill="#fffbf0" stroke="#2a3f55" stroke-miterlimit="10" stroke-width="0.23"/><rect x="58.9" y="66.31" width="13.96" height="3.24" fill="#fffbf0" stroke="#2a3f55" stroke-miterlimit="10" stroke-width="0.23"/><rect x="58.9" y="69.55" width="13.96" height="3.24" fill="#fffbf0" stroke="#2a3f55" stroke-miterlimit="10" stroke-width="0.23"/><rect x="58.9" y="72.79" width="13.96" height="3.24" fill="#fffbf0" stroke="#2a3f55" stroke-miterlimit="10" stroke-width="0.23"/><rect x="58.9" y="76.03" width="13.96" height="3.24" fill="#fffbf0" stroke="#2a3f55" stroke-miterlimit="10" stroke-width="0.23"/><rect x="58.9" y="79.27" width="13.96" height="3.24" fill="#fffbf0" stroke="#2a3f55" stroke-miterlimit="10" stroke-width="0.23"/><rect x="58.9" y="82.51" width="13.96" height="3.24" fill="#fffbf0" stroke="#2a3f55" stroke-miterlimit="10" stroke-width="0.23"/><rect x="58.9" y="85.75" width="13.96" height="3.24" fill="#fffbf0" stroke="#2a3f55" stroke-miterlimit="10" stroke-width="0.23"/><rect x="58.9" y="88.99" width="13.96" height="3.24" fill="#fffbf0" stroke="#2a3f55" stroke-miterlimit="10" stroke-width="0.23"/><rect x="58.9" y="92.23" width="13.96" height="3.24" fill="#fffbf0" stroke="#2a3f55" stroke-miterlimit="10" stroke-width="0.23"/><rect x="58.9" y="95.47" width="13.96" height="3.24" fill="#fffbf0" stroke="#2a3f55" stroke-miterlimit="10" stroke-width="0.23"/><rect x="58.9" y="98.71" width="13.96" height="3.24" fill="#fffbf0" stroke="#2a3f55" stroke-miterlimit="10" stroke-width="0.23"/><rect x="58.9" y="101.95" width="13.96" height="3.24" fill="#fffbf0" stroke="#2a3f55" stroke-miterlimit="10" stroke-width="0.23"/><rect x="58.9" y="105.19" width="13.96" height="3.24" fill="#fffbf0" stroke="#2a3f55" stroke-miterlimit="10" stroke-width="0.23"/><rect x="58.9" y="108.43" width="13.96" height="3.24" fill="#fffbf0" stroke="#2a3f55" stroke-miterlimit="10" stroke-width="0.23"/><rect x="58.9" y="111.68" width="13.96" height="3.24" fill="#fffbf0" stroke="#2a3f55" stroke-miterlimit="10" stroke-width="0.23"/><rect x="58.9" y="114.92" width="13.96" height="3.24" fill="#fffbf0" stroke="#2a3f55" stroke-miterlimit="10" stroke-width="0.23"/><rect x="58.9" y="118.16" width="13.96" height="3.24" fill="#fffbf0" stroke="#2a3f55" stroke-miterlimit="10" stroke-width="0.23"/><rect x="58.9" y="121.4" width="13.96" height="3.24" fill="#fffbf0" stroke="#2a3f55" stroke-miterlimit="10" stroke-width="0.23"/><rect x="58.9" y="124.64" width="13.96" height="3.24" fill="#fffbf0" stroke="#2a3f55" stroke-miterlimit="10" stroke-width="0.23"/><rect x="44.94" y="40.39" width="6.98" height="3.24" fill="#fffbf0" stroke="#2a3f55" stroke-miterlimit="10" stroke-width="0.23"/><rect x="44.94" y="43.63" width="6.98" height="3.24" fill="#fffbf0" stroke="#2a3f55" stroke-miterlimit="10" stroke-width="0.23"/><rect x="44.94" y="46.87" width="6.98" height="3.24" fill="#fffbf0" stroke="#2a3f55" stroke-miterlimit="10" stroke-width="0.23"/><rect x="44.94" y="50.11" width="6.98" height="3.24" fill="#fffbf0" stroke="#2a3f55" stroke-miterlimit="10" stroke-width="0.23"/><rect x="44.94" y="53.35" width="6.98" height="3.24" fill="#fffbf0" stroke="#2a3f55" stroke-miterlimit="10" stroke-width="0.23"/><rect x="44.94" y="56.59" width="6.98" height="3.24" fill="#fffbf0" stroke="#2a3f55" stroke-miterlimit="10" stroke-width="0.23"/><rect x="44.94" y="59.83" width="6.98" height="3.24" fill="#fffbf0" stroke="#2a3f55" stroke-miterlimit="10" stroke-width="0.23"/><rect x="44.94" y="63.07" width="6.98" height="3.24" fill="#fffbf0" stroke="#2a3f55" stroke-miterlimit="10" stroke-width="0.23"/><rect x="44.94" y="66.31" width="6.98" height="3.24" fill="#fffbf0" stroke="#2a3f55" stroke-miterlimit="10" stroke-width="0.23"/><rect x="44.94" y="69.55" width="6.98" height="3.24" fill="#fffbf0" stroke="#2a3f55" stroke-miterlimit="10" stroke-width="0.23"/><rect x="44.94" y="72.79" width="6.98" height="3.24" fill="#fffbf0" stroke="#2a3f55" stroke-miterlimit="10" stroke-width="0.23"/><rect x="44.94" y="76.03" width="6.98" height="3.24" fill="#fffbf0" stroke="#2a3f55" stroke-miterlimit="10" stroke-width="0.23"/><rect x="44.94" y="79.27" width="6.98" height="3.24" fill="#fffbf0" stroke="#2a3f55" stroke-miterlimit="10" stroke-width="0.23"/><rect x="44.94" y="82.51" width="6.98" height="3.24" fill="#fffbf0" stroke="#2a3f55" stroke-miterlimit="10" stroke-width="0.23"/><rect x="44.94" y="85.75" width="6.98" height="3.24" fill="#fffbf0" stroke="#2a3f55" stroke-miterlimit="10" stroke-width="0.23"/><rect x="44.94" y="88.99" width="6.98" height="3.24" fill="#fffbf0" stroke="#2a3f55" stroke-miterlimit="10" stroke-width="0.23"/><rect x="44.94" y="92.23" width="6.98" height="3.24" fill="#fffbf0" stroke="#2a3f55" stroke-miterlimit="10" stroke-width="0.23"/><rect x="44.94" y="95.47" width="6.98" height="3.24" fill="#fffbf0" stroke="#2a3f55" stroke-miterlimit="10" stroke-width="0.23"/><rect x="44.94" y="98.71" width="6.98" height="3.24" fill="#fffbf0" stroke="#2a3f55" stroke-miterlimit="10" stroke-width="0.23"/><rect x="44.94" y="101.95" width="6.98" height="3.24" fill="#fffbf0" stroke="#2a3f55" stroke-miterlimit="10" stroke-width="0.23"/><rect x="44.94" y="105.19" width="6.98" height="3.24" fill="#fffbf0" stroke="#2a3f55" stroke-miterlimit="10" stroke-width="0.23"/><rect x="44.94" y="108.43" width="6.98" height="3.24" fill="#fffbf0" stroke="#2a3f55" stroke-miterlimit="10" stroke-width="0.23"/><rect x="44.94" y="111.68" width="6.98" height="3.24" fill="#fffbf0" stroke="#2a3f55" stroke-miterlimit="10" stroke-width="0.23"/><rect x="44.94" y="114.92" width="6.98" height="3.24" fill="#fffbf0" stroke="#2a3f55" stroke-miterlimit="10" stroke-width="0.23"/><rect x="44.94" y="118.16" width="6.98" height="3.24" fill="#fffbf0" stroke="#2a3f55" stroke-miterlimit="10" stroke-width="0.23"/><rect x="44.94" y="121.4" width="6.98" height="3.24" fill="#fffbf0" stroke="#2a3f55" stroke-miterlimit="10" stroke-width="0.23"/><rect x="44.94" y="124.64" width="6.98" height="3.24" fill="#fffbf0" stroke="#2a3f55" stroke-miterlimit="10" stroke-width="0.23"/><rect x="79.84" y="40.39" width="6.98" height="3.24" fill="#fffbf0" stroke="#2a3f55" stroke-miterlimit="10" stroke-width="0.23"/><rect x="79.84" y="43.63" width="6.98" height="3.24" fill="#fffbf0" stroke="#2a3f55" stroke-miterlimit="10" stroke-width="0.23"/><rect x="79.84" y="46.87" width="6.98" height="3.24" fill="#fffbf0" stroke="#2a3f55" stroke-miterlimit="10" stroke-width="0.23"/><rect x="79.84" y="50.11" width="6.98" height="3.24" fill="#fffbf0" stroke="#2a3f55" stroke-miterlimit="10" stroke-width="0.23"/><rect x="79.84" y="53.35" width="6.98" height="3.24" fill="#fffbf0" stroke="#2a3f55" stroke-miterlimit="10" stroke-width="0.23"/><rect x="79.84" y="56.59" width="6.98" height="3.24" fill="#fffbf0" stroke="#2a3f55" stroke-miterlimit="10" stroke-width="0.23"/><rect x="79.84" y="59.83" width="6.98" height="3.24" fill="#fffbf0" stroke="#2a3f55" stroke-miterlimit="10" stroke-width="0.23"/><rect x="79.84" y="63.07" width="6.98" height="3.24" fill="#fffbf0" stroke="#2a3f55" stroke-miterlimit="10" stroke-width="0.23"/><rect x="79.84" y="66.31" width="6.98" height="3.24" fill="#fffbf0" stroke="#2a3f55" stroke-miterlimit="10" stroke-width="0.23"/><rect x="79.84" y="69.55" width="6.98" height="3.24" fill="#fffbf0" stroke="#2a3f55" stroke-miterlimit="10" stroke-width="0.23"/><rect x="79.84" y="72.79" width="6.98" height="3.24" fill="#fffbf0" stroke="#2a3f55" stroke-miterlimit="10" stroke-width="0.23"/><rect x="79.84" y="76.03" width="6.98" height="3.24" fill="#fffbf0" stroke="#2a3f55" stroke-miterlimit="10" stroke-width="0.23"/><rect x="79.84" y="79.27" width="6.98" height="3.24" fill="#fffbf0" stroke="#2a3f55" stroke-miterlimit="10" stroke-width="0.23"/><rect x="79.84" y="82.51" width="6.98" height="3.24" fill="#fffbf0" stroke="#2a3f55" stroke-miterlimit="10" stroke-width="0.23"/><rect x="79.84" y="85.75" width="6.98" height="3.24" fill="#fffbf0" stroke="#2a3f55" stroke-miterlimit="10" stroke-width="0.23"/><rect x="79.84" y="88.99" width="6.98" height="3.24" fill="#fffbf0" stroke="#2a3f55" stroke-miterlimit="10" stroke-width="0.23"/><rect x="79.84" y="92.23" width="6.98" height="3.24" fill="#fffbf0" stroke="#2a3f55" stroke-miterlimit="10" stroke-width="0.23"/><rect x="79.84" y="95.47" width="6.98" height="3.24" fill="#fffbf0" stroke="#2a3f55" stroke-miterlimit="10" stroke-width="0.23"/><rect x="79.84" y="98.71" width="6.98" height="3.24" fill="#fffbf0" stroke="#2a3f55" stroke-miterlimit="10" stroke-width="0.23"/><rect x="79.84" y="101.95" width="6.98" height="3.24" fill="#fffbf0" stroke="#2a3f55" stroke-miterlimit="10" stroke-width="0.23"/><rect x="79.84" y="105.19" width="6.98" height="3.24" fill="#fffbf0" stroke="#2a3f55" stroke-miterlimit="10" stroke-width="0.23"/><rect x="79.84" y="108.43" width="6.98" height="3.24" fill="#fffbf0" stroke="#2a3f55" stroke-miterlimit="10" stroke-width="0.23"/><rect x="79.84" y="111.68" width="6.98" height="3.24" fill="#fffbf0" stroke="#2a3f55" stroke-miterlimit="10" stroke-width="0.23"/><rect x="79.84" y="114.92" width="6.98" height="3.24" fill="#fffbf0" stroke="#2a3f55" stroke-miterlimit="10" stroke-width="0.23"/><rect x="79.84" y="118.16" width="6.98" height="3.24" fill="#fffbf0" stroke="#2a3f55" stroke-miterlimit="10" stroke-width="0.23"/><rect x="79.84" y="121.4" width="6.98" height="3.24" fill="#fffbf0" stroke="#2a3f55" stroke-miterlimit="10" stroke-width="0.23"/><rect x="79.84" y="124.64" width="6.98" height="3.24" fill="#fffbf0" stroke="#2a3f55" stroke-miterlimit="10" stroke-width="0.23"/><rect x="55.53" y="128" width="20.69" height="21.33" fill="#fffbf0" stroke="#2a3f55" stroke-miterlimit="10" stroke-width="0.23"/><rect x="60.36" y="132.2" width="11.03" height="17.14" fill="#ffbf55" stroke="#2a3f55" stroke-miterlimit="10" stroke-width="0.23"/><rect x="47.04" y="146.49" width="35.6" height="2.85" fill="#fffbf0" stroke="#2a3f55" stroke-miterlimit="10" stroke-width="0.23"/><rect x="55.53" y="143.69" width="20.69" height="2.85" fill="#fffbf0" stroke="#2a3f55" stroke-miterlimit="10" stroke-width="0.23"/><rect x="3.08" y="131.22" width="8.52" height="10.2" fill="#2a9faa" stroke="#2a3f55" stroke-miterlimit="10" stroke-width="0.23"/><rect x="29.57" y="131.22" width="8.52" height="10.2" fill="#2a9faa" stroke="#2a3f55" stroke-miterlimit="10" stroke-width="0.23"/><rect x="14.47" y="131.51" width="12.59" height="17.82" fill="#ffdfaa" stroke="#2a3f55" stroke-miterlimit="10" stroke-width="0.23"/><rect x="21.73" y="133.32" width="2.13" height="8.1" fill="#2a3f55" stroke="#2a3f55" stroke-miterlimit="10" stroke-width="0.23"/><rect x="17.72" y="133.32" width="2.13" height="8.1" fill="#2a3f55" stroke="#2a3f55" stroke-miterlimit="10" stroke-width="0.23"/><rect x="90.49" y="53.81" width="41.3" height="95.52" fill="#fffbf0" stroke="#2a3f55" stroke-miterlimit="10" stroke-width="0.23"/><rect x="90.43" y="127.43" width="41.3" height="21.91" fill="#fffbf0" stroke="#2a3f55" stroke-miterlimit="10" stroke-width="0.23"/><rect x="90.49" y="53.51" width="41.3" height="6.82" fill="#ffdfaa" stroke="#2a3f55" stroke-miterlimit="10" stroke-width="0.23"/><rect x="122.27" y="64.65" width="5.75" height="25.86" fill="#ff3f55" stroke="#2a3f55" stroke-miterlimit="10" stroke-width="0.23"/><rect x="122.27" y="83.32" width="5.75" height="7.18" fill="#fffbf0" stroke="#2a3f55" stroke-miterlimit="10" stroke-width="0.23"/><rect x="112.94" y="64.65" width="5.75" height="25.86" fill="#ff3f55" stroke="#2a3f55" stroke-miterlimit="10" stroke-width="0.23"/><rect x="112.94" y="83.32" width="5.75" height="7.18" fill="#fffbf0" stroke="#2a3f55" stroke-miterlimit="10" stroke-width="0.23"/><rect x="103.6" y="64.65" width="5.75" height="25.86" fill="#ff3f55" stroke="#2a3f55" stroke-miterlimit="10" stroke-width="0.23"/><rect x="103.6" y="83.32" width="5.75" height="7.18" fill="#fffbf0" stroke="#2a3f55" stroke-miterlimit="10" stroke-width="0.23"/><rect x="94.26" y="64.65" width="5.75" height="25.86" fill="#ff3f55" stroke="#2a3f55" stroke-miterlimit="10" stroke-width="0.23"/><rect x="94.26" y="83.32" width="5.75" height="7.18" fill="#fffbf0" stroke="#2a3f55" stroke-miterlimit="10" stroke-width="0.23"/><rect x="122.27" y="95.53" width="5.75" height="25.86" fill="#ff3f55" stroke="#2a3f55" stroke-miterlimit="10" stroke-width="0.23"/><rect x="122.27" y="114.2" width="5.75" height="7.18" fill="#fffbf0" stroke="#2a3f55" stroke-miterlimit="10" stroke-width="0.23"/><rect x="112.94" y="95.53" width="5.75" height="25.86" fill="#ff3f55" stroke="#2a3f55" stroke-miterlimit="10" stroke-width="0.23"/><rect x="112.94" y="114.2" width="5.75" height="7.18" fill="#fffbf0" stroke="#2a3f55" stroke-miterlimit="10" stroke-width="0.23"/><rect x="103.6" y="95.53" width="5.75" height="25.86" fill="#ff3f55" stroke="#2a3f55" stroke-miterlimit="10" stroke-width="0.23"/><rect x="103.6" y="114.2" width="5.75" height="7.18" fill="#fffbf0" stroke="#2a3f55" stroke-miterlimit="10" stroke-width="0.23"/><rect x="94.26" y="95.53" width="5.75" height="25.86" fill="#ff3f55" stroke="#2a3f55" stroke-miterlimit="10" stroke-width="0.23"/><rect x="94.26" y="114.2" width="5.75" height="7.18" fill="#fffbf0" stroke="#2a3f55" stroke-miterlimit="10" stroke-width="0.23"/><rect x="93.4" y="131.22" width="8.52" height="10.2" fill="#ff3f55" stroke="#2a3f55" stroke-miterlimit="10" stroke-width="0.23"/><rect x="119.89" y="131.22" width="8.52" height="10.2" fill="#ff3f55" stroke="#2a3f55" stroke-miterlimit="10" stroke-width="0.23"/><rect x="104.78" y="131.51" width="12.59" height="17.82" fill="#2a3f55" stroke="#2a3f55" stroke-miterlimit="10" stroke-width="0.23"/><rect x="112.05" y="133.32" width="2.13" height="8.1" fill="#fffbf0" stroke="#2a3f55" stroke-miterlimit="10" stroke-width="0.23"/><rect x="108.04" y="133.32" width="2.13" height="8.1" fill="#fffbf0" stroke="#2a3f55" stroke-miterlimit="10" stroke-width="0.23"/><rect x="131.83" y="24.31" width="42.55" height="125.02" fill="#fffbf0" stroke="#2a3f55" stroke-miterlimit="10" stroke-width="0.23"/><rect x="138.56" y="136.32" width="29.09" height="13.02" fill="#ffbf55" stroke="#2a3f55" stroke-miterlimit="10" stroke-width="0.23"/><rect x="138.56" y="136.32" width="14.55" height="13.02" fill="#ffbf55" stroke="#2a3f55" stroke-miterlimit="10" stroke-width="0.23"/><rect x="138.56" y="136.32" width="29.09" height="2.35" fill="#2a3f55" stroke="#2a3f55" stroke-miterlimit="10" stroke-width="0.23"/><rect x="131.73" y="130.7" width="42.66" height="2.62" fill="none" stroke="#2a3f55" stroke-miterlimit="10" stroke-width="0.23"/><rect x="135.17" y="46.3" width="6.79" height="6.79" fill="#ff3f55" stroke="#2a3f55" stroke-miterlimit="10" stroke-width="0.23"/><rect x="144.86" y="46.3" width="6.79" height="6.79" fill="#fffbf0" stroke="#2a3f55" stroke-miterlimit="10" stroke-width="0.23"/><rect x="154.56" y="46.3" width="6.79" height="6.79" fill="#2a9faa" stroke="#2a3f55" stroke-miterlimit="10" stroke-width="0.23"/><rect x="164.26" y="46.3" width="6.79" height="6.79" fill="#fffbf0" stroke="#2a3f55" stroke-miterlimit="10" stroke-width="0.23"/><rect x="135.17" y="56.61" width="6.79" height="6.79" fill="#2a9faa" stroke="#2a3f55" stroke-miterlimit="10" stroke-width="0.23"/><rect x="144.86" y="56.61" width="6.79" height="6.79" fill="#2a9faa" stroke="#2a3f55" stroke-miterlimit="10" stroke-width="0.23"/><rect x="154.56" y="56.61" width="6.79" height="6.79" fill="#fffbf0" stroke="#2a3f55" stroke-miterlimit="10" stroke-width="0.23"/><rect x="164.26" y="56.61" width="6.79" height="6.79" fill="#2a9faa" stroke="#2a3f55" stroke-miterlimit="10" stroke-width="0.23"/><rect x="135.17" y="66.91" width="6.79" height="6.79" fill="#fffbf0" stroke="#2a3f55" stroke-miterlimit="10" stroke-width="0.23"/><rect x="144.86" y="66.91" width="6.79" height="6.79" fill="#fffbf0" stroke="#2a3f55" stroke-miterlimit="10" stroke-width="0.23"/><rect x="154.56" y="66.91" width="6.79" height="6.79" fill="#ff3f55" stroke="#2a3f55" stroke-miterlimit="10" stroke-width="0.23"/><rect x="164.26" y="66.91" width="6.79" height="6.79" fill="#fffbf0" stroke="#2a3f55" stroke-miterlimit="10" stroke-width="0.23"/><rect x="135.17" y="77.21" width="6.79" height="6.79" fill="#fffbf0" stroke="#2a3f55" stroke-miterlimit="10" stroke-width="0.23"/><rect x="144.86" y="77.21" width="6.79" height="6.79" fill="#2a9faa" stroke="#2a3f55" stroke-miterlimit="10" stroke-width="0.23"/><rect x="154.56" y="77.21" width="6.79" height="6.79" fill="#fffbf0" stroke="#2a3f55" stroke-miterlimit="10" stroke-width="0.23"/><rect x="164.26" y="77.21" width="6.79" height="6.79" fill="#2a9faa" stroke="#2a3f55" stroke-miterlimit="10" stroke-width="0.23"/><rect x="135.17" y="87.52" width="6.79" height="6.79" fill="#2a9faa" stroke="#2a3f55" stroke-miterlimit="10" stroke-width="0.23"/><rect x="144.86" y="87.52" width="6.79" height="6.79" fill="#fffbf0" stroke="#2a3f55" stroke-miterlimit="10" stroke-width="0.23"/><rect x="154.56" y="87.52" width="6.79" height="6.79" fill="#fffbf0" stroke="#2a3f55" stroke-miterlimit="10" stroke-width="0.23"/><rect x="164.26" y="87.52" width="6.79" height="6.79" fill="#fffbf0" stroke="#2a3f55" stroke-miterlimit="10" stroke-width="0.23"/><rect x="135.17" y="97.82" width="6.79" height="6.79" fill="#fffbf0" stroke="#2a3f55" stroke-miterlimit="10" stroke-width="0.23"/><rect x="144.86" y="97.82" width="6.79" height="6.79" fill="#ff3f55" stroke="#2a3f55" stroke-miterlimit="10" stroke-width="0.23"/><rect x="154.56" y="97.82" width="6.79" height="6.79" fill="#2a9faa" stroke="#2a3f55" stroke-miterlimit="10" stroke-width="0.23"/><rect x="164.26" y="97.82" width="6.79" height="6.79" fill="#fffbf0" stroke="#2a3f55" stroke-miterlimit="10" stroke-width="0.23"/><rect x="135.17" y="108.13" width="6.79" height="6.79" fill="#2a9faa" stroke="#2a3f55" stroke-miterlimit="10" stroke-width="0.23"/><rect x="144.86" y="108.13" width="6.79" height="6.79" fill="#fffbf0" stroke="#2a3f55" stroke-miterlimit="10" stroke-width="0.23"/><rect x="154.56" y="108.13" width="6.79" height="6.79" fill="#fffbf0" stroke="#2a3f55" stroke-miterlimit="10" stroke-width="0.23"/><rect x="164.26" y="108.13" width="6.79" height="6.79" fill="#2a9faa" stroke="#2a3f55" stroke-miterlimit="10" stroke-width="0.23"/><rect x="135.17" y="118.43" width="6.79" height="6.79" fill="#fffbf0" stroke="#2a3f55" stroke-miterlimit="10" stroke-width="0.23"/><rect x="144.86" y="118.43" width="6.79" height="6.79" fill="#2a9faa" stroke="#2a3f55" stroke-miterlimit="10" stroke-width="0.23"/><rect x="154.56" y="118.43" width="6.79" height="6.79" fill="#ff3f55" stroke="#2a3f55" stroke-miterlimit="10" stroke-width="0.23"/><rect x="164.26" y="118.43" width="6.79" height="6.79" fill="#fffbf0" stroke="#2a3f55" stroke-miterlimit="10" stroke-width="0.23"/><rect x="135.17" y="37.21" width="35.88" height="6.42" fill="#ffdfaa" stroke="#2a3f55" stroke-miterlimit="10" stroke-width="0.23"/><rect x="135.17" y="27.58" width="35.88" height="6.42" fill="#ff3f55" stroke="#2a3f55" stroke-miterlimit="10" stroke-width="0.23"/><line x1="68.95" y1="136.32" x2="68.95" y2="140.13" fill="#fffbf0" stroke="#2a3f55" stroke-miterlimit="10" stroke-width="0.23"/><rect x="174.45" y="53.81" width="41.3" height="95.52" fill="#fffbf0" stroke="#2a3f55" stroke-miterlimit="10" stroke-width="0.23"/><rect x="174.39" y="127.43" width="41.3" height="21.91" fill="#fffbf0" stroke="#2a3f55" stroke-miterlimit="10" stroke-width="0.23"/><rect x="174.45" y="53.51" width="41.3" height="6.82" fill="#2a3f55" stroke="#2a3f55" stroke-miterlimit="10" stroke-width="0.23"/><rect x="206.23" y="64.65" width="5.75" height="25.86" fill="#2a9faa" stroke="#2a3f55" stroke-miterlimit="10" stroke-width="0.23"/><rect x="206.23" y="83.32" width="5.75" height="7.18" fill="#2a3f55" stroke="#2a3f55" stroke-miterlimit="10" stroke-width="0.23"/><rect x="196.89" y="64.65" width="5.75" height="25.86" fill="#2a9faa" stroke="#2a3f55" stroke-miterlimit="10" stroke-width="0.23"/><rect x="196.89" y="83.32" width="5.75" height="7.18" fill="#2a3f55" stroke="#2a3f55" stroke-miterlimit="10" stroke-width="0.23"/><rect x="187.56" y="64.65" width="5.75" height="25.86" fill="#2a9faa" stroke="#2a3f55" stroke-miterlimit="10" stroke-width="0.23"/><rect x="187.56" y="83.32" width="5.75" height="7.18" fill="#2a3f55" stroke="#2a3f55" stroke-miterlimit="10" stroke-width="0.23"/><rect x="178.22" y="64.65" width="5.75" height="25.86" fill="#2a9faa" stroke="#2a3f55" stroke-miterlimit="10" stroke-width="0.23"/><rect x="178.22" y="83.32" width="5.75" height="7.18" fill="#2a3f55" stroke="#2a3f55" stroke-miterlimit="10" stroke-width="0.23"/><rect x="206.23" y="95.53" width="5.75" height="25.86" fill="#2a9faa" stroke="#2a3f55" stroke-miterlimit="10" stroke-width="0.23"/><rect x="206.23" y="114.2" width="5.75" height="7.18" fill="#2a3f55" stroke="#2a3f55" stroke-miterlimit="10" stroke-width="0.23"/><rect x="196.89" y="95.53" width="5.75" height="25.86" fill="#2a9faa" stroke="#2a3f55" stroke-miterlimit="10" stroke-width="0.23"/><rect x="196.89" y="114.2" width="5.75" height="7.18" fill="#2a3f55" stroke="#2a3f55" stroke-miterlimit="10" stroke-width="0.23"/><rect x="187.56" y="95.53" width="5.75" height="25.86" fill="#2a9faa" stroke="#2a3f55" stroke-miterlimit="10" stroke-width="0.23"/><rect x="187.56" y="114.2" width="5.75" height="7.18" fill="#2a3f55" stroke="#2a3f55" stroke-miterlimit="10" stroke-width="0.23"/><rect x="178.22" y="95.53" width="5.75" height="25.86" fill="#2a9faa" stroke="#2a3f55" stroke-miterlimit="10" stroke-width="0.23"/><rect x="178.22" y="114.2" width="5.75" height="7.18" fill="#2a3f55" stroke="#2a3f55" stroke-miterlimit="10" stroke-width="0.23"/><rect x="177.35" y="131.22" width="8.52" height="10.2" fill="#2a9faa" stroke="#2a3f55" stroke-miterlimit="10" stroke-width="0.23"/><rect x="203.84" y="131.22" width="8.52" height="10.2" fill="#2a9faa" stroke="#2a3f55" stroke-miterlimit="10" stroke-width="0.23"/><rect x="188.74" y="131.51" width="12.59" height="17.82" fill="#ffdfaa" stroke="#2a3f55" stroke-miterlimit="10" stroke-width="0.23"/><rect x="196.01" y="133.32" width="2.13" height="8.1" fill="#2a3f55" stroke="#2a3f55" stroke-miterlimit="10" stroke-width="0.23"/><rect x="191.99" y="133.32" width="2.13" height="8.1" fill="#2a3f55" stroke="#2a3f55" stroke-miterlimit="10" stroke-width="0.23"/></svg>