<svg xmlns="http://www.w3.org/2000/svg" id="Layer_1" x="0" y="0" version="1.1" viewBox="0 0 994.6 1078.8" xml:space="preserve"><style>.st1,.st2,.st4{fill:none;stroke-linecap:round;stroke-linejoin:round}.st1{opacity:.3;stroke-miterlimit:10;stroke:#2b2c2b}.st2,.st4{stroke:#d3d3d3;stroke-width:.5}.st4{stroke-dasharray:3.0099,4.0132}.st6{stroke:#010101;stroke-miterlimit:10}.st6,.st7{fill:#010101}.st8{font-family:&apos;SourceSansPro-Regular&apos;}.st10{font-family:&apos;OpenSans-Regular&apos;}.st11{font-size:11px}.st14{font-size:12px}.st15{fill:#14192e}.st17{fill:#6b6c6c}.st18{font-family:&apos;SourceSansPro-Bold&apos;}.st19{font-size:18px}</style><rect width="994.6" height="1078.8" fill="#fffefa"/><polyline points="135.3 273.9 149.9 290.5 162.5 277.7 177.4 273.9 190.6 267.9 202.1 260.6 217 258 228.9 246.9 242.1 234.2 257 231.1 270.6 219.3 284.3 214 296.6 214 312 210.9 324.3 205.8 336.1 205.8 349.8 199.5 363.4 205.8 376.1 205.8 389.3 210.5 404.3 217.1 418.3 221 430.2 224.5 444.3 230.7 457.5 234.7 470.2 238.6 484.7 240.4 497.3 235.1 510.2 233.3 523 220.1 537.9 221.5 551.1 205.8 565.2 199.5 576.6 194.2 591.5 194.2 603.8 199 617.5 199.5 630.7 205.8 644.3 205.8 657.9 205.8 670.7 207.8 683 209.2 697.9 213.1 711.1 211.4 724.3 211.8 737.5 215.3 751.1 215.3 763.9 211.8" class="st1"/><polyline points="135.3 296.7 150.5 303.2 162.9 307.5 177 307.5 190.6 309.8 202.3 315.3 215.6 320.8 230.4 316.9 241.7 311.8 255 307.1 268.6 295 283.8 287.6 296.3 289.2 310 287.6 324 287.6 336.1 287.6 349.7 285.7 362.6 278.3 377 273.6 389.5 268.9 402.4 261.9 417.6 261.9 430.1 266.2 442.2 275.5 457.4 289.2 468.7 295 483.1 296.2 497.3 295.4 510.8 292.5 522.5 288.8 537.3 281 549.8 274.7 561.9 263.8 576.7 266.2 591.1 264.2 605.2 261.9 616.5 264.6 630.9 264.2 645.4 259.5 657.1 256.4 669.9 256.4 684.7 256.4 697.6 260.3 710.9 258.4 723 254.1 739 254.1 749.1 244.3 763.9 238.9" class="st1"/><polyline points="136.9 306.6 149.8 306.6 162.8 299.4 176.8 297.2 192.3 294.7 201.6 294.7 216.4 300.6 230.4 302.6 242.3 300.6 255.2 302.6 270.7 304 282.6 306.6 295.2 315.9 309.9 324.2 322.9 320.8 335.5 332.8 350.6 328.5 363.5 320.8 375.4 319.2 389.8 319.2 403.1 328.9 416.8 329.6 430.1 329.2 443.8 339.7 457.8 347.6 469.3 342.8 482.6 342.8 497.3 340 511 338.9 521.5 331.4 536.2 331 549.9 328.1 562.5 336.1 577.2 334.6 590.2 332.5 604.6 340.4 618.3 344.7 630.5 338.2 643.8 337.1 656.4 345.1 671.1 347.6 685.2 342.8 697.4 353.7 710.7 345.8 724.7 350.5 737.7 349 750.6 353.7 763.9 349" class="st1"/><polyline points="136.9 351.7 148.9 377.7 162.5 400.4 176.1 385.5 189.2 369.3 203.2 396.9 216.8 376.1 230.8 343.9 242.2 322.2 256.7 309.7 270.7 297 283.8 297 294.8 277.8 310 285.6 324 285.6 336.4 292.7 350 287.4 363.1 281.7 375 290.5 389.4 285.2 403.4 272.1 416.2 266.9 430.2 273.8 442.4 266.9 456 261.1 470.5 261.1 483.2 251.9 497.3 242.3 511.2 239.6 523.5 242.3 535.3 242.3 551.1 242.3 562 239.6 578.2 236.9 590.1 246.9 604.5 238.8 616.4 240.1 629.1 232.2 644.8 236.9 656.2 232.2 672 236.9 683.8 232.2 699.2 230.4 710.6 230.4 723.7 234 736.4 228.7 751.3 228.7 763.9 226.1" class="st1"/><polyline points="135.3 377.8 148.9 387.4 162.5 394 177 400.1 191 404.5 202.4 411.9 215.5 406.7 230.4 400.1 241.8 394.8 255.3 381.7 269.8 380 282.9 373.8 297.4 373.8 309.2 373.8 323.7 373.8 336.8 373.8 349.9 373.8 362.7 365.9 376.2 361.6 389.8 361.6 403.8 365.5 417 371.2 429.2 377.3 442.8 374.7 456.8 376.5 470 375.1 482.7 370.8 497.3 367.7 510.7 361.6 523.4 356.1 537 353.7 551.4 351.9 564.6 348.4 578.1 348.4 590.4 353.7 605.3 351 617.1 353.7 630.2 358.5 643.8 360.2 657.8 356.1 671 356.1 684.1 351.9 697.4 353.7 710.4 351.5 725.7 342.8 739.3 337.5 750.2 337.5 763.9 331.3" class="st1"/><polyline points="763.9 406.4 750 417.8 736.8 426.9 724.3 435.1 710.3 438.4 697.8 438.4 684.4 436.5 670.1 435.4 655.9 440.3 644.2 431.5 629.4 431.8 616.3 423.3 605.1 411.9 591.7 409.7 577.5 406.4 562.4 411.9 550.4 419.8 536.5 430.2 523.1 442.5 510.5 457 497.3 468.7 482.3 479.4 468.7 489.8 456.1 492.2 444.1 502.1 429.6 500.2 417.3 498.5 403.6 505.6 389.7 504.3 376 512.2 363.4 510 349.2 527 335.8 529.1 321.3 531.3 309.6 540.9 295.1 546.4 284.1 552 269.9 564.1 256.2 579.7 242.3 596.4 228.9 612.8 215.8 632.2 202.4 645.9 189.3 658.2 175.6 674.3 162.5 685.5 149.4 690.2 136.8 692.9" class="st1"/><polyline points="136.8 639.3 149.1 639.3 162.7 627.3 176.1 612.8 189.3 593.9 202.7 586 215.8 562.2 228.4 539.3 242.6 513.8 255.1 492.5 269.9 471.5 283 455.3 295.9 441.9 309 438.4 321.6 432.1 335.3 434.3 350.3 423.6 363.4 423.6 376.5 422.2 390.2 422.2 404.7 419.5 418.4 417.8 429.3 428.5 443.2 437.3 456.9 442.5 469.2 436.5 484 435.9 497.3 425.5 511.6 425.5 522.8 415.1 537 408.6 550.7 399.3 564.1 392.7 576.9 384.2 589.8 389.4 604.8 394.6 617.1 400.4 631.3 405 644.4 404.8 657 402.4 670.4 404.5 684.9 408.6 698.8 404.8 710.9 402.4 724.5 397.2 739 393.8 750.5 390.8 763.9 386.2" class="st1"/><polyline points="136.8 559.2 149.1 544.5 161.9 533.9 176.7 508.1 189.5 489.5 201.6 473.1 215.8 452.9 230 434.6 242.3 414.9 255.7 397.2 269.8 380 283.3 364.8 297 359.9 310.4 356.1 324.9 353.7 336.3 347.6 349.7 347.6 363.7 337.9 376.3 331.3 389.7 325.6 403.6 315.3 418.1 312.2 430.7 312.2 444.1 312.2 457.2 313.9 470.3 315.3 484.2 304.8 497.3 301.3 510.5 295.8 522.8 283 536.2 274.8 549.8 274.7 564.3 272 577.5 272 591.7 272 604.8 276.1 617.1 275 630.2 277.5 645.3 276.7 656.5 278.3 670.7 279.8 684.9 282.1 697.5 281.6 709.8 281.6 725.1 276.4 738.2 273.7 751.3 267.4 763.9 262.7" class="st1"/><polyline points="135.7 614.6 149.9 605.6 163.3 596.8 176.4 591.1 189.5 582.3 202.7 593.3 215.8 585.3 230 589.7 243.1 585 256 576.8 270.7 575.2 285.2 570.8 295.6 564.3 309.8 561.5 323.5 544.3 337.4 541.6 350.8 541.6 364.5 541.6 376.3 544.9 389.7 543.8 403.6 533.9 417.5 538.6 431.5 533.9 443.5 544.3 456.9 538.6 469.8 545.7 483.7 543.2 497.3 537.8 509.7 526 523.3 531.2 538.6 527.1 552 539.1 563 549.6 576.9 547 589.5 557.7 604.5 552 616.8 562.9 631.6 563.2 644.2 570.3 657.6 570.3 671.2 572.7 684.6 571.9 697.8 570.3 710.6 573 724.8 572.5 736.8 576.6 750.2 584.2 763.9 576.6" class="st1"/><polyline points="763.9 599 750 600.9 738.2 609.1 722.9 612.1 709.8 605.6 696.4 607.2 684.6 596.3 669.6 598.4 656.5 592.4 643.1 592.4 630 592.4 615.2 592.4 604 584 590.6 581.5 579.1 585.3 564.1 588.6 550.1 578.8 537.6 591.6 524.2 597.4 509.9 600.1 497.3 612.1 483.4 621.7 468.7 633.7 456.6 643 443 653.7 430.9 663 418.1 663 403 670.6 389.1 673.1 374.9 687 362.3 679.9 349.5 700.4 335.5 708.3 323.8 702.9 309.8 706.2 295.3 706.2 283.6 722.6 268.8 731.9 255.1 739.8 242 749.4 231.1 759.7 216.6 770.4 202.1 778.3 188.7 786.5 176.1 801.3 163.3 814.4 147.7 815.8 136.8 824.3" class="st1"/><polyline points="764.7 511.8 750 510.1 736.3 516.2 723.5 523.5 710.1 519.7 696.9 519.4 683.5 519.4 668.8 518.1 656.5 518.3 644.4 516.8 630 520.3 616.3 513.1 602.9 513.1 590.3 506.9 576.4 505.2 563 499.5 549.9 498.4 535.4 496.2 522.2 502.2 509.9 508.2 497.3 518.3 482.3 523.5 467.3 529.8 456.9 538.6 443.5 544.3 428.5 548.5 417.8 552 401.4 554.4 389.4 562.6 375.7 559.2 364 566.2 347.8 564.5 336.6 566.2 323.8 563.7 309.8 561.5 294.8 559.2 283.9 559.2 275.7 559.2 269.9 564.1 256.5 568.1 240.4 583.7 229.2 594.3 215.8 605.6 202.9 617.9 189.3 622.2 175.9 629.9 162.5 633.7 148.8 631 136.8 625.5" class="st1"/><polyline points="135.7 907.8 148.3 896.8 162.2 879.6 175.9 860.8 189.5 822.8 203.5 784.8 216.3 751.2 228.3 732.4 243.1 709.7 256.5 687.6 270.7 677.7 283.8 673.4 296.4 660.8 309.8 671.5 324.2 676.6 337.1 672.5 349.9 674.7 364.7 672.3 376.4 675.3 390.3 669.8 403.2 660.8 416.8 643.9 430 650.1 443.1 643.9 457 633.7 468.8 625.8 483.5 607.5 497.3 592 510.3 581.8 524.5 573.9 537.3 554 550.7 548.5 563.3 535.9 577.2 528.8 590.6 531.3 605.4 532.1 617.1 539.8 631.3 531 645 533.9 656.7 524.5 669.8 523.1 683.8 511.8 698.5 507 710.8 505.3 723.1 499.6 737.3 491.1 752.1 488.4 764.7 479.1" class="st1"/><line x1="99.9" x2="101.4" y1="253.5" y2="253.5" class="st2"/><line x1="105.4" x2="760.6" y1="253.5" y2="253.5" fill="none" stroke="#d3d3d3" stroke-dasharray="3 4" stroke-linecap="round" stroke-linejoin="round" stroke-width=".5"/><line x1="762.6" x2="764.1" y1="253.5" y2="253.5" class="st2"/><line x1="103.9" x2="105.4" y1="772.5" y2="772.5" class="st2"/><line x1="109.4" x2="760.5" y1="772.5" y2="772.5" class="st4"/><line x1="762.6" x2="764.1" y1="772.5" y2="772.5" class="st2"/><line x1="103.9" x2="943.7" y1="83.3" y2="83.3" fill="none" stroke="#d3d3d3" stroke-linecap="round" stroke-linejoin="round" stroke-miterlimit="10" stroke-width=".5"/><line x1="103.9" x2="105.4" y1="598.5" y2="598.5" class="st2"/><line x1="109.4" x2="760.5" y1="598.5" y2="598.5" class="st4"/><line x1="762.6" x2="764.1" y1="598.5" y2="598.5" class="st2"/><line x1="103.9" x2="105.4" y1="425.5" y2="425.5" class="st2"/><line x1="109.4" x2="760.5" y1="425.5" y2="425.5" class="st4"/><line x1="762.6" x2="764.1" y1="425.5" y2="425.5" class="st2"/><line x1="105.2" x2="105.2" y1="84.4" y2="954.4" class="st6"/><line x1="943.7" x2="95.7" y1="944.1" y2="944.1" class="st6"/><text transform="rotate(-90 313.1 266.9)" class="st7 st8" font-size="16">% of women getting degrees</text><text transform="translate(72.8 85.3)"><tspan x="0" y="0" class="st7 st10 st11">100</tspan><tspan x="6.3" y="172" class="st7 st10 st11">80</tspan><tspan x="6.3" y="344" class="st7 st10 st11">60</tspan><tspan x="6.3" y="516" class="st7 st10 st11">40</tspan><tspan x="6.3" y="688" class="st7 st10 st11">20</tspan></text><text transform="translate(230.2 58.6)" class="st7" font-family="SourceSansPro-SemiBold" font-size="30">Distribution of Women Bachelor’s by field</text><text class="st7 st10 st14" transform="translate(125.3 963)">1970</text><text class="st7 st10 st14" transform="translate(190 963)">1975</text><text class="st7 st10 st14" transform="translate(254.6 963)">1980</text><text class="st7 st10 st14" transform="translate(319.2 963)">1985</text><text class="st7 st10 st14" transform="translate(383.8 963)">1990</text><text class="st7 st10 st14" transform="translate(448.4 963)">1995</text><text class="st7 st10 st14" transform="translate(513 963)">2000</text><text class="st7 st10 st14" transform="translate(577.7 963)">2005</text><text class="st7 st10 st14" transform="translate(642.3 963)">2010</text><text class="st7 st10 st14" transform="translate(707 963)">2015</text><text class="st7 st10 st14" transform="translate(768 963)">2020</text><line x1="99.9" x2="110.1" y1="425.5" y2="425.5" class="st6"/><line x1="99.9" x2="110.1" y1="253.5" y2="253.5" class="st6"/><line x1="99.9" x2="110.1" y1="83.5" y2="83.5" class="st6"/><line x1="99.9" x2="110.1" y1="598.5" y2="598.5" class="st6"/><line x1="99.9" x2="110.1" y1="772.5" y2="772.5" class="st6"/><line x1="136" x2="136" y1="938.9" y2="949.1" class="st6"/><line x1="200.7" x2="200.7" y1="938.9" y2="949.1" class="st6"/><line x1="265.4" x2="265.4" y1="938.9" y2="949.1" class="st6"/><line x1="330.1" x2="330.1" y1="938.9" y2="949.1" class="st6"/><line x1="394.8" x2="394.8" y1="938.9" y2="949.1" class="st6"/><line x1="459.5" x2="459.5" y1="938.9" y2="949.1" class="st6"/><line x1="524.2" x2="524.2" y1="938.9" y2="949.1" class="st6"/><line x1="588.9" x2="588.9" y1="938.9" y2="949.1" class="st6"/><line x1="653.6" x2="653.6" y1="938.9" y2="949.1" class="st6"/><line x1="718.3" x2="718.3" y1="938.9" y2="949.1" class="st6"/><line x1="781.9" x2="781.9" y1="938.9" y2="949.1" class="st6"/><path d="M161.4 1050.7h-55.1v-55.1h55.1v13.7h-2.8v-10.9h-49.5v49.5h49.5v-11.4h2.8v14.2z" class="st15"/><path d="M130.1 1028.4h6.9v2.3h-9.7V1016h2.8v12.4zm18.6 4.5h-9.2v-2.2h9.2v2.2z" class="st15"/><circle cx="116.4" cy="1006.1" r="3.2" fill="#32aab3"/><text class="st17 st8 st14" transform="translate(774 229.6)">Public administration &amp; social services</text><text class="st17 st8 st14" transform="translate(774 215.3)">Health professions</text><text class="st17 st8 st14" transform="translate(774 264.9)">Psychology</text><text class="st17 st8 st14" transform="translate(774 243.5)">Education</text><text class="st17 st8 st14" transform="translate(774 484.5)">Agriculture and natural resources</text><text class="st17 st8 st14" transform="translate(774 353.7)">Foreign languages and literatures</text><text class="st17 st8 st14" transform="translate(774 334.2)">English language and literature/letters</text><text class="st17 st8 st14" transform="translate(774 392.8)">Communication, journalism</text><text class="st17 st8 st14" transform="translate(774 406)">Biological and biomedical sciences</text><text class="st17 st8 st14" transform="translate(774 601.5)">Physical sciences</text><text class="st17 st8 st14" transform="translate(774 580.3)">Mathematics and statisctics</text><text class="st17 st8 st14" transform="translate(774 514.6)">Social sciences and history</text><text transform="translate(175.8 1017.8)"><tspan x="0" y="0" class="st7 st18 st19">Data Research </tspan><tspan x="0" y="22" class="st7 st8 st19">by Leniolabs_</tspan></text><polyline fill="none" stroke="#ee1f48" stroke-linecap="round" stroke-linejoin="round" stroke-miterlimit="10" stroke-width="3" points="135.7 829.1 150.1 829.1 163.3 814.4 176.1 801.3 188.7 779.4 203.7 774.3 216.2 736.9 230.4 721.6 241.9 701.5 255.8 680.9 270.4 661.9 283.7 643 296.9 629.8 311.5 624.1 324.7 624.1 336.2 636.6 349.7 643.7 364.7 664.4 376.1 678.7 389.7 685.6 404 692.9 416.9 696.6 428.6 701.5 443.6 697.6 457.9 696.9 469.4 705.9 483.3 711.2 497.3 713.4 511.1 709.8 523.3 701.5 536.8 705.1 551.5 705.1 563.3 710.9 577.2 728 590.1 751.6 604.3 767.3 616.5 784.8 631.1 793.7 645.8 789.1 658.3 786.9 669.7 793 681.5 786.6 699 790.1 710.8 788.3 724.3 789.1 738.3 781.9 750.8 779.1 764.7 771.2"/><text transform="translate(773.7 777.4)" class="st18 st14" fill="#ee1f48">Computer and Information Science</text><g><rect width="320.2" height="36.9" x="644.1" y="1004.9" fill="none"/><text transform="translate(644.1 1013.4)"><tspan x="0" y="0" class="st7 st18 st14">Sources:</tspan><tspan x="45.7" y="0" class="st7 st8 st14"> National Center for Education Statistics, tables 325 - </tspan><tspan x="0" y="15" class="st7 st8 st14">trends in degrees by field and sex</tspan></text></g></svg>