<svg width="1541px" height="823px" viewBox="0 0 1541 823" version="1.1" xmlns="http://www.w3.org/2000/svg" xmlns:xlink="http://www.w3.org/1999/xlink">
    <title>32750DE4-D28F-42D2-ADC2-8D37F2A8B879</title>
    <g id="Page-1" stroke="none" stroke-width="1" fill="none" fill-rule="evenodd" opacity="0.0992687137">
        <g id="00-Landing-Research---V2" transform="translate(-1.000000, 179.000000)" stroke="#FFFFFF">
            <g id="Group-13" transform="translate(1.000000, -178.000000)">
                <path d="M1168,411.000998 C1168,390.012156 1150.98784,373 1130.001,373 C1109.01415,373 1092,390.012156 1092,411.000998 C1092,431.987844 1109.01415,449 1130.001,449 C1150.98784,449 1168,431.987844 1168,411.000998 Z" id="Stroke-1" stroke-width="3.382"></path>
                <path d="M1191,411.000994 C1191,377.311682 1163.68986,350 1130,350 C1096.31014,350 1069,377.311682 1069,411.000994 C1069,444.690306 1096.31014,472 1130,472 C1163.68986,472 1191,444.690306 1191,411.000994 Z" id="Stroke-3" stroke-width="3.382"></path>
                <path d="M1228,411 C1228,356.875389 1184.12461,313 1130,313 C1075.87737,313 1032,356.875389 1032,411 C1032,465.122628 1075.87737,509 1130,509 C1184.12461,509 1228,465.122628 1228,411 Z" id="Stroke-5" stroke-width="0.846"></path>
                <path d="M1288,411 C1288,323.73934 1217.26022,253 1129.99901,253 C1042.7378,253 972,323.73934 972,411 C972,498.26066 1042.7378,569 1129.99901,569 C1217.26022,569 1288,498.26066 1288,411 Z" id="Stroke-7" stroke-width="0.846"></path>
                <path d="M1540,410.500993 C1540,183.78721 1356.2108,0 1129.50099,0 C902.78721,0 719,183.78721 719,410.500993 C719,637.21279 902.78721,821 1129.50099,821 C1356.2108,821 1540,637.21279 1540,410.500993 Z" id="Stroke-9" stroke-width="0.846"></path>
                <path d="M1147,411 C1147,401.610232 1139.38821,394 1130.001,394 C1120.61179,394 1113,401.610232 1113,411 C1113,420.38776 1120.61179,428 1130.001,428 C1139.38821,428 1147,420.38776 1147,411 Z" id="Stroke-11" stroke-width="6.765"></path>
                <line x1="0" y1="410.219492" x2="971.498361" y2="410.219492" id="Path-2" stroke-width="2"></line>
            </g>
        </g>
    </g>
</svg>