<svg xmlns="http://www.w3.org/2000/svg" width="900" height="900"><g  opacity="0.15"><path d="M527.2641417402186,331.7389779217574L509.5206315226242,342.17212851192585L493.39100210421344,353.3543275432233L474.3780396935091,367.59666309586476L455.0296427006083,372.7098465669996M485.55844202045625,388.54143758042767L479.3875463136798,386.21795707033243L473.89502390065195,372.0754127921688L474.3780396935091,367.59666309586476L472.84769758025175,359.1374602428838L455.70679225798915,343.61362897330235L436.11248300801077,328.53981529424397L413.46527075037676,331.75149658046695M436.11248300801077,328.53981529424397L437.5330146950308,324.8459004910683L435.7542859001022,317.2774182527364M493.39100210421344,353.3543275432233L485.27503606845875,344.3289067361268L480.93539806210026,335.92988563363497L493.2471729582306,314.4113589379041L511.06372701200297,309.23473324354075M437.5330146950308,324.8459004910683L441.0509505369482,317.41498750035873" stroke="white" fill="transparent" d-constelation-name="Andromeda"></path><path d="M805.7586410744357,545.305596930506L841.970067417654,530.6467943324316L860.4589914616904,548.9999163174117" stroke="white" fill="transparent" d-constelation-name="Antlia"></path><path d="M104.50825857228642,784.8308628232851L119.1635174319938,785.8721260805723L133.8796471854518,785.4337663154654L162.34308379138622,780.3067211670148L176.55765575445815,765.9938680663251L170.53784318537498,782.8996244452799" stroke="white" fill="transparent" d-constelation-name="Apus"></path><path d="M329.51582523605344,472.6821603790444L332.6287882304123,471.38334923995126L356.95767587664204,462.77778056767715L378.3602032118229,449.62029469329565L388.2859151105094,452.29059888365134L392.7731343275285,448.8701277389287L396.85312945818237,449.11401214798457L407.6453181597984,467.8350758660994L423.4597705014898,471.8879509108279L418.171360406935,503.0283881700509M356.95767587664204,462.77778056767715L378.76867798641416,483.8573225214311M378.3602032118229,449.62029469329565L385.2702556601285,468.34922018766775M392.7731343275285,448.8701277389287L390.55016107474694,445.3743723700924M426.6282640530803,500.16354034075846L423.4597705014898,471.8879509108279L438.3804810369261,494.1219454861559" stroke="white" fill="transparent" d-constelation-name="Aquarius"></path><path d="M291.10944105631455,422.1191043296792L293.93824768574035,426.5480357362279L296.7710565174891,432.7607798892456L306.7713094344415,450.8750513729919L294.99482909901246,446.30433672347095L278.12654685814607,441.0249722808171L265.564384179183,413.7988519731513L293.93824768574035,426.5480357362279L278.12654685814607,441.0249722808171L266.08892282114124,461.0481298612523" stroke="white" fill="transparent" d-constelation-name="Aquila"></path><path d="M203.02021751413758,620.3574134889492L206.58718033451177,641.0211028768714L180.75271420189824,632.8366016027621L186.27700409586492,618.6152878665847L186.87983582076686,606.3977150444991L207.05193607927023,593.1879795301352L202.96118502987332,616.5693834780805" stroke="white" fill="transparent" d-constelation-name="Ara"></path><path d="M556.0830001175647,377.90275025752976L529.3117685037238,388.4192964784618L521.4739555294177,395.5881006449301L520.7800737016674,399.61995246097564" stroke="white" fill="transparent" d-constelation-name="Aries"></path><path d="M674.6137249414192,322.68911014956984L647.8242332794796,318.94142721131567L641.4617321364894,335.4129404551748L635.5077057680908,360.79578901145726L653.8292877274966,374.0889168182241L674.7340411487544,348.40546360088183L674.6137249414192,322.68911014956984L674.6127243908384,286.48918218859467L660.0529420949337,302.9418763120225L647.8242332794796,318.94142721131567L638.6189177989332,326.623795194093L638.937343021257,335.940172219337" stroke="white" fill="transparent" d-constelation-name="Auriga"></path><path d="M66.61265546402052,404.4621161837891L71.25420960812033,401.988699545804L84.37167785939977,399.91535192714423L94.48274175317027,369.0197202663928L94.63782709318644,344.93856924362115L113.31560505933953,338.202071449719L121.7932701300353,360.35106774897565L102.71026917867852,378.42654361213135L84.37167785939977,399.91535192714423L100.31044861074929,414.1470841878599M94.63782709318644,344.93856924362115L84.82342644660844,318.616014417566L82.99742163673949,296.8793115667638L90.33470918302532,296.62518540109147L84.82342644660844,318.616014417566" stroke="white" fill="transparent" d-constelation-name="Boötes"></path><path d="M619.1494541857617,574.9733571858734L625.2323014414321,564.3306322541208L626.1678162344334,549.0203126233988L640.1435067463512,543.8628225797022" stroke="white" fill="transparent" d-constelation-name="Caelum"></path><path d="M635.6910566620131,288.7567540452618L639.5251664874477,257.8487563471773L633.6669428371556,224.76307652346765L616.0080698507521,207.09863714150302L593.83777573159,190.03336979382448L593.3142376402126,229.77325172299544L580.5244497041289,260.37431047444886M633.6669428371556,224.76307652346765L658.4700076359205,212.91867103580893L686.6938723781059,204.99869665842817L696.7274173460044,174.59752488012333L712.4710569899714,137.7663521163742" stroke="white" fill="transparent" d-constelation-name="Camelopardalis"></path><path d="M786.5243068477405,418.94550217532276L777.8930572628994,402.62987815632374L777.0180757800334,393.81674007108137L779.1322391571584,373.6395441192521M777.8930572628994,402.62987815632374L760.2773637382127,425.7446479320183" stroke="white" fill="transparent" d-constelation-name="Cancer"></path><path d="M34.56076802262572,344.91752920514466L20.637356278552033,335.0034299089891" stroke="white" fill="transparent" d-constelation-name="Canes Venatici"></path><path d="M689.1034483141973,494.488346198372L703.1419233750572,491.23948378894715L714.3203246008429,510.23371435972683L717.6766715239692,517.3063236821798L713.504125464596,521.6406889535625L711.5698110543608,524.5919182417164L687.6111271230085,527.7289098604148M727.4968253363865,525.5398313932319L717.6766715239692,517.3063236821798M703.1419233750572,491.23948378894715L710.013454626004,492.12330304383426L714.7793271797619,488.4193149296747L708.795784569231,479.1572177708037L710.013454626004,492.12330304383426" stroke="white" fill="transparent" d-constelation-name="Canis Major"></path><path d="M737.0063081934809,435.7322553653428L729.4076268079741,428.0127266296695" stroke="white" fill="transparent" d-constelation-name="Canis Minor"></path><path d="M310.7379922118254,480.3593430828548L312.84114953256216,486.2110423954233L317.7496005440771,494.11458887365796L328.5275313999175,514.1872945184883L332.10825179077705,518.7782479727974L353.8987426136437,506.36592827840343L366.6392534336255,489.7040299156531L362.2931118484921,491.09899173312243L351.1344714966763,491.5488105290539L340.9416125929296,492.5910830520867L310.7379922118254,480.3593430828548" stroke="white" fill="transparent" d-constelation-name="Capricornus"></path><path d="M698.5221312060887,568.8525085987442L689.8866292812795,604.4694298012655L706.1761792033008,627.5467192845945L727.7601824758034,651.842182207409L741.2479829454546,664.0398660295257L756.9467353490917,675.8033084317651L775.0931602902509,686.5470991389847L795.724619575383,695.4824970969731L814.5074824990745,697.8215639884544L833.5812012109998,697.814310029456L851.8537561919491,661.1787132776773L845.0172442113285,646.2190768068142L835.6736026129935,644.3680228211681L816.321622403508,640.1603507065894L798.1574583124769,633.9773488908033L781.1523276177336,635.4291145362977L764.02867800309,635.128420190307L747.9350720493694,605.656650629114L755.9107108661738,583.5784378418583L777.9048137322231,612.9777031615525L798.1574583124769,633.9773488908033M851.8537561919491,661.1787132776773L866.6016216145607,650.1627573690034L867.8688189250806,647.606148444613L870.3912069391519,639.160844324655L867.8833269085017,632.5140409277088L858.4433823167693,631.923967921336L845.0172442113285,646.2190768068142" stroke="white" fill="transparent" d-constelation-name="Carina"></path><path d="M521.3211214282081,240.60000806951845L503.4490368172041,258.89455760163275L485.24702065219776,256.450934720238L475.1154454715219,276.5602884931893L455.52391468749886,264.2756671534389" stroke="white" fill="transparent" d-constelation-name="Cassiopeia"></path><path d="M875.648099690413,612.0372270918442L900.0322677562292,599.7023747285173M-0.4632549188874009,599.7023747285173L4.763621314951251,596.5021048527287L17.071143871113406,594.5690405011053L25.499281688062126,589.664956498655L42.85165303824584,599.3588862740944L62.000867699698006,607.678895474498L71.78875375588615,583.4006111784762L68.08471550594919,566.3890085562106L68.0149271029419,563.7399676939779L78.7568381378752,546.6028171191111L96.78225712537915,565.320387705158L111.57439691118907,565.1396009723072M68.0149271029419,563.7399676939779L49.937479485238896,547.6685284041724M99.33216028042091,641.8066553092012L78.7938934082785,624.9055122119445L62.000867699698006,607.678895474498L76.96910438771994,639.4409255860558M17.071143871113406,594.5690405011053L6.823254685425411,603.1239874307244L-0.4632549188874009,613.3701180784267M900.0322677562292,613.3701180784267L882.3775527588932,634.7964806476316" stroke="white" fill="transparent" d-constelation-name="Centaurus"></path><path d="M318.20059871835025,244.3677190126287L328.02350404486464,250.60959479212346L348.841209565597,246.60242337773332L364.429787613684,266.0698597726877L384.14613708265574,274.24795685772904L381.53119813986524,268.8396283087188L392.98525105064755,267.8211696768633L405.8105585323479,225.64763116633156L416.56279875508864,184.6728777643752L424.8745340360743,159.63002738069514L436.8696496599934,130.31055980619215L422.39127584917276,136.9378328841869L409.2498909389173,144.51785266601587L386.9097345393634,161.30463016773854L369.19576939590837,178.79167066405415L355.144928361968,195.94642229735487L348.841209565597,246.60242337773332M355.144928361968,195.94642229735487L382.9365463488299,209.4364001063686L405.8105585323479,225.64763116633156" stroke="white" fill="transparent" d-constelation-name="Cepheus"></path><path d="M551.9037003417714,440.721840285865L547.2596448212197,434.8071273524009L542.4349899208426,427.5808865444611L552.930265237621,423.38850512709234L562.168348749687,426.4490432779798L563.7719811929842,438.5815231112019L551.9037003417714,440.721840285865L549.5161365184564,447.99839354257165L536.9239573220708,456.2715535963906L519.485611387822,474.81316607112626L514.8628175671112,489.2100556141494L477.04300616533703,494.56907720483593L461.93369184542934,470.97976658538323L492.67685912720304,474.4250004823282L502.3281700291188,469.3595645401409L519.485611387822,474.81316607112626" stroke="white" fill="transparent" d-constelation-name="Cetus"></path><path d="M761.5348056805703,759.2347292221366L780.3561192328464,768.3491450744505L801.3548186019987,775.1946148711666L823.947411506575,778.9798736296519L847.1709293363931,779.1893252660204L853.3015528822945,804.9056386605844L877.5740682440371,801.0785747303485L900.0322677562292,793.7029073220112M-0.4632549188874009,793.7029073220112L11.010058590574374,788.3935912109373L-0.4632549188874009,774.6837085563661M900.0322677562292,774.6837085563661L899.798639195624,774.3810562921815L873.9220863997502,779.1454595152484L847.1709293363931,779.1893252660204" stroke="white" fill="transparent" d-constelation-name="Chamaeleon"></path><path d="M123.05096221003828,631.6726805249104L101.15941577851584,664.5752725997856L115.13602971747906,649.177631611962L126.71772995084234,634.2007504444662" stroke="white" fill="transparent" d-constelation-name="Circinus"></path><path d="M688.7372468016428,537.6533692403921L669.2552763062118,544.7407864213138L662.1818839755988,539.5719493103519L656.9062309009486,543.8244273396206M669.2552763062118,544.7407864213138L674.374843490265,567.5499729969298" stroke="white" fill="transparent" d-constelation-name="Columba"></path><path d="M43.30332885957512,404.2719727952383L44.48222758134398,376.1597195746791L16.382264796266952,375.0535324782924" stroke="white" fill="transparent" d-constelation-name="Coma Berenices"></path><path d="M261.3825830269378,548.9045476164057L266.19498118270076,548.7665817387426L268.1047821037075,551.4179814126497L268.45297370580863,556.0168061423134L267.4026457336662,559.7868552192069L264.1290943710969,565.1089228843166L255.66718797204786,569.6714127258977L245.61165463550907,565.8430338929729" stroke="white" fill="transparent" d-constelation-name="Corona Austrina"></path><path d="M132.6910169179206,366.1414229232027L129.50126166648914,372.66604758374666L133.79062200616494,379.43484746308764L138.8276437673063,380.6063047257791L143.11200135407836,381.23959552590065L148.11075205550605,378.9775115724791L150.5215786798234,370.52422201300607" stroke="white" fill="transparent" d-constelation-name="Corona Borealis"></path><path d="M4.7981403099871045,512.6913874918678L5.86822915609946,506.930499755536L9.420934130697958,493.40101863772907L18.21227180845898,490.7155811573098L21.040578162594386,509.04206853255624L5.86822915609946,506.930499755536" stroke="white" fill="transparent" d-constelation-name="Corvus"></path><path d="M885.450493730022,473.45958122061546L877.9013395982622,476.1473986473046L874.6062763982069,486.203540175664L862.3705433462136,495.3908641188486L869.80188264709,507.4891430885696L877.1226611087934,496.6604137843628L878.0714331969898,493.773946332962L890.5037744381005,495.52762051246697L897.5408968101614,492.37611535710914M874.6062763982069,486.203540175664L878.0714331969898,493.773946332962" stroke="white" fill="transparent" d-constelation-name="Crater"></path><path d="M29.378916564920758,636.0146984101226L9.007706740848164,631.4203229635614M16.169897935502718,653.8519315245879L19.026219705899166,623.7125724741302" stroke="white" fill="transparent" d-constelation-name="Crux"></path><path d="M345.3122676672913,369.4383533308044L328.5998211793767,358.3815189813218L313.60231838686786,338.6413866735297L290.30599893997214,322.03989220004064L280.75774474787374,297.1141038477184L272.87640782330493,290.3721991886392M325.61117659467607,321.5091308798854L313.60231838686786,338.6413866735297L297.39189815284465,355.0018608999487L281.3925940913597,375.92900464526383" stroke="white" fill="transparent" d-constelation-name="Cygnus"></path><path d="M320.47134826136266,420.36108732303086L323.1830904728407,411.9109084009507L324.48930925600996,408.4962153804979L328.8727213502763,407.94450274146794L326.8786240428413,410.6701367979375L323.1830904728407,411.9109084009507" stroke="white" fill="transparent" d-constelation-name="Delphinus"></path><path d="M609.889108423274,599.5465445913574L621.1265421333239,614.4394059247087L637.7592578945113,632.5385227321573L658.4150611767197,650.5181535509901L665.3861472104511,669.1369963685445L671.2193570962244,653.7994190666516L658.4150611767197,650.5181535509901L640.8338866470689,625.376796923239L621.1265421333239,614.4394059247087" stroke="white" fill="transparent" d-constelation-name="Dorado"></path><path d="M220.61389892604785,275.03243105141087L222.53820783047553,298.0844164934149L206.1709512929197,294.79089422627874L207.31808253374976,282.6410619931487L220.61389892604785,275.03243105141087L240.84211374953352,246.4882218575585L254.042499379672,231.4525800242961L270.0325929351679,216.31741731487426L255.23286591661738,202.8665418182999L237.64101857160836,189.99038188419541L212.3054766687882,208.89280663103565L192.6345024859512,228.62975897056393L177.58975115347437,240.30256055915294L164.622338014335,252.32095859818384L150.80073229185274,267.102788646593L127.68826401416999,265.16934702679475L104.73526963353271,249.55085579514318L77.32279901801508,236.5691059072853L52.118304711175824,217.50097890118454L37.11428058926168,208.96376431542444L20.474766809180153,201.64452261677042L-0.4632549188874009,202.17256261930604M900.0322677562292,202.17256261930604L882.1496773641273,204.91863771423593M237.64101857160836,189.99038188419541L237.82812153020862,178.67132622305263M270.0325929351679,216.31741731487426L292.30559927560137,198.13132831240404" stroke="white" fill="transparent" d-constelation-name="Draco"></path><path d="M347.1180113279001,435.674984970668L346.2777989777152,423.6605861886761L343.6896247629598,423.34403883960215" stroke="white" fill="transparent" d-constelation-name="Equuleus"></path><path d="M642.2964414584803,461.5598458422406L628.3217514971433,456.96571208218535L622.5790914389279,457.21075394017686L607.2871766380333,465.9642539488666L598.6349154909965,482.9274086886267L591.2013249513135,479.3183671058632L589.3915790883817,473.36109572991273L582.9395286684145,472.58706080643816L560.1124674438906,471.167610661105L552.4174830649865,483.8289817103688L553.0308205709864,496.11279172474855L563.8420197336368,509.6631946697236L574.5511627370506,504.6021049168121L583.4755736420514,504.2655951878873L591.6425677574243,508.641373437826L622.0985770225226,529.1744894113648L614.8983649057996,539.3989708327315L611.0572512262997,538.7404266163204L593.272214515821,546.0762155234268L585.5434615548166,559.0571639451389L574.8080540986582,568.4202853371058L561.2590984094303,559.15619774864L550.2567940858567,557.6873592065206L541.7008359322172,584.9385291108897L535.1499811424009,599.6494086729408L522.2981590703106,600.0384840963281L510.8893810733073,624.2829188658009" stroke="white" fill="transparent" d-constelation-name="Eridanus"></path><path d="M569.8978521236269,524.6362389683187L555.5241926182157,534.5825173989443L527.634095317451,525.5217609664428" stroke="white" fill="transparent" d-constelation-name="Fornax"></path><path d="M684.2120066625552,391.0157851370449L689.2665380588596,390.99737298057187L702.3810046583967,383.8393835407618L719.3951171464075,369.38537022024354L734.0644393484304,364.58684751219596L740.7671276888755,375.7406235123914L734.8928952292915,378.92759071332273L725.0127083820291,392.4332563439004L714.9984477569462,396.2236653382346L698.4911141380854,407.22743522689814L703.2299718261633,416.2875121793687M725.0127083820291,392.4332563439004L723.7432598327024,406.8593896470932" stroke="white" fill="transparent" d-constelation-name="Gemini"></path><path d="M412.8141624599536,604.7106288238328L405.1066711987902,598.8661240899596L401.4251453369201,581.9171738851066L393.3517027008473,570.7596587535077L379.89179601330613,582.1969834294495L401.4251453369201,581.9171738851066M393.04678491136366,569.8833656168365L384.50808625524206,562.6007825333608L378.56706704439296,556.6730293225005L370.9466236837548,549.7135747889193" stroke="white" fill="transparent" d-constelation-name="Grus"></path><path d="M163.32712528755394,399.99294385130315L168.51723128755015,393.76002204673057L175.43728924166317,365.4269225804545L176.44409326354304,342.9729273335033L170.94556754703063,331.37561592347254L161.96412525892708,317.8024981956437L155.10334992672347,322.73328330801564L145.03906177260313,331.3264652656228M175.43728924166317,365.4269225804545L187.32107862687764,367.40602568556665M176.44409326354304,342.9729273335033L196.54965690842647,349.66912442684725M222.3175864274201,348.28639484495835L201.9496283927349,348.614866896365L196.54965690842647,349.66912442684725L187.32107862687764,367.40602568556665L196.54015167790934,384.64492082012816L216.1927160473582,376.6050886265963L223.26285658858382,372.258662500626L229.37722118754783,373.64696312227034M196.29976940088414,412.44002742168954L168.51723128755015,393.76002204673057" stroke="white" fill="transparent" d-constelation-name="Hercules"></path><path d="M608.6231618009799,565.78181770637L582.3054209442579,582.7676934241472L551.438944597013,596.8101543291845L548.2174218646427,603.8406927607126L550.2525417458885,612.2910657745913L564.6061902396847,636.2577300647744L561.5940327163364,659.3189732104125" stroke="white" fill="transparent" d-constelation-name="Horologium"></path><path d="M779.2002765966495,432.73057437562545L780.2368469983066,434.1922333542785L776.9798047203196,440.3136820302917L774.1862674988654,440.4572591960636L773.497638561664,434.5291252172622L779.2002765966495,432.73057437562545L784.5897422998601,433.92115300371916L796.4530203981692,443.02958991063L812.3940423883254,451.6788627735973L804.7218205351335,470.5614298134313L819.6620418068942,486.3797394822744L831.6121176680834,479.9646268761621L841.3064522449715,491.55351462056007L856.0235507372252,489.876693820141L883.1492273942966,532.9629262063412L895.5978275823446,539.0711453826432L900.0322677562292,537.0435126879639M-0.4632549188874009,537.0435126879639L25.389773907771428,523.4109323903881L48.8899030271935,508.4285395211181L78.56248118756446,518.1149163974478L106.02559352799409,521.7131781268706" stroke="white" fill="transparent" d-constelation-name="Hydra"></path><path d="M465.8878677405539,762.9790746035956L483.3483737290207,765.5303654145209L501.17024176860787,765.9723247683896L518.8386237516268,764.2667455880417L535.864703274106,760.5582051543283L551.861699178786,755.1355196347888L566.5839242931642,748.3639647477054L591.8872023744177,732.2323257599061L567.4606949197978,708.4368709615742L549.5826731320763,685.3592529133056L538.4265341567124,688.0337776382657L521.6588072492112,681.2293579105642L524.056626715979,645.611629474732" stroke="white" fill="transparent" d-constelation-name="Hydrus"></path><path d="M323.19434666687414,583.4120432847725L327.24132362836326,601.2999116583887L333.9770301379731,630.0053904126335L354.6234256453136,623.064648317272L373.4412464192101,614.2107814587591L349.6459023701653,607.607477181799L323.19434666687414,583.4120432847725" stroke="white" fill="transparent" d-constelation-name="Indus"></path><path d="M389.476570301602,295.08680515623087L394.31123070778665,302.8681080188516L393.20987465602593,312.69014839652783L387.8914480440486,316.9925380572944L393.8084540409597,329.03630336715804L400.0786543928756,325.04723244720446L393.20987465602593,312.69014839652783L390.07439927360025,305.9972661148174L389.476570301602,295.08680515623087M393.8084540409597,329.03630336715804L383.422238737483,340.41018245010264L384.7297082088782,346.7156097254756" stroke="white" fill="transparent" d-constelation-name="Lacerta"></path><path d="M830.2263551137445,418.6655728949032L829.5762473739021,406.2789944645151L837.4805969618282,398.1662347712661L871.3342258615087,396.3481485336028L893.1907530227049,411.97035536476574L871.4165211467755,409.7497275803L830.2263551137445,418.6655728949032M837.4805969618282,398.1662347712661L835.4282175830645,388.542255350083L820.4657340608818,381.4105288598378L816.1431054143961,387.5677888371069" stroke="white" fill="transparent" d-constelation-name="Leo"></path><path d="M829.6367806840376,354.5083206921642L841.1958914057986,358.90639588448784L858.3290694129187,357.64270315704977L842.427569170702,349.9875849918557L829.6367806840376,354.5083206921642L808.8716040687946,350.9516283753938" stroke="white" fill="transparent" d-constelation-name="Leo Minor"></path><path d="M678.7575051715958,486.6093217325681L672.6601499325045,484.6256159496494L666.7511483402394,486.31608400254987L657.8555032644352,494.1371845510496L645.4744402405879,489.90769091234745L640.8028695790656,506.2569028172464L655.0507098489475,501.9220714988015L665.1925406730759,506.4663245912683L669.4814007374614,502.2424018809516M645.6617933368334,481.4699696249487L645.4744402405879,489.90769091234745L649.6292265271529,482.074683525524" stroke="white" fill="transparent" d-constelation-name="Lepus"></path><path d="M114.64408609293048,514.2179995548233L106.39454655464573,489.4814490319088L122.73378767594045,472.39587860514007L134.31491051047806,486.2319974021343L135.25142585406013,522.2083203230522L136.27198744642533,526.9046570089456M106.39454655464573,489.4814490319088L134.31491051047806,486.2319974021343" stroke="white" fill="transparent" d-constelation-name="Libra"></path><path d="M143.96547099945826,538.2259158554389L136.96636954946587,540.5940972961172L125.73493914290054,546.2656850522454L125.46353979787199,560.2834504563059L111.18068025766394,568.6402273692419L100.79821701886505,583.7689882912566L119.78091277450164,602.0240866665677L123.68856306762132,585.5770391607887L126.28224031057078,574.0420007289154L134.07377782051725,562.0021914656628L149.69562417541425,552.9835993363467L153.74185072396773,547.9495197060767M125.46353979787199,560.2834504563059L134.07377782051725,562.0021914656628" stroke="white" fill="transparent" d-constelation-name="Lupus"></path><path d="M687.17963968506,264.95135443980644L710.7260967771432,267.784869626311L729.1344764994292,307.01430350601913L747.6495510017244,317.4371518945704L764.2295385321756,328.81445316092413L787.8702975164945,333.58111973398877L799.2543118866244,349.6897435222878L800.6370727892211,357.1046136953046" stroke="white" fill="transparent" d-constelation-name="Lynx"></path><path d="M252.6590326510226,347.16944607576664L252.41314734580328,340.74226839967156L247.76008687002482,343.4181118029192L252.6590326510226,347.16944607576664L258.7448815584353,349.3896540607608L261.52065900708135,362.2158212283995L255.9778589273708,360.2076504687252L252.6590326510226,347.16944607576664" stroke="white" fill="transparent" d-constelation-name="Lyra"></path><path d="M681.3126612171865,737.0426389115852L657.3259618695732,752.9736280084547L634.3778340247786,738.8022118734118L639.0866751954338,707.4662282658928" stroke="white" fill="transparent" d-constelation-name="Mensa"></path><path d="M330.949113942978,538.6844452759929L330.022103829913,571.5899505924167L350.2052101448046,560.8181799879935L348.4399887827162,533.891900105856L338.0300104029467,534.1440919185133L330.949113942978,538.6844452759929" stroke="white" fill="transparent" d-constelation-name="Microscopium"></path><path d="M738.2227275620278,472.82241955896876L755.3238879505639,456.2870831402049L719.8483665594873,450.05279372292745L692.9295537349858,466.45687780258044L684.1982490920698,464.54720646317674M719.8483665594873,450.05279372292745L704.8378566094286,442.7844966703716L689.7715659644932,437.319204580036L695.4844596429313,430.4272248787834L700.5334880110416,423.94298812042325" stroke="white" fill="transparent" d-constelation-name="Monoceros"></path><path d="M891.0315648694462,675.3026863701004L900.0322677562292,679.2761867949288M-0.4632549188874009,679.2761867949288L10.524791558910465,683.304513006983L22.789290440100388,691.3423354595743L28.47767062931007,684.2902218363415L38.47767340861725,709.309077657985L19.839667328049075,713.9975114011112L22.789290440100388,691.3423354595743" stroke="white" fill="transparent" d-constelation-name="Musca"></path><path d="M153.6783157620901,575.7506968963064L166.61868656057675,584.3854918546442L162.02640953257878,594.2756125468266L151.62968844800423,590.695597844306L153.6783157620901,575.7506968963064" stroke="white" fill="transparent" d-constelation-name="Norma"></path><path d="M91.41255229613841,863.6870150815907L102.72545141967055,880.0888669153394L117.02367173091199,897.3258576057008L118.83611494764946,899.0678615464335M352.8487518026244,899.0678615464335L356.44811091996735,895.5174560671726L370.3970878671024,878.349097223436L390.3228258928342,846.7912548252989L403.5455621551748,819.3820258022891L390.3799215952189,804.8486570248756L379.57395758218576,790.7437317296676L363.1603390643573,764.5268500994493L353.04659413584216,786.7176970773114L339.0579141541365,811.7404688845336L318.884963375755,839.6053888918232L305.37482162111354,854.2677467782722L288.81704042583937,868.8568526912193L268.6547069499314,882.5040286974526L244.63647076375918,893.858605095965L225.2637525476287,899.0678615464335M158.93321573860976,899.0678615464335L132.8767192090035,890.1606383268922L110.23169615032549,877.8009936124397L91.41255229613841,863.6870150815907" stroke="white" fill="transparent" d-constelation-name="Octans"></path><path d="M224.0517907215053,473.3869851317256L217.08945950535553,442.0456023845841L214.32518838838809,437.3834449582735L208.9860003518602,417.1481225645274L185.68192663796378,425.2643504271198L168.95096996430527,443.85662755644836L158.5902687006377,458.0673448318796L161.07663689380172,460.57095311568685L172.85636901861824,475.40352996515173L193.6298001761524,488.65729623229106M185.68192663796378,425.2643504271198L172.85636901861824,475.40352996515173L169.09229773383623,490.9695024372345L166.5186315025017,495.8060033190545L164.69212641734237,499.99496751871493L165.61888639276214,509.1794585665202M214.32518838838809,437.3834449582735L193.6298001761524,488.65729623229106L200.90355276056064,513.4374121921312L204.24589197555648,527.1618380268372" stroke="white" fill="transparent" d-constelation-name="Ophiuchus"></path><path d="M679.6434927108501,411.46252919725544L671.3959542737267,397.0086659577507L677.3594858726427,397.3756968200507L682.3749957962979,412.90854317114423L676.3987071774774,424.57373132181436L671.8889755723914,430.2403288006872L653.1033882811624,432.90449808301736L634.1957338190821,423.2952501776102M636.4799907949347,444.53210136488696L633.7930122103302,442.7131434649134L631.8884641798722,434.7772182717856L631.0342441215569,431.3642691269387L631.5170097767689,426.46727286217583L634.1957338190821,423.2952501776102L635.1184915921789,414.69735626372875L640.2450626302974,409.8158935115545L643.4530779298275,409.314645782525M646.4789930236611,469.4058116807023L652.6941630936357,454.81789967364745L657.403004264291,449.56826530372007L653.1033882811624,432.90449808301736L659.361081750819,423.8454788923788L671.8889755723914,430.2403288006872L662.8760159409942,453.68020533550884L667.2519239059048,473.12305182903486M662.8760159409942,453.68020533550884L660.0337018787283,451.82672507995784L657.403004264291,449.56826530372007" stroke="white" fill="transparent" d-constelation-name="Orion"></path><path d="M315.7404949779309,621.9795769725631L327.81639007464935,672.0099262942491L305.15917231120784,671.8791759152989L279.4961037497329,661.7684251824802L257.3143443656078,648.8898646133175L239.18561853064134,645.2128106694082L230.0263283768095,657.0317331919173L215.73896635898802,663.0967910683047L231.03507455897102,685.0949926154079L251.57268485797314,708.3573545171075L274.83779283124056,716.2542542243906L300.07237315867417,720.4738781592636L316.13180972199086,694.9443841151558L327.81639007464935,672.0099262942491L353.75891566998394,666.9050374827855" stroke="white" fill="transparent" d-constelation-name="Pavo"></path><path d="M380.9888997250987,360.759629445183L401.634510545942,369.45485425281606L414.62415846053057,375.5801953932693L455.0296427006083,372.7098465669996L458.06156109792636,410.3876974249581L415.2409978935631,410.33145129709214L403.9425305980874,418.13940734500295L400.67123047432483,421.5638593601322L381.1214726770481,433.28649490952137L364.8540210599221,423.9958008560761M415.2409978935631,410.33145129709214L414.62415846053057,375.5801953932693L406.01241961201424,385.29920775863405L403.8412248517865,388.1375049093979L379.12762550725824,383.247598978863L365.1414292142426,382.4165050664396" stroke="white" fill="transparent" d-constelation-name="Pegasus"></path><path d="M590.0609474269036,363.4061728074762L596.1975742762893,364.6006932925403L599.2199874430902,352.829423562749L598.5251050647593,339.447866693673L590.6082485945739,330.89548603205355L589.1894678710702,312.38993953881055L585.1650032976479,310.8762284530956L577.5565665439788,304.5100456772895L565.3458472565042,289.79314900305417L556.5287454012889,279.44745146066276L558.7554707187483,292.89485199243967L568.0163167565263,305.46950567755385L568.2847144498126,323.00658967391L567.4547577430803,336.33865296288946L569.4063316508334,340.74584004099705L565.5834780194323,343.23641685835923L561.5717704659147,340.5798610993164L562.1368314063933,336.08247551936586L567.4547577430803,336.33865296288946M603.9843591709771,302.59859551853935L609.1832199885548,310.0613836432377L605.2835741000812,312.6693310792315L589.1894678710702,312.38993953881055M568.0163167565263,305.46950567755385L552.4657596305078,306.94958206286515L533.8257167665379,303.170632818214L514.6081774443103,301.2712008934337" stroke="white" fill="transparent" d-constelation-name="Perseus"></path><path d="M466.2210510839437,565.821048154269L491.10974678010314,581.3098514239448L505.0434141676294,569.2725609210713L506.8481572776575,590.0951735970543L492.5485385152218,615.3182884797013L491.10974678010314,581.3098514239448L473.2320553989295,580.340908103315L455.669494796998,577.7984613917087L466.2210510839437,565.821048154269" stroke="white" fill="transparent" d-constelation-name="Phoenix"></path><path d="M705.0442201667084,647.575302032901L685.2523203204273,633.8911613951368L668.5471366326859,619.4068615883702L666.9570116222287,597.8667144655917" stroke="white" fill="transparent" d-constelation-name="Pictor"></path><path d="M495.9031344748318,385.34844910433355L494.5971658293077,369.83555758159264L499.4783518374972,377.8926200240836L495.9031344748318,385.34844910433355L494.46759452910055,394.9810137865717L506.9932371118662,409.96713653998904L515.6920238609079,425.815086730477L526.1060044430004,441.9041133761813L520.7960825109594,440.8428468257718L513.2141603476801,435.0725125254535L506.1812903155875,433.42260804999796L495.8921284184436,429.8157228837379L489.1459161277358,429.0213146993554L480.22775866386473,429.79124562710405L449.35401953130315,431.61119885161946L437.2468572289362,434.72393335631443L429.7537339296985,432.83075326905475L424.98535999948854,435.33960942813064L422.9982665461188,440.60533785865437L429.1058774286628,445.67912052239234L438.5575784897189,444.3669337380996L441.2748237293911,440.0929123198971L437.2468572289362,434.72393335631443M422.9982665461188,440.60533785865437L414.6881936976986,439.2577552741048" stroke="white" fill="transparent" d-constelation-name="Pisces"></path><path d="M400.16695298162676,519.127706509696L410.7948012503547,526.4565793524548L409.7302154324365,534.978932264457L407.5897876025668,535.9774763785235L394.445054347962,534.4054030575119L379.98584776789664,536.3142452468171L365.3297828610688,536.425503362653L367.07399266096144,530.1522488204191L379.98584776789664,536.3142452468171L400.16695298162676,519.127706509696" stroke="white" fill="transparent" d-constelation-name="Piscis Austrinus"></path><path d="M698.5221312060887,568.8525085987442L723.149182925382,548.8734983099465L734.5547091329979,522.8733688587329L736.7118961850952,518.4549566186623L743.2549967079105,513.052065488288L747.985349716052,507.63653762475064L754.6672766319466,511.52405409774036L752.1909139445901,558.1691477289302L755.9107108661738,583.5784378418583M743.2549967079105,513.052065488288L742.4993308817991,516.0354617086467L739.8241087665185,524.5424584308289L734.5547091329979,522.8733688587329" stroke="white" fill="transparent" d-constelation-name="Puppis"></path><path d="M752.1909139445901,558.1691477289302L775.027480399631,543.3270570476363L777.2099313538922,536.9050786409651L781.5495693602509,521.0043132693822" stroke="white" fill="transparent" d-constelation-name="Pyxis"></path><path d="M608.8875572919432,650.4320727267062L610.1752658893686,634.1095899651796L599.0829120135274,644.7224476245257L589.9864064086377,663.58377663808L608.8875572919432,650.4320727267062" stroke="white" fill="transparent" d-constelation-name="Reticulum"></path><path d="M287.25532021926506,402.9993213025521L291.8148292157434,401.6284635115376L298.92474164255384,399.0943588574376M287.85089795245653,404.4120305902145L291.8148292157434,401.6284635115376" stroke="white" fill="transparent" d-constelation-name="Sagitta"></path><path d="M235.68369149801592,547.8227205884638L239.77644364857431,540.5113375903725L237.78910005755938,527.0496535077589L242.15200086492032,514.6046811734668L233.26761198314955,502.7237789026906M276.3380626950552,573.2322500395491L277.1184921480403,560.1792966306081L263.8146713510962,527.1996272319002L253.21158670924189,518.9794551885556L242.15200086492032,514.6046811734668M296.7387887612599,564.3457471812496L299.5370785979729,543.2286831975134L297.09998752091076,517.0447772420785L285.1359039515911,513.1176842678765L277.98671991448623,512.0852343561356L271.8993701812024,514.1480182953931L259.22064335958197,517.0369648100702L253.21158670924189,518.9794551885556L237.78910005755938,527.0496535077589L228.2926243580147,528.773311943605L239.77644364857431,540.5113375903725L263.8146713510962,527.1996272319002L266.5211606720253,520.8930121551292L259.22064335958197,517.0369648100702L265.1098840778772,504.5579381786737L268.2871324470493,502.6294401787196L273.20909089140434,497.11745666387077L275.73423041957244,494.2026130704671L275.76824913931796,489.25558154686996M265.1098840778772,504.5579381786737L260.7617413915824,502.85219046851006L258.5352662117681,507.26938197479865L259.22064335958197,517.0369648100702" stroke="white" fill="transparent" d-constelation-name="Sagittarius"></path><path d="M148.90143715194375,516.5278886870004L149.82794698971838,506.9356484552055L153.01945320466615,499.3782437827611M149.82794698971838,506.9356484552055L162.869623534506,515.0788874182739L168.00920173017425,517.4146889083063L172.05817979282483,522.4378838260552L180.98884413895524,540.2344554772835L182.0561814709705,551.8714393705831L183.7528651182775,566.0081686236109L194.7399110454947,569.0011305992272L210.47707085482313,568.1738952566715L216.8968535185611,558.5741065035975L213.70959964358158,555.0138071892098L208.1570441957087,548.8932564900001" stroke="white" fill="transparent" d-constelation-name="Scorpius"></path><path d="M486.4334235033222,525.6956275286362L464.5173458986224,524.7430276090851L442.8591955740089,522.1947051965068L424.03533722306634,534.9563827885632L432.8819553204138,551.1448727234321" stroke="white" fill="transparent" d-constelation-name="Sculptor"></path><path d="M246.67724100400795,469.51322446419897L254.16085907272856,460.71000096614785L251.09617264389092,471.55861083644044L242.91917302271048,485.6535628369462L246.67724100400795,469.51322446419897" stroke="white" fill="transparent" d-constelation-name="Scutum"></path><path d="M140.98182916766137,409.7699674332141L138.0822335846475,398.6209867670098L142.5777073439578,402.6633086225718L147.40136169375415,409.1473720925355L140.98182916766137,409.7699674332141L133.8621613726886,422.3084228962636L139.78141860840634,432.713457602074L143.87617186012625,437.6082683111229L158.5902687006377,458.0673448318796" stroke="white" fill="transparent" d-constelation-name="Serpens Caput"></path><path d="M193.6298001761524,488.65729623229106L210.64466307709873,487.8100368871475L224.0517907215053,473.3869851317256L226.58793630606166,469.35198324446816L237.98670879725753,456.0741856572838L259.8172216433543,438.29586851056484" stroke="white" fill="transparent" d-constelation-name="Serpens Caput"></path><path d="M829.954955768716,449.74961821488955L820.3053958303167,469.1617113573045L843.4251180997098,455.67423173419513L843.9333977947309,450.41350983443976" stroke="white" fill="transparent" d-constelation-name="Sextans"></path><path d="M660.9286943732093,394.6920093210032L622.3299543443211,406.9405340048384L617.7909566347482,408.60336722847546L612.244654628005,409.23569084310327L614.2092356933078,404.23760775442616L617.7624409431968,399.92064874294266L653.8292877274966,374.0889168182241M612.244654628005,409.23569084310327L600.2925776656543,417.32671894697984L579.3365460271332,424.3570219288696L601.8409296893651,433.8112472839366M579.3365460271332,424.3570219288696L577.8632352969787,426.14136465362833L585.4048852993828,447.8152890563842" stroke="white" fill="transparent" d-constelation-name="Taurus"></path><path d="M231.68273986324135,578.5418426288902L241.5284077154678,578.5925795977004L242.68979680207352,590.0871553213149" stroke="white" fill="transparent" d-constelation-name="Telescopium"></path><path d="M520.4994192637671,371.3084754799469L530.79383405146,355.2954404286385L535.6532580845181,358.75253898352867L520.4994192637671,371.3084754799469" stroke="white" fill="transparent" d-constelation-name="Triangulum"></path><path d="M180.05157838243758,690.5863942786726L161.45107561414733,673.056750642348L146.58191076811983,655.6957391024291L136.42457898882788,671.499880881437L123.92369245409753,688.1719988149335L151.76430804654052,691.9566966445686L180.05157838243758,690.5863942786726" stroke="white" fill="transparent" d-constelation-name="Triangulum Australe"></path><path d="M386.3130795029153,638.8681270903137L405.28824073398005,634.8633673607901L423.16335739194255,628.9639486136804L444.62649195769734,642.2110095192872L469.5106112558049,653.0748426159711L462.3359131788909,663.9832825174692L449.7322276508267,668.1757872991284L420.4443042953312,669.0173828146003L391.83561843336565,664.5238356851715L386.3130795029153,638.8681270903137" stroke="white" fill="transparent" d-constelation-name="Tucana"></path><path d="M9.183303367769838,274.2985286106685L-0.4632549188874009,267.9712624832386M900.0322677562292,267.9712624832386L883.3403052739525,258.80176066215324L864.8429038312471,251.07427412005248L863.6630045588976,277.2615536590655L880.4664204276999,282.4716438812769L896.1743948545018,288.99899327002447L900.0322677562292,284.56369306775605M-0.4632549188874009,284.56369306775605L9.183303367769838,274.2985286106685L33.32358722952813,279.1603624521519L52.01912496848951,283.722180254622L66.78675126507102,306.6241075337017M896.1743948545018,288.99899327002447L891.3089675179592,312.4204652899749L874.0672297728278,361.0102531325642L873.8848794294861,365.63800529314733M891.3089675179592,312.4204652899749L868.554696348185,324.26947393580656L838.9544079672731,334.52969797695323M868.554696348185,324.26947393580656L835.6821072929298,329.75134639323176M864.8429038312471,251.07427412005248L836.6543387346587,244.9813495632771L807.1864267531662,243.99379875343877L787.2929558653245,249.20577923693094L768.8753450162437,256.44326361911146L794.7600665863083,258.74789158699355L819.35612346683,264.8167271338774L842.3288918163164,269.6996066722404L863.6630045588976,277.2615536590655M863.6630045588976,277.2615536590655L841.2185385974991,281.0513380322607L820.0545077721936,287.4310709743488L808.0173840104792,297.32600612276553L786.9748047467231,311.4412416573481M789.7375750378194,314.72538762214333L808.0173840104792,297.32600612276553" stroke="white" fill="transparent" d-constelation-name="Ursa Major"></path><path d="M139.65059661997333,128.40395485228106L160.56585582232884,150.7438451247737L140.71179324334713,168.40068694580566L125.06106832676528,186.06089316084234L106.2864870919247,166.17484176349137L120.8375445318606,147.5645388517786L139.65059661997333,128.40395485228106L154.95303481635784,99.6331007192727L165.3411687951181,83.71088510179231L178.36690134209954,66.8775568106982L187.04390103291922,17.942305617167904L191.63528526169623,-1.4276611286830416" stroke="white" fill="transparent" d-constelation-name="Ursa Minor"></path><path d="M777.9048137322231,612.9777031615525L801.2989369983871,614.2897191103339L823.0288945111184,612.3682812082159L839.5346388313014,602.2656446301025L854.2380682258765,591.4270904935171L834.2060450486781,565.1992841533337L806.6683916899827,559.6885250847529L792.4705789491384,569.6662458354672L774.8255250230843,577.3349624630022L755.9107108661738,583.5784378418583" stroke="white" fill="transparent" d-constelation-name="Vela"></path><path d="M891.1894017235595,432.4521465412455L894.2135658538768,444.4052231154775L900.0322677562292,446.3394315766423M-0.4632549188874009,446.3394315766423L11.98484499387007,450.48805567863644L25.589081102684418,452.4459819761811L43.27956578328235,462.69685618880186L52.811561028443634,476.9169810834269L84.59254940010038,463.8571226034373L101.50560627945538,462.99644944117074M38.418640924352985,421.2383151911514L34.3081290009863,440.31668896885134L25.589081102684418,452.4459819761811M43.27956578328235,462.69685618880186L58.75258023929268,450.31044715826994L75.60760518496414,444.95625630122515L103.49945344924515,444.08438316598955" stroke="white" fill="transparent" d-constelation-name="Virgo"></path><path d="M789.0001692598066,673.2103593458149L766.0437868727208,671.5994517626501L754.9086594595526,687.7432992185273L738.6992195906994,686.3254147931411L722.9538254244906,683.2811836726861L717.899294028186,701.2299991768956L737.2238820486879,695.4589306689277L754.9086594595526,687.7432992185273L772.7561548809308,681.2438797534044L789.0001692598066,673.2103593458149" stroke="white" fill="transparent" d-constelation-name="Volans"></path><path d="M272.3226030768597,394.02660601335174L280.13215049725966,385.12501840775457L295.61316935791604,386.73231989423124L300.39029810570753,376.51210927165033L309.5628455547344,376.3407728084865" stroke="white" fill="transparent" d-constelation-name="Vulpecula"></path></g></svg>