<svg id="Layer_1" data-name="Layer 1" xmlns="http://www.w3.org/2000/svg" viewBox="0 0 1081.2 85.47"><line x1="1081.07" y1="83.36" y2="83.36" fill="none" stroke="#2a3f55" stroke-miterlimit="10" stroke-width="0.25"/><path d="M20.82,81.05v-9A1.14,1.14,0,0,1,22,70.91h4.4a1.14,1.14,0,0,1,1.15,1.15v9" fill="#ff3f55" stroke="#2a3f55" stroke-miterlimit="10" stroke-width="0.25"/><path d="M24.17,70.73V32.52s0-3.79,3.61-3.76c0,0,4-.5,3.44,5.18" fill="none" stroke="#2a3f55" stroke-miterlimit="10" stroke-width="0.25"/><circle cx="31.09" cy="39.33" r="4.28" fill="#ffbf55" stroke="#2a3f55" stroke-miterlimit="10" stroke-width="0.25"/><rect x="29.36" y="33.47" width="3.47" height="1.58" fill="#fffbf0" stroke="#2a3f55" stroke-miterlimit="10" stroke-width="0.25"/><path d="M24,70.66V32.45s0-3.79-3.61-3.77c0,0-4-.49-3.43,5.19" fill="none" stroke="#2a3f55" stroke-miterlimit="10" stroke-width="0.25"/><circle cx="17.12" cy="39.26" r="4.28" fill="#ffbf55" stroke="#2a3f55" stroke-miterlimit="10" stroke-width="0.25"/><rect x="15.39" y="33.4" width="3.47" height="1.58" transform="translate(34.24 68.37) rotate(-180)" fill="#fffbf0" stroke="#2a3f55" stroke-miterlimit="10" stroke-width="0.25"/><rect x="19.25" y="81.23" width="9.84" height="2.13" fill="#ff3f55" stroke="#2a3f55" stroke-miterlimit="10" stroke-width="0.25"/><rect x="22.99" y="55.6" width="2.35" height="15.31" fill="#2a3f55" stroke="#2a3f55" stroke-miterlimit="10" stroke-width="0.25"/><rect x="78.47" y="10" width="51.27" height="6.36" fill="#fffbf0" stroke="#2a3f55" stroke-miterlimit="10" stroke-width="0.25"/><rect x="57.96" y="18.57" width="92" height="64.78" fill="#fffbf0" stroke="#2a3f55" stroke-miterlimit="10" stroke-width="0.25"/><rect x="62.05" y="21.29" width="84.11" height="12.25" fill="#ffdfaa" stroke="#2a3f55" stroke-miterlimit="10" stroke-width="0.25"/><rect x="85.33" y="21.29" width="37.54" height="12.25" fill="#ff3f55" stroke="#2a3f55" stroke-miterlimit="10" stroke-width="0.25"/><rect x="54.2" y="16.13" width="99.81" height="2.84" fill="#fffbf0" stroke="#2a3f55" stroke-miterlimit="10" stroke-width="0.25"/><rect x="76.51" y="7.41" width="55.18" height="2.67" fill="#fffbf0" stroke="#2a3f55" stroke-miterlimit="10" stroke-width="0.25"/><rect x="64.27" y="48.07" width="8.31" height="35.29" fill="#ff3f55" stroke="#2a3f55" stroke-miterlimit="10" stroke-width="0.25"/><rect x="65.93" y="52.31" width="5" height="27.51" fill="#ffdfaa" stroke="#2a3f55" stroke-miterlimit="10" stroke-width="0.25"/><rect x="72.53" y="48.07" width="8.31" height="35.29" fill="#ff3f55" stroke="#2a3f55" stroke-miterlimit="10" stroke-width="0.25"/><rect x="74.19" y="52.31" width="5" height="27.51" fill="#ffdfaa" stroke="#2a3f55" stroke-miterlimit="10" stroke-width="0.25"/><polygon points="154.93 51.73 53.03 51.73 57.99 36.15 149.97 36.15 154.93 51.73" fill="#2a9faa" stroke="#2a3f55" stroke-miterlimit="10" stroke-width="0.25"/><circle cx="69.1" cy="71.57" r="0.68" fill="#fffbf0" stroke="#2a3f55" stroke-miterlimit="10" stroke-width="0.25"/><circle cx="75.72" cy="71.57" r="0.68" fill="#fffbf0" stroke="#2a3f55" stroke-miterlimit="10" stroke-width="0.25"/><rect x="89.58" y="51.85" width="52.38" height="19.47" fill="#ffdfaa" stroke="#2a3f55" stroke-miterlimit="10" stroke-width="0.25"/><rect x="89.58" y="59.33" width="52.38" height="2.12" fill="#fffbf0" stroke="#2a3f55" stroke-miterlimit="10" stroke-width="0.25"/><path d="M97.55,74.86s-3.47-3.54,3.15-7.09C100.7,67.77,102.39,75.13,97.55,74.86Z" fill="#55bfaa" stroke="#2a3f55" stroke-miterlimit="10" stroke-width="0.25"/><path d="M96,74.87s-5.21-.1-2.87-7.65C93.15,67.22,99.85,71.49,96,74.87Z" fill="#55bfaa" stroke="#2a3f55" stroke-miterlimit="10" stroke-width="0.25"/><path d="M96.84,75.36s-5.69-2.2-.08-9.57C96.76,65.79,102.41,73.18,96.84,75.36Z" fill="#55bfaa" stroke="#2a3f55" stroke-miterlimit="10" stroke-width="0.25"/><path d="M116.55,74.86s-3.46-3.54,3.16-7.09C119.71,67.77,121.4,75.13,116.55,74.86Z" fill="#55bfaa" stroke="#2a3f55" stroke-miterlimit="10" stroke-width="0.25"/><path d="M115,74.87s-5.21-.1-2.88-7.65C112.15,67.22,118.85,71.49,115,74.87Z" fill="#55bfaa" stroke="#2a3f55" stroke-miterlimit="10" stroke-width="0.25"/><path d="M115.85,75.36s-5.69-2.2-.09-9.57C115.76,65.79,121.42,73.18,115.85,75.36Z" fill="#55bfaa" stroke="#2a3f55" stroke-miterlimit="10" stroke-width="0.25"/><path d="M135.56,74.86s-3.46-3.54,3.16-7.09C138.72,67.77,140.4,75.13,135.56,74.86Z" fill="#55bfaa" stroke="#2a3f55" stroke-miterlimit="10" stroke-width="0.25"/><path d="M134,74.87s-5.21-.1-2.87-7.65C131.16,67.22,137.86,71.49,134,74.87Z" fill="#55bfaa" stroke="#2a3f55" stroke-miterlimit="10" stroke-width="0.25"/><path d="M134.85,75.36s-5.69-2.2-.08-9.57C134.77,65.79,140.42,73.18,134.85,75.36Z" fill="#55bfaa" stroke="#2a3f55" stroke-miterlimit="10" stroke-width="0.25"/><rect x="85.75" y="74.11" width="60.04" height="9.25" fill="#fffbf0" stroke="#2a3f55" stroke-miterlimit="10" stroke-width="0.25"/><rect x="89.37" y="76.87" width="14.79" height="3.81" fill="#ffdfaa" stroke="#2a3f55" stroke-miterlimit="10" stroke-width="0.25"/><rect x="127.39" y="76.87" width="14.79" height="3.81" fill="#ffdfaa" stroke="#2a3f55" stroke-miterlimit="10" stroke-width="0.25"/><rect x="108.38" y="76.87" width="14.79" height="3.81" fill="#ffdfaa" stroke="#2a3f55" stroke-miterlimit="10" stroke-width="0.25"/><path d="M65.76,51.73a2.15,2.15,0,1,0,4.25,0Z" fill="#2a9faa" stroke="#2a3f55" stroke-miterlimit="10" stroke-width="0.25"/><path d="M61.52,51.73a2.15,2.15,0,1,0,4.24,0Z" fill="#2a9faa" stroke="#2a3f55" stroke-miterlimit="10" stroke-width="0.25"/><path d="M57.27,51.73a2.15,2.15,0,1,0,4.25,0Z" fill="#2a9faa" stroke="#2a3f55" stroke-miterlimit="10" stroke-width="0.25"/><path d="M53,51.73a2.15,2.15,0,1,0,4.25,0Z" fill="#2a9faa" stroke="#2a3f55" stroke-miterlimit="10" stroke-width="0.25"/><path d="M82.75,51.73a2.32,2.32,0,0,0,2.11,2.5A2.35,2.35,0,0,0,87,51.73Z" fill="#2a9faa" stroke="#2a3f55" stroke-miterlimit="10" stroke-width="0.25"/><path d="M78.5,51.73a2.15,2.15,0,1,0,4.25,0Z" fill="#2a9faa" stroke="#2a3f55" stroke-miterlimit="10" stroke-width="0.25"/><path d="M74.26,51.73a2.15,2.15,0,1,0,4.24,0Z" fill="#2a9faa" stroke="#2a3f55" stroke-miterlimit="10" stroke-width="0.25"/><path d="M70,51.73a2.32,2.32,0,0,0,2.11,2.5,2.35,2.35,0,0,0,2.14-2.5Z" fill="#2a9faa" stroke="#2a3f55" stroke-miterlimit="10" stroke-width="0.25"/><path d="M99.73,51.73a2.15,2.15,0,1,0,4.25,0Z" fill="#2a9faa" stroke="#2a3f55" stroke-miterlimit="10" stroke-width="0.25"/><path d="M95.49,51.73a2.15,2.15,0,1,0,4.24,0Z" fill="#2a9faa" stroke="#2a3f55" stroke-miterlimit="10" stroke-width="0.25"/><path d="M91.24,51.73a2.15,2.15,0,1,0,4.25,0Z" fill="#2a9faa" stroke="#2a3f55" stroke-miterlimit="10" stroke-width="0.25"/><path d="M87,51.73a2.15,2.15,0,1,0,4.24,0Z" fill="#2a9faa" stroke="#2a3f55" stroke-miterlimit="10" stroke-width="0.25"/><path d="M116.72,51.73a2.15,2.15,0,1,0,4.25,0Z" fill="#2a9faa" stroke="#2a3f55" stroke-miterlimit="10" stroke-width="0.25"/><path d="M112.47,51.73a2.15,2.15,0,1,0,4.25,0Z" fill="#2a9faa" stroke="#2a3f55" stroke-miterlimit="10" stroke-width="0.25"/><path d="M108.23,51.73a2.15,2.15,0,1,0,4.24,0Z" fill="#2a9faa" stroke="#2a3f55" stroke-miterlimit="10" stroke-width="0.25"/><path d="M104,51.73a2.15,2.15,0,1,0,4.25,0Z" fill="#2a9faa" stroke="#2a3f55" stroke-miterlimit="10" stroke-width="0.25"/><path d="M133.71,51.73a2.15,2.15,0,1,0,4.24,0Z" fill="#2a9faa" stroke="#2a3f55" stroke-miterlimit="10" stroke-width="0.25"/><path d="M129.46,51.73a2.15,2.15,0,1,0,4.25,0Z" fill="#2a9faa" stroke="#2a3f55" stroke-miterlimit="10" stroke-width="0.25"/><path d="M125.21,51.73a2.15,2.15,0,1,0,4.25,0Z" fill="#2a9faa" stroke="#2a3f55" stroke-miterlimit="10" stroke-width="0.25"/><path d="M121,51.73a2.15,2.15,0,1,0,4.24,0Z" fill="#2a9faa" stroke="#2a3f55" stroke-miterlimit="10" stroke-width="0.25"/><path d="M150.69,51.73a2.15,2.15,0,1,0,4.25,0Z" fill="#2a9faa" stroke="#2a3f55" stroke-miterlimit="10" stroke-width="0.25"/><path d="M146.45,51.73a2.15,2.15,0,1,0,4.24,0Z" fill="#2a9faa" stroke="#2a3f55" stroke-miterlimit="10" stroke-width="0.25"/><path d="M142.2,51.73a2.32,2.32,0,0,0,2.11,2.5,2.35,2.35,0,0,0,2.14-2.5Z" fill="#2a9faa" stroke="#2a3f55" stroke-miterlimit="10" stroke-width="0.25"/><path d="M138,51.73a2.15,2.15,0,1,0,4.25,0Z" fill="#2a9faa" stroke="#2a3f55" stroke-miterlimit="10" stroke-width="0.25"/><path d="M48.33,77.2s4.17-3.75,1.78-17C50.11,60.23,45,73.19,48.33,77.2Z" fill="#55bfaa" stroke="#2a3f55" stroke-miterlimit="10" stroke-width="0.25"/><path d="M47.12,77.05s4.4-6.15-2.57-22.83C44.55,54.22,41.62,72.73,47.12,77.05Z" fill="#55bfaa" stroke="#2a3f55" stroke-miterlimit="10" stroke-width="0.25"/><polygon points="44.1 83.36 51.07 83.36 51.79 75.66 43.37 75.66 44.1 83.36" fill="#fffbf0" stroke="#2a3f55" stroke-miterlimit="10" stroke-width="0.25"/><rect x="42.14" y="73.78" width="10.88" height="1.98" transform="translate(95.16 149.55) rotate(-180)" fill="#fffbf0" stroke="#2a3f55" stroke-miterlimit="10" stroke-width="0.25"/><rect x="794.94" y="15.33" width="96.56" height="67.99" transform="translate(1686.43 98.66) rotate(-180)" fill="#fffbf0" stroke="#2a3f55" stroke-miterlimit="10" stroke-width="0.25"/><rect x="869.72" y="43.05" width="12.17" height="40.28" transform="translate(1751.61 126.38) rotate(-180)" fill="#ff3f55" stroke="#2a3f55" stroke-miterlimit="10" stroke-width="0.25"/><rect x="857.62" y="43.05" width="12.17" height="40.28" transform="translate(1727.41 126.38) rotate(-180)" fill="#ff3f55" stroke="#2a3f55" stroke-miterlimit="10" stroke-width="0.25"/><rect x="804.79" y="43.56" width="44.11" height="22.62" transform="translate(1653.7 109.75) rotate(-180)" fill="#ffdfaa" stroke="#2a3f55" stroke-miterlimit="10" stroke-width="0.25"/><rect x="804.79" y="43.05" width="44.11" height="2.19" transform="translate(1653.7 88.28) rotate(-180)" fill="#2a9faa" stroke="#2a3f55" stroke-miterlimit="10" stroke-width="0.25"/><rect x="804.79" y="45.57" width="44.11" height="2.19" transform="translate(1653.7 93.32) rotate(-180)" fill="#2a9faa" stroke="#2a3f55" stroke-miterlimit="10" stroke-width="0.25"/><rect x="804.79" y="48.09" width="44.11" height="2.19" transform="translate(1653.7 98.36) rotate(-180)" fill="#2a9faa" stroke="#2a3f55" stroke-miterlimit="10" stroke-width="0.25"/><rect x="804.79" y="50.61" width="44.11" height="2.19" transform="translate(1653.7 103.4) rotate(-180)" fill="#2a9faa" stroke="#2a3f55" stroke-miterlimit="10" stroke-width="0.25"/><rect x="804.79" y="63.79" width="44.11" height="2.39" transform="translate(1653.7 129.98) rotate(-180)" fill="#ffbf55" stroke="#2a3f55" stroke-miterlimit="10" stroke-width="0.25"/><rect x="799.08" y="23.63" width="88.28" height="12.86" transform="translate(1686.43 60.11) rotate(-180)" fill="#ffdfaa" stroke="#2a3f55" stroke-miterlimit="10" stroke-width="0.25"/><rect x="794.94" y="12.77" width="96.56" height="6.42" transform="translate(1686.43 31.97) rotate(-180)" fill="#ff3f55" stroke="#2a3f55" stroke-miterlimit="10" stroke-width="0.25"/><rect x="872.15" y="68.55" width="7.32" height="12.43" transform="translate(1751.61 149.54) rotate(-180)" fill="#ffdfaa" stroke="#2a3f55" stroke-miterlimit="10" stroke-width="0.25"/><rect x="860.05" y="68.55" width="7.32" height="12.43" transform="translate(1727.41 149.54) rotate(-180)" fill="#ffdfaa" stroke="#2a3f55" stroke-miterlimit="10" stroke-width="0.25"/><rect x="872.15" y="45.77" width="7.32" height="17.38" transform="translate(1751.61 108.91) rotate(-180)" fill="#ffdfaa" stroke="#2a3f55" stroke-miterlimit="10" stroke-width="0.25"/><rect x="860.05" y="45.77" width="7.32" height="17.38" transform="translate(1727.41 108.91) rotate(-180)" fill="#ffdfaa" stroke="#2a3f55" stroke-miterlimit="10" stroke-width="0.25"/><circle cx="873.16" cy="65.88" r="0.7" fill="#fffbf0" stroke="#2a3f55" stroke-miterlimit="10" stroke-width="0.25"/><circle cx="866.35" cy="65.88" r="0.7" fill="#fffbf0" stroke="#2a3f55" stroke-miterlimit="10" stroke-width="0.25"/><g id="planta1b"><path d="M795.25,83.92s.57-5.36-4.11-21.7C791.14,62.22,785.75,75,795.25,83.92Z" fill="#55bfaa" stroke="#2a3f55" stroke-miterlimit="10" stroke-width="0.25"/><path d="M794.3,84.54s-.71-4-6.69-14.76C787.61,69.78,784.63,81.54,794.3,84.54Z" fill="#55bfaa" stroke="#2a3f55" stroke-miterlimit="10" stroke-width="0.25"/><path d="M795.1,84s-.79-5.3,3.22-21.81C798.32,62.22,804.23,74.72,795.1,84Z" fill="#55bfaa" stroke="#2a3f55" stroke-miterlimit="10" stroke-width="0.25"/><path d="M794.36,84.54s.8-4,7-14.62C801.4,69.92,804.35,81.08,794.36,84.54Z" fill="#55bfaa" stroke="#2a3f55" stroke-miterlimit="10" stroke-width="0.25"/><path d="M794.3,84.54s6.33-6.75.56-28.13C794.86,56.41,788.31,78.41,794.3,84.54Z" fill="#55bfaa" stroke="#2a3f55" stroke-miterlimit="10" stroke-width="0.25"/></g><rect x="176.24" y="54.83" width="133.67" height="28.53" fill="#fffbf0" stroke="#2a3f55" stroke-miterlimit="10" stroke-width="0.25"/><polygon points="312.65 54.83 173.5 54.83 183.15 37 303 37 312.65 54.83" fill="#ff3f55" stroke="#2a3f55" stroke-miterlimit="10" stroke-width="0.25"/><polygon points="298.4 40.82 187.74 40.82 196.58 17.38 289.56 17.38 298.4 40.82" fill="#ff3f55" stroke="#2a3f55" stroke-miterlimit="10" stroke-width="0.25"/><rect x="192.52" y="40.82" width="101.11" height="42.54" fill="#fffbf0" stroke="#2a3f55" stroke-miterlimit="10" stroke-width="0.25"/><polygon points="272.25 83.36 213.9 83.36 213.9 49.22 243.07 30.37 272.25 49.22 272.25 83.36" fill="#fffbf0" stroke="#2a3f55" stroke-miterlimit="10" stroke-width="0.25"/><ellipse cx="243.07" cy="44.81" rx="5.74" ry="5.86" fill="#ffdfaa" stroke="#2a3f55" stroke-miterlimit="10" stroke-width="0.25"/><line x1="237.34" y1="44.81" x2="248.81" y2="44.81" fill="#fffbf0" stroke="#2a3f55" stroke-miterlimit="10" stroke-width="0.25"/><line x1="243.07" y1="38.95" x2="243.07" y2="50.67" fill="#fffbf0" stroke="#2a3f55" stroke-miterlimit="10" stroke-width="0.25"/><path d="M252.55,83.36h-19V63c0-3.57,3.49-8.15,9.47-8.15,5,0,9.48,4.07,9.48,8.15Z" fill="#ffdfaa" stroke="#2a3f55" stroke-miterlimit="10" stroke-width="0.25"/><polygon points="228.48 65.78 218.51 65.78 218.51 52.53 223.16 52.53 228.48 52.53 228.48 65.78" fill="#ffdfaa" stroke="#2a3f55" stroke-miterlimit="10" stroke-width="0.25"/><rect x="217.01" y="65.78" width="12.97" height="2.92" fill="#ff3f55" stroke="#2a3f55" stroke-miterlimit="10" stroke-width="0.25"/><path d="M226.49,70.77a3.55,3.55,0,1,0-6.52-1.9,3.69,3.69,0,0,0,.53,1.9,4.86,4.86,0,0,0-1.71,3.71,4.71,4.71,0,1,0,9.41,0A4.86,4.86,0,0,0,226.49,70.77Z" fill="#55bfaa" stroke="#2a3f55" stroke-miterlimit="10" stroke-width="0.25"/><rect x="257.66" y="52.53" width="9.98" height="13.25" fill="#ffdfaa" stroke="#2a3f55" stroke-miterlimit="10" stroke-width="0.25"/><rect x="256.16" y="65.78" width="12.97" height="2.92" fill="#ff3f55" stroke="#2a3f55" stroke-miterlimit="10" stroke-width="0.25"/><path d="M265.64,70.77a3.6,3.6,0,0,0,.54-1.9,3.53,3.53,0,1,0-7.06,0,3.6,3.6,0,0,0,.54,1.9A4.83,4.83,0,0,0,258,74.48a4.7,4.7,0,1,0,9.4,0A4.83,4.83,0,0,0,265.64,70.77Z" fill="#55bfaa" stroke="#2a3f55" stroke-miterlimit="10" stroke-width="0.25"/><line x1="240.83" y1="68.07" x2="240.83" y2="71.13" fill="none" stroke="#2a3f55" stroke-miterlimit="10" stroke-width="0.25"/><line x1="245.32" y1="68.07" x2="245.32" y2="71.13" fill="none" stroke="#2a3f55" stroke-miterlimit="10" stroke-width="0.25"/><path d="M207.7,70h-9.41V59.89a4.48,4.48,0,0,1,4.71-4c2.47,0,4.7,2,4.7,4Z" fill="#ffdfaa" stroke="#2a3f55" stroke-miterlimit="10" stroke-width="0.25"/><rect x="196.5" y="67.82" width="12.97" height="2.92" fill="#ff3f55" stroke="#2a3f55" stroke-miterlimit="10" stroke-width="0.25"/><path d="M287.58,70h-9.41V59.89a4.47,4.47,0,0,1,4.7-4c2.48,0,4.71,2,4.71,4Z" fill="#ffdfaa" stroke="#2a3f55" stroke-miterlimit="10" stroke-width="0.25"/><line x1="203.09" y1="67.99" x2="203.09" y2="55.85" fill="#fff" stroke="#2a3f55" stroke-miterlimit="10" stroke-width="0.25"/><line x1="198.33" y1="62.42" x2="207.79" y2="62.42" fill="#fffbf0" stroke="#2a3f55" stroke-miterlimit="10" stroke-width="0.25"/><rect x="276.37" y="67.82" width="12.97" height="2.92" fill="#ff3f55" stroke="#2a3f55" stroke-miterlimit="10" stroke-width="0.25"/><polygon points="277.56 51.24 243.07 27.06 208.59 51.24 213.57 51.48 243.07 30.87 272.57 51.48 277.56 51.24" fill="#ff3f55" stroke="#2a3f55" stroke-miterlimit="10" stroke-width="0.25"/><polygon points="228.48 83.36 218.51 83.36 216.51 76.22 230.48 76.22 228.48 83.36" fill="#fffbf0" stroke="#2a3f55" stroke-miterlimit="10" stroke-width="0.25"/><polygon points="267.64 83.36 257.66 83.36 255.67 76.22 269.63 76.22 267.64 83.36" fill="#fffbf0" stroke="#2a3f55" stroke-miterlimit="10" stroke-width="0.25"/><line x1="223.5" y1="65.27" x2="223.5" y2="52.53" fill="#fff" stroke="#2a3f55" stroke-miterlimit="10" stroke-width="0.25"/><line x1="218.51" y1="58.9" x2="228.48" y2="58.9" fill="#fffbf0" stroke="#2a3f55" stroke-miterlimit="10" stroke-width="0.25"/><line x1="262.65" y1="65.27" x2="262.65" y2="52.53" fill="#fff" stroke="#2a3f55" stroke-miterlimit="10" stroke-width="0.25"/><line x1="257.66" y1="58.9" x2="267.64" y2="58.9" fill="#fffbf0" stroke="#2a3f55" stroke-miterlimit="10" stroke-width="0.25"/><line x1="282.87" y1="67.99" x2="282.87" y2="55.85" fill="#fff" stroke="#2a3f55" stroke-miterlimit="10" stroke-width="0.25"/><line x1="278.12" y1="62.42" x2="287.58" y2="62.42" fill="#fffbf0" stroke="#2a3f55" stroke-miterlimit="10" stroke-width="0.25"/><line x1="243.07" y1="54.83" x2="243.07" y2="83.36" fill="#55bfaa" stroke="#2a3f55" stroke-miterlimit="10" stroke-width="0.25"/><g id="arbol1"><circle cx="313.11" cy="54.01" r="8.15" fill="#55bfaa" stroke="#2a3f55" stroke-miterlimit="10" stroke-width="0.25"/><line x1="313.64" y1="52.28" x2="313.64" y2="76.99" fill="#55bfaa" stroke="#2a3f55" stroke-miterlimit="10" stroke-width="0.25"/><line x1="313.64" y1="55.89" x2="316.77" y2="52.88" fill="#55bfaa" stroke="#2a3f55" stroke-miterlimit="10" stroke-width="0.25"/><line x1="309.44" y1="55.29" x2="313.64" y2="58.65" fill="#55bfaa" stroke="#2a3f55" stroke-miterlimit="10" stroke-width="0.25"/></g><g id="arbol1-2" data-name="arbol1"><circle cx="324.81" cy="59.86" r="8.15" fill="#55bfaa" stroke="#2a3f55" stroke-miterlimit="10" stroke-width="0.25"/><line x1="325.34" y1="58.13" x2="325.34" y2="82.84" fill="#55bfaa" stroke="#2a3f55" stroke-miterlimit="10" stroke-width="0.25"/><line x1="325.34" y1="61.74" x2="328.47" y2="58.73" fill="#55bfaa" stroke="#2a3f55" stroke-miterlimit="10" stroke-width="0.25"/><line x1="321.14" y1="61.14" x2="325.34" y2="64.5" fill="#55bfaa" stroke="#2a3f55" stroke-miterlimit="10" stroke-width="0.25"/></g><path d="M322.75,83.29a2,2,0,0,0,.1-.6,1.91,1.91,0,0,0-1.91-1.9,2,2,0,0,0-.7.13,3.67,3.67,0,0,0-4.74-2.8,4.67,4.67,0,0,0-8.86-.18,4.2,4.2,0,0,0-4.19,4.2,4.43,4.43,0,0,0,.16,1.15" fill="#55bfaa" stroke="#2a3f55" stroke-miterlimit="10" stroke-width="0.25"/><path d="M314,83.29a2,2,0,0,1-.1-.6,1.9,1.9,0,0,1,1.91-1.9,2,2,0,0,1,.7.13,3.67,3.67,0,0,1,4.74-2.8,4.67,4.67,0,0,1,8.86-.18,4.2,4.2,0,0,1,4.19,4.2,4.43,4.43,0,0,1-.16,1.15" fill="#55bfaa" stroke="#2a3f55" stroke-miterlimit="10" stroke-width="0.25"/><path d="M172.27,83.3s-2.6-1.91.95-3c0,0-.87-3.25,2.37-2.71,0,0,1.87-4.41,3.52,0,0,0,3.88-1.08,2.61,2.61,0,0,3.82.76,1.06,3.13" fill="#55bfaa" stroke="#2a3f55" stroke-miterlimit="10" stroke-width="0.25"/><path d="M179.62,83.3s-1.72-1.26.63-2c0,0-.58-2.14,1.56-1.78,0,0,1.23-2.91,2.32,0,0,0,2.56-.71,1.72,1.72,0,0,2.52.5.7,2.06" fill="#55bfaa" stroke="#2a3f55" stroke-miterlimit="10" stroke-width="0.25"/><g id="luz1"><path d="M923.67,83.36V39.21s-.63-5.66,5.66-5.66" fill="none" stroke="#2a3f55" stroke-miterlimit="10" stroke-width="0.25"/><path d="M923.65,39.21s.63-5.66-5.66-5.66" fill="none" stroke="#2a3f55" stroke-miterlimit="10" stroke-width="0.25"/><path d="M930.9,34.49c0-.93-.49-1.05-1.88-1.05s-1.89.12-1.89,1.05.5,1.68,1.89,1.68S930.9,35.42,930.9,34.49Z" fill="#2a9faa" stroke="#2a3f55" stroke-miterlimit="10" stroke-width="0.25"/><path d="M919.79,34.49c0-.93-.5-1.05-1.89-1.05s-1.88.12-1.88,1.05.49,1.68,1.88,1.68S919.79,35.42,919.79,34.49Z" fill="#2a9faa" stroke="#2a3f55" stroke-miterlimit="10" stroke-width="0.25"/></g><rect x="912.24" y="81" width="1.49" height="2.36" transform="translate(1825.96 164.35) rotate(-180)" fill="#2a3f55" stroke="#2a3f55" stroke-miterlimit="10" stroke-width="0.25"/><rect x="902.73" y="81" width="1.49" height="2.36" transform="translate(1806.96 164.35) rotate(-180)" fill="#2a3f55" stroke="#2a3f55" stroke-miterlimit="10" stroke-width="0.25"/><path d="M908.23,63.85c3,0,5.49,2.08,5.49,4.65V80.44h-11V68.5C902.73,65.93,905.19,63.85,908.23,63.85Z" fill="#ff3f55" stroke="#2a3f55" stroke-miterlimit="10" stroke-width="0.25"/><rect x="902.73" y="79.7" width="10.99" height="2.14" transform="translate(1816.46 161.54) rotate(-180)" fill="#fffbf0" stroke="#2a3f55" stroke-miterlimit="10" stroke-width="0.25"/><rect x="904.58" y="68.94" width="7.01" height="1.39" rx="0.7" transform="translate(1816.18 139.27) rotate(180)" fill="#2a3f55" stroke="#2a3f55" stroke-miterlimit="10" stroke-width="0.25"/><rect x="905" y="72.15" width="6.6" height="5.08" transform="translate(1816.6 149.37) rotate(-180)" fill="#fffbf0" stroke="#2a3f55" stroke-miterlimit="10" stroke-width="0.25"/><rect x="1025.99" y="52.58" width="34.12" height="30.77" fill="#fffbf0" stroke="#2a3f55" stroke-miterlimit="10" stroke-width="0.25"/><polygon points="1062.56 56.09 1025.99 56.09 1032.22 34.4 1056.33 34.4 1062.56 56.09" fill="#ff3f55" stroke="#2a3f55" stroke-miterlimit="10" stroke-width="0.25"/><rect x="962.35" y="34.23" width="71.21" height="21.9" fill="#ff3f55" stroke="#2a3f55" stroke-miterlimit="10" stroke-width="0.25"/><polyline points="962.35 56.13 986.09 56.13 986.09 43.08 962.35 34.23" fill="#ffdfaa" stroke="#2a3f55" stroke-miterlimit="10" stroke-width="0.25"/><rect x="962.28" y="56.3" width="71.29" height="27.06" transform="translate(1995.86 139.66) rotate(-180)" fill="#fffbf0" stroke="#2a3f55" stroke-miterlimit="10" stroke-width="0.25"/><rect x="1027.97" y="62" width="5.61" height="21.36" transform="translate(2061.54 145.35) rotate(-180)" fill="#fffbf0" stroke="#2a3f55" stroke-miterlimit="10" stroke-width="0.25"/><rect x="1031.76" y="62" width="1.81" height="21.36" transform="translate(2065.34 145.35) rotate(-180)" fill="#ffdfaa" stroke="#2a3f55" stroke-miterlimit="10" stroke-width="0.25"/><rect x="938.61" y="56.05" width="94.97" height="5.95" transform="translate(1972.18 118.05) rotate(-180)" fill="#ff3f55" stroke="#2a3f55" stroke-miterlimit="10" stroke-width="0.25"/><rect x="938.61" y="62" width="69.65" height="21.36" transform="translate(1946.86 145.35) rotate(-180)" fill="#fffbf0" stroke="#2a3f55" stroke-miterlimit="10" stroke-width="0.25"/><line x1="977.95" y1="41.64" x2="977.95" y2="56.09" fill="#fffbf0" stroke="#2a3f55" stroke-miterlimit="10" stroke-width="0.25"/><line x1="968.85" y1="38.31" x2="968.85" y2="56.09" fill="#fffbf0" stroke="#2a3f55" stroke-miterlimit="10" stroke-width="0.25"/><polyline points="962.35 56.13 938.61 56.13 938.61 43.08 962.35 34.23" fill="#ffdfaa" stroke="#2a3f55" stroke-miterlimit="10" stroke-width="0.25"/><polygon points="962.68 34.23 936.96 43.78 936.96 45.38 962.68 35.82 988.4 45.38 988.4 43.78 962.68 34.23" fill="#ff3f55" stroke="#2a3f55" stroke-miterlimit="10" stroke-width="0.25"/><line x1="946.75" y1="41.64" x2="946.75" y2="56.09" fill="#fffbf0" stroke="#2a3f55" stroke-miterlimit="10" stroke-width="0.25"/><line x1="955.85" y1="38.31" x2="955.85" y2="56.09" fill="#fffbf0" stroke="#2a3f55" stroke-miterlimit="10" stroke-width="0.25"/><rect x="1007.62" y="62" width="2.15" height="21.36" transform="translate(2017.38 145.35) rotate(-180)" fill="#ffdfaa" stroke="#2a3f55" stroke-miterlimit="10" stroke-width="0.25"/><rect x="986.32" y="62" width="2.15" height="21.36" transform="translate(1974.78 145.35) rotate(-180)" fill="#ffdfaa" stroke="#2a3f55" stroke-miterlimit="10" stroke-width="0.25"/><rect x="1009.77" y="68.57" width="18.2" height="14.79" transform="translate(2037.74 151.93) rotate(-180)" fill="#2a3f55" stroke="#2a3f55" stroke-miterlimit="10" stroke-width="0.25"/><rect x="1009.77" y="66.4" width="18.2" height="2.17" transform="translate(2037.74 134.97) rotate(-180)" fill="none" stroke="#2a3f55" stroke-miterlimit="10" stroke-width="0.25"/><rect x="1009.77" y="64.27" width="18.2" height="2.13" transform="translate(2037.74 130.67) rotate(-180)" fill="#fffbf0" stroke="#2a3f55" stroke-miterlimit="10" stroke-width="0.25"/><rect x="1009.77" y="70.59" width="18.2" height="2.13" transform="translate(2037.74 143.31) rotate(-180)" fill="#fffbf0" stroke="#2a3f55" stroke-miterlimit="10" stroke-width="0.25"/><rect x="1009.77" y="68.46" width="18.2" height="2.13" transform="translate(2037.74 139.05) rotate(-180)" fill="#fffbf0" stroke="#2a3f55" stroke-miterlimit="10" stroke-width="0.25"/><rect x="1009.77" y="74.85" width="18.2" height="2.13" transform="translate(2037.74 151.82) rotate(-180)" fill="#fffbf0" stroke="#2a3f55" stroke-miterlimit="10" stroke-width="0.25"/><rect x="1009.77" y="72.72" width="18.2" height="2.13" transform="translate(2037.74 147.56) rotate(-180)" fill="#fffbf0" stroke="#2a3f55" stroke-miterlimit="10" stroke-width="0.25"/><rect x="1009.77" y="79.1" width="18.2" height="2.13" transform="translate(2037.74 160.33) rotate(-180)" fill="#fffbf0" stroke="#2a3f55" stroke-miterlimit="10" stroke-width="0.25"/><rect x="1009.77" y="81.23" width="18.2" height="2.13" transform="translate(2037.74 164.59) rotate(-180)" fill="#fffbf0" stroke="#2a3f55" stroke-miterlimit="10" stroke-width="0.25"/><rect x="1009.77" y="76.97" width="18.2" height="2.13" transform="translate(2037.74 156.07) rotate(-180)" fill="#fffbf0" stroke="#2a3f55" stroke-miterlimit="10" stroke-width="0.25"/><g id="cerca"><line x1="1033.55" y1="77.96" x2="1081.07" y2="77.96" fill="#fff" stroke="#2a3f55" stroke-miterlimit="10" stroke-width="0.25"/><line x1="1033.55" y1="80.57" x2="1081.07" y2="80.57" fill="#fff" stroke="#2a3f55" stroke-miterlimit="10" stroke-width="0.25"/><polygon points="1044.54 83.36 1039.04 83.36 1039.04 74.82 1041.79 72.56 1044.54 74.82 1044.54 83.36" fill="#fff" stroke="#2a3f55" stroke-miterlimit="10" stroke-width="0.25"/><polygon points="1063.06 83.36 1057.56 83.36 1057.56 74.82 1060.31 72.56 1063.06 74.82 1063.06 83.36" fill="#fff" stroke="#2a3f55" stroke-miterlimit="10" stroke-width="0.25"/><polygon points="1081.07 83.36 1077.08 83.36 1077.08 74.82 1080.07 72.56 1081.07 73.43 1081.07 83.36" fill="#fff" stroke="#2a3f55" stroke-miterlimit="10" stroke-width="0.25"/></g><rect x="956.59" y="66.4" width="12.18" height="16.96" fill="#ff3f55" stroke="#2a3f55" stroke-miterlimit="10" stroke-width="0.25"/><rect x="965.57" y="74.95" width="2.16" height="1.02" fill="#2a3f55" stroke="#2a3f55" stroke-miterlimit="10" stroke-width="0.25"/><rect x="973.14" y="68.45" width="9.95" height="6.28" fill="#2a9faa" stroke="#2a3f55" stroke-miterlimit="10" stroke-width="0.25"/><rect x="942.14" y="68.45" width="9.95" height="6.28" fill="#2a9faa" stroke="#2a3f55" stroke-miterlimit="10" stroke-width="0.25"/><rect x="957.7" y="44.06" width="9.95" height="6.28" fill="#fffbf0" stroke="#2a3f55" stroke-miterlimit="10" stroke-width="0.25"/><rect x="993.14" y="68.45" width="9.95" height="6.28" fill="#2a9faa" stroke="#2a3f55" stroke-miterlimit="10" stroke-width="0.25"/><rect x="370.9" y="41.77" width="60.28" height="41.58" fill="#fffbf0" stroke="#2a3f55" stroke-miterlimit="10" stroke-width="0.25"/><rect x="431.15" y="5.79" width="47.35" height="77.56" fill="#fffbf0" stroke="#2a3f55" stroke-miterlimit="10" stroke-width="0.25"/><rect x="382.18" y="52.3" width="37.73" height="31.05" fill="#ffdfaa" stroke="#2a3f55" stroke-miterlimit="10" stroke-width="0.25"/><rect x="396.72" y="56.46" width="8.64" height="8.64" fill="#2a9faa" stroke="#2a3f55" stroke-miterlimit="10" stroke-width="0.25"/><rect x="396.72" y="68.41" width="8.64" height="8.64" fill="#2a9faa" stroke="#2a3f55" stroke-miterlimit="10" stroke-width="0.25"/><rect x="385.62" y="56.46" width="8.64" height="8.64" fill="#2a9faa" stroke="#2a3f55" stroke-miterlimit="10" stroke-width="0.25"/><rect x="385.62" y="68.41" width="8.64" height="8.64" fill="#2a9faa" stroke="#2a3f55" stroke-miterlimit="10" stroke-width="0.25"/><rect x="407.82" y="56.46" width="8.64" height="8.64" fill="#2a9faa" stroke="#2a3f55" stroke-miterlimit="10" stroke-width="0.25"/><rect x="407.82" y="68.41" width="8.64" height="8.64" fill="#2a9faa" stroke="#2a3f55" stroke-miterlimit="10" stroke-width="0.25"/><circle cx="454.82" cy="24.91" r="9.2" fill="#ffbf55" stroke="#2a3f55" stroke-miterlimit="10" stroke-width="0.25"/><path d="M466.12,83.35H443.53V61.16s-.9-12.8,11.29-12.8,11.3,12.8,11.3,12.8Z" fill="#ff3f55" stroke="#2a3f55" stroke-miterlimit="10" stroke-width="0.25"/><rect x="428.22" y="4.51" width="53.2" height="1.9" fill="#ff3f55" stroke="#2a3f55" stroke-miterlimit="10" stroke-width="0.25"/><rect x="368.34" y="40.72" width="62.84" height="1.9" fill="#ff3f55" stroke="#2a3f55" stroke-miterlimit="10" stroke-width="0.25"/><line x1="454.82" y1="15.71" x2="454.82" y2="34.11" fill="#ff3f55" stroke="#2a3f55" stroke-miterlimit="10" stroke-width="0.25"/><line x1="464.02" y1="24.91" x2="445.62" y2="24.91" fill="#ff3f55" stroke="#2a3f55" stroke-miterlimit="10" stroke-width="0.25"/><circle cx="461.04" cy="68.8" r="1.56" fill="#2a3f55" stroke="#2a3f55" stroke-miterlimit="10" stroke-width="0.25"/><g id="arbol1-3" data-name="arbol1"><circle cx="472.86" cy="51.14" r="9.61" fill="#55bfaa" stroke="#2a3f55" stroke-miterlimit="10" stroke-width="0.25"/><line x1="473.49" y1="49.11" x2="473.49" y2="78.24" fill="#55bfaa" stroke="#2a3f55" stroke-miterlimit="10" stroke-width="0.25"/><line x1="473.49" y1="53.36" x2="477.17" y2="49.82" fill="#55bfaa" stroke="#2a3f55" stroke-miterlimit="10" stroke-width="0.25"/><line x1="468.53" y1="52.65" x2="473.49" y2="56.62" fill="#55bfaa" stroke="#2a3f55" stroke-miterlimit="10" stroke-width="0.25"/></g><g id="plantas"><path d="M487.14,83.35s3.52-2.89-1.51-4.46c0,0,1.23-4.59-3.35-3.83,0,0-2.64-6.23-5,0,0,0-5.47-1.52-3.68,3.69,0,0-5.23,1.27-1.33,4.62" fill="#55bfaa" stroke="#2a3f55" stroke-miterlimit="10" stroke-width="0.25"/><path d="M476.55,83.35s2.46-1.55-.85-2.58c0,0,.81-3-2.21-2.53,0,0-1.74-4.11-3.28,0,0,0-3.61-1-2.43,2.43,0,0-3.59.48-1,2.69" fill="#55bfaa" stroke="#2a3f55" stroke-miterlimit="10" stroke-width="0.25"/></g><polygon points="370.9 40.69 384.22 25.23 431.07 25.23 431.07 40.69 370.9 40.69" fill="#ff3f55" stroke="#2a3f55" stroke-miterlimit="10" stroke-width="0.25"/><path d="M351.93,83.36a2.51,2.51,0,0,1-.13-.82,2.61,2.61,0,0,1,2.61-2.62,2.58,2.58,0,0,1,1,.19A5,5,0,0,1,360.31,76a4.91,4.91,0,0,1,1.59.26A6.42,6.42,0,0,1,374.08,76a5.78,5.78,0,0,1,5.76,5.78,6,6,0,0,1-.22,1.58Z" fill="#55bfaa" stroke="#2a3f55" stroke-miterlimit="10" stroke-width="0.25"/><polygon points="623.75 33.28 520.19 33.28 545.03 4.63 598.91 4.63 623.75 33.28" fill="#ff3f55" stroke="#2a3f55" stroke-miterlimit="10" stroke-width="0.25"/><rect x="527.93" y="33.28" width="87.94" height="50.08" fill="#fffbf0" stroke="#2a3f55" stroke-miterlimit="10" stroke-width="0.25"/><polygon points="602.17 35.9 571.89 5.63 541.62 35.9 602.17 35.9" fill="#fffbf0" stroke="#2a3f55" stroke-miterlimit="10" stroke-width="0.25"/><polygon points="602.19 35.9 571.91 5.63 541.64 35.9 544.27 35.9 571.91 8.26 599.56 35.9 602.19 35.9" fill="#ff3f55" stroke="#2a3f55" stroke-miterlimit="10" stroke-width="0.25"/><rect x="558.88" y="42.98" width="8.39" height="8.39" fill="#ffdfaa" stroke="#2a3f55" stroke-miterlimit="10" stroke-width="0.25"/><line x1="563.08" y1="42.98" x2="563.08" y2="51.4" fill="#fffbf0" stroke="#2a3f55" stroke-miterlimit="10" stroke-width="0.25"/><line x1="567.29" y1="47.19" x2="558.87" y2="47.19" fill="#fffbf0" stroke="#2a3f55" stroke-miterlimit="10" stroke-width="0.25"/><rect x="558.12" y="41.26" width="9.91" height="1.72" fill="#ff3f55" stroke="#2a3f55" stroke-miterlimit="10" stroke-width="0.25"/><rect x="558.12" y="51.38" width="9.91" height="1.47" fill="#fffbf0" stroke="#2a3f55" stroke-miterlimit="10" stroke-width="0.25"/><rect x="576.52" y="42.98" width="8.39" height="8.39" fill="#ffdfaa" stroke="#2a3f55" stroke-miterlimit="10" stroke-width="0.25"/><line x1="580.71" y1="42.98" x2="580.71" y2="51.4" fill="#fffbf0" stroke="#2a3f55" stroke-miterlimit="10" stroke-width="0.25"/><line x1="584.92" y1="47.19" x2="576.5" y2="47.19" fill="#fffbf0" stroke="#2a3f55" stroke-miterlimit="10" stroke-width="0.25"/><rect x="575.76" y="41.26" width="9.91" height="1.72" fill="#ff3f55" stroke="#2a3f55" stroke-miterlimit="10" stroke-width="0.25"/><rect x="575.76" y="51.38" width="9.91" height="1.47" fill="#fffbf0" stroke="#2a3f55" stroke-miterlimit="10" stroke-width="0.25"/><rect x="534.06" y="41.72" width="8.39" height="8.39" fill="#ffdfaa" stroke="#2a3f55" stroke-miterlimit="10" stroke-width="0.25"/><line x1="538.26" y1="41.72" x2="538.26" y2="50.14" fill="#fffbf0" stroke="#2a3f55" stroke-miterlimit="10" stroke-width="0.25"/><line x1="542.47" y1="45.93" x2="534.05" y2="45.93" fill="#fffbf0" stroke="#2a3f55" stroke-miterlimit="10" stroke-width="0.25"/><rect x="533.3" y="40" width="9.91" height="1.72" fill="#ff3f55" stroke="#2a3f55" stroke-miterlimit="10" stroke-width="0.25"/><rect x="533.3" y="50.12" width="9.91" height="1.47" fill="#fffbf0" stroke="#2a3f55" stroke-miterlimit="10" stroke-width="0.25"/><rect x="601.34" y="41.72" width="8.39" height="8.39" fill="#ffdfaa" stroke="#2a3f55" stroke-miterlimit="10" stroke-width="0.25"/><line x1="605.53" y1="41.72" x2="605.53" y2="50.14" fill="#fffbf0" stroke="#2a3f55" stroke-miterlimit="10" stroke-width="0.25"/><line x1="609.74" y1="45.93" x2="601.32" y2="45.93" fill="#fffbf0" stroke="#2a3f55" stroke-miterlimit="10" stroke-width="0.25"/><rect x="600.58" y="40" width="9.91" height="1.72" fill="#ff3f55" stroke="#2a3f55" stroke-miterlimit="10" stroke-width="0.25"/><rect x="600.58" y="50.12" width="9.91" height="1.47" fill="#fffbf0" stroke="#2a3f55" stroke-miterlimit="10" stroke-width="0.25"/><rect x="534.06" y="60.37" width="8.39" height="8.39" fill="#ffdfaa" stroke="#2a3f55" stroke-miterlimit="10" stroke-width="0.25"/><line x1="538.26" y1="60.37" x2="538.26" y2="68.79" fill="#fffbf0" stroke="#2a3f55" stroke-miterlimit="10" stroke-width="0.25"/><line x1="542.47" y1="64.58" x2="534.05" y2="64.58" fill="#fffbf0" stroke="#2a3f55" stroke-miterlimit="10" stroke-width="0.25"/><rect x="533.3" y="58.65" width="9.91" height="1.72" fill="#ff3f55" stroke="#2a3f55" stroke-miterlimit="10" stroke-width="0.25"/><rect x="533.3" y="68.77" width="9.91" height="1.47" fill="#fffbf0" stroke="#2a3f55" stroke-miterlimit="10" stroke-width="0.25"/><rect x="601.34" y="60.37" width="8.39" height="8.39" fill="#ffdfaa" stroke="#2a3f55" stroke-miterlimit="10" stroke-width="0.25"/><line x1="605.53" y1="60.37" x2="605.53" y2="68.79" fill="#fffbf0" stroke="#2a3f55" stroke-miterlimit="10" stroke-width="0.25"/><line x1="609.74" y1="64.58" x2="601.32" y2="64.58" fill="#fffbf0" stroke="#2a3f55" stroke-miterlimit="10" stroke-width="0.25"/><rect x="600.58" y="58.65" width="9.91" height="1.72" fill="#ff3f55" stroke="#2a3f55" stroke-miterlimit="10" stroke-width="0.25"/><rect x="600.58" y="68.77" width="9.91" height="1.47" fill="#fffbf0" stroke="#2a3f55" stroke-miterlimit="10" stroke-width="0.25"/><rect x="590.29" y="35.9" width="7.92" height="1" fill="#fffbf0" stroke="#2a3f55" stroke-miterlimit="10" stroke-width="0.25"/><rect x="590.29" y="82.51" width="7.92" height="1" fill="#fffbf0" stroke="#2a3f55" stroke-miterlimit="10" stroke-width="0.25"/><rect x="591.45" y="36.9" width="1.4" height="45.6" fill="#fffbf0" stroke="#2a3f55" stroke-miterlimit="10" stroke-width="0.25"/><rect x="592.85" y="36.9" width="1.4" height="45.6" fill="#fffbf0" stroke="#2a3f55" stroke-miterlimit="10" stroke-width="0.25"/><rect x="595.66" y="36.9" width="1.4" height="45.6" fill="#fffbf0" stroke="#2a3f55" stroke-miterlimit="10" stroke-width="0.25"/><rect x="545.58" y="35.9" width="7.92" height="1" fill="#fffbf0" stroke="#2a3f55" stroke-miterlimit="10" stroke-width="0.25"/><rect x="545.58" y="82.51" width="7.92" height="1" fill="#fffbf0" stroke="#2a3f55" stroke-miterlimit="10" stroke-width="0.25"/><rect x="546.73" y="36.9" width="1.4" height="45.6" fill="#fffbf0" stroke="#2a3f55" stroke-miterlimit="10" stroke-width="0.25"/><rect x="548.13" y="36.9" width="1.4" height="45.6" fill="#fffbf0" stroke="#2a3f55" stroke-miterlimit="10" stroke-width="0.25"/><rect x="550.94" y="36.9" width="1.4" height="45.6" fill="#fffbf0" stroke="#2a3f55" stroke-miterlimit="10" stroke-width="0.25"/><path d="M583.76,69.24a12.13,12.13,0,1,0-24.26,0v7.54h24.26Z" fill="#ffdfaa" stroke="#2a3f55" stroke-miterlimit="10" stroke-width="0.25"/><path d="M504.68,83.21a3,3,0,0,1-.15-.95,3,3,0,0,1,4.17-2.83,5.83,5.83,0,0,1,5.73-4.78,5.93,5.93,0,0,1,1.85.3,7.46,7.46,0,0,1,14.16-.3,6.72,6.72,0,0,1,6.7,6.72,7,7,0,0,1-.25,1.84Z" fill="#55bfaa" stroke="#2a3f55" stroke-miterlimit="10" stroke-width="0.25"/><path d="M639.16,83.36a3.31,3.31,0,0,0,.15-1,3,3,0,0,0-4.18-2.83,5.82,5.82,0,0,0-5.73-4.77,5.63,5.63,0,0,0-1.84.3,7.46,7.46,0,0,0-14.17-.3,6.72,6.72,0,0,0-6.7,6.71,6.55,6.55,0,0,0,.26,1.84Z" fill="#55bfaa" stroke="#2a3f55" stroke-miterlimit="10" stroke-width="0.25"/><rect x="564.61" y="63.3" width="7.28" height="13" fill="#ff3f55" stroke="#2a3f55" stroke-miterlimit="10" stroke-width="0.25"/><rect x="571.92" y="63.3" width="7.28" height="13" fill="#ff3f55" stroke="#2a3f55" stroke-miterlimit="10" stroke-width="0.25"/><path d="M622.2,70a4.55,4.55,0,1,0-8.41-2.4,4.49,4.49,0,0,0,.69,2.4,6.06,6.06,0,1,0,7.72,0Z" fill="#55bfaa" stroke="#2a3f55" stroke-miterlimit="10" stroke-width="0.25"/><polygon points="624.19 85.35 612.49 85.35 610.74 77.16 625.94 77.16 624.19 85.35" fill="#fffbf0" stroke="#2a3f55" stroke-miterlimit="10" stroke-width="0.25"/><rect x="610.12" y="76.11" width="16.44" height="2.02" fill="#fffbf0" stroke="#2a3f55" stroke-miterlimit="10" stroke-width="0.25"/><path d="M529.62,70a4.55,4.55,0,1,0-8.41-2.4,4.49,4.49,0,0,0,.69,2.4,6.06,6.06,0,1,0,7.72,0Z" fill="#55bfaa" stroke="#2a3f55" stroke-miterlimit="10" stroke-width="0.25"/><polygon points="531.61 85.35 519.91 85.35 518.15 77.16 533.36 77.16 531.61 85.35" fill="#fffbf0" stroke="#2a3f55" stroke-miterlimit="10" stroke-width="0.25"/><rect x="517.54" y="76.11" width="16.44" height="2.02" fill="#fffbf0" stroke="#2a3f55" stroke-miterlimit="10" stroke-width="0.25"/><rect x="555.85" y="81.1" width="32.11" height="2.41" fill="#fffbf0" stroke="#2a3f55" stroke-miterlimit="10" stroke-width="0.25"/><rect x="556.82" y="78.7" width="30.16" height="2.41" fill="#fffbf0" stroke="#2a3f55" stroke-miterlimit="10" stroke-width="0.25"/><rect x="558.62" y="76.29" width="26.47" height="2.41" fill="#fffbf0" stroke="#2a3f55" stroke-miterlimit="10" stroke-width="0.25"/><circle cx="571.86" cy="23.73" r="5.16" fill="#ffdfaa" stroke="#2a3f55" stroke-miterlimit="10" stroke-width="0.25"/><polygon points="713.21 48.21 767.43 48.21 767.43 16.42 740.32 1.15 713.21 16.42 713.21 48.21" fill="#fffbf0" stroke="#2a3f55" stroke-miterlimit="10" stroke-width="0.24"/><rect x="667.78" y="49.02" width="99.65" height="34.35" transform="translate(1435.22 132.38) rotate(-180)" fill="#fffbf0" stroke="#2a3f55" stroke-miterlimit="10" stroke-width="0.24"/><polygon points="668.21 48.21 713.21 48.21 713.21 28.57 692.62 28.57 668.21 48.21" fill="#ff3f55" stroke="#2a3f55" stroke-miterlimit="10" stroke-width="0.24"/><rect x="742.35" y="58.63" width="14.69" height="24.73" transform="translate(1499.38 142) rotate(-180)" fill="#2a9faa" stroke="#2a3f55" stroke-miterlimit="10" stroke-width="0.24"/><rect x="717.85" y="58.63" width="19.08" height="14.04" transform="translate(1454.79 131.3) rotate(-180)" fill="#ffdfaa" stroke="#2a3f55" stroke-miterlimit="10" stroke-width="0.24"/><rect x="676.33" y="58.63" width="30.51" height="24.73" transform="translate(1383.17 142) rotate(-180)" fill="#ffdfaa" stroke="#2a3f55" stroke-miterlimit="10" stroke-width="0.24"/><rect x="676.33" y="58.63" width="30.51" height="1.56" transform="translate(1383.17 118.82) rotate(-180)" fill="#ff3f55" stroke="#2a3f55" stroke-miterlimit="10" stroke-width="0.24"/><rect x="676.33" y="64.87" width="30.51" height="1.56" transform="translate(1383.17 131.3) rotate(-180)" fill="#ff3f55" stroke="#2a3f55" stroke-miterlimit="10" stroke-width="0.24"/><rect x="676.33" y="71.11" width="30.51" height="1.56" transform="translate(1383.17 143.78) rotate(-180)" fill="#ff3f55" stroke="#2a3f55" stroke-miterlimit="10" stroke-width="0.24"/><rect x="676.33" y="77.35" width="30.51" height="1.56" transform="translate(1383.17 156.25) rotate(-180)" fill="#ff3f55" stroke="#2a3f55" stroke-miterlimit="10" stroke-width="0.24"/><rect x="676.33" y="63.31" width="30.51" height="1.56" transform="translate(1383.17 128.18) rotate(-180)" fill="#ff3f55" stroke="#2a3f55" stroke-miterlimit="10" stroke-width="0.24"/><rect x="676.33" y="69.55" width="30.51" height="1.56" transform="translate(1383.17 140.66) rotate(-180)" fill="#ff3f55" stroke="#2a3f55" stroke-miterlimit="10" stroke-width="0.24"/><rect x="676.33" y="75.79" width="30.51" height="1.56" transform="translate(1383.17 153.14) rotate(-180)" fill="#ff3f55" stroke="#2a3f55" stroke-miterlimit="10" stroke-width="0.24"/><rect x="676.33" y="61.75" width="30.51" height="1.56" transform="translate(1383.17 125.06) rotate(-180)" fill="#ff3f55" stroke="#2a3f55" stroke-miterlimit="10" stroke-width="0.24"/><rect x="676.33" y="67.99" width="30.51" height="1.56" transform="translate(1383.17 137.54) rotate(-180)" fill="#ff3f55" stroke="#2a3f55" stroke-miterlimit="10" stroke-width="0.24"/><rect x="676.33" y="74.23" width="30.51" height="1.56" transform="translate(1383.17 150.02) rotate(-180)" fill="#ff3f55" stroke="#2a3f55" stroke-miterlimit="10" stroke-width="0.24"/><rect x="676.33" y="60.19" width="30.51" height="1.56" transform="translate(1383.17 121.94) rotate(-180)" fill="#ff3f55" stroke="#2a3f55" stroke-miterlimit="10" stroke-width="0.24"/><rect x="676.33" y="66.43" width="30.51" height="1.56" transform="translate(1383.17 134.42) rotate(-180)" fill="#ff3f55" stroke="#2a3f55" stroke-miterlimit="10" stroke-width="0.24"/><rect x="676.33" y="72.67" width="30.51" height="1.56" transform="translate(1383.17 146.9) rotate(-180)" fill="#ff3f55" stroke="#2a3f55" stroke-miterlimit="10" stroke-width="0.24"/><rect x="716.72" y="72.71" width="21.35" height="1.99" transform="translate(1454.79 147.41) rotate(-180)" fill="#ff3f55" stroke="#2a3f55" stroke-miterlimit="10" stroke-width="0.24"/><circle cx="749.69" cy="65.7" r="3.58" fill="#ffdfaa" stroke="#2a3f55" stroke-miterlimit="10" stroke-width="0.24"/><rect x="729.49" y="22.83" width="21.66" height="25.38" transform="translate(1480.65 71.03) rotate(-180)" fill="#ffdfaa" stroke="#2a3f55" stroke-miterlimit="10" stroke-width="0.24"/><rect x="723.55" y="33.42" width="33.55" height="14.79" transform="translate(1480.65 81.62) rotate(-180)" fill="none" stroke="#2a3f55" stroke-miterlimit="10" stroke-width="0.24"/><rect x="732.48" y="33.42" width="15.69" height="14.79" transform="translate(1480.65 81.62) rotate(-180)" fill="none" stroke="#2a3f55" stroke-miterlimit="10" stroke-width="0.24"/><polygon points="708.95 18.54 740.32 0.14 771.7 18.54 769.37 20.07 740.32 3.23 711.28 20.07 708.95 18.54" fill="#ff3f55" stroke="#2a3f55" stroke-miterlimit="10" stroke-width="0.24"/><rect x="666.58" y="47.8" width="104.09" height="1.7" transform="translate(1437.25 97.29) rotate(-180)" fill="#ff3f55" stroke="#2a3f55" stroke-miterlimit="10" stroke-width="0.24"/><line x1="740.32" y1="33.23" x2="740.32" y2="48.02" fill="none" stroke="#2a3f55" stroke-miterlimit="10" stroke-width="0.24"/><line x1="727.4" y1="58.63" x2="727.4" y2="72.67" fill="none" stroke="#2a3f55" stroke-miterlimit="10" stroke-width="0.24"/><path d="M670.4,51.08a3.33,3.33,0,0,1,3.56,3V67.54a3.6,3.6,0,0,1-7.12,0V54.12A3.33,3.33,0,0,1,670.4,51.08Z" fill="#55bfaa" stroke="#2a3f55" stroke-miterlimit="10" stroke-width="0.24"/><line x1="670.4" y1="60.68" x2="670.4" y2="80.22" fill="#55bfaa" stroke="#2a3f55" stroke-miterlimit="10" stroke-width="0.24"/><polyline points="668.51 61.29 670.4 63.18 672.29 61.29" fill="#55bfaa" stroke="#2a3f55" stroke-miterlimit="10" stroke-width="0.24"/><polyline points="668.51 63.76 670.4 65.65 672.29 63.76" fill="#55bfaa" stroke="#2a3f55" stroke-miterlimit="10" stroke-width="0.24"/><polyline points="668.51 66.23 670.4 68.11 672.29 66.23" fill="#55bfaa" stroke="#2a3f55" stroke-miterlimit="10" stroke-width="0.24"/><path d="M679.53,83.36a2.46,2.46,0,0,0,.11-.72,2.29,2.29,0,0,0-2.29-2.29,2.38,2.38,0,0,0-.85.16,4.4,4.4,0,0,0-4.32-3.59,4.59,4.59,0,0,0-1.39.22,5.62,5.62,0,0,0-10.66-.22,5,5,0,0,0-5,5,5.3,5.3,0,0,0,.19,1.39Z" fill="#55bfaa" stroke="#2a3f55" stroke-miterlimit="10" stroke-width="0.24"/><path d="M768,76.69s-4.52-4.07-1.93-18.41C766,58.28,771.53,72.34,768,76.69Z" fill="#55bfaa" stroke="#2a3f55" stroke-miterlimit="10" stroke-width="0.24"/><path d="M769.26,76.52s-4.77-6.66,2.79-24.76C772.05,51.76,775.23,71.84,769.26,76.52Z" fill="#55bfaa" stroke="#2a3f55" stroke-miterlimit="10" stroke-width="0.24"/><polygon points="772.54 83.36 764.98 83.36 764.2 75.02 773.33 75.02 772.54 83.36" fill="#fffbf0" stroke="#2a3f55" stroke-miterlimit="10" stroke-width="0.24"/><rect x="762.86" y="72.98" width="11.8" height="2.14" fill="#fffbf0" stroke="#2a3f55" stroke-miterlimit="10" stroke-width="0.24"/></svg>