<?xml version="1.0" encoding="utf-8"?>
<!-- Generator: Adobe Illustrator 24.2.3, SVG Export Plug-In . SVG Version: 6.00 Build 0)  -->
<svg version="1.1" id="Layer_1" xmlns="http://www.w3.org/2000/svg" xmlns:xlink="http://www.w3.org/1999/xlink" x="0px" y="0px"
	 viewBox="0 0 1081.1 123.6" style="enable-background:new 0 0 1081.1 123.6;" xml:space="preserve">
<style type="text/css">
	.st0{fill:#FFFBF0;}
	.st1{fill:#FEFBF1;}
	.st2{fill:#FFFFFF;}
	.st3{fill:#EE3E5A;stroke:#374257;stroke-width:0.4722;stroke-miterlimit:10;}
	.st4{fill:none;stroke:#374257;stroke-width:0.4722;stroke-miterlimit:10;}
	.st5{fill:#FFCA30;stroke:#374257;stroke-width:0.4722;stroke-miterlimit:10;}
	.st6{fill:#F8F3DC;stroke:#374257;stroke-width:0.4722;stroke-miterlimit:10;}
	.st7{fill:#374257;stroke:#374257;stroke-width:0.4722;stroke-miterlimit:10;}
	.st8{fill:#EDE3BA;stroke:#374257;stroke-width:0.4722;stroke-miterlimit:10;}
	.st9{fill:#3AA9CC;stroke:#374257;stroke-width:0.4722;stroke-miterlimit:10;}
	.st10{fill:#67B199;stroke:#374257;stroke-width:0.4722;stroke-miterlimit:10;}
	.st11{fill:#FFFFFF;stroke:#374257;stroke-width:0.4722;stroke-miterlimit:10;}
	.st12{fill:#FFFBF0;stroke:#2A3F55;stroke-width:0.2278;stroke-miterlimit:10;}
	.st13{fill:#2A3F55;stroke:#2A3F55;stroke-width:0.2278;stroke-miterlimit:10;}
	.st14{fill:#2A9FAA;stroke:#2A3F55;stroke-width:0.2278;stroke-miterlimit:10;}
	.st15{fill:#FF3F55;stroke:#2A3F55;stroke-width:0.2278;stroke-miterlimit:10;}
	.st16{fill:#FFDFAA;stroke:#2A3F55;stroke-width:0.2278;stroke-miterlimit:10;}
	.st17{fill:#FFBF55;stroke:#2A3F55;stroke-width:0.2278;stroke-miterlimit:10;}
	.st18{fill:none;stroke:#2A3F55;stroke-width:0.2278;stroke-miterlimit:10;}
	.st19{fill:#F7F2DB;stroke:#364156;stroke-width:0.4722;stroke-miterlimit:10;}
	.st20{fill:#374257;}
	.st21{fill:#3AA9CC;}
	.st22{fill:#233042;}
	.st23{fill:#FFFBF0;stroke:#2A3F55;stroke-width:0.2874;stroke-miterlimit:10;}
	.st24{fill:#FF3F55;stroke:#2A3F55;stroke-width:0.2874;stroke-miterlimit:10;}
	.st25{fill:#FFDFAA;stroke:#2A3F55;stroke-width:0.2874;stroke-miterlimit:10;}
	.st26{fill:#2A3F55;stroke:#2A3F55;stroke-width:0.2874;stroke-miterlimit:10;}
	.st27{fill:none;stroke:#2A3F55;stroke-width:0.2874;stroke-miterlimit:10;}
	.st28{fill:#FFFFFF;stroke:#2A3F55;stroke-width:0.2874;stroke-miterlimit:10;}
	.st29{fill:#2A9FAA;stroke:#2A3F55;stroke-width:0.2874;stroke-miterlimit:10;}
	.st30{fill:#2AA881;stroke:#2A3F55;stroke-width:0.2874;stroke-miterlimit:10;}
	.st31{fill:#FFBF55;stroke:#2A3F55;stroke-width:0.2874;stroke-miterlimit:10;}
	.st32{fill:#2A3F55;}
	.st33{fill:#F8F3DC;stroke:#374257;stroke-width:0.2874;stroke-miterlimit:10;}
	.st34{fill:#EE3E5A;stroke:#374257;stroke-width:0.2874;stroke-miterlimit:10;}
	.st35{fill:#EDE3BA;stroke:#374257;stroke-width:0.2874;stroke-miterlimit:10;}
	.st36{fill:#374257;stroke:#374257;stroke-width:0.2874;stroke-miterlimit:10;}
	.st37{fill:none;stroke:#374257;stroke-width:0.2874;stroke-miterlimit:10;}
	.st38{fill:#FFFFFF;stroke:#374257;stroke-width:0.2874;stroke-miterlimit:10;}
	.st39{fill:#3AA9CC;stroke:#374257;stroke-width:0.2874;stroke-miterlimit:10;}
	.st40{fill:#68B199;stroke:#131726;stroke-width:0.2874;stroke-miterlimit:10;}
	.st41{fill:#FFCA30;stroke:#374257;stroke-width:0.2874;stroke-miterlimit:10;}
	.st42{fill:#68B199;stroke:#374257;stroke-width:0.2874;stroke-miterlimit:10;}
	.st43{fill:#67B199;stroke:#374257;stroke-width:0.2874;stroke-miterlimit:10;}
	.st44{fill:#F7F2DB;stroke:#131726;stroke-width:0.2874;stroke-miterlimit:10;}
	.st45{fill:#EE3C59;stroke:#131726;stroke-width:0.2874;stroke-miterlimit:10;}
	.st46{fill:#FFCA30;stroke:#131726;stroke-width:0.2874;stroke-miterlimit:10;}
	.st47{fill:#ECE2BA;stroke:#131726;stroke-width:0.2874;stroke-miterlimit:10;}
	.st48{fill:#3BA9CB;stroke:#131726;stroke-width:0.2874;stroke-miterlimit:10;}
	.st49{fill:none;stroke:#131726;stroke-width:0.2874;stroke-miterlimit:10;}
	.st50{fill:#ECE2BA;stroke:#374257;stroke-width:0.2874;stroke-miterlimit:10;}
	.st51{fill:#FFCA30;stroke:#233042;stroke-width:0.2874;stroke-miterlimit:10;}
	.st52{fill:#2AA881;stroke:#2A3F55;stroke-width:0.2782;stroke-miterlimit:10;}
	.st53{fill:#FFBF55;stroke:#2A3F55;stroke-width:0.2782;stroke-miterlimit:10;}
	.st54{fill:#FF3F55;stroke:#2A3F55;stroke-width:0.2782;stroke-miterlimit:10;}
	.st55{fill:none;stroke:#2A3F55;stroke-width:0.279;stroke-miterlimit:10;}
	.st56{fill:none;stroke:#2A3F55;stroke-width:0.25;stroke-miterlimit:10;}
	.st57{fill:none;stroke:#2A3F55;stroke-width:2;stroke-miterlimit:10;}
	.st58{fill:#FF3F55;stroke:#2A3F55;stroke-width:0.25;stroke-miterlimit:10;}
	.st59{fill:#FFBF55;stroke:#2A3F55;stroke-width:0.25;stroke-miterlimit:10;}
	.st60{fill:#FFFBF0;stroke:#2A3F55;stroke-width:0.25;stroke-miterlimit:10;}
	.st61{fill:#2A3F55;stroke:#2A3F55;stroke-width:0.25;stroke-miterlimit:10;}
	.st62{fill:#FFDFAA;stroke:#2A3F55;stroke-width:0.25;stroke-miterlimit:10;}
	.st63{fill:#2A9FAA;stroke:#2A3F55;stroke-width:0.25;stroke-miterlimit:10;}
	.st64{fill:#55BFAA;stroke:#2A3F55;stroke-width:0.25;stroke-miterlimit:10;}
	.st65{fill:#FFFFFF;stroke:#2A3F55;stroke-width:0.25;stroke-miterlimit:10;}
	.st66{fill:#FFFBF0;stroke:#2A3F55;stroke-width:0.242;stroke-miterlimit:10;}
	.st67{fill:#FF3F55;stroke:#2A3F55;stroke-width:0.242;stroke-miterlimit:10;}
	.st68{fill:#2A9FAA;stroke:#2A3F55;stroke-width:0.242;stroke-miterlimit:10;}
	.st69{fill:#FFDFAA;stroke:#2A3F55;stroke-width:0.242;stroke-miterlimit:10;}
	.st70{fill:none;stroke:#2A3F55;stroke-width:0.242;stroke-miterlimit:10;}
	.st71{fill:#55BFAA;stroke:#2A3F55;stroke-width:0.242;stroke-miterlimit:10;}
	.st72{fill:#FFA00F;stroke:#2A3F55;stroke-width:0.1518;stroke-miterlimit:10;}
	.st73{fill:#FF7B06;stroke:#2A3F55;stroke-width:0.1518;stroke-miterlimit:10;}
	.st74{fill:#9EA2AC;}
	.st75{fill:#9CD0D7;}
	.st76{fill:#FFE3B0;}
	.st77{fill:#FFA0A8;}
	.st78{fill:#A4DBD0;}
	.st79{fill:#FFF0DB;}
	.st80{fill:#FFFDF7;stroke:#2A3F55;stroke-width:0.25;stroke-miterlimit:10;}
	.st81{opacity:0.5;fill:#2A3F55;stroke:#2A3F55;stroke-width:0.1768;stroke-miterlimit:10;}
	.st82{opacity:0.5;fill:#2A9FAA;stroke:#2A3F55;stroke-width:0.1768;stroke-miterlimit:10;}
	.st83{opacity:0.5;fill:#FFBF55;stroke:#2A3F55;stroke-width:0.1768;stroke-miterlimit:10;}
	.st84{opacity:0.5;fill:#FF3F55;stroke:#2A3F55;stroke-width:0.1768;stroke-miterlimit:10;}
	.st85{opacity:0.5;fill:#55BFAA;stroke:#2A3F55;stroke-width:0.1768;stroke-miterlimit:10;}
	.st86{opacity:0.5;fill:#FFDFAA;stroke:#2A3F55;stroke-width:0.1768;stroke-miterlimit:10;}
	.st87{opacity:0.5;fill:#FFFBF0;stroke:#2A3F55;stroke-width:0.1768;stroke-miterlimit:10;}
	.st88{fill:#FFFEFA;}
	.st89{fill:#FFDFAA;}
	.st90{fill:#55BFAA;}
	.st91{fill:#FFBF55;}
	.st92{fill:#FF3F55;}
	.st93{fill:#FFCB78;}
	.st94{fill:#FF7B06;}
	.st95{fill:#FFA00F;}
	.st96{fill:#FFF4E0;}
	.st97{fill:#FFE5BB;}
	.st98{fill:#DCEEF1;}
	.st99{fill:#C0DAE0;}
	.st100{fill:#8DC5CB;}
	.st101{fill:#077984;}
	.st102{fill:#2A9FAA;}
	.st103{fill:none;stroke:#FF3F55;stroke-width:7;stroke-miterlimit:10;}
	.st104{fill:#FFFFFF;stroke:#2A3F55;stroke-width:0.9423;stroke-miterlimit:10;}
	.st105{fill:none;stroke:#2A3F55;stroke-width:0.2418;stroke-miterlimit:10;}
	.st106{opacity:0.1;fill:#9CD0D7;}
	.st107{fill:none;stroke:#9CD0D7;stroke-width:0.2418;stroke-miterlimit:10;}
	.st108{fill:#FFFBF0;stroke:#45486D;stroke-width:0.9211;stroke-miterlimit:10;}
	.st109{fill:#FFFBF0;stroke:#45486D;stroke-miterlimit:10;}
	.st110{fill:#EF8539;}
	.st111{fill:#F2EAF0;}
	.st112{fill:none;stroke:#EC505A;stroke-width:2;stroke-miterlimit:10;}
	.st113{fill:#F8F3E5;}
	.st114{fill:#2AA881;stroke:#2A3F55;stroke-width:0.25;stroke-miterlimit:10;}
	.st115{fill:#F8F3E5;stroke:#2A3F55;stroke-miterlimit:10;}
	.st116{fill:#30AAB3;}
	.st117{fill:#FF3F55;stroke:#2A3F55;stroke-miterlimit:10;}
	.st118{fill:#2A9FAA;stroke:#2A3F55;stroke-miterlimit:10;}
	.st119{fill:#2A3F55;stroke:#2A3F55;stroke-width:0.2081;stroke-miterlimit:10;}
	.st120{fill:#FFDFAA;stroke:#2A3F55;stroke-width:0.2081;stroke-miterlimit:10;}
	.st121{fill:#2A9FAA;stroke:#2A3F55;stroke-width:0.2081;stroke-miterlimit:10;}
	.st122{fill:#FF3F55;stroke:#2A3F55;stroke-width:0.2081;stroke-miterlimit:10;}
	.st123{opacity:0.7;fill:#FFDFAA;stroke:#2A3F55;stroke-width:0.2081;stroke-miterlimit:10;}
	.st124{fill:#55BFAA;stroke:#2A3F55;stroke-width:0.2081;stroke-miterlimit:10;}
	.st125{fill:#FFBF55;stroke:#2A3F55;stroke-width:0.2081;stroke-miterlimit:10;}
	.st126{fill:none;stroke:#2A3F55;stroke-miterlimit:10;}
	.st127{fill:none;stroke:#5A60AB;stroke-miterlimit:10;}
	.st128{fill:#DB8860;stroke:#2A3F55;stroke-miterlimit:10;}
	.st129{fill:#F7C655;stroke:#2A3F55;stroke-miterlimit:10;}
	.st130{fill:#AABFBF;stroke:#2A3F55;stroke-miterlimit:10;}
	.st131{fill:#AABFBF;stroke:#2A3F55;stroke-width:0.9957;stroke-miterlimit:10;}
	.st132{fill:none;stroke:#5A60AB;stroke-width:1.3548;stroke-miterlimit:10;}
	.st133{fill:none;stroke:#0081C8;stroke-width:2.81;}
	.st134{fill:none;stroke:#000000;stroke-width:2.81;}
	.st135{fill:none;stroke:#EE334E;stroke-width:2.81;}
	.st136{fill:none;stroke:#FCB131;stroke-width:2.81;}
	.st137{fill:none;stroke:#00A651;stroke-width:2.81;}
	.st138{fill:#45486D;}
	.st139{fill:none;stroke:#2A3F55;stroke-width:0.25;stroke-linecap:round;stroke-miterlimit:10;}
	.st140{fill:none;stroke:#1C1C1B;stroke-width:0.8188;stroke-linecap:round;stroke-miterlimit:10;}
	.st141{fill:none;stroke:#FFBF55;stroke-width:3;stroke-miterlimit:10;}
	.st142{fill:none;stroke:#2A3F55;stroke-width:5;stroke-miterlimit:10;}
	.st143{fill:none;stroke:#2A3F55;stroke-width:4;stroke-linecap:round;stroke-miterlimit:10;}
	.st144{fill:#1B2935;stroke:#2A3F55;stroke-width:0.25;stroke-miterlimit:10;}
	.st145{fill:none;stroke:#FFFFFF;stroke-width:0.6796;stroke-linecap:round;stroke-miterlimit:10;}
	.st146{enable-background:new    ;}
	.st147{clip-path:url(#SVGID_2_);enable-background:new    ;}
	.st148{clip-path:url(#SVGID_4_);enable-background:new    ;}
	.st149{clip-path:url(#SVGID_6_);enable-background:new    ;}
	.st150{clip-path:url(#SVGID_8_);enable-background:new    ;}
	.st151{clip-path:url(#SVGID_10_);enable-background:new    ;}
	.st152{clip-path:url(#SVGID_12_);enable-background:new    ;}
	.st153{clip-path:url(#SVGID_14_);enable-background:new    ;}
	.st154{clip-path:url(#SVGID_16_);enable-background:new    ;}
	.st155{fill:#111111;}
	.st156{fill:#111110;}
	.st157{fill:#10100E;}
	.st158{fill:#0E0E0E;}
	.st159{fill:#0E0E0D;}
	.st160{clip-path:url(#SVGID_18_);enable-background:new    ;}
	.st161{clip-path:url(#SVGID_20_);enable-background:new    ;}
	.st162{fill:none;stroke:#2A3F55;stroke-width:0.8188;stroke-linecap:round;stroke-miterlimit:10;}
	.st163{fill:none;stroke:#FF3F55;stroke-miterlimit:10;}
	.st164{fill:#1C1C1B;}
	.st165{fill:none;stroke:#2A3F55;stroke-width:0.819;stroke-linecap:round;stroke-linejoin:round;stroke-miterlimit:10;}
	.st166{fill:none;stroke:#2A3F55;stroke-width:0.25;stroke-linecap:round;stroke-linejoin:round;stroke-miterlimit:10;}
	.st167{fill:none;stroke:#2A3F55;stroke-width:0.75;stroke-linecap:round;stroke-linejoin:round;stroke-miterlimit:10;}
	.st168{fill:#2A9FAA;stroke:#2A3F55;stroke-width:0.75;stroke-miterlimit:10;}
	.st169{clip-path:url(#SVGID_22_);enable-background:new    ;}
	.st170{clip-path:url(#SVGID_24_);enable-background:new    ;}
	.st171{clip-path:url(#SVGID_26_);enable-background:new    ;}
	.st172{clip-path:url(#SVGID_28_);enable-background:new    ;}
	.st173{clip-path:url(#SVGID_30_);enable-background:new    ;}
	.st174{clip-path:url(#SVGID_32_);enable-background:new    ;}
	.st175{clip-path:url(#SVGID_34_);enable-background:new    ;}
	.st176{clip-path:url(#SVGID_36_);enable-background:new    ;}
	.st177{clip-path:url(#SVGID_38_);enable-background:new    ;}
	.st178{clip-path:url(#SVGID_40_);enable-background:new    ;}
</style>
<g>
	<g>
		<g>
			<polygon class="st62" points="155,28.7 161.1,28.7 161.2,19.1 154.9,19.1 			"/>
			<path class="st62" d="M164.2,9c-0.2-0.5-0.4-0.9-0.6-1.3c-2.3-3.6-6.2-5.6-9.8-2.5c-1.2,1.1-2.2,2.4-3.1,3.8
				c-0.3,0.4-0.4,1-0.8,1.4c-0.4,0.4-0.7,0.3-1.1,0.5c-0.1,0.1-0.2,0.1-0.3,0.2c0,1.1,0.1,2.2,0.2,3.3c0.5,0.3,1.1,0.7,1.5,1.1
				c0.1,0.1,0.2,0.2,0.3,0.3c0.4,0.1,0.8,0,0.8,0c1.8,6,6.5,5.8,6.5,5.8c3.2,0.3,5.2-1.7,6-4.6C164.6,14.8,165.1,11.5,164.2,9z"/>
			<g>
				<g>
					<path class="st92" d="M155.3,15.1c-0.6,0-1.2-0.2-1.6-0.5c-0.5-0.4-0.9-0.9-0.9-1.5c-0.1-0.6,0.2-1.2,0.7-1.7
						c0.5-0.5,1.1-0.7,1.8-0.8c1.5-0.1,2.7,0.8,2.8,2l0,0c0.1,0.6-0.2,1.2-0.7,1.7c-0.5,0.5-1.1,0.7-1.8,0.8
						C155.5,15.1,155.4,15.1,155.3,15.1z M155.5,11.1c-0.1,0-0.1,0-0.2,0c-0.6,0-1.1,0.3-1.5,0.7c-0.4,0.4-0.5,0.8-0.5,1.3
						c0,0.5,0.3,0.9,0.7,1.2c0.4,0.3,1,0.4,1.6,0.4c0.6,0,1.1-0.3,1.5-0.7c0.4-0.4,0.5-0.8,0.5-1.3l0,0
						C157.4,11.8,156.5,11.1,155.5,11.1z"/>
				</g>
				<g>
					<path class="st92" d="M162.7,14.6c-0.6,0-1.2-0.2-1.6-0.5c-0.5-0.4-0.9-0.9-0.9-1.5c-0.1-0.6,0.2-1.2,0.7-1.7
						c0.5-0.5,1.1-0.7,1.8-0.8c0.7-0.1,1.4,0.1,1.9,0.5c0.5,0.4,0.9,0.9,0.9,1.5c0.1,0.6-0.2,1.2-0.7,1.7c-0.5,0.5-1.1,0.7-1.8,0.8
						C162.9,14.6,162.8,14.6,162.7,14.6z M162.9,10.6c-0.1,0-0.1,0-0.2,0c-0.6,0-1.1,0.3-1.5,0.7c-0.4,0.4-0.5,0.8-0.5,1.3
						c0,0.5,0.3,0.9,0.7,1.2c0.4,0.3,1,0.4,1.6,0.4c0.6,0,1.1-0.3,1.5-0.7c0.4-0.4,0.5-0.8,0.5-1.3v0c0-0.5-0.3-0.9-0.7-1.2
						C163.8,10.7,163.4,10.6,162.9,10.6z"/>
				</g>
				<g>
					<path class="st92" d="M154.3,15.1c-0.6,0-1.2-0.2-1.6-0.5c-0.5-0.4-0.9-0.9-0.9-1.5c-0.1-0.6,0.2-1.2,0.7-1.7
						c0.5-0.5,1.1-0.7,1.8-0.8c0.3,0,0.6,0,0.8,0c0.1,0,0.2,0.2,0.2,0.3c0,0.1-0.2,0.2-0.3,0.2c-0.2,0-0.5-0.1-0.7,0
						c-0.6,0-1.1,0.3-1.5,0.7c-0.4,0.4-0.5,0.8-0.5,1.3c0,0.5,0.3,0.9,0.7,1.2c0.4,0.3,1,0.4,1.6,0.4c0.1,0,0.3,0.1,0.3,0.2
						c0,0.1-0.1,0.3-0.2,0.3C154.4,15.1,154.3,15.1,154.3,15.1z"/>
				</g>
				<g>
					<path class="st92" d="M162,14.6c-1.3,0-2.7-0.7-2.8-2c-0.1-1.2,1-2.4,2.4-2.5l0.1,0c0.2,0,0.3,0,0.5,0c0.1,0,0.2,0.2,0.2,0.3
						c0,0.1-0.2,0.2-0.3,0.2c-0.2,0-0.2,0-0.3,0l-0.1,0c-1.2,0.1-2,1-2,1.9c0.1,0.9,1.2,1.6,2.5,1.5c0.1,0,0.3,0.1,0.3,0.2
						c0,0.1-0.1,0.3-0.2,0.3C162.2,14.6,162.1,14.6,162,14.6z"/>
				</g>
				<g>
					<path class="st92" d="M157.9,13.1l-0.2-0.5c0.2-0.1,2.1-0.7,2.9,0.1l-0.4,0.4C159.8,12.6,158.4,12.9,157.9,13.1z"/>
				</g>
			</g>
			<path class="st63" d="M151.8,17.3c0,0-0.3-0.7-0.8-3.6c-0.5-2.8,2.9-5.6,7.1-6.3c4.1-0.8,6.2,1.5,6.4,2.5c0.2,0.9,0.7-0.3,0-1.7
				c-0.7-1.4-1.8-7-8.5-6.3c-6.7,0.8-9,6.4-8.6,10C147.7,15.4,150.6,17.1,151.8,17.3z"/>
			<g>
				<path class="st92" d="M152.1,12.3c0,0-4.7,0.9-4.5,1.2c0.1,0.4,0.1,0.9,0.6,0.8c0.5-0.2,3.8-1.2,3.8-1.2L152.1,12.3z"/>
			</g>
		</g>
		<path class="st62" d="M164.7,24.7c0.5,0,5.2,1.8,10,7.3c4.8,5.5,2.6,6.5,0,6.4c-2.6-0.1-12.6-3.2-13.2-6.8
			C160.9,27.9,159.7,24.3,164.7,24.7z"/>
		<g>
			<g>
				<g>
					<g>
						<path class="st62" d="M166.1,59.5c-0.3,3.7,1.1-13.8,1.1-24.8c0-6.1-0.8-8.6-2.2-9.7c-0.9-0.8-3.8-1.1-3.8-1.1s0,0.9-3,1
							c-3.1,0.1-3.3-1-3.3-1s-6.7,1.3-9.5,4.8c-4.6,5.1,0.9,23-1.6,29.3C142.6,60.9,155.2,73.5,166.1,59.5z"/>
					</g>
				</g>
			</g>
			<path class="st62" d="M167.2,31.5c0,0,0.1,4.4,0.1,5.4c0,0,0.7,3.7-5.3,3.4"/>
			<path class="st62" d="M159.9,38.2c0,0,0.3,1.9-0.8,2.7s-6.6,1.6-8.6,0.7"/>
		</g>
		<g>
			<path class="st62" d="M160.3,120.8c-0.8-0.4-2.4-0.9-3.6-2.2c-1.1-1.3-3.7-3-4.4-4.5c2.2-12.1,2.4-24.4,2.5-28.6
				c3.8-7,3.1-20.6,3.1-20.6s0,0,0,0c0.3-3.3-1.6-6.5-4.9-7.7c-3.9-1.5-8.4,0.3-9.9,4.2c-2,3.1,0.7,17.1,4.5,23.7
				c-0.7,0.6-1.4,1.3-2.2,2.3c-3.4,4.4-0.9,14.7,1,21l0,0c0.1,0.2,0.6,3.2,0,4.7c-0.6,1.6-3.3,3.6-1.5,5.3c1.8,1.7,2,0.7,3.8,2.3
				c1.7,1.6,6.8,3.6,9.5,2.3C161,121.5,161,121.2,160.3,120.8z"/>
			<path class="st62" d="M174.8,120.1c0,0-1.2-1-2.5-2.2c-1.3-1.2-3.7-2.9-4.5-4.4c0.9-12.3-0.2-24.5-0.6-28.7
				c3-7.3,0.9-20.8,0.9-20.8s0,0,0,0c-0.1-3.3-2.3-6.3-5.7-7.2c-4.1-1.1-8.3,1.2-9.4,5.2c-1.6,3.3,2.5,16.9,7,23.1
				c-0.6,0.6-1.3,1.5-1.9,2.5c-2.9,4.7,0.6,14.7,3.2,20.8l0,0c0.1,0.2,1,3.1,0.5,4.7c-0.5,1.6-2.9,3.9-0.9,5.4c2,1.5,2.3-0.5,4,1.9
				c1.7,2.4,5.9,3.4,8.5,1.8C175.9,120.4,174.8,120.1,174.8,120.1z"/>
			<g>
				<path class="st59" d="M144.3,55.6c0,0,20.5,1.6,22.2-1.6c0,0,3.3,12.3,2.7,17.4c-0.5,5.1-0.5,5.1-0.5,5.1s-9.4,3.9-10.8,4.1
					l-1.1-1.1l-0.3,1.1c0,0-11.3,1.1-12.2,0C143.4,79.5,139.3,65.3,144.3,55.6z"/>
				<path class="st56" d="M156.6,80.7c1-4.8,1.8-9.6,0.5-14.4"/>
				<path class="st56" d="M162.6,64.3c0,0-3.3,5.6-4.8,6"/>
			</g>
		</g>
		<g>
			<g>
				<path class="st62" d="M141.9,31.2c-1.7,1.3-9,7.6-10.1,9.6c-1.1,2,3,14.2,6.9,19.4c0,0,1.3,3,4.6,4.3c0,0,1.5,0,2.8,0.9
					c1.3,0.9,3.5,1.2,2.6,0c0,0,2.1,1.2,1.7,0c0,0,1.9,0.4,1.1-0.6c0,0-2.1-3.4-4.7-3.9c0,0,2.3,0.3,2.9,0.6
					c0.7,0.3,2.4,1.1,2.3,0.4c-0.2-0.6-2.7-2-3.2-2.2c-0.5-0.2-4.8-0.5-5.2-0.9c-0.4-0.4-4.4-13.8-2.9-15.3c1.4-1.6,5.6-3.6,7.6-5.5
					c2.1-1.9,4.6-5.7,1.7-9C147.1,25.8,143.6,29.9,141.9,31.2z"/>
				<path class="st62" d="M148.7,65.5c0,0-2.1-2.1-3.2-2.4"/>
				<path class="st62" d="M150.4,65.5c0,0-2.3-3-4.1-3.8"/>
			</g>
			<path class="st62" d="M143.5,41.6c0.2-0.1,6.4-3.4,7.4-6.8"/>
		</g>
	</g>
	<g>
		<g>
			<g>
				<path class="st62" d="M74.5,57.1C74.5,57.1,74.5,57.1,74.5,57.1c0,0,16.5,14.6,16.6,24.6c0.1,10.1-30.9-7.9-32.5-14.5
					c-2.2-4.8-0.1-10.4,4.7-12.6C67.3,52.8,71.8,53.9,74.5,57.1z"/>
			</g>
			<g>
				<path class="st59" d="M81.8,88.3c-0.1-0.2-3.3-5.4-1-6.8c2.3-1.4,10.4-5.7,10.8-1s-1.6,8.7-2.5,9C88.2,89.9,81.8,88.3,81.8,88.3
					z"/>
				<path class="st61" d="M80.8,86.5c0.5-2.9,5.9-7.1,8.2-3.9c2.8,3.9,2.1,3.3,1,7.2c-1.1,3.9-2.9,10.2-4.1,11.5
					c-1.2,1.3-5.2-0.1-5.1-2.2c0.2-2.7,1.1-5.4,1.1-8.1c0-1.5-1.2-2.8-1-4.3C80.8,86.7,80.8,86.6,80.8,86.5z"/>
				<g>
					<path class="st59" d="M89.3,120.9c0,0-0.4,1.3-1,1.6c-0.6,0.3-5.2,1.2-6.8-0.4c-1.6-1.7-0.5-1.7-0.1-1.5
						C81.8,120.9,89.4,120.3,89.3,120.9z"/>
					<g>
						<path class="st61" d="M71.6,114.7c-1.1-1.2-1.6-2.6-1.5-4.1c0.1-1.7,1.1-3.3,2.8-4.5c2-1.4,4.1-3.4,5-5.6l1.6-8.9l2.5,0.6
							c0,0-1.5,8.5-1.5,8.6c-1.1,2.6-4.1,5.4-6.3,7.1c-1.1,0.8-1.8,1.9-1.9,3c-0.1,0.9,0.3,1.8,1,2.6c1.1,1.2,2.4,2.3,3.7,3.3
							c1.6,1.2,3.3,2.3,5.2,2.9c1.8,0.6,3.9,0.9,5.7,0.2c0.5-0.2,1.1-0.5,1.6-0.1c0.5,0.4,0.5,1,0.2,1.5c-0.4,0.6-1.3,0.7-1.9,0.9
							c-0.5,0.1-1,0.2-1.5,0.3c-1,0.1-2,0-3-0.2c-2-0.4-3.8-1.2-5.5-2.3c-1.6-1-3-2.1-4.4-3.3C72.8,115.9,72.2,115.4,71.6,114.7
							C71.6,114.8,71.6,114.7,71.6,114.7z"/>
					</g>
				</g>
				<path class="st59" d="M90,89.8c-0.4-0.1-3.4-1.9-4.1-0.6c-0.7,1.2,0.7,2,2.1,2.5c1.4,0.5,1.4,0.5,1.4,0.5L90,89.8z"/>
				<path class="st59" d="M88.8,94c0,0-2.3-1.2-3.1-0.8c-0.7,0.5-0.7,1.6,0.5,2c1.2,0.5,2,0.7,2,0.7L88.8,94z"/>
			</g>
		</g>
		<g>
			<path class="st62" d="M84.7,9.7c1.1,0.5,1.8,1.6,2.1,2.7c0.4,1.3-0.2,3.1,0.6,4.2c0.3,0.5,1.1,0.5,1.6,0.6
				c2.4,0.5,3.3,0.8,2.9,1.2c-0.4,0.4-4.5,1.2-4.9,1.9c-0.4,0.7-1,4.1-1.5,4.6c-0.5,0.5-3-0.2-3.5,0.3c-0.5,0.5-1.3,3.2-1.3,3.2
				l-6.3-0.6c0,0,2.6-6.3,1.7-8.3c-0.9-2.1,0.2-3.2,0.5-5.4c0.6-3.6,3.8-5.1,7.3-4.5C84.3,9.5,84.5,9.6,84.7,9.7z"/>
			<path class="st61" d="M92.3,5c-1.4-0.9-3.5-1.2-7.1,0.7c-2.3,1.3-5.1,1-7.6,1.5c-3.2,0.7-5,3-4.9,6.3c0.1,2.3,0.6,5,1.4,7.1
				c0.5,1.3,2,3.1,3.6,2.2c1.1-0.6,1.6-2.2,1.3-3.4c-0.3-1.4-1.9-2-1.4-3.7c0.1-0.3,0.3-0.7,0.6-0.8c0.7-0.3,0.9,0.7,1.1,1.1
				c0.2,0.4,0.6,2.3,1.2,2.3c2.4,0,1.3-4,2.2-5.3c0.8-1.1,2.8-1.4,4-1.7c1.6-0.4,3.3-0.6,4.8-1.5c0.7-0.4,1.4-1.1,1.7-1.9
				C93.7,6.9,93.3,5.7,92.3,5z"/>
		</g>
		<path class="st62" d="M77.1,26.2c-2-0.9-4.2-1-6.3-1.6c-2.6-0.7-6.9-1.6-10.1-1.1c-0.6,0-1.4,0-2.3,0.2c-2.5,0.5-5.8,3.7-7.8,6.1
			c0,0,0,0,0,0s0,0-0.1,0.1c-0.4,0.5-0.8,0.9-1.1,1.3c-0.9,1-2.2,2.3-3.5,3.2c-2.5,1.6-3.1,4.4-3.3,6c-0.1,0.4,0,0.7,0,0.9
			c0.2,0.7,0.7,0.8,0.7,0.8c-0.1,1.7,1.5,1.2,1.5,1.2c0.1,1.8,1.7,1.5,1.7,1.5c0.2,0.6,0.9,0.7,1.4,0.4c0.9-0.5,1.6-1.9,1.6-1.9
			s0.5,0.1,1.8,0c1.4-0.1-0.7-6.1-0.6-6.5c0,0,2.5-1.7,3.6-2.5c1.8-0.9,4.1-2.1,5.4-3.5c0.4-0.4,0.7-0.9,1-1.3
			c2.6,1.1,10.6,4.1,14.3,4.3c1,0.1,2.6-0.8,3.6-1.2C82.2,31.2,79.3,27.2,77.1,26.2z"/>
		<g>
			<path class="st62" d="M70.4,70.4C70.4,70.4,70.4,70.4,70.4,70.4c0,0-12.3,18.3-22.3,19.6c-10,1.4,3.9-31.7,10.3-34.1
				c4.5-2.8,10.3-1.4,13.1,3C73.7,62.7,73.2,67.3,70.4,70.4z"/>
			<path class="st139" d="M69.8,71.3c0,0-1.8,2.7-4.6,5.9"/>
			<g>
				<path class="st59" d="M41.7,87c0.1-0.2,2.1-6,4.6-5.1c2.5,0.9,11.1,4.4,7.7,7.7c-3.4,3.3-7.7,4.3-8.6,3.9
					C44.7,93,41.7,87,41.7,87z"/>
				<path class="st61" d="M42.5,85.2c2.5-1.4,9.2,0,8.3,3.8c-1.2,4.7-1.2,3.7-4.9,5.3c-3.7,1.6-9.7,4.3-11.5,4.2
					c-1.8-0.1-3.3-4.1-1.6-5.3c2.2-1.6,4.8-2.6,6.9-4.4c1.1-1,1.4-2.7,2.6-3.6C42.4,85.2,42.5,85.2,42.5,85.2z"/>
				<g>
					<path class="st59" d="M21.5,113.7c0,0-1.2,0.5-1.9,0.3c-0.7-0.3-4.3-3.2-4-5.5s1-1.5,1.1-1.1C16.8,107.9,22,113.4,21.5,113.7z"
						/>
					<g>
						<path class="st61" d="M14.9,96.1c0.2-1.6,1-2.9,2.2-3.8c1.4-1,3.3-1.3,5.3-0.8c2.3,0.6,5.3,1,7.5,0.2l7.9-4.5l1.1,2.3
							c0,0-7.5,4.3-7.6,4.3c-2.7,0.9-6.8,0.4-9.5-0.3c-1.4-0.3-2.6-0.2-3.5,0.5c-0.8,0.5-1.2,1.4-1.3,2.4c-0.2,1.6-0.2,3.3-0.2,4.9
							c0.1,2,0.4,4,1.1,5.9c0.7,1.8,1.8,3.6,3.5,4.5c0.5,0.2,1.1,0.6,1.1,1.2c0.1,0.6-0.5,1-1,1.1c-0.7,0.1-1.4-0.5-1.9-0.9
							c-0.4-0.3-0.8-0.6-1.1-1c-0.7-0.7-1.3-1.5-1.8-2.4c-1-1.7-1.5-3.7-1.8-5.7c-0.3-1.8-0.3-3.7-0.3-5.5c0-0.8,0.1-1.6,0.2-2.3
							C14.9,96.2,14.9,96.2,14.9,96.1z"/>
					</g>
				</g>
				<path class="st59" d="M45.9,94.3c-0.2-0.4-0.8-3.8-2.2-3.6c-1.4,0.3-1.1,1.8-0.6,3.2c0.5,1.4,0.5,1.4,0.5,1.4L45.9,94.3z"/>
				<path class="st59" d="M41.8,96.1c0,0-0.6-2.6-1.4-2.9c-0.8-0.3-1.7,0.5-1.3,1.7c0.4,1.2,0.7,2,0.7,2L41.8,96.1z"/>
			</g>
		</g>
		<g>
			<path class="st63" d="M57.7,53.4c0,0-5.9,9.5-7.8,12.9c-2,3.4,1,3.4,3,5c1.9,1.7,9.5,9,11.5,8.8c2-0.2,2.8-2.4,2.8-2.4
				s1.9,2.5,2.6,2.4c0.7-0.1,16.1-11,15.2-12.9c-0.9-1.9-9-10.6-9.2-11.4C75.6,54.9,57.7,53.4,57.7,53.4z"/>
		</g>
		<path class="st59" d="M75.8,24.5c0-0.1-5.5-1.5-8.9,4.3c-3.4,5.8-1.6,14.9-4.5,18.2c-2.8,3.3-6.7,6.8-4.7,6.4
			c2-0.4,17.7,6.3,19.6,5.6c1.9-0.7,8.9-18.7,7.5-25c-1.4-6.4-5.1-6.8-5.1-6.8S76.5,26.3,75.8,24.5z"/>
		<path class="st62" d="M104.3,28.5c-0.4-1.8-1.2-1.3-1.2-1.3c0.3-0.2,0.2-0.7,0.2-1c0-0.2-0.1-0.3-0.2-0.4
			c-0.1-0.1-0.6-0.3-0.6-0.3c0,0-0.5-1.6-1.1-1.4c0.2-0.1-0.2-0.6-0.3-0.6c-0.2-0.2-0.4-0.6-0.7-0.6c-0.3,0-0.5,0.3-0.6,0.5
			c-0.1,0.1-0.2,0.6-0.4,0.6c0,0-1.3,0.2-2.1,1.2c-0.8,1.1-1.6,3.5-1.3,4.3c0.3,0.8-0.9,3.3-0.9,3.3c-0.1,0.3-4.4,6.2-6.5,8
			c0,0,0,0,0,0c-0.3-0.7-0.5-1.2-0.6-1.5c-0.7-1.5-3.9-6.7-7.1-9.7C79.9,29,79,28.2,78,27.8c-3.8-1.4-4.2,3.8-3,6.1
			c1,2.1,2.8,3.7,4,5.6c1.8,2.7,5.4,7.2,8.8,8.5c0.6,0.5,1.5,0.6,2.6,0.1c3.3-1.4,8.4-11.7,9.1-13.1c0,0,0.1,0,0.1-0.1
			C100.1,34.4,104.6,30.4,104.3,28.5z"/>
	</g>
	<g>
		<g>
			<path class="st89" d="M599.7,61.4c0.2-0.9-0.5-2.6-0.7-3.5c-0.9-3.5-4.9-1.2-6,0.8c-1,1.8-1.3,3.9-2.1,5.8
				c-1.3,3.1-3,8.8-1.6,11.8c1,2.1,4-0.4,4.6-1.4C594.7,73.7,599.1,65.2,599.7,61.4z"/>
			<path class="st89" d="M593.1,72.5c0,0.5,1.2,2.1,1.2,5.5c0,3.4-2.8,8.5-2.7,8.8c0,0.3-4-0.7-4-0.7s-0.9-9,1.5-12.1
				S593.2,71.4,593.1,72.5z"/>
			<g>
				<path class="st89" d="M591.9,87.9c0.2,0.4,5.5,3.3,4.6,4.2c-0.9,0.9-1.3,1.2-1.3,1.2s0.4,1.4,0.1,2.3c-0.2,0.5-0.7,0.9-1.3,0.6
					c0,0-0.9,1.2-2.1,0c0,0-0.8,1.3-1.8,0.1c0,0-0.4,0.3-1-0.1c-0.2-0.1-0.4-0.3-0.6-0.6c-0.8-1.3-2.2-3.6-1.5-6.3
					c0.7-2.7,0.4-6.1,0.4-6.1s5.8-0.4,5.6,0.1C592.8,83.7,591.9,87.9,591.9,87.9z"/>
				<path class="st140" d="M595.1,93.3c-0.2,0.2-2.9,1-3.1,0.4c-0.2-0.6,1.2-1.4,1.4-1.6c0.2-0.1,0,0.2-1.1-0.6"/>
				<line class="st140" x1="594" y1="96.2" x2="593.2" y2="93.8"/>
				<path class="st140" d="M591.9,96.2c0,0-0.9-2.8-0.7-3.3c0.2-0.5,0.3-0.9,1.4-0.2"/>
				<path class="st140" d="M590.1,96.3c0,0-0.9-3.3-0.3-3.9c0.6-0.6,1.4,0,1.4,0"/>
				<path class="st140" d="M588.7,94.9c0,0-0.9-2.8,1-2.5"/>
			</g>
		</g>
		<g>
			
				<ellipse transform="matrix(0.983 -0.1838 0.1838 0.983 -8.3432 110.5571)" class="st141" cx="592.1" cy="100.3" rx="14.3" ry="16.2"/>
			
				<ellipse transform="matrix(0.983 -0.1839 0.1839 0.983 -8.343 110.5682)" class="st142" cx="592.1" cy="100.3" rx="16.1" ry="18.2"/>
			<line class="st142" x1="602.7" y1="87" x2="581.4" y2="113"/>
			<line class="st142" x1="604" y1="112.7" x2="580.1" y2="87.4"/>
			
				<ellipse transform="matrix(0.983 -0.1839 0.1839 0.983 -8.3428 110.5754)" class="st57" cx="592.1" cy="100.3" rx="9.5" ry="10.8"/>
			<path class="st57" d="M589,100.9c0.4,1.9,2.1,3.2,3.8,2.9c1.7-0.4,2.8-2.2,2.4-4.2c-0.4-1.9-2.1-3.2-3.8-2.9
				C589.7,97.1,588.6,99,589,100.9z"/>
			<path class="st91" d="M589.5,100.8c0.3,1.7,1.8,2.8,3.3,2.5c1.5-0.3,2.4-1.9,2-3.5c-0.3-1.7-1.8-2.8-3.3-2.5
				C590,97.6,589.1,99.2,589.5,100.8z"/>
			<path class="st2" d="M590.5,100.6c0.2,1,1.1,1.7,2,1.5c0.9-0.2,1.4-1.1,1.2-2.1c-0.2-1-1.1-1.7-2-1.5
				C590.9,98.6,590.3,99.6,590.5,100.6z"/>
		</g>
		<path class="st61" d="M572.2,93.9c0,0-4.9,12.5-1.6,13.7c3.2,1.2,6.6-2.6,8.5-3.7c2-1,44.6-3.2,44.6-3.2l-1.6,0.7
			c0,0-9.9,0.8-11.3,1.1c-1.4,0.3-1.2,1.5-0.2,1.4c1-0.1,13.8-1.4,13.8-1.4l7.1-2c0,0,8.2-0.2,9.5,0.7c1.3,1,16.7,7.6,16.7,7.6
			l1.2-2.5l-15.2-6.3c0,0-7.9-8.2-9.2-8.2c-1.2,0-1.8,0.8-1.8,0.8c-4.8,0.2-9.6,0.5-14.4,0.7c-0.8,0-1.6,0.1-2.5,0.1
			c-1,0-2.3-0.1-3,0.6c-0.8,0.7-0.4,1.4,0.5,1.6c2.1,0.5,17.3-0.6,17.3-0.6l-0.7,1.2l-38.7,1.3C591.2,97.5,576.1,90,572.2,93.9z"/>
		<path class="st59" d="M570.9,74.6c0,0-4.9,7-3.7,14.3c1.2,7.3,10.5,12.1,16,10.1c5.5-2,19.4-8.6,18.3-11.6c-1.1-3-2-1.7-11-4.8
			c-0.6-0.2-2-0.5-2.1-2.1C588.4,78.9,570.9,74.6,570.9,74.6z"/>
		<g>
			<g>
				<path class="st62" d="M604.5,38.6c1,0.5,1.7,1.7,1.9,2.8c0.3,1.3-0.4,3.1,0.4,4.3c0.3,0.5,1.1,0.5,1.6,0.7
					c2.4,0.6,3.3,1,2.8,1.4c-0.4,0.4-4.6,0.9-5,1.6c-0.4,0.6-1.3,4.1-1.8,4.5c-0.5,0.4-2.9-0.4-3.5,0.1c-0.5,0.4-1.5,3.2-1.5,3.2
					l-6.3-1c0,0,3-6.1,2.3-8.2c-0.7-2.1,0.4-3.2,0.9-5.4c0.8-3.5,4.2-4.8,7.6-4.1C604.1,38.4,604.3,38.5,604.5,38.6z"/>
				<path class="st61" d="M604.9,42.3c1.9-0.5,3.8-1.8,1.9-4.7c-1.2-1.8-4.4-1.9-6.4-1.8c-4,0.2-7.7,2-8.1,6.4
					c-0.2,2,0.3,11.2,4.3,9.3c1.2-0.6,1.7-2.1,1.6-3.3c-0.2-1.4-1.7-2.2-1.1-3.8c0.1-0.3,0.3-0.6,0.7-0.7c0.7-0.2,0.9,0.7,1,1.2
					c0.2,0.4,0.5,2.3,1.1,2.3c2.2,0.2,1.2-3.7,1.2-3.7S603,42.9,604.9,42.3z"/>
			</g>
			<path class="st58" d="M595.2,51.6c0-0.1-5-2.7-9.7,2.1c-4.7,4.8-5.1,14.1-8.6,16.6c-3.5,2.5-8.1,5-6.1,5.1
				c2,0.1,15.7,10.3,17.7,10.1c2-0.2,13.1-16,13.2-22.5c0.2-6.5-3.3-7.9-3.3-7.9S595.4,53.6,595.2,51.6z"/>
		</g>
		<path class="st63" d="M568.6,77.1c0,0-4.6,7.9-1.6,13.9c3,6,7.7,9.8,15.4,9c7.7-0.8,17.8-5.3,16.4-7.4s-6.1-6.5-12-7.4
			C581,84.3,570.9,75.8,568.6,77.1z"/>
		<g>
			
				<ellipse transform="matrix(0.2006 -0.9797 0.9797 0.2006 357.3152 639.3914)" class="st141" cx="570.5" cy="100.7" rx="18.2" ry="16.3"/>
			
				<ellipse transform="matrix(0.2007 -0.9797 0.9797 0.2007 357.3075 639.3883)" class="st142" cx="570.5" cy="100.7" rx="20.4" ry="18.2"/>
			<line class="st142" x1="558.4" y1="85.8" x2="582.6" y2="115.1"/>
			<line class="st142" x1="556.9" y1="114.7" x2="584.1" y2="86.2"/>
			
				<ellipse transform="matrix(0.2006 -0.9797 0.9797 0.2006 357.3115 639.3899)" class="st57" cx="570.5" cy="100.7" rx="12.1" ry="10.8"/>
			<path class="st57" d="M574,101.5c-0.4,2.2-2.4,3.6-4.3,3.2c-1.9-0.4-3.2-2.5-2.7-4.7c0.4-2.2,2.4-3.6,4.3-3.2
				C573.2,97.2,574.4,99.3,574,101.5z"/>
			<path class="st91" d="M573.5,101.4c-0.4,1.9-2,3.1-3.7,2.8c-1.7-0.3-2.7-2.1-2.3-4c0.4-1.9,2-3.1,3.7-2.8S573.8,99.5,573.5,101.4
				z"/>
			<path class="st2" d="M572.3,101.1c-0.2,1.1-1.2,1.9-2.2,1.7c-1-0.2-1.6-1.3-1.4-2.4c0.2-1.1,1.2-1.9,2.2-1.7
				C571.9,98.9,572.5,100,572.3,101.1z"/>
		</g>
		<g>
			<path class="st62" d="M586.1,54.4c-1.8,1.4-3.1,3.4-4.7,5c-2.2,2.1-5.4,5.9-6.5,9.3c-0.1,0.1-0.1,0.1-0.2,0.2
				c-2.3,3.1-1.3,16.1-1.3,16.1s5.1-0.3,5-0.6c0-0.3,0.6-7.6,1.7-10.2c0.3-0.9,0.4-1.7,0.4-2.4c2.2-2.1,8.7-9.2,10.8-12.5
				c0.6-0.9,1.2-1.9,1.3-3C593.3,52.2,588.2,52.8,586.1,54.4z"/>
			<path class="st58" d="M579.3,87.6c-0.3-0.3-0.6-1.2-0.7-2c0.3-0.2,0.4-0.5,0.4-0.9c0-0.7-0.5-1.2-1.2-1.2h-4.1
				c-0.7,0-1.2,0.5-1.2,1.2c0,0.4,0.2,0.8,0.6,1c-0.5,1.8-1.6,5.9-0.6,7c1.3,1.4,1.7,0.5,1.7,0.5c-0.1,0.3,0.2,0.8,0.4,1
				c0.1,0.1,0.2,0.2,0.4,0.3c0.1,0,0.6-0.1,0.7-0.1c0,0,1.2,1.2,1.7,0.6c-0.1,0.1,0.5,0.4,0.6,0.4c0.3,0.1,0.6,0.3,0.9,0.1
				c0.3-0.2,0.3-0.5,0.3-0.8c0-0.1-0.1-0.6,0-0.7c0,0,1.1-0.8,1.2-2.1C580.5,90.6,580,88.1,579.3,87.6z"/>
		</g>
		<g>
			<g>
				<path class="st63" d="M607.5,39.7c-0.7,0-7.4-0.2-9,0.1s-6.8,4.1-6.8,4.1c0,1.5,1.9,1.3,2.3,1.4c0.5,0,3,3,3.5,3.4
					c0.5,0.4,3,5.6,3.5,5.8c0.5,0.2,1.6-0.5,1.6-0.5s-1.8-1.7-2.6-3.9c-0.8-2.2-0.3-5.4-0.2-6.3c0.1-0.9,2.7-1.3,4.2-1.5
					c1.5-0.3,2.3-0.3,2.9-0.3S608.2,39.7,607.5,39.7z M598.7,48.2l-4.3-4.8c0,0,3.6-2.8,3.8-2.8s0.4,0.2,0.4,1.6
					C598.7,42.4,598.7,48.2,598.7,48.2z"/>
			</g>
			<path class="st63" d="M588.9,37.5c0,0,4.2-3.9,8.3-4.6c4.1-0.7,9.9-0.1,11.7,5.9c0,0-0.7,1.2-1.4,1.4c-0.7,0.2-6.3-1-8.3,0.3
				c-2,1.4-5.5,3.7-6.3,3.6c-0.8-0.1-3.4-0.2-2.9-1.2c0.5-1,1.4-1.6,0.6-1.9c-0.9-0.3-2.3-0.5-1.2-1.2
				C590.5,39.1,587.8,38,588.9,37.5z"/>
			<path class="st61" d="M596.9,36.8c0,0,4.1-1.8,8.7,0.4c0,0,0.8,0.7-1.3,0.9c-2.1,0.1-7.3-0.5-7.7-1.1"/>
			<path class="st61" d="M588.7,38.1c0,0,3-2.7,6.5-2.6c3.6,0-4.1,0.8-6,3.3L588.7,38.1z"/>
			<path class="st61" d="M590.6,39.3c0.3,0,3.4-1.6,6.8-0.6c3.4,1-5.1,1.2-6,1.6C590.4,40.7,589.5,39.6,590.6,39.3z"/>
			<path class="st61" d="M596,34.3c0,0,8-1.4,12.8,4.5c0,0-4.1-7.7-13.1-4.6"/>
		</g>
		<g>
			
				<ellipse transform="matrix(0.2321 -0.9727 0.9727 0.2321 401.058 721.4125)" class="st141" cx="657.4" cy="106.7" rx="12.4" ry="12.4"/>
			<circle class="st142" cx="657.4" cy="106.7" r="14.3"/>
			<line class="st57" x1="653.7" y1="92.7" x2="660.4" y2="120.7"/>
			<line class="st57" x1="671.1" y1="102.5" x2="643.7" y2="110.9"/>
			<path class="st57" d="M663.7,93.9c-0.1,0-12.3,25.8-12.3,25.8"/>
			<line class="st57" x1="645.8" y1="98.3" x2="669" y2="115.1"/>
			<path class="st57" d="M660.6,106.6c0,1.7-1.4,3.1-3.1,3.1s-3.1-1.4-3.1-3.1c0-1.7,1.4-3.1,3.1-3.1S660.6,104.9,660.6,106.6z"/>
			<circle class="st91" cx="657.6" cy="106.6" r="2.7"/>
			<path class="st2" d="M658.9,106.6c0,0.7-0.6,1.3-1.3,1.3s-1.3-0.6-1.3-1.3c0-0.7,0.6-1.3,1.3-1.3S658.9,105.9,658.9,106.6z"/>
		</g>
	</g>
	<g>
		<g>
			<g>
				<path class="st62" d="M245.4,37.8c2.4,3.8,7,2.1,8,0.8c1-1.4-0.1-8.2-0.3-10.1c-0.2-1.8-2-3.1-2-3.1c-2.7,3-8.8-2.7-8,8.8
					c0,0-0.7-3-2.3-2.2c-1.6,0.8-0.2,3.8,1.4,4l0.7,9.3l7.2-0.4l-0.3-4.7"/>
				<path class="st62" d="M250.8,29.5c0,0,1.8,3.3,4.4,3.8c2.6,0.5-3.1,1.2-3.3,1.6"/>
			</g>
			<path class="st61" d="M243.7,22.3c4.2-0.7,15-0.7,13.9,3.1c-1.4,4.5-8.2,2.5-8.2,2.5s-5.7-1.4-4.6,0.7c1.1,2.1-0.1,4.7-0.5,6.1
				c-0.2,0.8-1.2,0.5-1.4-0.1c-0.2-0.7-1-2.9-2-2.2c-0.3,0.2-0.4,0.7-0.4,1.1c0,0.4,0.1,0.8,0.3,1.1c0.3,0.6,1,1.3,1.7,1
				c0.1,0.6,0.2,1.3,0.2,1.9c0,0.4,0,1.2-0.6,1.3c-1.1,0.2-2.1-1.9-2.4-2.7c-1-2.1-1.5-4.8-1.6-7.2c0-2.1,0.7-4,2.9-4.4
				c0,0,0.2-0.6,0.2-0.6c0.2-0.5,0.6-1,1.2-1.2C242.6,22.5,243.1,22.4,243.7,22.3z"/>
		</g>
		<g>
			<path class="st62" d="M267.8,68.6c0.4-0.3,0.7-0.7,0.5-1.1c-0.4-1.1-1.4-0.7-1.4-0.7l0,0c0-0.2,0.1-0.4,0.1-0.7
				c0.2-1.1-5-0.5-5.4-0.6c0,0-1.5-3.4-1.6-3.9c0-0.1-0.2,0-0.5,0.1c-0.4-1.7-1.1-3.9-2.1-5.2c-1.8-2.4-3.4-2.8-3.7-3.2
				c-0.5-0.9-2.1-0.3-2.1,3.1c-0.1,3.4,5.2,9.3,5.2,9.3s0,0,0.1-0.1c0.6,0.9,1.4,2.1,1.9,3.3c0.3,0.7,0.7,1.3,1.1,1.7l-0.5,0.3
				c-0.5,0.1,0.4,1.4,0.7,1.3c0.1,0,0.7-0.3,1.1-0.6c0.7,0.4,1.3,0.7,1.8,0.9c0.3,0.1,0.6,0.2,0.8,0.2c0.6,0,0.8-0.4,0.8-0.4
				c1.3,0.4,1.2-1,1.2-1c1.5,0.2,1.5-1.1,1.5-1.1c0.6-0.1,0.7-0.6,0.6-1.1C268,69,267.9,68.8,267.8,68.6z"/>
			<path class="st58" d="M257.6,55.4c0,0,0.3-14.7-4.7-14.2c-5,0.5-7,15.8-7,15.8S257.6,57,257.6,55.4z"/>
			<g>
				<polyline class="st143" points="268.9,115.1 259,69.2 250.3,60.8 				"/>
				<path class="st59" d="M250.1,63l-0.6-0.6c-0.6-0.6-0.7-1.6-0.1-2.3l0,0c0.6-0.6,1.6-0.7,2.3-0.1l0.6,0.6
					c0.6,0.6,0.7,1.6,0.1,2.3l0,0C251.7,63.6,250.7,63.6,250.1,63z"/>
				<path class="st59" d="M258.2,58.2l-3.7,3.3c-0.7,0.6-1.7,0.5-2.2-0.1l-1.7-1.9c-0.6-0.7-0.5-1.7,0.1-2.2l3.7-3.3
					c0.7-0.6,1.7-0.5,2.2,0.1l1.7,1.9C259,56.6,258.9,57.6,258.2,58.2z"/>
				<path class="st59" d="M257.9,72.4l-0.2-0.8c-0.2-0.8,0.3-1.7,1.1-1.9l0,0c0.8-0.2,1.7,0.3,1.9,1.1l0.2,0.8
					c0.2,0.8-0.3,1.7-1.1,1.9l0,0C259,73.7,258.1,73.2,257.9,72.4z"/>
				<path class="st59" d="M267.3,115.4l-0.2-0.8c-0.2-0.9,0.4-1.7,1.3-1.9l0,0c0.9-0.2,1.7,0.4,1.9,1.3l0.2,0.8
					c0.2,0.9-0.4,1.7-1.3,1.9l0,0C268.3,116.8,267.5,116.3,267.3,115.4z"/>
				<path class="st59" d="M266,108.3l-0.1-0.4c-0.1-0.6,0.3-1.2,0.9-1.3l0.6-0.1c0.6-0.1,1.2,0.3,1.3,0.9l0.1,0.4
					c0.1,0.6-0.3,1.2-0.9,1.3l-0.6,0.1C266.7,109.3,266.1,108.9,266,108.3z"/>
			</g>
		</g>
		<g>
			<path class="st63" d="M259.2,95c0,0-4.6-0.4-5.2-1.4c-0.2-4.8-6-22.6-2.9-23.6c3.2-1,13.4-3.5,14.7,2.8c0,0,4.8,10.2,1,22
				C265.8,95.6,259.2,95,259.2,95z"/>
		</g>
		<g>
			<g>
				<path class="st124" d="M265.1,69.6c0,0-5.1-10.5-7.6-19.8c-1.5-5.6-2.8-7.6-4.3-8.3c-1-0.5-2.8-0.5-2.8-0.5s-0.7,1.2-3.5,2
					c-2.8,0.9-4,0.3-4,0.3s-5.1,2.3-6.8,6.2c-3,5.8,1.3,21.7,1.6,24.7C237.9,77.2,259,87.3,265.1,69.6z"/>
			</g>
			<path class="st56" d="M243.7,44.3c0,0,2.7,4.1,3,4.2c0.3,0.1,1.5-5.5,1.5-5.5l3.9,3.5l-0.7-5.3"/>
			<path class="st32" d="M249.2,45.4c0.2,0,0.4,0.2,0.5,0.4c0,0.2-0.2,0.4-0.4,0.4c-0.2,0-0.4-0.2-0.5-0.4
				C248.8,45.6,249,45.4,249.2,45.4z"/>
			<path class="st32" d="M250,48c0.2,0,0.4,0.2,0.5,0.4c0,0.2-0.2,0.4-0.4,0.4c-0.2,0-0.4-0.2-0.5-0.4C249.5,48.2,249.7,48,250,48z"
				/>
		</g>
		<g>
			<path class="st62" d="M246.4,75.5c0,0,20.5-2.2,27-0.7c6.5,1.5,12.9,26.4,12.9,26.4s-2.7,2.7-4.3,2.8c-1.6,0.1-12.6-13.4-12-20.7
				c-4.6,0.7-22,6.9-26.1,2.9C239.7,82.1,240.4,77.8,246.4,75.5z"/>
			<g>
				<path class="st144" d="M297,96.3c0,0,3.2,1-5.1,9.3c-8.3,8.4-8.8,0.9-8.8,0.9s11.1-10.3,13.7-10.1"/>
				<path class="st61" d="M281.8,105.5c0.1,0.5,0.3,0.9,0.6,1.5c0.6,1,1.9,3.1,3.4,2.3c0,0,10.9-12.1,11-12.2
					c0.6-0.6-0.1-1.1-0.7-1.3c-0.8-0.3-1.8-0.1-2.6,0.1c-1,0.3-1.9,0.9-2.9,1.3c-1.1,0.5-2.1,1-3.1,1.6c-1.6,0.9-3.2,1.8-4.4,3.2
					c-0.6,0.7-1.1,1.6-1.3,2.6C281.8,104.9,281.8,105.2,281.8,105.5z"/>
			</g>
			<path class="st63" d="M246.3,74.8c6-3.7,27-1.2,27.4-0.9c0.2,0.1-0.9,0.9-1,0.9c-1.8,1.4-2.9,3.5-3.4,5.7c-0.1,0.5-0.5,6-0.5,6
				c-5.5,0.7-20.7,6.7-25.5,0.7c-3-4-3.2-10.7-3.2-10.7S240.5,77.7,246.3,74.8z"/>
		</g>
		<g>
			<path class="st91" d="M229.4,77l6.6-3l0.7,1.5c0,0-6.1,3.7-6.6,3.4C229.6,78.7,229.4,77,229.4,77z"/>
			<path class="st62" d="M238.8,54.7c0.9-0.6,1.8-1.3,2.4-2.2c2.2-3.4-2.7-5-5.2-4.4c-2.3,0.5-4.2,1.8-6.4,2.6
				c-3.1,1.1-8.2,3.6-10.3,6.5c-0.6,0.5-1,1.3-0.7,2.5c0.6,3.6,9.4,10.9,10.6,11.9c0,0,0,0.1,0.1,0.1c0.4,0.6,3.3,5.9,5.1,6
				c1.9,0.1,1.5-0.8,1.5-0.8c0.1,0.3,0.7,0.4,1,0.4c0.2,0,0.3,0,0.5-0.1c0.1-0.1,0.4-0.5,0.4-0.5c0,0,1.7-0.1,1.6-0.8
				c0,0.2,0.6-0.1,0.7-0.1c0.3-0.1,0.6-0.2,0.7-0.6c0.1-0.3-0.2-0.5-0.4-0.7c-0.1-0.1-0.5-0.4-0.5-0.5c0,0,0-0.1,0-0.2l1.3-0.7
				c0,0-0.1-1.1-0.7-1.3c-0.2-0.1-0.6,0-1.1,0.2c-0.1-0.1-0.2-0.2-0.2-0.4c-0.8-1-3-2.4-3.9-2.3c-0.8,0.1-3-1.6-3-1.6
				c-0.2-0.2-5.1-5.7-6.2-8.2c0,0,0,0,0,0c0.7-0.1,1.3-0.2,1.6-0.3C229.4,59,235.2,57.1,238.8,54.7z"/>
			<g>
				<path class="st124" d="M227.2,55.5c-0.8-1.4-2-3.7-1.8-3.8c0,0,2.3-1.4,3.4-2.1c2.7-1.9,5.7-3.5,8.6-4.5
					c2.8-0.9,5.4,0.2,6.1,2.9c1.5,6.4-7.2,10.8-11.6,13.2c-1.6-1.3-2.9-2.9-4.1-4.7C227.8,56.4,227.5,56,227.2,55.5z"/>
			</g>
			<g>
				<polyline class="st143" points="237.5,121.6 229.1,75.4 220.7,66.8 				"/>
				<path class="st59" d="M220.4,69l-0.6-0.6c-0.6-0.6-0.6-1.6,0-2.3l0,0c0.6-0.6,1.6-0.6,2.3,0l0.6,0.6c0.6,0.6,0.6,1.6,0,2.3v0
					C222,69.6,221,69.6,220.4,69z"/>
				<path class="st59" d="M228.7,64.4l-3.8,3.2c-0.7,0.6-1.7,0.5-2.2-0.2l-1.6-2c-0.6-0.7-0.5-1.7,0.2-2.2L225,60
					c0.7-0.6,1.7-0.5,2.2,0.2l1.6,2C229.5,62.8,229.4,63.8,228.7,64.4z"/>
				<path class="st59" d="M227.9,78.6l-0.2-0.8c-0.2-0.9,0.4-1.7,1.2-1.9l0,0c0.9-0.2,1.7,0.4,1.9,1.2l0.2,0.8
					c0.2,0.9-0.4,1.7-1.2,1.9l0,0C229,80,228.1,79.4,227.9,78.6z"/>
				<path class="st59" d="M235.9,121.9l-0.1-0.8c-0.1-0.9,0.4-1.7,1.3-1.8l0,0c0.9-0.1,1.7,0.4,1.8,1.3l0.1,0.8
					c0.1,0.9-0.4,1.7-1.3,1.8l0,0C236.9,123.4,236,122.8,235.9,121.9z"/>
				<path class="st59" d="M234.8,114.8l-0.1-0.4c-0.1-0.6,0.3-1.2,0.9-1.3l0.6-0.1c0.6-0.1,1.2,0.3,1.3,0.9l0.1,0.4
					c0.1,0.6-0.3,1.2-0.9,1.3l-0.6,0.1C235.5,115.8,234.9,115.4,234.8,114.8z"/>
			</g>
		</g>
		<g>
			<path class="st59" d="M287.5,80.1c1.1,3.7,4.5,6.3,8.5,6.3c0.8,0,1.6-0.1,2.4-0.3l0.3-0.8c1.5-0.2,3.2-1.9,3.2-1.9l0.6,0.1
				c1.4-1.6,2.3-3.7,2.3-6c0-2.4-1-4.7-2.6-6.3h-0.4c0,0-2.7-1.6-3.7-1.7c0,0-0.1-0.3-0.3-0.7c-0.6-0.1-1.3-0.2-2-0.2
				c-4.1,0-7.5,2.7-8.5,6.4l0.4,0.7c0,0-0.3,2.3,0,3.5l-0.2,0.8H287.5z M299.6,75.3l2.7-1.1c0.7,0.3,1.8,3.1,1.8,3.1
				c-0.1,0.8-1.6,3.1-1.6,3.1l-2.9-1.2V75.3z M290.4,81.3l2.4-1.8l3.5,1.9l-0.4,2.9c0,0-2.6,0.3-3.4,0
				C292.5,84.3,291.3,83.5,290.4,81.3z M290.2,73.7c0,0,1.3-2.8,1.9-3c0,0,2.3-0.4,3.5-0.3l0.4,3l-3.2,1.9L290.2,73.7z"/>
			<path class="st61" d="M292.1,70.6c0,0,2.3-0.4,3.5-0.3l0.4,3l-3.2,1.9l-2.6-1.6C290.2,73.7,291.5,70.8,292.1,70.6z"/>
			<path class="st61" d="M304.1,77.3c-0.1,0.8-1.6,3.1-1.6,3.1l-2.9-1.2v-4l2.7-1.1C303,74.5,304.1,77.3,304.1,77.3z"/>
			<path class="st61" d="M296.3,81.4l-0.4,2.9c0,0-2.6,0.3-3.4,0c0,0-1.2-0.8-2-3l2.4-1.8L296.3,81.4z"/>
			<path class="st61" d="M287.8,79.3l-0.2,0.8h-0.2c-0.2-0.8-0.4-1.7-0.4-2.6c0-0.8,0.1-1.7,0.3-2.4l0.4,0.7
				C287.8,75.8,287.5,78,287.8,79.3z"/>
			<path class="st61" d="M298.2,69.6c0,0-0.1-0.3-0.3-0.7c1.7,0.4,3.1,1.2,4.3,2.4h-0.4C301.9,71.2,299.1,69.6,298.2,69.6z"/>
			<path class="st61" d="M301.9,83.3l0.6,0.1c-1.1,1.2-2.5,2.1-4.2,2.6l0.3-0.8C300.1,85.1,301.9,83.3,301.9,83.3z"/>
		</g>
	</g>
	<g>
		<g>
			<path class="st62" d="M725.6,24.7c0,0,0.7,1.6,1.8,3.6c0,0,0,0,0,0c0,0,0,0,0,0c1.7,3.4,4.3,8,5.9,9c2.6,1.7,12.6,7.6,14.4,8.8
				c1.8,1.2,4.4,5.4,4.4,5.4s-1.5-6.9,2.4-12.7c1.2-1.6,1.7-1.4,2-1.6c-1.1-0.4-4.6-1.5-8-1.5l-8.7-4.2l-9.9-9.6
				c-0.6-0.8-1.2-1.8-1.6-2.7c-1.2-2.7-3.9-3.8-5.4-4.4c-0.4-0.1-0.7-0.2-0.9-0.1c-0.7,0.1-0.9,0.6-0.9,0.6
				c-1.7-0.4-1.5,1.3-1.5,1.3c-1.8-0.2-1.8,1.4-1.8,1.4c-0.7,0.1-0.9,0.8-0.7,1.4c0.4,0.9,1.7,1.9,1.7,1.9s-0.1,0.5-0.3,1.8
				c-0.2,1.4,6.2,0.3,6.6,0.5L725.6,24.7z"/>
			<g>
				
					<ellipse transform="matrix(0.9248 -0.3805 0.3805 0.9248 47.0267 276.2466)" class="st59" cx="722.3" cy="19.2" rx="48.9" ry="1.9"/>
				<path class="st61" d="M727.9,19.5l-5.8,2.4c-0.9,0.4-1.9-0.1-2.2-0.9l-0.5-1.2c-0.4-0.9,0.1-1.9,0.9-2.2l5.8-2.4
					c0.9-0.4,1.9,0.1,2.2,0.9l0.5,1.2C729.1,18.2,728.7,19.2,727.9,19.5z"/>
			</g>
			<path class="st62" d="M725.4,21.7c-0.1-0.1-0.7-2.4-3.2-2c-2.5,0.4-2.7,1.8-4.1,1.1c-1.4-0.6-5.4-0.6-2.3,1.2
				c3.1,1.7,2.2,2,4.7,1.9C723.1,23.8,725.6,22.1,725.4,21.7z"/>
			<polygon class="st89" points="725.4,20.7 720.1,22.7 719.9,23.8 722.1,23.7 723.9,23.6 726.3,21.9 			"/>
		</g>
		<g>
			<path class="st62" d="M758.9,18.6c1.2,0,2.3,0.7,3.1,1.5c0.9,1,1.2,2.9,2.4,3.6c0.5,0.3,1.2,0,1.7-0.2c2.4-0.6,3.4-0.7,3.2-0.2
				c-0.2,0.6-3.6,3.1-3.6,3.8c-0.1,0.8,0.9,4.2,0.6,4.8c-0.3,0.7-2.8,1.1-3,1.8c-0.3,0.7,1.2,3.1,1.2,3.1l-6.6,2.3
				c0,0-0.8-6.7-2.4-8.1c-1.7-1.5-1.2-3-1.9-5.2c-1-3.5,1.3-6.3,4.6-7.2C758.5,18.7,758.7,18.6,758.9,18.6z"/>
			<path class="st61" d="M758.3,33.7c1.3-0.3,0.5-2.6-0.2-3.7c-0.8-1.2-2.6-1-2.8-2.7c-0.1-0.3,0-0.7,0.2-1c0.5-0.5,1.1,0.2,1.5,0.5
				c0.4,0.3,1.5,1.8,2.1,1.5c2.2-1-0.6-4.2-0.3-5.8c0.2-1.4,2.3-0.5,3.3-1.3c0,0,0.4-1.5-2.6-1.7c0,0,6.3,1.1,5.6,0
				c-0.7-1.1-4.3-1.5-4.3-1.5s5,0.5,4.5-1.4s-7.9-0.5-8.8,0.7c-0.1,0.2-1.9,1-2.2,1c-1.3,0.3-2.5,0.9-3.5,1.7
				c-3.2,2.9-1.7,8.8,0.6,11.8c1.2,1.5,2.7,2.7,4.4,3.4c0.6,0.2,2,1,2,0c0-0.5-0.8-1.1-1.1-1.4C756.7,33.9,757.1,34,758.3,33.7z"/>
		</g>
		<g>
			<g>
				<path class="st62" d="M781.5,89.5c-0.4-7.9-8-19.2-8-19.2s0,0,0,0c-1.4-2.9-4.7-4.7-8.2-4.1c-4.2,0.7-7,4.6-6.3,8.7
					c-0.1,3.7,9.5,14.2,16.1,18c-0.3,0.9-0.5,1.9-0.7,3.1c-0.9,7.6,13.4,18.9,15.6,21c1.4-0.3,2.8-0.9,4.1-1.6
					C789.8,103.8,783.7,93.1,781.5,89.5z"/>
				<g>
					<path class="st61" d="M787,113.7c0-0.1,0.1-0.2,0.1-0.3c0.2-0.3,0.5-0.4,0.8-0.4c0.3,0,0.8-0.1,1.1,0.1
						c0.3,0.1,0.5,0.4,0.7,0.6c0.3,0.3,0.7,0.6,1.1,0.8c0.6,0.3,1.4,0.6,2.1,0.6c1,0,0.7-0.9,1.4-0.2c0.7,0.8,3.8,3.6,5,3.6
						c1.2,0,3.1-0.3,3.3,1.3c0.3,1.5-2.7,3.4-4.8,3.4c-2.1,0.1-5.3-0.8-6-0.4c-0.7,0.3-6.4-0.1-6.8-2c-0.3-1.3,0.5-2.6,1.2-3.6
						c0.3-0.4,0.7-0.9,0.8-1.4c0.1-0.3,0.1-0.6,0.1-0.9C787.2,114.5,786.9,114.1,787,113.7z"/>
					<path class="st145" d="M785.1,119.7c0,0.2,0.8,1.2,2.4,1.5c1.4,0.3,2.9,0.4,4.3,0.5c0.7,0,1.5,0.1,2.2,0.1
						c0.7,0.1,1.4,0.2,2.1,0.2c1.2,0,2.5,0,3.6-0.5c1.1-0.5,2.4-1.1,2.8-2.3"/>
					<path class="st145" d="M796.7,117c0,0-1.2,0.2-1.7,1"/>
					<path class="st145" d="M795.7,116.2c0,0-1.2-0.4-1.8,0.5"/>
				</g>
			</g>
			<g>
				<path class="st62" d="M765.9,73.8c-2.5-3.4-7.2-4.2-10.6-1.8c-2.9,1.3-7.2,11.3-8.6,19c-0.2-0.1-0.4-0.1-0.6-0.2
					c-7.4-2-20.7,10.5-23,12.3c0,1.5,0.5,2.9,0.9,4.3c10-2.2,19.6-5.7,24.8-7.7c0.2,0,0.3,0,0.5,0c7.8-1.6,16.4-16.7,16.4-16.7
					s0,0,0,0C767.8,80.4,767.9,76.6,765.9,73.8z"/>
				<g>
					<path class="st61" d="M725.8,100.7c0.2,0.1,0.4,0.3,0.5,0.6c0.2,0.5,0.1,1.2-0.4,1.5c-1.2,1-1.8,2.5-1.8,3.4c0,1,1,0.7,0.2,1.4
						c-0.7,0.7-3.4,3.9-3.3,5.1c0.1,1.2,0.4,3-1.1,3.4s-3.5-2.5-3.6-4.7c-0.1-2.1,0.6-5.3,0.2-6c-0.4-0.7-0.1-6.4,1.8-6.9
						c1.3-0.3,2.6,0.4,3.6,1.1c1,0.6,1.9,1.1,3.2,1C725.3,100.7,725.6,100.7,725.8,100.7z"/>
					<path class="st145" d="M719.2,98.7c-0.2,0-1.1,0.9-1.4,2.5c-0.3,1.4-0.3,2.9-0.3,4.3c0,0.7,0,1.5,0,2.2c0,0.7-0.2,1.4-0.2,2.1
						c0,1.2,0.1,2.5,0.6,3.6c0.5,1.1,1.2,2.3,2.4,2.7"/>
					<path class="st145" d="M722.4,110.1c0,0-0.2-1.2-1-1.6"/>
					<path class="st145" d="M723.1,109.2c0,0,0.3-1.3-0.6-1.8"/>
				</g>
			</g>
			<path class="st63" d="M752.9,71.3l-5.1,14.2l12.4,6.8l5-7.3l4.9,5.2L781,84c0,0-5.7-14-9.4-16.8C767.9,64.4,754,63.1,752.9,71.3z
				"/>
		</g>
		<g>
			<g>
				<g>
					<path class="st124" d="M777.3,72.2c-1.2-3.7-1.6-6-2.4-9.6c-1.6-7.9-0.1-12.4-2.4-18.5c-2.2-6.1-8.4-7.9-8.4-7.9s-0.2,1-3.5,2
						c-3.3,0.9-2.9-0.9-2.9-0.9s-5.5,0.4-6.5,2.8s-0.1,8.2,0.5,10.2c0.6,2-3,22.8,0.2,24.6c3.2,1.9,8.6,1.9,14.8,0
						S774.5,74.1,777.3,72.2z"/>
				</g>
			</g>
		</g>
		<g>
			<g>
				<path class="st62" d="M776.6,48.3c-1.9-0.8-3.5-2.4-5-3.7c-1-0.9-1.9-1.7-2.9-2.5c-1-0.9-1.9-1.8-3.1-2.5
					c-1.4-0.8-2.8-1-4.4-0.8c-1.3,0.2-2.8,0.9-3.3,2.1c-0.3,0.8-0.3,1.7,0,2.5c0.6,2,2.3,3.8,3.7,5.2c1.5,1.5,3.1,2.8,4.8,4
					c1.2,0.9,2.5,1.8,3.9,2.5c4.5,2.5,9.8,2.7,14.7,1.2c0.8-0.2,1.6-0.5,2.4-0.9c0.8-0.3,1.5-0.7,2-1.4
					C792.1,49.8,778.4,49.1,776.6,48.3z"/>
			</g>
			<path class="st59" d="M779.2,48.9c0,0-2.8,7.3-0.6,8.5c2.2,1.3,12.6-1,12.4-4.5C790.8,49.5,779.2,48.9,779.2,48.9z"/>
		</g>
	</g>
	<g>
		<g>
			<g>
				<g class="st146">
					<g class="st146">
						<defs>
							<path id="SVGID_21_" class="st146" d="M956.4,93.3l-0.8,0.6c-0.9-1.4-1.9-2.6-2.8-3.5c-0.9-0.9-1.7-1.5-2.2-1.5l0.8-0.6
								c0.5,0,1.3,0.6,2.2,1.5C954.4,90.6,955.4,91.9,956.4,93.3z"/>
						</defs>
						<use xlink:href="#SVGID_21_"  style="overflow:visible;fill:#2A3F55;"/>
						<clipPath id="SVGID_2_">
							<use xlink:href="#SVGID_21_"  style="overflow:visible;"/>
						</clipPath>
						<g class="st147">
							<path class="st61" d="M956.4,93.3l-0.8,0.6c-0.3-0.4-0.5-0.8-0.8-1.2l0.8-0.6C955.8,92.5,956.1,92.9,956.4,93.3"/>
							<path class="st61" d="M955.5,92.1l-0.8,0.6c-0.2-0.3-0.4-0.5-0.6-0.7l0.8-0.6C955.2,91.6,955.3,91.8,955.5,92.1"/>
							<path class="st61" d="M955,91.4l-0.8,0.6c-0.1-0.2-0.3-0.3-0.4-0.5l0.8-0.6C954.7,91,954.8,91.2,955,91.4"/>
							<path class="st61" d="M954.6,90.9l-0.8,0.6c-0.1-0.1-0.2-0.3-0.4-0.4l0.8-0.6C954.3,90.6,954.4,90.7,954.6,90.9"/>
							<path class="st61" d="M954.2,90.5l-0.8,0.6c-0.1-0.1-0.2-0.2-0.3-0.4l0.8-0.6C954,90.2,954.1,90.3,954.2,90.5"/>
							<path class="st61" d="M953.9,90.1l-0.8,0.6c-0.1-0.1-0.2-0.2-0.3-0.3l0.8-0.6C953.7,89.9,953.8,90,953.9,90.1"/>
							<path class="st61" d="M953.6,89.8l-0.8,0.6c0,0,0,0-0.1-0.1c-0.1-0.1-0.1-0.1-0.2-0.2l0.8-0.6
								C953.4,89.6,953.5,89.7,953.6,89.8C953.5,89.7,953.6,89.8,953.6,89.8"/>
							<path class="st61" d="M953.3,89.5l-0.8,0.6c-0.1-0.1-0.2-0.2-0.3-0.2l0.8-0.6C953.1,89.3,953.2,89.4,953.3,89.5"/>
							<path class="st61" d="M953,89.3l-0.8,0.6c-0.1-0.1-0.2-0.2-0.3-0.2l0.8-0.6C952.9,89.1,953,89.2,953,89.3"/>
							<path class="st61" d="M952.8,89l-0.8,0.6c-0.1-0.1-0.2-0.1-0.3-0.2l0.8-0.6C952.6,88.9,952.7,89,952.8,89"/>
							<path class="st61" d="M952.5,88.8l-0.8,0.6c-0.1-0.1-0.2-0.1-0.3-0.2l0.8-0.6C952.4,88.7,952.4,88.8,952.5,88.8"/>
							<path class="st61" d="M952.3,88.6l-0.8,0.6c-0.1-0.1-0.2-0.1-0.3-0.2l0.8-0.6C952.1,88.5,952.2,88.6,952.3,88.6"/>
							<path class="st61" d="M952,88.5l-0.8,0.6c-0.1-0.1-0.2-0.1-0.3-0.1l0.8-0.6C951.8,88.4,951.9,88.4,952,88.5"/>
							<path class="st61" d="M951.7,88.3l-0.8,0.6c-0.1-0.1-0.3-0.1-0.4-0.1l0.8-0.6C951.5,88.3,951.6,88.3,951.7,88.3"/>
						</g>
						<use xlink:href="#SVGID_21_"  style="overflow:visible;fill:none;stroke:#2A3F55;stroke-width:0.25;stroke-miterlimit:10;"/>
					</g>
					<g>
						<polygon class="st32" points="975.4,122.2 974.6,122.8 955.5,93.9 956.4,93.3 						"/>
					</g>
					<g class="st146">
						<defs>
							<path id="SVGID_23_" class="st146" d="M975.7,122.4l-0.8,0.6c0,0,0,0,0,0c0,0-0.1-0.1-0.2-0.2l0.8-0.6
								C975.5,122.3,975.6,122.4,975.7,122.4C975.7,122.4,975.7,122.4,975.7,122.4z"/>
						</defs>
						<use xlink:href="#SVGID_23_"  style="overflow:visible;fill:#2A3F55;"/>
						<clipPath id="SVGID_4_">
							<use xlink:href="#SVGID_23_"  style="overflow:visible;"/>
						</clipPath>
						<g class="st148">
							<path class="st32" d="M975.7,122.4l-0.8,0.6c0,0,0,0,0,0c0,0,0,0,0,0L975.7,122.4C975.6,122.4,975.7,122.4,975.7,122.4
								C975.7,122.4,975.7,122.4,975.7,122.4"/>
							<path class="st32" d="M975.6,122.4l-0.8,0.6c0,0,0,0,0,0L975.6,122.4C975.6,122.4,975.6,122.4,975.6,122.4"/>
							<path class="st32" d="M975.6,122.4l-0.8,0.6c0,0,0,0,0,0L975.6,122.4C975.6,122.4,975.6,122.4,975.6,122.4"/>
							<polyline class="st32" points="975.6,122.4 974.8,123 974.8,123 975.6,122.4 975.6,122.4 							"/>
							<polyline class="st32" points="975.6,122.4 974.8,123 974.8,123 975.6,122.4 975.6,122.4 							"/>
							<polyline class="st32" points="975.6,122.4 974.8,123 974.7,123 975.6,122.4 975.6,122.4 							"/>
							<path class="st32" d="M975.6,122.4l-0.8,0.6c0,0,0,0,0,0L975.6,122.4C975.6,122.4,975.6,122.4,975.6,122.4"/>
							<path class="st32" d="M975.6,122.4l-0.8,0.6c0,0,0,0,0,0L975.6,122.4C975.6,122.4,975.6,122.4,975.6,122.4"/>
							<path class="st32" d="M975.6,122.4l-0.8,0.6c0,0,0,0,0,0L975.6,122.4C975.5,122.4,975.6,122.4,975.6,122.4"/>
							<path class="st32" d="M975.5,122.3l-0.8,0.6c0,0,0,0,0,0L975.5,122.3C975.5,122.3,975.5,122.3,975.5,122.3"/>
							<path class="st32" d="M975.5,122.3l-0.8,0.6c0,0,0,0,0,0L975.5,122.3C975.5,122.3,975.5,122.3,975.5,122.3"/>
							<path class="st32" d="M975.5,122.3l-0.8,0.6c0,0,0,0,0,0L975.5,122.3C975.5,122.3,975.5,122.3,975.5,122.3"/>
							<path class="st32" d="M975.5,122.3l-0.8,0.6c0,0,0,0,0,0L975.5,122.3C975.5,122.3,975.5,122.3,975.5,122.3"/>
							<path class="st32" d="M975.5,122.3l-0.8,0.6c0,0,0,0,0-0.1L975.5,122.3C975.4,122.2,975.5,122.2,975.5,122.3"/>
						</g>
					</g>
					<g>
						<polygon class="st61" points="951.4,88.3 950.5,88.9 947.5,88.9 948.3,88.3 						"/>
					</g>
					<g class="st146">
						<defs>
							<path id="SVGID_25_" class="st146" d="M947.3,88.9l0.8-0.6c0.1,0,0.1-0.1,0.2-0.1l-0.8,0.6C947.4,88.9,947.3,88.9,947.3,88.9
								z"/>
						</defs>
						<use xlink:href="#SVGID_25_"  style="overflow:visible;fill:#2A3F55;"/>
						<clipPath id="SVGID_6_">
							<use xlink:href="#SVGID_25_"  style="overflow:visible;"/>
						</clipPath>
						<g class="st149">
							<path class="st61" d="M948.3,88.3l-0.8,0.6c-0.1,0-0.2,0-0.2,0.1l0.8-0.6C948.2,88.3,948.3,88.3,948.3,88.3"/>
						</g>
						<use xlink:href="#SVGID_25_"  style="overflow:visible;fill:none;stroke:#2A3F55;stroke-width:0.25;stroke-miterlimit:10;"/>
					</g>
					<g class="st146">
						<defs>
							<path id="SVGID_27_" class="st146" d="M947,88.5l0.8-0.6c-0.6,0.4,0.2,2.7,2,5.4l-0.8,0.6C947.2,91.2,946.4,88.9,947,88.5z"
								/>
						</defs>
						<use xlink:href="#SVGID_27_"  style="overflow:visible;fill:#2A3F55;"/>
						<clipPath id="SVGID_8_">
							<use xlink:href="#SVGID_27_"  style="overflow:visible;"/>
						</clipPath>
						<g class="st150">
							<path class="st61" d="M949.8,93.3l-0.8,0.6c0,0,0-0.1-0.1-0.1l0.8-0.6C949.8,93.2,949.8,93.2,949.8,93.3"/>
							<path class="st61" d="M949.8,93.2l-0.8,0.6c-0.2-0.3-0.4-0.6-0.6-0.9l0.8-0.6C949.4,92.6,949.6,92.9,949.8,93.2"/>
							<path class="st61" d="M949.2,92.3l-0.8,0.6c-0.1-0.2-0.2-0.4-0.3-0.6l0.8-0.6C949,91.9,949.1,92.1,949.2,92.3"/>
							<path class="st61" d="M948.9,91.7l-0.8,0.6c-0.1-0.2-0.2-0.3-0.3-0.5l0.8-0.6C948.7,91.3,948.8,91.5,948.9,91.7"/>
							<path class="st61" d="M948.6,91.2l-0.8,0.6c-0.1-0.1-0.1-0.3-0.2-0.4l0.8-0.6C948.4,90.9,948.5,91,948.6,91.2"/>
							<path class="st61" d="M948.4,90.8l-0.8,0.6c-0.1-0.1-0.1-0.3-0.2-0.4l0.8-0.6C948.3,90.5,948.3,90.6,948.4,90.8"/>
							<path class="st61" d="M948.2,90.4l-0.8,0.6c-0.1-0.1-0.1-0.2-0.2-0.4L948,90C948.1,90.1,948.1,90.2,948.2,90.4"/>
							<path class="st61" d="M948,90l-0.8,0.6c0-0.1-0.1-0.2-0.1-0.3l0.8-0.6C948,89.8,948,89.9,948,90"/>
							<path class="st61" d="M947.9,89.7l-0.8,0.6c0-0.1-0.1-0.2-0.1-0.3l0.8-0.6C947.8,89.5,947.9,89.6,947.9,89.7"/>
							<path class="st61" d="M947.8,89.4L947,90c0-0.1-0.1-0.2-0.1-0.3l0.8-0.6C947.7,89.2,947.8,89.3,947.8,89.4"/>
							<path class="st61" d="M947.7,89.1l-0.8,0.6c0-0.1,0-0.2-0.1-0.3l0.8-0.6C947.7,88.9,947.7,89,947.7,89.1"/>
							<path class="st61" d="M947.7,88.8l-0.8,0.6c0-0.1,0-0.2,0-0.3l0.8-0.6C947.6,88.6,947.6,88.7,947.7,88.8"/>
							<path class="st61" d="M947.6,88.5l-0.8,0.6c0-0.1,0-0.2,0-0.3l0.8-0.6C947.6,88.3,947.6,88.4,947.6,88.5"/>
							<path class="st61" d="M947.6,88.2l-0.8,0.6c0-0.1,0.1-0.3,0.2-0.3l0.8-0.6C947.7,88,947.7,88.1,947.6,88.2"/>
						</g>
						<use xlink:href="#SVGID_27_"  style="overflow:visible;fill:none;stroke:#2A3F55;stroke-width:0.25;stroke-miterlimit:10;"/>
					</g>
					<g>
						<polygon class="st32" points="968.9,122.2 968.1,122.8 949,93.9 949.8,93.3 						"/>
					</g>
					<g>
						<path class="st32" d="M951.1,87.8c1,0,3.4,2.5,5.4,5.5l19.1,28.9c0.1,0.1,0.1,0.2,0.1,0.2c0,0-0.1-0.1-0.2-0.2l-19.1-28.9
							c-0.9-1.4-1.9-2.6-2.8-3.5c-0.9-0.9-1.7-1.5-2.2-1.5h-3c-0.5,0-0.5,0.6-0.2,1.5c0.3,0.9,0.9,2.2,1.8,3.5l19.1,28.9
							c0.1,0.1,0.1,0.2,0.1,0.2c0,0-0.1-0.1-0.2-0.2l-19.1-28.9c-2-3-2.8-5.5-1.8-5.5H951.1z"/>
					</g>
					<g class="st146">
						<defs>
							<path id="SVGID_29_" class="st146" d="M969.1,122.4l-0.8,0.6c0,0,0,0,0,0c0,0-0.1-0.1-0.2-0.2l0.8-0.6
								C969,122.3,969.1,122.4,969.1,122.4C969.1,122.4,969.1,122.4,969.1,122.4z"/>
						</defs>
						<use xlink:href="#SVGID_29_"  style="overflow:visible;fill:#2A3F55;"/>
						<clipPath id="SVGID_10_">
							<use xlink:href="#SVGID_29_"  style="overflow:visible;"/>
						</clipPath>
						<g class="st151">
							<path class="st32" d="M969.1,122.4l-0.8,0.6c0,0,0,0,0,0c0,0,0,0,0,0L969.1,122.4C969.1,122.4,969.1,122.4,969.1,122.4
								C969.1,122.4,969.1,122.4,969.1,122.4"/>
							<path class="st32" d="M969.1,122.4l-0.8,0.6c0,0,0,0,0,0L969.1,122.4C969.1,122.4,969.1,122.4,969.1,122.4"/>
							<path class="st32" d="M969.1,122.4l-0.8,0.6c0,0,0,0,0,0L969.1,122.4C969.1,122.4,969.1,122.4,969.1,122.4"/>
							<polyline class="st32" points="969.1,122.4 968.2,123 968.2,123 969.1,122.4 969.1,122.4 							"/>
							<polyline class="st32" points="969.1,122.4 968.2,123 968.2,123 969.1,122.4 969.1,122.4 							"/>
							<polyline class="st32" points="969.1,122.4 968.2,123 968.2,123 969.1,122.4 969.1,122.4 							"/>
							<path class="st32" d="M969.1,122.4l-0.8,0.6c0,0,0,0,0,0L969.1,122.4C969,122.4,969.1,122.4,969.1,122.4"/>
							<path class="st32" d="M969,122.4l-0.8,0.6c0,0,0,0,0,0L969,122.4C969,122.4,969,122.4,969,122.4"/>
							<path class="st32" d="M969,122.4l-0.8,0.6c0,0,0,0,0,0L969,122.4C969,122.4,969,122.4,969,122.4"/>
							<path class="st32" d="M969,122.3l-0.8,0.6c0,0,0,0,0,0L969,122.3C969,122.3,969,122.3,969,122.3"/>
							<path class="st32" d="M969,122.3l-0.8,0.6c0,0,0,0,0,0L969,122.3C969,122.3,969,122.3,969,122.3"/>
							<path class="st32" d="M969,122.3l-0.8,0.6c0,0,0,0,0,0L969,122.3C969,122.3,969,122.3,969,122.3"/>
							<path class="st32" d="M969,122.3l-0.8,0.6c0,0,0,0,0,0L969,122.3C969,122.3,969,122.3,969,122.3"/>
							<path class="st32" d="M968.9,122.3l-0.8,0.6c0,0,0,0,0-0.1L968.9,122.3C968.9,122.2,968.9,122.2,968.9,122.3"/>
						</g>
					</g>
				</g>
			</g>
			<path class="st58" d="M974.3,89l-0.2-0.5l-4.6-0.1c-3.2,1.6-6.2,2.3-8.8,2.5c0,0-0.1,0-0.1,0c-0.3,0-0.6-0.1-0.8-0.1
				c0,0-0.1,0-0.1,0c-0.3-0.1-0.6-0.1-0.9-0.2c-0.1,0-0.2,0-0.3-0.1c-0.2,0-0.4-0.1-0.6-0.1c-0.1,0-0.2-0.1-0.3-0.1
				c-0.2,0-0.3-0.1-0.5-0.1c-0.1,0-0.2-0.1-0.3-0.1c-0.2-0.1-0.3-0.1-0.5-0.2c-0.1,0-0.2-0.1-0.3-0.1c-0.1-0.1-0.3-0.1-0.4-0.2
				c-0.1,0-0.2-0.1-0.3-0.1c-0.1-0.1-0.2-0.1-0.4-0.2c-0.1,0-0.2-0.1-0.3-0.1c-0.1,0-0.2-0.1-0.3-0.1c-0.1-0.1-0.2-0.1-0.3-0.2
				c-0.1,0-0.2-0.1-0.2-0.1c-0.1,0-0.2-0.1-0.3-0.1c-0.1-0.1-0.2-0.1-0.3-0.2c0,0,0,0,0,0c-0.1-0.1-0.2-0.1-0.3-0.2c0,0,0,0,0,0
				c-0.1,0-0.2-0.1-0.2-0.1c0,0,0,0,0,0c-0.1,0-0.1-0.1-0.1-0.1c0,0,0,0,0,0c0,0,0,0,0,0l-4.6-0.1l-0.3,0.4c0.1,0,4.3,3,10.8,3.1
				l0,0l0,0l4.6,0.1c2.5,0,5.3-0.3,8.3-1.4C972.2,90,973.3,89.5,974.3,89L974.3,89C974.3,89,974.3,89,974.3,89z"/>
			<g>
				<g class="st146">
					<g class="st146">
						<defs>
							<path id="SVGID_31_" class="st146" d="M947.7,123.4l-0.8-0.7c0,0,0-0.1,0.1-0.2l0.8,0.7C947.7,123.2,947.7,123.3,947.7,123.4
								z"/>
						</defs>
						<clipPath id="SVGID_12_">
							<use xlink:href="#SVGID_31_"  style="overflow:visible;"/>
						</clipPath>
						<g class="st152">
							<path class="st32" d="M947.7,123.4l-0.8-0.7c0,0,0,0,0-0.1L947.7,123.4C947.7,123.3,947.7,123.3,947.7,123.4"/>
							<path class="st32" d="M947.7,123.3l-0.8-0.7c0,0,0,0,0,0L947.7,123.3C947.7,123.3,947.7,123.3,947.7,123.3"/>
							<path class="st32" d="M947.7,123.3l-0.8-0.7c0,0,0,0,0,0L947.7,123.3C947.8,123.2,947.8,123.3,947.7,123.3"/>
							<polyline class="st32" points="947.8,123.2 947,122.6 947,122.6 947.8,123.2 947.8,123.2 							"/>
							<polyline class="st32" points="947.8,123.2 947,122.6 947,122.6 947.8,123.2 947.8,123.2 							"/>
							<polyline class="st32" points="947.8,123.2 947,122.6 947,122.5 947.8,123.2 947.8,123.2 							"/>
							<polyline class="st32" points="947.8,123.2 947,122.5 947,122.5 947.8,123.2 947.8,123.2 							"/>
							<polyline class="st32" points="947.8,123.2 947,122.5 947,122.5 947.8,123.2 947.8,123.2 							"/>
							<polyline class="st32" points="947.8,123.2 947,122.5 947,122.5 947.8,123.2 947.8,123.2 							"/>
							<polyline class="st32" points="947.8,123.2 947,122.5 947,122.5 947.8,123.2 947.8,123.2 							"/>
							<polyline class="st32" points="947.8,123.2 947,122.5 947,122.5 947.8,123.2 947.8,123.2 							"/>
							<polyline class="st32" points="947.8,123.2 947,122.5 947,122.5 947.8,123.2 947.8,123.2 							"/>
							<polyline class="st32" points="947.8,123.2 947,122.5 947,122.5 947.8,123.2 947.8,123.2 							"/>
							<polyline class="st32" points="947.8,123.2 947,122.5 947,122.5 947.8,123.1 947.8,123.2 							"/>
							<polyline class="st32" points="947.8,123.1 947,122.5 947,122.5 947.8,123.1 947.8,123.1 							"/>
							<polyline class="st32" points="947.8,123.1 947,122.5 947,122.5 947.8,123.1 947.8,123.1 							"/>
						</g>
					</g>
					<g>
						<polygon class="st61" points="947.8,123.1 947,122.5 970.7,93.1 971.5,93.8 						"/>
					</g>
					<g>
						<defs>
							<path id="SVGID_33_" d="M973,88.5l0.8,0.7c0.2,0.2,0.1,0.6-0.2,1.3c-0.4,0.9-1.1,2-2.1,3.3l-0.8-0.7c1-1.3,1.8-2.5,2.1-3.3
								C973.1,89.1,973.2,88.7,973,88.5z"/>
						</defs>
						<use xlink:href="#SVGID_33_"  style="overflow:visible;fill:#2A3F55;"/>
						<clipPath id="SVGID_14_">
							<use xlink:href="#SVGID_33_"  style="overflow:visible;"/>
						</clipPath>
						<g class="st153">
							<path class="st61" d="M971.5,93.8l-0.8-0.7c0,0,0-0.1,0.1-0.1L971.5,93.8C971.5,93.8,971.5,93.8,971.5,93.8"/>
							<path class="st61" d="M971.5,93.7l-0.8-0.7c0-0.1,0.1-0.1,0.1-0.2l0.8,0.7C971.6,93.6,971.6,93.7,971.5,93.7"/>
							<path class="st61" d="M971.7,93.5l-0.8-0.7c0-0.1,0.1-0.1,0.1-0.2l0.8,0.7C971.8,93.4,971.7,93.5,971.7,93.5"/>
							<path class="st61" d="M971.8,93.4l-0.8-0.7c0-0.1,0.1-0.1,0.1-0.2l0.8,0.7C971.9,93.2,971.8,93.3,971.8,93.4"/>
							<path class="st61" d="M971.9,93.2l-0.8-0.7c0-0.1,0.1-0.1,0.1-0.2l0.8,0.7C972,93,972,93.1,971.9,93.2"/>
							<path class="st61" d="M972.1,93l-0.8-0.7c0-0.1,0.1-0.1,0.1-0.2l0.8,0.7C972.2,92.8,972.1,92.9,972.1,93"/>
							<path class="st61" d="M972.2,92.8l-0.8-0.7c0-0.1,0.1-0.1,0.1-0.2l0.8,0.7C972.3,92.6,972.3,92.7,972.2,92.8"/>
							<path class="st61" d="M972.4,92.6l-0.8-0.7c0-0.1,0.1-0.1,0.1-0.2l0.8,0.7C972.5,92.4,972.4,92.5,972.4,92.6"/>
							<path class="st61" d="M972.5,92.3l-0.8-0.7c0.1-0.1,0.1-0.1,0.1-0.2l0.8,0.7C972.6,92.2,972.6,92.3,972.5,92.3"/>
							<path class="st61" d="M972.7,92.1l-0.8-0.7c0.1-0.1,0.1-0.2,0.2-0.2l0.8,0.7C972.8,92,972.7,92,972.7,92.1"/>
							<path class="st61" d="M972.8,91.9l-0.8-0.7c0.1-0.1,0.1-0.2,0.2-0.3l0.8,0.7C972.9,91.7,972.9,91.8,972.8,91.9"/>
							<path class="st61" d="M973,91.6l-0.8-0.7c0.1-0.1,0.1-0.2,0.2-0.3l0.8,0.7C973.1,91.4,973,91.5,973,91.6"/>
							<path class="st61" d="M973.1,91.3l-0.8-0.7c0.1-0.1,0.1-0.2,0.2-0.4l0.8,0.7C973.3,91.1,973.2,91.2,973.1,91.3"/>
							<path class="st61" d="M973.3,91l-0.8-0.7c0.1-0.2,0.2-0.4,0.3-0.5c0.3-0.7,0.4-1.2,0.2-1.3l0.8,0.7c0.2,0.2,0.1,0.6-0.2,1.3
								C973.5,90.6,973.4,90.8,973.3,91"/>
						</g>
						<use xlink:href="#SVGID_33_"  style="overflow:visible;fill:none;stroke:#2A3F55;stroke-width:0.25;stroke-miterlimit:10;"/>
					</g>
					<g class="st146">
						<defs>
							<path id="SVGID_35_" class="st146" d="M973.3,88.1l0.8,0.7c-0.1,0-0.1-0.1-0.2-0.1l-0.8-0.7C973.2,88,973.3,88,973.3,88.1z"
								/>
						</defs>
						<clipPath id="SVGID_16_">
							<use xlink:href="#SVGID_35_"  style="overflow:visible;"/>
						</clipPath>
						<g class="st154">
							<polyline class="st155" points="973.9,88.7 973.1,88 973.1,88 973.9,88.7 973.9,88.7 							"/>
							<path class="st156" d="M973.9,88.7l-0.8-0.7c0,0,0,0,0.1,0L973.9,88.7C974,88.7,973.9,88.7,973.9,88.7"/>
							<path class="st157" d="M974,88.7l-0.8-0.7c0,0,0,0,0.1,0L974,88.7C974,88.7,974,88.7,974,88.7"/>
							<path class="st158" d="M974,88.7l-0.8-0.7c0,0,0,0,0.1,0L974,88.7C974.1,88.7,974.1,88.7,974,88.7"/>
							<path class="st159" d="M974.1,88.7l-0.8-0.7c0,0,0,0,0,0L974.1,88.7C974.1,88.7,974.1,88.7,974.1,88.7"/>
						</g>
					</g>
					<g>
						<polygon class="st61" points="971.1,88.7 970.3,88 973.1,88 973.9,88.7 						"/>
					</g>
					<g>
						<defs>
							<path id="SVGID_37_" d="M941.6,123.4l-0.8-0.7c0,0,0-0.1,0.1-0.2l0.8,0.7C941.6,123.2,941.6,123.3,941.6,123.4z"/>
						</defs>
						<use xlink:href="#SVGID_37_"  style="overflow:visible;fill:#2A3F55;"/>
						<clipPath id="SVGID_18_">
							<use xlink:href="#SVGID_37_"  style="overflow:visible;"/>
						</clipPath>
						<g class="st160">
							<path class="st32" d="M941.6,123.4l-0.8-0.7c0,0,0,0,0-0.1L941.6,123.4C941.6,123.3,941.6,123.3,941.6,123.4"/>
							<path class="st32" d="M941.6,123.3l-0.8-0.7c0,0,0,0,0,0L941.6,123.3C941.6,123.3,941.6,123.3,941.6,123.3"/>
							<path class="st32" d="M941.6,123.3l-0.8-0.7c0,0,0,0,0,0L941.6,123.3C941.6,123.2,941.6,123.3,941.6,123.3"/>
							<polyline class="st32" points="941.6,123.2 940.8,122.6 940.8,122.6 941.6,123.2 941.6,123.2 							"/>
							<polyline class="st32" points="941.6,123.2 940.8,122.6 940.8,122.6 941.6,123.2 941.6,123.2 							"/>
							<polyline class="st32" points="941.6,123.2 940.8,122.6 940.9,122.5 941.6,123.2 941.6,123.2 							"/>
							<polyline class="st32" points="941.6,123.2 940.9,122.5 940.9,122.5 941.7,123.2 941.6,123.2 							"/>
							<polyline class="st32" points="941.7,123.2 940.9,122.5 940.9,122.5 941.7,123.2 941.7,123.2 							"/>
							<polyline class="st32" points="941.7,123.2 940.9,122.5 940.9,122.5 941.7,123.2 941.7,123.2 							"/>
							<polyline class="st32" points="941.7,123.2 940.9,122.5 940.9,122.5 941.7,123.2 941.7,123.2 							"/>
							<polyline class="st32" points="941.7,123.2 940.9,122.5 940.9,122.5 941.7,123.2 941.7,123.2 							"/>
							<polyline class="st32" points="941.7,123.2 940.9,122.5 940.9,122.5 941.7,123.2 941.7,123.2 							"/>
							<polyline class="st32" points="941.7,123.2 940.9,122.5 940.9,122.5 941.7,123.2 941.7,123.2 							"/>
							<polyline class="st32" points="941.7,123.2 940.9,122.5 940.9,122.5 941.7,123.1 941.7,123.2 							"/>
							<polyline class="st32" points="941.7,123.1 940.9,122.5 940.9,122.5 941.7,123.1 941.7,123.1 							"/>
							<polyline class="st32" points="941.7,123.1 940.9,122.5 940.9,122.5 941.7,123.1 941.7,123.1 							"/>
						</g>
					</g>
					<g>
						<polygon class="st61" points="941.7,123.1 940.9,122.5 964.5,93.1 965.3,93.8 						"/>
					</g>
					<g>
						<path class="st32" d="M973.9,88.7c0.9,0-0.1,2.3-2.3,5.1l-23.6,29.3c-0.1,0.1-0.2,0.2-0.2,0.2c0,0,0-0.1,0.1-0.2l23.6-29.3
							c1-1.3,1.8-2.5,2.1-3.3c0.4-0.9,0.4-1.4,0-1.4h-2.8c-0.4,0-1.2,0.5-2.2,1.4c-1,0.9-2.1,2-3.1,3.3l-23.6,29.3
							c-0.1,0.1-0.2,0.2-0.2,0.2c0,0,0-0.1,0.1-0.2l23.6-29.3c2.2-2.8,4.8-5.1,5.7-5.1H973.9z"/>
					</g>
					<g>
						<defs>
							<path id="SVGID_39_" d="M965.3,93.8l-0.8-0.7c2.2-2.8,4.8-5.1,5.7-5.1l0.8,0.7C970.1,88.7,967.5,91,965.3,93.8z"/>
						</defs>
						<use xlink:href="#SVGID_39_"  style="overflow:visible;fill:#2A3F55;"/>
						<clipPath id="SVGID_20_">
							<use xlink:href="#SVGID_39_"  style="overflow:visible;"/>
						</clipPath>
						<g class="st161">
							<path class="st61" d="M965.3,93.8l-0.8-0.7c0,0,0,0,0-0.1L965.3,93.8C965.4,93.8,965.3,93.8,965.3,93.8"/>
							<path class="st61" d="M965.4,93.8l-0.8-0.7c0-0.1,0.1-0.1,0.1-0.2l0.8,0.7C965.5,93.6,965.4,93.7,965.4,93.8"/>
							<path class="st61" d="M965.5,93.6l-0.8-0.7c0-0.1,0.1-0.1,0.1-0.2l0.8,0.7C965.6,93.5,965.5,93.5,965.5,93.6"/>
							<path class="st61" d="M965.6,93.4l-0.8-0.7c0,0,0.1-0.1,0.1-0.1l0.8,0.7C965.7,93.3,965.7,93.4,965.6,93.4"/>
							<path class="st61" d="M965.7,93.3l-0.8-0.7c0,0,0.1-0.1,0.1-0.1l0.8,0.7C965.8,93.2,965.8,93.3,965.7,93.3"/>
							<path class="st61" d="M965.8,93.2l-0.8-0.7c0,0,0.1-0.1,0.1-0.1l0.8,0.7C965.9,93.1,965.9,93.1,965.8,93.2"/>
							<path class="st61" d="M965.9,93.1l-0.8-0.7c0,0,0.1-0.1,0.1-0.1l0.8,0.7C966,93,966,93,965.9,93.1"/>
							<path class="st61" d="M966,92.9l-0.8-0.7c0,0,0.1-0.1,0.1-0.1l0.8,0.7C966.1,92.9,966.1,92.9,966,92.9"/>
							<path class="st61" d="M966.1,92.8l-0.8-0.7c0,0,0.1-0.1,0.1-0.1L966.1,92.8C966.2,92.8,966.1,92.8,966.1,92.8"/>
							<path class="st61" d="M966.2,92.7l-0.8-0.7c0,0,0.1-0.1,0.1-0.1L966.2,92.7C966.3,92.7,966.2,92.7,966.2,92.7"/>
							<path class="st61" d="M966.3,92.6l-0.8-0.7c0,0,0.1-0.1,0.1-0.1L966.3,92.6C966.3,92.6,966.3,92.6,966.3,92.6"/>
							<path class="st61" d="M966.4,92.5l-0.8-0.7c0,0,0.1-0.1,0.1-0.1L966.4,92.5C966.4,92.5,966.4,92.5,966.4,92.5"/>
							<path class="st61" d="M966.5,92.4l-0.8-0.7c0,0,0.1-0.1,0.1-0.1L966.5,92.4C966.5,92.4,966.5,92.4,966.5,92.4"/>
							<path class="st61" d="M966.5,92.4l-0.8-0.7c0,0,0.1-0.1,0.1-0.1L966.5,92.4C966.6,92.3,966.6,92.3,966.5,92.4"/>
							<path class="st61" d="M966.6,92.3l-0.8-0.7c0,0,0.1-0.1,0.1-0.1L966.6,92.3C966.7,92.2,966.7,92.2,966.6,92.3"/>
							<path class="st61" d="M966.7,92.2l-0.8-0.7c0,0,0.1-0.1,0.1-0.1l0.8,0.7C966.8,92.1,966.7,92.1,966.7,92.2"/>
							<path class="st61" d="M966.8,92l-0.8-0.7c0,0,0.1-0.1,0.1-0.1l0.8,0.7C966.9,92,966.9,92,966.8,92"/>
							<path class="st61" d="M966.9,91.9l-0.8-0.7c0,0,0.1-0.1,0.1-0.1l0.8,0.7C967,91.8,967,91.9,966.9,91.9"/>
							<path class="st61" d="M967,91.8l-0.8-0.7c0.1-0.1,0.2-0.2,0.2-0.3l0.8,0.7C967.2,91.6,967.1,91.7,967,91.8"/>
							<path class="st61" d="M967.3,91.6l-0.8-0.7c0.1-0.1,0.2-0.2,0.3-0.4l0.8,0.7C967.5,91.3,967.4,91.4,967.3,91.6"/>
							<path class="st61" d="M967.6,91.2l-0.8-0.7c0.1-0.1,0.2-0.2,0.2-0.2l0.8,0.7C967.8,91,967.7,91.1,967.6,91.2"/>
							<path class="st61" d="M967.8,91l-0.8-0.7c0.1-0.1,0.1-0.1,0.2-0.2l0.8,0.7C968,90.9,967.9,90.9,967.8,91"/>
							<path class="st61" d="M968,90.8l-0.8-0.7c0,0,0.1-0.1,0.1-0.1l0.8,0.7C968.1,90.7,968.1,90.8,968,90.8"/>
							<path class="st61" d="M968.2,90.7l-0.8-0.7c0,0,0.1-0.1,0.1-0.1l0.8,0.7C968.2,90.6,968.2,90.6,968.2,90.7"/>
							<path class="st61" d="M968.3,90.5l-0.8-0.7c0,0,0.1-0.1,0.1-0.1l0.8,0.7C968.4,90.4,968.3,90.5,968.3,90.5"/>
							<path class="st61" d="M968.4,90.4l-0.8-0.7c0,0,0.1-0.1,0.1-0.1l0.8,0.7C968.5,90.3,968.5,90.4,968.4,90.4"/>
							<path class="st61" d="M968.6,90.3l-0.8-0.7c0.1-0.1,0.1-0.1,0.2-0.1l0.8,0.7C968.7,90.2,968.6,90.2,968.6,90.3"/>
							<path class="st61" d="M968.7,90.1l-0.8-0.7c0.1-0.1,0.1-0.1,0.2-0.2l0.8,0.7C968.9,90,968.8,90.1,968.7,90.1"/>
							<path class="st61" d="M968.9,90l-0.8-0.7c0.1-0.1,0.2-0.1,0.2-0.2l0.8,0.7C969.1,89.8,969,89.9,968.9,90"/>
							<path class="st61" d="M969.2,89.8l-0.8-0.7c0.1-0.1,0.2-0.1,0.2-0.2l0.8,0.7C969.3,89.6,969.2,89.7,969.2,89.8"/>
							<path class="st61" d="M969.4,89.6l-0.8-0.7c0.1-0.1,0.2-0.1,0.2-0.2l0.8,0.7C969.6,89.4,969.5,89.5,969.4,89.6"/>
							<path class="st61" d="M969.7,89.4l-0.8-0.7c0.1-0.1,0.1-0.1,0.2-0.2l0.8,0.7C969.8,89.3,969.7,89.3,969.7,89.4"/>
							<path class="st61" d="M969.9,89.2l-0.8-0.7c0.1,0,0.1-0.1,0.2-0.1l0.8,0.7C970,89.1,969.9,89.2,969.9,89.2"/>
							<path class="st61" d="M970.1,89.1l-0.8-0.7c0.1,0,0.1-0.1,0.2-0.1l0.8,0.7C970.2,89,970.1,89.1,970.1,89.1"/>
							<path class="st61" d="M970.2,89l-0.8-0.7c0,0,0.1-0.1,0.1-0.1l0.8,0.7C970.3,88.9,970.3,89,970.2,89"/>
							<path class="st61" d="M970.4,88.9l-0.8-0.7c0,0,0.1,0,0.1-0.1l0.8,0.7C970.5,88.9,970.4,88.9,970.4,88.9"/>
							<path class="st61" d="M970.5,88.8l-0.8-0.7c0,0,0.1,0,0.1-0.1l0.8,0.7C970.6,88.8,970.5,88.8,970.5,88.8"/>
							<path class="st61" d="M970.6,88.8l-0.8-0.7c0,0,0.1,0,0.1,0l0.8,0.7C970.7,88.8,970.6,88.8,970.6,88.8"/>
							<path class="st61" d="M970.7,88.8l-0.8-0.7c0,0,0.1,0,0.1,0L970.7,88.8C970.8,88.7,970.7,88.7,970.7,88.8"/>
							<path class="st61" d="M970.8,88.7l-0.8-0.7c0,0,0.1,0,0.1,0L970.8,88.7C970.9,88.7,970.8,88.7,970.8,88.7"/>
							<path class="st61" d="M970.9,88.7l-0.8-0.7c0,0,0.1,0,0.1,0L970.9,88.7C971,88.7,970.9,88.7,970.9,88.7"/>
							<path class="st61" d="M971,88.7l-0.8-0.7c0,0,0,0,0.1,0L971,88.7C971,88.7,971,88.7,971,88.7"/>
						</g>
						<use xlink:href="#SVGID_39_"  style="overflow:visible;fill:none;stroke:#2A3F55;stroke-width:0.25;stroke-miterlimit:10;"/>
					</g>
				</g>
			</g>
		</g>
		<g>
			<g>
				<path class="st62" d="M962.4,31.7c1.1,0.5,1.7,1.7,2,2.8c0.3,1.3-0.3,3.1,0.4,4.3c0.3,0.5,1.1,0.5,1.6,0.7
					c2.4,0.6,3.3,0.9,2.9,1.3c-0.4,0.4-4.6,1-5,1.7c-0.4,0.7-1.2,4.1-1.7,4.5c-0.5,0.5-3-0.3-3.5,0.1c-0.5,0.5-0.4,3.3-0.4,3.3
					l-6.9-1c0,0,2.4-6.2,1.7-8.3c-0.8-2.1,0.3-3.2,0.8-5.4c0.8-3.6,4.1-4.9,7.5-4.2C962,31.6,962.2,31.6,962.4,31.7z"/>
				<path class="st61" d="M954.7,44.7c1.3,0.3,1.7-2.1,1.5-3.3c-0.2-1.4-1.8-2.1-1.2-3.8c0.1-0.3,0.3-0.6,0.7-0.7
					c0.7-0.2,0.9,0.7,1.1,1.2c0.2,0.4,0.5,2.3,1.1,2.3c2.4,0.1,1.5-3.9,2.5-5.2c0.9-1.1,2.2,0.6,3.5,0.4c0,0,1-1.2-1.4-2.7
					c0,0,5,3.9,5,2.6c-0.1-1.3-3.1-3.4-3.1-3.4s4.2,2.8,4.6,0.9c0.4-1.9-6.7-4.2-8-3.6c-0.2,0.1-2.2,0-2.4-0.1
					c-1.3-0.3-2.7-0.4-3.9-0.1c-4.2,1-5.6,6.9-5,10.6c0.3,1.9,1.1,3.6,2.3,5.1c0.4,0.5,1.3,1.8,1.7,0.9c0.2-0.4-0.2-1.3-0.3-1.7
					C953.2,44.1,953.6,44.4,954.7,44.7z"/>
			</g>
			<g>
				<g>
					<g>
						<path class="st124" d="M975.4,81.9c-1.5-3.6-2.2-5.8-3.4-9.3c-2.3-7.7-1.3-12.3-4.2-18.2c-2.8-5.8-11.3-9.5-17.2-6.2
							c-4.6,2.6-4.8,6.7-4.2,11.4c0.5,4,1.4,8,1.5,12.1c0.1,3.8-1.1,13,2.3,15.4c3.7,2.6,11.2,0,14.8-1.5
							C971,83.1,972.9,84.1,975.4,81.9z"/>
					</g>
				</g>
			</g>
			<g>
				<path class="st62" d="M983.2,82.4c-4.6-6.5-21.9-8.4-21.9-8.4s0,0,0,0c-3.2-0.8-6.6,0.6-8.4,3.6c-2.2,3.6-1,8.3,2.5,10.4
					c2.1,1.9,10.9,2,18.1,0.8c-2.7,7,3,21.7,3.8,24.4c1.4,0.5,2.9,0.6,4.4,0.7c2.2-13.5,2.1-27.1,2-29.8
					C983.8,83.6,983.6,83,983.2,82.4z"/>
				<g>
					<path class="st61" d="M974.8,111.8c0-0.1,0.1-0.2,0.1-0.3c0.2-0.3,0.5-0.4,0.8-0.4c0.3,0,0.8-0.1,1.1,0.1
						c0.3,0.1,0.5,0.4,0.7,0.6c0.3,0.3,0.7,0.5,1.1,0.7c0.6,0.3,1.4,0.6,2.1,0.6c1,0,0.7-0.9,1.4-0.2c0.7,0.8,3.8,3.5,5,3.5
						c1.2,0,3.1-0.3,3.4,1.2c0.3,1.5-2.6,3.4-4.8,3.5c-2.1,0.1-5.3-0.7-6-0.3c-0.7,0.4-6.4,0-6.9-1.9c-0.3-1.3,0.5-2.6,1.2-3.6
						c0.3-0.5,0.7-0.9,0.8-1.4c0.1-0.3,0.1-0.6,0.1-0.9C975,112.6,974.7,112.2,974.8,111.8z"/>
					<path class="st145" d="M972.9,117.8c0,0.2,0.9,1.1,2.4,1.5c1.4,0.3,2.9,0.4,4.3,0.4c0.7,0,1.5,0,2.2,0.1c0.7,0,1.4,0.2,2.1,0.2
						c1.2,0,2.5,0,3.6-0.5c1.1-0.5,2.4-1.1,2.8-2.3"/>
					<path class="st145" d="M984.5,114.9c0,0-1.2,0.2-1.7,1"/>
					<path class="st145" d="M983.5,114.2c0,0-1.2-0.4-1.8,0.5"/>
				</g>
			</g>
			<g>
				<polyline class="st162" points="996.8,15.7 962.5,47 999.3,85.9 				"/>
				<path class="st162" d="M998.6,15.7c0,0-2.6-1.2-3.2,2.7c-0.7,3.9,1.8,4.4,2.4,1.5"/>
				<path class="st162" d="M996.9,15.9c-1.2,0.9-1.4,3.4-0.7,4.8c0.8,1.7,3.5,2.7,4.7,1.1c1.7-2.3-1.4-7.3-3.7-6.1
					C997.1,15.8,997,15.9,996.9,15.9z"/>
				<line class="st162" x1="995.8" y1="18.7" x2="997.5" y2="18.7"/>
				<polyline class="st162" points="996.8,21.6 998.1,19.1 999.6,20.4 				"/>
				<path class="st162" d="M998.6,22.6c0,0,1.6-4.7,2.8-2.2"/>
				<path class="st162" d="M998.2,18c0,0,1.5,0.8,1.8,0.7s0.5-1.4,0.7-0.9C1000.7,17.7,999.8,16.6,998.2,18z"/>
				<path class="st162" d="M1000.2,19.8c-0.3,0.1-0.2-1.1-0.2-1.1l0.8,63.9"/>
				<path class="st162" d="M996.8,15.7c0,0,0.3,2,1.5,2.9"/>
				<path class="st162" d="M999,15.9c0,0-0.6,2-1.8,1.3c-0.6-0.3,0.6-1.6,0.6-1.6"/>
				<ellipse class="st32" cx="997.9" cy="18.8" rx="1.1" ry="1.6"/>
				<path class="st162" d="M998.2,18c0,0,8.1-0.5,12,3.8c3.9,4.2,5.6,10.5,5.6,10.5"/>
				<path class="st162" d="M1001.2,18.8c0,0,9.3,0.1,12,9.3"/>
				<g>
					<path class="st32" d="M1017.5,67c0,0-1.5,0.4-3.1-2.1c-1.6-2.5-2.1-2.7-2.8-2.6c-0.6,0.1-0.7-0.4-0.7-0.4s2.8-10.9,2.5-12.1
						c-0.3-1.2-2.1-4.3-1.1-10.6c1-6.3,2.3-6.9,2.3-6.9s0.2,1.2,1.1,0.4c0.9-0.8-0.4-2.8-0.4-2.8l-1.9-4.7c0,0-2.4-0.1-2.4,0.8
						c0.1,0.9,0.6,3.8-0.7,5.7c-1.3,1.9-1.9,2.6-1.3,3.5c0.6,0.9,0.6,2.7,0.3,3.1c-0.3,0.4-2.6,3.2-2.9,10.1
						c-0.2,6.7,2.4,11.9,3.4,14.1c0,0,0,0,0,0c0,0.1,0,0.3,0,0.5c0,0.2-0.1,1.5-0.4,2c-0.3,0.6,0.9,1.5,0.9,1.5s2.3,1,2.2,5.8
						c0,0-0.3,0.5,0.8,1s1.7-0.2,1.8-0.9c0.1-0.7,1-2.2,0.7-3.6C1016.1,68.8,1017.8,68.6,1017.5,67z M1012.7,35.7
						c-0.2,0.6-0.4,1.1-0.6,1.7c-0.1,0.3-0.2,0.6-0.3,0.9c0,0.1-0.1,0.4-0.3,0.4c-0.2,0.1-0.3-0.6-0.5-1s-0.6,0.1-0.6-0.2
						c0-0.1,0.1-0.3,0.2-0.4c0.4-0.5,0.8-1,1.2-1.5c0.1-0.2,0.3-0.4,0.5-0.6c0,0,0,0,0,0c0.2-0.1,0.4-0.1,0.5,0.2
						C1012.8,35.4,1012.7,35.6,1012.7,35.7z M1011.3,31.6c0.2-0.3,0.3-0.6,0.3-1c0.1-0.4,0.2-0.9,0.3-1.3c0.1-0.3,0.1-0.7,0.4-0.8
						c0.2-0.1,0.4,0,0.6,0.1c0.2,0.1,0.3,0.3,0.4,0.5c0.2,0.5,0.2,1.2,0.2,1.7c-0.1,0.8-0.8,1.3-1.4,1.5
						C1011.3,32.7,1011,32.1,1011.3,31.6z M1009.6,34.4c0-0.3,0.3-0.6,0.4-0.8c0.2-0.2,0.5-0.7,0.7-0.9c0.1,0,0.1,0,0.2,0
						c0.1,0,0.2,0,0.3,0c0.4,0.1,1-0.1,1.2,0.4c0.4,0.7-0.5,1.6-0.8,2.1c-0.2,0.3-0.4,0.5-0.7,0.8c-0.1,0.1-0.3,0.3-0.4,0.4
						c-0.3,0.1-0.6-0.3-0.6-0.7C1010,35.2,1009.7,34.8,1009.6,34.4z M1008,54.1c-0.3-1-0.4-2-0.4-3c-0.1-1.1-0.1-2.3,0-3.5
						c0-0.6,0.1-1.3,0.1-1.9c0.1-0.5,0.2-1,0.3-1.5c0.2-0.6,0.6-1.9,1.3-1.9c0.2,0,0.3,0.1,0.5,0.3c1.2,1.3,1.2,2.6,1.2,2.9
						c-0.2,1.1-0.7,2.3-0.6,3.5c0,1.4,0.3,2.7,0.7,3.9c0.2,0.7,0.6,2.4,0.1,3C1010.4,56.7,1008.8,56.7,1008,54.1z M1010.6,65.1
						c-0.3-0.4,0-1.2,0.1-1.6c0-0.2,0.1-0.4,0.3-0.5c0.2-0.1,0.4,0,0.6,0.1c0.2,0.1,0.3,0.3,0.4,0.4c0.4,0.4,1.1,0.6,1.3,1.2
						c0.1,0.3,0.3,0.7,0.1,1c-0.3,0.5-1,0.2-1.4,0.4C1011.4,66.1,1010.8,65.4,1010.6,65.1z M1014.1,70.5c-0.3,0.3-0.6,0.1-0.9-0.4
						c-0.2-0.4-0.3-0.9-0.4-1.3c-0.1-0.6-0.3-0.9-0.5-1.4c-0.1-0.2-0.2-0.4-0.2-0.6c-0.1-1.2,1.4-0.2,1.7,0.1
						c0.2,0.2,0.4,0.4,0.6,0.6c0.2,0.3,0.4,0.6,0.4,0.9C1015,69.1,1014.6,70.1,1014.1,70.5z"/>
				</g>
				<path class="st162" d="M1000.6,85.6c0,0-2.5,1.4-3.4-2.4c-1-3.8,1.4-4.5,2.3-1.8"/>
				<path class="st162" d="M998.9,85.6c-1.3-0.8-1.6-3.2-1.1-4.7c0.7-1.8,3.3-3.1,4.6-1.6c1.9,2.1-0.8,7.4-3.3,6.4
					C999.1,85.7,999,85.7,998.9,85.6z"/>
				<line class="st162" x1="999.4" y1="82.8" x2="997.6" y2="83"/>
				<polyline class="st162" points="998.4,79.9 999.9,82.3 1001.3,80.9 				"/>
				<path class="st162" d="M1000.1,78.8c0,0,2,4.5,3,1.9"/>
				<path class="st162" d="M1000.1,83.4c0,0,1.4-1,1.7-0.9c0.3,0.1,0.6,1.3,0.8,0.9C1002.6,83.4,1001.8,84.6,1000.1,83.4z"/>
				<path class="st162" d="M1001.8,82.5c0,0-0.1-1.2,0.2-1.1"/>
				<path class="st162" d="M998.8,85.8c0,0,0.1-2,1.2-3.1"/>
				<path class="st162" d="M1001.1,85.4c0,0-0.7-1.9-1.9-1.1c-0.6,0.4,0.7,1.6,0.7,1.6"/>
				
					<ellipse transform="matrix(0.999 -4.394925e-02 4.394925e-02 0.999 -2.6662 44.0168)" class="st32" cx="999.7" cy="82.6" rx="1.1" ry="1.6"/>
				<path class="st162" d="M1000.1,83.4c0,0,8.1-0.4,11.7-5c3.6-4.6,4.8-11.1,4.8-11.1"/>
				<path class="st162" d="M1003,82.3c0,0,9.2-1.1,11.2-10.6"/>
				<rect x="1011.1" y="40" class="st32" width="8.2" height="1.9"/>
				<path class="st163" d="M1020.7,37.2c-0.1,0.1-1.4,1.4-1.4,1.4v5.2l1.4,1.2V37.2z"/>
				<path class="st32" d="M1017.8,41.3c0,0,4.7,0.1,4.8-0.3c0.1-0.4,0.2-1.8,0.2-1.8l2.3-0.2v3.2l-0.4,0.6l-2,0.1l-0.2-1
					C1022.5,41.9,1015.5,41.7,1017.8,41.3z"/>
				<g>
					<path class="st61" d="M1067.5,60.2h-57c-0.3,0-0.5-0.2-0.5-0.5l0,0c0-0.3,0.2-0.5,0.5-0.5h57c0.3,0,0.5,0.2,0.5,0.5l0,0
						C1068,60,1067.8,60.2,1067.5,60.2z"/>
					<path class="st58" d="M1067.3,60.8h-2.5c-0.6,0-1-0.5-1-1l0,0c0-0.6,0.5-1,1-1h2.5c0.6,0,1,0.5,1,1l0,0
						C1068.4,60.3,1067.9,60.8,1067.3,60.8z"/>
				</g>
				<g>
					<path class="st61" d="M1004.4,86.7L1004.4,86.7c-0.4-0.1-0.7-0.6-0.5-1l7.9-23.3c0.1-0.4,0.6-0.6,0.9-0.5l0.1,0
						c0.4,0.1,0.6,0.6,0.5,0.9l-7.9,23.3C1005.2,86.6,1004.8,86.8,1004.4,86.7z"/>
					<path class="st58" d="M1002,89.4l2.2-8c0.2-0.9,1.2-1.4,2-1.1l0,0c0.9,0.2,1.4,1.2,1.1,2l-2.2,8c-0.2,0.9-1.2,1.4-2,1.1l0,0
						C1002.3,91.2,1001.7,90.3,1002,89.4z"/>
				</g>
			</g>
			<path class="st62" d="M1014.1,50.3c-0.3-0.3-1.6-1.4-2-1.4c-0.4,0-0.7,0.3-1.6,0.6c-0.9,0.3-3.2,2.4-4.4,3.7
				c-1.1,1.3-1.8,2.8-3.3,3.9c-1.5,1.1-7,3.4-7,3.4s0,0,0,0c-10.2,2.7-19.2,6.3-22.5,7.6c-7.9-0.5-20,6.2-20,6.2s0,0,0,0
				c-3.1,1.1-5.1,4.3-4.9,7.8c0.3,4.2,3.9,7.4,8,7.1c3.6,0.4,14.9-8,19.3-14.3c0.8,0.4,1.8,0.8,2.9,1.1c5.8,1.5,15.3-5.9,20.2-10
				c0,0,0,0,0,0c5.9-4,9.8-1.6,11.4-2.3c1.6-0.8,2.2-2.5,1.2-4.1c-0.6-0.9-0.4-2.2-0.2-3.2c0.1-0.6,0.3-1.1,0.4-1.6
				c0.1-0.3,0-0.7,0.2-1c0.1-0.3,0.3-0.5,0.3-0.8c0.1-0.5,0.2-1.3,0.2-1.3s0.1,0.6,0.9,0.2C1013.9,51.4,1014.4,50.5,1014.1,50.3z"/>
			<g>
				<path class="st59" d="M966.4,48.4c0,0-8-1.6-9-0.7c-1,0.8-1.3,3.8,2.3,3.1C963.3,50.1,966.3,49.8,966.4,48.4z"/>
				<path class="st61" d="M958.8,48.9c2.6-0.4,5.3-0.6,7.9-0.9l7.9-0.1l15.9-0.2l15.9-0.2l7.9-0.1c2.6,0.2,5.3,0.4,7.9,0.7
					c-2.6,0.4-5.3,0.6-7.9,0.9l-7.9,0.1l-15.9,0.2l-15.9,0.2l-7.9,0.1C964.1,49.4,961.5,49.2,958.8,48.9z"/>
			</g>
			<g>
				<path class="st59" d="M974.2,67.7c0,0,0.5,6.7,1.7,8.5c1.2,1.7,0,1.2,0,1.2s-3.6,6.2-3,9.4c0.6,3.2-0.1,3.1-0.1,3.1
					s-4.9,1-12,1.1c-7.1,0.1-13.6-3.3-13.3-9.6c0.3-6.3,0.3-6.3,0.3-6.3s0.8,0,5-2.6c4.2-2.6,8.8-4.2,12.8-4.9
					C969.7,67.1,974.9,65.2,974.2,67.7z"/>
			</g>
		</g>
	</g>
	<g>
		<g>
			<ellipse transform="matrix(0.7718 -0.6359 0.6359 0.7718 28.678 273.9512)" class="st61" cx="396" cy="97" rx="17.5" ry="22.5"/>
			<g>
				<g>
					<path class="st102" d="M389.4,105.7c0,0,8.4-0.1,8.8,0c0.4,0.1,14.7-3.6,18.2,1.5c3.5,5.1,0,4.8,0,4.8
						c-2.7-0.2-5.1,1.3-5.3,3.5c0,0,0,0-3,0.4c-3,0.4-6.4,0.5-6.4,0.5c-2.7,0.1-7.2,0.1-10,0.1l-7.4-0.1c-2.7,0-3.9-2-2.6-4.5
						C381.8,111.9,385.2,105.8,389.4,105.7z"/>
					<path class="st56" d="M389.4,105.7c0,0,8.4-0.1,8.8,0c0.4,0.1,14.7-3.6,18.2,1.5c3.5,5.1,0,4.8,0,4.8c-2.7-0.2-5.1,1.3-5.3,3.5
						c0,0,0,0-3,0.4c-3,0.4-6.4,0.5-6.4,0.5c-2.7,0.1-7.2,0.1-10,0.1l-7.4-0.1c-2.7,0-3.9-2-2.6-4.5
						C381.8,111.9,385.2,105.8,389.4,105.7z"/>
				</g>
			</g>
			<g>
				<path class="st141" d="M382.4,86.3l13-3c2.7-0.6,5.7,1,6.7,3.5l9.4,24.8"/>
			</g>
		</g>
		<g>
			<g>
				<path class="st102" d="M358.6,71.5c0,0-4.3,0.9-5.1,5.8c-0.7,4.9-0.7,4.9-0.7,4.9c0.9,1.6,3.9,2.5,6.5,1.9c0,0,2.1-0.5,3.2-0.5
					C363.6,83.5,363.5,69.2,358.6,71.5z"/>
				<path class="st56" d="M358.6,71.5c0,0-4.3,0.9-5.1,5.8c-0.7,4.9-0.7,4.9-0.7,4.9c0.9,1.6,3.9,2.5,6.5,1.9c0,0,2.1-0.5,3.2-0.5
					C363.6,83.5,363.5,69.2,358.6,71.5z"/>
			</g>
			<path class="st62" d="M382.6,75.1c0,0-15.6-13.7-8.6-18.8C381.2,51.2,390.8,72.8,382.6,75.1z"/>
			<g>
				<path class="st164" d="M383.9,110c0.2,0.4,5,7.5,3.8,9.4c-1.2,1.9-6.1-0.8-8.8-3.2c-2.7-2.4-4.7-5.3-2.5-7.7
					c1.1-1.2,0.9,1,3.3,1.1C382.2,109.7,383,108.6,383.9,110z"/>
				<path class="st58" d="M399.6,82.6c-0.3-1.9-2.3-2.6-3.9-3.2c-2.8-1.1-5.5-1.2-8.5-1.2c-4.3,0-8.9-0.1-13.3-0.3
					c-1.4-0.1-5.4-0.9-6.6-1.6l2.2,7.1l1.3,0.8c-0.1,0.1,3.1,0.8,3.1,0.8c0,0,9.3,1.3,9.5,2.5c0.2,1.2-5.7,17.6-7.4,19.4
					c-1.7,1.8,5.4,3.5,8.2,5.6c2.8,2.1,1.2,0.1,9.4-15.4c1.5-2.7,2.9-5.5,4.1-8.4C398.5,86.7,399.9,84.6,399.6,82.6z"/>
			</g>
			<g>
				<g>
					<path class="st58" d="M372.6,82.2c-4.8,0.9-15.9,4.1-14.9-4.4c0.4-3.8,0.4-8.8,1.1-12.6c0.7-4,1.3-8.7,5.6-9.6
						c3.4-0.7,6.8-0.9,10.2-0.5c1,0.1,2.1,0.4,3,0.9c1.1,0.6,1.3,1.5,1.7,2.7c1.2,2.9,1.8,6.1,2.1,9.2c0.2,2.2,0.1,4.4,0.5,6.6
						c0.4,2.3,1.5,3.8,3.3,5.2c0.8,0.6,0.5,0.4,0,1.7C384.4,83.4,377.3,81.3,372.6,82.2z"/>
				</g>
				<path class="st62" d="M367.5,57.6c0.3,1.4,1,2.8,3,2.8c3.8,0.1,4.5-1.1,4.3-2.1c-0.3-1-1.8-3.5-1.8-3.5v-5.8h-5.6v6
					c0,0-0.1,0.8,0,1.8L367.5,57.6z"/>
			</g>
			<g>
				<g>
					<path class="st61" d="M364.3,30.8c-5.9,0.4-5.6,2-4.1,2.2c-1-0.2-2.3,0.4-2.9,1.3c-0.2,0.2-0.2,0.6-0.1,0.8
						c0.2,0.3,0.5,0.3,0.9,0.4c0.8,0.1,1.7,0,2.5-0.2c-1.3,0.3-2.6,0.7-3.8,1.3c-1.1,0.5-2.9,2.4-0.4,2.6c-0.9,0.6-1.4,1.4-1,2.5
						c0.3,0.9,1,1,1.7,0.9c-0.6,0.8-1,1.6-0.8,2.4c0.4,1.4,1.7,0.7,2.8-0.3c-1.1,1.4-1.9,3.1,0.5,3.5c4.1,0.7,6-11.1,12.6-11.4
						C372.2,36.8,370.2,30.4,364.3,30.8z"/>
					<path class="st58" d="M372.7,35.7c0,0-1.1-2.5-4.3-1.2s-2.7,4-2.1,4.5C366.9,39.6,373,37.3,372.7,35.7z"/>
				</g>
				<g>
					<path class="st62" d="M377.5,44.5c0.4,2.3-0.5,5.1-1.5,7.1c-1.1,2.4-3.2,3.9-5.9,3.2c0,0-4.2-0.5-4.8-6c0,0-3.1-0.3-2.7-2.8
						c0.1-0.8,0.4-1.6,1.3-1.9c0.4-0.2,0.7,0,1.1-0.3c0.4-0.2,0.6-0.8,0.9-1.1c1-1.1,2-2.1,3.2-2.9c3.6-2.2,6.6,0,8.2,3.6
						C377.3,43.6,377.4,44,377.5,44.5z"/>
					<path class="st62" d="M373.3,44.9c-1.6,3-0.1,4.6-0.1,5.4c-0.1,0.8-1.6-0.1-2.2-1.2"/>
				</g>
				<path class="st61" d="M364.9,44.4c0.5,0.3,0.3,1,0.7,1.4c0.5,0.5,0.8-0.2,1-0.6c1.2-2.1,1.2-3.5,1.2-3.5s-0.1,4.3,2.3,1.9
					s2.3-3.6,2.3-3.6s-0.1,5.2,2,3.6c2.1-1.6,1-3.2,1-3.2s-0.5,6.2,1.4,5.9c1.9-0.3,2-2.7,2-3c0-0.2,2.5,1.7,1.8-1.3
					c-1.1-4.7-6.8-7.5-11.3-6.4c-2.5,0.6-4.5,2.2-5.9,4.4c-2.5,3.7-1.3,8.1,2.3,10.5c0,0,0.6-2-0.6-2.9c-0.7-0.5-1.3-1.5-1.3-2.4
					c0-0.5,0.3-1.3,1-1.1C364.8,44.4,364.8,44.4,364.9,44.4z"/>
			</g>
			<g>
				<path class="st164" d="M373.8,110c0.2,0.4,5,7.5,3.8,9.4c-1.2,1.9-6.1-0.8-8.8-3.2c-2.7-2.4-4.7-5.3-2.5-7.7
					c1.1-1.2,0.9,1,3.3,1.1C372,109.7,372.8,108.6,373.8,110z"/>
				<path class="st58" d="M389.5,82.6c-0.3-1.9-2.3-2.6-3.9-3.2c-2.8-1.1-5.5-1.2-8.5-1.2c-4.3,0-8.9-0.1-13.3-0.3
					c-1.4-0.1-5.4-0.9-6.6-1.6l2.2,7.1l1.3,0.8c-0.1,0.1,3.1,0.8,3.1,0.8c0,0,9.3,1.3,9.5,2.5c0.2,1.2-5.7,17.6-7.4,19.4
					c-1.7,1.8,5.4,3.5,8.2,5.6c2.8,2.1,1.2,0.1,9.4-15.4c1.5-2.7,2.9-5.5,4.1-8.4C388.4,86.7,389.8,84.6,389.5,82.6z"/>
			</g>
			<g>
				
					<ellipse transform="matrix(0.9253 -0.3792 0.3792 0.9253 0.2119 150.2127)" class="st63" cx="381.5" cy="74.6" rx="8.1" ry="8.1"/>
				<g>
					<path class="st56" d="M373.5,74.1c0,0,1.8-1.9,7.1,2.2c0,0-0.3,6.3,3.8,5.9"/>
					<path class="st56" d="M380.5,66.6c0,0,2.5-0.2,5.3,2.4c0,0,1.3,4.4-5.2,7.3"/>
					<path class="st56" d="M385.7,69c0,0,1,0.1,1.8,0.7"/>
					<path class="st56" d="M385.3,72.2c0,0-5.3-5.8-8.8-3.9"/>
					<path class="st56" d="M384,74c0,0-7-4.6-9.6-3.2"/>
					<path class="st56" d="M377.1,74.2c0,0-0.2,7.3,3.4,8.3"/>
					<path class="st56" d="M375.4,73.7c0,0-1.7,4.9,0.9,7.1"/>
					<path class="st56" d="M381.2,80.1c0,0,7.9-3.9,7.1-9.6"/>
					<path class="st56" d="M382.2,81.6c0,0,7.6-2.3,7.3-7.9"/>
				</g>
			</g>
			<path class="st62" d="M386,68.6c-0.5-0.7-2.5-1.3-3.1-1.4c-0.6-0.2-5.9,0.6-6.5,0.7c0,0-6.8,1.8-9.6,1c-0.7-0.2-1.7-0.4-2.9-0.4
				l0,0l0,0c2.3-4.9,2.6-10.6-1.5-11.6c-7-1.7-8.5,11.9-8.8,16.9c-0.2,0.7-0.2,1.3-0.1,1.7c0,0,0,0.1,0,0.1c0,0,0,0,0,0
				c0.6,1.4,2.9,1.2,5,1.2c3,0,14-3.1,15.6-4.2c0,0,2.2-1.8,3.2-1.6c1,0.2,2.3-0.7,2.5-0.6c0.2,0.1,1.4,0.9,1.8,0.9
				c0.4,0,0.5-0.3,0.5-0.6c-0.1-0.3-1-1.1-1-1.1s0.6-0.1,1.5,0.1c0.9,0.2,2.2,1.4,2.9,1.6c0.7,0.2,0.3-0.9,0.3-0.9s0,0,0.5,0.1
				C387,70.5,386.6,69.4,386,68.6z"/>
		</g>
		<g>
			<g>
				<g>
					<path class="st61" d="M414.6,116.7c0,2.3-1.7,4.2-3.9,4c-2.1-0.1-3.9-2.1-3.9-4.5c0-2.3,1.7-4.2,3.9-4
						C412.9,112.3,414.6,114.3,414.6,116.7z"/>
					<path class="st59" d="M413.1,116.6c0,1.5-1.1,2.6-2.4,2.6c-1.3-0.1-2.4-1.4-2.4-2.9c0-1.5,1.1-2.6,2.4-2.6
						C412,113.8,413.1,115.1,413.1,116.6z"/>
					<path class="st61" d="M410.4,116.5c0,0.3-0.2,0.4-0.4,0.4c-0.2,0-0.4-0.2-0.4-0.5c0-0.3,0.2-0.4,0.4-0.4
						C410.2,116.1,410.4,116.3,410.4,116.5z"/>
				</g>
				<path class="st143" d="M410,111.7c-0.3,0.7,0.4,4.8,0.4,4.8"/>
			</g>
			<g>
				<g>
					<path class="st61" d="M405.3,119.4c0,2.3-1.7,4.2-3.9,4c-2.1-0.1-3.9-2.1-3.9-4.5s1.7-4.2,3.9-4
						C403.6,115,405.3,117,405.3,119.4z"/>
					<path class="st59" d="M403.8,119.3c0,1.5-1.1,2.6-2.4,2.6c-1.3-0.1-2.4-1.4-2.4-2.9c0-1.5,1.1-2.6,2.4-2.6
						C402.7,116.6,403.8,117.8,403.8,119.3z"/>
					<path class="st61" d="M401.1,119.3c0,0.3-0.2,0.4-0.4,0.4c-0.2,0-0.4-0.2-0.4-0.5c0-0.3,0.2-0.4,0.4-0.4
						C400.9,118.8,401.1,119,401.1,119.3z"/>
				</g>
				<path class="st143" d="M402,113c0,0-1.1,0.8-1.3,1.5c-0.3,0.7,0.4,4.8,0.4,4.8"/>
			</g>
			<g>
				<path class="st91" d="M382.2,111.6c0,0,33.5-2,32.6-1c-1,1-5.8,4.6-19.8,5.2s-19.8,0.3-19.8,0.3c-2.7-0.2-3-1.4-0.7-2.8
					C374.5,113.3,378.3,111.1,382.2,111.6z"/>
				<path class="st56" d="M382.2,111.6c0,0,33.5-2,32.6-1c-1,1-5.8,4.6-19.8,5.2s-19.8,0.3-19.8,0.3c-2.7-0.2-3-1.4-0.7-2.8
					C374.5,113.3,378.3,111.1,382.2,111.6z"/>
			</g>
			<g>
				<path class="st141" d="M366.8,89.2l13-3c2.7-0.6,6.1,0.8,7.5,3.1l14.1,22.8"/>
			</g>
			<g>
				<g>
					<path class="st102" d="M375.3,107.9c0,0,8.4-0.2,8.9,0s14.8-4.1,18.3,1.7c3.5,5.8,0,5.5,0,5.5c-2.7-0.3-5.1,1.5-5.3,4
						c0,0,0,0-3,0.5c-3,0.5-6.4,0.6-6.4,0.6c-2.7,0.1-7.2,0.1-10,0.1l-7.5-0.1c-2.7,0-4-2.1-2.9-4.6
						C367.4,115.6,371,108,375.3,107.9z"/>
					<path class="st56" d="M375.3,107.9c0,0,8.4-0.2,8.9,0s14.8-4.1,18.3,1.7c3.5,5.8,0,5.5,0,5.5c-2.7-0.3-5.1,1.5-5.3,4
						c0,0,0,0-3,0.5c-3,0.5-6.4,0.6-6.4,0.6c-2.7,0.1-7.2,0.1-10,0.1l-7.5-0.1c-2.7,0-4-2.1-2.9-4.6
						C367.4,115.6,371,108,375.3,107.9z"/>
				</g>
				<path class="st165" d="M373.6,112h10.7c0,0,15.8-2.6,17.4-3.4"/>
				<path class="st165" d="M370.1,117.1c0,0,12.8-0.1,14,0s19.1-5.6,19.1-5.6"/>
			</g>
			<g>
				<g>
					<g>
						<path class="st32" d="M338.8,117.5c-1.6,1.7-4.1,1.8-5.6,0.2s-1.3-4.2,0.3-5.9c1.6-1.7,4.1-1.8,5.6-0.2
							C340.6,113.1,340.5,115.8,338.8,117.5z"/>
						<path class="st59" d="M337.7,116.3c-1,1.1-2.6,1.2-3.5,0.2c-0.9-1-0.8-2.7,0.2-3.7c1-1.1,2.6-1.2,3.5-0.2
							C338.9,113.6,338.8,115.3,337.7,116.3z"/>
						<path class="st32" d="M335.9,114.4c-0.2,0.2-0.4,0.2-0.6,0c-0.2-0.2-0.1-0.5,0-0.6c0.2-0.2,0.4-0.2,0.6,0
							C336.1,113.9,336,114.2,335.9,114.4z"/>
					</g>
					<path class="st143" d="M345,110.7c0,0-5.4-0.3-6.1,0c-0.7,0.3-3.5,3.1-3.5,3.1"/>
				</g>
				<g>
					<ellipse transform="matrix(0.5 -0.866 0.866 0.5 92.8645 360.4995)" class="st61" cx="358.6" cy="99.8" rx="22.6" ry="20.4"/>
					<ellipse transform="matrix(0.5 -0.866 0.866 0.5 92.8624 359.9565)" class="st59" cx="358.2" cy="99.6" rx="19.7" ry="17.2"/>
					<path class="st61" d="M356.8,98.8c-1,1-2.5,1.1-3.4,0.1c-0.9-1-0.8-2.6,0.2-3.6c1-1,2.5-1.1,3.4-0.1
						C357.8,96.1,357.8,97.7,356.8,98.8z"/>
				</g>
			</g>
		</g>
	</g>
	<g>
		<g>
			<g>
				<path class="st62" d="M455.7,4c0.3-1.4,1.6-1.1,1.6-1.1c0.3-1.5,1.6-1,1.6-1c-0.9-0.6-0.4-2,0.2-1.6c0.6,0.4,3.2,0.9,3.2,0.9
					s1.3,2.7,1.6,4.7c0.3,2-1.6,2.4-1.8,2.5c0,0,0,0,0,0.1c1.1,1.7,7.5,11,8.3,15.1c2.3,1.6,4.6,3.6,6.7,4.6
					c4.2,1.9,5.1,6.4,4.5,9.2c-0.5,2.6-3.4,2-5.4,1c-0.5-0.2-1-0.5-1.3-0.7c-2.8-1.8-5.4-4.4-7.4-7.2c-0.3-0.4-1.2-1.8-2.1-3.3
					c-3-3.7-6.4-13.8-7.1-15.9c-0.2,0-0.5,0-0.9-0.1c-0.8-0.1-2.5-4.1-2.7-5.1C454.5,4.9,455.6,4.2,455.7,4z"/>
			</g>
			<g>
				<path class="st62" d="M485.4,55.3c3.8-0.5,7.3,1.5,8.7,4.7c0,0,0,0,0,0s7.3,11.3,8.1,19.8c0,0,0.1,0,0.1,0s0,0.2,0,0.7
					c0.1,1,0,2-0.2,2.9c-0.3,4.6-1.1,13.3-2.8,22.3l0,0c0,0,0,0,0,0c0,0.1,0,0.1,0,0.2c-0.1,0.4-0.1,1.6,1,2.7
					c1.4,1.3,2.2,2.7,3,3.4c0.8,0.7,4.4,4.1,4.8,4.5c0.4,0.4-0.3,0.5-0.6,0.8c-0.3,0.3-0.3,0.5-0.7,0.6c-0.4,0.2-0.5,1.1-1.9,1
					c-1.4-0.1-0.9-1-2.1-1.2c-1.2-0.2-1.4-0.5-2.4-1.2c-1-0.7-3.6-2.2-5.5-2.2c-1.9,0-3.1-1.4-3-3.1c0.1-1.7,1.2-2.9,1.4-5.3
					c0,0,0,0,0,0c-1.6-6-4.5-18.4-0.5-23.1c0,0,0,0,0,0c-6.8-5.1-14.7-14.7-14.5-18.3C477.7,60,480.9,55.9,485.4,55.3z"/>
				<path class="st58" d="M495.6,59c0,0,3.6,10.1,5.5,13s-8.6,8.8-10.3,10c-1.7,1.2-10.3-11.2-10.8-13.2
					C479.5,66.8,492.1,53.9,495.6,59z"/>
			</g>
			<g>
				<path class="st62" d="M491.2,29.7c4.8,0,6.8,8,10.9,14.1c2.9,4.9,5.1,12.4,6,13c0.9,0.6,3.1,3.9,3.1,4.8c0,0.9-2.1,4.2-3.7,4.9
					c-1.6,0.7-0.1-1.9-0.1-1.9s-2.3,1.2-2.7,0.9c-0.4-0.3,0.9-2,0.9-2s-0.8-1-1.4-2.4c-0.6-1.4-1-3.1-1-4c0-0.9-10.3-9.5-11.5-16.1
					C490.5,34.4,486.3,29.7,491.2,29.7z"/>
				<path class="st166" d="M504.5,61.9c0.2,0.4,0.8,2,1.5,2c0.7-0.1,0.4-1.3,0.4-2c0-0.7,0.8-1.7,0.8-1.7s0.9,1.5,1.2,1.9
					c0.3,0.4-1.2,2.2-1.5,3.3"/>
			</g>
			<g>
				<path class="st59" d="M484,111.3c0,0-0.1,1.4,0.7,2.1s2.7,4,4.2,4.9c1.5,0.9,3.2,1.4,3.7,1.8c0.5,0.4-0.2,1.3-0.8,1.4
					c-0.7,0,0,0.3-0.8,0.6s-0.8,0.9-1.2,0.9c-0.4,0-0.7,0.6-1,0.4c-0.3-0.2-1.4-0.7-1.7-0.7c-0.3,0-4.9-1.6-7.7-2.8
					c-2.8-1.1-4.2-2-2.8-6c1.4-4.1,0.9-3.7,2.5-3.5C480.8,110.7,484.4,110.4,484,111.3z"/>
				<path class="st61" d="M486.3,65.3C486.3,65.3,486.3,65.4,486.3,65.3c0,0,1.9,18.8-4,25.1c-5.9,6.3-13.9-23.2-11-28.2
					c1.4-4.2,5-6.5,9.3-5.1C484.3,58.4,486.5,61.8,486.3,65.3z"/>
				<path class="st102" d="M482.5,112.2c0.5,0,1.2-0.6,1.4-1.6c2-14,1.7-27.2,1.7-27.2s-2.4-1.5-5.5,0.1c-1.2,0.6,3.1,10.6-2.9,6.5
					c-4.9-3.4-1.2,12.1,0.8,19.5c0.5,1.7,0.4,2,1,2.4C479.6,112.2,482,112.2,482.5,112.2z"/>
				<path class="st167" d="M481.8,82.9c0,0,2.6,14.5,0,13.5c-2.6-0.9-3.7-6.6-4.6-3.6c-0.8,2.8,0.1,6.4,0.6,9.1
					c0.5,2.6,2,9.9,6.1,7.4"/>
			</g>
			<path class="st58" d="M473.2,56.4c1-2.1,2-3.9,2.2-4.2c0,0,1.5-3.6,1.7-4.6c0.8-4.1-4.5-11.3-2.6-15c0.6-1.1,1.3-2.2,2.3-3
				c1.4-1.2,3.4-1.5,5.1-1.5c2.2,0,4.5-0.1,6.6,0.6c4.4,1.3,9.1,4.8,9.5,9c0.3,4-1.6,7.4-1.5,11.4c0.3,9,0.3,13.7,0.3,13.7
				c-2.3,4.5-5.3,6.7-8.3,7.5c0,4.7-0.2,8.8-0.7,9c-1.3,0.4-15,3.7-17,1.6C468.8,78.9,467.4,63.8,473.2,56.4z"/>
			<g>
				<path class="st62" d="M487.3,28.3c0.9,0.9,1.8,1.8,2.5,2.9c0.4,0.5,1.2,1.4,0.6,2.1c-0.2,0.2-0.5,0.3-0.7,0.4
					c-3.3,0.9-5.9-1.2-7.6-3.8c-0.2-0.3-0.9-1.3-0.6-1.7c0,0,0.2-3,0.5-3.3c1-0.8,3.3,0.4,5.4,1.1C487.5,25.9,487.2,28.3,487.3,28.3
					z"/>
				<path class="st62" d="M478.3,19.5c-0.5-4.6,1.9-8.7,5.4-9.2c3.5-0.4,6.8,3,7.4,7.6c0.3-0.3,1.5-1.2,1.6-0.1
					c0.1,1.2-1.2,4.1-1.7,3.2c-0.5,3.3-2.6,5.9-5.4,6.2c-2.8,0.3-5.4-1.7-6.7-4.9c0,0,0,0,0,0c-0.2,1.3-2.2-1.3-2.4-2.6
					C476.5,18.5,478.3,19.5,478.3,19.5z"/>
				<path class="st62" d="M484.4,16.5c0.8,4.2,1.8,4.5,2.1,5.2c0.2,0.8-1.6,0.6-2.7-0.2"/>
				<path class="st61" d="M491.1,18c0,0-2.8,0.2-3-3.5c0,0-2.7,2.4-5.1,0c0,0-0.5,3.3-3.2,3.5c0,0,0.2,1.9-1.4,1.6
					c0,0-2.2-5.3,0-7.4s5.9-3.1,8.7-1.8C489.8,11.6,491.4,13.8,491.1,18z"/>
				<path class="st59" d="M491.8,20.8c0,0-1.3-7.2-6.9-7.2c-5.6,0-7,8.4-7,8.4c-0.5,0.2-1-0.9-1.5-2.3c-0.5-1.4-0.4-2.1-0.6-3.3
					c-0.4-3.3,1.9-5.9,4.6-7.4c2.9-1.7,6.4-1.6,9,0.6C495.9,15.1,491.8,20.8,491.8,20.8z"/>
				<g>
					<g>
						<g>
							<path class="st168" d="M485.4,11.4c-0.2,0.6,0.7,1.4,1.9,1.9c1.3,0.5,2.4,0.4,2.7-0.2c0.2-0.6-0.7-1.4-1.9-1.9
								C486.8,10.7,485.6,10.8,485.4,11.4z"/>
							<path class="st162" d="M490,13c0,0-0.5,1.8-2.7,0.8c-2.2-1-2.1-1.2-1.8-2.4"/>
						</g>
						<path class="st162" d="M489.7,13.5c0,0,3.7,2,3.3,3.4"/>
					</g>
					<g>
						<g>
							<path class="st168" d="M483.7,11.6c0.2,0.6-0.7,1.4-1.9,1.9c-1.3,0.5-2.4,0.4-2.7-0.2c-0.2-0.6,0.7-1.4,1.9-1.9
								C482.3,10.9,483.5,11,483.7,11.6z"/>
							<path class="st162" d="M479.1,13.3c0,0,0.5,1.8,2.7,0.8c2.2-1,2.1-1.2,1.8-2.4"/>
						</g>
						<path class="st162" d="M479.4,13.7c0,0-3.7,2-3.3,3.4"/>
					</g>
					<path class="st162" d="M485.3,12.2c0,0-0.7-0.6-1.5,0"/>
				</g>
			</g>
		</g>
		<g>
			<path class="st166" d="M455.7,4c0,0,1.1,0.1,1.8,1.2c0.7,1.1,0.7,1.3,0.4,1.7c-0.3,0.4-1.3,0.4-1.7-0.5"/>
			<path class="st166" d="M457.2,2.8c0,0,0.9-0.4,1.5,0.8c0.6,1.2,0.6,1.8,0.3,2.1c-0.3,0.4-1.2,0.2-1.2,0.2"/>
			<path class="st166" d="M458.9,1.9c0,0,1.2,0.7,1.5,2s-0.6,1.5-1.1,1.1"/>
			<path class="st166" d="M459.6,2.5c0,0,0.7,0.4,1.3,0.2"/>
			<path class="st166" d="M460.1,5.7c0,0-1.1,0.9-0.6,2.2"/>
		</g>
	</g>
	<g>
		<g>
			<path class="st61" d="M883.5,34.8c0,0,2.2,7.2,8.4,8.7c6.2,1.5,6.9,1.3,6.9,1.3s-1.3,5.2-3.2,6.3c0,0-4.5-0.9-6.2-2.2
				c0,0,4,2.7,5.7,3c0,0-2.8,6.4-9.9,8c-7,1.7-15.3,0.2-18.6-6.3c0,0,2.5-5.8,2.2-17.1C868.9,36.5,880.4,30.2,883.5,34.8z"/>
			<g>
				<g>
					<g>
						<path class="st62" d="M875.6,89c-0.9-4.2,0.6-10.3,1.8-13s5.3-2.6,5.3-2.6s4.4,0.3,4.3,3.3c0.5,3.6,2.7,8.7,2.3,12.3
							c-0.2,1.8,0,3.6-0.3,5.3c0.1,0.4,0.1,0.9,0.1,1.3c-0.1,0.7-0.2,1.5-0.3,2.2c-0.2,1.2-0.5,2.4-0.8,3.5c-0.9,3.5-2,7-3.3,10.3
							c-1-0.4-4.5-0.3-5.4-1c-0.2-1.6-1.1-9.6,0.4-14.3C877.4,94.6,876.2,91.8,875.6,89z"/>
						<g>
							<path class="st61" d="M878.5,108.9c0.1-0.2,0.3-0.4,0.6-0.5c0.5-0.2,1.2-0.1,1.5,0.4c1,1.2,2.5,1.8,3.5,1.8
								c1,0,0.7-1,1.4-0.2c0.7,0.7,3.9,3.4,5.1,3.3c1.2-0.1,3-0.4,3.4,1.1c0.4,1.5-2.5,3.5-4.6,3.7c-2.1,0.2-5.3-0.5-6-0.1
								c-0.7,0.4-6.4,0.2-6.9-1.7c-0.3-1.3,0.4-2.6,1-3.6c0.6-1,1.1-1.9,1-3.2C878.4,109.4,878.4,109.1,878.5,108.9z"/>
							<path class="st145" d="M876.5,115.6c0,0.2,0.9,1.1,2.5,1.4c1.4,0.3,2.9,0.3,4.3,0.3c0.7,0,1.5,0,2.2,0c0.7,0,1.4,0.2,2.1,0.2
								c1.2,0,2.5-0.1,3.6-0.6c1.1-0.5,2.3-1.2,2.7-2.4"/>
							<path class="st145" d="M887.9,112.3c0,0-1.2,0.2-1.6,1"/>
							<path class="st145" d="M886.9,111.5c0,0-1.3-0.3-1.8,0.6"/>
						</g>
						<g>
							<path class="st58" d="M888,77.1c0,0,2.8,11.3,0.9,14c-1.9,2.7-12.7,0.8-12.7,0.8s-5.8-15.3-4.6-15.9
								C871.1,74,884.4,72.1,888,77.1z"/>
						</g>
					</g>
					<g>
						<path class="st62" d="M865.6,74.4c1.6-3.5,2.1-6.5,7-4.2c4.1,1.9,6.6,5.4,6.5,8.5c0.5,3.8,0.6,7.7,0.1,11.5
							c-0.3,2.4-0.8,5-1.9,7.2c0.1,0,0.1,0.1,0.1,0.1s0.5,8.6-1.5,18.5c-1.1-0.2-4.7,0.5-5.7,0.1c-0.6-1.9-4.1-13.1-1.4-17.3
							c-0.2-0.2-0.4-0.3-0.6-0.5c-2.3-2.1-3.6-5-4.2-8C863.1,86,862.4,78.2,865.6,74.4z"/>
						<path class="st58" d="M880.1,71.9c0,0,0.8,20.5-0.4,20.9c-1.1,0.4-13.7,3.5-15.6,1.5c-1.8-2-3.1-18.4,3.6-24.6
							C874.6,63.6,880.1,71.9,880.1,71.9z"/>
						<g>
							<path class="st61" d="M869.4,113.4c0.1-0.2,0.3-0.4,0.6-0.5c0.6-0.2,1.2-0.1,1.6,0.4c1,1.2,2.6,1.8,3.6,1.8
								c1,0,0.7-1,1.5-0.2c0.8,0.8,4.1,3.5,5.3,3.4c1.2-0.1,3.1-0.4,3.5,1.1c0.4,1.6-2.6,3.6-4.8,3.8c-2.2,0.2-5.5-0.5-6.2-0.1
								c-0.7,0.4-6.6,0.2-7.1-1.8c-0.4-1.3,0.4-2.7,1.1-3.7c0.7-1.1,1.2-2,1-3.3C869.3,114,869.3,113.7,869.4,113.4z"/>
							<path class="st145" d="M867.3,120.3c0,0.2,0.9,1.2,2.6,1.5c1.5,0.3,3,0.3,4.4,0.3c0.8,0,1.5,0,2.3,0c0.7,0,1.4,0.2,2.1,0.2
								c1.2,0,2.6-0.1,3.7-0.7c1.1-0.5,2.4-1.2,2.8-2.5"/>
							<path class="st145" d="M879.1,116.9c0,0-1.2,0.2-1.7,1.1"/>
							<path class="st145" d="M878.1,116.2c0,0-1.3-0.3-1.8,0.6"/>
						</g>
					</g>
					<path class="st62" d="M879.1,50.2c0.9-1.9,2.9-1.7,4.4-1.2c0.3,0.1,1.6,0.7,1.9,0.8c1.9,1.1,2.6,1.9,4.8,4.5
						c0.8,0.9,1.3,2.1,1.6,3.3c0.1,0.1,0.1,0.1,0.2,0.2c2,2.2,3.5,13.5,3.5,13.5s0,0-0.1,0.1c0.1,0.4,0.2,0.7,0.3,0.8
						c0.7,0.8,2.1,4.6,1.8,5.5c-0.2,0.9-3.1,3.5-4.8,3.8c-1.7,0.3,0.3-1.9,0.3-1.9s-2.5,0.6-2.8,0.2c-0.3-0.4,1.4-1.7,1.4-1.7
						s-0.5-1.1-0.7-2.7c-0.1-1-0.2-2.2-0.1-3.1c-1.3-2.4-4.6-8.4-4.5-11.2c-2.2-1-4.2-2.7-5.5-3.9C878.6,55.5,878.1,52.3,879.1,50.2
						z"/>
					<g>
						<g>
							<g>
								<path class="st121" d="M887.7,79.4c2.8-0.8,1.1-0.9,0.8-9.9c-0.1-4,1.8-7.4,1.5-11.4c-0.3-4.2-5.1-7.8-9.5-9
									c-2.1-0.6-4.4-0.6-6.6-0.6c-1.7,0-3.8,0.3-5.1,1.5c-1,0.8-1.7,1.9-2.3,3c-1.9,3.7,1.9,9.4,1.1,13.5
									c-0.4,2.2-2.1,3.9-2.6,6.1c-0.6,2.7,0.8,3.5,3.1,4.5c3,1.3,6.3,2.2,9.6,2.5C880.8,79.9,884.7,80.2,887.7,79.4z"/>
							</g>
						</g>
					</g>
					<g>
						<path class="st62" d="M851.7,28.3c0.3-1.4,1.6-1.1,1.6-1.1c0.3-1.5,1.6-1,1.6-1c-0.9-0.6-0.4-2,0.2-1.6
							c0.6,0.4,3.2,0.9,3.2,0.9s1.3,2.7,1.6,4.7c0.2,1.5-0.9,2.1-1.5,2.4c0.1,0.3,6.5,9.5,6.5,13.3c2.5,1,4.9,2.8,6.4,3.9
							c2.6,2,3.3,5.6,2.4,8c-0.8,2.3-3.2,2.1-4.8,1.6c-0.4-0.1-1.9-0.6-2.2-0.8c-2.2-1.1-3.1-2-5.7-4.7c-0.9-1-1.6-2.3-2.1-3.6
							c-0.1-0.1-0.1-0.1-0.2-0.2c-2.3-2.1-4.5-13-4.8-14.7c-0.2,0-0.4,0-0.6-0.1c-0.8-0.1-2.5-4.1-2.7-5.1S851.6,28.5,851.7,28.3z"
							/>
						<g>
							
								<ellipse transform="matrix(0.3852 -0.9228 0.9228 0.3852 500.1847 804.1198)" class="st59" cx="853.6" cy="26.6" rx="5.8" ry="5.8"/>
						</g>
					</g>
					<g>
						<g>
							<path class="st62" d="M873.5,48.5c0,0,0.1,0,0.2-0.1l0.2-4.5l5.8,0.5l-0.4,4.3l0,0c0.9,0.9,1.8,1.8,2.5,2.9
								c0.4,0.5,1.2,1.4,0.6,2.1c-0.2,0.2-0.5,0.3-0.7,0.4c-3.3,0.9-5.9-1.2-7.6-3.8C873.9,49.9,873.1,48.9,873.5,48.5z"/>
							<path class="st62" d="M870.3,40c-0.5-4.6,1.9-8.7,5.4-9.2c3.5-0.4,6.8,3,7.4,7.6c0.3-0.3,1.5-1.2,1.6-0.1
								c0.1,1.2-1.2,4.1-1.7,3.2c-0.5,3.3-0.3,6.9-5.4,7c-5.1,0.2-5.4-2.6-6.7-5.8c0,0,0,0,0,0c-0.2,1.3-2.2-1.3-2.4-2.6
								C868.5,38.9,870.3,40,870.3,40z"/>
							<path class="st62" d="M876.4,37c0.8,4.2,1.8,4.5,2.1,5.2c0.2,0.8-1.6,0.6-2.7-0.2"/>
						</g>
						<g>
							<path class="st61" d="M882.1,31.9c1.6,2,2,4.7,1,7.1c-0.1,0.2-0.3,0.5-0.3,0.5c0,0-0.1-0.4-0.1-0.4c-0.1-0.3-0.2-0.6-0.3-0.9
								c-0.2-0.6-0.5-1.1-0.8-1.6c-1.1-1.6-2.7-2.6-4.4-3.2c0,0,0,0,0,0c0.4,1.4,3.9,3.8,4.8,4.1c0,0,0,0,0.1,0.1l-0.3,0
								c-4.8,0.4-11.1-5-11.1-5C873.7,27.7,879.1,27.9,882.1,31.9z"/>
							<path class="st61" d="M872.5,32.4c0,0,1,7.5-1.9,8c0,0-3.8-3.4,0-7.9C870.5,32.5,872.9,30.9,872.5,32.4z"/>
						</g>
					</g>
				</g>
				<path class="st166" d="M891,76.4c0.1,0.5,0.3,2.2,1,2.3c0.7,0.1,0.8-1.2,0.9-1.9c0.2-0.7,1.2-1.5,1.2-1.5s0.5,1.7,0.7,2.1
					c0.2,0.4-1.7,1.8-2.2,2.8"/>
			</g>
		</g>
		<path class="st62" d="M859.9,30.1c0,0,0.6-3.6-1.6-4.7c-2.2-1.1-0.2,2.7-0.4,3.3s-1.6,1.6-1.4,3.4C856.6,34,859.9,30.1,859.9,30.1
			z"/>
		<polygon class="st89" points="859.8,29.6 859.8,30.4 856.8,33.6 856.2,32.6 		"/>
	</g>
	<line class="st56" x1="1081.1" y1="123.4" x2="0" y2="123.4"/>
</g>
</svg>
