<?xml version="1.0" encoding="utf-8"?>
<!-- Generator: Adobe Illustrator 25.2.3, SVG Export Plug-In . SVG Version: 6.00 Build 0)  -->
<svg version="1.1" id="Layer_1" xmlns="http://www.w3.org/2000/svg" xmlns:xlink="http://www.w3.org/1999/xlink" x="0px" y="0px"
	 viewBox="0 0 1609.6 123.6" style="enable-background:new 0 0 1609.6 123.6;" xml:space="preserve">
<style type="text/css">
	.st0{fill:#FFDFAA;stroke:#2A3F55;stroke-width:0.25;stroke-miterlimit:10;}
	.st1{fill:#FF3F55;}
	.st2{fill:#2A9FAA;stroke:#2A3F55;stroke-width:0.25;stroke-miterlimit:10;}
	.st3{fill:#FFBF55;stroke:#2A3F55;stroke-width:0.25;stroke-miterlimit:10;}
	.st4{fill:none;stroke:#2A3F55;stroke-width:0.25;stroke-miterlimit:10;}
	.st5{fill:#2A3F55;stroke:#2A3F55;stroke-width:0.25;stroke-miterlimit:10;}
	.st6{fill:none;stroke:#2A3F55;stroke-width:0.25;stroke-linecap:round;stroke-miterlimit:10;}
	.st7{fill:#FFDFAA;}
	.st8{fill:none;stroke:#1C1C1B;stroke-width:0.8188;stroke-linecap:round;stroke-miterlimit:10;}
	.st9{fill:none;stroke:#FFBF55;stroke-width:3.0001;stroke-miterlimit:10.0004;}
	.st10{fill:none;stroke:#2A3F55;stroke-width:5.0003;stroke-miterlimit:10.0005;}
	.st11{fill:none;stroke:#2A3F55;stroke-width:5;stroke-miterlimit:10;}
	.st12{fill:none;stroke:#2A3F55;stroke-width:2.0001;stroke-miterlimit:10.0005;}
	.st13{fill:none;stroke:#2A3F55;stroke-width:2;stroke-miterlimit:10;}
	.st14{fill:#FFBF55;}
	.st15{fill:#FFFFFF;}
	.st16{fill:#FF3F55;stroke:#2A3F55;stroke-width:0.25;stroke-miterlimit:10;}
	.st17{fill:none;stroke:#FFBF55;stroke-width:3.0001;stroke-miterlimit:10.0003;}
	.st18{fill:none;stroke:#2A3F55;stroke-width:5.0002;stroke-miterlimit:10.0005;}
	.st19{fill:none;stroke:#2A3F55;stroke-width:2.0001;stroke-miterlimit:10.0003;}
	.st20{fill:none;stroke:#FFBF55;stroke-width:3;stroke-miterlimit:10.0001;}
	.st21{fill:none;stroke:#2A3F55;stroke-width:4;stroke-linecap:round;stroke-miterlimit:10;}
	.st22{fill:#55BFAA;stroke:#2A3F55;stroke-width:0.2081;stroke-miterlimit:10;}
	.st23{fill:#2A3F55;}
	.st24{fill:#1B2935;stroke:#2A3F55;stroke-width:0.25;stroke-miterlimit:10;}
	.st25{fill:#FFBF55;stroke:#2A3F55;stroke-width:0.25;stroke-miterlimit:10.0002;}
	.st26{fill:none;stroke:#FFFFFF;stroke-width:0.6796;stroke-linecap:round;stroke-miterlimit:10;}
	.st27{enable-background:new    ;}
	.st28{clip-path:url(#SVGID_7_);enable-background:new    ;}
	.st29{clip-path:url(#SVGID_9_);enable-background:new    ;}
	.st30{clip-path:url(#SVGID_11_);enable-background:new    ;}
	.st31{clip-path:url(#SVGID_13_);enable-background:new    ;}
	.st32{clip-path:url(#SVGID_15_);enable-background:new    ;}
	.st33{clip-path:url(#SVGID_17_);enable-background:new    ;}
	.st34{clip-path:url(#SVGID_19_);enable-background:new    ;}
	.st35{clip-path:url(#SVGID_22_);enable-background:new    ;}
	.st36{fill:#111111;}
	.st37{fill:#111110;}
	.st38{fill:#10100E;}
	.st39{fill:#0E0E0E;}
	.st40{fill:#0E0E0D;}
	.st41{clip-path:url(#SVGID_26_);enable-background:new    ;}
	.st42{clip-path:url(#SVGID_30_);enable-background:new    ;}
	.st43{fill:none;stroke:#2A3F55;stroke-width:0.8188;stroke-linecap:round;stroke-miterlimit:10;}
	.st44{fill:none;stroke:#FF3F55;stroke-miterlimit:10;}
	.st45{fill:#2A3F55;stroke:#2A3F55;stroke-width:0.25;stroke-miterlimit:10.0002;}
	.st46{fill:#2A9FAA;}
	.st47{fill:none;stroke:#FFBF55;stroke-width:3;stroke-miterlimit:10;}
	.st48{fill:#1C1C1B;}
	.st49{fill:#2A9FAA;stroke:#2A3F55;stroke-width:0.25;stroke-miterlimit:9.9999;}
	.st50{fill:none;stroke:#2A3F55;stroke-width:0.819;stroke-linecap:round;stroke-linejoin:round;stroke-miterlimit:10;}
	.st51{fill:#2A3F55;stroke:#2A3F55;stroke-width:0.25;stroke-miterlimit:9.9998;}
	.st52{fill:#FFBF55;stroke:#2A3F55;stroke-width:0.25;stroke-miterlimit:9.9998;}
	.st53{fill:none;stroke:#2A3F55;stroke-width:0.25;stroke-linecap:round;stroke-linejoin:round;stroke-miterlimit:10;}
	.st54{fill:none;stroke:#2A3F55;stroke-width:0.75;stroke-linecap:round;stroke-linejoin:round;stroke-miterlimit:10;}
	.st55{fill:#2A9FAA;stroke:#2A3F55;stroke-width:0.75;stroke-miterlimit:10;}
	.st56{fill:#2A9FAA;stroke:#2A3F55;stroke-width:0.2081;stroke-miterlimit:10;}
	.st57{fill:#FFBF55;stroke:#2A3F55;stroke-width:0.25;stroke-miterlimit:9.9997;}
</style>
<g>
	<g>
		<g>
			<polygon class="st0" points="287.8,28.7 293.9,28.7 294,19.1 287.7,19.1 			"/>
			<path class="st0" d="M297,9c-0.2-0.5-0.4-0.9-0.6-1.3c-2.3-3.6-6.2-5.6-9.8-2.5c-1.2,1.1-2.2,2.4-3.1,3.8c-0.3,0.4-0.4,1-0.8,1.4
				c-0.4,0.4-0.7,0.3-1.1,0.5c-0.1,0.1-0.2,0.1-0.3,0.2c0,1.1,0.1,2.2,0.2,3.3c0.5,0.3,1.1,0.7,1.5,1.1c0.1,0.1,0.2,0.2,0.3,0.3
				c0.4,0.1,0.8,0,0.8,0c1.8,6,6.5,5.8,6.5,5.8c3.2,0.3,5.2-1.7,6-4.6C297.4,14.8,297.9,11.5,297,9z"/>
			<g>
				<g>
					<path class="st1" d="M288.1,15.1c-0.6,0-1.2-0.2-1.6-0.5c-0.5-0.4-0.9-0.9-0.9-1.5c-0.1-0.6,0.2-1.2,0.7-1.7s1.1-0.7,1.8-0.8
						c1.5-0.1,2.7,0.8,2.8,2l0,0c0.1,0.6-0.2,1.2-0.7,1.7s-1.1,0.7-1.8,0.8C288.3,15.1,288.2,15.1,288.1,15.1z M288.3,11.1
						c-0.1,0-0.1,0-0.2,0c-0.6,0-1.1,0.3-1.5,0.7s-0.5,0.8-0.5,1.3s0.3,0.9,0.7,1.2s1,0.4,1.6,0.4s1.1-0.3,1.5-0.7s0.5-0.8,0.5-1.3
						l0,0C290.2,11.8,289.3,11.1,288.3,11.1z"/>
				</g>
				<g>
					<path class="st1" d="M295.5,14.6c-0.6,0-1.2-0.2-1.6-0.5c-0.5-0.4-0.9-0.9-0.9-1.5c-0.1-0.6,0.2-1.2,0.7-1.7s1.1-0.7,1.8-0.8
						c0.7-0.1,1.4,0.1,1.9,0.5s0.9,0.9,0.9,1.5c0.1,0.6-0.2,1.2-0.7,1.7s-1.1,0.7-1.8,0.8C295.7,14.6,295.6,14.6,295.5,14.6z
						 M295.7,10.6c-0.1,0-0.1,0-0.2,0c-0.6,0-1.1,0.3-1.5,0.7s-0.5,0.8-0.5,1.3s0.3,0.9,0.7,1.2s1,0.4,1.6,0.4s1.1-0.3,1.5-0.7
						s0.5-0.8,0.5-1.3l0,0c0-0.5-0.3-0.9-0.7-1.2C296.6,10.7,296.2,10.6,295.7,10.6z"/>
				</g>
				<g>
					<path class="st1" d="M287.1,15.1c-0.6,0-1.2-0.2-1.6-0.5c-0.5-0.4-0.9-0.9-0.9-1.5c-0.1-0.6,0.2-1.2,0.7-1.7s1.1-0.7,1.8-0.8
						c0.3,0,0.6,0,0.8,0c0.1,0,0.2,0.2,0.2,0.3s-0.2,0.2-0.3,0.2c-0.2,0-0.5-0.1-0.7,0c-0.6,0-1.1,0.3-1.5,0.7s-0.5,0.8-0.5,1.3
						s0.3,0.9,0.7,1.2s1,0.4,1.6,0.4c0.1,0,0.3,0.1,0.3,0.2c0,0.1-0.1,0.3-0.2,0.3C287.2,15.1,287.1,15.1,287.1,15.1z"/>
				</g>
				<g>
					<path class="st1" d="M294.8,14.6c-1.3,0-2.7-0.7-2.8-2c-0.1-1.2,1-2.4,2.4-2.5h0.1c0.2,0,0.3,0,0.5,0c0.1,0,0.2,0.2,0.2,0.3
						s-0.2,0.2-0.3,0.2c-0.2,0-0.2,0-0.3,0h-0.1c-1.2,0.1-2,1-2,1.9c0.1,0.9,1.2,1.6,2.5,1.5c0.1,0,0.3,0.1,0.3,0.2
						c0,0.1-0.1,0.3-0.2,0.3C295,14.6,294.9,14.6,294.8,14.6z"/>
				</g>
				<g>
					<path class="st1" d="M290.7,13.1l-0.2-0.5c0.2-0.1,2.1-0.7,2.9,0.1l-0.4,0.4C292.6,12.6,291.2,12.9,290.7,13.1z"/>
				</g>
			</g>
			<path class="st2" d="M284.6,17.3c0,0-0.3-0.7-0.8-3.6c-0.5-2.8,2.9-5.6,7.1-6.3c4.1-0.8,6.2,1.5,6.4,2.5c0.2,0.9,0.7-0.3,0-1.7
				c-0.7-1.4-1.8-7-8.5-6.3c-6.7,0.8-9,6.4-8.6,10C280.5,15.4,283.4,17.1,284.6,17.3z"/>
			<g>
				<path class="st1" d="M284.9,12.3c0,0-4.7,0.9-4.5,1.2c0.1,0.4,0.1,0.9,0.6,0.8c0.5-0.2,3.8-1.2,3.8-1.2L284.9,12.3z"/>
			</g>
		</g>
		<path class="st0" d="M297.5,24.7c0.5,0,5.2,1.8,10,7.3c4.8,5.5,2.6,6.5,0,6.4s-12.6-3.2-13.2-6.8
			C293.7,27.9,292.5,24.3,297.5,24.7z"/>
		<g>
			<g>
				<g>
					<g>
						<path class="st0" d="M298.9,59.5c-0.3,3.7,1.1-13.8,1.1-24.8c0-6.1-0.8-8.6-2.2-9.7c-0.9-0.8-3.8-1.1-3.8-1.1s0,0.9-3,1
							c-3.1,0.1-3.3-1-3.3-1s-6.7,1.3-9.5,4.8c-4.6,5.1,0.9,23-1.6,29.3C275.4,60.9,288,73.5,298.9,59.5z"/>
					</g>
				</g>
			</g>
			<path class="st0" d="M300,31.5c0,0,0.1,4.4,0.1,5.4c0,0,0.7,3.7-5.3,3.4"/>
			<path class="st0" d="M292.7,38.2c0,0,0.3,1.9-0.8,2.7s-6.6,1.6-8.6,0.7"/>
		</g>
		<g>
			<path class="st0" d="M293.1,120.8c-0.8-0.4-2.4-0.9-3.6-2.2c-1.1-1.3-3.7-3-4.4-4.5c2.2-12.1,2.4-24.4,2.5-28.6
				c3.8-7,3.1-20.6,3.1-20.6l0,0c0.3-3.3-1.6-6.5-4.9-7.7c-3.9-1.5-8.4,0.3-9.9,4.2c-2,3.1,0.7,17.1,4.5,23.7
				c-0.7,0.6-1.4,1.3-2.2,2.3c-3.4,4.4-0.9,14.7,1,21l0,0c0.1,0.2,0.6,3.2,0,4.7c-0.6,1.6-3.3,3.6-1.5,5.3c1.8,1.7,2,0.7,3.8,2.3
				c1.7,1.6,6.8,3.6,9.5,2.3C293.8,121.5,293.8,121.2,293.1,120.8z"/>
			<path class="st0" d="M307.6,120.1c0,0-1.2-1-2.5-2.2c-1.3-1.2-3.7-2.9-4.5-4.4c0.9-12.3-0.2-24.5-0.6-28.7
				c3-7.3,0.9-20.8,0.9-20.8l0,0c-0.1-3.3-2.3-6.3-5.7-7.2c-4.1-1.1-8.3,1.2-9.4,5.2c-1.6,3.3,2.5,16.9,7,23.1
				c-0.6,0.6-1.3,1.5-1.9,2.5c-2.9,4.7,0.6,14.7,3.2,20.8l0,0c0.1,0.2,1,3.1,0.5,4.7s-2.9,3.9-0.9,5.4s2.3-0.5,4,1.9
				c1.7,2.4,5.9,3.4,8.5,1.8C308.7,120.4,307.6,120.1,307.6,120.1z"/>
			<g>
				<path class="st3" d="M277.1,55.6c0,0,20.5,1.6,22.2-1.6c0,0,3.3,12.3,2.7,17.4c-0.5,5.1-0.5,5.1-0.5,5.1s-9.4,3.9-10.8,4.1
					l-1.1-1.1l-0.3,1.1c0,0-11.3,1.1-12.2,0S272.1,65.3,277.1,55.6z"/>
				<path class="st4" d="M289.4,80.7c1-4.8,1.8-9.6,0.5-14.4"/>
				<path class="st4" d="M295.4,64.3c0,0-3.3,5.6-4.8,6"/>
			</g>
		</g>
		<g>
			<g>
				<path class="st0" d="M274.7,31.2c-1.7,1.3-9,7.6-10.1,9.6c-1.1,2,3,14.2,6.9,19.4c0,0,1.3,3,4.6,4.3c0,0,1.5,0,2.8,0.9
					c1.3,0.9,3.5,1.2,2.6,0c0,0,2.1,1.2,1.7,0c0,0,1.9,0.4,1.1-0.6c0,0-2.1-3.4-4.7-3.9c0,0,2.3,0.3,2.9,0.6
					c0.7,0.3,2.4,1.1,2.3,0.4c-0.2-0.6-2.7-2-3.2-2.2s-4.8-0.5-5.2-0.9S272,45,273.5,43.5c1.4-1.6,5.6-3.6,7.6-5.5
					c2.1-1.9,4.6-5.7,1.7-9C279.9,25.8,276.4,29.9,274.7,31.2z"/>
				<path class="st0" d="M281.5,65.5c0,0-2.1-2.1-3.2-2.4"/>
				<path class="st0" d="M283.2,65.5c0,0-2.3-3-4.1-3.8"/>
			</g>
			<path class="st0" d="M276.3,41.6c0.2-0.1,6.4-3.4,7.4-6.8"/>
		</g>
	</g>
	<g>
		<g>
			<g>
				<path class="st0" d="M138.3,57.1L138.3,57.1c0,0,16.5,14.6,16.6,24.6c0.1,10.1-30.9-7.9-32.5-14.5c-2.2-4.8-0.1-10.4,4.7-12.6
					C131.1,52.8,135.6,53.9,138.3,57.1z"/>
			</g>
			<g>
				<path class="st3" d="M145.6,88.3c-0.1-0.2-3.3-5.4-1-6.8s10.4-5.7,10.8-1c0.4,4.7-1.6,8.7-2.5,9C152,89.9,145.6,88.3,145.6,88.3
					z"/>
				<path class="st5" d="M144.6,86.5c0.5-2.9,5.9-7.1,8.2-3.9c2.8,3.9,2.1,3.3,1,7.2c-1.1,3.9-2.9,10.2-4.1,11.5s-5.2-0.1-5.1-2.2
					c0.2-2.7,1.1-5.4,1.1-8.1c0-1.5-1.2-2.8-1-4.3C144.6,86.7,144.6,86.6,144.6,86.5z"/>
				<g>
					<path class="st3" d="M153.1,120.9c0,0-0.4,1.3-1,1.6c-0.6,0.3-5.2,1.2-6.8-0.4c-1.6-1.7-0.5-1.7-0.1-1.5
						C145.6,120.9,153.2,120.3,153.1,120.9z"/>
					<g>
						<path class="st5" d="M135.4,114.7c-1.1-1.2-1.6-2.6-1.5-4.1c0.1-1.7,1.1-3.3,2.8-4.5c2-1.4,4.1-3.4,5-5.6l1.6-8.9l2.5,0.6
							c0,0-1.5,8.5-1.5,8.6c-1.1,2.6-4.1,5.4-6.3,7.1c-1.1,0.8-1.8,1.9-1.9,3c-0.1,0.9,0.3,1.8,1,2.6c1.1,1.2,2.4,2.3,3.7,3.3
							c1.6,1.2,3.3,2.3,5.2,2.9c1.8,0.6,3.9,0.9,5.7,0.2c0.5-0.2,1.1-0.5,1.6-0.1s0.5,1,0.2,1.5c-0.4,0.6-1.3,0.7-1.9,0.9
							c-0.5,0.1-1,0.2-1.5,0.3c-1,0.1-2,0-3-0.2c-2-0.4-3.8-1.2-5.5-2.3c-1.6-1-3-2.1-4.4-3.3C136.6,115.9,136,115.4,135.4,114.7
							C135.4,114.8,135.4,114.7,135.4,114.7z"/>
					</g>
				</g>
				<path class="st3" d="M153.8,89.8c-0.4-0.1-3.4-1.9-4.1-0.6c-0.7,1.2,0.7,2,2.1,2.5c1.4,0.5,1.4,0.5,1.4,0.5L153.8,89.8z"/>
				<path class="st3" d="M152.6,94c0,0-2.3-1.2-3.1-0.8c-0.7,0.5-0.7,1.6,0.5,2c1.2,0.5,2,0.7,2,0.7L152.6,94z"/>
			</g>
		</g>
		<g>
			<path class="st0" d="M148.5,9.7c1.1,0.5,1.8,1.6,2.1,2.7c0.4,1.3-0.2,3.1,0.6,4.2c0.3,0.5,1.1,0.5,1.6,0.6
				c2.4,0.5,3.3,0.8,2.9,1.2c-0.4,0.4-4.5,1.2-4.9,1.9c-0.4,0.7-1,4.1-1.5,4.6s-3-0.2-3.5,0.3s-1.3,3.2-1.3,3.2l-6.3-0.6
				c0,0,2.6-6.3,1.7-8.3c-0.9-2.1,0.2-3.2,0.5-5.4c0.6-3.6,3.8-5.1,7.3-4.5C148.1,9.5,148.3,9.6,148.5,9.7z"/>
			<path class="st5" d="M156.1,5c-1.4-0.9-3.5-1.2-7.1,0.7c-2.3,1.3-5.1,1-7.6,1.5c-3.2,0.7-5,3-4.9,6.3c0.1,2.3,0.6,5,1.4,7.1
				c0.5,1.3,2,3.1,3.6,2.2c1.1-0.6,1.6-2.2,1.3-3.4c-0.3-1.4-1.9-2-1.4-3.7c0.1-0.3,0.3-0.7,0.6-0.8c0.7-0.3,0.9,0.7,1.1,1.1
				c0.2,0.4,0.6,2.3,1.2,2.3c2.4,0,1.3-4,2.2-5.3c0.8-1.1,2.8-1.4,4-1.7c1.6-0.4,3.3-0.6,4.8-1.5c0.7-0.4,1.4-1.1,1.7-1.9
				C157.5,6.9,157.1,5.7,156.1,5z"/>
		</g>
		<path class="st0" d="M140.9,26.2c-2-0.9-4.2-1-6.3-1.6c-2.6-0.7-6.9-1.6-10.1-1.1c-0.6,0-1.4,0-2.3,0.2c-2.5,0.5-5.8,3.7-7.8,6.1
			l0,0c0,0,0,0-0.1,0.1c-0.4,0.5-0.8,0.9-1.1,1.3c-0.9,1-2.2,2.3-3.5,3.2c-2.5,1.6-3.1,4.4-3.3,6c-0.1,0.4,0,0.7,0,0.9
			c0.2,0.7,0.7,0.8,0.7,0.8c-0.1,1.7,1.5,1.2,1.5,1.2c0.1,1.8,1.7,1.5,1.7,1.5c0.2,0.6,0.9,0.7,1.4,0.4c0.9-0.5,1.6-1.9,1.6-1.9
			s0.5,0.1,1.8,0c1.4-0.1-0.7-6.1-0.6-6.5c0,0,2.5-1.7,3.6-2.5c1.8-0.9,4.1-2.1,5.4-3.5c0.4-0.4,0.7-0.9,1-1.3
			c2.6,1.1,10.6,4.1,14.3,4.3c1,0.1,2.6-0.8,3.6-1.2C146,31.2,143.1,27.2,140.9,26.2z"/>
		<g>
			<path class="st0" d="M134.2,70.4L134.2,70.4c0,0-12.3,18.3-22.3,19.6c-10,1.4,3.9-31.7,10.3-34.1c4.5-2.8,10.3-1.4,13.1,3
				C137.5,62.7,137,67.3,134.2,70.4z"/>
			<path class="st6" d="M133.6,71.3c0,0-1.8,2.7-4.6,5.9"/>
			<g>
				<path class="st3" d="M105.5,87c0.1-0.2,2.1-6,4.6-5.1s11.1,4.4,7.7,7.7c-3.4,3.3-7.7,4.3-8.6,3.9C108.5,93,105.5,87,105.5,87z"
					/>
				<path class="st5" d="M106.3,85.2c2.5-1.4,9.2,0,8.3,3.8c-1.2,4.7-1.2,3.7-4.9,5.3c-3.7,1.6-9.7,4.3-11.5,4.2
					c-1.8-0.1-3.3-4.1-1.6-5.3c2.2-1.6,4.8-2.6,6.9-4.4c1.1-1,1.4-2.7,2.6-3.6C106.2,85.2,106.3,85.2,106.3,85.2z"/>
				<g>
					<path class="st3" d="M85.3,113.7c0,0-1.2,0.5-1.9,0.3c-0.7-0.3-4.3-3.2-4-5.5s1-1.5,1.1-1.1C80.6,107.9,85.8,113.4,85.3,113.7z
						"/>
					<g>
						<path class="st5" d="M78.7,96.1c0.2-1.6,1-2.9,2.2-3.8c1.4-1,3.3-1.3,5.3-0.8c2.3,0.6,5.3,1,7.5,0.2l7.9-4.5l1.1,2.3
							c0,0-7.5,4.3-7.6,4.3c-2.7,0.9-6.8,0.4-9.5-0.3c-1.4-0.3-2.6-0.2-3.5,0.5c-0.8,0.5-1.2,1.4-1.3,2.4c-0.2,1.6-0.2,3.3-0.2,4.9
							c0.1,2,0.4,4,1.1,5.9c0.7,1.8,1.8,3.6,3.5,4.5c0.5,0.2,1.1,0.6,1.1,1.2c0.1,0.6-0.5,1-1,1.1c-0.7,0.1-1.4-0.5-1.9-0.9
							c-0.4-0.3-0.8-0.6-1.1-1c-0.7-0.7-1.3-1.5-1.8-2.4c-1-1.7-1.5-3.7-1.8-5.7c-0.3-1.8-0.3-3.7-0.3-5.5
							C78.4,97.7,78.5,96.9,78.7,96.1C78.7,96.2,78.7,96.2,78.7,96.1z"/>
					</g>
				</g>
				<path class="st3" d="M109.7,94.3c-0.2-0.4-0.8-3.8-2.2-3.6c-1.4,0.3-1.1,1.8-0.6,3.2c0.5,1.4,0.5,1.4,0.5,1.4L109.7,94.3z"/>
				<path class="st3" d="M105.6,96.1c0,0-0.6-2.6-1.4-2.9c-0.8-0.3-1.7,0.5-1.3,1.7s0.7,2,0.7,2L105.6,96.1z"/>
			</g>
		</g>
		<g>
			<path class="st2" d="M121.5,53.4c0,0-5.9,9.5-7.8,12.9c-2,3.4,1,3.4,3,5c1.9,1.7,9.5,9,11.5,8.8s2.8-2.4,2.8-2.4s1.9,2.5,2.6,2.4
				s16.1-11,15.2-12.9c-0.9-1.9-9-10.6-9.2-11.4C139.4,54.9,121.5,53.4,121.5,53.4z"/>
		</g>
		<path class="st3" d="M139.6,24.5c0-0.1-5.5-1.5-8.9,4.3c-3.4,5.8-1.6,14.9-4.5,18.2c-2.8,3.3-6.7,6.8-4.7,6.4
			c2-0.4,17.7,6.3,19.6,5.6c1.9-0.7,8.9-18.7,7.5-25c-1.4-6.4-5.1-6.8-5.1-6.8S140.3,26.3,139.6,24.5z"/>
		<path class="st0" d="M168.1,28.5c-0.4-1.8-1.2-1.3-1.2-1.3c0.3-0.2,0.2-0.7,0.2-1c0-0.2-0.1-0.3-0.2-0.4c-0.1-0.1-0.6-0.3-0.6-0.3
			s-0.5-1.6-1.1-1.4c0.2-0.1-0.2-0.6-0.3-0.6c-0.2-0.2-0.4-0.6-0.7-0.6s-0.5,0.3-0.6,0.5c-0.1,0.1-0.2,0.6-0.4,0.6
			c0,0-1.3,0.2-2.1,1.2c-0.8,1.1-1.6,3.5-1.3,4.3c0.3,0.8-0.9,3.3-0.9,3.3c-0.1,0.3-4.4,6.2-6.5,8l0,0c-0.3-0.7-0.5-1.2-0.6-1.5
			c-0.7-1.5-3.9-6.7-7.1-9.7c-1-0.6-1.9-1.4-2.9-1.8c-3.8-1.4-4.2,3.8-3,6.1c1,2.1,2.8,3.7,4,5.6c1.8,2.7,5.4,7.2,8.8,8.5
			c0.6,0.5,1.5,0.6,2.6,0.1c3.3-1.4,8.4-11.7,9.1-13.1c0,0,0.1,0,0.1-0.1C163.9,34.4,168.4,30.4,168.1,28.5z"/>
	</g>
	<g>
		<g>
			<path class="st7" d="M961.2,61.4c0.2-0.9-0.5-2.6-0.7-3.5c-0.9-3.5-4.9-1.2-6,0.8c-1,1.8-1.3,3.9-2.1,5.8
				c-1.3,3.1-3,8.8-1.6,11.8c1,2.1,4-0.4,4.6-1.4C956.2,73.7,960.6,65.2,961.2,61.4z"/>
			<path class="st7" d="M954.6,72.5c0,0.5,1.2,2.1,1.2,5.5s-2.8,8.5-2.7,8.8c0,0.3-4-0.7-4-0.7s-0.9-9,1.5-12.1
				S954.7,71.4,954.6,72.5z"/>
			<g>
				<path class="st7" d="M953.4,87.9c0.2,0.4,5.5,3.3,4.6,4.2c-0.9,0.9-1.3,1.2-1.3,1.2s0.4,1.4,0.1,2.3c-0.2,0.5-0.7,0.9-1.3,0.6
					c0,0-0.9,1.2-2.1,0c0,0-0.8,1.3-1.8,0.1c0,0-0.4,0.3-1-0.1c-0.2-0.1-0.4-0.3-0.6-0.6c-0.8-1.3-2.2-3.6-1.5-6.3
					c0.7-2.7,0.4-6.1,0.4-6.1s5.8-0.4,5.6,0.1C954.3,83.7,953.4,87.9,953.4,87.9z"/>
				<path class="st8" d="M956.6,93.3c-0.2,0.2-2.9,1-3.1,0.4c-0.2-0.6,1.2-1.4,1.4-1.6c0.2-0.1,0,0.2-1.1-0.6"/>
				<line class="st8" x1="955.5" y1="96.2" x2="954.7" y2="93.8"/>
				<path class="st8" d="M953.4,96.2c0,0-0.9-2.8-0.7-3.3s0.3-0.9,1.4-0.2"/>
				<path class="st8" d="M951.6,96.3c0,0-0.9-3.3-0.3-3.9c0.6-0.6,1.4,0,1.4,0"/>
				<path class="st8" d="M950.2,94.9c0,0-0.9-2.8,1-2.5"/>
			</g>
		</g>
		<g>
			
				<ellipse transform="matrix(0.983 -0.1838 0.1838 0.983 -2.193 176.9875)" class="st9" cx="953.7" cy="100.3" rx="14.3" ry="16.2"/>
			
				<ellipse transform="matrix(0.9829 -0.1839 0.1839 0.9829 -2.1764 177.0825)" class="st10" cx="953.7" cy="100.3" rx="16.1" ry="18.2"/>
			<line class="st11" x1="964.2" y1="87" x2="942.9" y2="113"/>
			<line class="st11" x1="965.5" y1="112.7" x2="941.6" y2="87.4"/>
			
				<ellipse transform="matrix(0.9829 -0.1839 0.1839 0.9829 -2.1778 177.0827)" class="st12" cx="953.7" cy="100.3" rx="9.5" ry="10.8"/>
			<path class="st13" d="M950.5,100.9c0.4,1.9,2.1,3.2,3.8,2.9c1.7-0.4,2.8-2.2,2.4-4.2c-0.4-1.9-2.1-3.2-3.8-2.9
				C951.2,97.1,950.1,99,950.5,100.9z"/>
			<path class="st14" d="M951,100.8c0.3,1.7,1.8,2.8,3.3,2.5s2.4-1.9,2-3.5c-0.3-1.7-1.8-2.8-3.3-2.5
				C951.5,97.6,950.6,99.2,951,100.8z"/>
			<path class="st15" d="M952,100.6c0.2,1,1.1,1.7,2,1.5s1.4-1.1,1.2-2.1s-1.1-1.7-2-1.5C952.4,98.6,951.8,99.6,952,100.6z"/>
		</g>
		<path class="st5" d="M933.7,93.9c0,0-4.9,12.5-1.6,13.7c3.2,1.2,6.6-2.6,8.5-3.7c2-1,44.6-3.2,44.6-3.2l-1.6,0.7
			c0,0-9.9,0.8-11.3,1.1c-1.4,0.3-1.2,1.5-0.2,1.4s13.8-1.4,13.8-1.4l7.1-2c0,0,8.2-0.2,9.5,0.7c1.3,1,16.7,7.6,16.7,7.6l1.2-2.5
			l-15.2-6.3c0,0-7.9-8.2-9.2-8.2c-1.2,0-1.8,0.8-1.8,0.8c-4.8,0.2-9.6,0.5-14.4,0.7c-0.8,0-1.6,0.1-2.5,0.1c-1,0-2.3-0.1-3,0.6
			c-0.8,0.7-0.4,1.4,0.5,1.6c2.1,0.5,17.3-0.6,17.3-0.6l-0.7,1.2l-38.7,1.3C952.7,97.5,937.6,90,933.7,93.9z"/>
		<path class="st3" d="M932.4,74.6c0,0-4.9,7-3.7,14.3s10.5,12.1,16,10.1s19.4-8.6,18.3-11.6c-1.1-3-2-1.7-11-4.8
			c-0.6-0.2-2-0.5-2.1-2.1C949.9,78.9,932.4,74.6,932.4,74.6z"/>
		<g>
			<g>
				<path class="st0" d="M966,38.6c1,0.5,1.7,1.7,1.9,2.8c0.3,1.3-0.4,3.1,0.4,4.3c0.3,0.5,1.1,0.5,1.6,0.7c2.4,0.6,3.3,1,2.8,1.4
					c-0.4,0.4-4.6,0.9-5,1.6c-0.4,0.6-1.3,4.1-1.8,4.5s-2.9-0.4-3.5,0.1c-0.5,0.4-1.5,3.2-1.5,3.2l-6.3-1c0,0,3-6.1,2.3-8.2
					c-0.7-2.1,0.4-3.2,0.9-5.4c0.8-3.5,4.2-4.8,7.6-4.1C965.6,38.4,965.8,38.5,966,38.6z"/>
				<path class="st5" d="M966.4,42.3c1.9-0.5,3.8-1.8,1.9-4.7c-1.2-1.8-4.4-1.9-6.4-1.8c-4,0.2-7.7,2-8.1,6.4
					c-0.2,2,0.3,11.2,4.3,9.3c1.2-0.6,1.7-2.1,1.6-3.3c-0.2-1.4-1.7-2.2-1.1-3.8c0.1-0.3,0.3-0.6,0.7-0.7c0.7-0.2,0.9,0.7,1,1.2
					c0.2,0.4,0.5,2.3,1.1,2.3c2.2,0.2,1.2-3.7,1.2-3.7S964.5,42.9,966.4,42.3z"/>
			</g>
			<path class="st16" d="M956.7,51.6c0-0.1-5-2.7-9.7,2.1s-5.1,14.1-8.6,16.6s-8.1,5-6.1,5.1S948,85.7,950,85.5
				c2-0.2,13.1-16,13.2-22.5c0.2-6.5-3.3-7.9-3.3-7.9S956.9,53.6,956.7,51.6z"/>
		</g>
		<path class="st2" d="M930.1,77.1c0,0-4.6,7.9-1.6,13.9s7.7,9.8,15.4,9s17.8-5.3,16.4-7.4s-6.1-6.5-12-7.4
			C942.5,84.3,932.4,75.8,930.1,77.1z"/>
		<g>
			
				<ellipse transform="matrix(0.2006 -0.9797 0.9797 0.2006 646.3854 993.4939)" class="st17" cx="932" cy="100.7" rx="18.2" ry="16.3"/>
			
				<ellipse transform="matrix(0.2007 -0.9797 0.9797 0.2007 646.3306 993.5198)" class="st18" cx="932" cy="100.7" rx="20.4" ry="18.2"/>
			<line class="st11" x1="919.9" y1="85.8" x2="944.1" y2="115.1"/>
			<line class="st11" x1="918.4" y1="114.7" x2="945.6" y2="86.2"/>
			
				<ellipse transform="matrix(0.2006 -0.9797 0.9797 0.2006 646.384 993.489)" class="st19" cx="932" cy="100.7" rx="12.1" ry="10.8"/>
			<path class="st13" d="M935.5,101.5c-0.4,2.2-2.4,3.6-4.3,3.2c-1.9-0.4-3.2-2.5-2.7-4.7c0.4-2.2,2.4-3.6,4.3-3.2
				C934.7,97.2,935.9,99.3,935.5,101.5z"/>
			<path class="st14" d="M935,101.4c-0.4,1.9-2,3.1-3.7,2.8c-1.7-0.3-2.7-2.1-2.3-4s2-3.1,3.7-2.8S935.3,99.5,935,101.4z"/>
			<path class="st15" d="M933.8,101.1c-0.2,1.1-1.2,1.9-2.2,1.7c-1-0.2-1.6-1.3-1.4-2.4c0.2-1.1,1.2-1.9,2.2-1.7
				C933.4,98.9,934,100,933.8,101.1z"/>
		</g>
		<g>
			<path class="st0" d="M947.6,54.4c-1.8,1.4-3.1,3.4-4.7,5c-2.2,2.1-5.4,5.9-6.5,9.3c-0.1,0.1-0.1,0.1-0.2,0.2
				c-2.3,3.1-1.3,16.1-1.3,16.1s5.1-0.3,5-0.6c0-0.3,0.6-7.6,1.7-10.2c0.3-0.9,0.4-1.7,0.4-2.4c2.2-2.1,8.7-9.2,10.8-12.5
				c0.6-0.9,1.2-1.9,1.3-3C954.8,52.2,949.7,52.8,947.6,54.4z"/>
			<path class="st16" d="M940.8,87.6c-0.3-0.3-0.6-1.2-0.7-2c0.3-0.2,0.4-0.5,0.4-0.9c0-0.7-0.5-1.2-1.2-1.2h-4.1
				c-0.7,0-1.2,0.5-1.2,1.2c0,0.4,0.2,0.8,0.6,1c-0.5,1.8-1.6,5.9-0.6,7c1.3,1.4,1.7,0.5,1.7,0.5c-0.1,0.3,0.2,0.8,0.4,1
				c0.1,0.1,0.2,0.2,0.4,0.3c0.1,0,0.6-0.1,0.7-0.1c0,0,1.2,1.2,1.7,0.6c-0.1,0.1,0.5,0.4,0.6,0.4c0.3,0.1,0.6,0.3,0.9,0.1
				c0.3-0.2,0.3-0.5,0.3-0.8c0-0.1-0.1-0.6,0-0.7c0,0,1.1-0.8,1.2-2.1C942,90.6,941.5,88.1,940.8,87.6z"/>
		</g>
		<g>
			<g>
				<path class="st2" d="M969,39.7c-0.7,0-7.4-0.2-9,0.1s-6.8,4.1-6.8,4.1c0,1.5,1.9,1.3,2.3,1.4c0.5,0,3,3,3.5,3.4s3,5.6,3.5,5.8
					s1.6-0.5,1.6-0.5s-1.8-1.7-2.6-3.9s-0.3-5.4-0.2-6.3c0.1-0.9,2.7-1.3,4.2-1.5c1.5-0.3,2.3-0.3,2.9-0.3S969.7,39.7,969,39.7z
					 M960.2,48.2l-4.3-4.8c0,0,3.6-2.8,3.8-2.8s0.4,0.2,0.4,1.6C960.2,42.4,960.2,48.2,960.2,48.2z"/>
			</g>
			<path class="st2" d="M950.4,37.5c0,0,4.2-3.9,8.3-4.6c4.1-0.7,9.9-0.1,11.7,5.9c0,0-0.7,1.2-1.4,1.4s-6.3-1-8.3,0.3
				c-2,1.4-5.5,3.7-6.3,3.6c-0.8-0.1-3.4-0.2-2.9-1.2s1.4-1.6,0.6-1.9c-0.9-0.3-2.3-0.5-1.2-1.2C952,39.1,949.3,38,950.4,37.5z"/>
			<path class="st5" d="M958.4,36.8c0,0,4.1-1.8,8.7,0.4c0,0,0.8,0.7-1.3,0.9c-2.1,0.1-7.3-0.5-7.7-1.1"/>
			<path class="st5" d="M950.2,38.1c0,0,3-2.7,6.5-2.6c3.6,0-4.1,0.8-6,3.3L950.2,38.1z"/>
			<path class="st5" d="M952.1,39.3c0.3,0,3.4-1.6,6.8-0.6c3.4,1-5.1,1.2-6,1.6C951.9,40.7,951,39.6,952.1,39.3z"/>
			<path class="st5" d="M957.5,34.3c0,0,8-1.4,12.8,4.5c0,0-4.1-7.7-13.1-4.6"/>
		</g>
		<g>
			
				<ellipse transform="matrix(0.2321 -0.9727 0.9727 0.2321 678.6606 1073.1007)" class="st20" cx="1019" cy="106.7" rx="12.4" ry="12.4"/>
			<circle class="st11" cx="1018.9" cy="106.7" r="14.3"/>
			<line class="st13" x1="1015.2" y1="92.7" x2="1021.9" y2="120.7"/>
			<line class="st13" x1="1032.6" y1="102.5" x2="1005.2" y2="110.9"/>
			<path class="st13" d="M1025.2,93.9c-0.1,0-12.3,25.8-12.3,25.8"/>
			<line class="st13" x1="1007.3" y1="98.3" x2="1030.5" y2="115.1"/>
			<path class="st13" d="M1022.1,106.6c0,1.7-1.4,3.1-3.1,3.1s-3.1-1.4-3.1-3.1s1.4-3.1,3.1-3.1S1022.1,104.9,1022.1,106.6z"/>
			<circle class="st14" cx="1019.1" cy="106.6" r="2.7"/>
			<path class="st15" d="M1020.4,106.6c0,0.7-0.6,1.3-1.3,1.3s-1.3-0.6-1.3-1.3c0-0.7,0.6-1.3,1.3-1.3S1020.4,105.9,1020.4,106.6z"
				/>
		</g>
	</g>
	<g>
		<g>
			<g>
				<path class="st0" d="M455.1,37.8c2.4,3.8,7,2.1,8,0.8c1-1.4-0.1-8.2-0.3-10.1c-0.2-1.8-2-3.1-2-3.1c-2.7,3-8.8-2.7-8,8.8
					c0,0-0.7-3-2.3-2.2s-0.2,3.8,1.4,4l0.7,9.3l7.2-0.4l-0.3-4.7"/>
				<path class="st0" d="M460.5,29.5c0,0,1.8,3.3,4.4,3.8c2.6,0.5-3.1,1.2-3.3,1.6"/>
			</g>
			<path class="st5" d="M453.4,22.3c4.2-0.7,15-0.7,13.9,3.1c-1.4,4.5-8.2,2.5-8.2,2.5s-5.7-1.4-4.6,0.7c1.1,2.1-0.1,4.7-0.5,6.1
				c-0.2,0.8-1.2,0.5-1.4-0.1c-0.2-0.7-1-2.9-2-2.2c-0.3,0.2-0.4,0.7-0.4,1.1c0,0.4,0.1,0.8,0.3,1.1c0.3,0.6,1,1.3,1.7,1
				c0.1,0.6,0.2,1.3,0.2,1.9c0,0.4,0,1.2-0.6,1.3c-1.1,0.2-2.1-1.9-2.4-2.7c-1-2.1-1.5-4.8-1.6-7.2c0-2.1,0.7-4,2.9-4.4l0.2-0.6
				c0.2-0.5,0.6-1,1.2-1.2C452.3,22.5,452.8,22.4,453.4,22.3z"/>
		</g>
		<g>
			<path class="st0" d="M477.5,68.6c0.4-0.3,0.7-0.7,0.5-1.1c-0.4-1.1-1.4-0.7-1.4-0.7l0,0c0-0.2,0.1-0.4,0.1-0.7
				c0.2-1.1-5-0.5-5.4-0.6c0,0-1.5-3.4-1.6-3.9c0-0.1-0.2,0-0.5,0.1c-0.4-1.7-1.1-3.9-2.1-5.2c-1.8-2.4-3.4-2.8-3.7-3.2
				c-0.5-0.9-2.1-0.3-2.1,3.1c-0.1,3.4,5.2,9.3,5.2,9.3s0,0,0.1-0.1c0.6,0.9,1.4,2.1,1.9,3.3c0.3,0.7,0.7,1.3,1.1,1.7l-0.5,0.3
				c-0.5,0.1,0.4,1.4,0.7,1.3c0.1,0,0.7-0.3,1.1-0.6c0.7,0.4,1.3,0.7,1.8,0.9c0.3,0.1,0.6,0.2,0.8,0.2c0.6,0,0.8-0.4,0.8-0.4
				c1.3,0.4,1.2-1,1.2-1c1.5,0.2,1.5-1.1,1.5-1.1c0.6-0.1,0.7-0.6,0.6-1.1C477.7,69,477.6,68.8,477.5,68.6z"/>
			<path class="st16" d="M467.3,55.4c0,0,0.3-14.7-4.7-14.2s-7,15.8-7,15.8S467.3,57,467.3,55.4z"/>
			<g>
				<polyline class="st21" points="478.6,115.1 468.7,69.2 460,60.8 				"/>
				<path class="st3" d="M459.8,63l-0.6-0.6c-0.6-0.6-0.7-1.6-0.1-2.3l0,0c0.6-0.6,1.6-0.7,2.3-0.1l0.6,0.6c0.6,0.6,0.7,1.6,0.1,2.3
					l0,0C461.4,63.6,460.4,63.6,459.8,63z"/>
				<path class="st3" d="M467.9,58.2l-3.7,3.3c-0.7,0.6-1.7,0.5-2.2-0.1l-1.7-1.9c-0.6-0.7-0.5-1.7,0.1-2.2l3.7-3.3
					c0.7-0.6,1.7-0.5,2.2,0.1L468,56C468.7,56.6,468.6,57.6,467.9,58.2z"/>
				<path class="st3" d="M467.6,72.4l-0.2-0.8c-0.2-0.8,0.3-1.7,1.1-1.9l0,0c0.8-0.2,1.7,0.3,1.9,1.1l0.2,0.8
					c0.2,0.8-0.3,1.7-1.1,1.9l0,0C468.7,73.7,467.8,73.2,467.6,72.4z"/>
				<path class="st3" d="M477,115.4l-0.2-0.8c-0.2-0.9,0.4-1.7,1.3-1.9l0,0c0.9-0.2,1.7,0.4,1.9,1.3l0.2,0.8
					c0.2,0.9-0.4,1.7-1.3,1.9l0,0C478,116.8,477.2,116.3,477,115.4z"/>
				<path class="st3" d="M475.7,108.3l-0.1-0.4c-0.1-0.6,0.3-1.2,0.9-1.3l0.6-0.1c0.6-0.1,1.2,0.3,1.3,0.9l0.1,0.4
					c0.1,0.6-0.3,1.2-0.9,1.3l-0.6,0.1C476.4,109.3,475.8,108.9,475.7,108.3z"/>
			</g>
		</g>
		<g>
			<path class="st2" d="M468.9,95c0,0-4.6-0.4-5.2-1.4c-0.2-4.8-6-22.6-2.9-23.6c3.2-1,13.4-3.5,14.7,2.8c0,0,4.8,10.2,1,22
				C475.5,95.6,468.9,95,468.9,95z"/>
		</g>
		<g>
			<g>
				<path class="st22" d="M474.8,69.6c0,0-5.1-10.5-7.6-19.8c-1.5-5.6-2.8-7.6-4.3-8.3c-1-0.5-2.8-0.5-2.8-0.5s-0.7,1.2-3.5,2
					c-2.8,0.9-4,0.3-4,0.3s-5.1,2.3-6.8,6.2c-3,5.8,1.3,21.7,1.6,24.7C447.6,77.2,468.7,87.3,474.8,69.6z"/>
			</g>
			<path class="st4" d="M453.4,44.3c0,0,2.7,4.1,3,4.2c0.3,0.1,1.5-5.5,1.5-5.5l3.9,3.5l-0.7-5.3"/>
			<path class="st23" d="M458.9,45.4c0.2,0,0.4,0.2,0.5,0.4c0,0.2-0.2,0.4-0.4,0.4c-0.2,0-0.4-0.2-0.5-0.4
				C458.5,45.6,458.7,45.4,458.9,45.4z"/>
			<path class="st23" d="M459.7,48c0.2,0,0.4,0.2,0.5,0.4c0,0.2-0.2,0.4-0.4,0.4c-0.2,0-0.4-0.2-0.5-0.4S459.4,48,459.7,48z"/>
		</g>
		<g>
			<path class="st0" d="M456.1,75.5c0,0,20.5-2.2,27-0.7s12.9,26.4,12.9,26.4s-2.7,2.7-4.3,2.8c-1.6,0.1-12.6-13.4-12-20.7
				c-4.6,0.7-22,6.9-26.1,2.9C449.4,82.1,450.1,77.8,456.1,75.5z"/>
			<g>
				<path class="st24" d="M506.7,96.3c0,0,3.2,1-5.1,9.3c-8.3,8.4-8.8,0.9-8.8,0.9s11.1-10.3,13.7-10.1"/>
				<path class="st5" d="M491.5,105.5c0.1,0.5,0.3,0.9,0.6,1.5c0.6,1,1.9,3.1,3.4,2.3c0,0,10.9-12.1,11-12.2
					c0.6-0.6-0.1-1.1-0.7-1.3c-0.8-0.3-1.8-0.1-2.6,0.1c-1,0.3-1.9,0.9-2.9,1.3c-1.1,0.5-2.1,1-3.1,1.6c-1.6,0.9-3.2,1.8-4.4,3.2
					c-0.6,0.7-1.1,1.6-1.3,2.6C491.5,104.9,491.5,105.2,491.5,105.5z"/>
			</g>
			<path class="st2" d="M456,74.8c6-3.7,27-1.2,27.4-0.9c0.2,0.1-0.9,0.9-1,0.9c-1.8,1.4-2.9,3.5-3.4,5.7c-0.1,0.5-0.5,6-0.5,6
				c-5.5,0.7-20.7,6.7-25.5,0.7c-3-4-3.2-10.7-3.2-10.7S450.2,77.7,456,74.8z"/>
		</g>
		<g>
			<path class="st14" d="M439.1,77l6.6-3l0.7,1.5c0,0-6.1,3.7-6.6,3.4C439.3,78.7,439.1,77,439.1,77z"/>
			<path class="st0" d="M448.5,54.7c0.9-0.6,1.8-1.3,2.4-2.2c2.2-3.4-2.7-5-5.2-4.4c-2.3,0.5-4.2,1.8-6.4,2.6
				c-3.1,1.1-8.2,3.6-10.3,6.5c-0.6,0.5-1,1.3-0.7,2.5c0.6,3.6,9.4,10.9,10.6,11.9c0,0,0,0.1,0.1,0.1c0.4,0.6,3.3,5.9,5.1,6
				c1.9,0.1,1.5-0.8,1.5-0.8c0.1,0.3,0.7,0.4,1,0.4c0.2,0,0.3,0,0.5-0.1c0.1-0.1,0.4-0.5,0.4-0.5s1.7-0.1,1.6-0.8
				c0,0.2,0.6-0.1,0.7-0.1c0.3-0.1,0.6-0.2,0.7-0.6c0.1-0.3-0.2-0.5-0.4-0.7c-0.1-0.1-0.5-0.4-0.5-0.5c0,0,0-0.1,0-0.2l1.3-0.7
				c0,0-0.1-1.1-0.7-1.3c-0.2-0.1-0.6,0-1.1,0.2c-0.1-0.1-0.2-0.2-0.2-0.4c-0.8-1-3-2.4-3.9-2.3c-0.8,0.1-3-1.6-3-1.6
				c-0.2-0.2-5.1-5.7-6.2-8.2l0,0c0.7-0.1,1.3-0.2,1.6-0.3C439.1,59,444.9,57.1,448.5,54.7z"/>
			<g>
				<path class="st22" d="M436.9,55.5c-0.8-1.4-2-3.7-1.8-3.8c0,0,2.3-1.4,3.4-2.1c2.7-1.9,5.7-3.5,8.6-4.5c2.8-0.9,5.4,0.2,6.1,2.9
					c1.5,6.4-7.2,10.8-11.6,13.2c-1.6-1.3-2.9-2.9-4.1-4.7C437.5,56.4,437.2,56,436.9,55.5z"/>
			</g>
			<g>
				<polyline class="st21" points="447.2,121.6 438.8,75.4 430.4,66.8 				"/>
				<path class="st3" d="M430.1,69l-0.6-0.6c-0.6-0.6-0.6-1.6,0-2.3l0,0c0.6-0.6,1.6-0.6,2.3,0l0.6,0.6c0.6,0.6,0.6,1.6,0,2.3l0,0
					C431.7,69.6,430.7,69.6,430.1,69z"/>
				<path class="st3" d="M438.4,64.4l-3.8,3.2c-0.7,0.6-1.7,0.5-2.2-0.2l-1.6-2c-0.6-0.7-0.5-1.7,0.2-2.2l3.7-3.2
					c0.7-0.6,1.7-0.5,2.2,0.2l1.6,2C439.2,62.8,439.1,63.8,438.4,64.4z"/>
				<path class="st3" d="M437.6,78.6l-0.2-0.8c-0.2-0.9,0.4-1.7,1.2-1.9l0,0c0.9-0.2,1.7,0.4,1.9,1.2l0.2,0.8
					c0.2,0.9-0.4,1.7-1.2,1.9l0,0C438.7,80,437.8,79.4,437.6,78.6z"/>
				<path class="st3" d="M445.6,121.9l-0.1-0.8c-0.1-0.9,0.4-1.7,1.3-1.8l0,0c0.9-0.1,1.7,0.4,1.8,1.3l0.1,0.8
					c0.1,0.9-0.4,1.7-1.3,1.8l0,0C446.6,123.4,445.7,122.8,445.6,121.9z"/>
				<path class="st3" d="M444.5,114.8l-0.1-0.4c-0.1-0.6,0.3-1.2,0.9-1.3l0.6-0.1c0.6-0.1,1.2,0.3,1.3,0.9l0.1,0.4
					c0.1,0.6-0.3,1.2-0.9,1.3l-0.6,0.1C445.2,115.8,444.6,115.4,444.5,114.8z"/>
			</g>
		</g>
		<g>
			<path class="st3" d="M497.2,80.1c1.1,3.7,4.5,6.3,8.5,6.3c0.8,0,1.6-0.1,2.4-0.3l0.3-0.8c1.5-0.2,3.2-1.9,3.2-1.9l0.6,0.1
				c1.4-1.6,2.3-3.7,2.3-6c0-2.4-1-4.7-2.6-6.3h-0.4c0,0-2.7-1.6-3.7-1.7c0,0-0.1-0.3-0.3-0.7c-0.6-0.1-1.3-0.2-2-0.2
				c-4.1,0-7.5,2.7-8.5,6.4l0.4,0.7c0,0-0.3,2.3,0,3.5L497.2,80.1L497.2,80.1L497.2,80.1z M509.3,75.3l2.7-1.1
				c0.7,0.3,1.8,3.1,1.8,3.1c-0.1,0.8-1.6,3.1-1.6,3.1l-2.9-1.2V75.3z M500.1,81.3l2.4-1.8l3.5,1.9l-0.4,2.9c0,0-2.6,0.3-3.4,0
				C502.2,84.3,501,83.5,500.1,81.3z M499.9,73.7c0,0,1.3-2.8,1.9-3c0,0,2.3-0.4,3.5-0.3l0.4,3l-3.2,1.9L499.9,73.7z"/>
			<path class="st5" d="M501.8,70.6c0,0,2.3-0.4,3.5-0.3l0.4,3l-3.2,1.9l-2.6-1.6C499.9,73.7,501.2,70.8,501.8,70.6z"/>
			<path class="st5" d="M513.8,77.3c-0.1,0.8-1.6,3.1-1.6,3.1l-2.9-1.2v-4l2.7-1.1C512.7,74.5,513.8,77.3,513.8,77.3z"/>
			<path class="st5" d="M506,81.4l-0.4,2.9c0,0-2.6,0.3-3.4,0c0,0-1.2-0.8-2-3l2.4-1.8L506,81.4z"/>
			<path class="st5" d="M497.5,79.3l-0.2,0.8h-0.2c-0.2-0.8-0.4-1.7-0.4-2.6c0-0.8,0.1-1.7,0.3-2.4l0.4,0.7
				C497.5,75.8,497.2,78,497.5,79.3z"/>
			<path class="st5" d="M507.9,69.6c0,0-0.1-0.3-0.3-0.7c1.7,0.4,3.1,1.2,4.3,2.4h-0.4C511.6,71.2,508.8,69.6,507.9,69.6z"/>
			<path class="st5" d="M511.6,83.3l0.6,0.1c-1.1,1.2-2.5,2.1-4.2,2.6l0.3-0.8C509.8,85.1,511.6,83.3,511.6,83.3z"/>
		</g>
	</g>
	<g>
		<g>
			<path class="st0" d="M1133.3,24.7c0,0,0.7,1.6,1.8,3.6l0,0l0,0c1.7,3.4,4.3,8,5.9,9c2.6,1.7,12.6,7.6,14.4,8.8
				c1.8,1.2,4.4,5.4,4.4,5.4s-1.5-6.9,2.4-12.7c1.2-1.6,1.7-1.4,2-1.6c-1.1-0.4-4.6-1.5-8-1.5l-8.7-4.2l-9.9-9.6
				c-0.6-0.8-1.2-1.8-1.6-2.7c-1.2-2.7-3.9-3.8-5.4-4.4c-0.4-0.1-0.7-0.2-0.9-0.1c-0.7,0.1-0.9,0.6-0.9,0.6
				c-1.7-0.4-1.5,1.3-1.5,1.3c-1.8-0.2-1.8,1.4-1.8,1.4c-0.7,0.1-0.9,0.8-0.7,1.4c0.4,0.9,1.7,1.9,1.7,1.9s-0.1,0.5-0.3,1.8
				c-0.2,1.4,6.2,0.3,6.6,0.5L1133.3,24.7z"/>
			<g>
				
					<ellipse transform="matrix(0.9248 -0.3805 0.3805 0.9248 77.6994 431.3898)" class="st25" cx="1130" cy="19.2" rx="48.9" ry="1.9"/>
				<path class="st5" d="M1135.6,19.5l-5.8,2.4c-0.9,0.4-1.9-0.1-2.2-0.9l-0.5-1.2c-0.4-0.9,0.1-1.9,0.9-2.2l5.8-2.4
					c0.9-0.4,1.9,0.1,2.2,0.9l0.5,1.2C1136.8,18.2,1136.4,19.2,1135.6,19.5z"/>
			</g>
			<path class="st0" d="M1133.1,21.7c-0.1-0.1-0.7-2.4-3.2-2s-2.7,1.8-4.1,1.1c-1.4-0.6-5.4-0.6-2.3,1.2c3.1,1.7,2.2,2,4.7,1.9
				C1130.8,23.8,1133.3,22.1,1133.1,21.7z"/>
			<polygon class="st7" points="1133.1,20.7 1127.8,22.7 1127.6,23.8 1129.8,23.7 1131.6,23.6 1134,21.9 			"/>
		</g>
		<g>
			<path class="st0" d="M1166.6,18.6c1.2,0,2.3,0.7,3.1,1.5c0.9,1,1.2,2.9,2.4,3.6c0.5,0.3,1.2,0,1.7-0.2c2.4-0.6,3.4-0.7,3.2-0.2
				c-0.2,0.6-3.6,3.1-3.6,3.8c-0.1,0.8,0.9,4.2,0.6,4.8c-0.3,0.7-2.8,1.1-3,1.8c-0.3,0.7,1.2,3.1,1.2,3.1l-6.6,2.3
				c0,0-0.8-6.7-2.4-8.1c-1.7-1.5-1.2-3-1.9-5.2c-1-3.5,1.3-6.3,4.6-7.2C1166.2,18.7,1166.4,18.6,1166.6,18.6z"/>
			<path class="st5" d="M1166,33.7c1.3-0.3,0.5-2.6-0.2-3.7c-0.8-1.2-2.6-1-2.8-2.7c-0.1-0.3,0-0.7,0.2-1c0.5-0.5,1.1,0.2,1.5,0.5
				s1.5,1.8,2.1,1.5c2.2-1-0.6-4.2-0.3-5.8c0.2-1.4,2.3-0.5,3.3-1.3c0,0,0.4-1.5-2.6-1.7c0,0,6.3,1.1,5.6,0
				c-0.7-1.1-4.3-1.5-4.3-1.5s5,0.5,4.5-1.4s-7.9-0.5-8.8,0.7c-0.1,0.2-1.9,1-2.2,1c-1.3,0.3-2.5,0.9-3.5,1.7
				c-3.2,2.9-1.7,8.8,0.6,11.8c1.2,1.5,2.7,2.7,4.4,3.4c0.6,0.2,2,1,2,0c0-0.5-0.8-1.1-1.1-1.4C1164.4,33.9,1164.8,34,1166,33.7z"/>
		</g>
		<g>
			<g>
				<path class="st0" d="M1189.2,89.5c-0.4-7.9-8-19.2-8-19.2l0,0c-1.4-2.9-4.7-4.7-8.2-4.1c-4.2,0.7-7,4.6-6.3,8.7
					c-0.1,3.7,9.5,14.2,16.1,18c-0.3,0.9-0.5,1.9-0.7,3.1c-0.9,7.6,13.4,18.9,15.6,21c1.4-0.3,2.8-0.9,4.1-1.6
					C1197.5,103.8,1191.4,93.1,1189.2,89.5z"/>
				<g>
					<path class="st5" d="M1194.7,113.7c0-0.1,0.1-0.2,0.1-0.3c0.2-0.3,0.5-0.4,0.8-0.4c0.3,0,0.8-0.1,1.1,0.1
						c0.3,0.1,0.5,0.4,0.7,0.6c0.3,0.3,0.7,0.6,1.1,0.8c0.6,0.3,1.4,0.6,2.1,0.6c1,0,0.7-0.9,1.4-0.2c0.7,0.8,3.8,3.6,5,3.6
						c1.2,0,3.1-0.3,3.3,1.3c0.3,1.5-2.7,3.4-4.8,3.4c-2.1,0.1-5.3-0.8-6-0.4c-0.7,0.3-6.4-0.1-6.8-2c-0.3-1.3,0.5-2.6,1.2-3.6
						c0.3-0.4,0.7-0.9,0.8-1.4c0.1-0.3,0.1-0.6,0.1-0.9C1194.9,114.5,1194.6,114.1,1194.7,113.7z"/>
					<path class="st26" d="M1192.8,119.7c0,0.2,0.8,1.2,2.4,1.5c1.4,0.3,2.9,0.4,4.3,0.5c0.7,0,1.5,0.1,2.2,0.1
						c0.7,0.1,1.4,0.2,2.1,0.2c1.2,0,2.5,0,3.6-0.5s2.4-1.1,2.8-2.3"/>
					<path class="st26" d="M1204.4,117c0,0-1.2,0.2-1.7,1"/>
					<path class="st26" d="M1203.4,116.2c0,0-1.2-0.4-1.8,0.5"/>
				</g>
			</g>
			<g>
				<path class="st0" d="M1173.6,73.8c-2.5-3.4-7.2-4.2-10.6-1.8c-2.9,1.3-7.2,11.3-8.6,19c-0.2-0.1-0.4-0.1-0.6-0.2
					c-7.4-2-20.7,10.5-23,12.3c0,1.5,0.5,2.9,0.9,4.3c10-2.2,19.6-5.7,24.8-7.7c0.2,0,0.3,0,0.5,0c7.8-1.6,16.4-16.7,16.4-16.7l0,0
					C1175.5,80.4,1175.6,76.6,1173.6,73.8z"/>
				<g>
					<path class="st5" d="M1133.5,100.7c0.2,0.1,0.4,0.3,0.5,0.6c0.2,0.5,0.1,1.2-0.4,1.5c-1.2,1-1.8,2.5-1.8,3.4c0,1,1,0.7,0.2,1.4
						c-0.7,0.7-3.4,3.9-3.3,5.1s0.4,3-1.1,3.4s-3.5-2.5-3.6-4.7c-0.1-2.1,0.6-5.3,0.2-6c-0.4-0.7-0.1-6.4,1.8-6.9
						c1.3-0.3,2.6,0.4,3.6,1.1c1,0.6,1.9,1.1,3.2,1C1133,100.7,1133.3,100.7,1133.5,100.7z"/>
					<path class="st26" d="M1126.9,98.7c-0.2,0-1.1,0.9-1.4,2.5c-0.3,1.4-0.3,2.9-0.3,4.3c0,0.7,0,1.5,0,2.2s-0.2,1.4-0.2,2.1
						c0,1.2,0.1,2.5,0.6,3.6s1.2,2.3,2.4,2.7"/>
					<path class="st26" d="M1130.1,110.1c0,0-0.2-1.2-1-1.6"/>
					<path class="st26" d="M1130.8,109.2c0,0,0.3-1.3-0.6-1.8"/>
				</g>
			</g>
			<path class="st2" d="M1160.6,71.3l-5.1,14.2l12.4,6.8l5-7.3l4.9,5.2l10.9-6.2c0,0-5.7-14-9.4-16.8
				C1175.6,64.4,1161.7,63.1,1160.6,71.3z"/>
		</g>
		<g>
			<g>
				<g>
					<path class="st22" d="M1185,72.2c-1.2-3.7-1.6-6-2.4-9.6c-1.6-7.9-0.1-12.4-2.4-18.5c-2.2-6.1-8.4-7.9-8.4-7.9s-0.2,1-3.5,2
						c-3.3,0.9-2.9-0.9-2.9-0.9s-5.5,0.4-6.5,2.8s-0.1,8.2,0.5,10.2s-3,22.8,0.2,24.6c3.2,1.9,8.6,1.9,14.8,0
						C1180.6,73,1182.2,74.1,1185,72.2z"/>
				</g>
			</g>
		</g>
		<g>
			<g>
				<path class="st0" d="M1184.3,48.3c-1.9-0.8-3.5-2.4-5-3.7c-1-0.9-1.9-1.7-2.9-2.5c-1-0.9-1.9-1.8-3.1-2.5
					c-1.4-0.8-2.8-1-4.4-0.8c-1.3,0.2-2.8,0.9-3.3,2.1c-0.3,0.8-0.3,1.7,0,2.5c0.6,2,2.3,3.8,3.7,5.2c1.5,1.5,3.1,2.8,4.8,4
					c1.2,0.9,2.5,1.8,3.9,2.5c4.5,2.5,9.8,2.7,14.7,1.2c0.8-0.2,1.6-0.5,2.4-0.9c0.8-0.3,1.5-0.7,2-1.4
					C1199.8,49.8,1186.1,49.1,1184.3,48.3z"/>
			</g>
			<path class="st3" d="M1186.9,48.9c0,0-2.8,7.3-0.6,8.5c2.2,1.3,12.6-1,12.4-4.5C1198.5,49.5,1186.9,48.9,1186.9,48.9z"/>
		</g>
	</g>
	<g>
		<g>
			<g>
				<g class="st27">
					<g class="st27">
						<g>
							<path id="SVGID_21_" class="st23" d="M1467.4,93.3l-0.8,0.6c-0.9-1.4-1.9-2.6-2.8-3.5s-1.7-1.5-2.2-1.5l0.8-0.6
								c0.5,0,1.3,0.6,2.2,1.5C1465.4,90.6,1466.4,91.9,1467.4,93.3z"/>
						</g>
						<g>
							<defs>
								<path id="SVGID_6_" d="M1467.4,93.3l-0.8,0.6c-0.9-1.4-1.9-2.6-2.8-3.5s-1.7-1.5-2.2-1.5l0.8-0.6c0.5,0,1.3,0.6,2.2,1.5
									C1465.4,90.6,1466.4,91.9,1467.4,93.3z"/>
							</defs>
							<clipPath id="SVGID_7_">
								<use xlink:href="#SVGID_6_"  style="overflow:visible;"/>
							</clipPath>
							<g class="st28">
								<path class="st5" d="M1467.4,93.3l-0.8,0.6c-0.3-0.4-0.5-0.8-0.8-1.2l0.8-0.6C1466.8,92.5,1467.1,92.9,1467.4,93.3"/>
								<path class="st5" d="M1466.5,92.1l-0.8,0.6c-0.2-0.3-0.4-0.5-0.6-0.7l0.8-0.6C1466.2,91.6,1466.3,91.8,1466.5,92.1"/>
								<path class="st5" d="M1466,91.4l-0.8,0.6c-0.1-0.2-0.3-0.3-0.4-0.5l0.8-0.6C1465.7,91,1465.8,91.2,1466,91.4"/>
								<path class="st5" d="M1465.6,90.9l-0.8,0.6c-0.1-0.1-0.2-0.3-0.4-0.4l0.8-0.6C1465.3,90.6,1465.4,90.7,1465.6,90.9"/>
								<path class="st5" d="M1465.2,90.5l-0.8,0.6c-0.1-0.1-0.2-0.2-0.3-0.4l0.8-0.6C1465,90.2,1465.1,90.3,1465.2,90.5"/>
								<path class="st5" d="M1464.9,90.1l-0.8,0.6c-0.1-0.1-0.2-0.2-0.3-0.3l0.8-0.6C1464.7,89.9,1464.8,90,1464.9,90.1"/>
								<path class="st5" d="M1464.6,89.8l-0.8,0.6c0,0,0,0-0.1-0.1s-0.1-0.1-0.2-0.2l0.8-0.6C1464.4,89.6,1464.5,89.7,1464.6,89.8
									C1464.5,89.7,1464.6,89.8,1464.6,89.8"/>
								<path class="st5" d="M1464.3,89.5l-0.8,0.6c-0.1-0.1-0.2-0.2-0.3-0.2l0.8-0.6C1464.1,89.3,1464.2,89.4,1464.3,89.5"/>
								<path class="st5" d="M1464,89.3l-0.8,0.6c-0.1-0.1-0.2-0.2-0.3-0.2l0.8-0.6C1463.9,89.1,1464,89.2,1464,89.3"/>
								<path class="st5" d="M1463.8,89l-0.8,0.6c-0.1-0.1-0.2-0.1-0.3-0.2l0.8-0.6C1463.6,88.9,1463.7,89,1463.8,89"/>
								<path class="st5" d="M1463.5,88.8l-0.8,0.6c-0.1-0.1-0.2-0.1-0.3-0.2l0.8-0.6C1463.4,88.7,1463.4,88.8,1463.5,88.8"/>
								<path class="st5" d="M1463.3,88.6l-0.8,0.6c-0.1-0.1-0.2-0.1-0.3-0.2l0.8-0.6C1463.1,88.5,1463.2,88.6,1463.3,88.6"/>
								<path class="st5" d="M1463,88.5l-0.8,0.6c-0.1-0.1-0.2-0.1-0.3-0.1l0.8-0.6C1462.8,88.4,1462.9,88.4,1463,88.5"/>
								<path class="st5" d="M1462.7,88.3l-0.8,0.6c-0.1-0.1-0.3-0.1-0.4-0.1l0.8-0.6C1462.5,88.3,1462.6,88.3,1462.7,88.3"/>
							</g>
						</g>
						<g>
							<path id="SVGID_1_" class="st4" d="M1467.4,93.3l-0.8,0.6c-0.9-1.4-1.9-2.6-2.8-3.5s-1.7-1.5-2.2-1.5l0.8-0.6
								c0.5,0,1.3,0.6,2.2,1.5C1465.4,90.6,1466.4,91.9,1467.4,93.3z"/>
						</g>
					</g>
					<g>
						<polygon class="st23" points="1486.4,122.2 1485.6,122.8 1466.5,93.9 1467.4,93.3 						"/>
					</g>
					<g class="st27">
						<g>
							<path id="SVGID_23_" class="st23" d="M1486.7,122.4l-0.8,0.6l0,0c0,0-0.1-0.1-0.2-0.2l0.8-0.6
								C1486.5,122.3,1486.6,122.4,1486.7,122.4L1486.7,122.4z"/>
						</g>
						<g>
							<defs>
								<path id="SVGID_8_" d="M1486.7,122.4l-0.8,0.6l0,0c0,0-0.1-0.1-0.2-0.2l0.8-0.6C1486.5,122.3,1486.6,122.4,1486.7,122.4
									L1486.7,122.4z"/>
							</defs>
							<clipPath id="SVGID_9_">
								<use xlink:href="#SVGID_8_"  style="overflow:visible;"/>
							</clipPath>
							<g class="st29">
								<path class="st23" d="M1486.7,122.4l-0.8,0.6l0,0l0,0L1486.7,122.4C1486.6,122.4,1486.7,122.4,1486.7,122.4L1486.7,122.4"/>
								<path class="st23" d="M1486.6,122.4l-0.8,0.6l0,0L1486.6,122.4L1486.6,122.4"/>
								<path class="st23" d="M1486.6,122.4l-0.8,0.6l0,0L1486.6,122.4L1486.6,122.4"/>
								<polyline class="st23" points="1486.6,122.4 1485.8,123 1485.8,123 1486.6,122.4 1486.6,122.4 								"/>
								<polyline class="st23" points="1486.6,122.4 1485.8,123 1485.8,123 1486.6,122.4 1486.6,122.4 								"/>
								<polyline class="st23" points="1486.6,122.4 1485.8,123 1485.7,123 1486.6,122.4 1486.6,122.4 								"/>
								<path class="st23" d="M1486.6,122.4l-0.8,0.6l0,0L1486.6,122.4L1486.6,122.4"/>
								<path class="st23" d="M1486.6,122.4l-0.8,0.6l0,0L1486.6,122.4L1486.6,122.4"/>
								<path class="st23" d="M1486.6,122.4l-0.8,0.6l0,0L1486.6,122.4C1486.5,122.4,1486.6,122.4,1486.6,122.4"/>
								<path class="st23" d="M1486.5,122.3l-0.8,0.6l0,0L1486.5,122.3L1486.5,122.3"/>
								<path class="st23" d="M1486.5,122.3l-0.8,0.6l0,0L1486.5,122.3L1486.5,122.3"/>
								<path class="st23" d="M1486.5,122.3l-0.8,0.6l0,0L1486.5,122.3L1486.5,122.3"/>
								<path class="st23" d="M1486.5,122.3l-0.8,0.6l0,0L1486.5,122.3L1486.5,122.3"/>
								<path class="st23" d="M1486.5,122.3l-0.8,0.6c0,0,0,0,0-0.1L1486.5,122.3C1486.4,122.2,1486.5,122.2,1486.5,122.3"/>
							</g>
						</g>
					</g>
					<g>
						<polygon class="st5" points="1462.4,88.3 1461.5,88.9 1458.5,88.9 1459.3,88.3 						"/>
					</g>
					<g class="st27">
						<g>
							<path id="SVGID_25_" class="st23" d="M1458.3,88.9l0.8-0.6c0.1,0,0.1-0.1,0.2-0.1l-0.8,0.6
								C1458.4,88.9,1458.3,88.9,1458.3,88.9z"/>
						</g>
						<g>
							<defs>
								<path id="SVGID_10_" d="M1458.3,88.9l0.8-0.6c0.1,0,0.1-0.1,0.2-0.1l-0.8,0.6C1458.4,88.9,1458.3,88.9,1458.3,88.9z"/>
							</defs>
							<clipPath id="SVGID_11_">
								<use xlink:href="#SVGID_10_"  style="overflow:visible;"/>
							</clipPath>
							<g class="st30">
								<path class="st5" d="M1459.3,88.3l-0.8,0.6c-0.1,0-0.2,0-0.2,0.1l0.8-0.6C1459.2,88.3,1459.3,88.3,1459.3,88.3"/>
							</g>
						</g>
						<g>
							<path id="SVGID_2_" class="st4" d="M1458.3,88.9l0.8-0.6c0.1,0,0.1-0.1,0.2-0.1l-0.8,0.6
								C1458.4,88.9,1458.3,88.9,1458.3,88.9z"/>
						</g>
					</g>
					<g class="st27">
						<g>
							<path id="SVGID_27_" class="st23" d="M1458,88.5l0.8-0.6c-0.6,0.4,0.2,2.7,2,5.4l-0.8,0.6C1458.2,91.2,1457.4,88.9,1458,88.5
								z"/>
						</g>
						<g>
							<defs>
								<path id="SVGID_12_" d="M1458,88.5l0.8-0.6c-0.6,0.4,0.2,2.7,2,5.4l-0.8,0.6C1458.2,91.2,1457.4,88.9,1458,88.5z"/>
							</defs>
							<clipPath id="SVGID_13_">
								<use xlink:href="#SVGID_12_"  style="overflow:visible;"/>
							</clipPath>
							<g class="st31">
								<path class="st5" d="M1460.8,93.3l-0.8,0.6c0,0,0-0.1-0.1-0.1L1460.8,93.3C1460.8,93.2,1460.8,93.2,1460.8,93.3"/>
								<path class="st5" d="M1460.8,93.2l-0.8,0.6c-0.2-0.3-0.4-0.6-0.6-0.9l0.8-0.6C1460.4,92.6,1460.6,92.9,1460.8,93.2"/>
								<path class="st5" d="M1460.2,92.3l-0.8,0.6c-0.1-0.2-0.2-0.4-0.3-0.6l0.8-0.6C1460,91.9,1460.1,92.1,1460.2,92.3"/>
								<path class="st5" d="M1459.9,91.7l-0.8,0.6c-0.1-0.2-0.2-0.3-0.3-0.5l0.8-0.6C1459.7,91.3,1459.8,91.5,1459.9,91.7"/>
								<path class="st5" d="M1459.6,91.2l-0.8,0.6c-0.1-0.1-0.1-0.3-0.2-0.4l0.8-0.6C1459.4,90.9,1459.5,91,1459.6,91.2"/>
								<path class="st5" d="M1459.4,90.8l-0.8,0.6c-0.1-0.1-0.1-0.3-0.2-0.4l0.8-0.6C1459.3,90.5,1459.3,90.6,1459.4,90.8"/>
								<path class="st5" d="M1459.2,90.4l-0.8,0.6c-0.1-0.1-0.1-0.2-0.2-0.4l0.8-0.6C1459.1,90.1,1459.1,90.2,1459.2,90.4"/>
								<path class="st5" d="M1459,90l-0.8,0.6c0-0.1-0.1-0.2-0.1-0.3l0.8-0.6C1459,89.8,1459,89.9,1459,90"/>
								<path class="st5" d="M1458.9,89.7l-0.8,0.6c0-0.1-0.1-0.2-0.1-0.3l0.8-0.6C1458.8,89.5,1458.9,89.6,1458.9,89.7"/>
								<path class="st5" d="M1458.8,89.4L1458,90c0-0.1-0.1-0.2-0.1-0.3l0.8-0.6C1458.7,89.2,1458.8,89.3,1458.8,89.4"/>
								<path class="st5" d="M1458.7,89.1l-0.8,0.6c0-0.1,0-0.2-0.1-0.3l0.8-0.6C1458.7,88.9,1458.7,89,1458.7,89.1"/>
								<path class="st5" d="M1458.7,88.8l-0.8,0.6c0-0.1,0-0.2,0-0.3l0.8-0.6C1458.6,88.6,1458.6,88.7,1458.7,88.8"/>
								<path class="st5" d="M1458.6,88.5l-0.8,0.6c0-0.1,0-0.2,0-0.3l0.8-0.6C1458.6,88.3,1458.6,88.4,1458.6,88.5"/>
								<path class="st5" d="M1458.6,88.2l-0.8,0.6c0-0.1,0.1-0.3,0.2-0.3l0.8-0.6C1458.7,88,1458.7,88.1,1458.6,88.2"/>
							</g>
						</g>
						<g>
							<path id="SVGID_3_" class="st4" d="M1458,88.5l0.8-0.6c-0.6,0.4,0.2,2.7,2,5.4l-0.8,0.6C1458.2,91.2,1457.4,88.9,1458,88.5z"
								/>
						</g>
					</g>
					<g>
						<polygon class="st23" points="1479.9,122.2 1479.1,122.8 1460,93.9 1460.8,93.3 						"/>
					</g>
					<g>
						<path class="st23" d="M1462.1,87.8c1,0,3.4,2.5,5.4,5.5l19.1,28.9c0.1,0.1,0.1,0.2,0.1,0.2s-0.1-0.1-0.2-0.2l-19.1-28.9
							c-0.9-1.4-1.9-2.6-2.8-3.5s-1.7-1.5-2.2-1.5h-3c-0.5,0-0.5,0.6-0.2,1.5c0.3,0.9,0.9,2.2,1.8,3.5l19.1,28.9
							c0.1,0.1,0.1,0.2,0.1,0.2s-0.1-0.1-0.2-0.2l-19.1-28.9c-2-3-2.8-5.5-1.8-5.5H1462.1z"/>
					</g>
					<g class="st27">
						<g>
							<path id="SVGID_29_" class="st23" d="M1480.1,122.4l-0.8,0.6l0,0c0,0-0.1-0.1-0.2-0.2l0.8-0.6
								C1480,122.3,1480.1,122.4,1480.1,122.4L1480.1,122.4z"/>
						</g>
						<g>
							<defs>
								<path id="SVGID_14_" d="M1480.1,122.4l-0.8,0.6l0,0c0,0-0.1-0.1-0.2-0.2l0.8-0.6C1480,122.3,1480.1,122.4,1480.1,122.4
									L1480.1,122.4z"/>
							</defs>
							<clipPath id="SVGID_15_">
								<use xlink:href="#SVGID_14_"  style="overflow:visible;"/>
							</clipPath>
							<g class="st32">
								<path class="st23" d="M1480.1,122.4l-0.8,0.6l0,0l0,0L1480.1,122.4L1480.1,122.4L1480.1,122.4"/>
								<path class="st23" d="M1480.1,122.4l-0.8,0.6l0,0L1480.1,122.4L1480.1,122.4"/>
								<path class="st23" d="M1480.1,122.4l-0.8,0.6l0,0L1480.1,122.4L1480.1,122.4"/>
								<polyline class="st23" points="1480.1,122.4 1479.2,123 1479.2,123 1480.1,122.4 1480.1,122.4 								"/>
								<polyline class="st23" points="1480.1,122.4 1479.2,123 1479.2,123 1480.1,122.4 1480.1,122.4 								"/>
								<polyline class="st23" points="1480.1,122.4 1479.2,123 1479.2,123 1480.1,122.4 1480.1,122.4 								"/>
								<path class="st23" d="M1480.1,122.4l-0.8,0.6l0,0L1480.1,122.4C1480,122.4,1480.1,122.4,1480.1,122.4"/>
								<path class="st23" d="M1480,122.4l-0.8,0.6l0,0L1480,122.4L1480,122.4"/>
								<path class="st23" d="M1480,122.4l-0.8,0.6l0,0L1480,122.4L1480,122.4"/>
								<path class="st23" d="M1480,122.3l-0.8,0.6l0,0L1480,122.3L1480,122.3"/>
								<path class="st23" d="M1480,122.3l-0.8,0.6l0,0L1480,122.3L1480,122.3"/>
								<path class="st23" d="M1480,122.3l-0.8,0.6l0,0L1480,122.3L1480,122.3"/>
								<path class="st23" d="M1480,122.3l-0.8,0.6l0,0L1480,122.3L1480,122.3"/>
								<path class="st23" d="M1479.9,122.3l-0.8,0.6c0,0,0,0,0-0.1L1479.9,122.3C1479.9,122.2,1479.9,122.2,1479.9,122.3"/>
							</g>
						</g>
					</g>
				</g>
			</g>
			<path class="st16" d="M1485.3,89l-0.2-0.5l-4.6-0.1c-3.2,1.6-6.2,2.3-8.8,2.5h-0.1c-0.3,0-0.6-0.1-0.8-0.1h-0.1
				c-0.3-0.1-0.6-0.1-0.9-0.2c-0.1,0-0.2,0-0.3-0.1c-0.2,0-0.4-0.1-0.6-0.1c-0.1,0-0.2-0.1-0.3-0.1c-0.2,0-0.3-0.1-0.5-0.1
				c-0.1,0-0.2-0.1-0.3-0.1c-0.2-0.1-0.3-0.1-0.5-0.2c-0.1,0-0.2-0.1-0.3-0.1c-0.1-0.1-0.3-0.1-0.4-0.2c-0.1,0-0.2-0.1-0.3-0.1
				c-0.1-0.1-0.2-0.1-0.4-0.2c-0.1,0-0.2-0.1-0.3-0.1s-0.2-0.1-0.3-0.1c-0.1-0.1-0.2-0.1-0.3-0.2c-0.1,0-0.2-0.1-0.2-0.1
				c-0.1,0-0.2-0.1-0.3-0.1c-0.1-0.1-0.2-0.1-0.3-0.2l0,0c-0.1-0.1-0.2-0.1-0.3-0.2l0,0c-0.1,0-0.2-0.1-0.2-0.1l0,0
				c-0.1,0-0.1-0.1-0.1-0.1l0,0l0,0L1459,88l-0.3,0.4c0.1,0,4.3,3,10.8,3.1l0,0l0,0l4.6,0.1c2.5,0,5.3-0.3,8.3-1.4
				C1483.2,90,1484.3,89.5,1485.3,89L1485.3,89L1485.3,89z"/>
			<g>
				<g class="st27">
					<g class="st27">
						<g>
							<defs>
								<path id="SVGID_16_" d="M1458.7,123.4l-0.8-0.7c0,0,0-0.1,0.1-0.2l0.8,0.7C1458.7,123.2,1458.7,123.3,1458.7,123.4z"/>
							</defs>
							<clipPath id="SVGID_17_">
								<use xlink:href="#SVGID_16_"  style="overflow:visible;"/>
							</clipPath>
							<g class="st33">
								<path class="st23" d="M1458.7,123.4l-0.8-0.7c0,0,0,0,0-0.1L1458.7,123.4C1458.7,123.3,1458.7,123.3,1458.7,123.4"/>
								<path class="st23" d="M1458.7,123.3l-0.8-0.7l0,0L1458.7,123.3L1458.7,123.3"/>
								<path class="st23" d="M1458.7,123.3l-0.8-0.7l0,0L1458.7,123.3C1458.8,123.2,1458.8,123.3,1458.7,123.3"/>
								<polyline class="st23" points="1458.8,123.2 1458,122.6 1458,122.6 1458.8,123.2 1458.8,123.2 								"/>
								<polyline class="st23" points="1458.8,123.2 1458,122.6 1458,122.6 1458.8,123.2 1458.8,123.2 								"/>
								<polyline class="st23" points="1458.8,123.2 1458,122.6 1458,122.5 1458.8,123.2 1458.8,123.2 								"/>
								<polyline class="st23" points="1458.8,123.2 1458,122.5 1458,122.5 1458.8,123.2 1458.8,123.2 								"/>
								<polyline class="st23" points="1458.8,123.2 1458,122.5 1458,122.5 1458.8,123.2 1458.8,123.2 								"/>
								<polyline class="st23" points="1458.8,123.2 1458,122.5 1458,122.5 1458.8,123.2 1458.8,123.2 								"/>
								<polyline class="st23" points="1458.8,123.2 1458,122.5 1458,122.5 1458.8,123.2 1458.8,123.2 								"/>
								<polyline class="st23" points="1458.8,123.2 1458,122.5 1458,122.5 1458.8,123.2 1458.8,123.2 								"/>
								<polyline class="st23" points="1458.8,123.2 1458,122.5 1458,122.5 1458.8,123.2 1458.8,123.2 								"/>
								<polyline class="st23" points="1458.8,123.2 1458,122.5 1458,122.5 1458.8,123.2 1458.8,123.2 								"/>
								<polyline class="st23" points="1458.8,123.2 1458,122.5 1458,122.5 1458.8,123.1 1458.8,123.2 								"/>
								<polyline class="st23" points="1458.8,123.1 1458,122.5 1458,122.5 1458.8,123.1 1458.8,123.1 								"/>
								<polyline class="st23" points="1458.8,123.1 1458,122.5 1458,122.5 1458.8,123.1 1458.8,123.1 								"/>
							</g>
						</g>
					</g>
					<g>
						<polygon class="st5" points="1458.8,123.1 1458,122.5 1481.7,93.1 1482.5,93.8 						"/>
					</g>
					<g>
						<g>
							<path id="SVGID_33_" class="st23" d="M1484,88.5l0.8,0.7c0.2,0.2,0.1,0.6-0.2,1.3c-0.4,0.9-1.1,2-2.1,3.3l-0.8-0.7
								c1-1.3,1.8-2.5,2.1-3.3C1484.1,89.1,1484.2,88.7,1484,88.5z"/>
						</g>
						<g>
							<defs>
								<path id="SVGID_18_" d="M1484,88.5l0.8,0.7c0.2,0.2,0.1,0.6-0.2,1.3c-0.4,0.9-1.1,2-2.1,3.3l-0.8-0.7c1-1.3,1.8-2.5,2.1-3.3
									C1484.1,89.1,1484.2,88.7,1484,88.5z"/>
							</defs>
							<clipPath id="SVGID_19_">
								<use xlink:href="#SVGID_18_"  style="overflow:visible;"/>
							</clipPath>
							<g class="st34">
								<path class="st5" d="M1482.5,93.8l-0.8-0.7c0,0,0-0.1,0.1-0.1L1482.5,93.8L1482.5,93.8"/>
								<path class="st5" d="M1482.5,93.7l-0.8-0.7c0-0.1,0.1-0.1,0.1-0.2l0.8,0.7C1482.6,93.6,1482.6,93.7,1482.5,93.7"/>
								<path class="st5" d="M1482.7,93.5l-0.8-0.7c0-0.1,0.1-0.1,0.1-0.2l0.8,0.7C1482.8,93.4,1482.7,93.5,1482.7,93.5"/>
								<path class="st5" d="M1482.8,93.4l-0.8-0.7c0-0.1,0.1-0.1,0.1-0.2l0.8,0.7C1482.9,93.2,1482.8,93.3,1482.8,93.4"/>
								<path class="st5" d="M1482.9,93.2l-0.8-0.7c0-0.1,0.1-0.1,0.1-0.2l0.8,0.7C1483,93,1483,93.1,1482.9,93.2"/>
								<path class="st5" d="M1483.1,93l-0.8-0.7c0-0.1,0.1-0.1,0.1-0.2l0.8,0.7C1483.2,92.8,1483.1,92.9,1483.1,93"/>
								<path class="st5" d="M1483.2,92.8l-0.8-0.7c0-0.1,0.1-0.1,0.1-0.2l0.8,0.7C1483.3,92.6,1483.3,92.7,1483.2,92.8"/>
								<path class="st5" d="M1483.4,92.6l-0.8-0.7c0-0.1,0.1-0.1,0.1-0.2l0.8,0.7C1483.5,92.4,1483.4,92.5,1483.4,92.6"/>
								<path class="st5" d="M1483.5,92.3l-0.8-0.7c0.1-0.1,0.1-0.1,0.1-0.2l0.8,0.7C1483.6,92.2,1483.6,92.3,1483.5,92.3"/>
								<path class="st5" d="M1483.7,92.1l-0.8-0.7c0.1-0.1,0.1-0.2,0.2-0.2l0.8,0.7C1483.8,92,1483.7,92,1483.7,92.1"/>
								<path class="st5" d="M1483.8,91.9l-0.8-0.7c0.1-0.1,0.1-0.2,0.2-0.3l0.8,0.7C1483.9,91.7,1483.9,91.8,1483.8,91.9"/>
								<path class="st5" d="M1484,91.6l-0.8-0.7c0.1-0.1,0.1-0.2,0.2-0.3l0.8,0.7C1484.1,91.4,1484,91.5,1484,91.6"/>
								<path class="st5" d="M1484.1,91.3l-0.8-0.7c0.1-0.1,0.1-0.2,0.2-0.4l0.8,0.7C1484.3,91.1,1484.2,91.2,1484.1,91.3"/>
								<path class="st5" d="M1484.3,91l-0.8-0.7c0.1-0.2,0.2-0.4,0.3-0.5c0.3-0.7,0.4-1.2,0.2-1.3l0.8,0.7c0.2,0.2,0.1,0.6-0.2,1.3
									C1484.5,90.6,1484.4,90.8,1484.3,91"/>
							</g>
						</g>
						<g>
							<path id="SVGID_4_" class="st4" d="M1484,88.5l0.8,0.7c0.2,0.2,0.1,0.6-0.2,1.3c-0.4,0.9-1.1,2-2.1,3.3l-0.8-0.7
								c1-1.3,1.8-2.5,2.1-3.3C1484.1,89.1,1484.2,88.7,1484,88.5z"/>
						</g>
					</g>
					<g class="st27">
						<g>
							<defs>
								<path id="SVGID_20_" d="M1484.3,88.1l0.8,0.7c-0.1,0-0.1-0.1-0.2-0.1l-0.8-0.7C1484.2,88,1484.3,88,1484.3,88.1z"/>
							</defs>
							<clipPath id="SVGID_22_">
								<use xlink:href="#SVGID_20_"  style="overflow:visible;"/>
							</clipPath>
							<g class="st35">
								<polyline class="st36" points="1484.9,88.7 1484.1,88 1484.1,88 1484.9,88.7 1484.9,88.7 								"/>
								<path class="st37" d="M1484.9,88.7l-0.8-0.7c0,0,0,0,0.1,0L1484.9,88.7C1485,88.7,1484.9,88.7,1484.9,88.7"/>
								<path class="st38" d="M1485,88.7l-0.8-0.7c0,0,0,0,0.1,0L1485,88.7L1485,88.7"/>
								<path class="st39" d="M1485,88.7l-0.8-0.7c0,0,0,0,0.1,0L1485,88.7C1485.1,88.7,1485.1,88.7,1485,88.7"/>
								<path class="st40" d="M1485.1,88.7l-0.8-0.7l0,0L1485.1,88.7L1485.1,88.7"/>
							</g>
						</g>
					</g>
					<g>
						<polygon class="st5" points="1482.1,88.7 1481.3,88 1484.1,88 1484.9,88.7 						"/>
					</g>
					<g>
						<g>
							<path id="SVGID_37_" class="st23" d="M1452.6,123.4l-0.8-0.7c0,0,0-0.1,0.1-0.2l0.8,0.7
								C1452.6,123.2,1452.6,123.3,1452.6,123.4z"/>
						</g>
						<g>
							<defs>
								<path id="SVGID_24_" d="M1452.6,123.4l-0.8-0.7c0,0,0-0.1,0.1-0.2l0.8,0.7C1452.6,123.2,1452.6,123.3,1452.6,123.4z"/>
							</defs>
							<clipPath id="SVGID_26_">
								<use xlink:href="#SVGID_24_"  style="overflow:visible;"/>
							</clipPath>
							<g class="st41">
								<path class="st23" d="M1452.6,123.4l-0.8-0.7c0,0,0,0,0-0.1L1452.6,123.4C1452.6,123.3,1452.6,123.3,1452.6,123.4"/>
								<path class="st23" d="M1452.6,123.3l-0.8-0.7l0,0L1452.6,123.3L1452.6,123.3"/>
								<path class="st23" d="M1452.6,123.3l-0.8-0.7l0,0L1452.6,123.3C1452.6,123.2,1452.6,123.3,1452.6,123.3"/>
								<polyline class="st23" points="1452.6,123.2 1451.8,122.6 1451.8,122.6 1452.6,123.2 1452.6,123.2 								"/>
								<polyline class="st23" points="1452.6,123.2 1451.8,122.6 1451.8,122.6 1452.6,123.2 1452.6,123.2 								"/>
								<polyline class="st23" points="1452.6,123.2 1451.8,122.6 1451.9,122.5 1452.6,123.2 1452.6,123.2 								"/>
								<polyline class="st23" points="1452.6,123.2 1451.9,122.5 1451.9,122.5 1452.7,123.2 1452.6,123.2 								"/>
								<polyline class="st23" points="1452.7,123.2 1451.9,122.5 1451.9,122.5 1452.7,123.2 1452.7,123.2 								"/>
								<polyline class="st23" points="1452.7,123.2 1451.9,122.5 1451.9,122.5 1452.7,123.2 1452.7,123.2 								"/>
								<polyline class="st23" points="1452.7,123.2 1451.9,122.5 1451.9,122.5 1452.7,123.2 1452.7,123.2 								"/>
								<polyline class="st23" points="1452.7,123.2 1451.9,122.5 1451.9,122.5 1452.7,123.2 1452.7,123.2 								"/>
								<polyline class="st23" points="1452.7,123.2 1451.9,122.5 1451.9,122.5 1452.7,123.2 1452.7,123.2 								"/>
								<polyline class="st23" points="1452.7,123.2 1451.9,122.5 1451.9,122.5 1452.7,123.2 1452.7,123.2 								"/>
								<polyline class="st23" points="1452.7,123.2 1451.9,122.5 1451.9,122.5 1452.7,123.1 1452.7,123.2 								"/>
								<polyline class="st23" points="1452.7,123.1 1451.9,122.5 1451.9,122.5 1452.7,123.1 1452.7,123.1 								"/>
								<polyline class="st23" points="1452.7,123.1 1451.9,122.5 1451.9,122.5 1452.7,123.1 1452.7,123.1 								"/>
							</g>
						</g>
					</g>
					<g>
						<polygon class="st5" points="1452.7,123.1 1451.9,122.5 1475.5,93.1 1476.3,93.8 						"/>
					</g>
					<g>
						<path class="st23" d="M1484.9,88.7c0.9,0-0.1,2.3-2.3,5.1l-23.6,29.3c-0.1,0.1-0.2,0.2-0.2,0.2s0-0.1,0.1-0.2l23.6-29.3
							c1-1.3,1.8-2.5,2.1-3.3c0.4-0.9,0.4-1.4,0-1.4h-2.8c-0.4,0-1.2,0.5-2.2,1.4s-2.1,2-3.1,3.3l-23.6,29.3
							c-0.1,0.1-0.2,0.2-0.2,0.2s0-0.1,0.1-0.2l23.6-29.3c2.2-2.8,4.8-5.1,5.7-5.1C1482.1,88.7,1484.9,88.7,1484.9,88.7z"/>
					</g>
					<g>
						<g>
							<path id="SVGID_39_" class="st23" d="M1476.3,93.8l-0.8-0.7c2.2-2.8,4.8-5.1,5.7-5.1l0.8,0.7
								C1481.1,88.7,1478.5,91,1476.3,93.8z"/>
						</g>
						<g>
							<defs>
								<path id="SVGID_28_" d="M1476.3,93.8l-0.8-0.7c2.2-2.8,4.8-5.1,5.7-5.1l0.8,0.7C1481.1,88.7,1478.5,91,1476.3,93.8z"/>
							</defs>
							<clipPath id="SVGID_30_">
								<use xlink:href="#SVGID_28_"  style="overflow:visible;"/>
							</clipPath>
							<g class="st42">
								<path class="st5" d="M1476.3,93.8l-0.8-0.7c0,0,0,0,0-0.1L1476.3,93.8C1476.4,93.8,1476.3,93.8,1476.3,93.8"/>
								<path class="st5" d="M1476.4,93.8l-0.8-0.7c0-0.1,0.1-0.1,0.1-0.2l0.8,0.7C1476.5,93.6,1476.4,93.7,1476.4,93.8"/>
								<path class="st5" d="M1476.5,93.6l-0.8-0.7c0-0.1,0.1-0.1,0.1-0.2l0.8,0.7C1476.6,93.5,1476.5,93.5,1476.5,93.6"/>
								<path class="st5" d="M1476.6,93.4l-0.8-0.7l0.1-0.1L1476.6,93.4C1476.7,93.3,1476.7,93.4,1476.6,93.4"/>
								<path class="st5" d="M1476.7,93.3l-0.8-0.7l0.1-0.1L1476.7,93.3C1476.8,93.2,1476.8,93.3,1476.7,93.3"/>
								<path class="st5" d="M1476.8,93.2l-0.8-0.7l0.1-0.1L1476.8,93.2C1476.9,93.1,1476.9,93.1,1476.8,93.2"/>
								<path class="st5" d="M1476.9,93.1l-0.8-0.7l0.1-0.1L1476.9,93.1C1477,93,1477,93,1476.9,93.1"/>
								<path class="st5" d="M1477,92.9l-0.8-0.7l0.1-0.1L1477,92.9C1477.1,92.9,1477.1,92.9,1477,92.9"/>
								<path class="st5" d="M1477.1,92.8l-0.8-0.7l0.1-0.1L1477.1,92.8C1477.2,92.8,1477.1,92.8,1477.1,92.8"/>
								<path class="st5" d="M1477.2,92.7l-0.8-0.7l0.1-0.1L1477.2,92.7C1477.3,92.7,1477.2,92.7,1477.2,92.7"/>
								<path class="st5" d="M1477.3,92.6l-0.8-0.7l0.1-0.1L1477.3,92.6L1477.3,92.6"/>
								<path class="st5" d="M1477.4,92.5l-0.8-0.7l0.1-0.1L1477.4,92.5L1477.4,92.5"/>
								<path class="st5" d="M1477.5,92.4l-0.8-0.7l0.1-0.1L1477.5,92.4L1477.5,92.4"/>
								<path class="st5" d="M1477.5,92.4l-0.8-0.7l0.1-0.1L1477.5,92.4C1477.6,92.3,1477.6,92.3,1477.5,92.4"/>
								<path class="st5" d="M1477.6,92.3l-0.8-0.7l0.1-0.1L1477.6,92.3C1477.7,92.2,1477.7,92.2,1477.6,92.3"/>
								<path class="st5" d="M1477.7,92.2l-0.8-0.7l0.1-0.1L1477.7,92.2C1477.8,92.1,1477.7,92.1,1477.7,92.2"/>
								<path class="st5" d="M1477.8,92l-0.8-0.7l0.1-0.1L1477.8,92C1477.9,92,1477.9,92,1477.8,92"/>
								<path class="st5" d="M1477.9,91.9l-0.8-0.7l0.1-0.1L1477.9,91.9C1478,91.8,1478,91.9,1477.9,91.9"/>
								<path class="st5" d="M1478,91.8l-0.8-0.7c0.1-0.1,0.2-0.2,0.2-0.3l0.8,0.7C1478.2,91.6,1478.1,91.7,1478,91.8"/>
								<path class="st5" d="M1478.3,91.6l-0.8-0.7c0.1-0.1,0.2-0.2,0.3-0.4l0.8,0.7C1478.5,91.3,1478.4,91.4,1478.3,91.6"/>
								<path class="st5" d="M1478.6,91.2l-0.8-0.7c0.1-0.1,0.2-0.2,0.2-0.2l0.8,0.7C1478.8,91,1478.7,91.1,1478.6,91.2"/>
								<path class="st5" d="M1478.8,91l-0.8-0.7c0.1-0.1,0.1-0.1,0.2-0.2l0.8,0.7C1479,90.9,1478.9,90.9,1478.8,91"/>
								<path class="st5" d="M1479,90.8l-0.8-0.7l0.1-0.1L1479,90.8C1479.1,90.7,1479.1,90.8,1479,90.8"/>
								<path class="st5" d="M1479.2,90.7l-0.8-0.7l0.1-0.1L1479.2,90.7C1479.2,90.6,1479.2,90.6,1479.2,90.7"/>
								<path class="st5" d="M1479.3,90.5l-0.8-0.7l0.1-0.1L1479.3,90.5C1479.4,90.4,1479.3,90.5,1479.3,90.5"/>
								<path class="st5" d="M1479.4,90.4l-0.8-0.7l0.1-0.1L1479.4,90.4C1479.5,90.3,1479.5,90.4,1479.4,90.4"/>
								<path class="st5" d="M1479.6,90.3l-0.8-0.7c0.1-0.1,0.1-0.1,0.2-0.1l0.8,0.7C1479.7,90.2,1479.6,90.2,1479.6,90.3"/>
								<path class="st5" d="M1479.7,90.1l-0.8-0.7c0.1-0.1,0.1-0.1,0.2-0.2l0.8,0.7C1479.9,90,1479.8,90.1,1479.7,90.1"/>
								<path class="st5" d="M1479.9,90l-0.8-0.7c0.1-0.1,0.2-0.1,0.2-0.2l0.8,0.7C1480.1,89.8,1480,89.9,1479.9,90"/>
								<path class="st5" d="M1480.2,89.8l-0.8-0.7c0.1-0.1,0.2-0.1,0.2-0.2l0.8,0.7C1480.3,89.6,1480.2,89.7,1480.2,89.8"/>
								<path class="st5" d="M1480.4,89.6l-0.8-0.7c0.1-0.1,0.2-0.1,0.2-0.2l0.8,0.7C1480.6,89.4,1480.5,89.5,1480.4,89.6"/>
								<path class="st5" d="M1480.7,89.4l-0.8-0.7c0.1-0.1,0.1-0.1,0.2-0.2l0.8,0.7C1480.8,89.3,1480.7,89.3,1480.7,89.4"/>
								<path class="st5" d="M1480.9,89.2l-0.8-0.7c0.1,0,0.1-0.1,0.2-0.1l0.8,0.7C1481,89.1,1480.9,89.2,1480.9,89.2"/>
								<path class="st5" d="M1481.1,89.1l-0.8-0.7c0.1,0,0.1-0.1,0.2-0.1l0.8,0.7C1481.2,89,1481.1,89.1,1481.1,89.1"/>
								<path class="st5" d="M1481.2,89l-0.8-0.7l0.1-0.1L1481.2,89C1481.3,88.9,1481.3,89,1481.2,89"/>
								<path class="st5" d="M1481.4,88.9l-0.8-0.7c0,0,0.1,0,0.1-0.1L1481.4,88.9C1481.5,88.9,1481.4,88.9,1481.4,88.9"/>
								<path class="st5" d="M1481.5,88.8l-0.8-0.7c0,0,0.1,0,0.1-0.1L1481.5,88.8C1481.6,88.8,1481.5,88.8,1481.5,88.8"/>
								<path class="st5" d="M1481.6,88.8l-0.8-0.7h0.1L1481.6,88.8C1481.7,88.8,1481.6,88.8,1481.6,88.8"/>
								<path class="st5" d="M1481.7,88.8l-0.8-0.7h0.1L1481.7,88.8C1481.8,88.7,1481.7,88.7,1481.7,88.8"/>
								<path class="st5" d="M1481.8,88.7L1481,88h0.1L1481.8,88.7C1481.9,88.7,1481.8,88.7,1481.8,88.7"/>
								<path class="st5" d="M1481.9,88.7l-0.8-0.7h0.1L1481.9,88.7C1482,88.7,1481.9,88.7,1481.9,88.7"/>
								<path class="st5" d="M1482,88.7l-0.8-0.7c0,0,0,0,0.1,0L1482,88.7L1482,88.7"/>
							</g>
						</g>
						<g>
							<path id="SVGID_5_" class="st4" d="M1476.3,93.8l-0.8-0.7c2.2-2.8,4.8-5.1,5.7-5.1l0.8,0.7
								C1481.1,88.7,1478.5,91,1476.3,93.8z"/>
						</g>
					</g>
				</g>
			</g>
		</g>
		<g>
			<g>
				<path class="st0" d="M1473.4,31.7c1.1,0.5,1.7,1.7,2,2.8c0.3,1.3-0.3,3.1,0.4,4.3c0.3,0.5,1.1,0.5,1.6,0.7
					c2.4,0.6,3.3,0.9,2.9,1.3c-0.4,0.4-4.6,1-5,1.7s-1.2,4.1-1.7,4.5c-0.5,0.5-3-0.3-3.5,0.1c-0.5,0.5-0.4,3.3-0.4,3.3l-6.9-1
					c0,0,2.4-6.2,1.7-8.3c-0.8-2.1,0.3-3.2,0.8-5.4c0.8-3.6,4.1-4.9,7.5-4.2C1473,31.6,1473.2,31.6,1473.4,31.7z"/>
				<path class="st5" d="M1465.7,44.7c1.3,0.3,1.7-2.1,1.5-3.3c-0.2-1.4-1.8-2.1-1.2-3.8c0.1-0.3,0.3-0.6,0.7-0.7
					c0.7-0.2,0.9,0.7,1.1,1.2c0.2,0.4,0.5,2.3,1.1,2.3c2.4,0.1,1.5-3.9,2.5-5.2c0.9-1.1,2.2,0.6,3.5,0.4c0,0,1-1.2-1.4-2.7
					c0,0,5,3.9,5,2.6c-0.1-1.3-3.1-3.4-3.1-3.4s4.2,2.8,4.6,0.9c0.4-1.9-6.7-4.2-8-3.6c-0.2,0.1-2.2,0-2.4-0.1
					c-1.3-0.3-2.7-0.4-3.9-0.1c-4.2,1-5.6,6.9-5,10.6c0.3,1.9,1.1,3.6,2.3,5.1c0.4,0.5,1.3,1.8,1.7,0.9c0.2-0.4-0.2-1.3-0.3-1.7
					C1464.2,44.1,1464.6,44.4,1465.7,44.7z"/>
			</g>
			<g>
				<g>
					<g>
						<path class="st22" d="M1486.4,81.9c-1.5-3.6-2.2-5.8-3.4-9.3c-2.3-7.7-1.3-12.3-4.2-18.2c-2.8-5.8-11.3-9.5-17.2-6.2
							c-4.6,2.6-4.8,6.7-4.2,11.4c0.5,4,1.4,8,1.5,12.1c0.1,3.8-1.1,13,2.3,15.4c3.7,2.6,11.2,0,14.8-1.5
							C1482,83.1,1483.9,84.1,1486.4,81.9z"/>
					</g>
				</g>
			</g>
			<g>
				<path class="st0" d="M1494.2,82.4c-4.6-6.5-21.9-8.4-21.9-8.4l0,0c-3.2-0.8-6.6,0.6-8.4,3.6c-2.2,3.6-1,8.3,2.5,10.4
					c2.1,1.9,10.9,2,18.1,0.8c-2.7,7,3,21.7,3.8,24.4c1.4,0.5,2.9,0.6,4.4,0.7c2.2-13.5,2.1-27.1,2-29.8
					C1494.8,83.6,1494.6,83,1494.2,82.4z"/>
				<g>
					<path class="st5" d="M1485.8,111.8c0-0.1,0.1-0.2,0.1-0.3c0.2-0.3,0.5-0.4,0.8-0.4c0.3,0,0.8-0.1,1.1,0.1
						c0.3,0.1,0.5,0.4,0.7,0.6c0.3,0.3,0.7,0.5,1.1,0.7c0.6,0.3,1.4,0.6,2.1,0.6c1,0,0.7-0.9,1.4-0.2c0.7,0.8,3.8,3.5,5,3.5
						c1.2,0,3.1-0.3,3.4,1.2c0.3,1.5-2.6,3.4-4.8,3.5c-2.1,0.1-5.3-0.7-6-0.3c-0.7,0.4-6.4,0-6.9-1.9c-0.3-1.3,0.5-2.6,1.2-3.6
						c0.3-0.5,0.7-0.9,0.8-1.4c0.1-0.3,0.1-0.6,0.1-0.9C1486,112.6,1485.7,112.2,1485.8,111.8z"/>
					<path class="st26" d="M1483.9,117.8c0,0.2,0.9,1.1,2.4,1.5c1.4,0.3,2.9,0.4,4.3,0.4c0.7,0,1.5,0,2.2,0.1c0.7,0,1.4,0.2,2.1,0.2
						c1.2,0,2.5,0,3.6-0.5s2.4-1.1,2.8-2.3"/>
					<path class="st26" d="M1495.5,114.9c0,0-1.2,0.2-1.7,1"/>
					<path class="st26" d="M1494.5,114.2c0,0-1.2-0.4-1.8,0.5"/>
				</g>
			</g>
			<g>
				<polyline class="st43" points="1507.8,15.7 1473.5,47 1510.3,85.9 				"/>
				<path class="st43" d="M1509.6,15.7c0,0-2.6-1.2-3.2,2.7c-0.7,3.9,1.8,4.4,2.4,1.5"/>
				<path class="st43" d="M1507.9,15.9c-1.2,0.9-1.4,3.4-0.7,4.8c0.8,1.7,3.5,2.7,4.7,1.1c1.7-2.3-1.4-7.3-3.7-6.1
					C1508.1,15.8,1508,15.9,1507.9,15.9z"/>
				<line class="st43" x1="1506.8" y1="18.7" x2="1508.5" y2="18.7"/>
				<polyline class="st43" points="1507.8,21.6 1509.1,19.1 1510.6,20.4 				"/>
				<path class="st43" d="M1509.6,22.6c0,0,1.6-4.7,2.8-2.2"/>
				<path class="st43" d="M1509.2,18c0,0,1.5,0.8,1.8,0.7c0.3-0.1,0.5-1.4,0.7-0.9C1511.7,17.7,1510.8,16.6,1509.2,18z"/>
				<path class="st43" d="M1511.2,19.8c-0.3,0.1-0.2-1.1-0.2-1.1l0.8,63.9"/>
				<path class="st43" d="M1507.8,15.7c0,0,0.3,2,1.5,2.9"/>
				<path class="st43" d="M1510,15.9c0,0-0.6,2-1.8,1.3c-0.6-0.3,0.6-1.6,0.6-1.6"/>
				<ellipse class="st23" cx="1508.9" cy="18.8" rx="1.1" ry="1.6"/>
				<path class="st43" d="M1509.2,18c0,0,8.1-0.5,12,3.8c3.9,4.2,5.6,10.5,5.6,10.5"/>
				<path class="st43" d="M1512.2,18.8c0,0,9.3,0.1,12,9.3"/>
				<g>
					<path class="st23" d="M1528.5,67c0,0-1.5,0.4-3.1-2.1s-2.1-2.7-2.8-2.6c-0.6,0.1-0.7-0.4-0.7-0.4s2.8-10.9,2.5-12.1
						c-0.3-1.2-2.1-4.3-1.1-10.6s2.3-6.9,2.3-6.9s0.2,1.2,1.1,0.4s-0.4-2.8-0.4-2.8l-1.9-4.7c0,0-2.4-0.1-2.4,0.8
						c0.1,0.9,0.6,3.8-0.7,5.7c-1.3,1.9-1.9,2.6-1.3,3.5c0.6,0.9,0.6,2.7,0.3,3.1c-0.3,0.4-2.6,3.2-2.9,10.1
						c-0.2,6.7,2.4,11.9,3.4,14.1l0,0c0,0.1,0,0.3,0,0.5s-0.1,1.5-0.4,2c-0.3,0.6,0.9,1.5,0.9,1.5s2.3,1,2.2,5.8c0,0-0.3,0.5,0.8,1
						s1.7-0.2,1.8-0.9c0.1-0.7,1-2.2,0.7-3.6C1527.1,68.8,1528.8,68.6,1528.5,67z M1523.7,35.7c-0.2,0.6-0.4,1.1-0.6,1.7
						c-0.1,0.3-0.2,0.6-0.3,0.9c0,0.1-0.1,0.4-0.3,0.4c-0.2,0.1-0.3-0.6-0.5-1c-0.2-0.4-0.6,0.1-0.6-0.2c0-0.1,0.1-0.3,0.2-0.4
						c0.4-0.5,0.8-1,1.2-1.5c0.1-0.2,0.3-0.4,0.5-0.6l0,0c0.2-0.1,0.4-0.1,0.5,0.2C1523.8,35.4,1523.7,35.6,1523.7,35.7z
						 M1522.3,31.6c0.2-0.3,0.3-0.6,0.3-1c0.1-0.4,0.2-0.9,0.3-1.3c0.1-0.3,0.1-0.7,0.4-0.8c0.2-0.1,0.4,0,0.6,0.1s0.3,0.3,0.4,0.5
						c0.2,0.5,0.2,1.2,0.2,1.7c-0.1,0.8-0.8,1.3-1.4,1.5C1522.3,32.7,1522,32.1,1522.3,31.6z M1520.6,34.4c0-0.3,0.3-0.6,0.4-0.8
						c0.2-0.2,0.5-0.7,0.7-0.9c0.1,0,0.1,0,0.2,0s0.2,0,0.3,0c0.4,0.1,1-0.1,1.2,0.4c0.4,0.7-0.5,1.6-0.8,2.1
						c-0.2,0.3-0.4,0.5-0.7,0.8c-0.1,0.1-0.3,0.3-0.4,0.4c-0.3,0.1-0.6-0.3-0.6-0.7C1521,35.2,1520.7,34.8,1520.6,34.4z M1519,54.1
						c-0.3-1-0.4-2-0.4-3c-0.1-1.1-0.1-2.3,0-3.5c0-0.6,0.1-1.3,0.1-1.9c0.1-0.5,0.2-1,0.3-1.5c0.2-0.6,0.6-1.9,1.3-1.9
						c0.2,0,0.3,0.1,0.5,0.3c1.2,1.3,1.2,2.6,1.2,2.9c-0.2,1.1-0.7,2.3-0.6,3.5c0,1.4,0.3,2.7,0.7,3.9c0.2,0.7,0.6,2.4,0.1,3
						C1521.4,56.7,1519.8,56.7,1519,54.1z M1521.6,65.1c-0.3-0.4,0-1.2,0.1-1.6c0-0.2,0.1-0.4,0.3-0.5c0.2-0.1,0.4,0,0.6,0.1
						s0.3,0.3,0.4,0.4c0.4,0.4,1.1,0.6,1.3,1.2c0.1,0.3,0.3,0.7,0.1,1c-0.3,0.5-1,0.2-1.4,0.4C1522.4,66.1,1521.8,65.4,1521.6,65.1z
						 M1525.1,70.5c-0.3,0.3-0.6,0.1-0.9-0.4c-0.2-0.4-0.3-0.9-0.4-1.3c-0.1-0.6-0.3-0.9-0.5-1.4c-0.1-0.2-0.2-0.4-0.2-0.6
						c-0.1-1.2,1.4-0.2,1.7,0.1c0.2,0.2,0.4,0.4,0.6,0.6c0.2,0.3,0.4,0.6,0.4,0.9C1526,69.1,1525.6,70.1,1525.1,70.5z"/>
				</g>
				<path class="st43" d="M1511.6,85.6c0,0-2.5,1.4-3.4-2.4c-1-3.8,1.4-4.5,2.3-1.8"/>
				<path class="st43" d="M1509.9,85.6c-1.3-0.8-1.6-3.2-1.1-4.7c0.7-1.8,3.3-3.1,4.6-1.6c1.9,2.1-0.8,7.4-3.3,6.4
					C1510.1,85.7,1510,85.7,1509.9,85.6z"/>
				<line class="st43" x1="1510.4" y1="82.8" x2="1508.6" y2="83"/>
				<polyline class="st43" points="1509.4,79.9 1510.9,82.3 1512.3,80.9 				"/>
				<path class="st43" d="M1511.1,78.8c0,0,2,4.5,3,1.9"/>
				<path class="st43" d="M1511.1,83.4c0,0,1.4-1,1.7-0.9c0.3,0.1,0.6,1.3,0.8,0.9C1513.6,83.4,1512.8,84.6,1511.1,83.4z"/>
				<path class="st43" d="M1512.8,82.5c0,0-0.1-1.2,0.2-1.1"/>
				<path class="st43" d="M1509.8,85.8c0,0,0.1-2,1.2-3.1"/>
				<path class="st43" d="M1512.1,85.4c0,0-0.7-1.9-1.9-1.1c-0.6,0.4,0.7,1.6,0.7,1.6"/>
				
					<ellipse transform="matrix(0.999 -4.395073e-02 4.395073e-02 0.999 -2.1705 66.476)" class="st23" cx="1510.7" cy="82.6" rx="1.1" ry="1.6"/>
				<path class="st43" d="M1511.1,83.4c0,0,8.1-0.4,11.7-5c3.6-4.6,4.8-11.1,4.8-11.1"/>
				<path class="st43" d="M1514,82.3c0,0,9.2-1.1,11.2-10.6"/>
				<rect x="1522.1" y="40" class="st23" width="8.2" height="1.9"/>
				<path class="st44" d="M1531.7,37.2c-0.1,0.1-1.4,1.4-1.4,1.4v5.2l1.4,1.2V37.2z"/>
				<path class="st23" d="M1528.8,41.3c0,0,4.7,0.1,4.8-0.3c0.1-0.4,0.2-1.8,0.2-1.8l2.3-0.2v3.2l-0.4,0.6l-2,0.1l-0.2-1
					C1533.5,41.9,1526.5,41.7,1528.8,41.3z"/>
				<g>
					<path class="st5" d="M1578.5,60.2h-57c-0.3,0-0.5-0.2-0.5-0.5l0,0c0-0.3,0.2-0.5,0.5-0.5h57c0.3,0,0.5,0.2,0.5,0.5l0,0
						C1579,60,1578.8,60.2,1578.5,60.2z"/>
					<path class="st16" d="M1578.3,60.8h-2.5c-0.6,0-1-0.5-1-1l0,0c0-0.6,0.5-1,1-1h2.5c0.6,0,1,0.5,1,1l0,0
						C1579.4,60.3,1578.9,60.8,1578.3,60.8z"/>
				</g>
				<g>
					<path class="st5" d="M1515.4,86.7L1515.4,86.7c-0.4-0.1-0.7-0.6-0.5-1l7.9-23.3c0.1-0.4,0.6-0.6,0.9-0.5h0.1
						c0.4,0.1,0.6,0.6,0.5,0.9l-7.9,23.3C1516.2,86.6,1515.8,86.8,1515.4,86.7z"/>
					<path class="st16" d="M1513,89.4l2.2-8c0.2-0.9,1.2-1.4,2-1.1l0,0c0.9,0.2,1.4,1.2,1.1,2l-2.2,8c-0.2,0.9-1.2,1.4-2,1.1l0,0
						C1513.3,91.2,1512.7,90.3,1513,89.4z"/>
				</g>
			</g>
			<path class="st0" d="M1525.1,50.3c-0.3-0.3-1.6-1.4-2-1.4s-0.7,0.3-1.6,0.6s-3.2,2.4-4.4,3.7c-1.1,1.3-1.8,2.8-3.3,3.9
				c-1.5,1.1-7,3.4-7,3.4l0,0c-10.2,2.7-19.2,6.3-22.5,7.6c-7.9-0.5-20,6.2-20,6.2l0,0c-3.1,1.1-5.1,4.3-4.9,7.8
				c0.3,4.2,3.9,7.4,8,7.1c3.6,0.4,14.9-8,19.3-14.3c0.8,0.4,1.8,0.8,2.9,1.1c5.8,1.5,15.3-5.9,20.2-10l0,0c5.9-4,9.8-1.6,11.4-2.3
				c1.6-0.8,2.2-2.5,1.2-4.1c-0.6-0.9-0.4-2.2-0.2-3.2c0.1-0.6,0.3-1.1,0.4-1.6c0.1-0.3,0-0.7,0.2-1c0.1-0.3,0.3-0.5,0.3-0.8
				c0.1-0.5,0.2-1.3,0.2-1.3s0.1,0.6,0.9,0.2C1524.9,51.4,1525.4,50.5,1525.1,50.3z"/>
			<g>
				<path class="st3" d="M1477.4,48.4c0,0-8-1.6-9-0.7c-1,0.8-1.3,3.8,2.3,3.1S1477.3,49.8,1477.4,48.4z"/>
				<path class="st5" d="M1469.8,48.9c2.6-0.4,5.3-0.6,7.9-0.9l7.9-0.1l15.9-0.2l15.9-0.2l7.9-0.1c2.6,0.2,5.3,0.4,7.9,0.7
					c-2.6,0.4-5.3,0.6-7.9,0.9l-7.9,0.1l-15.9,0.2l-15.9,0.2l-7.9,0.1C1475.1,49.4,1472.5,49.2,1469.8,48.9z"/>
			</g>
			<g>
				<path class="st3" d="M1485.2,67.7c0,0,0.5,6.7,1.7,8.5c1.2,1.7,0,1.2,0,1.2s-3.6,6.2-3,9.4c0.6,3.2-0.1,3.1-0.1,3.1
					s-4.9,1-12,1.1s-13.6-3.3-13.3-9.6c0.3-6.3,0.3-6.3,0.3-6.3s0.8,0,5-2.6c4.2-2.6,8.8-4.2,12.8-4.9
					C1480.7,67.1,1485.9,65.2,1485.2,67.7z"/>
			</g>
		</g>
	</g>
	<g>
		<g>
			
				<ellipse transform="matrix(0.7718 -0.6359 0.6359 0.7718 88.1046 439.4866)" class="st45" cx="656.3" cy="97" rx="17.5" ry="22.5"/>
			<g>
				<g>
					<path class="st46" d="M649.7,105.7c0,0,8.4-0.1,8.8,0c0.4,0.1,14.7-3.6,18.2,1.5s0,4.8,0,4.8c-2.7-0.2-5.1,1.3-5.3,3.5
						c0,0,0,0-3,0.4s-6.4,0.5-6.4,0.5c-2.7,0.1-7.2,0.1-10,0.1l-7.4-0.1c-2.7,0-3.9-2-2.6-4.5C642.1,111.9,645.5,105.8,649.7,105.7z
						"/>
					<path class="st4" d="M649.7,105.7c0,0,8.4-0.1,8.8,0c0.4,0.1,14.7-3.6,18.2,1.5s0,4.8,0,4.8c-2.7-0.2-5.1,1.3-5.3,3.5
						c0,0,0,0-3,0.4s-6.4,0.5-6.4,0.5c-2.7,0.1-7.2,0.1-10,0.1l-7.4-0.1c-2.7,0-3.9-2-2.6-4.5C642.1,111.9,645.5,105.8,649.7,105.7z
						"/>
				</g>
			</g>
			<g>
				<path class="st47" d="M642.7,86.3l13-3c2.7-0.6,5.7,1,6.7,3.5l9.4,24.8"/>
			</g>
		</g>
		<g>
			<g>
				<path class="st46" d="M618.9,71.5c0,0-4.3,0.9-5.1,5.8c-0.7,4.9-0.7,4.9-0.7,4.9c0.9,1.6,3.9,2.5,6.5,1.9c0,0,2.1-0.5,3.2-0.5
					C623.9,83.5,623.8,69.2,618.9,71.5z"/>
				<path class="st4" d="M618.9,71.5c0,0-4.3,0.9-5.1,5.8c-0.7,4.9-0.7,4.9-0.7,4.9c0.9,1.6,3.9,2.5,6.5,1.9c0,0,2.1-0.5,3.2-0.5
					C623.9,83.5,623.8,69.2,618.9,71.5z"/>
			</g>
			<path class="st0" d="M642.9,75.1c0,0-15.6-13.7-8.6-18.8C641.5,51.2,651.1,72.8,642.9,75.1z"/>
			<g>
				<path class="st48" d="M644.2,110c0.2,0.4,5,7.5,3.8,9.4s-6.1-0.8-8.8-3.2c-2.7-2.4-4.7-5.3-2.5-7.7c1.1-1.2,0.9,1,3.3,1.1
					C642.5,109.7,643.3,108.6,644.2,110z"/>
				<path class="st16" d="M659.9,82.6c-0.3-1.9-2.3-2.6-3.9-3.2c-2.8-1.1-5.5-1.2-8.5-1.2c-4.3,0-8.9-0.1-13.3-0.3
					c-1.4-0.1-5.4-0.9-6.6-1.6l2.2,7.1l1.3,0.8c-0.1,0.1,3.1,0.8,3.1,0.8s9.3,1.3,9.5,2.5s-5.7,17.6-7.4,19.4
					c-1.7,1.8,5.4,3.5,8.2,5.6c2.8,2.1,1.2,0.1,9.4-15.4c1.5-2.7,2.9-5.5,4.1-8.4C658.8,86.7,660.2,84.6,659.9,82.6z"/>
			</g>
			<g>
				<g>
					<path class="st16" d="M632.9,82.2c-4.8,0.9-15.9,4.1-14.9-4.4c0.4-3.8,0.4-8.8,1.1-12.6c0.7-4,1.3-8.7,5.6-9.6
						c3.4-0.7,6.8-0.9,10.2-0.5c1,0.1,2.1,0.4,3,0.9c1.1,0.6,1.3,1.5,1.7,2.7c1.2,2.9,1.8,6.1,2.1,9.2c0.2,2.2,0.1,4.4,0.5,6.6
						c0.4,2.3,1.5,3.8,3.3,5.2c0.8,0.6,0.5,0.4,0,1.7C644.7,83.4,637.6,81.3,632.9,82.2z"/>
				</g>
				<path class="st0" d="M627.8,57.6c0.3,1.4,1,2.8,3,2.8c3.8,0.1,4.5-1.1,4.3-2.1c-0.3-1-1.8-3.5-1.8-3.5V49h-5.6v6
					c0,0-0.1,0.8,0,1.8L627.8,57.6z"/>
			</g>
			<g>
				<g>
					<path class="st5" d="M624.6,30.8c-5.9,0.4-5.6,2-4.1,2.2c-1-0.2-2.3,0.4-2.9,1.3c-0.2,0.2-0.2,0.6-0.1,0.8
						c0.2,0.3,0.5,0.3,0.9,0.4c0.8,0.1,1.7,0,2.5-0.2c-1.3,0.3-2.6,0.7-3.8,1.3c-1.1,0.5-2.9,2.4-0.4,2.6c-0.9,0.6-1.4,1.4-1,2.5
						c0.3,0.9,1,1,1.7,0.9c-0.6,0.8-1,1.6-0.8,2.4c0.4,1.4,1.7,0.7,2.8-0.3c-1.1,1.4-1.9,3.1,0.5,3.5c4.1,0.7,6-11.1,12.6-11.4
						C632.5,36.8,630.5,30.4,624.6,30.8z"/>
					<path class="st16" d="M633,35.7c0,0-1.1-2.5-4.3-1.2c-3.2,1.3-2.7,4-2.1,4.5C627.2,39.6,633.3,37.3,633,35.7z"/>
				</g>
				<g>
					<path class="st0" d="M637.8,44.5c0.4,2.3-0.5,5.1-1.5,7.1c-1.1,2.4-3.2,3.9-5.9,3.2c0,0-4.2-0.5-4.8-6c0,0-3.1-0.3-2.7-2.8
						c0.1-0.8,0.4-1.6,1.3-1.9c0.4-0.2,0.7,0,1.1-0.3c0.4-0.2,0.6-0.8,0.9-1.1c1-1.1,2-2.1,3.2-2.9c3.6-2.2,6.6,0,8.2,3.6
						C637.6,43.6,637.7,44,637.8,44.5z"/>
					<path class="st0" d="M633.6,44.9c-1.6,3-0.1,4.6-0.1,5.4c-0.1,0.8-1.6-0.1-2.2-1.2"/>
				</g>
				<path class="st5" d="M625.2,44.4c0.5,0.3,0.3,1,0.7,1.4c0.5,0.5,0.8-0.2,1-0.6c1.2-2.1,1.2-3.5,1.2-3.5s-0.1,4.3,2.3,1.9
					c2.4-2.4,2.3-3.6,2.3-3.6s-0.1,5.2,2,3.6c2.1-1.6,1-3.2,1-3.2s-0.5,6.2,1.4,5.9c1.9-0.3,2-2.7,2-3c0-0.2,2.5,1.7,1.8-1.3
					c-1.1-4.7-6.8-7.5-11.3-6.4c-2.5,0.6-4.5,2.2-5.9,4.4c-2.5,3.7-1.3,8.1,2.3,10.5c0,0,0.6-2-0.6-2.9c-0.7-0.5-1.3-1.5-1.3-2.4
					c0-0.5,0.3-1.3,1-1.1C625.1,44.4,625.1,44.4,625.2,44.4z"/>
			</g>
			<g>
				<path class="st48" d="M634.1,110c0.2,0.4,5,7.5,3.8,9.4s-6.1-0.8-8.8-3.2c-2.7-2.4-4.7-5.3-2.5-7.7c1.1-1.2,0.9,1,3.3,1.1
					C632.3,109.7,633.1,108.6,634.1,110z"/>
				<path class="st16" d="M649.8,82.6c-0.3-1.9-2.3-2.6-3.9-3.2c-2.8-1.1-5.5-1.2-8.5-1.2c-4.3,0-8.9-0.1-13.3-0.3
					c-1.4-0.1-5.4-0.9-6.6-1.6l2.2,7.1l1.3,0.8c-0.1,0.1,3.1,0.8,3.1,0.8s9.3,1.3,9.5,2.5s-5.7,17.6-7.4,19.4s5.4,3.5,8.2,5.6
					s1.2,0.1,9.4-15.4c1.5-2.7,2.9-5.5,4.1-8.4C648.7,86.7,650.1,84.6,649.8,82.6z"/>
			</g>
			<g>
				<ellipse class="st49" cx="641.8" cy="74.6" rx="8.1" ry="8.1"/>
				<g>
					<path class="st4" d="M633.8,74.1c0,0,1.8-1.9,7.1,2.2c0,0-0.3,6.3,3.8,5.9"/>
					<path class="st4" d="M640.8,66.6c0,0,2.5-0.2,5.3,2.4c0,0,1.3,4.4-5.2,7.3"/>
					<path class="st4" d="M646,69c0,0,1,0.1,1.8,0.7"/>
					<path class="st4" d="M645.6,72.2c0,0-5.3-5.8-8.8-3.9"/>
					<path class="st4" d="M644.3,74c0,0-7-4.6-9.6-3.2"/>
					<path class="st4" d="M637.4,74.2c0,0-0.2,7.3,3.4,8.3"/>
					<path class="st4" d="M635.7,73.7c0,0-1.7,4.9,0.9,7.1"/>
					<path class="st4" d="M641.5,80.1c0,0,7.9-3.9,7.1-9.6"/>
					<path class="st4" d="M642.5,81.6c0,0,7.6-2.3,7.3-7.9"/>
				</g>
			</g>
			<path class="st0" d="M646.3,68.6c-0.5-0.7-2.5-1.3-3.1-1.4c-0.6-0.2-5.9,0.6-6.5,0.7c0,0-6.8,1.8-9.6,1c-0.7-0.2-1.7-0.4-2.9-0.4
				l0,0l0,0c2.3-4.9,2.6-10.6-1.5-11.6c-7-1.7-8.5,11.9-8.8,16.9c-0.2,0.7-0.2,1.3-0.1,1.7v0.1l0,0c0.6,1.4,2.9,1.2,5,1.2
				c3,0,14-3.1,15.6-4.2c0,0,2.2-1.8,3.2-1.6c1,0.2,2.3-0.7,2.5-0.6s1.4,0.9,1.8,0.9c0.4,0,0.5-0.3,0.5-0.6c-0.1-0.3-1-1.1-1-1.1
				s0.6-0.1,1.5,0.1c0.9,0.2,2.2,1.4,2.9,1.6c0.7,0.2,0.3-0.9,0.3-0.9s0,0,0.5,0.1C647.3,70.5,646.9,69.4,646.3,68.6z"/>
		</g>
		<g>
			<g>
				<g>
					<path class="st5" d="M674.9,116.7c0,2.3-1.7,4.2-3.9,4c-2.1-0.1-3.9-2.1-3.9-4.5c0-2.3,1.7-4.2,3.9-4
						C673.2,112.3,674.9,114.3,674.9,116.7z"/>
					<path class="st3" d="M673.4,116.6c0,1.5-1.1,2.6-2.4,2.6c-1.3-0.1-2.4-1.4-2.4-2.9s1.1-2.6,2.4-2.6
						C672.3,113.8,673.4,115.1,673.4,116.6z"/>
					<path class="st5" d="M670.7,116.5c0,0.3-0.2,0.4-0.4,0.4s-0.4-0.2-0.4-0.5s0.2-0.4,0.4-0.4
						C670.5,116.1,670.7,116.3,670.7,116.5z"/>
				</g>
				<path class="st21" d="M670.3,111.7c-0.3,0.7,0.4,4.8,0.4,4.8"/>
			</g>
			<g>
				<g>
					<path class="st5" d="M665.6,119.4c0,2.3-1.7,4.2-3.9,4c-2.1-0.1-3.9-2.1-3.9-4.5s1.7-4.2,3.9-4
						C663.9,115,665.6,117,665.6,119.4z"/>
					<path class="st3" d="M664.1,119.3c0,1.5-1.1,2.6-2.4,2.6c-1.3-0.1-2.4-1.4-2.4-2.9s1.1-2.6,2.4-2.6
						C663,116.6,664.1,117.8,664.1,119.3z"/>
					<path class="st5" d="M661.4,119.3c0,0.3-0.2,0.4-0.4,0.4s-0.4-0.2-0.4-0.5s0.2-0.4,0.4-0.4C661.2,118.8,661.4,119,661.4,119.3z
						"/>
				</g>
				<path class="st21" d="M662.3,113c0,0-1.1,0.8-1.3,1.5c-0.3,0.7,0.4,4.8,0.4,4.8"/>
			</g>
			<g>
				<path class="st14" d="M642.5,111.6c0,0,33.5-2,32.6-1c-1,1-5.8,4.6-19.8,5.2s-19.8,0.3-19.8,0.3c-2.7-0.2-3-1.4-0.7-2.8
					C634.8,113.3,638.6,111.1,642.5,111.6z"/>
				<path class="st4" d="M642.5,111.6c0,0,33.5-2,32.6-1c-1,1-5.8,4.6-19.8,5.2s-19.8,0.3-19.8,0.3c-2.7-0.2-3-1.4-0.7-2.8
					C634.8,113.3,638.6,111.1,642.5,111.6z"/>
			</g>
			<g>
				<path class="st47" d="M627.1,89.2l13-3c2.7-0.6,6.1,0.8,7.5,3.1l14.1,22.8"/>
			</g>
			<g>
				<g>
					<path class="st46" d="M635.6,107.9c0,0,8.4-0.2,8.9,0s14.8-4.1,18.3,1.7c3.5,5.8,0,5.5,0,5.5c-2.7-0.3-5.1,1.5-5.3,4
						c0,0,0,0-3,0.5s-6.4,0.6-6.4,0.6c-2.7,0.1-7.2,0.1-10,0.1l-7.5-0.1c-2.7,0-4-2.1-2.9-4.6C627.7,115.6,631.3,108,635.6,107.9z"
						/>
					<path class="st4" d="M635.6,107.9c0,0,8.4-0.2,8.9,0s14.8-4.1,18.3,1.7c3.5,5.8,0,5.5,0,5.5c-2.7-0.3-5.1,1.5-5.3,4
						c0,0,0,0-3,0.5s-6.4,0.6-6.4,0.6c-2.7,0.1-7.2,0.1-10,0.1l-7.5-0.1c-2.7,0-4-2.1-2.9-4.6C627.7,115.6,631.3,108,635.6,107.9z"
						/>
				</g>
				<path class="st50" d="M633.9,112h10.7c0,0,15.8-2.6,17.4-3.4"/>
				<path class="st50" d="M630.4,117.1c0,0,12.8-0.1,14,0s19.1-5.6,19.1-5.6"/>
			</g>
			<g>
				<g>
					<g>
						<path class="st23" d="M599.1,117.5c-1.6,1.7-4.1,1.8-5.6,0.2s-1.3-4.2,0.3-5.9c1.6-1.7,4.1-1.8,5.6-0.2
							C600.9,113.1,600.8,115.8,599.1,117.5z"/>
						<path class="st3" d="M598,116.3c-1,1.1-2.6,1.2-3.5,0.2c-0.9-1-0.8-2.7,0.2-3.7c1-1.1,2.6-1.2,3.5-0.2
							C599.2,113.6,599.1,115.3,598,116.3z"/>
						<path class="st23" d="M596.2,114.4c-0.2,0.2-0.4,0.2-0.6,0s-0.1-0.5,0-0.6c0.2-0.2,0.4-0.2,0.6,0
							C596.4,113.9,596.3,114.2,596.2,114.4z"/>
					</g>
					<path class="st21" d="M605.3,110.7c0,0-5.4-0.3-6.1,0s-3.5,3.1-3.5,3.1"/>
				</g>
				<g>
					<ellipse transform="matrix(0.5 -0.866 0.866 0.5 222.9826 585.9266)" class="st51" cx="618.9" cy="99.9" rx="22.6" ry="20.4"/>
					<ellipse transform="matrix(0.5 -0.866 0.866 0.5 223.0518 585.4533)" class="st52" cx="618.6" cy="99.6" rx="19.7" ry="17.2"/>
					<path class="st5" d="M617.1,98.8c-1,1-2.5,1.1-3.4,0.1c-0.9-1-0.8-2.6,0.2-3.6s2.5-1.1,3.4-0.1
						C618.1,96.1,618.1,97.7,617.1,98.8z"/>
				</g>
			</g>
		</g>
	</g>
	<g>
		<g>
			<g>
				<path class="st0" d="M762.2,4c0.3-1.4,1.6-1.1,1.6-1.1c0.3-1.5,1.6-1,1.6-1c-0.9-0.6-0.4-2,0.2-1.6c0.6,0.4,3.2,0.9,3.2,0.9
					s1.3,2.7,1.6,4.7s-1.6,2.4-1.8,2.5c0,0,0,0,0,0.1c1.1,1.7,7.5,11,8.3,15.1c2.3,1.6,4.6,3.6,6.7,4.6c4.2,1.9,5.1,6.4,4.5,9.2
					c-0.5,2.6-3.4,2-5.4,1c-0.5-0.2-1-0.5-1.3-0.7c-2.8-1.8-5.4-4.4-7.4-7.2c-0.3-0.4-1.2-1.8-2.1-3.3c-3-3.7-6.4-13.8-7.1-15.9
					c-0.2,0-0.5,0-0.9-0.1c-0.8-0.1-2.5-4.1-2.7-5.1C761,4.9,762.1,4.2,762.2,4z"/>
			</g>
			<g>
				<path class="st0" d="M791.9,55.3c3.8-0.5,7.3,1.5,8.7,4.7l0,0c0,0,7.3,11.3,8.1,19.8h0.1c0,0,0,0.2,0,0.7c0.1,1,0,2-0.2,2.9
					c-0.3,4.6-1.1,13.3-2.8,22.3l0,0l0,0c0,0.1,0,0.1,0,0.2c-0.1,0.4-0.1,1.6,1,2.7c1.4,1.3,2.2,2.7,3,3.4c0.8,0.7,4.4,4.1,4.8,4.5
					c0.4,0.4-0.3,0.5-0.6,0.8s-0.3,0.5-0.7,0.6c-0.4,0.2-0.5,1.1-1.9,1c-1.4-0.1-0.9-1-2.1-1.2s-1.4-0.5-2.4-1.2s-3.6-2.2-5.5-2.2
					c-1.9,0-3.1-1.4-3-3.1c0.1-1.7,1.2-2.9,1.4-5.3l0,0c-1.6-6-4.5-18.4-0.5-23.1l0,0c-6.8-5.1-14.7-14.7-14.5-18.3
					C784.2,60,787.4,55.9,791.9,55.3z"/>
				<path class="st16" d="M802.1,59c0,0,3.6,10.1,5.5,13c1.9,2.9-8.6,8.8-10.3,10S787,70.8,786.5,68.8S798.6,53.9,802.1,59z"/>
			</g>
			<g>
				<path class="st0" d="M797.7,29.7c4.8,0,6.8,8,10.9,14.1c2.9,4.9,5.1,12.4,6,13c0.9,0.6,3.1,3.9,3.1,4.8c0,0.9-2.1,4.2-3.7,4.9
					c-1.6,0.7-0.1-1.9-0.1-1.9s-2.3,1.2-2.7,0.9c-0.4-0.3,0.9-2,0.9-2s-0.8-1-1.4-2.4c-0.6-1.4-1-3.1-1-4s-10.3-9.5-11.5-16.1
					C797,34.4,792.8,29.7,797.7,29.7z"/>
				<path class="st53" d="M811,61.9c0.2,0.4,0.8,2,1.5,2c0.7-0.1,0.4-1.3,0.4-2s0.8-1.7,0.8-1.7s0.9,1.5,1.2,1.9s-1.2,2.2-1.5,3.3"
					/>
			</g>
			<g>
				<path class="st3" d="M790.5,111.3c0,0-0.1,1.4,0.7,2.1c0.8,0.7,2.7,4,4.2,4.9s3.2,1.4,3.7,1.8s-0.2,1.3-0.8,1.4
					c-0.7,0,0,0.3-0.8,0.6s-0.8,0.9-1.2,0.9s-0.7,0.6-1,0.4s-1.4-0.7-1.7-0.7s-4.9-1.6-7.7-2.8c-2.8-1.1-4.2-2-2.8-6
					c1.4-4.1,0.9-3.7,2.5-3.5C787.3,110.7,790.9,110.4,790.5,111.3z"/>
				<path class="st5" d="M792.8,65.3C792.8,65.3,792.8,65.4,792.8,65.3c0,0,1.9,18.8-4,25.1c-5.9,6.3-13.9-23.2-11-28.2
					c1.4-4.2,5-6.5,9.3-5.1C790.8,58.4,793,61.8,792.8,65.3z"/>
				<path class="st46" d="M789,112.2c0.5,0,1.2-0.6,1.4-1.6c2-14,1.7-27.2,1.7-27.2s-2.4-1.5-5.5,0.1c-1.2,0.6,3.1,10.6-2.9,6.5
					c-4.9-3.4-1.2,12.1,0.8,19.5c0.5,1.7,0.4,2,1,2.4C786.1,112.2,788.5,112.2,789,112.2z"/>
				<path class="st54" d="M788.3,82.9c0,0,2.6,14.5,0,13.5c-2.6-0.9-3.7-6.6-4.6-3.6c-0.8,2.8,0.1,6.4,0.6,9.1
					c0.5,2.6,2,9.9,6.1,7.4"/>
			</g>
			<path class="st16" d="M779.7,56.4c1-2.1,2-3.9,2.2-4.2c0,0,1.5-3.6,1.7-4.6c0.8-4.1-4.5-11.3-2.6-15c0.6-1.1,1.3-2.2,2.3-3
				c1.4-1.2,3.4-1.5,5.1-1.5c2.2,0,4.5-0.1,6.6,0.6c4.4,1.3,9.1,4.8,9.5,9c0.3,4-1.6,7.4-1.5,11.4c0.3,9,0.3,13.7,0.3,13.7
				c-2.3,4.5-5.3,6.7-8.3,7.5c0,4.7-0.2,8.8-0.7,9c-1.3,0.4-15,3.7-17,1.6C775.3,78.9,773.9,63.8,779.7,56.4z"/>
			<g>
				<path class="st0" d="M793.8,28.3c0.9,0.9,1.8,1.8,2.5,2.9c0.4,0.5,1.2,1.4,0.6,2.1c-0.2,0.2-0.5,0.3-0.7,0.4
					c-3.3,0.9-5.9-1.2-7.6-3.8c-0.2-0.3-0.9-1.3-0.6-1.7c0,0,0.2-3,0.5-3.3c1-0.8,3.3,0.4,5.4,1.1C794,25.9,793.7,28.3,793.8,28.3z"
					/>
				<path class="st0" d="M784.8,19.5c-0.5-4.6,1.9-8.7,5.4-9.2c3.5-0.4,6.8,3,7.4,7.6c0.3-0.3,1.5-1.2,1.6-0.1
					c0.1,1.2-1.2,4.1-1.7,3.2c-0.5,3.3-2.6,5.9-5.4,6.2c-2.8,0.3-5.4-1.7-6.7-4.9l0,0c-0.2,1.3-2.2-1.3-2.4-2.6
					C783,18.5,784.8,19.5,784.8,19.5z"/>
				<path class="st0" d="M790.9,16.5c0.8,4.2,1.8,4.5,2.1,5.2c0.2,0.8-1.6,0.6-2.7-0.2"/>
				<path class="st5" d="M797.6,18c0,0-2.8,0.2-3-3.5c0,0-2.7,2.4-5.1,0c0,0-0.5,3.3-3.2,3.5c0,0,0.2,1.9-1.4,1.6c0,0-2.2-5.3,0-7.4
					s5.9-3.1,8.7-1.8C796.3,11.6,797.9,13.8,797.6,18z"/>
				<path class="st3" d="M798.3,20.8c0,0-1.3-7.2-6.9-7.2c-5.6,0-7,8.4-7,8.4c-0.5,0.2-1-0.9-1.5-2.3s-0.4-2.1-0.6-3.3
					c-0.4-3.3,1.9-5.9,4.6-7.4c2.9-1.7,6.4-1.6,9,0.6C802.4,15.1,798.3,20.8,798.3,20.8z"/>
				<g>
					<g>
						<g>
							<path class="st55" d="M791.9,11.4c-0.2,0.6,0.7,1.4,1.9,1.9c1.3,0.5,2.4,0.4,2.7-0.2c0.2-0.6-0.7-1.4-1.9-1.9
								C793.3,10.7,792.1,10.8,791.9,11.4z"/>
							<path class="st43" d="M796.5,13c0,0-0.5,1.8-2.7,0.8s-2.1-1.2-1.8-2.4"/>
						</g>
						<path class="st43" d="M796.2,13.5c0,0,3.7,2,3.3,3.4"/>
					</g>
					<g>
						<g>
							<path class="st55" d="M790.2,11.6c0.2,0.6-0.7,1.4-1.9,1.9c-1.3,0.5-2.4,0.4-2.7-0.2c-0.2-0.6,0.7-1.4,1.9-1.9
								C788.8,10.9,790,11,790.2,11.6z"/>
							<path class="st43" d="M785.6,13.3c0,0,0.5,1.8,2.7,0.8s2.1-1.2,1.8-2.4"/>
						</g>
						<path class="st43" d="M785.9,13.7c0,0-3.7,2-3.3,3.4"/>
					</g>
					<path class="st43" d="M791.8,12.2c0,0-0.7-0.6-1.5,0"/>
				</g>
			</g>
		</g>
		<g>
			<path class="st53" d="M762.2,4c0,0,1.1,0.1,1.8,1.2s0.7,1.3,0.4,1.7c-0.3,0.4-1.3,0.4-1.7-0.5"/>
			<path class="st53" d="M763.7,2.8c0,0,0.9-0.4,1.5,0.8c0.6,1.2,0.6,1.8,0.3,2.1c-0.3,0.4-1.2,0.2-1.2,0.2"/>
			<path class="st53" d="M765.4,1.9c0,0,1.2,0.7,1.5,2s-0.6,1.5-1.1,1.1"/>
			<path class="st53" d="M766.1,2.5c0,0,0.7,0.4,1.3,0.2"/>
			<path class="st53" d="M766.6,5.7c0,0-1.1,0.9-0.6,2.2"/>
		</g>
	</g>
	<g>
		<g>
			<path class="st5" d="M1331.8,34.8c0,0,2.2,7.2,8.4,8.7c6.2,1.5,6.9,1.3,6.9,1.3s-1.3,5.2-3.2,6.3c0,0-4.5-0.9-6.2-2.2
				c0,0,4,2.7,5.7,3c0,0-2.8,6.4-9.9,8c-7,1.7-15.3,0.2-18.6-6.3c0,0,2.5-5.8,2.2-17.1C1317.2,36.5,1328.7,30.2,1331.8,34.8z"/>
			<g>
				<g>
					<g>
						<path class="st0" d="M1323.9,89c-0.9-4.2,0.6-10.3,1.8-13c1.2-2.7,5.3-2.6,5.3-2.6s4.4,0.3,4.3,3.3c0.5,3.6,2.7,8.7,2.3,12.3
							c-0.2,1.8,0,3.6-0.3,5.3c0.1,0.4,0.1,0.9,0.1,1.3c-0.1,0.7-0.2,1.5-0.3,2.2c-0.2,1.2-0.5,2.4-0.8,3.5c-0.9,3.5-2,7-3.3,10.3
							c-1-0.4-4.5-0.3-5.4-1c-0.2-1.6-1.1-9.6,0.4-14.3C1325.7,94.6,1324.5,91.8,1323.9,89z"/>
						<g>
							<path class="st5" d="M1326.8,108.9c0.1-0.2,0.3-0.4,0.6-0.5c0.5-0.2,1.2-0.1,1.5,0.4c1,1.2,2.5,1.8,3.5,1.8s0.7-1,1.4-0.2
								c0.7,0.7,3.9,3.4,5.1,3.3s3-0.4,3.4,1.1s-2.5,3.5-4.6,3.7s-5.3-0.5-6-0.1c-0.7,0.4-6.4,0.2-6.9-1.7c-0.3-1.3,0.4-2.6,1-3.6
								s1.1-1.9,1-3.2C1326.7,109.4,1326.7,109.1,1326.8,108.9z"/>
							<path class="st26" d="M1324.8,115.6c0,0.2,0.9,1.1,2.5,1.4c1.4,0.3,2.9,0.3,4.3,0.3c0.7,0,1.5,0,2.2,0c0.7,0,1.4,0.2,2.1,0.2
								c1.2,0,2.5-0.1,3.6-0.6s2.3-1.2,2.7-2.4"/>
							<path class="st26" d="M1336.2,112.3c0,0-1.2,0.2-1.6,1"/>
							<path class="st26" d="M1335.2,111.5c0,0-1.3-0.3-1.8,0.6"/>
						</g>
						<g>
							<path class="st16" d="M1336.3,77.1c0,0,2.8,11.3,0.9,14c-1.9,2.7-12.7,0.8-12.7,0.8s-5.8-15.3-4.6-15.9
								C1319.4,74,1332.7,72.1,1336.3,77.1z"/>
						</g>
					</g>
					<g>
						<path class="st0" d="M1313.9,74.4c1.6-3.5,2.1-6.5,7-4.2c4.1,1.9,6.6,5.4,6.5,8.5c0.5,3.8,0.6,7.7,0.1,11.5
							c-0.3,2.4-0.8,5-1.9,7.2c0.1,0,0.1,0.1,0.1,0.1s0.5,8.6-1.5,18.5c-1.1-0.2-4.7,0.5-5.7,0.1c-0.6-1.9-4.1-13.1-1.4-17.3
							c-0.2-0.2-0.4-0.3-0.6-0.5c-2.3-2.1-3.6-5-4.2-8C1311.4,86,1310.7,78.2,1313.9,74.4z"/>
						<path class="st16" d="M1328.4,71.9c0,0,0.8,20.5-0.4,20.9c-1.1,0.4-13.7,3.5-15.6,1.5c-1.8-2-3.1-18.4,3.6-24.6
							C1322.9,63.6,1328.4,71.9,1328.4,71.9z"/>
						<g>
							<path class="st5" d="M1317.7,113.4c0.1-0.2,0.3-0.4,0.6-0.5c0.6-0.2,1.2-0.1,1.6,0.4c1,1.2,2.6,1.8,3.6,1.8s0.7-1,1.5-0.2
								c0.8,0.8,4.1,3.5,5.3,3.4c1.2-0.1,3.1-0.4,3.5,1.1c0.4,1.6-2.6,3.6-4.8,3.8c-2.2,0.2-5.5-0.5-6.2-0.1
								c-0.7,0.4-6.6,0.2-7.1-1.8c-0.4-1.3,0.4-2.7,1.1-3.7c0.7-1.1,1.2-2,1-3.3C1317.6,114,1317.6,113.7,1317.7,113.4z"/>
							<path class="st26" d="M1315.6,120.3c0,0.2,0.9,1.2,2.6,1.5c1.5,0.3,3,0.3,4.4,0.3c0.8,0,1.5,0,2.3,0c0.7,0,1.4,0.2,2.1,0.2
								c1.2,0,2.6-0.1,3.7-0.7c1.1-0.5,2.4-1.2,2.8-2.5"/>
							<path class="st26" d="M1327.4,116.9c0,0-1.2,0.2-1.7,1.1"/>
							<path class="st26" d="M1326.4,116.2c0,0-1.3-0.3-1.8,0.6"/>
						</g>
					</g>
					<path class="st0" d="M1327.4,50.2c0.9-1.9,2.9-1.7,4.4-1.2c0.3,0.1,1.6,0.7,1.9,0.8c1.9,1.1,2.6,1.9,4.8,4.5
						c0.8,0.9,1.3,2.1,1.6,3.3c0.1,0.1,0.1,0.1,0.2,0.2c2,2.2,3.5,13.5,3.5,13.5s0,0-0.1,0.1c0.1,0.4,0.2,0.7,0.3,0.8
						c0.7,0.8,2.1,4.6,1.8,5.5c-0.2,0.9-3.1,3.5-4.8,3.8c-1.7,0.3,0.3-1.9,0.3-1.9s-2.5,0.6-2.8,0.2c-0.3-0.4,1.4-1.7,1.4-1.7
						s-0.5-1.1-0.7-2.7c-0.1-1-0.2-2.2-0.1-3.1c-1.3-2.4-4.6-8.4-4.5-11.2c-2.2-1-4.2-2.7-5.5-3.9
						C1326.9,55.5,1326.4,52.3,1327.4,50.2z"/>
					<g>
						<g>
							<g>
								<path class="st56" d="M1336,79.4c2.8-0.8,1.1-0.9,0.8-9.9c-0.1-4,1.8-7.4,1.5-11.4c-0.3-4.2-5.1-7.8-9.5-9
									c-2.1-0.6-4.4-0.6-6.6-0.6c-1.7,0-3.8,0.3-5.1,1.5c-1,0.8-1.7,1.9-2.3,3c-1.9,3.7,1.9,9.4,1.1,13.5
									c-0.4,2.2-2.1,3.9-2.6,6.1c-0.6,2.7,0.8,3.5,3.1,4.5c3,1.3,6.3,2.2,9.6,2.5C1329.1,79.9,1333,80.2,1336,79.4z"/>
							</g>
						</g>
					</g>
					<g>
						<path class="st0" d="M1300,28.3c0.3-1.4,1.6-1.1,1.6-1.1c0.3-1.5,1.6-1,1.6-1c-0.9-0.6-0.4-2,0.2-1.6c0.6,0.4,3.2,0.9,3.2,0.9
							s1.3,2.7,1.6,4.7c0.2,1.5-0.9,2.1-1.5,2.4c0.1,0.3,6.5,9.5,6.5,13.3c2.5,1,4.9,2.8,6.4,3.9c2.6,2,3.3,5.6,2.4,8
							c-0.8,2.3-3.2,2.1-4.8,1.6c-0.4-0.1-1.9-0.6-2.2-0.8c-2.2-1.1-3.1-2-5.7-4.7c-0.9-1-1.6-2.3-2.1-3.6c-0.1-0.1-0.1-0.1-0.2-0.2
							c-2.3-2.1-4.5-13-4.8-14.7c-0.2,0-0.4,0-0.6-0.1c-0.8-0.1-2.5-4.1-2.7-5.1C1298.7,29.2,1299.9,28.5,1300,28.3z"/>
						<g>
							
								<ellipse transform="matrix(0.3852 -0.9228 0.9228 0.3852 775.7377 1217.7496)" class="st57" cx="1301.8" cy="26.7" rx="5.8" ry="5.8"/>
						</g>
					</g>
					<g>
						<g>
							<path class="st0" d="M1321.8,48.5c0,0,0.1,0,0.2-0.1l0.2-4.5l5.8,0.5l-0.4,4.3l0,0c0.9,0.9,1.8,1.8,2.5,2.9
								c0.4,0.5,1.2,1.4,0.6,2.1c-0.2,0.2-0.5,0.3-0.7,0.4c-3.3,0.9-5.9-1.2-7.6-3.8C1322.2,49.9,1321.4,48.9,1321.8,48.5z"/>
							<path class="st0" d="M1318.6,40c-0.5-4.6,1.9-8.7,5.4-9.2c3.5-0.4,6.8,3,7.4,7.6c0.3-0.3,1.5-1.2,1.6-0.1
								c0.1,1.2-1.2,4.1-1.7,3.2c-0.5,3.3-0.3,6.9-5.4,7c-5.1,0.2-5.4-2.6-6.7-5.8l0,0c-0.2,1.3-2.2-1.3-2.4-2.6
								C1316.8,38.9,1318.6,40,1318.6,40z"/>
							<path class="st0" d="M1324.7,37c0.8,4.2,1.8,4.5,2.1,5.2c0.2,0.8-1.6,0.6-2.7-0.2"/>
						</g>
						<g>
							<path class="st5" d="M1330.4,31.9c1.6,2,2,4.7,1,7.1c-0.1,0.2-0.3,0.5-0.3,0.5l-0.1-0.4c-0.1-0.3-0.2-0.6-0.3-0.9
								c-0.2-0.6-0.5-1.1-0.8-1.6c-1.1-1.6-2.7-2.6-4.4-3.2l0,0c0.4,1.4,3.9,3.8,4.8,4.1c0,0,0,0,0.1,0.1h-0.3
								c-4.8,0.4-11.1-5-11.1-5C1322,27.7,1327.4,27.9,1330.4,31.9z"/>
							<path class="st5" d="M1320.8,32.4c0,0,1,7.5-1.9,8c0,0-3.8-3.4,0-7.9C1318.8,32.5,1321.2,30.9,1320.8,32.4z"/>
						</g>
					</g>
				</g>
				<path class="st53" d="M1339.3,76.4c0.1,0.5,0.3,2.2,1,2.3c0.7,0.1,0.8-1.2,0.9-1.9c0.2-0.7,1.2-1.5,1.2-1.5s0.5,1.7,0.7,2.1
					c0.2,0.4-1.7,1.8-2.2,2.8"/>
			</g>
		</g>
		<path class="st0" d="M1308.2,30.1c0,0,0.6-3.6-1.6-4.7c-2.2-1.1-0.2,2.7-0.4,3.3c-0.2,0.6-1.6,1.6-1.4,3.4
			C1304.9,34,1308.2,30.1,1308.2,30.1z"/>
		<polygon class="st7" points="1308.1,29.6 1308.1,30.4 1305.1,33.6 1304.5,32.6 		"/>
	</g>
	<line class="st4" x1="1609.6" y1="122.4" x2="0" y2="122.4"/>
</g>
</svg>
