<?xml version="1.0" encoding="utf-8"?>
<!-- Generator: Adobe Illustrator 24.2.3, SVG Export Plug-In . SVG Version: 6.00 Build 0)  -->
<svg version="1.1" id="Layer_1" xmlns="http://www.w3.org/2000/svg" xmlns:xlink="http://www.w3.org/1999/xlink" x="0px" y="0px"
	 viewBox="0 0 1081.1 123.6" style="enable-background:new 0 0 1081.1 123.6;" xml:space="preserve">
<style type="text/css">
	.st0{fill:#FFFBF0;}
	.st1{fill:#FEFBF1;}
	.st2{fill:#FFFFFF;}
	.st3{fill:#EE3E5A;stroke:#374257;stroke-width:0.4722;stroke-miterlimit:10;}
	.st4{fill:none;stroke:#374257;stroke-width:0.4722;stroke-miterlimit:10;}
	.st5{fill:#FFCA30;stroke:#374257;stroke-width:0.4722;stroke-miterlimit:10;}
	.st6{fill:#F8F3DC;stroke:#374257;stroke-width:0.4722;stroke-miterlimit:10;}
	.st7{fill:#374257;stroke:#374257;stroke-width:0.4722;stroke-miterlimit:10;}
	.st8{fill:#EDE3BA;stroke:#374257;stroke-width:0.4722;stroke-miterlimit:10;}
	.st9{fill:#3AA9CC;stroke:#374257;stroke-width:0.4722;stroke-miterlimit:10;}
	.st10{fill:#67B199;stroke:#374257;stroke-width:0.4722;stroke-miterlimit:10;}
	.st11{fill:#FFFFFF;stroke:#374257;stroke-width:0.4722;stroke-miterlimit:10;}
	.st12{fill:#FFFBF0;stroke:#2A3F55;stroke-width:0.2278;stroke-miterlimit:10;}
	.st13{fill:#2A3F55;stroke:#2A3F55;stroke-width:0.2278;stroke-miterlimit:10;}
	.st14{fill:#2A9FAA;stroke:#2A3F55;stroke-width:0.2278;stroke-miterlimit:10;}
	.st15{fill:#FF3F55;stroke:#2A3F55;stroke-width:0.2278;stroke-miterlimit:10;}
	.st16{fill:#FFDFAA;stroke:#2A3F55;stroke-width:0.2278;stroke-miterlimit:10;}
	.st17{fill:#FFBF55;stroke:#2A3F55;stroke-width:0.2278;stroke-miterlimit:10;}
	.st18{fill:none;stroke:#2A3F55;stroke-width:0.2278;stroke-miterlimit:10;}
	.st19{fill:#F7F2DB;stroke:#364156;stroke-width:0.4722;stroke-miterlimit:10;}
	.st20{fill:#374257;}
	.st21{fill:#3AA9CC;}
	.st22{fill:#233042;}
	.st23{fill:#FFFBF0;stroke:#2A3F55;stroke-width:0.2874;stroke-miterlimit:10;}
	.st24{fill:#FF3F55;stroke:#2A3F55;stroke-width:0.2874;stroke-miterlimit:10;}
	.st25{fill:#FFDFAA;stroke:#2A3F55;stroke-width:0.2874;stroke-miterlimit:10;}
	.st26{fill:#2A3F55;stroke:#2A3F55;stroke-width:0.2874;stroke-miterlimit:10;}
	.st27{fill:none;stroke:#2A3F55;stroke-width:0.2874;stroke-miterlimit:10;}
	.st28{fill:#FFFFFF;stroke:#2A3F55;stroke-width:0.2874;stroke-miterlimit:10;}
	.st29{fill:#2A9FAA;stroke:#2A3F55;stroke-width:0.2874;stroke-miterlimit:10;}
	.st30{fill:#2AA881;stroke:#2A3F55;stroke-width:0.2874;stroke-miterlimit:10;}
	.st31{fill:#FFBF55;stroke:#2A3F55;stroke-width:0.2874;stroke-miterlimit:10;}
	.st32{fill:#2A3F55;}
	.st33{fill:#F8F3DC;stroke:#374257;stroke-width:0.2874;stroke-miterlimit:10;}
	.st34{fill:#EE3E5A;stroke:#374257;stroke-width:0.2874;stroke-miterlimit:10;}
	.st35{fill:#EDE3BA;stroke:#374257;stroke-width:0.2874;stroke-miterlimit:10;}
	.st36{fill:#374257;stroke:#374257;stroke-width:0.2874;stroke-miterlimit:10;}
	.st37{fill:none;stroke:#374257;stroke-width:0.2874;stroke-miterlimit:10;}
	.st38{fill:#FFFFFF;stroke:#374257;stroke-width:0.2874;stroke-miterlimit:10;}
	.st39{fill:#3AA9CC;stroke:#374257;stroke-width:0.2874;stroke-miterlimit:10;}
	.st40{fill:#68B199;stroke:#131726;stroke-width:0.2874;stroke-miterlimit:10;}
	.st41{fill:#FFCA30;stroke:#374257;stroke-width:0.2874;stroke-miterlimit:10;}
	.st42{fill:#68B199;stroke:#374257;stroke-width:0.2874;stroke-miterlimit:10;}
	.st43{fill:#67B199;stroke:#374257;stroke-width:0.2874;stroke-miterlimit:10;}
	.st44{fill:#F7F2DB;stroke:#131726;stroke-width:0.2874;stroke-miterlimit:10;}
	.st45{fill:#EE3C59;stroke:#131726;stroke-width:0.2874;stroke-miterlimit:10;}
	.st46{fill:#FFCA30;stroke:#131726;stroke-width:0.2874;stroke-miterlimit:10;}
	.st47{fill:#ECE2BA;stroke:#131726;stroke-width:0.2874;stroke-miterlimit:10;}
	.st48{fill:#3BA9CB;stroke:#131726;stroke-width:0.2874;stroke-miterlimit:10;}
	.st49{fill:none;stroke:#131726;stroke-width:0.2874;stroke-miterlimit:10;}
	.st50{fill:#ECE2BA;stroke:#374257;stroke-width:0.2874;stroke-miterlimit:10;}
	.st51{fill:#FFCA30;stroke:#233042;stroke-width:0.2874;stroke-miterlimit:10;}
	.st52{fill:#2AA881;stroke:#2A3F55;stroke-width:0.2782;stroke-miterlimit:10;}
	.st53{fill:#FFBF55;stroke:#2A3F55;stroke-width:0.2782;stroke-miterlimit:10;}
	.st54{fill:#FF3F55;stroke:#2A3F55;stroke-width:0.2782;stroke-miterlimit:10;}
	.st55{fill:none;stroke:#2A3F55;stroke-width:0.279;stroke-miterlimit:10;}
	.st56{fill:none;stroke:#2A3F55;stroke-width:0.25;stroke-miterlimit:10;}
	.st57{fill:none;stroke:#2A3F55;stroke-width:2;stroke-miterlimit:10;}
	.st58{fill:#FF3F55;stroke:#2A3F55;stroke-width:0.25;stroke-miterlimit:10;}
	.st59{fill:#FFBF55;stroke:#2A3F55;stroke-width:0.25;stroke-miterlimit:10;}
	.st60{fill:#FFFBF0;stroke:#2A3F55;stroke-width:0.25;stroke-miterlimit:10;}
	.st61{fill:#2A3F55;stroke:#2A3F55;stroke-width:0.25;stroke-miterlimit:10;}
	.st62{fill:#FFDFAA;stroke:#2A3F55;stroke-width:0.25;stroke-miterlimit:10;}
	.st63{fill:#2A9FAA;stroke:#2A3F55;stroke-width:0.25;stroke-miterlimit:10;}
	.st64{fill:#55BFAA;stroke:#2A3F55;stroke-width:0.25;stroke-miterlimit:10;}
	.st65{fill:#FFFFFF;stroke:#2A3F55;stroke-width:0.25;stroke-miterlimit:10;}
	.st66{fill:#FFFBF0;stroke:#2A3F55;stroke-width:0.242;stroke-miterlimit:10;}
	.st67{fill:#FF3F55;stroke:#2A3F55;stroke-width:0.242;stroke-miterlimit:10;}
	.st68{fill:#2A9FAA;stroke:#2A3F55;stroke-width:0.242;stroke-miterlimit:10;}
	.st69{fill:#FFDFAA;stroke:#2A3F55;stroke-width:0.242;stroke-miterlimit:10;}
	.st70{fill:none;stroke:#2A3F55;stroke-width:0.242;stroke-miterlimit:10;}
	.st71{fill:#55BFAA;stroke:#2A3F55;stroke-width:0.242;stroke-miterlimit:10;}
	.st72{fill:#FFA00F;stroke:#2A3F55;stroke-width:0.1518;stroke-miterlimit:10;}
	.st73{fill:#FF7B06;stroke:#2A3F55;stroke-width:0.1518;stroke-miterlimit:10;}
	.st74{fill:#9EA2AC;}
	.st75{fill:#9CD0D7;}
	.st76{fill:#FFE3B0;}
	.st77{fill:#FFA0A8;}
	.st78{fill:#A4DBD0;}
	.st79{fill:#FFF0DB;}
	.st80{fill:#FFFDF7;stroke:#2A3F55;stroke-width:0.25;stroke-miterlimit:10;}
	.st81{opacity:0.5;fill:#2A3F55;stroke:#2A3F55;stroke-width:0.1768;stroke-miterlimit:10;}
	.st82{opacity:0.5;fill:#2A9FAA;stroke:#2A3F55;stroke-width:0.1768;stroke-miterlimit:10;}
	.st83{opacity:0.5;fill:#FFBF55;stroke:#2A3F55;stroke-width:0.1768;stroke-miterlimit:10;}
	.st84{opacity:0.5;fill:#FF3F55;stroke:#2A3F55;stroke-width:0.1768;stroke-miterlimit:10;}
	.st85{opacity:0.5;fill:#55BFAA;stroke:#2A3F55;stroke-width:0.1768;stroke-miterlimit:10;}
	.st86{opacity:0.5;fill:#FFDFAA;stroke:#2A3F55;stroke-width:0.1768;stroke-miterlimit:10;}
	.st87{opacity:0.5;fill:#FFFBF0;stroke:#2A3F55;stroke-width:0.1768;stroke-miterlimit:10;}
	.st88{fill:#FFFEFA;}
	.st89{fill:#FFDFAA;}
	.st90{fill:#55BFAA;}
	.st91{fill:#FFBF55;}
	.st92{fill:#FF3F55;}
	.st93{fill:#FFCB78;}
	.st94{fill:#FF7B06;}
	.st95{fill:#FFA00F;}
	.st96{fill:#FFF4E0;}
	.st97{fill:#FFE5BB;}
	.st98{fill:#DCEEF1;}
	.st99{fill:#C0DAE0;}
	.st100{fill:#8DC5CB;}
	.st101{fill:#077984;}
	.st102{fill:#2A9FAA;}
	.st103{fill:none;stroke:#FF3F55;stroke-width:7;stroke-miterlimit:10;}
	.st104{fill:#FFFFFF;stroke:#2A3F55;stroke-width:0.9423;stroke-miterlimit:10;}
	.st105{fill:none;stroke:#2A3F55;stroke-width:0.2418;stroke-miterlimit:10;}
	.st106{opacity:0.1;fill:#9CD0D7;}
	.st107{fill:none;stroke:#9CD0D7;stroke-width:0.2418;stroke-miterlimit:10;}
	.st108{fill:#FFFBF0;stroke:#45486D;stroke-width:0.9211;stroke-miterlimit:10;}
	.st109{fill:#FFFBF0;stroke:#45486D;stroke-miterlimit:10;}
	.st110{fill:#EF8539;}
	.st111{fill:#F2EAF0;}
	.st112{fill:none;stroke:#EC505A;stroke-width:2;stroke-miterlimit:10;}
	.st113{fill:#F8F3E5;}
	.st114{fill:#2AA881;stroke:#2A3F55;stroke-width:0.25;stroke-miterlimit:10;}
	.st115{fill:#F8F3E5;stroke:#2A3F55;stroke-miterlimit:10;}
	.st116{fill:#30AAB3;}
	.st117{fill:#FF3F55;stroke:#2A3F55;stroke-miterlimit:10;}
	.st118{fill:#2A9FAA;stroke:#2A3F55;stroke-miterlimit:10;}
	.st119{fill:#2A3F55;stroke:#2A3F55;stroke-width:0.2081;stroke-miterlimit:10;}
	.st120{fill:#FFDFAA;stroke:#2A3F55;stroke-width:0.2081;stroke-miterlimit:10;}
	.st121{fill:#2A9FAA;stroke:#2A3F55;stroke-width:0.2081;stroke-miterlimit:10;}
	.st122{fill:#FF3F55;stroke:#2A3F55;stroke-width:0.2081;stroke-miterlimit:10;}
	.st123{opacity:0.7;fill:#FFDFAA;stroke:#2A3F55;stroke-width:0.2081;stroke-miterlimit:10;}
	.st124{fill:#55BFAA;stroke:#2A3F55;stroke-width:0.2081;stroke-miterlimit:10;}
	.st125{fill:#FFBF55;stroke:#2A3F55;stroke-width:0.2081;stroke-miterlimit:10;}
	.st126{fill:none;stroke:#2A3F55;stroke-miterlimit:10;}
	.st127{fill:none;stroke:#5A60AB;stroke-miterlimit:10;}
	.st128{fill:#DB8860;stroke:#2A3F55;stroke-miterlimit:10;}
	.st129{fill:#F7C655;stroke:#2A3F55;stroke-miterlimit:10;}
	.st130{fill:#AABFBF;stroke:#2A3F55;stroke-miterlimit:10;}
	.st131{fill:#AABFBF;stroke:#2A3F55;stroke-width:0.9957;stroke-miterlimit:10;}
	.st132{fill:none;stroke:#5A60AB;stroke-width:1.3548;stroke-miterlimit:10;}
	.st133{fill:none;stroke:#0081C8;stroke-width:2.81;}
	.st134{fill:none;stroke:#000000;stroke-width:2.81;}
	.st135{fill:none;stroke:#EE334E;stroke-width:2.81;}
	.st136{fill:none;stroke:#FCB131;stroke-width:2.81;}
	.st137{fill:none;stroke:#00A651;stroke-width:2.81;}
	.st138{fill:#45486D;}
	.st139{fill:none;stroke:#2A3F55;stroke-width:0.25;stroke-linecap:round;stroke-miterlimit:10;}
	.st140{fill:none;stroke:#1C1C1B;stroke-width:0.8188;stroke-linecap:round;stroke-miterlimit:10;}
	.st141{fill:none;stroke:#FFBF55;stroke-width:3;stroke-miterlimit:10;}
	.st142{fill:none;stroke:#2A3F55;stroke-width:5;stroke-miterlimit:10;}
	.st143{fill:none;stroke:#2A3F55;stroke-width:4;stroke-linecap:round;stroke-miterlimit:10;}
	.st144{fill:#1B2935;stroke:#2A3F55;stroke-width:0.25;stroke-miterlimit:10;}
	.st145{fill:none;stroke:#FFFFFF;stroke-width:0.6796;stroke-linecap:round;stroke-miterlimit:10;}
	.st146{enable-background:new    ;}
	.st147{clip-path:url(#SVGID_2_);enable-background:new    ;}
	.st148{clip-path:url(#SVGID_4_);enable-background:new    ;}
	.st149{clip-path:url(#SVGID_6_);enable-background:new    ;}
	.st150{clip-path:url(#SVGID_8_);enable-background:new    ;}
	.st151{clip-path:url(#SVGID_10_);enable-background:new    ;}
	.st152{clip-path:url(#SVGID_12_);enable-background:new    ;}
	.st153{clip-path:url(#SVGID_14_);enable-background:new    ;}
	.st154{clip-path:url(#SVGID_16_);enable-background:new    ;}
	.st155{fill:#111111;}
	.st156{fill:#111110;}
	.st157{fill:#10100E;}
	.st158{fill:#0E0E0E;}
	.st159{fill:#0E0E0D;}
	.st160{clip-path:url(#SVGID_18_);enable-background:new    ;}
	.st161{clip-path:url(#SVGID_20_);enable-background:new    ;}
	.st162{fill:none;stroke:#2A3F55;stroke-width:0.8188;stroke-linecap:round;stroke-miterlimit:10;}
	.st163{fill:none;stroke:#FF3F55;stroke-miterlimit:10;}
	.st164{fill:#1C1C1B;}
	.st165{fill:none;stroke:#2A3F55;stroke-width:0.819;stroke-linecap:round;stroke-linejoin:round;stroke-miterlimit:10;}
	.st166{fill:none;stroke:#2A3F55;stroke-width:0.25;stroke-linecap:round;stroke-linejoin:round;stroke-miterlimit:10;}
	.st167{fill:none;stroke:#2A3F55;stroke-width:0.75;stroke-linecap:round;stroke-linejoin:round;stroke-miterlimit:10;}
	.st168{fill:#2A9FAA;stroke:#2A3F55;stroke-width:0.75;stroke-miterlimit:10;}
	.st169{clip-path:url(#SVGID_22_);enable-background:new    ;}
	.st170{clip-path:url(#SVGID_24_);enable-background:new    ;}
	.st171{clip-path:url(#SVGID_26_);enable-background:new    ;}
	.st172{clip-path:url(#SVGID_28_);enable-background:new    ;}
	.st173{clip-path:url(#SVGID_30_);enable-background:new    ;}
	.st174{clip-path:url(#SVGID_32_);enable-background:new    ;}
	.st175{clip-path:url(#SVGID_34_);enable-background:new    ;}
	.st176{clip-path:url(#SVGID_36_);enable-background:new    ;}
	.st177{clip-path:url(#SVGID_38_);enable-background:new    ;}
	.st178{clip-path:url(#SVGID_40_);enable-background:new    ;}
</style>
<g>
	<g>
		<g>
			<polygon class="st62" points="155,28.6 161.1,28.7 161.2,19.1 154.9,19.1 			"/>
			<path class="st62" d="M164.2,9c-0.2-0.5-0.4-0.9-0.6-1.3c-2.3-3.6-6.2-5.6-9.8-2.5c-1.2,1.1-2.2,2.4-3.1,3.8
				c-0.3,0.4-0.4,1-0.8,1.4c-0.4,0.4-0.7,0.3-1.1,0.5c-0.1,0.1-0.2,0.1-0.3,0.2c0,1.1,0.1,2.2,0.2,3.3c0.5,0.3,1.1,0.7,1.5,1.1
				c0.1,0.1,0.2,0.2,0.3,0.3c0.4,0.1,0.8,0,0.8,0c1.8,6,6.5,5.8,6.5,5.8c3.2,0.3,5.2-1.7,6-4.6C164.6,14.8,165.1,11.5,164.2,9z"/>
			<g>
				<g>
					<path class="st92" d="M155.3,15.1c-0.6,0-1.2-0.2-1.6-0.5c-0.5-0.4-0.9-0.9-0.9-1.5c-0.1-0.6,0.2-1.2,0.7-1.7
						c0.5-0.5,1.1-0.7,1.8-0.8c1.5-0.1,2.7,0.8,2.8,2l0,0c0.1,0.6-0.2,1.2-0.7,1.7c-0.5,0.5-1.1,0.7-1.8,0.8
						C155.5,15.1,155.4,15.1,155.3,15.1z M155.5,11.1c-0.1,0-0.1,0-0.2,0c-0.6,0-1.1,0.3-1.5,0.7c-0.4,0.4-0.5,0.8-0.5,1.3
						c0,0.5,0.3,0.9,0.7,1.2c0.4,0.3,1,0.4,1.6,0.4c0.6,0,1.1-0.3,1.5-0.7c0.4-0.4,0.5-0.8,0.5-1.3l0,0
						C157.4,11.7,156.5,11.1,155.5,11.1z"/>
				</g>
				<g>
					<path class="st92" d="M162.7,14.5c-0.6,0-1.2-0.2-1.6-0.5c-0.5-0.4-0.9-0.9-0.9-1.5c-0.1-0.6,0.2-1.2,0.7-1.7
						c0.5-0.5,1.1-0.7,1.8-0.8c0.7-0.1,1.4,0.1,1.9,0.5c0.5,0.4,0.9,0.9,0.9,1.5c0.1,0.6-0.2,1.2-0.7,1.7c-0.5,0.5-1.1,0.7-1.8,0.8
						C162.9,14.5,162.8,14.5,162.7,14.5z M162.9,10.5c-0.1,0-0.1,0-0.2,0c-0.6,0-1.1,0.3-1.5,0.7c-0.4,0.4-0.5,0.8-0.5,1.3
						c0,0.5,0.3,0.9,0.7,1.2c0.4,0.3,1,0.4,1.6,0.4c0.6,0,1.1-0.3,1.5-0.7c0.4-0.4,0.5-0.8,0.5-1.3v0c0-0.5-0.3-0.9-0.7-1.2
						C163.8,10.7,163.4,10.5,162.9,10.5z"/>
				</g>
				<g>
					<path class="st92" d="M154.3,15.1c-0.6,0-1.2-0.2-1.6-0.5c-0.5-0.4-0.9-0.9-0.9-1.5c-0.1-0.6,0.2-1.2,0.7-1.7
						c0.5-0.5,1.1-0.7,1.8-0.8c0.3,0,0.6,0,0.8,0c0.1,0,0.2,0.2,0.2,0.3c0,0.1-0.2,0.2-0.3,0.2c-0.2,0-0.5-0.1-0.7,0
						c-0.6,0-1.1,0.3-1.5,0.7c-0.4,0.4-0.5,0.8-0.5,1.3c0,0.5,0.3,0.9,0.7,1.2c0.4,0.3,1,0.4,1.6,0.4c0.1,0,0.3,0.1,0.3,0.2
						c0,0.1-0.1,0.3-0.2,0.3C154.4,15.1,154.3,15.1,154.3,15.1z"/>
				</g>
				<g>
					<path class="st92" d="M162,14.5c-1.3,0-2.7-0.7-2.8-2c-0.1-1.2,1-2.4,2.4-2.5l0.1,0c0.2,0,0.3,0,0.5,0c0.1,0,0.2,0.2,0.2,0.3
						c0,0.1-0.2,0.2-0.3,0.2c-0.2,0-0.2,0-0.3,0l-0.1,0c-1.2,0.1-2,1-2,1.9c0.1,0.9,1.2,1.6,2.5,1.5c0.1,0,0.3,0.1,0.3,0.2
						c0,0.1-0.1,0.3-0.2,0.3C162.2,14.5,162.1,14.5,162,14.5z"/>
				</g>
				<g>
					<path class="st92" d="M157.9,13l-0.2-0.5c0.2-0.1,2.1-0.7,2.9,0.1l-0.4,0.4C159.8,12.5,158.4,12.9,157.9,13z"/>
				</g>
			</g>
			<path class="st63" d="M151.8,17.2c0,0-0.3-0.7-0.8-3.6c-0.5-2.8,2.9-5.6,7.1-6.3c4.1-0.8,6.2,1.5,6.4,2.5c0.2,0.9,0.7-0.3,0-1.7
				c-0.7-1.4-1.8-7-8.5-6.3c-6.7,0.8-9,6.4-8.6,10C147.7,15.4,150.6,17,151.8,17.2z"/>
			<g>
				<path class="st92" d="M152.1,12.3c0,0-4.7,0.9-4.5,1.2c0.1,0.4,0.1,0.9,0.6,0.8c0.5-0.2,3.8-1.2,3.8-1.2L152.1,12.3z"/>
			</g>
		</g>
		<path class="st62" d="M164.7,24.6c0.5,0,5.2,1.8,10,7.3c4.8,5.5,2.6,6.5,0,6.4c-2.6-0.1-12.6-3.2-13.2-6.8
			C160.9,27.9,159.7,24.2,164.7,24.6z"/>
		<g>
			<g>
				<g>
					<g>
						<path class="st62" d="M166.1,59.4c-0.3,3.7,1.1-13.8,1.1-24.8c0-6.1-0.8-8.6-2.2-9.7c-0.9-0.8-3.8-1.1-3.8-1.1s0,0.9-3,1
							c-3.1,0.1-3.3-1-3.3-1s-6.7,1.3-9.5,4.8c-4.6,5.1,0.9,23-1.6,29.3C142.6,60.9,155.2,73.5,166.1,59.4z"/>
					</g>
				</g>
			</g>
			<path class="st62" d="M167.2,31.5c0,0,0.1,4.4,0.1,5.4c0,0,0.7,3.7-5.3,3.4"/>
			<path class="st62" d="M159.9,38.1c0,0,0.3,1.9-0.8,2.7s-6.6,1.6-8.6,0.7"/>
		</g>
		<g>
			<path class="st62" d="M160.3,120.7c-0.8-0.4-2.4-0.9-3.6-2.2c-1.1-1.3-3.7-3-4.4-4.5c2.2-12.1,2.4-24.4,2.5-28.6
				c3.8-7,3.1-20.6,3.1-20.6s0,0,0,0c0.3-3.3-1.6-6.5-4.9-7.7c-3.9-1.5-8.4,0.3-9.9,4.2c-2,3.1,0.7,17.1,4.5,23.7
				c-0.7,0.6-1.4,1.3-2.2,2.3c-3.4,4.4-0.9,14.7,1,21l0,0c0.1,0.2,0.6,3.2,0,4.7c-0.6,1.6-3.3,3.6-1.5,5.3c1.8,1.7,2,0.7,3.8,2.3
				c1.7,1.6,6.8,3.6,9.5,2.3C161,121.4,161,121.1,160.3,120.7z"/>
			<path class="st62" d="M174.8,120c0,0-1.2-1-2.5-2.2c-1.3-1.2-3.7-2.9-4.5-4.4c0.9-12.3-0.2-24.5-0.6-28.7
				c3-7.3,0.9-20.8,0.9-20.8s0,0,0,0c-0.1-3.3-2.3-6.3-5.7-7.2c-4.1-1.1-8.3,1.2-9.4,5.2c-1.6,3.3,2.5,16.9,7,23.1
				c-0.6,0.6-1.3,1.5-1.9,2.5c-2.9,4.7,0.6,14.7,3.2,20.8l0,0c0.1,0.2,1,3.1,0.5,4.7c-0.5,1.6-2.9,3.9-0.9,5.4c2,1.5,2.3-0.5,4,1.9
				c1.7,2.4,5.9,3.4,8.5,1.8C175.9,120.4,174.8,120,174.8,120z"/>
			<g>
				<path class="st59" d="M144.3,55.5c0,0,20.5,1.6,22.2-1.6c0,0,3.3,12.3,2.7,17.4c-0.5,5.1-0.5,5.1-0.5,5.1s-9.4,3.9-10.8,4.1
					l-1.1-1.1l-0.3,1.1c0,0-11.3,1.1-12.2,0C143.4,79.5,139.3,65.2,144.3,55.5z"/>
				<path class="st56" d="M156.6,80.6c1-4.8,1.8-9.6,0.5-14.4"/>
				<path class="st56" d="M162.6,64.2c0,0-3.3,5.6-4.8,6"/>
			</g>
		</g>
		<g>
			<g>
				<path class="st62" d="M141.9,31.1c-1.7,1.3-9,7.6-10.1,9.6c-1.1,2,3,14.2,6.9,19.4c0,0,1.3,3,4.6,4.3c0,0,1.5,0,2.8,1
					c1.3,0.9,3.5,1.2,2.6,0c0,0,2.1,1.2,1.7,0c0,0,1.9,0.4,1.1-0.6c0,0-2.1-3.4-4.7-3.9c0,0,2.3,0.3,2.9,0.6
					c0.7,0.3,2.4,1.1,2.3,0.4c-0.2-0.6-2.7-2-3.2-2.2c-0.5-0.2-4.8-0.5-5.2-0.9c-0.4-0.4-4.4-13.8-2.9-15.3c1.4-1.6,5.6-3.6,7.6-5.5
					c2.1-1.9,4.6-5.7,1.7-9C147.1,25.7,143.6,29.8,141.9,31.1z"/>
				<path class="st62" d="M148.7,65.4c0,0-2.1-2.1-3.2-2.4"/>
				<path class="st62" d="M150.4,65.5c0,0-2.3-3-4.1-3.8"/>
			</g>
			<path class="st62" d="M143.5,41.5c0.2-0.1,6.4-3.4,7.4-6.8"/>
		</g>
	</g>
	<g>
		<g>
			<g>
				<path class="st62" d="M74.5,57C74.5,57,74.5,57,74.5,57c0,0,16.5,14.6,16.6,24.6c0.1,10.1-30.9-7.9-32.5-14.5
					c-2.2-4.8-0.1-10.4,4.7-12.6C67.3,52.7,71.8,53.9,74.5,57z"/>
			</g>
			<g>
				<path class="st59" d="M81.8,88.2c-0.1-0.2-3.3-5.4-1-6.8c2.3-1.4,10.4-5.7,10.8-1s-1.6,8.7-2.5,9C88.2,89.8,81.8,88.2,81.8,88.2
					z"/>
				<path class="st61" d="M80.8,86.5c0.5-2.9,5.9-7.1,8.2-3.9c2.8,3.9,2.1,3.3,1,7.2c-1.1,3.9-2.9,10.2-4.1,11.5
					c-1.2,1.3-5.2-0.1-5.1-2.2c0.2-2.7,1.1-5.4,1.1-8.1c0-1.5-1.2-2.8-1-4.3C80.8,86.6,80.8,86.5,80.8,86.5z"/>
				<g>
					<path class="st59" d="M89.3,120.9c0,0-0.4,1.3-1,1.6c-0.6,0.3-5.2,1.2-6.8-0.4c-1.6-1.7-0.5-1.7-0.1-1.5
						C81.8,120.8,89.4,120.3,89.3,120.9z"/>
					<g>
						<path class="st61" d="M71.6,114.6c-1.1-1.2-1.6-2.6-1.5-4.1c0.1-1.7,1.1-3.3,2.8-4.5c2-1.4,4.1-3.4,5-5.6l1.6-8.9L82,92
							c0,0-1.5,8.5-1.5,8.6c-1.1,2.6-4.1,5.4-6.3,7.1c-1.1,0.8-1.8,1.9-1.9,3c-0.1,0.9,0.3,1.8,1,2.6c1.1,1.2,2.4,2.3,3.7,3.3
							c1.6,1.2,3.3,2.3,5.2,2.9c1.8,0.6,3.9,0.9,5.7,0.2c0.5-0.2,1.1-0.5,1.6-0.1c0.5,0.4,0.5,1,0.2,1.5c-0.4,0.6-1.3,0.7-1.9,0.9
							c-0.5,0.1-1,0.2-1.5,0.3c-1,0.1-2,0-3-0.2c-2-0.4-3.8-1.2-5.5-2.3c-1.6-1-3-2.1-4.4-3.3C72.8,115.8,72.2,115.3,71.6,114.6
							C71.6,114.7,71.6,114.7,71.6,114.6z"/>
					</g>
				</g>
				<path class="st59" d="M90,89.7c-0.4-0.1-3.4-1.9-4.1-0.6c-0.7,1.2,0.7,2,2.1,2.5c1.4,0.5,1.4,0.5,1.4,0.5L90,89.7z"/>
				<path class="st59" d="M88.8,94c0,0-2.3-1.2-3.1-0.8c-0.7,0.5-0.7,1.6,0.5,2c1.2,0.5,2,0.7,2,0.7L88.8,94z"/>
			</g>
		</g>
		<g>
			<path class="st62" d="M84.7,9.6c1.1,0.5,1.8,1.6,2.1,2.7c0.4,1.3-0.2,3.1,0.6,4.2c0.3,0.5,1.1,0.5,1.6,0.6
				c2.4,0.5,3.3,0.8,2.9,1.2c-0.4,0.4-4.5,1.2-4.9,1.9c-0.4,0.7-1,4.1-1.5,4.6c-0.5,0.5-3-0.2-3.5,0.3c-0.5,0.5-1.3,3.2-1.3,3.2
				l-6.3-0.6c0,0,2.6-6.3,1.7-8.3c-0.9-2.1,0.2-3.2,0.5-5.4c0.6-3.6,3.8-5.1,7.3-4.5C84.3,9.4,84.5,9.5,84.7,9.6z"/>
			<path class="st61" d="M92.3,5c-1.4-0.9-3.5-1.2-7.1,0.7c-2.3,1.3-5.1,1-7.6,1.5c-3.2,0.7-5,3-4.9,6.3c0.1,2.3,0.6,5,1.4,7.1
				c0.5,1.3,2,3.1,3.6,2.2c1.1-0.6,1.6-2.2,1.3-3.4c-0.3-1.4-1.9-2-1.4-3.7c0.1-0.3,0.3-0.7,0.6-0.8c0.7-0.3,0.9,0.7,1.1,1.1
				c0.2,0.4,0.6,2.3,1.2,2.3c2.4,0,1.3-4,2.2-5.3c0.8-1.1,2.8-1.4,4-1.7c1.6-0.4,3.3-0.6,4.8-1.5C92.4,9.5,93,8.8,93.3,8
				C93.7,6.9,93.3,5.7,92.3,5z"/>
		</g>
		<path class="st62" d="M77.1,26.2c-2-0.9-4.2-1-6.3-1.6c-2.6-0.7-6.9-1.6-10.1-1.1c-0.6,0-1.4,0-2.3,0.2c-2.5,0.5-5.8,3.7-7.8,6.1
			c0,0,0,0,0,0s0,0-0.1,0.1c-0.4,0.5-0.8,0.9-1.1,1.3c-0.9,1-2.2,2.3-3.5,3.2c-2.5,1.6-3.1,4.4-3.3,6c-0.1,0.4,0,0.7,0,0.9
			c0.2,0.7,0.7,0.8,0.7,0.8c-0.1,1.7,1.5,1.2,1.5,1.2c0.1,1.8,1.7,1.5,1.7,1.5c0.2,0.6,0.9,0.7,1.4,0.4c0.9-0.5,1.6-1.9,1.6-1.9
			s0.5,0.1,1.8,0c1.4-0.1-0.7-6.1-0.6-6.5c0,0,2.5-1.7,3.6-2.5c1.8-0.9,4.1-2.1,5.4-3.5c0.4-0.4,0.7-0.9,1-1.3
			c2.6,1.1,10.6,4.1,14.3,4.3c1,0.1,2.6-0.8,3.6-1.2C82.2,31.1,79.3,27.1,77.1,26.2z"/>
		<g>
			<path class="st62" d="M70.4,70.3C70.4,70.3,70.4,70.3,70.4,70.3c0,0-12.3,18.3-22.3,19.6c-10,1.4,3.9-31.7,10.3-34.1
				c4.5-2.8,10.3-1.4,13.1,3C73.7,62.6,73.2,67.3,70.4,70.3z"/>
			<path class="st139" d="M69.8,71.3c0,0-1.8,2.7-4.6,5.9"/>
			<g>
				<path class="st59" d="M41.7,87c0.1-0.2,2.1-6,4.6-5.1c2.5,0.9,11.1,4.4,7.7,7.7c-3.4,3.3-7.7,4.3-8.6,3.9
					C44.7,92.9,41.7,87,41.7,87z"/>
				<path class="st61" d="M42.5,85.1c2.5-1.4,9.2,0,8.3,3.8c-1.2,4.7-1.2,3.7-4.9,5.3c-3.7,1.6-9.7,4.3-11.5,4.2
					c-1.8-0.1-3.3-4.1-1.6-5.3c2.2-1.6,4.8-2.6,6.9-4.4c1.1-1,1.4-2.7,2.6-3.6C42.4,85.2,42.5,85.1,42.5,85.1z"/>
				<g>
					<path class="st59" d="M21.5,113.7c0,0-1.2,0.5-1.9,0.3c-0.7-0.3-4.3-3.2-4-5.5s1-1.5,1.1-1.1C16.8,107.9,22,113.3,21.5,113.7z"
						/>
					<g>
						<path class="st61" d="M14.9,96.1c0.2-1.6,1-2.9,2.2-3.8c1.4-1,3.3-1.3,5.3-0.8c2.3,0.6,5.3,1,7.5,0.2l7.9-4.5l1.1,2.3
							c0,0-7.5,4.3-7.6,4.3c-2.7,0.9-6.8,0.4-9.5-0.3c-1.4-0.3-2.6-0.2-3.5,0.5c-0.8,0.5-1.2,1.4-1.3,2.4c-0.2,1.6-0.2,3.3-0.2,4.9
							c0.1,2,0.4,4,1.1,5.9c0.7,1.8,1.8,3.6,3.5,4.5c0.5,0.2,1.1,0.6,1.1,1.2c0.1,0.6-0.5,1-1,1.1c-0.7,0.1-1.4-0.5-1.9-0.9
							c-0.4-0.3-0.8-0.6-1.1-1c-0.7-0.7-1.3-1.5-1.8-2.4c-1-1.7-1.5-3.7-1.8-5.7c-0.3-1.8-0.3-3.7-0.3-5.5c0-0.8,0.1-1.6,0.2-2.3
							C14.9,96.1,14.9,96.1,14.9,96.1z"/>
					</g>
				</g>
				<path class="st59" d="M45.9,94.3c-0.2-0.4-0.8-3.8-2.2-3.6c-1.4,0.3-1.1,1.8-0.6,3.2c0.5,1.4,0.5,1.4,0.5,1.4L45.9,94.3z"/>
				<path class="st59" d="M41.8,96c0,0-0.6-2.6-1.4-2.9c-0.8-0.3-1.7,0.5-1.3,1.7c0.4,1.2,0.7,2,0.7,2L41.8,96z"/>
			</g>
		</g>
		<g>
			<path class="st63" d="M57.7,53.3c0,0-5.9,9.5-7.8,12.9c-2,3.4,1,3.4,3,5c1.9,1.7,9.5,9,11.5,8.8c2-0.2,2.8-2.4,2.8-2.4
				s1.9,2.5,2.6,2.4c0.7-0.1,16.1-11,15.2-12.9c-0.9-1.9-9-10.6-9.2-11.4C75.6,54.8,57.7,53.3,57.7,53.3z"/>
		</g>
		<path class="st59" d="M75.8,24.4c0-0.1-5.5-1.5-8.9,4.3c-3.4,5.8-1.6,14.9-4.5,18.2c-2.8,3.3-6.7,6.8-4.7,6.4
			c2-0.4,17.7,6.3,19.6,5.6c1.9-0.7,8.9-18.7,7.5-25c-1.4-6.4-5.1-6.8-5.1-6.8S76.5,26.3,75.8,24.4z"/>
		<path class="st62" d="M104.3,28.5c-0.4-1.8-1.2-1.3-1.2-1.3c0.3-0.2,0.2-0.7,0.2-1c0-0.2-0.1-0.3-0.2-0.4
			c-0.1-0.1-0.6-0.3-0.6-0.3c0,0-0.5-1.6-1.1-1.4c0.2-0.1-0.2-0.6-0.3-0.6c-0.2-0.2-0.4-0.6-0.7-0.6c-0.3,0-0.5,0.3-0.6,0.5
			c-0.1,0.1-0.2,0.6-0.4,0.6c0,0-1.3,0.2-2.1,1.2c-0.8,1.1-1.6,3.5-1.3,4.3c0.3,0.8-0.9,3.3-0.9,3.3c-0.1,0.3-4.4,6.2-6.5,8
			c0,0,0,0,0,0c-0.3-0.7-0.5-1.2-0.6-1.5c-0.7-1.5-3.9-6.7-7.1-9.7c-0.8-0.7-1.7-1.5-2.7-1.9c-3.8-1.4-4.2,3.8-3,6.1
			c1,2.1,2.8,3.7,4,5.6c1.8,2.7,5.4,7.2,8.8,8.5c0.6,0.5,1.5,0.6,2.6,0.1c3.3-1.4,8.4-11.7,9.1-13.1c0,0,0.1,0,0.1-0.1
			C100.1,34.3,104.6,30.3,104.3,28.5z"/>
	</g>
	<g>
		<g>
			<path class="st89" d="M616.1,61.4c-0.2-0.9,0.5-2.6,0.7-3.5c0.9-3.5,4.9-1.2,6,0.8c1,1.8,1.3,3.9,2.1,5.8c1.3,3.1,3,8.8,1.6,11.8
				c-1,2.1-4-0.4-4.6-1.4C621.2,73.6,616.8,65.2,616.1,61.4z"/>
			<path class="st89" d="M622.8,72.5c0,0.5-1.2,2.1-1.2,5.5c0,3.4,2.8,8.5,2.7,8.8c0,0.3,4-0.7,4-0.7s0.9-9-1.5-12.1
				C624.5,70.8,622.7,71.3,622.8,72.5z"/>
			<g>
				<path class="st89" d="M624,87.9c-0.2,0.4-5.5,3.3-4.6,4.2c0.9,0.9,1.3,1.2,1.3,1.2s-0.4,1.4-0.1,2.3c0.2,0.5,0.7,0.9,1.3,0.6
					c0,0,0.9,1.2,2.1,0c0,0,0.8,1.3,1.8,0.1c0,0,0.4,0.3,1-0.1c0.2-0.1,0.4-0.3,0.6-0.6c0.8-1.3,2.2-3.6,1.5-6.3
					c-0.7-2.7-0.4-6.1-0.4-6.1s-5.8-0.4-5.6,0.1C623.1,83.7,624,87.9,624,87.9z"/>
				<path class="st140" d="M620.7,93.2c0.2,0.2,2.9,1,3.1,0.4c0.2-0.6-1.2-1.4-1.4-1.6c-0.2-0.1,0,0.2,1.1-0.6"/>
				<line class="st140" x1="621.9" y1="96.2" x2="622.6" y2="93.8"/>
				<path class="st140" d="M624,96.1c0,0,0.9-2.8,0.7-3.3c-0.2-0.5-0.3-0.9-1.4-0.2"/>
				<path class="st140" d="M625.8,96.2c0,0,0.9-3.3,0.3-3.9c-0.6-0.6-1.4,0-1.4,0"/>
				<path class="st140" d="M627.2,94.8c0,0,0.9-2.8-1-2.5"/>
			</g>
		</g>
		<g>
			
				<ellipse transform="matrix(0.1838 -0.983 0.983 0.1838 410.5878 694.9403)" class="st141" cx="623.8" cy="100.2" rx="16.2" ry="14.3"/>
			
				<ellipse transform="matrix(0.1839 -0.983 0.983 0.1839 410.5768 694.9363)" class="st142" cx="623.8" cy="100.2" rx="18.2" ry="16.1"/>
			<line class="st142" x1="613.2" y1="86.9" x2="634.5" y2="113"/>
			<line class="st142" x1="611.9" y1="112.6" x2="635.8" y2="87.3"/>
			
				<ellipse transform="matrix(0.1839 -0.983 0.983 0.1839 410.5697 694.9338)" class="st57" cx="623.8" cy="100.2" rx="10.8" ry="9.5"/>
			<path class="st57" d="M626.9,100.9c-0.4,1.9-2.1,3.2-3.8,2.9c-1.7-0.4-2.8-2.2-2.4-4.2c0.4-1.9,2.1-3.2,3.8-2.9
				C626.2,97.1,627.3,98.9,626.9,100.9z"/>
			<path class="st91" d="M626.4,100.8c-0.3,1.7-1.8,2.8-3.3,2.5s-2.4-1.9-2-3.5s1.8-2.8,3.3-2.5C625.8,97.5,626.8,99.1,626.4,100.8z
				"/>
			<path class="st2" d="M625.4,100.6c-0.2,1-1.1,1.7-2,1.5c-0.9-0.2-1.4-1.1-1.2-2.1s1.1-1.7,2-1.5C625,98.6,625.6,99.6,625.4,100.6
				z"/>
		</g>
		<path class="st61" d="M643.7,93.8c0,0,4.9,12.5,1.6,13.7s-6.6-2.6-8.5-3.7c-2-1-44.6-3.2-44.6-3.2l1.6,0.7c0,0,9.9,0.8,11.3,1.1
			c1.4,0.3,1.2,1.5,0.2,1.4c-1-0.1-13.8-1.4-13.8-1.4l-7.1-2c0,0-8.2-0.2-9.5,0.7c-1.3,1-16.7,7.6-16.7,7.6l-1.2-2.5l15.2-6.3
			c0,0,7.9-8.2,9.2-8.2c1.2,0,1.8,0.8,1.8,0.8c4.8,0.2,9.6,0.5,14.4,0.7c0.8,0,1.6,0.1,2.5,0.1c1,0,2.3-0.1,3,0.6
			c0.8,0.7,0.4,1.4-0.5,1.6c-2.1,0.5-17.3-0.6-17.3-0.6l0.7,1.2l38.7,1.3C624.7,97.4,639.8,90,643.7,93.8z"/>
		<path class="st59" d="M645,74.6c0,0,4.9,7,3.7,14.3c-1.2,7.3-10.5,12.1-16,10.1c-5.5-2-19.4-8.6-18.3-11.6c1.1-3,2-1.7,11-4.8
			c0.6-0.2,2-0.5,2.1-2.1C627.5,78.8,645,74.6,645,74.6z"/>
		<g>
			<g>
				<path class="st62" d="M611.4,38.6c-1,0.5-1.7,1.7-1.9,2.8c-0.3,1.3,0.4,3.1-0.4,4.3c-0.3,0.5-1.1,0.5-1.6,0.7
					c-2.4,0.6-3.3,1-2.8,1.4c0.4,0.4,4.6,0.9,5,1.6c0.4,0.6,1.3,4.1,1.8,4.5c0.5,0.4,2.9-0.4,3.5,0.1c0.5,0.4,1.5,3.2,1.5,3.2l6.3-1
					c0,0-3-6.1-2.3-8.2c0.7-2.1-0.4-3.2-0.9-5.4c-0.8-3.5-4.2-4.8-7.6-4.1C611.8,38.4,611.6,38.5,611.4,38.6z"/>
				<path class="st61" d="M610.9,42.3c-1.9-0.5-3.8-1.8-1.9-4.7c1.2-1.8,4.4-1.9,6.4-1.8c4,0.2,7.7,2,8.1,6.4
					c0.2,2-0.3,11.2-4.3,9.3c-1.2-0.6-1.7-2.1-1.6-3.3c0.2-1.4,1.7-2.2,1.1-3.8c-0.1-0.3-0.3-0.6-0.7-0.7c-0.7-0.2-0.9,0.7-1,1.2
					c-0.2,0.4-0.5,2.3-1.1,2.3c-2.2,0.2-1.2-3.7-1.2-3.7S612.8,42.8,610.9,42.3z"/>
			</g>
			<path class="st58" d="M620.7,51.6c0-0.1,5-2.7,9.7,2.1c4.7,4.8,5.1,14.1,8.6,16.6c3.5,2.5,8.1,5,6.1,5.1
				c-2,0.1-15.7,10.3-17.7,10.1c-2-0.2-13.1-16-13.2-22.5s3.3-7.9,3.3-7.9S620.5,53.6,620.7,51.6z"/>
		</g>
		<path class="st63" d="M647.2,77.1c0,0,4.6,7.9,1.6,13.9c-3,6-7.7,9.8-15.4,9c-7.7-0.8-17.8-5.3-16.4-7.4s6.1-6.5,12-7.4
			C634.9,84.2,644.9,75.8,647.2,77.1z"/>
		<g>
			
				<ellipse transform="matrix(0.9797 -0.2006 0.2006 0.9797 -7.0774 131.5413)" class="st141" cx="645.4" cy="100.7" rx="16.3" ry="18.2"/>
			
				<ellipse transform="matrix(0.9797 -0.2007 0.2007 0.9797 -7.077 131.5507)" class="st142" cx="645.4" cy="100.7" rx="18.2" ry="20.4"/>
			<line class="st142" x1="657.4" y1="85.8" x2="633.3" y2="115"/>
			<line class="st142" x1="658.9" y1="114.6" x2="631.8" y2="86.2"/>
			
				<ellipse transform="matrix(0.9797 -0.2006 0.2006 0.9797 -7.0772 131.5459)" class="st57" cx="645.4" cy="100.7" rx="10.8" ry="12.1"/>
			<path class="st57" d="M641.9,101.4c0.4,2.2,2.4,3.6,4.3,3.2c1.9-0.4,3.2-2.5,2.7-4.7c-0.4-2.2-2.4-3.6-4.3-3.2
				C642.7,97.1,641.4,99.2,641.9,101.4z"/>
			<path class="st91" d="M642.4,101.3c0.4,1.9,2,3.1,3.7,2.8c1.7-0.3,2.7-2.1,2.3-4c-0.4-1.9-2-3.1-3.7-2.8
				C643.1,97.7,642,99.4,642.4,101.3z"/>
			<path class="st2" d="M643.6,101.1c0.2,1.1,1.2,1.9,2.2,1.7s1.6-1.3,1.4-2.4c-0.2-1.1-1.2-1.9-2.2-1.7
				C644,98.9,643.4,99.9,643.6,101.1z"/>
		</g>
		<g>
			<path class="st62" d="M629.7,54.3c1.8,1.4,3.1,3.4,4.7,5c2.2,2.1,5.4,5.9,6.5,9.3c0.1,0.1,0.1,0.1,0.2,0.2
				c2.3,3.1,1.3,16.1,1.3,16.1s-5.1-0.3-5-0.6c0-0.3-0.6-7.6-1.7-10.2c-0.3-0.9-0.4-1.7-0.4-2.4c-2.2-2.1-8.7-9.2-10.8-12.5
				c-0.6-0.9-1.2-1.9-1.3-3C622.5,52.1,627.7,52.7,629.7,54.3z"/>
			<path class="st58" d="M636.5,87.5c0.3-0.3,0.6-1.2,0.7-2c-0.3-0.2-0.4-0.5-0.4-0.9c0-0.7,0.5-1.2,1.2-1.2h4.1
				c0.7,0,1.2,0.5,1.2,1.2c0,0.4-0.2,0.8-0.6,1c0.5,1.8,1.6,5.9,0.6,7c-1.3,1.4-1.7,0.5-1.7,0.5c0.1,0.3-0.2,0.8-0.4,1
				c-0.1,0.1-0.2,0.2-0.4,0.3c-0.1,0-0.6-0.1-0.7-0.1c0,0-1.2,1.2-1.7,0.6c0.1,0.1-0.5,0.4-0.6,0.4c-0.3,0.1-0.6,0.3-0.9,0.1
				c-0.3-0.2-0.3-0.5-0.3-0.8c0-0.1,0.1-0.6,0-0.7c0,0-1.1-0.8-1.2-2.1C635.4,90.6,635.9,88.1,636.5,87.5z"/>
		</g>
		<g>
			<g>
				<path class="st63" d="M609.1,41.9c0.6,0,1.4,0,2.9,0.3c1.5,0.3,4.1,0.6,4.2,1.5c0.1,0.9,0.6,4.1-0.2,6.3
					c-0.8,2.2-2.6,3.9-2.6,3.9s1.1,0.8,1.6,0.5c0.5-0.2,3-5.4,3.5-5.8c0.5-0.4,3-3.4,3.5-3.4c0.5,0,2.4,0.1,2.3-1.4
					c0,0-5.2-3.8-6.8-4.1c-1.6-0.3-8.3-0.1-9-0.1C607.7,39.7,608.4,41.9,609.1,41.9z M617.1,42.1c0-1.4,0.2-1.6,0.4-1.6
					s3.8,2.8,3.8,2.8l-4.3,4.8C617.1,48.1,617.1,42.4,617.1,42.1z"/>
			</g>
			<path class="st63" d="M627,37.5c0,0-4.2-3.9-8.3-4.6s-9.9-0.1-11.7,5.9c0,0,0.7,1.2,1.4,1.4c0.7,0.2,6.3-1,8.3,0.3
				c2,1.4,5.5,3.7,6.3,3.6c0.8-0.1,3.4-0.2,2.9-1.2c-0.5-1-1.4-1.6-0.6-1.9c0.9-0.3,2.3-0.5,1.2-1.2C625.4,39,628,37.9,627,37.5z"/>
			<path class="st61" d="M619,36.8c0,0-4.1-1.8-8.7,0.4c0,0-0.8,0.7,1.3,0.9c2.1,0.1,7.3-0.5,7.7-1.1"/>
			<path class="st61" d="M627.1,38c0,0-3-2.7-6.5-2.6c-3.6,0,4.1,0.8,6,3.3L627.1,38z"/>
			<path class="st61" d="M625.3,39.3c-0.3,0-3.4-1.6-6.8-0.6c-3.4,1,5.1,1.2,6,1.6S626.4,39.5,625.3,39.3z"/>
			<path class="st61" d="M619.9,34.2c0,0-8-1.4-12.8,4.5c0,0,4.1-7.7,13.1-4.6"/>
		</g>
		<g>
			
				<ellipse transform="matrix(0.9727 -0.2321 0.2321 0.9727 -9.5034 132.5192)" class="st141" cx="558.4" cy="106.6" rx="12.4" ry="12.4"/>
			<circle class="st142" cx="558.4" cy="106.6" r="14.3"/>
			<line class="st57" x1="562.2" y1="92.6" x2="555.4" y2="120.6"/>
			<line class="st57" x1="544.8" y1="102.4" x2="572.1" y2="110.8"/>
			<path class="st57" d="M552.2,93.8c0.1,0,12.3,25.8,12.3,25.8"/>
			<line class="st57" x1="570" y1="98.3" x2="546.8" y2="115"/>
			<path class="st57" d="M555.2,106.6c0,1.7,1.4,3.1,3.1,3.1c1.7,0,3.1-1.4,3.1-3.1c0-1.7-1.4-3.1-3.1-3.1
				C556.6,103.5,555.2,104.9,555.2,106.6z"/>
			<circle class="st91" cx="558.3" cy="106.6" r="2.7"/>
			<path class="st2" d="M557,106.6c0,0.7,0.6,1.3,1.3,1.3c0.7,0,1.3-0.6,1.3-1.3c0-0.7-0.6-1.3-1.3-1.3
				C557.6,105.2,557,105.8,557,106.6z"/>
		</g>
	</g>
	<g>
		<g>
			<g>
				<path class="st62" d="M245.4,37.7c2.4,3.8,7,2.1,8,0.8c1-1.4-0.1-8.2-0.3-10.1c-0.2-1.8-2-3.1-2-3.1c-2.7,3-8.8-2.7-8,8.8
					c0,0-0.7-3-2.3-2.2c-1.6,0.8-0.2,3.8,1.4,4l0.7,9.3l7.2-0.4l-0.3-4.7"/>
				<path class="st62" d="M250.8,29.5c0,0,1.8,3.3,4.4,3.8c2.6,0.5-3.1,1.2-3.3,1.6"/>
			</g>
			<path class="st61" d="M243.7,22.2c4.2-0.7,15-0.7,13.9,3.1c-1.4,4.5-8.2,2.5-8.2,2.5s-5.7-1.4-4.6,0.7c1.1,2.1-0.1,4.7-0.5,6.1
				c-0.2,0.8-1.2,0.5-1.4-0.1c-0.2-0.7-1-2.9-2-2.2c-0.3,0.2-0.4,0.7-0.4,1.1c0,0.4,0.1,0.8,0.3,1.1c0.3,0.6,1,1.3,1.7,1
				c0.1,0.6,0.2,1.3,0.2,1.9c0,0.4,0,1.2-0.6,1.3c-1.1,0.2-2.1-1.9-2.4-2.7c-1-2.1-1.5-4.8-1.6-7.2c0-2.1,0.7-4,2.9-4.4
				c0,0,0.2-0.6,0.2-0.6c0.2-0.5,0.6-1,1.2-1.2C242.6,22.5,243.1,22.4,243.7,22.2z"/>
		</g>
		<g>
			<path class="st62" d="M267.8,68.6c0.4-0.3,0.7-0.7,0.5-1.1c-0.4-1.1-1.4-0.7-1.4-0.7l0,0c0-0.2,0.1-0.4,0.1-0.7
				c0.2-1.1-5-0.5-5.4-0.6c0,0-1.5-3.4-1.6-3.9c0-0.1-0.2,0-0.5,0.1c-0.4-1.7-1.1-3.9-2.1-5.2c-1.8-2.4-3.4-2.8-3.7-3.2
				c-0.5-0.9-2.1-0.3-2.1,3.1c-0.1,3.4,5.2,9.3,5.2,9.3s0,0,0.1-0.1c0.6,0.9,1.4,2.1,1.9,3.3c0.3,0.7,0.7,1.3,1.1,1.7l-0.5,0.3
				c-0.5,0.1,0.4,1.4,0.7,1.3c0.1,0,0.7-0.3,1.1-0.6c0.7,0.4,1.3,0.7,1.8,0.9c0.3,0.1,0.6,0.2,0.8,0.2c0.6,0,0.8-0.4,0.8-0.4
				c1.3,0.4,1.2-1,1.2-1c1.5,0.2,1.5-1.1,1.5-1.1c0.6-0.1,0.7-0.6,0.6-1.1C268,68.9,267.9,68.8,267.8,68.6z"/>
			<path class="st58" d="M257.6,55.3c0,0,0.3-14.7-4.7-14.2c-5,0.5-7,15.8-7,15.8S257.6,56.9,257.6,55.3z"/>
			<g>
				<polyline class="st143" points="268.9,115 259,69.1 250.3,60.8 				"/>
				<path class="st59" d="M250.1,63l-0.6-0.6c-0.6-0.6-0.7-1.6-0.1-2.3v0c0.6-0.6,1.6-0.7,2.3-0.1l0.6,0.6c0.6,0.6,0.7,1.6,0.1,2.3
					l0,0C251.7,63.5,250.7,63.6,250.1,63z"/>
				<path class="st59" d="M258.2,58.1l-3.7,3.3c-0.7,0.6-1.7,0.5-2.2-0.1l-1.7-1.9c-0.6-0.7-0.5-1.7,0.1-2.2l3.7-3.3
					c0.7-0.6,1.7-0.5,2.2,0.1l1.7,1.9C259,56.5,258.9,57.5,258.2,58.1z"/>
				<path class="st59" d="M257.9,72.3l-0.2-0.8c-0.2-0.8,0.3-1.7,1.1-1.9l0,0c0.8-0.2,1.7,0.3,1.9,1.1l0.2,0.8
					c0.2,0.8-0.3,1.7-1.1,1.9l0,0C259,73.7,258.1,73.2,257.9,72.3z"/>
				<path class="st59" d="M267.3,115.3l-0.2-0.8c-0.2-0.9,0.4-1.7,1.3-1.9l0,0c0.9-0.2,1.7,0.4,1.9,1.3l0.2,0.8
					c0.2,0.9-0.4,1.7-1.3,1.9l0,0C268.3,116.8,267.5,116.2,267.3,115.3z"/>
				<path class="st59" d="M266,108.3l-0.1-0.4c-0.1-0.6,0.3-1.2,0.9-1.3l0.6-0.1c0.6-0.1,1.2,0.3,1.3,0.9l0.1,0.4
					c0.1,0.6-0.3,1.2-0.9,1.3l-0.6,0.1C266.7,109.3,266.1,108.9,266,108.3z"/>
			</g>
		</g>
		<g>
			<path class="st63" d="M259.2,95c0,0-4.6-0.4-5.2-1.4c-0.2-4.8-6-22.6-2.9-23.6c3.2-1,13.4-3.5,14.7,2.8c0,0,4.8,10.2,1,22
				C265.8,95.6,259.2,95,259.2,95z"/>
		</g>
		<g>
			<g>
				<path class="st124" d="M265.1,69.5c0,0-5.1-10.5-7.6-19.8c-1.5-5.6-2.8-7.6-4.3-8.3c-1-0.5-2.8-0.5-2.8-0.5s-0.7,1.2-3.5,2
					c-2.8,0.9-4,0.3-4,0.3s-5.1,2.3-6.8,6.2c-3,5.8,1.3,21.7,1.6,24.7C237.9,77.2,259,87.3,265.1,69.5z"/>
			</g>
			<path class="st56" d="M243.7,44.3c0,0,2.7,4.1,3,4.2c0.3,0.1,1.5-5.5,1.5-5.5l3.9,3.5l-0.7-5.3"/>
			<path class="st32" d="M249.2,45.4c0.2,0,0.4,0.2,0.5,0.4c0,0.2-0.2,0.4-0.4,0.4c-0.2,0-0.4-0.2-0.5-0.4
				C248.8,45.6,249,45.4,249.2,45.4z"/>
			<path class="st32" d="M250,47.9c0.2,0,0.4,0.2,0.5,0.4c0,0.2-0.2,0.4-0.4,0.4c-0.2,0-0.4-0.2-0.5-0.4
				C249.5,48.2,249.7,48,250,47.9z"/>
		</g>
		<g>
			<path class="st62" d="M246.4,75.4c0,0,20.5-2.2,27-0.7c6.5,1.5,12.9,26.4,12.9,26.4s-2.7,2.7-4.3,2.8c-1.6,0.1-12.6-13.4-12-20.7
				c-4.6,0.7-22,6.9-26.1,2.9C239.7,82.1,240.4,77.8,246.4,75.4z"/>
			<g>
				<path class="st144" d="M297,96.3c0,0,3.2,1-5.1,9.3c-8.3,8.4-8.8,0.9-8.8,0.9s11.1-10.3,13.7-10.1"/>
				<path class="st61" d="M281.8,105.4c0.1,0.5,0.3,0.9,0.6,1.5c0.6,1,1.9,3.1,3.4,2.3c0,0,10.9-12.1,11-12.2
					c0.6-0.6-0.1-1.1-0.7-1.3c-0.8-0.3-1.8-0.1-2.6,0.1c-1,0.3-1.9,0.9-2.9,1.3c-1.1,0.5-2.1,1-3.1,1.6c-1.6,0.9-3.2,1.8-4.4,3.2
					c-0.6,0.7-1.1,1.6-1.3,2.6C281.8,104.9,281.8,105.2,281.8,105.4z"/>
			</g>
			<path class="st63" d="M246.3,74.7c6-3.7,27-1.2,27.4-0.9c0.2,0.1-0.9,0.9-1,0.9c-1.8,1.4-2.9,3.5-3.4,5.7c-0.1,0.5-0.5,6-0.5,6
				c-5.5,0.7-20.7,6.7-25.5,0.7c-3-4-3.2-10.7-3.2-10.7S240.5,77.7,246.3,74.7z"/>
		</g>
		<g>
			<path class="st91" d="M229.4,77l6.6-3l0.7,1.5c0,0-6.1,3.7-6.6,3.4C229.6,78.6,229.4,77,229.4,77z"/>
			<path class="st62" d="M238.8,54.6c0.9-0.6,1.8-1.3,2.4-2.2c2.2-3.4-2.7-5-5.2-4.4c-2.3,0.5-4.2,1.8-6.4,2.6
				c-3.1,1.1-8.2,3.6-10.3,6.5c-0.6,0.5-1,1.3-0.7,2.5c0.6,3.6,9.4,10.9,10.6,11.9c0,0,0,0.1,0.1,0.1c0.4,0.6,3.3,5.9,5.1,6
				c1.9,0.1,1.5-0.8,1.5-0.8c0.1,0.3,0.7,0.4,1,0.4c0.2,0,0.3,0,0.5-0.1c0.1-0.1,0.4-0.5,0.4-0.5c0,0,1.7-0.1,1.6-0.8
				c0,0.2,0.6-0.1,0.7-0.1c0.3-0.1,0.6-0.2,0.7-0.6c0.1-0.3-0.2-0.5-0.4-0.7c-0.1-0.1-0.5-0.4-0.5-0.5c0,0,0-0.1,0-0.2l1.3-0.7
				c0,0-0.1-1.1-0.7-1.3c-0.2-0.1-0.6,0-1.1,0.2c-0.1-0.1-0.2-0.2-0.2-0.4c-0.8-1-3-2.4-3.9-2.3c-0.8,0.1-3-1.6-3-1.6
				c-0.2-0.2-5.1-5.7-6.2-8.2c0,0,0,0,0,0c0.7-0.1,1.3-0.2,1.6-0.3C229.4,58.9,235.2,57,238.8,54.6z"/>
			<g>
				<path class="st124" d="M227.2,55.4c-0.8-1.4-2-3.7-1.8-3.8c0,0,2.3-1.4,3.4-2.1c2.7-1.9,5.7-3.5,8.6-4.5
					c2.8-0.9,5.4,0.2,6.1,2.9c1.5,6.4-7.2,10.8-11.6,13.2c-1.6-1.3-2.9-2.9-4.1-4.7C227.8,56.3,227.5,55.9,227.2,55.4z"/>
			</g>
			<g>
				<polyline class="st143" points="237.5,121.6 229.1,75.4 220.7,66.7 				"/>
				<path class="st59" d="M220.4,68.9l-0.6-0.6c-0.6-0.6-0.6-1.6,0-2.3l0,0c0.6-0.6,1.6-0.6,2.3,0l0.6,0.6c0.6,0.6,0.6,1.6,0,2.3
					l0,0C222,69.5,221,69.5,220.4,68.9z"/>
				<path class="st59" d="M228.7,64.3l-3.8,3.2c-0.7,0.6-1.7,0.5-2.2-0.2l-1.6-2c-0.6-0.7-0.5-1.7,0.2-2.2l3.8-3.2
					c0.7-0.6,1.7-0.5,2.2,0.2l1.6,2C229.5,62.8,229.4,63.8,228.7,64.3z"/>
				<path class="st59" d="M227.9,78.5l-0.2-0.8c-0.2-0.9,0.4-1.7,1.2-1.9l0,0c0.9-0.2,1.7,0.4,1.9,1.2l0.2,0.8
					c0.2,0.9-0.4,1.7-1.2,1.9l0,0C229,79.9,228.1,79.4,227.9,78.5z"/>
				<path class="st59" d="M235.9,121.9l-0.1-0.8c-0.1-0.9,0.4-1.7,1.3-1.8l0,0c0.9-0.1,1.7,0.4,1.8,1.3l0.1,0.8
					c0.1,0.9-0.4,1.7-1.3,1.8l0,0C236.9,123.3,236,122.7,235.9,121.9z"/>
				<path class="st59" d="M234.8,114.8l-0.1-0.4c-0.1-0.6,0.3-1.2,0.9-1.3l0.6-0.1c0.6-0.1,1.2,0.3,1.3,0.9l0.1,0.4
					c0.1,0.6-0.3,1.2-0.9,1.3l-0.6,0.1C235.5,115.8,234.9,115.4,234.8,114.8z"/>
			</g>
		</g>
		<g>
			<path class="st59" d="M287.5,80c1.1,3.7,4.5,6.3,8.5,6.3c0.8,0,1.6-0.1,2.4-0.3l0.3-0.8c1.5-0.2,3.2-1.9,3.2-1.9l0.6,0.1
				c1.4-1.6,2.3-3.7,2.3-6c0-2.4-1-4.7-2.6-6.3h-0.4c0,0-2.7-1.6-3.7-1.7c0,0-0.1-0.3-0.3-0.7c-0.6-0.1-1.3-0.2-2-0.2
				c-4.1,0-7.5,2.7-8.5,6.4l0.4,0.7c0,0-0.3,2.3,0,3.5l-0.2,0.8H287.5z M299.6,75.2l2.7-1.1c0.7,0.3,1.8,3.1,1.8,3.1
				c-0.1,0.8-1.6,3.1-1.6,3.1l-2.9-1.2V75.2z M290.4,81.3l2.4-1.8l3.5,1.9l-0.4,2.9c0,0-2.6,0.3-3.4,0
				C292.5,84.3,291.3,83.5,290.4,81.3z M290.2,73.6c0,0,1.3-2.8,1.9-3c0,0,2.3-0.4,3.5-0.3l0.4,3l-3.2,1.9L290.2,73.6z"/>
			<path class="st61" d="M292.1,70.6c0,0,2.3-0.4,3.5-0.3l0.4,3l-3.2,1.9l-2.6-1.6C290.2,73.6,291.5,70.8,292.1,70.6z"/>
			<path class="st61" d="M304.1,77.3c-0.1,0.8-1.6,3.1-1.6,3.1l-2.9-1.2v-4l2.7-1.1C303,74.4,304.1,77.3,304.1,77.3z"/>
			<path class="st61" d="M296.3,81.4l-0.4,2.9c0,0-2.6,0.3-3.4,0c0,0-1.2-0.8-2-3l2.4-1.8L296.3,81.4z"/>
			<path class="st61" d="M287.8,79.2l-0.2,0.8h-0.2c-0.2-0.8-0.4-1.7-0.4-2.6c0-0.8,0.1-1.7,0.3-2.4l0.4,0.7
				C287.8,75.7,287.5,78,287.8,79.2z"/>
			<path class="st61" d="M298.2,69.5c0,0-0.1-0.3-0.3-0.7c1.7,0.4,3.1,1.2,4.3,2.4h-0.4C301.9,71.2,299.1,69.6,298.2,69.5z"/>
			<path class="st61" d="M301.9,83.3l0.6,0.1c-1.1,1.2-2.5,2.1-4.2,2.6l0.3-0.8C300.1,85,301.9,83.3,301.9,83.3z"/>
		</g>
	</g>
	<g>
		<g>
			<path class="st62" d="M776.2,24.7c0,0-0.7,1.6-1.8,3.6c0,0,0,0,0,0c0,0,0,0,0,0c-1.7,3.4-4.3,8-5.9,9c-2.6,1.7-12.6,7.6-14.4,8.8
				c-1.8,1.2-4.4,5.4-4.4,5.4s1.5-6.9-2.4-12.7c-1.2-1.6-1.7-1.4-2-1.6c1.1-0.4,4.6-1.5,8-1.5l8.7-4.2l9.9-9.6
				c0.6-0.8,1.2-1.8,1.6-2.7c1.2-2.7,3.9-3.8,5.4-4.4c0.4-0.1,0.7-0.2,0.9-0.1c0.7,0.1,0.9,0.6,0.9,0.6c1.7-0.4,1.5,1.3,1.5,1.3
				C784,16.4,784,18,784,18c0.7,0.1,0.9,0.8,0.7,1.4c-0.4,0.9-1.7,1.9-1.7,1.9s0.1,0.5,0.3,1.8c0.2,1.4-6.2,0.3-6.6,0.5L776.2,24.7z
				"/>
			<g>
				
					<ellipse transform="matrix(0.3805 -0.9248 0.9248 0.3805 465.2455 732.7025)" class="st59" cx="779.5" cy="19.1" rx="1.9" ry="48.9"/>
				<path class="st61" d="M773.9,19.5l5.8,2.4c0.9,0.4,1.9-0.1,2.2-0.9l0.5-1.2c0.4-0.9-0.1-1.9-0.9-2.2l-5.8-2.4
					c-0.9-0.4-1.9,0.1-2.2,0.9l-0.5,1.2C772.6,18.1,773.1,19.1,773.9,19.5z"/>
			</g>
			<path class="st62" d="M776.4,21.6c0.1-0.1,0.7-2.4,3.2-2c2.5,0.4,2.7,1.8,4.1,1.1c1.4-0.6,5.4-0.6,2.3,1.2
				c-3.1,1.7-2.2,2-4.7,1.9C778.7,23.7,776.2,22.1,776.4,21.6z"/>
			<polygon class="st89" points="776.4,20.6 781.7,22.7 781.9,23.8 779.6,23.7 777.9,23.6 775.5,21.8 			"/>
		</g>
		<g>
			<path class="st62" d="M742.9,18.6c-1.2,0-2.3,0.7-3.1,1.5c-0.9,1-1.2,2.9-2.4,3.6c-0.5,0.3-1.2,0-1.7-0.2
				c-2.4-0.6-3.4-0.7-3.2-0.2c0.2,0.6,3.6,3.1,3.6,3.8c0.1,0.8-0.9,4.2-0.6,4.8c0.3,0.7,2.8,1.1,3,1.8c0.3,0.7-1.2,3.1-1.2,3.1
				l6.6,2.3c0,0,0.8-6.7,2.4-8.1c1.7-1.5,1.2-3,1.9-5.2c1-3.5-1.3-6.3-4.6-7.2C743.3,18.6,743.1,18.6,742.9,18.6z"/>
			<path class="st61" d="M743.5,33.6c-1.3-0.3-0.5-2.6,0.2-3.7c0.8-1.2,2.6-1,2.8-2.7c0.1-0.3,0-0.7-0.2-1c-0.5-0.5-1.1,0.2-1.5,0.5
				c-0.4,0.3-1.5,1.8-2.1,1.5c-2.2-1,0.6-4.2,0.3-5.8c-0.2-1.4-2.3-0.5-3.3-1.3c0,0-0.4-1.5,2.6-1.7c0,0-6.3,1.1-5.6,0
				c0.7-1.1,4.3-1.5,4.3-1.5s-5,0.5-4.5-1.4c0.6-1.9,7.9-0.5,8.8,0.7c0.1,0.2,1.9,1,2.2,1c1.3,0.3,2.5,0.9,3.5,1.7
				c3.2,2.9,1.7,8.8-0.6,11.8c-1.2,1.5-2.7,2.7-4.4,3.4c-0.6,0.2-2,1-2,0c0-0.5,0.8-1.1,1.1-1.4C745.1,33.8,744.6,33.9,743.5,33.6z"
				/>
		</g>
		<g>
			<g>
				<path class="st62" d="M720.3,89.4c0.4-7.9,8-19.2,8-19.2s0,0,0,0c1.4-2.9,4.7-4.7,8.2-4.1c4.2,0.7,7,4.6,6.3,8.7
					c0.1,3.7-9.5,14.2-16.1,18c0.3,0.9,0.5,1.9,0.7,3.1c0.9,7.6-13.4,18.9-15.6,21c-1.4-0.3-2.8-0.9-4.1-1.6
					C712,103.7,718.1,93.1,720.3,89.4z"/>
				<g>
					<path class="st61" d="M714.8,113.7c0-0.1-0.1-0.2-0.1-0.3c-0.2-0.3-0.5-0.4-0.8-0.4c-0.3,0-0.8-0.1-1.1,0.1
						c-0.3,0.1-0.5,0.4-0.7,0.6c-0.3,0.3-0.7,0.6-1.1,0.8c-0.6,0.3-1.4,0.6-2.1,0.6c-1,0-0.7-0.9-1.4-0.2c-0.7,0.8-3.8,3.6-5,3.6
						c-1.2,0-3.1-0.3-3.3,1.3c-0.3,1.5,2.7,3.4,4.8,3.4c2.1,0.1,5.3-0.8,6-0.4c0.7,0.3,6.4-0.1,6.8-2c0.3-1.3-0.5-2.6-1.2-3.6
						c-0.3-0.4-0.7-0.9-0.8-1.4c-0.1-0.3-0.1-0.6-0.1-0.9C714.6,114.4,714.9,114.1,714.8,113.7z"/>
					<path class="st145" d="M716.7,119.7c0,0.2-0.8,1.2-2.4,1.5c-1.4,0.3-2.9,0.4-4.3,0.5c-0.7,0-1.5,0.1-2.2,0.1
						c-0.7,0.1-1.4,0.2-2.1,0.2c-1.2,0-2.5,0-3.6-0.5c-1.1-0.5-2.4-1.1-2.8-2.3"/>
					<path class="st145" d="M705.1,116.9c0,0,1.2,0.2,1.7,1"/>
					<path class="st145" d="M706.1,116.2c0,0,1.2-0.4,1.8,0.5"/>
				</g>
			</g>
			<g>
				<path class="st62" d="M735.9,73.8c2.5-3.4,7.2-4.2,10.6-1.8c2.9,1.3,7.2,11.3,8.6,19c0.2-0.1,0.4-0.1,0.6-0.2
					c7.4-2,20.7,10.5,23,12.3c0,1.5-0.5,2.9-0.9,4.3c-10-2.2-19.6-5.7-24.8-7.7c-0.2,0-0.3,0-0.5,0c-7.8-1.6-16.4-16.7-16.4-16.7
					s0,0,0,0C734,80.3,733.8,76.6,735.9,73.8z"/>
				<g>
					<path class="st61" d="M776,100.7c-0.2,0.1-0.4,0.3-0.5,0.6c-0.2,0.5-0.1,1.2,0.4,1.5c1.2,1,1.8,2.5,1.8,3.4s-1,0.7-0.2,1.4
						c0.7,0.7,3.4,3.9,3.3,5.1c-0.1,1.2-0.4,3,1.1,3.4c1.5,0.3,3.5-2.5,3.6-4.7c0.1-2.1-0.6-5.3-0.2-6c0.4-0.7,0.1-6.4-1.8-6.9
						c-1.3-0.3-2.6,0.4-3.6,1.1c-1,0.6-1.9,1.1-3.2,1C776.5,100.6,776.2,100.6,776,100.7z"/>
					<path class="st145" d="M782.6,98.6c0.2,0,1.1,0.9,1.4,2.5c0.3,1.4,0.3,2.9,0.3,4.3c0,0.7,0,1.5,0,2.2c0,0.7,0.2,1.4,0.2,2.1
						c0,1.2-0.1,2.5-0.6,3.6c-0.5,1.1-1.2,2.3-2.4,2.7"/>
					<path class="st145" d="M779.4,110.1c0,0,0.2-1.2,1-1.6"/>
					<path class="st145" d="M778.7,109.1c0,0-0.3-1.3,0.6-1.8"/>
				</g>
			</g>
			<path class="st63" d="M748.9,71.2l5.1,14.2l-12.4,6.8l-5-7.3l-4.9,5.2l-11.1-6.2c0,0,5.7-14,9.4-16.8
				C733.9,64.4,747.8,63.1,748.9,71.2z"/>
		</g>
		<g>
			<g>
				<g>
					<path class="st124" d="M724.5,72.1c1.2-3.7,1.6-6,2.4-9.6c1.6-7.9,0.1-12.4,2.4-18.5c2.2-6.1,8.4-7.9,8.4-7.9s0.2,1,3.5,2
						c3.3,0.9,2.9-0.9,2.9-0.9s5.5,0.4,6.5,2.8c1,2.4,0.1,8.2-0.5,10.2c-0.6,2,3,22.8-0.2,24.6c-3.2,1.9-8.6,1.9-14.8,0
						C729,72.9,727.3,74.1,724.5,72.1z"/>
				</g>
			</g>
		</g>
		<g>
			<g>
				<path class="st62" d="M725.2,48.3c1.9-0.8,3.5-2.4,5-3.7c1-0.9,1.9-1.7,2.9-2.5c1-0.9,1.9-1.8,3.1-2.5c1.4-0.8,2.8-1,4.4-0.8
					c1.3,0.2,2.8,0.9,3.3,2.1c0.3,0.8,0.3,1.7,0,2.5c-0.6,2-2.3,3.8-3.7,5.2c-1.5,1.5-3.1,2.8-4.8,4c-1.2,0.9-2.5,1.8-3.9,2.5
					c-4.5,2.5-9.8,2.7-14.7,1.2c-0.8-0.2-1.6-0.5-2.4-0.9c-0.8-0.3-1.5-0.7-2-1.4C709.6,49.7,723.4,49,725.2,48.3z"/>
			</g>
			<path class="st59" d="M722.6,48.8c0,0,2.8,7.3,0.6,8.5s-12.6-1-12.4-4.5C711,49.4,722.6,48.8,722.6,48.8z"/>
		</g>
	</g>
	<g>
		<g>
			<g>
				<g class="st146">
					<g class="st146">
						<defs>
							<path id="SVGID_21_" class="st146" d="M1037.8,93.2l0.8,0.6c0.9-1.4,1.9-2.6,2.8-3.5s1.7-1.5,2.2-1.5l-0.8-0.6
								c-0.5,0-1.3,0.6-2.2,1.5C1039.7,90.6,1038.7,91.8,1037.8,93.2z"/>
						</defs>
						<use xlink:href="#SVGID_21_"  style="overflow:visible;fill:#2A3F55;"/>
						<clipPath id="SVGID_2_">
							<use xlink:href="#SVGID_21_"  style="overflow:visible;"/>
						</clipPath>
						<g class="st147">
							<path class="st61" d="M1037.8,93.2l0.8,0.6c0.3-0.4,0.5-0.8,0.8-1.2l-0.8-0.6C1038.3,92.4,1038.1,92.8,1037.8,93.2"/>
							<path class="st61" d="M1038.6,92l0.8,0.6c0.2-0.3,0.4-0.5,0.6-0.7l-0.8-0.6C1039,91.5,1038.8,91.8,1038.6,92"/>
							<path class="st61" d="M1039.2,91.3l0.8,0.6c0.1-0.2,0.3-0.3,0.4-0.5l-0.8-0.6C1039.5,91,1039.3,91.1,1039.2,91.3"/>
							<path class="st61" d="M1039.6,90.8l0.8,0.6c0.1-0.1,0.2-0.3,0.4-0.4l-0.8-0.6C1039.8,90.5,1039.7,90.7,1039.6,90.8"/>
							<path class="st61" d="M1039.9,90.4l0.8,0.6c0.1-0.1,0.2-0.2,0.3-0.4l-0.8-0.6C1040.2,90.2,1040.1,90.3,1039.9,90.4"/>
							<path class="st61" d="M1040.3,90l0.8,0.6c0.1-0.1,0.2-0.2,0.3-0.3l-0.8-0.6C1040.5,89.8,1040.4,89.9,1040.3,90"/>
							<path class="st61" d="M1040.6,89.7l0.8,0.6c0,0,0,0,0.1-0.1c0.1-0.1,0.1-0.1,0.2-0.2l-0.8-0.6
								C1040.8,89.5,1040.7,89.6,1040.6,89.7C1040.6,89.7,1040.6,89.7,1040.6,89.7"/>
							<path class="st61" d="M1040.8,89.5l0.8,0.6c0.1-0.1,0.2-0.2,0.3-0.2l-0.8-0.6C1041,89.3,1040.9,89.4,1040.8,89.5"/>
							<path class="st61" d="M1041.1,89.2l0.8,0.6c0.1-0.1,0.2-0.2,0.3-0.2l-0.8-0.6C1041.3,89.1,1041.2,89.1,1041.1,89.2"/>
							<path class="st61" d="M1041.4,89l0.8,0.6c0.1-0.1,0.2-0.1,0.3-0.2l-0.8-0.6C1041.5,88.8,1041.4,88.9,1041.4,89"/>
							<path class="st61" d="M1041.6,88.8l0.8,0.6c0.1-0.1,0.2-0.1,0.3-0.2l-0.8-0.6C1041.8,88.7,1041.7,88.7,1041.6,88.8"/>
							<path class="st61" d="M1041.9,88.6l0.8,0.6c0.1-0.1,0.2-0.1,0.3-0.2l-0.8-0.6C1042.1,88.5,1042,88.5,1041.9,88.6"/>
							<path class="st61" d="M1042.1,88.4l0.8,0.6c0.1-0.1,0.2-0.1,0.3-0.1l-0.8-0.6C1042.3,88.3,1042.2,88.4,1042.1,88.4"/>
							<path class="st61" d="M1042.4,88.3l0.8,0.6c0.1-0.1,0.3-0.1,0.4-0.1l-0.8-0.6C1042.7,88.2,1042.6,88.2,1042.4,88.3"/>
						</g>
						<use xlink:href="#SVGID_21_"  style="overflow:visible;fill:none;stroke:#2A3F55;stroke-width:0.25;stroke-miterlimit:10;"/>
					</g>
					<g>
						<polygon class="st32" points="1018.7,122.2 1019.6,122.8 1038.6,93.8 1037.8,93.2 						"/>
					</g>
					<g class="st146">
						<defs>
							<path id="SVGID_23_" class="st146" d="M1018.5,122.4l0.8,0.6c0,0,0,0,0,0c0,0,0.1-0.1,0.2-0.2l-0.8-0.6
								C1018.6,122.3,1018.5,122.4,1018.5,122.4C1018.5,122.4,1018.5,122.4,1018.5,122.4z"/>
						</defs>
						<use xlink:href="#SVGID_23_"  style="overflow:visible;fill:#2A3F55;"/>
						<clipPath id="SVGID_4_">
							<use xlink:href="#SVGID_23_"  style="overflow:visible;"/>
						</clipPath>
						<g class="st148">
							<path class="st32" d="M1018.5,122.4l0.8,0.6c0,0,0,0,0,0c0,0,0,0,0,0L1018.5,122.4C1018.5,122.4,1018.5,122.4,1018.5,122.4
								C1018.5,122.4,1018.5,122.4,1018.5,122.4"/>
							<path class="st32" d="M1018.5,122.4l0.8,0.6c0,0,0,0,0,0L1018.5,122.4C1018.5,122.4,1018.5,122.4,1018.5,122.4"/>
							<path class="st32" d="M1018.5,122.4l0.8,0.6c0,0,0,0,0,0L1018.5,122.4C1018.5,122.4,1018.5,122.4,1018.5,122.4"/>
							<polyline class="st32" points="1018.5,122.4 1019.4,123 1019.4,122.9 1018.5,122.3 1018.5,122.4 							"/>
							<polyline class="st32" points="1018.5,122.3 1019.4,122.9 1019.4,122.9 1018.6,122.3 1018.5,122.3 							"/>
							<polyline class="st32" points="1018.6,122.3 1019.4,122.9 1019.4,122.9 1018.6,122.3 1018.6,122.3 							"/>
							<path class="st32" d="M1018.6,122.3l0.8,0.6c0,0,0,0,0,0L1018.6,122.3C1018.6,122.3,1018.6,122.3,1018.6,122.3"/>
							<path class="st32" d="M1018.6,122.3l0.8,0.6c0,0,0,0,0,0L1018.6,122.3C1018.6,122.3,1018.6,122.3,1018.6,122.3"/>
							<path class="st32" d="M1018.6,122.3l0.8,0.6c0,0,0,0,0,0L1018.6,122.3C1018.6,122.3,1018.6,122.3,1018.6,122.3"/>
							<path class="st32" d="M1018.6,122.3l0.8,0.6c0,0,0,0,0,0L1018.6,122.3C1018.6,122.3,1018.6,122.3,1018.6,122.3"/>
							<path class="st32" d="M1018.6,122.3l0.8,0.6c0,0,0,0,0,0L1018.6,122.3C1018.6,122.3,1018.6,122.3,1018.6,122.3"/>
							<path class="st32" d="M1018.6,122.3l0.8,0.6c0,0,0,0,0,0L1018.6,122.3C1018.6,122.2,1018.6,122.3,1018.6,122.3"/>
							<path class="st32" d="M1018.6,122.2l0.8,0.6c0,0,0,0,0,0L1018.6,122.2C1018.7,122.2,1018.7,122.2,1018.6,122.2"/>
							<path class="st32" d="M1018.7,122.2l0.8,0.6c0,0,0,0,0-0.1L1018.7,122.2C1018.7,122.2,1018.7,122.2,1018.7,122.2"/>
						</g>
					</g>
					<g>
						<polygon class="st61" points="1042.8,88.2 1043.6,88.8 1046.6,88.8 1045.8,88.2 						"/>
					</g>
					<g class="st146">
						<defs>
							<path id="SVGID_25_" class="st146" d="M1046.9,88.9l-0.8-0.6c-0.1,0-0.1-0.1-0.2-0.1l0.8,0.6
								C1046.7,88.8,1046.8,88.8,1046.9,88.9z"/>
						</defs>
						<use xlink:href="#SVGID_25_"  style="overflow:visible;fill:#2A3F55;"/>
						<clipPath id="SVGID_6_">
							<use xlink:href="#SVGID_25_"  style="overflow:visible;"/>
						</clipPath>
						<g class="st149">
							<path class="st61" d="M1045.8,88.2l0.8,0.6c0.1,0,0.2,0,0.2,0.1l-0.8-0.6C1046,88.2,1045.9,88.2,1045.8,88.2"/>
						</g>
						<use xlink:href="#SVGID_25_"  style="overflow:visible;fill:none;stroke:#2A3F55;stroke-width:0.25;stroke-miterlimit:10;"/>
					</g>
					<g class="st146">
						<defs>
							<path id="SVGID_27_" class="st146" d="M1047.2,88.4l-0.8-0.6c0.6,0.4-0.2,2.7-2,5.4l0.8,0.6
								C1046.9,91.1,1047.8,88.9,1047.2,88.4z"/>
						</defs>
						<use xlink:href="#SVGID_27_"  style="overflow:visible;fill:#2A3F55;"/>
						<clipPath id="SVGID_8_">
							<use xlink:href="#SVGID_27_"  style="overflow:visible;"/>
						</clipPath>
						<g class="st150">
							<path class="st61" d="M1044.3,93.2l0.8,0.6c0,0,0-0.1,0.1-0.1l-0.8-0.6C1044.4,93.1,1044.3,93.2,1044.3,93.2"/>
							<path class="st61" d="M1044.4,93.1l0.8,0.6c0.2-0.3,0.4-0.6,0.6-0.9l-0.8-0.6C1044.8,92.5,1044.6,92.8,1044.4,93.1"/>
							<path class="st61" d="M1044.9,92.2l0.8,0.6c0.1-0.2,0.2-0.4,0.3-0.6l-0.8-0.6C1045.2,91.8,1045.1,92,1044.9,92.2"/>
							<path class="st61" d="M1045.3,91.6l0.8,0.6c0.1-0.2,0.2-0.3,0.3-0.5l-0.8-0.6C1045.5,91.3,1045.4,91.5,1045.3,91.6"/>
							<path class="st61" d="M1045.6,91.1l0.8,0.6c0.1-0.1,0.1-0.3,0.2-0.4l-0.8-0.6C1045.7,90.8,1045.6,91,1045.6,91.1"/>
							<path class="st61" d="M1045.8,90.7l0.8,0.6c0.1-0.1,0.1-0.3,0.2-0.4l-0.8-0.6C1045.9,90.4,1045.8,90.6,1045.8,90.7"/>
							<path class="st61" d="M1046,90.3l0.8,0.6c0.1-0.1,0.1-0.2,0.2-0.4l-0.8-0.6C1046.1,90.1,1046,90.2,1046,90.3"/>
							<path class="st61" d="M1046.1,90l0.8,0.6c0-0.1,0.1-0.2,0.1-0.3l-0.8-0.6C1046.2,89.7,1046.2,89.8,1046.1,90"/>
							<path class="st61" d="M1046.2,89.6l0.8,0.6c0-0.1,0.1-0.2,0.1-0.3l-0.8-0.6C1046.3,89.4,1046.3,89.5,1046.2,89.6"/>
							<path class="st61" d="M1046.3,89.3l0.8,0.6c0-0.1,0.1-0.2,0.1-0.3l-0.8-0.6C1046.4,89.1,1046.4,89.2,1046.3,89.3"/>
							<path class="st61" d="M1046.4,89l0.8,0.6c0-0.1,0-0.2,0.1-0.3l-0.8-0.6C1046.5,88.8,1046.5,88.9,1046.4,89"/>
							<path class="st61" d="M1046.5,88.7l0.8,0.6c0-0.1,0-0.2,0-0.3l-0.8-0.6C1046.5,88.5,1046.5,88.6,1046.5,88.7"/>
							<path class="st61" d="M1046.5,88.4l0.8,0.6c0-0.1,0-0.2,0-0.3l-0.8-0.6C1046.5,88.2,1046.5,88.3,1046.5,88.4"/>
							<path class="st61" d="M1046.5,88.2l0.8,0.6c0-0.1-0.1-0.3-0.2-0.3l-0.8-0.6C1046.4,87.9,1046.5,88,1046.5,88.2"/>
						</g>
						<use xlink:href="#SVGID_27_"  style="overflow:visible;fill:none;stroke:#2A3F55;stroke-width:0.25;stroke-miterlimit:10;"/>
					</g>
					<g>
						<polygon class="st32" points="1025.2,122.2 1026.1,122.8 1045.2,93.8 1044.3,93.2 						"/>
					</g>
					<g>
						<path class="st32" d="M1043.1,87.8c-1,0-3.4,2.5-5.4,5.5l-19.1,28.9c-0.1,0.1-0.1,0.2-0.1,0.2c0,0,0.1-0.1,0.2-0.2l19.1-28.9
							c0.9-1.4,1.9-2.6,2.8-3.5c0.9-0.9,1.7-1.5,2.2-1.5h3c0.5,0,0.5,0.6,0.2,1.5c-0.3,0.9-0.9,2.2-1.8,3.5l-19.1,28.9
							c-0.1,0.1-0.1,0.2-0.1,0.2c0,0,0.1-0.1,0.2-0.2l19.1-28.9c2-3,2.8-5.5,1.8-5.5H1043.1z"/>
					</g>
					<g class="st146">
						<defs>
							<path id="SVGID_29_" class="st146" d="M1025,122.4l0.8,0.6c0,0,0,0,0,0c0,0,0.1-0.1,0.2-0.2l-0.8-0.6
								C1025.2,122.3,1025.1,122.4,1025,122.4C1025,122.4,1025,122.4,1025,122.4z"/>
						</defs>
						<use xlink:href="#SVGID_29_"  style="overflow:visible;fill:#2A3F55;"/>
						<clipPath id="SVGID_10_">
							<use xlink:href="#SVGID_29_"  style="overflow:visible;"/>
						</clipPath>
						<g class="st151">
							<path class="st32" d="M1025,122.4l0.8,0.6c0,0,0,0,0,0c0,0,0,0,0,0L1025,122.4C1025,122.4,1025,122.4,1025,122.4
								C1025,122.4,1025,122.4,1025,122.4"/>
							<path class="st32" d="M1025,122.4l0.8,0.6c0,0,0,0,0,0L1025,122.4C1025,122.4,1025,122.4,1025,122.4"/>
							<path class="st32" d="M1025,122.4l0.8,0.6c0,0,0,0,0,0L1025,122.4C1025.1,122.4,1025.1,122.4,1025,122.4"/>
							<polyline class="st32" points="1025.1,122.4 1025.9,123 1025.9,122.9 1025.1,122.3 1025.1,122.4 							"/>
							<polyline class="st32" points="1025.1,122.3 1025.9,122.9 1025.9,122.9 1025.1,122.3 1025.1,122.3 							"/>
							<polyline class="st32" points="1025.1,122.3 1025.9,122.9 1025.9,122.9 1025.1,122.3 1025.1,122.3 							"/>
							<path class="st32" d="M1025.1,122.3l0.8,0.6c0,0,0,0,0,0L1025.1,122.3C1025.1,122.3,1025.1,122.3,1025.1,122.3"/>
							<path class="st32" d="M1025.1,122.3l0.8,0.6c0,0,0,0,0,0L1025.1,122.3C1025.1,122.3,1025.1,122.3,1025.1,122.3"/>
							<path class="st32" d="M1025.1,122.3l0.8,0.6c0,0,0,0,0,0L1025.1,122.3C1025.1,122.3,1025.1,122.3,1025.1,122.3"/>
							<path class="st32" d="M1025.1,122.3l0.8,0.6c0,0,0,0,0,0L1025.1,122.3C1025.1,122.3,1025.1,122.3,1025.1,122.3"/>
							<path class="st32" d="M1025.1,122.3l0.8,0.6c0,0,0,0,0,0L1025.1,122.3C1025.2,122.3,1025.1,122.3,1025.1,122.3"/>
							<path class="st32" d="M1025.2,122.3l0.8,0.6c0,0,0,0,0,0L1025.2,122.3C1025.2,122.2,1025.2,122.3,1025.2,122.3"/>
							<path class="st32" d="M1025.2,122.2l0.8,0.6c0,0,0,0,0,0L1025.2,122.2C1025.2,122.2,1025.2,122.2,1025.2,122.2"/>
							<path class="st32" d="M1025.2,122.2l0.8,0.6c0,0,0,0,0-0.1L1025.2,122.2C1025.2,122.2,1025.2,122.2,1025.2,122.2"/>
						</g>
					</g>
				</g>
			</g>
			<path class="st58" d="M1019.8,89l0.2-0.5l4.6-0.1c3.2,1.6,6.2,2.3,8.8,2.5c0,0,0.1,0,0.1,0c0.3,0,0.6-0.1,0.8-0.1
				c0,0,0.1,0,0.1,0c0.3-0.1,0.6-0.1,0.9-0.2c0.1,0,0.2,0,0.3-0.1c0.2,0,0.4-0.1,0.6-0.1c0.1,0,0.2-0.1,0.3-0.1
				c0.2,0,0.3-0.1,0.5-0.1c0.1,0,0.2-0.1,0.3-0.1c0.2-0.1,0.3-0.1,0.5-0.2c0.1,0,0.2-0.1,0.3-0.1c0.1-0.1,0.3-0.1,0.4-0.2
				c0.1,0,0.2-0.1,0.3-0.1c0.1-0.1,0.2-0.1,0.4-0.2c0.1,0,0.2-0.1,0.3-0.1c0.1,0,0.2-0.1,0.3-0.1c0.1-0.1,0.2-0.1,0.3-0.2
				c0.1,0,0.2-0.1,0.2-0.1c0.1,0,0.2-0.1,0.3-0.1c0.1-0.1,0.2-0.1,0.3-0.2c0,0,0,0,0,0c0.1-0.1,0.2-0.1,0.3-0.2c0,0,0,0,0,0
				c0.1,0,0.2-0.1,0.2-0.1c0,0,0,0,0,0c0.1,0,0.1-0.1,0.1-0.1c0,0,0,0,0,0c0,0,0,0,0,0l4.6-0.1l0.3,0.4c-0.1,0-4.3,3-10.8,3.1l0,0
				l0,0l-4.6,0.1c-2.5,0-5.3-0.3-8.3-1.4C1021.9,89.9,1020.9,89.5,1019.8,89L1019.8,89C1019.8,89,1019.8,89,1019.8,89z"/>
			<g>
				<g class="st146">
					<g class="st146">
						<defs>
							<path id="SVGID_31_" class="st146" d="M1046.4,123.3l0.8-0.7c0,0,0-0.1-0.1-0.2l-0.8,0.7
								C1046.4,123.2,1046.4,123.3,1046.4,123.3z"/>
						</defs>
						<clipPath id="SVGID_12_">
							<use xlink:href="#SVGID_31_"  style="overflow:visible;"/>
						</clipPath>
						<g class="st152">
							<path class="st32" d="M1046.4,123.3l0.8-0.7c0,0,0,0,0-0.1L1046.4,123.3C1046.4,123.3,1046.4,123.3,1046.4,123.3"/>
							<path class="st32" d="M1046.4,123.2l0.8-0.7c0,0,0,0,0,0L1046.4,123.2C1046.4,123.2,1046.4,123.2,1046.4,123.2"/>
							<path class="st32" d="M1046.4,123.2l0.8-0.7c0,0,0,0,0,0L1046.4,123.2C1046.4,123.2,1046.4,123.2,1046.4,123.2"/>
							<polyline class="st32" points="1046.4,123.2 1047.2,122.5 1047.2,122.5 1046.4,123.2 1046.4,123.2 							"/>
							<polyline class="st32" points="1046.4,123.2 1047.2,122.5 1047.2,122.5 1046.4,123.2 1046.4,123.2 							"/>
							<polyline class="st32" points="1046.4,123.2 1047.2,122.5 1047.2,122.5 1046.4,123.2 1046.4,123.2 							"/>
							<polyline class="st32" points="1046.4,123.2 1047.2,122.5 1047.2,122.5 1046.4,123.2 1046.4,123.2 							"/>
							<polyline class="st32" points="1046.4,123.2 1047.2,122.5 1047.2,122.5 1046.4,123.1 1046.4,123.2 							"/>
							<polyline class="st32" points="1046.4,123.1 1047.2,122.5 1047.1,122.5 1046.4,123.1 1046.4,123.1 							"/>
							<polyline class="st32" points="1046.4,123.1 1047.1,122.5 1047.1,122.5 1046.3,123.1 1046.4,123.1 							"/>
							<polyline class="st32" points="1046.3,123.1 1047.1,122.5 1047.1,122.4 1046.3,123.1 1046.3,123.1 							"/>
							<polyline class="st32" points="1046.3,123.1 1047.1,122.4 1047.1,122.4 1046.3,123.1 1046.3,123.1 							"/>
							<polyline class="st32" points="1046.3,123.1 1047.1,122.4 1047.1,122.4 1046.3,123.1 1046.3,123.1 							"/>
							<polyline class="st32" points="1046.3,123.1 1047.1,122.4 1047.1,122.4 1046.3,123.1 1046.3,123.1 							"/>
							<polyline class="st32" points="1046.3,123.1 1047.1,122.4 1047.1,122.4 1046.3,123.1 1046.3,123.1 							"/>
							<polyline class="st32" points="1046.3,123.1 1047.1,122.4 1047.1,122.4 1046.3,123.1 1046.3,123.1 							"/>
						</g>
					</g>
					<g>
						<polygon class="st61" points="1046.3,123.1 1047.1,122.4 1023.5,93.1 1022.7,93.8 						"/>
					</g>
					<g>
						<defs>
							<path id="SVGID_33_" d="M1021.2,88.4l-0.8,0.7c-0.2,0.2-0.1,0.6,0.2,1.3c0.4,0.9,1.1,2,2.1,3.3l0.8-0.7
								c-1-1.3-1.8-2.5-2.1-3.3C1021,89.1,1021,88.6,1021.2,88.4z"/>
						</defs>
						<use xlink:href="#SVGID_33_"  style="overflow:visible;fill:#2A3F55;"/>
						<clipPath id="SVGID_14_">
							<use xlink:href="#SVGID_33_"  style="overflow:visible;"/>
						</clipPath>
						<g class="st153">
							<path class="st61" d="M1022.7,93.8l0.8-0.7c0,0,0-0.1-0.1-0.1L1022.7,93.8C1022.6,93.7,1022.7,93.7,1022.7,93.8"/>
							<path class="st61" d="M1022.6,93.7l0.8-0.7c0-0.1-0.1-0.1-0.1-0.2l-0.8,0.7C1022.5,93.6,1022.6,93.6,1022.6,93.7"/>
							<path class="st61" d="M1022.5,93.5l0.8-0.7c0-0.1-0.1-0.1-0.1-0.2l-0.8,0.7C1022.4,93.4,1022.4,93.4,1022.5,93.5"/>
							<path class="st61" d="M1022.3,93.3l0.8-0.7c0-0.1-0.1-0.1-0.1-0.2l-0.8,0.7C1022.3,93.2,1022.3,93.2,1022.3,93.3"/>
							<path class="st61" d="M1022.2,93.1l0.8-0.7c0-0.1-0.1-0.1-0.1-0.2l-0.8,0.7C1022.1,93,1022.2,93.1,1022.2,93.1"/>
							<path class="st61" d="M1022.1,92.9l0.8-0.7c0-0.1-0.1-0.1-0.1-0.2l-0.8,0.7C1022,92.8,1022,92.9,1022.1,92.9"/>
							<path class="st61" d="M1021.9,92.7l0.8-0.7c0-0.1-0.1-0.1-0.1-0.2l-0.8,0.7C1021.8,92.6,1021.9,92.6,1021.9,92.7"/>
							<path class="st61" d="M1021.8,92.5l0.8-0.7c0-0.1-0.1-0.1-0.1-0.2l-0.8,0.7C1021.7,92.4,1021.7,92.4,1021.8,92.5"/>
							<path class="st61" d="M1021.6,92.3l0.8-0.7c-0.1-0.1-0.1-0.1-0.1-0.2l-0.8,0.7C1021.5,92.1,1021.6,92.2,1021.6,92.3"/>
							<path class="st61" d="M1021.5,92.1l0.8-0.7c-0.1-0.1-0.1-0.2-0.2-0.2l-0.8,0.7C1021.4,91.9,1021.4,92,1021.5,92.1"/>
							<path class="st61" d="M1021.3,91.8l0.8-0.7c-0.1-0.1-0.1-0.2-0.2-0.3l-0.8,0.7C1021.2,91.7,1021.3,91.7,1021.3,91.8"/>
							<path class="st61" d="M1021.2,91.6l0.8-0.7c-0.1-0.1-0.1-0.2-0.2-0.3l-0.8,0.7C1021.1,91.4,1021.1,91.5,1021.2,91.6"/>
							<path class="st61" d="M1021,91.3l0.8-0.7c-0.1-0.1-0.1-0.2-0.2-0.4l-0.8,0.7C1020.9,91.1,1020.9,91.2,1021,91.3"/>
							<path class="st61" d="M1020.8,90.9l0.8-0.7c-0.1-0.2-0.2-0.4-0.3-0.5c-0.3-0.7-0.4-1.2-0.2-1.3l-0.8,0.7
								c-0.2,0.2-0.1,0.6,0.2,1.3C1020.6,90.6,1020.7,90.8,1020.8,90.9"/>
						</g>
						<use xlink:href="#SVGID_33_"  style="overflow:visible;fill:none;stroke:#2A3F55;stroke-width:0.25;stroke-miterlimit:10;"/>
					</g>
					<g class="st146">
						<defs>
							<path id="SVGID_35_" class="st146" d="M1020.8,88l-0.8,0.7c0.1,0,0.1-0.1,0.2-0.1l0.8-0.7C1021,88,1020.9,88,1020.8,88z"/>
						</defs>
						<clipPath id="SVGID_16_">
							<use xlink:href="#SVGID_35_"  style="overflow:visible;"/>
						</clipPath>
						<g class="st154">
							<polyline class="st155" points="1020.3,88.6 1021,88 1021,88 1020.2,88.6 1020.3,88.6 							"/>
							<path class="st156" d="M1020.2,88.6l0.8-0.7c0,0,0,0-0.1,0L1020.2,88.6C1020.2,88.6,1020.2,88.6,1020.2,88.6"/>
							<path class="st157" d="M1020.2,88.6l0.8-0.7c0,0,0,0-0.1,0L1020.2,88.6C1020.1,88.6,1020.1,88.6,1020.2,88.6"/>
							<path class="st158" d="M1020.1,88.7l0.8-0.7c0,0,0,0-0.1,0L1020.1,88.7C1020.1,88.7,1020.1,88.7,1020.1,88.7"/>
							<path class="st159" d="M1020.1,88.7l0.8-0.7c0,0,0,0,0,0L1020.1,88.7C1020,88.7,1020,88.7,1020.1,88.7"/>
						</g>
					</g>
					<g>
						<polygon class="st61" points="1023.1,88.6 1023.9,88 1021,88 1020.3,88.6 						"/>
					</g>
					<g>
						<defs>
							<path id="SVGID_37_" d="M1052.6,123.3l0.8-0.7c0,0,0-0.1-0.1-0.2l-0.8,0.7C1052.5,123.2,1052.6,123.3,1052.6,123.3z"/>
						</defs>
						<use xlink:href="#SVGID_37_"  style="overflow:visible;fill:#2A3F55;"/>
						<clipPath id="SVGID_18_">
							<use xlink:href="#SVGID_37_"  style="overflow:visible;"/>
						</clipPath>
						<g class="st160">
							<path class="st32" d="M1052.6,123.3l0.8-0.7c0,0,0,0,0-0.1L1052.6,123.3C1052.6,123.3,1052.6,123.3,1052.6,123.3"/>
							<path class="st32" d="M1052.5,123.2l0.8-0.7c0,0,0,0,0,0L1052.5,123.2C1052.5,123.2,1052.5,123.2,1052.5,123.2"/>
							<path class="st32" d="M1052.5,123.2l0.8-0.7c0,0,0,0,0,0L1052.5,123.2C1052.5,123.2,1052.5,123.2,1052.5,123.2"/>
							<polyline class="st32" points="1052.5,123.2 1053.3,122.5 1053.3,122.5 1052.5,123.2 1052.5,123.2 							"/>
							<polyline class="st32" points="1052.5,123.2 1053.3,122.5 1053.3,122.5 1052.5,123.2 1052.5,123.2 							"/>
							<polyline class="st32" points="1052.5,123.2 1053.3,122.5 1053.3,122.5 1052.5,123.2 1052.5,123.2 							"/>
							<polyline class="st32" points="1052.5,123.2 1053.3,122.5 1053.3,122.5 1052.5,123.1 1052.5,123.2 							"/>
							<polyline class="st32" points="1052.5,123.1 1053.3,122.5 1053.3,122.5 1052.5,123.1 1052.5,123.1 							"/>
							<polyline class="st32" points="1052.5,123.1 1053.3,122.5 1053.3,122.5 1052.5,123.1 1052.5,123.1 							"/>
							<polyline class="st32" points="1052.5,123.1 1053.3,122.5 1053.3,122.5 1052.5,123.1 1052.5,123.1 							"/>
							<polyline class="st32" points="1052.5,123.1 1053.3,122.5 1053.3,122.4 1052.5,123.1 1052.5,123.1 							"/>
							<polyline class="st32" points="1052.5,123.1 1053.3,122.4 1053.3,122.4 1052.5,123.1 1052.5,123.1 							"/>
							<polyline class="st32" points="1052.5,123.1 1053.3,122.4 1053.3,122.4 1052.5,123.1 1052.5,123.1 							"/>
							<polyline class="st32" points="1052.5,123.1 1053.3,122.4 1053.2,122.4 1052.5,123.1 1052.5,123.1 							"/>
							<polyline class="st32" points="1052.5,123.1 1053.2,122.4 1053.2,122.4 1052.4,123.1 1052.5,123.1 							"/>
							<polyline class="st32" points="1052.4,123.1 1053.2,122.4 1053.2,122.4 1052.4,123.1 1052.4,123.1 							"/>
						</g>
					</g>
					<g>
						<polygon class="st61" points="1052.4,123.1 1053.2,122.4 1029.6,93.1 1028.8,93.8 						"/>
					</g>
					<g>
						<path class="st32" d="M1020.3,88.6c-0.9,0,0.1,2.3,2.3,5.1l23.6,29.3c0.1,0.1,0.2,0.2,0.2,0.2c0,0,0-0.1-0.1-0.2l-23.6-29.3
							c-1-1.3-1.8-2.5-2.1-3.3c-0.4-0.9-0.4-1.4,0-1.4h2.8c0.4,0,1.2,0.5,2.2,1.4c1,0.9,2.1,2,3.1,3.3l23.6,29.3
							c0.1,0.1,0.2,0.2,0.2,0.2c0,0,0-0.1-0.1-0.2l-23.6-29.3c-2.2-2.8-4.8-5.1-5.7-5.1H1020.3z"/>
					</g>
					<g>
						<defs>
							<path id="SVGID_39_" d="M1028.8,93.8l0.8-0.7c-2.2-2.8-4.8-5.1-5.7-5.1l-0.8,0.7C1024,88.6,1026.6,90.9,1028.8,93.8z"/>
						</defs>
						<use xlink:href="#SVGID_39_"  style="overflow:visible;fill:#2A3F55;"/>
						<clipPath id="SVGID_20_">
							<use xlink:href="#SVGID_39_"  style="overflow:visible;"/>
						</clipPath>
						<g class="st161">
							<path class="st61" d="M1028.8,93.8l0.8-0.7c0,0,0,0,0-0.1L1028.8,93.8C1028.8,93.7,1028.8,93.7,1028.8,93.8"/>
							<path class="st61" d="M1028.8,93.7l0.8-0.7c0-0.1-0.1-0.1-0.1-0.2l-0.8,0.7C1028.7,93.6,1028.7,93.6,1028.8,93.7"/>
							<path class="st61" d="M1028.6,93.5l0.8-0.7c0-0.1-0.1-0.1-0.1-0.2l-0.8,0.7C1028.6,93.4,1028.6,93.5,1028.6,93.5"/>
							<path class="st61" d="M1028.5,93.4l0.8-0.7c0,0-0.1-0.1-0.1-0.1l-0.8,0.7C1028.4,93.3,1028.5,93.3,1028.5,93.4"/>
							<path class="st61" d="M1028.4,93.2l0.8-0.7c0,0-0.1-0.1-0.1-0.1l-0.8,0.7C1028.3,93.2,1028.4,93.2,1028.4,93.2"/>
							<path class="st61" d="M1028.3,93.1l0.8-0.7c0,0-0.1-0.1-0.1-0.1l-0.8,0.7C1028.2,93,1028.3,93.1,1028.3,93.1"/>
							<path class="st61" d="M1028.2,93l0.8-0.7c0,0-0.1-0.1-0.1-0.1l-0.8,0.7C1028.1,92.9,1028.2,93,1028.2,93"/>
							<path class="st61" d="M1028.1,92.9l0.8-0.7c0,0-0.1-0.1-0.1-0.1l-0.8,0.7C1028.1,92.8,1028.1,92.9,1028.1,92.9"/>
							<path class="st61" d="M1028,92.8l0.8-0.7c0,0-0.1-0.1-0.1-0.1L1028,92.8C1028,92.7,1028,92.8,1028,92.8"/>
							<path class="st61" d="M1027.9,92.7l0.8-0.7c0,0-0.1-0.1-0.1-0.1L1027.9,92.7C1027.9,92.6,1027.9,92.7,1027.9,92.7"/>
							<path class="st61" d="M1027.9,92.6l0.8-0.7c0,0-0.1-0.1-0.1-0.1L1027.9,92.6C1027.8,92.5,1027.8,92.6,1027.9,92.6"/>
							<path class="st61" d="M1027.8,92.5l0.8-0.7c0,0-0.1-0.1-0.1-0.1L1027.8,92.5C1027.7,92.4,1027.7,92.5,1027.8,92.5"/>
							<path class="st61" d="M1027.7,92.4l0.8-0.7c0,0-0.1-0.1-0.1-0.1L1027.7,92.4C1027.6,92.3,1027.7,92.4,1027.7,92.4"/>
							<path class="st61" d="M1027.6,92.3l0.8-0.7c0,0-0.1-0.1-0.1-0.1L1027.6,92.3C1027.6,92.2,1027.6,92.3,1027.6,92.3"/>
							<path class="st61" d="M1027.5,92.2l0.8-0.7c0,0-0.1-0.1-0.1-0.1L1027.5,92.2C1027.5,92.1,1027.5,92.2,1027.5,92.2"/>
							<path class="st61" d="M1027.4,92.1l0.8-0.7c0,0-0.1-0.1-0.1-0.1l-0.8,0.7C1027.4,92,1027.4,92.1,1027.4,92.1"/>
							<path class="st61" d="M1027.3,92l0.8-0.7c0,0-0.1-0.1-0.1-0.1l-0.8,0.7C1027.3,91.9,1027.3,92,1027.3,92"/>
							<path class="st61" d="M1027.2,91.9l0.8-0.7c0,0-0.1-0.1-0.1-0.1l-0.8,0.7C1027.1,91.8,1027.2,91.8,1027.2,91.9"/>
							<path class="st61" d="M1027.1,91.8l0.8-0.7c-0.1-0.1-0.2-0.2-0.2-0.3l-0.8,0.7C1027,91.6,1027,91.7,1027.1,91.8"/>
							<path class="st61" d="M1026.9,91.5l0.8-0.7c-0.1-0.1-0.2-0.2-0.3-0.4l-0.8,0.7C1026.6,91.3,1026.8,91.4,1026.9,91.5"/>
							<path class="st61" d="M1026.5,91.1l0.8-0.7c-0.1-0.1-0.2-0.2-0.2-0.2l-0.8,0.7C1026.4,91,1026.5,91.1,1026.5,91.1"/>
							<path class="st61" d="M1026.3,90.9l0.8-0.7c-0.1-0.1-0.1-0.1-0.2-0.2l-0.8,0.7C1026.2,90.8,1026.2,90.9,1026.3,90.9"/>
							<path class="st61" d="M1026.1,90.7l0.8-0.7c0,0-0.1-0.1-0.1-0.1l-0.8,0.7C1026,90.7,1026.1,90.7,1026.1,90.7"/>
							<path class="st61" d="M1026,90.6l0.8-0.7c0,0-0.1-0.1-0.1-0.1l-0.8,0.7C1025.9,90.5,1025.9,90.6,1026,90.6"/>
							<path class="st61" d="M1025.9,90.5l0.8-0.7c0,0-0.1-0.1-0.1-0.1l-0.8,0.7C1025.8,90.4,1025.8,90.4,1025.9,90.5"/>
							<path class="st61" d="M1025.7,90.4l0.8-0.7c0,0-0.1-0.1-0.1-0.1l-0.8,0.7C1025.6,90.3,1025.7,90.3,1025.7,90.4"/>
							<path class="st61" d="M1025.6,90.2l0.8-0.7c-0.1-0.1-0.1-0.1-0.2-0.1l-0.8,0.7C1025.5,90.1,1025.5,90.2,1025.6,90.2"/>
							<path class="st61" d="M1025.4,90.1l0.8-0.7c-0.1-0.1-0.1-0.1-0.2-0.2l-0.8,0.7C1025.3,90,1025.3,90,1025.4,90.1"/>
							<path class="st61" d="M1025.2,89.9l0.8-0.7c-0.1-0.1-0.2-0.1-0.2-0.2l-0.8,0.7C1025.1,89.8,1025.1,89.8,1025.2,89.9"/>
							<path class="st61" d="M1025,89.7l0.8-0.7c-0.1-0.1-0.2-0.1-0.2-0.2l-0.8,0.7C1024.8,89.6,1024.9,89.6,1025,89.7"/>
							<path class="st61" d="M1024.7,89.5l0.8-0.7c-0.1-0.1-0.2-0.1-0.2-0.2l-0.8,0.7C1024.6,89.4,1024.7,89.4,1024.7,89.5"/>
							<path class="st61" d="M1024.5,89.3l0.8-0.7c-0.1-0.1-0.1-0.1-0.2-0.2l-0.8,0.7C1024.3,89.2,1024.4,89.3,1024.5,89.3"/>
							<path class="st61" d="M1024.3,89.2l0.8-0.7c-0.1,0-0.1-0.1-0.2-0.1l-0.8,0.7C1024.1,89.1,1024.2,89.1,1024.3,89.2"/>
							<path class="st61" d="M1024.1,89l0.8-0.7c-0.1,0-0.1-0.1-0.2-0.1l-0.8,0.7C1024,89,1024,89,1024.1,89"/>
							<path class="st61" d="M1023.9,88.9l0.8-0.7c0,0-0.1-0.1-0.1-0.1l-0.8,0.7C1023.8,88.9,1023.9,88.9,1023.9,88.9"/>
							<path class="st61" d="M1023.8,88.9l0.8-0.7c0,0-0.1,0-0.1-0.1l-0.8,0.7C1023.7,88.8,1023.7,88.8,1023.8,88.9"/>
							<path class="st61" d="M1023.7,88.8l0.8-0.7c0,0-0.1,0-0.1-0.1l-0.8,0.7C1023.6,88.8,1023.6,88.8,1023.7,88.8"/>
							<path class="st61" d="M1023.5,88.7l0.8-0.7c0,0-0.1,0-0.1,0l-0.8,0.7C1023.5,88.7,1023.5,88.7,1023.5,88.7"/>
							<path class="st61" d="M1023.4,88.7l0.8-0.7c0,0-0.1,0-0.1,0L1023.4,88.7C1023.4,88.7,1023.4,88.7,1023.4,88.7"/>
							<path class="st61" d="M1023.3,88.7l0.8-0.7c0,0-0.1,0-0.1,0L1023.3,88.7C1023.3,88.7,1023.3,88.7,1023.3,88.7"/>
							<path class="st61" d="M1023.2,88.6l0.8-0.7c0,0-0.1,0-0.1,0L1023.2,88.6C1023.2,88.6,1023.2,88.6,1023.2,88.6"/>
							<path class="st61" d="M1023.2,88.6l0.8-0.7c0,0,0,0-0.1,0L1023.2,88.6C1023.1,88.6,1023.1,88.6,1023.2,88.6"/>
						</g>
						<use xlink:href="#SVGID_39_"  style="overflow:visible;fill:none;stroke:#2A3F55;stroke-width:0.25;stroke-miterlimit:10;"/>
					</g>
				</g>
			</g>
		</g>
		<g>
			<g>
				<path class="st62" d="M1031.8,31.7c-1.1,0.5-1.7,1.7-2,2.8c-0.3,1.3,0.3,3.1-0.4,4.3c-0.3,0.5-1.1,0.5-1.6,0.7
					c-2.4,0.6-3.3,0.9-2.9,1.3c0.4,0.4,4.6,1,5,1.7c0.4,0.7,1.2,4.1,1.7,4.5c0.5,0.5,3-0.3,3.5,0.1c0.5,0.5,0.4,3.3,0.4,3.3l6.9-1
					c0,0-2.4-6.2-1.7-8.3c0.8-2.1-0.3-3.2-0.8-5.4c-0.8-3.6-4.1-4.9-7.5-4.2C1032.2,31.5,1032,31.6,1031.8,31.7z"/>
				<path class="st61" d="M1039.4,44.7c-1.3,0.3-1.7-2.1-1.5-3.3c0.2-1.4,1.8-2.1,1.2-3.8c-0.1-0.3-0.3-0.6-0.7-0.7
					c-0.7-0.2-0.9,0.7-1.1,1.2c-0.2,0.4-0.5,2.3-1.1,2.3c-2.4,0.1-1.5-3.9-2.5-5.2c-0.9-1.1-2.2,0.6-3.5,0.4c0,0-1-1.2,1.4-2.7
					c0,0-5,3.9-5,2.6c0.1-1.3,3.1-3.4,3.1-3.4s-4.2,2.8-4.6,0.9c-0.4-1.9,6.7-4.2,8-3.6c0.2,0.1,2.2,0,2.4-0.1
					c1.3-0.3,2.7-0.4,3.9-0.1c4.2,1,5.6,6.9,5,10.6c-0.3,1.9-1.1,3.6-2.3,5.1c-0.4,0.5-1.3,1.8-1.7,0.9c-0.2-0.4,0.2-1.3,0.3-1.7
					C1040.9,44.1,1040.6,44.4,1039.4,44.7z"/>
			</g>
			<g>
				<g>
					<g>
						<path class="st124" d="M1018.7,81.8c1.5-3.6,2.2-5.8,3.4-9.3c2.3-7.7,1.3-12.3,4.2-18.2c2.8-5.8,11.3-9.5,17.2-6.2
							c4.6,2.6,4.8,6.7,4.2,11.4c-0.5,4-1.4,8-1.5,12.1c-0.1,3.8,1.1,13-2.3,15.4c-3.7,2.6-11.2,0-14.8-1.5
							C1023.1,83.1,1021.3,84.1,1018.7,81.8z"/>
					</g>
				</g>
			</g>
			<g>
				<path class="st62" d="M1010.9,82.3c4.6-6.5,21.9-8.4,21.9-8.4s0,0,0,0c3.2-0.8,6.6,0.6,8.4,3.6c2.2,3.6,1,8.3-2.5,10.4
					c-2.1,1.9-10.9,2-18.1,0.8c2.7,7-3,21.7-3.8,24.4c-1.4,0.5-2.9,0.6-4.4,0.7c-2.2-13.5-2.1-27.1-2-29.8
					C1010.4,83.5,1010.5,82.9,1010.9,82.3z"/>
				<g>
					<path class="st61" d="M1019.4,111.8c0-0.1-0.1-0.2-0.1-0.3c-0.2-0.3-0.5-0.4-0.8-0.4c-0.3,0-0.8-0.1-1.1,0.1
						c-0.3,0.1-0.5,0.4-0.7,0.6c-0.3,0.3-0.7,0.5-1.1,0.7c-0.6,0.3-1.4,0.6-2.1,0.6c-1,0-0.7-0.9-1.4-0.2c-0.7,0.8-3.8,3.5-5,3.5
						c-1.2,0-3.1-0.3-3.4,1.2c-0.3,1.5,2.6,3.4,4.8,3.5c2.1,0.1,5.3-0.7,6-0.3s6.4,0,6.9-1.9c0.3-1.3-0.5-2.6-1.2-3.6
						c-0.3-0.5-0.7-0.9-0.8-1.4c-0.1-0.3-0.1-0.6-0.1-0.9C1019.2,112.5,1019.4,112.1,1019.4,111.8z"/>
					<path class="st145" d="M1021.2,117.8c0,0.2-0.9,1.1-2.4,1.5c-1.4,0.3-2.9,0.4-4.3,0.4c-0.7,0-1.5,0-2.2,0.1
						c-0.7,0-1.4,0.2-2.1,0.2c-1.2,0-2.5,0-3.6-0.5c-1.1-0.5-2.4-1.1-2.8-2.3"/>
					<path class="st145" d="M1009.7,114.9c0,0,1.2,0.2,1.7,1"/>
					<path class="st145" d="M1010.6,114.1c0,0,1.2-0.4,1.8,0.5"/>
				</g>
			</g>
			<g>
				<polyline class="st162" points="997.4,15.7 1031.7,46.9 994.9,85.9 				"/>
				<path class="st162" d="M995.6,15.7c0,0,2.6-1.2,3.2,2.7c0.7,3.9-1.8,4.4-2.4,1.5"/>
				<path class="st162" d="M997.2,15.9c1.2,0.9,1.4,3.4,0.7,4.8c-0.8,1.7-3.5,2.7-4.7,1.1c-1.7-2.3,1.4-7.3,3.7-6.1
					C997.1,15.8,997.2,15.8,997.2,15.9z"/>
				<line class="st162" x1="998.3" y1="18.6" x2="996.6" y2="18.6"/>
				<polyline class="st162" points="997.3,21.6 996.1,19.1 994.5,20.3 				"/>
				<path class="st162" d="M995.6,22.5c0,0-1.6-4.7-2.8-2.2"/>
				<path class="st162" d="M995.9,18c0,0-1.5,0.8-1.8,0.7c-0.2-0.2-0.5-1.4-0.7-0.9C993.4,17.7,994.4,16.6,995.9,18z"/>
				<path class="st162" d="M993.9,19.7c0.3,0.1,0.2-1.1,0.2-1.1l-0.8,63.9"/>
				<path class="st162" d="M997.4,15.7c0,0-0.3,2-1.5,2.9"/>
				<path class="st162" d="M995.1,15.8c0,0,0.6,2,1.8,1.3c0.6-0.3-0.6-1.6-0.6-1.6"/>
				<ellipse class="st32" cx="996.2" cy="18.7" rx="1.1" ry="1.6"/>
				<path class="st162" d="M995.9,18c0,0-8.1-0.5-12,3.8c-3.9,4.2-5.6,10.5-5.6,10.5"/>
				<path class="st162" d="M993,18.7c0,0-9.3,0.1-12,9.3"/>
				<g>
					<path class="st32" d="M978.1,68.8c-0.2,1.4,0.7,2.9,0.7,3.6c0.1,0.7,0.7,1.4,1.8,0.9c1.1-0.5,0.8-1,0.8-1
						c-0.1-4.8,2.2-5.8,2.2-5.8s1.2-0.9,0.9-1.5c-0.3-0.5-0.4-1.9-0.4-2c0-0.2,0-0.3,0-0.5c0,0,0,0,0,0c1-2.2,3.6-7.4,3.4-14.1
						c-0.2-6.9-2.6-9.7-2.9-10.1c-0.3-0.4-0.3-2.1,0.3-3.1c0.6-0.9,0-1.6-1.3-3.5s-0.7-4.7-0.7-5.7c0.1-0.9-2.4-0.8-2.4-0.8
						l-1.9,4.7c0,0-1.3,2-0.4,2.8c0.9,0.8,1.1-0.4,1.1-0.4s1.3,0.5,2.3,6.9c1,6.3-0.8,9.4-1.1,10.6c-0.3,1.2,2.5,12.1,2.5,12.1
						s-0.1,0.6-0.7,0.4c-0.6-0.1-1.2,0.1-2.8,2.6c-1.6,2.5-3.1,2.1-3.1,2.1C976.3,68.5,978.1,68.8,978.1,68.8z M981.4,35.2
						c0.1-0.2,0.3-0.2,0.5-0.2c0,0,0,0,0,0c0.2,0.1,0.4,0.4,0.5,0.6c0.4,0.5,0.8,1,1.2,1.5c0.1,0.1,0.2,0.3,0.2,0.4
						c0,0.3-0.3-0.2-0.6,0.2c-0.3,0.4-0.3,1.1-0.5,1c-0.1,0-0.2-0.3-0.3-0.4c-0.1-0.3-0.2-0.6-0.3-0.9c-0.2-0.6-0.4-1.1-0.6-1.7
						C981.4,35.5,981.3,35.3,981.4,35.2z M982.1,32.3c-0.6-0.2-1.3-0.7-1.4-1.5c0-0.5,0-1.2,0.2-1.7c0.1-0.2,0.2-0.4,0.4-0.5
						c0.2-0.1,0.4-0.2,0.6-0.1c0.3,0.1,0.4,0.5,0.4,0.8c0.1,0.4,0.2,0.9,0.3,1.3c0.1,0.3,0.1,0.7,0.3,1
						C983.2,32,982.8,32.6,982.1,32.3z M984.2,35.6c0,0.4-0.3,0.9-0.6,0.7c-0.2-0.1-0.3-0.3-0.4-0.4c-0.2-0.3-0.5-0.5-0.7-0.8
						c-0.4-0.4-1.2-1.4-0.8-2.1c0.3-0.4,0.9-0.3,1.2-0.4c0.1,0,0.2,0,0.3,0c0.1,0,0.1,0,0.2,0c0.3,0.2,0.6,0.6,0.7,0.9
						c0.1,0.2,0.5,0.5,0.4,0.8C984.5,34.7,984.2,35.2,984.2,35.6z M983.1,55.8c-0.5-0.6-0.1-2.3,0.1-3c0.3-1.3,0.7-2.6,0.7-3.9
						c0-1.1-0.4-2.4-0.6-3.5c-0.1-0.3-0.1-1.6,1.2-2.9c0.1-0.1,0.3-0.2,0.5-0.3c0.7,0,1.1,1.3,1.3,1.9c0.2,0.5,0.3,1,0.3,1.5
						c0.1,0.6,0.1,1.3,0.1,1.9c0,1.2,0,2.3,0,3.5c-0.1,1-0.1,2.1-0.4,3C985.4,56.6,983.8,56.7,983.1,55.8z M982.1,65.9
						c-0.4-0.1-1.1,0.2-1.4-0.4c-0.2-0.3,0-0.7,0.1-1c0.3-0.6,0.9-0.8,1.3-1.2c0.1-0.1,0.3-0.3,0.4-0.4c0.2-0.1,0.4-0.2,0.6-0.1
						c0.2,0.1,0.2,0.3,0.3,0.5c0.1,0.5,0.3,1.2,0.1,1.6C983.4,65.3,982.7,66.1,982.1,65.9z M979.3,68.3c0.1-0.4,0.2-0.7,0.4-0.9
						c0.2-0.2,0.4-0.4,0.6-0.6c0.3-0.3,1.8-1.3,1.7-0.1c0,0.2-0.1,0.4-0.2,0.6c-0.3,0.5-0.4,0.9-0.5,1.4c-0.1,0.4-0.2,0.9-0.4,1.3
						c-0.3,0.6-0.6,0.7-0.9,0.4C979.6,70,979.2,69,979.3,68.3z"/>
				</g>
				<path class="st162" d="M993.5,85.6c0,0,2.5,1.4,3.4-2.4c1-3.8-1.4-4.5-2.3-1.8"/>
				<path class="st162" d="M995.2,85.5c1.3-0.8,1.6-3.2,1.1-4.7c-0.7-1.8-3.3-3.1-4.6-1.6c-1.9,2.1,0.8,7.4,3.3,6.4
					C995,85.7,995.1,85.6,995.2,85.5z"/>
				<line class="st162" x1="994.8" y1="82.8" x2="996.5" y2="82.9"/>
				<polyline class="st162" points="995.7,79.9 994.3,82.2 992.8,80.8 				"/>
				<path class="st162" d="M994,78.7c0,0-2,4.5-3,1.9"/>
				<path class="st162" d="M994,83.3c0,0-1.4-1-1.7-0.9c-0.3,0.1-0.6,1.3-0.8,0.9C991.6,83.4,992.4,84.6,994,83.3z"/>
				<path class="st162" d="M992.3,82.5c0,0,0.1-1.2-0.2-1.1"/>
				<path class="st162" d="M995.3,85.8c0,0-0.1-2-1.2-3.1"/>
				<path class="st162" d="M993.1,85.4c0,0,0.7-1.9,1.9-1.1c0.6,0.4-0.7,1.6-0.7,1.6"/>
				
					<ellipse transform="matrix(4.394925e-02 -0.999 0.999 4.394925e-02 868.2103 1072.4281)" class="st32" cx="994.4" cy="82.6" rx="1.6" ry="1.1"/>
				<path class="st162" d="M994,83.3c0,0-8.1-0.4-11.7-5c-3.6-4.6-4.8-11.1-4.8-11.1"/>
				<path class="st162" d="M991.2,82.2c0,0-9.2-1.1-11.2-10.6"/>
				
					<rect x="974.9" y="40" transform="matrix(-1 -4.482782e-11 4.482782e-11 -1 1957.9415 81.8076)" class="st32" width="8.2" height="1.9"/>
				<path class="st163" d="M973.5,37.1c0.1,0.1,1.4,1.4,1.4,1.4v5.2l-1.4,1.2V37.1z"/>
				<path class="st32" d="M976.3,41.2c0,0-4.7,0.1-4.8-0.3c-0.1-0.4-0.2-1.8-0.2-1.8l-2.3-0.2v3.2l0.4,0.6l2,0.1l0.2-1
					C971.6,41.9,978.6,41.7,976.3,41.2z"/>
				<g>
					<path class="st61" d="M926.6,60.1h57c0.3,0,0.5-0.2,0.5-0.5l0,0c0-0.3-0.2-0.5-0.5-0.5h-57c-0.3,0-0.5,0.2-0.5,0.5l0,0
						C926.1,59.9,926.4,60.1,926.6,60.1z"/>
					<path class="st58" d="M926.8,60.7h2.5c0.6,0,1-0.5,1-1l0,0c0-0.6-0.5-1-1-1h-2.5c-0.6,0-1,0.5-1,1l0,0
						C925.8,60.2,926.2,60.7,926.8,60.7z"/>
				</g>
				<g>
					<path class="st61" d="M989.7,86.6L989.7,86.6c0.4-0.1,0.7-0.6,0.5-1l-7.9-23.3c-0.1-0.4-0.6-0.6-0.9-0.5l-0.1,0
						c-0.4,0.1-0.6,0.6-0.5,0.9l7.9,23.3C988.9,86.5,989.3,86.7,989.7,86.6z"/>
					<path class="st58" d="M992.2,89.3l-2.2-8c-0.2-0.9-1.2-1.4-2-1.1l0,0c-0.9,0.2-1.4,1.2-1.1,2l2.2,8c0.2,0.9,1.2,1.4,2,1.1l0,0
						C991.9,91.1,992.4,90.2,992.2,89.3z"/>
				</g>
			</g>
			<path class="st62" d="M980.1,50.2c0.3-0.3,1.6-1.4,2-1.4s0.7,0.3,1.6,0.6c0.9,0.3,3.2,2.4,4.4,3.7c1.1,1.3,1.8,2.8,3.3,3.9
				c1.5,1.1,7,3.4,7,3.4s0,0,0,0c10.2,2.7,19.2,6.3,22.5,7.6c7.9-0.5,20,6.2,20,6.2s0,0,0,0c3.1,1.1,5.1,4.3,4.9,7.8
				c-0.3,4.2-3.9,7.4-8,7.1c-3.6,0.4-14.9-8-19.3-14.3c-0.8,0.4-1.8,0.8-2.9,1.1c-5.8,1.5-15.3-5.9-20.2-10c0,0,0,0,0,0
				c-5.9-4-9.8-1.6-11.4-2.3c-1.6-0.8-2.2-2.5-1.2-4.1c0.6-0.9,0.4-2.2,0.2-3.2c-0.1-0.6-0.3-1.1-0.4-1.6c-0.1-0.3,0-0.7-0.2-1
				c-0.1-0.3-0.3-0.5-0.3-0.8c-0.1-0.5-0.2-1.3-0.2-1.3s-0.1,0.6-0.9,0.2C980.2,51.4,979.7,50.5,980.1,50.2z"/>
			<g>
				<path class="st59" d="M1027.8,48.3c0,0,8-1.6,9-0.7c1,0.8,1.3,3.8-2.3,3.1C1030.9,50,1027.9,49.7,1027.8,48.3z"/>
				<path class="st61" d="M1035.3,48.8c-2.6-0.4-5.3-0.6-7.9-0.9l-7.9-0.1l-15.9-0.2l-15.9-0.2l-7.9-0.1c-2.6,0.2-5.3,0.4-7.9,0.7
					c2.6,0.4,5.3,0.6,7.9,0.9l7.9,0.1l15.9,0.2l15.9,0.2l7.9,0.1C1030,49.3,1032.7,49.1,1035.3,48.8z"/>
			</g>
			<g>
				<path class="st59" d="M1019.9,67.7c0,0-0.5,6.7-1.7,8.5c-1.2,1.7,0,1.2,0,1.2s3.6,6.2,3,9.4c-0.6,3.2,0.1,3.1,0.1,3.1
					s4.9,1,12,1.1c7.1,0.1,13.6-3.3,13.3-9.6c-0.3-6.3-0.3-6.3-0.3-6.3s-0.8,0-5-2.6c-4.2-2.6-8.8-4.2-12.8-4.9
					C1024.4,67,1019.3,65.2,1019.9,67.7z"/>
			</g>
		</g>
	</g>
	<g>
		<g>
			<ellipse transform="matrix(0.7718 -0.6359 0.6359 0.7718 28.712 273.9389)" class="st61" cx="396" cy="97" rx="17.5" ry="22.5"/>
			<g>
				<g>
					<path class="st102" d="M389.4,105.7c0,0,8.4-0.1,8.8,0c0.4,0.1,14.7-3.6,18.2,1.5c3.5,5.1,0,4.8,0,4.8
						c-2.7-0.2-5.1,1.3-5.3,3.5c0,0,0,0-3,0.4c-3,0.4-6.4,0.5-6.4,0.5c-2.7,0.1-7.2,0.1-10,0.1l-7.4-0.1c-2.7,0-3.9-2-2.6-4.5
						C381.8,111.9,385.2,105.7,389.4,105.7z"/>
					<path class="st56" d="M389.4,105.7c0,0,8.4-0.1,8.8,0c0.4,0.1,14.7-3.6,18.2,1.5c3.5,5.1,0,4.8,0,4.8c-2.7-0.2-5.1,1.3-5.3,3.5
						c0,0,0,0-3,0.4c-3,0.4-6.4,0.5-6.4,0.5c-2.7,0.1-7.2,0.1-10,0.1l-7.4-0.1c-2.7,0-3.9-2-2.6-4.5
						C381.8,111.9,385.2,105.7,389.4,105.7z"/>
				</g>
			</g>
			<g>
				<path class="st141" d="M382.4,86.2l13-3c2.7-0.6,5.7,1,6.7,3.5l9.4,24.8"/>
			</g>
		</g>
		<g>
			<g>
				<path class="st102" d="M358.6,71.4c0,0-4.3,0.9-5.1,5.8c-0.7,4.9-0.7,4.9-0.7,4.9c0.9,1.6,3.9,2.5,6.5,1.9c0,0,2.1-0.5,3.2-0.5
					C363.6,83.5,363.5,69.2,358.6,71.4z"/>
				<path class="st56" d="M358.6,71.4c0,0-4.3,0.9-5.1,5.8c-0.7,4.9-0.7,4.9-0.7,4.9c0.9,1.6,3.9,2.5,6.5,1.9c0,0,2.1-0.5,3.2-0.5
					C363.6,83.5,363.5,69.2,358.6,71.4z"/>
			</g>
			<path class="st62" d="M382.6,75c0,0-15.6-13.7-8.6-18.8C381.2,51.1,390.8,72.8,382.6,75z"/>
			<g>
				<path class="st164" d="M383.9,110c0.2,0.4,5,7.5,3.8,9.4c-1.2,1.9-6.1-0.8-8.8-3.2c-2.7-2.4-4.7-5.3-2.5-7.7
					c1.1-1.2,0.9,1,3.3,1.1C382.2,109.7,383,108.5,383.9,110z"/>
				<path class="st58" d="M399.6,82.5c-0.3-1.9-2.3-2.6-3.9-3.2c-2.8-1.1-5.5-1.2-8.5-1.2c-4.3,0-8.9-0.1-13.3-0.3
					c-1.4-0.1-5.4-0.9-6.6-1.6l2.2,7.1l1.3,0.8c-0.1,0.1,3.1,0.8,3.1,0.8c0,0,9.3,1.3,9.5,2.5c0.2,1.2-5.7,17.6-7.4,19.4
					c-1.7,1.8,5.4,3.5,8.2,5.6c2.8,2.1,1.2,0.1,9.4-15.4c1.5-2.7,2.9-5.5,4.1-8.4C398.5,86.6,399.9,84.6,399.6,82.5z"/>
			</g>
			<g>
				<g>
					<path class="st58" d="M372.6,82.1c-4.8,0.9-15.9,4.1-14.9-4.4c0.4-3.8,0.4-8.8,1.1-12.6c0.7-4,1.3-8.7,5.6-9.6
						c3.4-0.7,6.8-0.9,10.2-0.5c1,0.1,2.1,0.4,3,0.9c1.1,0.6,1.3,1.5,1.7,2.7c1.2,2.9,1.8,6.1,2.1,9.2c0.2,2.2,0.1,4.4,0.5,6.6
						c0.4,2.3,1.5,3.8,3.3,5.2c0.8,0.6,0.5,0.4,0,1.7C384.4,83.3,377.3,81.2,372.6,82.1z"/>
				</g>
				<path class="st62" d="M367.5,57.6c0.3,1.4,1,2.8,3,2.8c3.8,0.1,4.5-1.1,4.3-2.1c-0.3-1-1.8-3.5-1.8-3.5v-5.8h-5.6v6
					c0,0-0.1,0.8,0,1.8L367.5,57.6z"/>
			</g>
			<g>
				<g>
					<path class="st61" d="M364.3,30.7c-5.9,0.4-5.6,2-4.1,2.2c-1-0.2-2.3,0.4-2.9,1.3c-0.2,0.2-0.2,0.6-0.1,0.8
						c0.2,0.3,0.5,0.3,0.9,0.4c0.8,0.1,1.7,0,2.5-0.2c-1.3,0.3-2.6,0.7-3.8,1.3c-1.1,0.5-2.9,2.4-0.4,2.6c-0.9,0.6-1.4,1.4-1,2.5
						c0.3,0.9,1,1,1.7,0.9c-0.6,0.8-1,1.6-0.8,2.4c0.4,1.4,1.7,0.7,2.8-0.3c-1.1,1.4-1.9,3.1,0.5,3.5c4.1,0.7,6-11.1,12.6-11.4
						C372.2,36.7,370.2,30.4,364.3,30.7z"/>
					<path class="st58" d="M372.7,35.7c0,0-1.1-2.5-4.3-1.2c-3.2,1.3-2.7,4-2.1,4.5C366.9,39.5,373,37.2,372.7,35.7z"/>
				</g>
				<g>
					<path class="st62" d="M377.5,44.4c0.4,2.3-0.5,5.1-1.5,7.1c-1.1,2.4-3.2,3.9-5.9,3.2c0,0-4.2-0.5-4.8-6c0,0-3.1-0.3-2.7-2.8
						c0.1-0.8,0.4-1.6,1.3-1.9c0.4-0.2,0.7,0,1.1-0.3c0.4-0.2,0.6-0.8,0.9-1.1c1-1.1,2-2.1,3.2-2.9c3.6-2.2,6.6,0,8.2,3.6
						C377.3,43.6,377.4,44,377.5,44.4z"/>
					<path class="st62" d="M373.3,44.9c-1.6,3-0.1,4.6-0.1,5.4c-0.1,0.8-1.6-0.1-2.2-1.2"/>
				</g>
				<path class="st61" d="M364.9,44.4c0.5,0.3,0.3,1,0.7,1.4c0.5,0.5,0.8-0.2,1-0.6c1.2-2.1,1.2-3.5,1.2-3.5s-0.1,4.3,2.3,1.9
					s2.3-3.6,2.3-3.6s-0.1,5.2,2,3.6c2.1-1.6,1-3.2,1-3.2s-0.5,6.2,1.4,5.9c1.9-0.3,2-2.7,2-3c0-0.2,2.5,1.7,1.8-1.3
					c-1.1-4.7-6.8-7.5-11.3-6.4c-2.5,0.6-4.5,2.2-5.9,4.4c-2.5,3.7-1.3,8.1,2.3,10.5c0,0,0.6-2-0.6-2.9c-0.7-0.5-1.3-1.5-1.3-2.4
					c0-0.5,0.3-1.3,1-1.1C364.8,44.3,364.8,44.4,364.9,44.4z"/>
			</g>
			<g>
				<path class="st164" d="M373.8,110c0.2,0.4,5,7.5,3.8,9.4c-1.2,1.9-6.1-0.8-8.8-3.2c-2.7-2.4-4.7-5.3-2.5-7.7
					c1.1-1.2,0.9,1,3.3,1.1C372,109.7,372.8,108.5,373.8,110z"/>
				<path class="st58" d="M389.5,82.5c-0.3-1.9-2.3-2.6-3.9-3.2c-2.8-1.1-5.5-1.2-8.5-1.2c-4.3,0-8.9-0.1-13.3-0.3
					c-1.4-0.1-5.4-0.9-6.6-1.6l2.2,7.1l1.3,0.8c-0.1,0.1,3.1,0.8,3.1,0.8c0,0,9.3,1.3,9.5,2.5c0.2,1.2-5.7,17.6-7.4,19.4
					c-1.7,1.8,5.4,3.5,8.2,5.6c2.8,2.1,1.2,0.1,9.4-15.4c1.5-2.7,2.9-5.5,4.1-8.4C388.4,86.6,389.8,84.6,389.5,82.5z"/>
			</g>
			<g>
				
					<ellipse transform="matrix(0.9253 -0.3792 0.3792 0.9253 0.2322 150.2087)" class="st63" cx="381.5" cy="74.5" rx="8.1" ry="8.1"/>
				<g>
					<path class="st56" d="M373.5,74.1c0,0,1.8-1.9,7.1,2.2c0,0-0.3,6.3,3.8,5.9"/>
					<path class="st56" d="M380.5,66.6c0,0,2.5-0.2,5.3,2.4c0,0,1.3,4.4-5.2,7.3"/>
					<path class="st56" d="M385.7,68.9c0,0,1,0.1,1.8,0.7"/>
					<path class="st56" d="M385.3,72.1c0,0-5.3-5.8-8.8-3.9"/>
					<path class="st56" d="M384,74c0,0-7-4.6-9.6-3.2"/>
					<path class="st56" d="M377.1,74.1c0,0-0.2,7.3,3.4,8.3"/>
					<path class="st56" d="M375.4,73.7c0,0-1.7,4.9,0.9,7.1"/>
					<path class="st56" d="M381.2,80c0,0,7.9-3.9,7.1-9.6"/>
					<path class="st56" d="M382.2,81.5c0,0,7.6-2.3,7.3-7.9"/>
				</g>
			</g>
			<path class="st62" d="M386,68.6c-0.5-0.7-2.5-1.3-3.1-1.4c-0.6-0.2-5.9,0.6-6.5,0.7c0,0-6.8,1.8-9.6,1c-0.7-0.2-1.7-0.4-2.9-0.4
				l0,0l0,0c2.3-4.9,2.6-10.6-1.5-11.6c-7-1.7-8.5,11.9-8.8,16.9c-0.2,0.7-0.2,1.3-0.1,1.7c0,0,0,0.1,0,0.1c0,0,0,0,0,0
				c0.6,1.4,2.9,1.2,5,1.2c3,0,14-3.1,15.6-4.2c0,0,2.2-1.8,3.2-1.6c1,0.2,2.3-0.7,2.5-0.6c0.2,0.1,1.4,0.9,1.8,0.9
				c0.4,0,0.5-0.3,0.5-0.6c-0.1-0.3-1-1.1-1-1.1s0.6-0.1,1.5,0.1c0.9,0.2,2.2,1.4,2.9,1.6c0.7,0.2,0.3-0.9,0.3-0.9s0,0,0.5,0.1
				C387,70.5,386.6,69.3,386,68.6z"/>
		</g>
		<g>
			<g>
				<g>
					<path class="st61" d="M414.6,116.6c0,2.3-1.7,4.2-3.9,4c-2.1-0.1-3.9-2.1-3.9-4.5s1.7-4.2,3.9-4
						C412.9,112.3,414.6,114.3,414.6,116.6z"/>
					<path class="st59" d="M413.1,116.6c0,1.5-1.1,2.6-2.4,2.6c-1.3-0.1-2.4-1.4-2.4-2.9c0-1.5,1.1-2.6,2.4-2.6
						C412,113.8,413.1,115.1,413.1,116.6z"/>
					<path class="st61" d="M410.4,116.5c0,0.3-0.2,0.4-0.4,0.4c-0.2,0-0.4-0.2-0.4-0.5c0-0.3,0.2-0.4,0.4-0.4
						C410.2,116,410.4,116.2,410.4,116.5z"/>
				</g>
				<path class="st143" d="M410,111.7c-0.3,0.7,0.4,4.8,0.4,4.8"/>
			</g>
			<g>
				<g>
					<path class="st61" d="M405.3,119.3c0,2.3-1.7,4.2-3.9,4c-2.1-0.1-3.9-2.1-3.9-4.5s1.7-4.2,3.9-4
						C403.6,115,405.3,117,405.3,119.3z"/>
					<path class="st59" d="M403.8,119.3c0,1.5-1.1,2.6-2.4,2.6c-1.3-0.1-2.4-1.4-2.4-2.9c0-1.5,1.1-2.6,2.4-2.6
						C402.7,116.5,403.8,117.8,403.8,119.3z"/>
					<path class="st61" d="M401.1,119.2c0,0.3-0.2,0.4-0.4,0.4c-0.2,0-0.4-0.2-0.4-0.5c0-0.3,0.2-0.4,0.4-0.4
						C400.9,118.7,401.1,118.9,401.1,119.2z"/>
				</g>
				<path class="st143" d="M402,112.9c0,0-1.1,0.8-1.3,1.5c-0.3,0.7,0.4,4.8,0.4,4.8"/>
			</g>
			<g>
				<path class="st91" d="M382.2,111.5c0,0,33.5-2,32.6-1c-1,1-5.8,4.6-19.8,5.2c-14,0.6-19.8,0.3-19.8,0.3c-2.7-0.2-3-1.4-0.7-2.8
					C374.5,113.2,378.3,111,382.2,111.5z"/>
				<path class="st56" d="M382.2,111.5c0,0,33.5-2,32.6-1c-1,1-5.8,4.6-19.8,5.2c-14,0.6-19.8,0.3-19.8,0.3c-2.7-0.2-3-1.4-0.7-2.8
					C374.5,113.2,378.3,111,382.2,111.5z"/>
			</g>
			<g>
				<path class="st141" d="M366.8,89.2l13-3c2.7-0.6,6.1,0.8,7.5,3.1l14.1,22.8"/>
			</g>
			<g>
				<g>
					<path class="st102" d="M375.3,107.9c0,0,8.4-0.2,8.9,0s14.8-4.1,18.3,1.7c3.5,5.8,0,5.5,0,5.5c-2.7-0.3-5.1,1.5-5.3,4
						c0,0,0,0-3,0.5c-3,0.5-6.4,0.6-6.4,0.6c-2.7,0.1-7.2,0.1-10,0.1l-7.5-0.1c-2.7,0-4-2.1-2.9-4.6
						C367.4,115.5,371,108,375.3,107.9z"/>
					<path class="st56" d="M375.3,107.9c0,0,8.4-0.2,8.9,0s14.8-4.1,18.3,1.7c3.5,5.8,0,5.5,0,5.5c-2.7-0.3-5.1,1.5-5.3,4
						c0,0,0,0-3,0.5c-3,0.5-6.4,0.6-6.4,0.6c-2.7,0.1-7.2,0.1-10,0.1l-7.5-0.1c-2.7,0-4-2.1-2.9-4.6
						C367.4,115.5,371,108,375.3,107.9z"/>
				</g>
				<path class="st165" d="M373.6,112h10.7c0,0,15.8-2.6,17.4-3.4"/>
				<path class="st165" d="M370.1,117.1c0,0,12.8-0.1,14,0s19.1-5.6,19.1-5.6"/>
			</g>
			<g>
				<g>
					<g>
						<path class="st32" d="M338.8,117.4c-1.6,1.7-4.1,1.8-5.6,0.2s-1.3-4.2,0.3-5.9c1.6-1.7,4.1-1.8,5.6-0.2
							C340.6,113.1,340.5,115.7,338.8,117.4z"/>
						<path class="st59" d="M337.7,116.3c-1,1.1-2.6,1.2-3.5,0.2c-0.9-1-0.8-2.7,0.2-3.7c1-1.1,2.6-1.2,3.5-0.2
							C338.9,113.5,338.8,115.2,337.7,116.3z"/>
						<path class="st32" d="M335.9,114.4c-0.2,0.2-0.4,0.2-0.6,0c-0.2-0.2-0.1-0.5,0-0.6c0.2-0.2,0.4-0.2,0.6,0
							C336.1,113.9,336,114.2,335.9,114.4z"/>
					</g>
					<path class="st143" d="M345,110.6c0,0-5.4-0.3-6.1,0c-0.7,0.3-3.5,3.1-3.5,3.1"/>
				</g>
				<g>
					<ellipse transform="matrix(0.5 -0.866 0.866 0.5 92.9108 360.4728)" class="st61" cx="358.6" cy="99.8" rx="22.6" ry="20.4"/>
					<ellipse transform="matrix(0.5 -0.866 0.866 0.5 92.9087 359.9298)" class="st59" cx="358.2" cy="99.5" rx="19.7" ry="17.2"/>
					<path class="st61" d="M356.8,98.7c-1,1-2.5,1.1-3.4,0.1c-0.9-1-0.8-2.6,0.2-3.6s2.5-1.1,3.4-0.1
						C357.8,96.1,357.8,97.7,356.8,98.7z"/>
				</g>
			</g>
		</g>
	</g>
	<g>
		<g>
			<g>
				<path class="st62" d="M455.7,3.9c0.3-1.4,1.6-1.1,1.6-1.1c0.3-1.5,1.6-1,1.6-1c-0.9-0.6-0.4-2,0.2-1.6c0.6,0.4,3.2,0.9,3.2,0.9
					s1.3,2.7,1.6,4.7c0.3,2-1.6,2.4-1.8,2.5c0,0,0,0,0,0.1c1.1,1.7,7.5,11,8.3,15.1c2.3,1.6,4.6,3.6,6.7,4.6
					c4.2,1.9,5.1,6.4,4.5,9.2c-0.5,2.6-3.4,2-5.4,1c-0.5-0.2-1-0.5-1.3-0.7c-2.8-1.8-5.4-4.4-7.4-7.2c-0.3-0.4-1.2-1.8-2.1-3.3
					c-3-3.7-6.4-13.8-7.1-15.9c-0.2,0-0.5,0-0.9-0.1c-0.8-0.1-2.5-4.1-2.7-5.1C454.5,4.8,455.6,4.2,455.7,3.9z"/>
			</g>
			<g>
				<path class="st62" d="M485.4,55.2c3.8-0.5,7.3,1.5,8.7,4.7c0,0,0,0,0,0s7.3,11.3,8.1,19.8c0,0,0.1,0,0.1,0s0,0.2,0,0.7
					c0.1,1,0,2-0.2,2.9c-0.3,4.6-1.1,13.3-2.8,22.3l0,0c0,0,0,0,0,0c0,0.1,0,0.1,0,0.2c-0.1,0.4-0.1,1.6,1,2.7
					c1.4,1.3,2.2,2.7,3,3.4c0.8,0.7,4.4,4.1,4.8,4.5c0.4,0.4-0.3,0.5-0.6,0.8c-0.3,0.3-0.3,0.5-0.7,0.6c-0.4,0.2-0.5,1.1-1.9,1
					c-1.4-0.1-0.9-1-2.1-1.2c-1.2-0.2-1.4-0.5-2.4-1.2c-1-0.7-3.6-2.2-5.5-2.2c-1.9,0-3.1-1.4-3-3.1c0.1-1.7,1.2-2.9,1.4-5.3
					c0,0,0,0,0,0c-1.6-6-4.5-18.4-0.5-23.1c0,0,0,0,0,0c-6.8-5.1-14.7-14.7-14.5-18.3C477.7,60,480.9,55.9,485.4,55.2z"/>
				<path class="st58" d="M495.6,58.9c0,0,3.6,10.1,5.5,13s-8.6,8.8-10.3,10c-1.7,1.2-10.3-11.2-10.8-13.2
					C479.5,66.7,492.1,53.9,495.6,58.9z"/>
			</g>
			<g>
				<path class="st62" d="M491.2,29.6c4.8,0,6.8,8,10.9,14.1c2.9,4.9,5.1,12.4,6,13c0.9,0.6,3.1,3.9,3.1,4.8c0,0.9-2.1,4.2-3.7,4.9
					c-1.6,0.7-0.1-1.9-0.1-1.9s-2.3,1.2-2.7,0.9c-0.4-0.3,0.9-2,0.9-2s-0.8-1-1.4-2.4c-0.6-1.4-1-3.1-1-4c0-0.9-10.3-9.5-11.5-16.1
					C490.5,34.4,486.3,29.6,491.2,29.6z"/>
				<path class="st166" d="M504.5,61.8c0.2,0.4,0.8,2,1.5,2c0.7-0.1,0.4-1.3,0.4-2c0-0.7,0.8-1.7,0.8-1.7s0.9,1.5,1.2,1.9
					c0.3,0.4-1.2,2.2-1.5,3.3"/>
			</g>
			<g>
				<path class="st59" d="M484,111.3c0,0-0.1,1.4,0.7,2.1s2.7,4,4.2,4.9c1.5,0.9,3.2,1.4,3.7,1.8c0.5,0.4-0.2,1.3-0.8,1.4
					c-0.7,0,0,0.3-0.8,0.6s-0.8,0.9-1.2,0.9c-0.4,0-0.7,0.6-1,0.4c-0.3-0.2-1.4-0.7-1.7-0.7c-0.3,0-4.9-1.6-7.7-2.8
					c-2.8-1.1-4.2-2-2.8-6c1.4-4.1,0.9-3.7,2.5-3.5C480.8,110.6,484.4,110.4,484,111.3z"/>
				<path class="st61" d="M486.3,65.3C486.3,65.3,486.3,65.3,486.3,65.3c0,0,1.9,18.8-4,25.1c-5.9,6.3-13.9-23.2-11-28.2
					c1.4-4.2,5-6.5,9.3-5.1C484.3,58.4,486.5,61.8,486.3,65.3z"/>
				<path class="st102" d="M482.5,112.1c0.5,0,1.2-0.6,1.4-1.6c2-14,1.7-27.2,1.7-27.2s-2.4-1.5-5.5,0.1c-1.2,0.6,3.1,10.6-2.9,6.5
					c-4.9-3.4-1.2,12.1,0.8,19.5c0.5,1.7,0.4,2,1,2.4C479.6,112.2,482,112.1,482.5,112.1z"/>
				<path class="st167" d="M481.8,82.8c0,0,2.6,14.5,0,13.5c-2.6-0.9-3.7-6.6-4.6-3.6c-0.8,2.8,0.1,6.4,0.6,9.1
					c0.5,2.6,2,9.9,6.1,7.4"/>
			</g>
			<path class="st58" d="M473.2,56.3c1-2.1,2-3.9,2.2-4.2c0,0,1.5-3.6,1.7-4.6c0.8-4.1-4.5-11.3-2.6-15c0.6-1.1,1.3-2.2,2.3-3
				c1.4-1.2,3.4-1.5,5.1-1.5c2.2,0,4.5-0.1,6.6,0.6c4.4,1.3,9.1,4.8,9.5,9c0.3,4-1.6,7.4-1.5,11.4c0.3,9,0.3,13.7,0.3,13.7
				c-2.3,4.5-5.3,6.7-8.3,7.5c0,4.7-0.2,8.8-0.7,9c-1.3,0.4-15,3.7-17,1.6C468.8,78.8,467.4,63.7,473.2,56.3z"/>
			<g>
				<path class="st62" d="M487.3,28.3c0.9,0.9,1.8,1.8,2.5,2.9c0.4,0.5,1.2,1.4,0.6,2.1c-0.2,0.2-0.5,0.3-0.7,0.4
					c-3.3,0.9-5.9-1.2-7.6-3.8c-0.2-0.3-0.9-1.3-0.6-1.7c0,0,0.2-3,0.5-3.3c1-0.8,3.3,0.4,5.4,1.1C487.5,25.9,487.2,28.2,487.3,28.3
					z"/>
				<path class="st62" d="M478.3,19.5c-0.5-4.6,1.9-8.7,5.4-9.2c3.5-0.4,6.8,3,7.4,7.6c0.3-0.3,1.5-1.2,1.6-0.1
					c0.1,1.2-1.2,4.1-1.7,3.2c-0.5,3.3-2.6,5.9-5.4,6.2c-2.8,0.3-5.4-1.7-6.7-4.9c0,0,0,0,0,0c-0.2,1.3-2.2-1.3-2.4-2.6
					C476.5,18.4,478.3,19.5,478.3,19.5z"/>
				<path class="st62" d="M484.4,16.5c0.8,4.2,1.8,4.5,2.1,5.2c0.2,0.8-1.6,0.6-2.7-0.2"/>
				<path class="st61" d="M491.1,17.9c0,0-2.8,0.2-3-3.5c0,0-2.7,2.4-5.1,0c0,0-0.5,3.3-3.2,3.5c0,0,0.2,1.9-1.4,1.6
					c0,0-2.2-5.3,0-7.4s5.9-3.1,8.7-1.8C489.8,11.6,491.4,13.8,491.1,17.9z"/>
				<path class="st59" d="M491.8,20.7c0,0-1.3-7.2-6.9-7.2c-5.6,0-7,8.4-7,8.4c-0.5,0.2-1-0.9-1.5-2.3c-0.5-1.4-0.4-2.1-0.6-3.3
					c-0.4-3.3,1.9-5.9,4.6-7.4c2.9-1.7,6.4-1.6,9,0.6C495.9,15,491.8,20.7,491.8,20.7z"/>
				<g>
					<g>
						<g>
							<path class="st168" d="M485.4,11.3c-0.2,0.6,0.7,1.4,1.9,1.9c1.3,0.5,2.4,0.4,2.7-0.2c0.2-0.6-0.7-1.4-1.9-1.9
								C486.8,10.7,485.6,10.8,485.4,11.3z"/>
							<path class="st162" d="M490,13c0,0-0.5,1.8-2.7,0.8c-2.2-1-2.1-1.2-1.8-2.4"/>
						</g>
						<path class="st162" d="M489.7,13.5c0,0,3.7,2,3.3,3.4"/>
					</g>
					<g>
						<g>
							<path class="st168" d="M483.7,11.5c0.2,0.6-0.7,1.4-1.9,1.9c-1.3,0.5-2.4,0.4-2.7-0.2c-0.2-0.6,0.7-1.4,1.9-1.9
								C482.3,10.9,483.5,11,483.7,11.5z"/>
							<path class="st162" d="M479.1,13.2c0,0,0.5,1.8,2.7,0.8c2.2-1,2.1-1.2,1.8-2.4"/>
						</g>
						<path class="st162" d="M479.4,13.7c0,0-3.7,2-3.3,3.4"/>
					</g>
					<path class="st162" d="M485.3,12.2c0,0-0.7-0.6-1.5,0"/>
				</g>
			</g>
		</g>
		<g>
			<path class="st166" d="M455.7,3.9c0,0,1.1,0.1,1.8,1.2c0.7,1.1,0.7,1.3,0.4,1.7c-0.3,0.4-1.3,0.4-1.7-0.5"/>
			<path class="st166" d="M457.2,2.8c0,0,0.9-0.4,1.5,0.8c0.6,1.2,0.6,1.8,0.3,2.1c-0.3,0.4-1.2,0.2-1.2,0.2"/>
			<path class="st166" d="M458.9,1.8c0,0,1.2,0.7,1.5,2s-0.6,1.5-1.1,1.1"/>
			<path class="st166" d="M459.6,2.4c0,0,0.7,0.4,1.3,0.2"/>
			<path class="st166" d="M460.1,5.6c0,0-1.1,0.9-0.6,2.2"/>
		</g>
	</g>
	<g>
		<g>
			<path class="st61" d="M865.1,34.7c0,0-2.2,7.2-8.4,8.7c-6.2,1.5-6.9,1.3-6.9,1.3s1.3,5.2,3.2,6.3c0,0,4.5-0.9,6.2-2.2
				c0,0-4,2.7-5.7,3c0,0,2.8,6.4,9.9,8c7,1.7,15.3,0.2,18.6-6.3c0,0-2.5-5.8-2.2-17.1C879.8,36.5,868.3,30.1,865.1,34.7z"/>
			<g>
				<g>
					<g>
						<path class="st62" d="M873,89c0.9-4.2-0.6-10.3-1.8-13c-1.2-2.6-5.3-2.6-5.3-2.6s-4.4,0.3-4.3,3.3c-0.5,3.6-2.7,8.7-2.3,12.3
							c0.2,1.8,0,3.6,0.3,5.3c-0.1,0.4-0.1,0.9-0.1,1.3c0.1,0.7,0.2,1.5,0.3,2.2c0.2,1.2,0.5,2.4,0.8,3.5c0.9,3.5,2,7,3.3,10.3
							c1-0.4,4.5-0.3,5.4-1c0.2-1.6,1.1-9.6-0.4-14.3C871.3,94.5,872.4,91.8,873,89z"/>
						<g>
							<path class="st61" d="M870.2,108.8c-0.1-0.2-0.3-0.4-0.6-0.5c-0.5-0.2-1.2-0.1-1.5,0.4c-1,1.2-2.5,1.8-3.5,1.8
								c-1,0-0.7-1-1.4-0.2c-0.7,0.7-3.9,3.4-5.1,3.3c-1.2-0.1-3-0.4-3.4,1.1c-0.4,1.5,2.5,3.5,4.6,3.7c2.1,0.2,5.3-0.5,6-0.1
								c0.7,0.4,6.4,0.2,6.9-1.7c0.3-1.3-0.4-2.6-1-3.6c-0.6-1-1.1-1.9-1-3.2C870.2,109.3,870.2,109.1,870.2,108.8z"/>
							<path class="st145" d="M872.2,115.5c0,0.2-0.9,1.1-2.5,1.4c-1.4,0.3-2.9,0.3-4.3,0.3c-0.7,0-1.5,0-2.2,0
								c-0.7,0-1.4,0.2-2.1,0.2c-1.2,0-2.5-0.1-3.6-0.6c-1.1-0.5-2.3-1.2-2.7-2.4"/>
							<path class="st145" d="M860.7,112.2c0,0,1.2,0.2,1.6,1"/>
							<path class="st145" d="M861.7,111.5c0,0,1.3-0.3,1.8,0.6"/>
						</g>
						<g>
							<path class="st58" d="M860.7,77.1c0,0-2.8,11.3-0.9,14c1.9,2.7,12.7,0.8,12.7,0.8s5.8-15.3,4.6-15.9
								C877.6,74,864.2,72,860.7,77.1z"/>
						</g>
					</g>
					<g>
						<path class="st62" d="M883.1,74.4c-1.6-3.5-2.1-6.5-7-4.2c-4.1,1.9-6.6,5.4-6.5,8.5c-0.5,3.8-0.6,7.7-0.1,11.5
							c0.3,2.4,0.8,5,1.9,7.2c-0.1,0-0.1,0.1-0.1,0.1s-0.5,8.6,1.5,18.5c1.1-0.2,4.7,0.5,5.7,0.1c0.6-1.9,4.1-13.1,1.4-17.3
							c0.2-0.2,0.4-0.3,0.6-0.5c2.3-2.1,3.6-5,4.2-8C885.5,85.9,886.2,78.1,883.1,74.4z"/>
						<path class="st58" d="M868.5,71.9c0,0-0.8,20.5,0.4,20.9c1.1,0.4,13.7,3.5,15.6,1.5c1.8-2,3.1-18.4-3.6-24.6
							C874.1,63.5,868.5,71.9,868.5,71.9z"/>
						<g>
							<path class="st61" d="M879.3,113.4c-0.1-0.2-0.3-0.4-0.6-0.5c-0.6-0.2-1.2-0.1-1.6,0.4c-1,1.2-2.6,1.8-3.6,1.8
								c-1,0-0.7-1-1.5-0.2c-0.8,0.8-4.1,3.5-5.3,3.4c-1.2-0.1-3.1-0.4-3.5,1.1c-0.4,1.6,2.6,3.6,4.8,3.8c2.2,0.2,5.5-0.5,6.2-0.1
								c0.7,0.4,6.6,0.2,7.1-1.8c0.4-1.3-0.4-2.7-1.1-3.7c-0.7-1.1-1.2-2-1-3.3C879.4,113.9,879.4,113.6,879.3,113.4z"/>
							<path class="st145" d="M881.4,120.3c0,0.2-0.9,1.2-2.6,1.5c-1.5,0.3-3,0.3-4.4,0.3c-0.8,0-1.5,0-2.3,0
								c-0.7,0-1.4,0.2-2.1,0.2c-1.2,0-2.6-0.1-3.7-0.7c-1.1-0.5-2.4-1.2-2.8-2.5"/>
							<path class="st145" d="M869.6,116.9c0,0,1.2,0.2,1.7,1.1"/>
							<path class="st145" d="M870.6,116.1c0,0,1.3-0.3,1.8,0.6"/>
						</g>
					</g>
					<path class="st62" d="M869.5,50.2c-0.9-1.9-2.9-1.7-4.4-1.2c-0.3,0.1-1.6,0.7-1.9,0.8c-1.9,1.1-2.6,1.9-4.8,4.5
						c-0.8,0.9-1.3,2.1-1.6,3.3c-0.1,0.1-0.1,0.1-0.2,0.2c-2,2.2-3.5,13.5-3.5,13.5s0,0,0.1,0.1c-0.1,0.4-0.2,0.7-0.3,0.8
						c-0.7,0.8-2.1,4.6-1.8,5.5c0.2,0.9,3.1,3.5,4.8,3.8c1.7,0.3-0.3-1.9-0.3-1.9s2.5,0.6,2.8,0.2c0.3-0.4-1.4-1.7-1.4-1.7
						s0.5-1.1,0.7-2.7c0.1-1,0.2-2.2,0.1-3.1c1.3-2.4,4.6-8.4,4.5-11.2c2.2-1,4.2-2.7,5.5-3.9C870.1,55.5,870.5,52.3,869.5,50.2z"/>
					<g>
						<g>
							<g>
								<path class="st121" d="M861,79.4c-2.8-0.8-1.1-0.9-0.8-9.9c0.1-4-1.8-7.4-1.5-11.4c0.3-4.2,5.1-7.8,9.5-9
									c2.1-0.6,4.4-0.6,6.6-0.6c1.7,0,3.8,0.3,5.1,1.5c1,0.8,1.7,1.9,2.3,3c1.9,3.7-1.9,9.4-1.1,13.5c0.4,2.2,2.1,3.9,2.6,6.1
									c0.6,2.7-0.8,3.5-3.1,4.5c-3,1.3-6.3,2.2-9.6,2.5C867.9,79.9,863.9,80.2,861,79.4z"/>
							</g>
						</g>
					</g>
					<g>
						<path class="st62" d="M896.9,28.2c-0.3-1.4-1.6-1.1-1.6-1.1c-0.3-1.5-1.6-1-1.6-1c0.9-0.6,0.4-2-0.2-1.6
							c-0.6,0.4-3.2,0.9-3.2,0.9s-1.3,2.7-1.6,4.7c-0.2,1.5,0.9,2.1,1.5,2.4c-0.1,0.3-6.5,9.5-6.5,13.3c-2.5,1-4.9,2.8-6.4,3.9
							c-2.6,2-3.3,5.6-2.4,8c0.8,2.3,3.2,2.1,4.8,1.6c0.4-0.1,1.9-0.6,2.2-0.8c2.2-1.1,3.1-2,5.7-4.7c0.9-1,1.6-2.3,2.1-3.6
							c0.1-0.1,0.1-0.1,0.2-0.2c2.3-2.1,4.5-13,4.8-14.7c0.2,0,0.4,0,0.6-0.1c0.8-0.1,2.5-4.1,2.7-5.1
							C898.1,29.1,897,28.5,896.9,28.2z"/>
						<g>
							
								<ellipse transform="matrix(0.9228 -0.3852 0.3852 0.9228 58.839 346.8531)" class="st59" cx="895" cy="26.6" rx="5.8" ry="5.8"/>
						</g>
					</g>
					<g>
						<g>
							<path class="st62" d="M875.2,48.5c0,0-0.1,0-0.2-0.1l-0.2-4.5l-5.8,0.5l0.4,4.3l0,0c-0.9,0.9-1.8,1.8-2.5,2.9
								c-0.4,0.5-1.2,1.4-0.6,2.1c0.2,0.2,0.5,0.3,0.7,0.4c3.3,0.9,5.9-1.2,7.6-3.8C874.8,49.9,875.5,48.9,875.2,48.5z"/>
							<path class="st62" d="M878.3,39.9c0.5-4.6-1.9-8.7-5.4-9.2c-3.5-0.4-6.8,3-7.4,7.6c-0.3-0.3-1.5-1.2-1.6-0.1
								c-0.1,1.2,1.2,4.1,1.7,3.2c0.5,3.3,0.3,6.9,5.4,7c5.1,0.2,5.4-2.6,6.7-5.8c0,0,0,0,0,0c0.2,1.3,2.2-1.3,2.4-2.6
								C880.1,38.9,878.3,39.9,878.3,39.9z"/>
							<path class="st62" d="M872.2,36.9c-0.8,4.2-1.8,4.5-2.1,5.2c-0.2,0.8,1.6,0.6,2.7-0.2"/>
						</g>
						<g>
							<path class="st61" d="M866.5,31.8c-1.6,2-2,4.7-1,7.1c0.1,0.2,0.3,0.5,0.3,0.5c0,0,0.1-0.4,0.1-0.4c0.1-0.3,0.2-0.6,0.3-0.9
								c0.2-0.6,0.5-1.1,0.8-1.6c1.1-1.6,2.7-2.6,4.4-3.2c0,0,0,0,0,0c-0.4,1.4-3.9,3.8-4.8,4.1c0,0,0,0-0.1,0.1l0.3,0
								c4.8,0.4,11.1-5,11.1-5C874.9,27.6,869.6,27.9,866.5,31.8z"/>
							<path class="st61" d="M876.2,32.4c0,0-1,7.5,1.9,8c0,0,3.8-3.4,0-7.9C878.1,32.4,875.8,30.8,876.2,32.4z"/>
						</g>
					</g>
				</g>
				<path class="st166" d="M857.7,76.3c-0.1,0.5-0.3,2.2-1,2.3c-0.7,0.1-0.8-1.2-0.9-1.9c-0.2-0.7-1.2-1.5-1.2-1.5s-0.5,1.7-0.7,2.1
					c-0.2,0.4,1.7,1.8,2.2,2.8"/>
			</g>
		</g>
		<path class="st62" d="M888.8,30c0,0-0.6-3.6,1.6-4.7c2.2-1.1,0.2,2.7,0.4,3.3s1.6,1.6,1.4,3.4C892,33.9,888.8,30,888.8,30z"/>
		<polygon class="st89" points="888.8,29.6 888.8,30.3 891.8,33.6 892.5,32.6 		"/>
	</g>
	<line class="st56" x1="1081.1" y1="123.3" x2="0" y2="123.3"/>
</g>
</svg>
