<svg id="Layer_1" data-name="Layer 1" xmlns="http://www.w3.org/2000/svg" viewBox="0 0 1081.07 89.24"><line x1="1081.07" y1="89.18" y2="89.18" fill="none" stroke="#2a3f55" stroke-miterlimit="10" stroke-width="0.21"/><path d="M593.11,55.26a2.7,2.7,0,0,0,.53-1.24,5.52,5.52,0,0,0-.09-1.67,12.76,12.76,0,0,0-.42-2c-.59-1.81-2-3.28-2.51-5.1a11.17,11.17,0,0,0-1.08,2,6.61,6.61,0,0,1-3.12,2.52,15.46,15.46,0,0,1-7.19.88,7.07,7.07,0,0,0-2.86,0c-.56.17-.65.73-1.64,1.17a3.18,3.18,0,0,1-2,.52,1.76,1.76,0,0,1-1.47-.59,9,9,0,0,0-.34-1.24,1.94,1.94,0,0,1-.71-.86c-.17-.51-.52-1.51,1.54-3.13a24.92,24.92,0,0,1,2.57-1.58,4.8,4.8,0,0,1,1.13-.57c1.69-.51,3.55.85,5.22.28,2.12-.72,2-3.68,3.89-4.88a10.88,10.88,0,0,1,2-.87,9.68,9.68,0,0,0,6.07-6.62c.46-.35.81-.71,1.38-.66.37,0,.73.16,1.09.21a5.18,5.18,0,0,0,1.18,0l1.72-.15a.86.86,0,0,1,.32,0,.83.83,0,0,1,.3.18,8.42,8.42,0,0,0,2,1.36,2.55,2.55,0,0,0,2.33-.05A8.37,8.37,0,0,1,606.31,32a9,9,0,0,1,4.47.9A10.74,10.74,0,0,1,614,34.86c.77.72,1.36,1.61,2.14,2.31a6,6,0,0,0,3.51,1.49c1.62.12,3.35-.39,4.79.35a6,6,0,0,1,2.14,2.34,15.29,15.29,0,0,1-1.78,2.39,1.88,1.88,0,0,1-.61.48,1.8,1.8,0,0,1-1,0,18.06,18.06,0,0,0-5.4-.56c-1.13.15-2.21.58-3.35.69-2.92.27-5.61-1.64-7.62-3.78-.27-.29-.64-.61-1-.47-.15.06-.59.47.11,2.18.39,1,1.84,2.33,2.2,3.3a5.11,5.11,0,0,1-.18,3.13,29.15,29.15,0,0,1-1.73,5.07,9.67,9.67,0,0,1-3.42,4,9.94,9.94,0,0,1-3.63,1.26,4.47,4.47,0,0,1-2.09,0c-1.73-.52-2.57-2.59-4.24-3.29C592.92,55.47,592.91,55.52,593.11,55.26Z" fill="#2a9faa" stroke="#2a3f55" stroke-miterlimit="10" stroke-width="0.2"/><path d="M622.41,57.61c-2.78-5.41-.36-3.75-9.89-13.65a3.75,3.75,0,0,0-2.12-.79h-.15l-.3,0h-.31l-.24,0-.27,0-.19.05a3.61,3.61,0,0,0-1.5.87,13.86,13.86,0,0,0-2.86,4.5,24,24,0,0,1-2,4.32l-.15.22a31.57,31.57,0,0,1-5,1.4,5.77,5.77,0,0,1-1.93-.23c-3-.67-6.34-.57-8.89,1.15a3.49,3.49,0,0,0-1.86,3.86,1.59,1.59,0,0,0,.33.79l0,.13A5.81,5.81,0,0,0,586,62l2.85,3.79a20.25,20.25,0,0,1,2.26,3.47c.31.66.55,1.35.88,2a15.19,15.19,0,0,0,1.21,1.86c.59.83,2.3.8,2.9,1.63,2.41-.65,2.48-2.48,4.11-4.37.87-2.35-.42-2.35-.8-4.3-.09-.44-.2-.88-.32-1.31a8.42,8.42,0,0,0,1.42.12c1.82,0,4.13-1.13,4.91-2.77a1.34,1.34,0,0,0,.07-.18,3.38,3.38,0,0,0,1.87-.39,7.53,7.53,0,0,0,3.18-2.61c1.07-1.22.76-3.58.46-4.39a3.57,3.57,0,0,1-.23-1.2,11.84,11.84,0,0,1,1.87,1.59c2.13,3,2.29,6.14,2.88,7.63.75,1.87,1.67.26,2.46,2.11.11.26-.06.84.21.91a1,1,0,0,0,.8-.3c1.32-1,.45-1.63,1.76-2.65C620.85,62.56,623.57,59.87,622.41,57.61Z" fill="#ffbf55" stroke="#2a3f55" stroke-miterlimit="10" stroke-width="0.2"/><path d="M593.72,28.42a.21.21,0,0,0-.24.09.9.9,0,0,0,.69.91c.58.89.53,2.42,1.14,3.3a5,5,0,0,0,2.28,2,7.55,7.55,0,0,0,2.23.21,3.16,3.16,0,0,0,1.62-.51,1.49,1.49,0,0,0,.32-1.06c0-.85.07-1.71.11-2.57a8.2,8.2,0,0,0-.09-2.1A2.76,2.76,0,0,0,600.69,27a3.84,3.84,0,0,0-1.53-.5,4.61,4.61,0,0,0-2.78.17,14.84,14.84,0,0,0-1.32.92A7.62,7.62,0,0,1,593.72,28.42Z" fill="#ffdfaa" stroke="#2a3f55" stroke-miterlimit="10" stroke-width="0.2"/><path d="M596.09,32.31c.52-.16,1.84-.74,1.88-1.48a3.22,3.22,0,0,1,.06-1.39c.12-.32.34-.26.65-.11a1.9,1.9,0,0,1,.66.69c.29.38.56.32.95.28a3,3,0,0,0,1.1-.41,1.16,1.16,0,0,0,.59-.52,1.35,1.35,0,0,0-.16-1.08c-.19-.37-.35-.65-.54-1A.89.89,0,0,0,601,27a.67.67,0,0,0-.52,0A31.91,31.91,0,0,0,595.57,29a4.66,4.66,0,0,0-1.28.91,1.09,1.09,0,0,0-.31.79,1.45,1.45,0,0,0,.58.83c.25.21.39.51.63.74S595.77,32.41,596.09,32.31Z" fill="#2a3f55" stroke="#2a3f55" stroke-miterlimit="10" stroke-width="0.2"/><path d="M564.56,48a1.58,1.58,0,0,0-.46.63,1.51,1.51,0,0,0,.73,1.51,7.44,7.44,0,0,1,1.75,1.44,7.56,7.56,0,0,0,.65,1,2.15,2.15,0,0,0,2,.41,4.54,4.54,0,0,0,2.37-1.35.75.75,0,0,0,.18-.28.8.8,0,0,0,0-.43,4,4,0,0,0-.65-2.45c-.31-.35-.7-.74-1.16-.71-.23,0-.42.18-.65.24-.48.12-.92-.28-1.22-.67s-.64-.84-1.14-.87a1.45,1.45,0,0,0-.91.36A10.43,10.43,0,0,0,564.56,48Z" fill="#2a3f55" stroke="#2a3f55" stroke-miterlimit="10" stroke-width="0.2"/><path d="M566.16,49.53a.73.73,0,0,0,.25.6,1.59,1.59,0,0,0,.58.33,4.66,4.66,0,0,0,3.52-.16A1.38,1.38,0,0,0,570,49a5.75,5.75,0,0,0-2.91-.15C566.69,48.9,566.22,49.11,566.16,49.53Z" fill="#2a3f55" stroke="#2a3f55" stroke-miterlimit="10" stroke-width="0.2"/><path d="M628.7,50.16a.44.44,0,0,1-.15-.12c-.21-.25.12-.58.26-.88a1.36,1.36,0,0,0-.21-1.24,3.12,3.12,0,0,1-.56-1.18c-.06-.57.28-1.25-.09-1.68a1.09,1.09,0,0,0-.67-.3,11.36,11.36,0,0,0-1.65,0,2.17,2.17,0,0,1-1.55-.48,1.77,1.77,0,0,1-.21-2.07,4.2,4.2,0,0,1,1.59-1.54.73.73,0,0,1,.44-.15.67.67,0,0,1,.32.15,7.83,7.83,0,0,0,3.24,1.51,7.39,7.39,0,0,1,1,.16,2.63,2.63,0,0,1,1.67,2,6.38,6.38,0,0,1,0,2.68,5.36,5.36,0,0,1-1,2.51A2.08,2.08,0,0,1,628.7,50.16Z" fill="#2a3f55" stroke="#2a3f55" stroke-miterlimit="10" stroke-width="0.2"/><path d="M624.7,41.23c.28-.08,1,.31,1.3.41a5.59,5.59,0,0,1,2.2,1.21,2.91,2.91,0,0,1,1,1.47,1.24,1.24,0,0,1-.72,1.46,1.56,1.56,0,0,1-1.18-.33c-.34-.23-2.39-1.38-2.94-1.87-.11-.09-.69-.38-.71-.53a3,3,0,0,1,.22-.93A2.31,2.31,0,0,1,624.7,41.23Z" fill="#2a3f55" stroke="#2a3f55" stroke-miterlimit="10" stroke-width="0.2"/><path d="M594.71,30.05a51.33,51.33,0,0,1,6.64-3.1.21.21,0,0,0,.13-.29,6.21,6.21,0,0,0-2.43-2.84,3.7,3.7,0,0,0-1.62-.59c-2.64-.27-5.76.88-7,3.28a5.85,5.85,0,0,0-.66,2.62c0,2.64,2.47,4.71,5,5.56a4,4,0,0,0,2.4-.15,9.45,9.45,0,0,1-2.67-3.78A.57.57,0,0,1,594.71,30.05Z" fill="#ff3f55" stroke="#2a3f55" stroke-miterlimit="10" stroke-width="0.2"/><path d="M596.54,83.28c0,.08-.09.17-.16.12a4.32,4.32,0,0,1-2.52-.42,3.73,3.73,0,0,1-.94-1,3.18,3.18,0,0,1-.74-1.8,2.49,2.49,0,0,1,.72-1.63,7.07,7.07,0,0,1,1.43-1.12l1.28-.83a5,5,0,0,0,1-.8c.6-.66-1.72-1.26-1.48-2.11a14.78,14.78,0,0,0,5.36-4,4.91,4.91,0,0,0,2.29,3.12c1,.51,1.68-.45,3.34,2.1.71,1.08-.39,2.1-1.19,3.11a11.06,11.06,0,0,1-4.47,3.33C599,82.05,597.61,82.07,596.54,83.28Z" fill="#2a3f55" stroke="#2a3f55" stroke-miterlimit="10" stroke-width="0.2"/><path d="M618.47,67.59a5.19,5.19,0,0,0-.56-2.19,1.81,1.81,0,0,1-.13-1.67,1.87,1.87,0,0,1,.6-.55c.65-.45,1.3-.89,2-1.32s1.2-1,1.72-.69c1.13.72,1.22,1.2,2.19,1.65.4.18,1.44.11,1.82.32,1,.53,2.16,1.65,1.64,2.61-.33.59-1.72,1.22-2.29,1.59l-5.23,3.48a1.13,1.13,0,0,1-.67.25c-.32,0-.54-.3-.73-.55-.48-.67-.51,0-.34-.83C618.54,69.27,618.41,68,618.47,67.59Z" fill="#2a3f55" stroke="#2a3f55" stroke-miterlimit="10" stroke-width="0.2"/><path d="M632.15,70.64c3.74-2,6.05-3.48,8.56-6.87A8.65,8.65,0,0,0,642.54,60c.44-2.54-1-3.87-2.56-4.88-1-.61-1.78-.44-3.2.54-3.06,2.11-2.72,3.27-4.73,5.09-3.26,3-4.73,3.47-8.18,5.34-.66.35-1.16.57-1.84.88-4.33,2-19,10-23.8,12.71-2.43,1.35-4.14,2.31-7.52,4.12-.73.39-2.17,1.14-1.93,1.93a2.34,2.34,0,0,0,1,1.12c1.54,1.08,3.45,1.24,5.2,1.94a4.66,4.66,0,0,0,.89.3,4.83,4.83,0,0,0,3-.82C607,84,615.4,79.72,623.13,75.44,625.87,73.93,629.34,72.1,632.15,70.64Z" fill="#55bfaa" stroke="#2a3f55" stroke-miterlimit="10" stroke-width="0.2"/><path d="M463.64,61.52a1.08,1.08,0,0,1-.39.43,1,1,0,0,1-.78-.06,10.66,10.66,0,0,1-4-3.37l-1.61-1.91a6.87,6.87,0,0,1-.7-.91,7.87,7.87,0,0,1-.83-2.18,8.78,8.78,0,0,1-.39-2c-.06-1.67-.44-4.9.4-6.35,2.76,1.83,3.59,4.36,4.26,6l1.19,2.9a2.39,2.39,0,0,0,1.7,1.65L465,56.79c.45.19,1,.51.93,1a1.22,1.22,0,0,1-.21.48C465,59.34,464.33,60.43,463.64,61.52Z" fill="#2a9faa" stroke="#2a3f55" stroke-miterlimit="10" stroke-width="0.2"/><path d="M497,58.79a2.42,2.42,0,0,1-.71,2.23,39.41,39.41,0,0,1-3.36,3.1,9.07,9.07,0,0,1-2.43,1.56,10.54,10.54,0,0,1-3.71.5l-22.34.32a2.37,2.37,0,0,1-1-.12c-.93-.38-1.06-1.61-1-2.61a1.3,1.3,0,0,1,.37-1.09,1.28,1.28,0,0,1,.73-.17L484.06,62a16.39,16.39,0,0,0,3.21-.3,20.63,20.63,0,0,0,7-3.29,2.38,2.38,0,0,1,1.51-.53A1.41,1.41,0,0,1,497,58.79Z" fill="#55bfaa" stroke="#2a3f55" stroke-miterlimit="10" stroke-width="0.2"/><path d="M462.91,75.39c-.4.79-1,2-1.37,2.76s-.53,1.4.14,2a2.66,2.66,0,0,0,1.81.44,58.2,58.2,0,0,0,7.59-.36,1.56,1.56,0,0,0,1.05-.43,1.7,1.7,0,0,0,.26-.92l.21-3.06c-3-.9-6.13-1.8-9.17-1.1a.9.9,0,0,0-.53.27C462.78,75.14,462.71,75.34,462.91,75.39Z" fill="#55bfaa" stroke="#2a3f55" stroke-miterlimit="10" stroke-width="0.2"/><path d="M461.91,69.83c1.35.07,2.64-.11,4,0a9.88,9.88,0,0,0,4.88-.89c.64-.3,1.35-.87,1.2-1.56-.1-.45-.52-.74-.76-1.12a2.17,2.17,0,0,1,.21-2.35,6.71,6.71,0,0,1,1.91-1.6,13.45,13.45,0,0,0,2.34-1.82c1.37-1.44,2.07-3.36,3-5.13a23.39,23.39,0,0,1,3.3-4.88.54.54,0,0,0,.16-.26.61.61,0,0,0-.11-.43c-.51-.89-1.06-1.74-1.65-2.57a.74.74,0,0,0-.33-.3c-.21-.07-.44.08-.62.22-1.68,1.27-3.53,2.5-5.63,2.66-.86.06-1.73-.07-2.59,0a10.39,10.39,0,0,0-2.49.65,11.25,11.25,0,0,0-2.67,1.2,10.34,10.34,0,0,0-1.94,1.86A33.49,33.49,0,0,0,459.93,59a10,10,0,0,0-.9,2,10.68,10.68,0,0,0,0,5.09,2.65,2.65,0,0,0,.4,1.12,2.59,2.59,0,0,0,.89.71,16.55,16.55,0,0,0,3.78,1.59Z" fill="#2a9faa" stroke="#2a3f55" stroke-miterlimit="10" stroke-width="0.2"/><path d="M477.45,76.47c.05-.25,1.2-1.17,1-1.35a44.13,44.13,0,0,0-4.64-.72c-.51.16-.22.93-.11,1.45.75,3.94-.14,4.25-.68,4.62a2,2,0,0,1-.76.28c-.75.15-1.53.16-2.29.26a3.92,3.92,0,0,0-2.11.86,1.92,1.92,0,0,0-.54,2.1.4.4,0,0,0,.13.18c.28.22.71-.14,1,0a8,8,0,0,1,0-1.2c.07-.41.79-.7,1.54-.84,1.55-.27,3.11-.58,4.1-.06.36.18.29,1.16.4,1.55a.48.48,0,0,0,.15.29.49.49,0,0,0,.3.06h1.13c.2-.19-.26-1.61.49-2a6.15,6.15,0,0,1,2.6-.14c.7,0,2.12.36,2.22,1.05,0,.15-.07,1.07.07,1.09.71.1,1.23.67,1.42,0a3.89,3.89,0,0,0-.33-2.06,3.27,3.27,0,0,0-2-1c-.75-.15-1.57,0-2.31-.25a1.36,1.36,0,0,1-.77-.44,1.28,1.28,0,0,1-.14-.7A17.23,17.23,0,0,1,477.45,76.47Z" fill="#55bfaa" stroke="#2a3f55" stroke-miterlimit="10" stroke-width="0.2"/><path d="M505.8,83.92c.29-1.36.05-2.83-1.63-2.88a17,17,0,0,0-1.89.06,2.81,2.81,0,0,0-1.75.6,3,3,0,0,0-.67,2.17,2.83,2.83,0,0,1-1.36-.12,5.34,5.34,0,0,1-.16-1.6c0-.54.48-1.42,1.81-1.87a17.07,17.07,0,0,1,3.27-.64,3,3,0,0,0,1-.27,2,2,0,0,0,.91-1.68,5.67,5.67,0,0,0-.38-1.94c1.08-.12,2.16-.19,3.25-.22a9.62,9.62,0,0,1,.05,1.86,2.28,2.28,0,0,0,.6,1.7,2.51,2.51,0,0,0,1.74.72,6.75,6.75,0,0,1,3.54.88c1,.67,1.12,1.16,1.27,2.82l-1.3.13A2.44,2.44,0,0,0,513,81.35a11.39,11.39,0,0,0-3.87-.25,1.41,1.41,0,0,0-.89,1,7.59,7.59,0,0,0,.11,1.77C507.67,83.81,506.47,84,505.8,83.92Z" fill="#55bfaa" stroke="#2a3f55" stroke-miterlimit="10" stroke-width="0.2"/><path d="M522.62,79.36c-2.75-.56-5.63-1.19-7.74-3a1.27,1.27,0,0,1-.54-.91,1.35,1.35,0,0,1,.43-.81,16.89,16.89,0,0,1,6.45-4.77.62.62,0,0,1,.76.3q2.26,4.34,4.25,8.79a.62.62,0,0,1-.57.87A17.37,17.37,0,0,1,522.62,79.36Z" fill="#55bfaa" stroke="#2a3f55" stroke-miterlimit="10" stroke-width="0.2"/><path d="M478.19,52.25c1,.44,3.55,3.07,4.79,5,.3.46,1.78,3.2,2.29,4.07a2.8,2.8,0,0,0,.82,1.08,3.78,3.78,0,0,0,1,.16,5.33,5.33,0,0,1,4.08,3.51.56.56,0,0,1,0,.36.58.58,0,0,1-.44.31,19.89,19.89,0,0,1-5.58.78,4.09,4.09,0,0,1-1.63-.24,3.84,3.84,0,0,1-.95-.61c-1.3-1-2.52-2.13-3.73-3.25l-1.59-1.46A22,22,0,0,1,474,58.53a4.29,4.29,0,0,1-.89-3.37C474,52.83,477.17,51.81,478.19,52.25Z" fill="#2a9faa" stroke="#2a3f55" stroke-miterlimit="10" stroke-width="0.2"/><path d="M496,57.85a19.81,19.81,0,0,1,1.95,1c.42.21.85.39,1.29.56l6.8,2.73c4.08,1.63,8.38,1.81,12.51,3.29A6.33,6.33,0,0,1,521.17,67a4.71,4.71,0,0,1,.33,5.37A7.64,7.64,0,0,1,517,75.66a21.77,21.77,0,0,1-5.69.67c-16.1.45-32.21,0-48.3-.54a.94.94,0,0,1-.47-.09,1,1,0,0,1-.36-.69,27.63,27.63,0,0,1-.78-6c0-1,.14-2.32,1.1-2.6a12.14,12.14,0,0,1,2.07-.29c5.94,0,8.35.06,12.78,0a79.66,79.66,0,0,0,10.37-.44,14.27,14.27,0,0,0,8.54-5C496.88,59.8,496.94,58.22,496,57.85Z" fill="#55bfaa" stroke="#2a3f55" stroke-miterlimit="10" stroke-width="0.2"/><path d="M485.08,52.1c-.44.24-.47,0-.91.2-.28.15-.63.31-.91.14a1,1,0,0,1-.33-.46c-.45-1-.91-2-1.36-3.08a6.61,6.61,0,0,1-.53-1.53,2.16,2.16,0,0,1,.29-1.56l2.05,1.25c.52.31,2.67-.56,3.26-.64C486.82,47.11,485.89,50.24,485.08,52.1Z" fill="#ffdfaa" stroke="#2a3f55" stroke-miterlimit="10" stroke-width="0.2"/><path d="M481.4,47.16a4.68,4.68,0,0,0,4.27,4.6c.28,0,.7.18.42.62a3.05,3.05,0,0,1-2.81,1.28A8,8,0,0,1,477.89,51a5.12,5.12,0,0,1-.91-5.31A7.12,7.12,0,0,1,478.73,43a7.63,7.63,0,0,1,9.35.2,4.16,4.16,0,0,1,1.4,3.06,6.9,6.9,0,0,1-.75,3.47.28.28,0,0,1-.36.2,12.33,12.33,0,0,1-6.9-3Z" fill="#ff3f55" stroke="#2a3f55" stroke-miterlimit="10" stroke-width="0.2"/><path d="M432,69a16.9,16.9,0,0,1,.82,1.51,3.87,3.87,0,0,1,.07,1.44q-.25,3.12-.62,6.23c-.25.22-.6-.16-.91-.92a11.67,11.67,0,0,0-1.49-2.7,6,6,0,0,0-3.73-2.39A18.79,18.79,0,0,1,421,70c-1.05-.67-1.34-1.94-2.62-2.31a1.18,1.18,0,0,0-.69-.07,1.17,1.17,0,0,0-.45.35,10.74,10.74,0,0,0-2.67,3.93c-.22.7-.29,1.43-.45,2.15a17.6,17.6,0,0,1-1.6,3.9.75.75,0,0,0-.12.44.54.54,0,0,0,.68.37,1.62,1.62,0,0,0,.69-.5l3.72-3.9a1.65,1.65,0,0,1,.48-.39,1.1,1.1,0,0,1,.54-.09,4.14,4.14,0,0,1,2.07.56,41.34,41.34,0,0,1,7,6.52,14.8,14.8,0,0,0,2.86,2.68c1.1.71,2.42,1.51,3.65,1.07a5.46,5.46,0,0,0,2.3-2.51,16.27,16.27,0,0,0,1.08-2.9,48.47,48.47,0,0,1,5-10.94c-1.24-1.4-3.15-2-4.64-3.09-1.31-1-2.34-2.38-3.86-2.93a.43.43,0,0,0-.25,0,.38.38,0,0,0-.13.09,6.35,6.35,0,0,0-1.71,4.05A4.73,4.73,0,0,0,432,69Z" fill="#2a9faa" stroke="#2a3f55" stroke-miterlimit="10" stroke-width="0.2"/><path d="M452.5,55.17q-.39,1-.84,1.89A11.45,11.45,0,0,1,450.57,59a13.06,13.06,0,0,1-3.08,2.7,7.58,7.58,0,0,1-1.25.76,7.12,7.12,0,0,1-2.68.44.22.22,0,0,0-.17.31.68.68,0,0,0,.36.2,37.79,37.79,0,0,0,5.2.83c1.73.25,5,1.07,6.38,2.11a22.85,22.85,0,0,0,3.8,1.84c1,.32,1.63.81.95,3.08-.16.52-1.23,2.28-1.44,2.77a10.52,10.52,0,0,1-.78,1.39,58.17,58.17,0,0,1-6.54,8.69c-.33.37-.81.63-1,1.09a.55.55,0,0,0,0,.28c0,.19,5.21,2.27,5.18,2.83s-.74.85-1.32.87c-2,.08-4-1.09-6-.89-.9.09-1.89.44-2.64-.06a1.42,1.42,0,0,1-.41-1.88,16.67,16.67,0,0,0,3.48-4.39,25.26,25.26,0,0,0,1.92-5.53,18,18,0,0,1,.5-2,5.6,5.6,0,0,1,2.56-2.74c-.76-1-6,.44-9.85-.76a16.82,16.82,0,0,0-4.21-.65,5.64,5.64,0,0,1-4-.74,4.27,4.27,0,0,1-1.73-1.84,9.5,9.5,0,0,1-.71-2,4.59,4.59,0,0,1,0-2.95,10.18,10.18,0,0,1,1.72-3.08c1.24-1.62,2.74-3,4.11-4.51,1.74-1.9,1.65-3.58,3.08-5.71A9.52,9.52,0,0,1,445,46c2.05-1.39,4.42-2.27,6.55-3.53a4.27,4.27,0,0,0,1.56-1.32,1.92,1.92,0,0,1,.52-.7,1.23,1.23,0,0,1,.81-.09A4.42,4.42,0,0,1,457.15,42a.47.47,0,0,1,.13.24.62.62,0,0,1-.11.34,9.4,9.4,0,0,0-.82,2.26,6.61,6.61,0,0,0-.27,1.45c0,.43.06.85.09,1.28a9.3,9.3,0,0,1-1.46,5.85A3.88,3.88,0,0,1,452.5,55.17Z" fill="#2a9faa" stroke="#2a3f55" stroke-miterlimit="10" stroke-width="0.2"/><path d="M466,72.63c.22-.31.7-.34,1-.57a7.27,7.27,0,0,0,1-1l1.08-1.22a1,1,0,0,0,.27-.43c.09-.42-.35-.75-.72-1a8.71,8.71,0,0,1-3.56,3.82,3.19,3.19,0,0,1-1.51.38,2.43,2.43,0,0,0,.44.88C466.72,72.85,465.84,72.8,466,72.63Z" fill="#55bfaa" stroke="#2a3f55" stroke-miterlimit="10" stroke-width="0.2"/><path d="M461.91,39.08a2.38,2.38,0,0,0,1.08.22,7.26,7.26,0,0,1-3.6,5.3,1.63,1.63,0,0,1-.89.27,19.79,19.79,0,0,0-.92-2.51A7.37,7.37,0,0,1,457,41a4,4,0,0,1-.09-1.14,6.23,6.23,0,0,1,1.68-3.87l2.13,2.15A4.66,4.66,0,0,0,461.91,39.08Z" fill="#ffdfaa" stroke="#2a3f55" stroke-miterlimit="10" stroke-width="0.2"/><path d="M456.68,45.53a11,11,0,0,1-3.23-4.78,6,6,0,0,1-.46-3.13,7.89,7.89,0,0,1,1.75-3.85,7.18,7.18,0,0,1,2.4-1.47,10.46,10.46,0,0,1,3.37-.41,4.46,4.46,0,0,1,4.18,2.72,6.49,6.49,0,0,1,.58,1.81,7.18,7.18,0,0,1-.72,3.83c-.23.56-.35,1.22-1,1.32a2.7,2.7,0,0,1-1.6-.33,7.7,7.7,0,0,1-1.82-1.45,7,7,0,0,1-1.75-2.26c-.18,0-.23.25-.29.43a8.5,8.5,0,0,0-.4,3.22,5,5,0,0,0,.12,1.16,4.23,4.23,0,0,0,1.73,2.34C460.7,45.46,458.53,46.84,456.68,45.53Z" fill="#ff3f55" stroke="#2a3f55" stroke-miterlimit="10" stroke-width="0.2"/><path d="M454.09,63.28a4.73,4.73,0,0,1,2.29,1.63,67.87,67.87,0,0,0,5,4.65l2,1a3,3,0,0,1,1.53,1.33c.19.45.17,1,.53,1.35a1,1,0,0,0,.95.19,2.12,2.12,0,0,0,.86-.52c.74-.66,1.59-1.22,1.63-2.21a2.68,2.68,0,0,0-.69-1.48c-.47-.44-1.22-.28-1.85-.39a3.16,3.16,0,0,1-1.68-1,45.79,45.79,0,0,1-3-4.32c-1.28-1.83-5-2.9-5.21-3.73a6.47,6.47,0,0,1-.18-1.7,33,33,0,0,0-.71-5.32c-.12-.61-.24-1.22-.35-1.83a16.09,16.09,0,0,0-1.35-4.54,1.6,1.6,0,0,0-1.09-.84,4.34,4.34,0,0,0-4,1,3.46,3.46,0,0,0-.4.82,4.92,4.92,0,0,0-.42,1.51,9.09,9.09,0,0,0,.57,3c1.19,2.62,1.69,3.92,2.15,4.88a17.64,17.64,0,0,1,.87,2.47c.25.86.51,1.72.76,2.58a2.57,2.57,0,0,0,.48,1C453.18,63.16,453.59,63.17,454.09,63.28Z" fill="#2a9faa" stroke="#2a3f55" stroke-miterlimit="10" stroke-width="0.2"/><path d="M466.55,83.58c.36,0,12.55.08,14.37.11s3.11-.26,3-1.27c-.06-.77,1.09-.81,1.19-.34.21,1,.18,3-4,2.94-4.52-.08-13.46-.14-14.19-.16S466.19,83.57,466.55,83.58Z" fill="#55bfaa" stroke="#2a3f55" stroke-miterlimit="10" stroke-width="0.2"/><path d="M497.53,83.59c.37,0,13.37,0,15.22.09s3.16-.27,3.09-1.27c-.06-.78,1.11-.81,1.21-.35.22,1,.18,3-4,2.94-4.59-.08-14.29-.11-15-.12S497.16,83.59,497.53,83.59Z" fill="#55bfaa" stroke="#2a3f55" stroke-miterlimit="10" stroke-width="0.2"/><path d="M474,69.2c.42-.16,8.48.24,17.32.58s11,.76,19.62.52a33.69,33.69,0,0,0,9.52-1.65c.27.09.49,2.92-9.83,3.66-8.2.58-13,0-19.62-.08s-14-.06-16.79-.11C473.13,72.1,473.56,69.37,474,69.2Z" fill="#55bfaa" stroke="#2a3f55" stroke-miterlimit="10" stroke-width="0.2"/><path d="M300.22,89.11a2.71,2.71,0,0,0,1.26-.32,2.48,2.48,0,0,0,.91-2.09,12,12,0,0,0-1.45-5.33,1,1,0,0,0-.22-.34,1.17,1.17,0,0,0-.32-.15,12,12,0,0,0-2.65-.52c-.95-.08-2.11.08-2.54.94a2.89,2.89,0,0,0-.2.89c-.14,1.22-.27,2.44-.41,3.67a2.27,2.27,0,0,0,0,.78,1.66,1.66,0,0,0,.27.57,4.44,4.44,0,0,0,2.4,1.66A8.36,8.36,0,0,0,300.22,89.11Z" fill="#2a3f55" stroke="#2a3f55" stroke-miterlimit="10" stroke-width="0.2"/><path d="M328,79.31a3.77,3.77,0,0,1,1.64,1c1.79,1.44,4.22,1.68,6.44,2.29a2.94,2.94,0,0,1,1.29.63,1.13,1.13,0,0,1,.26,1.33c-.28.46-.91.52-1.45.54l-11.25.42a2.82,2.82,0,0,1-2.07-.46,2.87,2.87,0,0,1-.54-2.39,4.52,4.52,0,0,1,.23-1.27,1.21,1.21,0,0,1,.84-.76,2.41,2.41,0,0,1,.16-1.16s.09,0,0,0A8.74,8.74,0,0,1,328,79.31Z" fill="#2a3f55" stroke="#2a3f55" stroke-miterlimit="10" stroke-width="0.2"/><path d="M338,65.25c0-.58.43-1.08.34-1.66a11,11,0,0,0-.47-1.68,12.87,12.87,0,0,1-.66-6.1c.19-1.06.84-2.06.72-3.13a4.09,4.09,0,0,0-.38-1.23,37,37,0,0,1-2.65-7.07c-.14-.67-.22-1.35-.31-2a5.31,5.31,0,0,1,.2-3.09,1.76,1.76,0,0,1,.39-1.3,8.16,8.16,0,0,0,3.65-1.46,11,11,0,0,1,1.59-.93c.57-.23.59-1.74,1.12-1.42a12.76,12.76,0,0,1,1.45,2.4,9.69,9.69,0,0,1,1,5,21.15,21.15,0,0,1-1,5.09c-.26.9-.55,1.8-.73,2.72-1.12,5.68,2,11.69.38,17.25-.15.5-.46,1.08-1,1.08a1.32,1.32,0,0,1-.64-.26L338.5,65.9C338.24,65.74,338,65.56,338,65.25Z" fill="#ff3f55" stroke="#2a3f55" stroke-miterlimit="10" stroke-width="0.2"/><path d="M319.74,43.82a4.82,4.82,0,0,0,2.08,1.53c2.58,1.37,4.48,3.71,6.29,6A21.58,21.58,0,0,1,332.18,58c.85,2.68.62,5.57.31,8.36A82.06,82.06,0,0,1,330.67,77a6.4,6.4,0,0,0-.21,3.88c.05.12-.74.25-1.08.25-2.13,0-7.18.85-6.66-.52,1.24-3.22.85-6.87.76-10.32a21,21,0,0,1,0-3.72,4.69,4.69,0,0,1,1.77-3.17.67.67,0,0,0,.28-.3.46.46,0,0,0-.08-.34c-.3-.57-1-.78-1.47-1.19-1.32-1.06-2.43-2-2.29-2.1-2.4-2.52-2.75-3.22-5.15-5.74a13.12,13.12,0,0,0-1.38-1.31c-.27-.21-2.17-2.61-3.28-2.77a49.34,49.34,0,0,1,1.31,9.82,28.4,28.4,0,0,1-.18,4.61,5.41,5.41,0,0,1-.47,1.76A2.24,2.24,0,0,1,311.26,67c-1.36.39-2.24,1.72-3,3s-1,2.51-1.56,3.73a31.53,31.53,0,0,1-2.9,4.46,9.85,9.85,0,0,0-2,4.88l-6.17-1.25c-.47-.09-1.06-.33-1-.81A9.4,9.4,0,0,1,296,77.61a16.91,16.91,0,0,1,1-1.81c.38-.56.82-1.07,1.2-1.63,1.84-2.77,1.91-6.61,4.3-8.92.71-.69,2-1.19,2.31-2.19a2.48,2.48,0,0,0,.06-.77,9.93,9.93,0,0,0-.29-1.8c-.56-2.05-.34-4.47-.64-6.58A12,12,0,0,0,301.76,48c-.34-.43-.72-.83-1.06-1.26a6.45,6.45,0,0,1-1.41-4.89,7.31,7.31,0,0,1,2.64-4.28A21.65,21.65,0,0,1,306.32,35l1.35-.67a1.68,1.68,0,0,1,.58-.21,1.62,1.62,0,0,1,.77.16c3.08,1.26,4.84,4.46,7.28,6.73.46.43.95.83,1.44,1.23C318.48,42.8,319.27,43,319.74,43.82Z" fill="#55bfaa" stroke="#2a3f55" stroke-miterlimit="10" stroke-width="0.2"/><path d="M305.41,35.62c-.2-.43,1.9-1.2,2.27-1.49,3.37-2.63,7.88-3.19,11.69-5.1a7.1,7.1,0,0,0,1.16-.69c.28-.22.53-.48.82-.69a12,12,0,0,1,1.81-1c1.71-.86,3.5-2.57,5.41-2.78,1.23-.13,4.12,1.77,5.3,2.15-.18,1.5-2,2.07-1.32,3.4a5.51,5.51,0,0,0,3,2.43,5.91,5.91,0,0,0,2.78.25c.42,0,1-.76,1.36-.57a13.91,13.91,0,0,1,2.19,2.65c.64,2-1.61,4.42-1.86,4.69-.43.47-2.76,2.58-3.94,2.79a15.6,15.6,0,0,0-2.6.7c-.77.26-1.49.63-2.23.94-3.13,1.33-6.41,1.24-9.52,2.62-.58.26-1.39.92-2,.88-.4,0-1.21-.77-1.56-1a11.28,11.28,0,0,1-3.23-2.18c-2.1-2-4.75-2.89-6.8-4.91A29.55,29.55,0,0,1,305.41,35.62Z" fill="#ff3f55" stroke="#2a3f55" stroke-miterlimit="10" stroke-width="0.2"/><path d="M336.38,71.27c.81-.11,1.1-.42,1.17-.75a2.24,2.24,0,0,1,.33-1,1.81,1.81,0,0,1,1.14-.83,1,1,0,0,0,.48-.13.74.74,0,0,0,.18-.51c.06-.86.08-1.73.07-2.6,0-.27-.87.24-1,0s-.42,0-.83.47a10,10,0,0,0-1.1,1.06,4,4,0,0,0-.5,2.34C336.34,69.94,336.36,70.61,336.38,71.27Z" fill="#ffdfaa" stroke="#2a3f55" stroke-miterlimit="10" stroke-width="0.2"/><path d="M332.17,30.92a1.6,1.6,0,0,1-.9-1.16,5.22,5.22,0,0,1-.31-2.52,4.82,4.82,0,0,0,.36-1.8c0-.14-.07-.31,0-.41s-.68-1-.6-.94c3,2.78,3.82,1.77,4.88,1.37S337,23.6,338,23a27.89,27.89,0,0,0,1.18,4.39l.3.83c.18.47.36.94.53,1.41a1.67,1.67,0,0,1,.14.53,2.56,2.56,0,0,1,0,.39c-.08.69-.13.11,0,.78-.78.14-1.37,1.4-2.16,1.4a12.9,12.9,0,0,1-1.76-.11A11.14,11.14,0,0,1,332.17,30.92Z" fill="#ff3f55" stroke="#2a3f55" stroke-miterlimit="10" stroke-width="0.2"/><path d="M345.49,78.56c.5.61,1,1.47.55,2.14a2,2,0,0,1-.83.65l-1.33.7c-.42.23-.92.61-.78,1.07a.85.85,0,0,0,.21.32,2.82,2.82,0,0,0,2.39.7,8.17,8.17,0,0,0,2.42-.83L353,81.06a1.23,1.23,0,0,0,.66-.52c.23-.49-.24-1-.74-1.22a2.52,2.52,0,0,0-1.67-.1,5.22,5.22,0,0,1-1.53.43,2.47,2.47,0,0,1-1.7-1.23c-1-1.32-4.12-5.08-4.63-5.73-.29-.37-.53-.78-.81-1.17a21.42,21.42,0,0,0-2.24-2.61c-1.7-1.77-14.39-16.64-19.12-22.35l-2.46-3c-3.85-4.66-7.7-9.31-11.88-13.66a1,1,0,0,0-.34-.27c-.52-.2-.93.45-1.43.69-.11.06-.26.13-.25.25S310.69,38,311.71,39c1.62,1.7,3.15,3.48,4.68,5.27l1.94,2.26c1,1.12,1.93,2.25,2.84,3.42C324.44,54.12,344.07,76.83,345.49,78.56Z" fill="#2a3f55" stroke="#2a3f55" stroke-miterlimit="10" stroke-width="0.2"/><path d="M339.8,21.23a.86.86,0,0,0-.76.43c-.19.35-.68.44-1,.69-.5.43-1,.85-1.47,1.33a16.84,16.84,0,0,0-1.1,1.28,2.57,2.57,0,0,0-.62,1.13,2.27,2.27,0,0,0,0,.78,25.37,25.37,0,0,0,1.38,5.42,1.42,1.42,0,0,0,.23.44,1,1,0,0,0,.61.29,2.82,2.82,0,0,0,2-.66,10.57,10.57,0,0,1,1.76-1.24,1.11,1.11,0,0,1,.5-.12c.45,0,.72.5,1,.87a1.27,1.27,0,0,0,1.17.6c.32-.06.61-2.41,1-2.88.52-.66.67-.28,2.19-1.62a4.39,4.39,0,0,0,1.36-2.55,4.91,4.91,0,0,0-.57-2.4,3.5,3.5,0,0,0-.5-.75,4.38,4.38,0,0,0-1.33-.83,5.19,5.19,0,0,0-4.35-.53A5.42,5.42,0,0,0,339.8,21.23Z" fill="#ffdfaa" stroke="#2a3f55" stroke-miterlimit="10" stroke-width="0.2"/><path d="M341.78,23a.66.66,0,0,0-.4.25,1.39,1.39,0,0,0-.21.75,17.79,17.79,0,0,1-.29,1.92c-.09.44-.17.74-.58.91a.94.94,0,0,1-1.07-.41,1.88,1.88,0,0,1-.24-1.19c0-.41.12-.82.12-1.23a.35.35,0,0,0-.07-.25.34.34,0,0,0-.24-.06,3.7,3.7,0,0,0-1.77.54,1.18,1.18,0,0,0-.28.22,7.49,7.49,0,0,0-.45.65,1.71,1.71,0,0,1-1.77.52c-.53-.12-.38-1.24.77-3a10.53,10.53,0,0,1,1.5-1.82,11.16,11.16,0,0,1,2.3-.88c.84-.39,1.47-1.13,2.3-1.53a3.3,3.3,0,0,1,1.51-.34A4.45,4.45,0,0,1,346,19.49a13.22,13.22,0,0,1,1.95,2.89A8.15,8.15,0,0,1,349,25a1.13,1.13,0,0,1-.24,1,4.19,4.19,0,0,1-.47.29,3.87,3.87,0,0,0-.67.87c-.05.06-.12.13-.2.11s-.12-.08-.15-.15c-.24-.53-.17-1.17-.4-1.71a3,3,0,0,0-1.09-1.16A5.13,5.13,0,0,0,341.78,23Z" fill="#2a3f55" stroke="#2a3f55" stroke-miterlimit="10" stroke-width="0.2"/><path d="M374.38,76.5a4.32,4.32,0,0,0-2.56-1.22,27.39,27.39,0,0,0-6.65-.29l-1,0a10.69,10.69,0,0,0-1.27.09,8.71,8.71,0,0,0-2.85.85,5.54,5.54,0,0,0-2.68,3.88,4.31,4.31,0,0,0,1.42,3.68,7.06,7.06,0,0,0,3.68,1.69,44.25,44.25,0,0,0,8.69,0,7.65,7.65,0,0,0,3.86-2,3.89,3.89,0,0,0,.89-3.72A5.77,5.77,0,0,0,374.38,76.5Z" fill="#2a3f55" stroke="#2a3f55" stroke-miterlimit="10" stroke-width="0.2"/><path d="M372.51,74.29c-1.05-.16-.92-.47-.95-.78a2.34,2.34,0,0,1,.13-.86,3.13,3.13,0,0,0,0-1.22,1.37,1.37,0,0,0-.32-.75,1.75,1.75,0,0,0-1.07-.44,14.17,14.17,0,0,0-6.14.46,1.66,1.66,0,0,0-.77.39,1.44,1.44,0,0,0-.37.82,3,3,0,0,0,.46,2.08.23.23,0,0,1-.2.38c-.3,0-.61,0-.92,0a1,1,0,0,0-1,.66,1.08,1.08,0,0,0,.53,1,5.66,5.66,0,0,0,3.5.78,21.62,21.62,0,0,0,6.28-.5,4.7,4.7,0,0,0,1.19-.68C373.2,75.41,373.48,74.43,372.51,74.29Zm-2.29-1.61a6.68,6.68,0,0,1-.29,1.15c0,.1-.06.22-.15.27a.43.43,0,0,1-.22,0l-4.21.07a.42.42,0,0,1-.29-.07.4.4,0,0,1-.1-.26c0-.29-.09-.57-.13-.86a1.16,1.16,0,0,1,.1-.86,1.13,1.13,0,0,1,.57-.33,8.1,8.1,0,0,1,4.26-.1C369.91,71.77,370.29,71.78,370.22,72.68Z" fill="#55bfaa" stroke="#2a3f55" stroke-miterlimit="10" stroke-width="0.2"/><path d="M319.33,44.67a4.3,4.3,0,0,0-1.68-.21c-.18,0-.27.12-.43.21-.33.2.57,1.1.32,1.4-.4.49-1.92.48-2.54.32a18.19,18.19,0,0,1-2.64-1.06,3.11,3.11,0,0,1-.94-.61,1.09,1.09,0,0,1-.32-1c1-3.31,1.2-4.3,1.2-6.28V36.7c1,.14,2.07.09,3.09.23.91,1.6,1,3.24,1.94,4.81a7.67,7.67,0,0,0,2.51,1.75,2.1,2.1,0,0,1,1,1.27.35.35,0,0,1-.31.42C320,45.25,319.78,44.87,319.33,44.67Z" fill="#ffdfaa" stroke="#2a3f55" stroke-miterlimit="10" stroke-width="0.2"/><path d="M338.09,70.16c.15-.39.72-.2.84-.59.41-1.27-.5-2.13-.48-2.81,0-.83-.42-1,.21-1.54.39-.33,3,.79,3.33,1.29a7.31,7.31,0,0,1,.85,5.51,3.12,3.12,0,0,1-.78,1.44,1.5,1.5,0,0,1-1.52.38c-.66-.26-.94-1-1.48-1.5C338.89,72.2,337.94,70.54,338.09,70.16Z" fill="#ffdfaa" stroke="#2a3f55" stroke-miterlimit="10" stroke-width="0.2"/><path d="M316.48,39.19c-.91-2.3-.4-4.93-1-7.32-.18-.66-.44-1.3-.67-1.95a37.69,37.69,0,0,1-1.34-5.67,8,8,0,0,1,3.25.43c2.63.93,4.68,3.21,7.39,3.86a8.69,8.69,0,0,0,5-.47c1.59-.6,3.45-2.13,2.39-4a5.55,5.55,0,0,0-1.57-1.56,20.44,20.44,0,0,0-9.1-3.7c-2.75-.4-5.58-.23-8.27-.91a10.33,10.33,0,0,0-3.5-.62,1.63,1.63,0,0,0-1.36.78,2.42,2.42,0,0,0,.18,1.72c1.33,4.06-1.19,8.74.49,12.67a21.06,21.06,0,0,0,1.92,3.08,16.28,16.28,0,0,1,1.91,4c-.08.09,0,0-.08,0a19.91,19.91,0,0,1,4.29-.25Z" fill="#ff3f55" stroke="#2a3f55" stroke-miterlimit="10" stroke-width="0.2"/><path d="M359.8,78.51c.46-.59,2.37.75,6.09.75s5.44-.14,6.66-.57,2.79.25,2.07,1.29-4.76,1.72-8.52,1.47S357.8,81.09,359.8,78.51Z" fill="#2a3f55" stroke="#2a3f55" stroke-miterlimit="10" stroke-width="0.2"/><path d="M58.75,45.8c.31,0-1.44.77-1.29.5a.77.77,0,0,0,0-.54,15.85,15.85,0,0,0-2-5,3.36,3.36,0,0,1-.78-2.37c0-.12.3-.26.22-.16-.64-1.5-2.26-2.28-3.75-2.94l-8.72-3.87A15.7,15.7,0,0,0,41.59,22c-1-2.35-2.94-6.5-6-5A31.68,31.68,0,0,1,37.67,30.6c-.09,1.29-.22,2.7.54,3.74A17.76,17.76,0,0,0,40.1,36a53.54,53.54,0,0,0,6.36,4.52C55.51,46.34,58,45.69,58.75,45.8Z" fill="#ffdfaa" stroke="#2a3f55" stroke-miterlimit="10" stroke-width="0.2"/><path d="M43.07,12.87c.54,1.44.41,1.6,2.25,2.75.91.57,4.79,1.65,6.84,2.92,2.49,1.55,3.53,2.86,4,3,.93.22,3.3,1.18,4.14,1.36,5.52,1.12,9.52-.7,9.63.45s1.52,2.7.84,3.63-.28.44-1.24.69A9.66,9.66,0,0,1,65.8,28a116.43,116.43,0,0,1-11.62-3.73c-.84-.35-1-1.14-1.69-1.71C48.12,19,46.26,17.46,44.81,17c-3.94-1.17-3.86-1.37-4.22-4.25a1.55,1.55,0,0,1,1.08-1.71C42.26,11,42.73,12,43.07,12.87Z" fill="#ffdfaa" stroke="#2a3f55" stroke-miterlimit="10" stroke-width="0.2"/><path d="M59.51,45.6A14.06,14.06,0,0,0,59.12,55c1,3.05,1.47,6.25-.4,7.93a38.63,38.63,0,0,0-4.16,4.7c-1.47,2.07-1.74,4.75-1.75,7.29s.19,5.14-.51,7.58a8.77,8.77,0,0,1,3.35.19C56.23,77.58,59,73,61.72,68.54a19,19,0,0,1,1.93-2.77,11.84,11.84,0,0,0,1.18-1.37A7.09,7.09,0,0,0,65.62,62c.56-2.7,1.12-5.41,1.67-8.11a12.18,12.18,0,0,0,.37-3,6.26,6.26,0,0,0-2.6-4.72A6.67,6.67,0,0,0,59.51,45.6Z" fill="#ffdfaa" stroke="#2a3f55" stroke-miterlimit="10" stroke-width="0.2"/><path d="M99.21,10.74c2.61-.59,3.83.41,5.22,2.63a.19.19,0,0,1-.05.26c-.62.38-1.49,0-2.21-.2-2.22-.76-3.08-.21-5.41.1-3.24,1.14-4.79,3.91-7.36,5.19-.64.33-2.76,1-3.4,1.37s-2.16,2-2.87,2.48c-3.92,2.5-7.23,3.11-5.74,6.69.57,1.38-6.74.9-7.79-.17a3.46,3.46,0,0,1-.75-2.34,2.32,2.32,0,0,1,.51-1.49c.16-.21.18-.49,1.64-1.2,1.75-.85,4.22-1.95,6-2.78,4.24-2,7.09-3,11-5.59a57.46,57.46,0,0,1,7.29-3.24C96.36,12.05,98.1,11,99.21,10.74Z" fill="#ffdfaa" stroke="#2a3f55" stroke-miterlimit="10" stroke-width="0.2"/><path d="M66.89,56.06c.37-1.18,1.55-6.17,1.84-7.11A17.74,17.74,0,0,1,70,46l2.58-5L75.21,36c.49-.94,1.91-2,2.58-4a3.49,3.49,0,0,0-1-3.51C72.53,26,73.43,23.43,73.49,23s-1.46-.31-1.91-.32c-.71,0-.64,1.07-1.34,1.18-1.17.18-.25-1.38-2.85-.71a14.34,14.34,0,0,0-2.22,6.65,14.26,14.26,0,0,0,.64,3.31c.47,1.18.13,1.63,0,1.86a2.74,2.74,0,0,1-2.77,1,11.68,11.68,0,0,0-4.79.12c-2.35.54-3.7.27-6.78-.64,2.94,4.07,2.16,9.46,4.87,13.69A17,17,0,0,0,62,54c1,.59,1.94,1.16,2.94,1.7C65.31,55.9,66.75,56.5,66.89,56.06Z" fill="#ff3f55" stroke="#2a3f55" stroke-miterlimit="10" stroke-width="0.2"/><path d="M66.82,15.54a2.54,2.54,0,0,1,.62-1.83,2.76,2.76,0,0,1,1.94-.45c.94,0,1.93-.16,2.38.66.13.23.22.78.38,1a3.76,3.76,0,0,0,1.94.91c.21.24-1.08.74-.74,1.55.08.2.37.73.45.93.26.55.54,1.37-1.05,1.84-.58.17-1.87.28-1.2,1.41a8.66,8.66,0,0,0,1,1.43c.06.07,0,.16,0,.24-.61,1.11-2.46,1.5-3.82,1.4a1.43,1.43,0,0,1-1.06-.42c-.44-.53.83-.75-.25-3.25-.36-.82-.85-.24-1.26-1C65.49,18.67,66.78,16.94,66.82,15.54Z" fill="#ffdfaa" stroke="#2a3f55" stroke-miterlimit="10" stroke-width="0.2"/><path d="M62.57,19.27a1.1,1.1,0,0,0,.72,1.06,2.73,2.73,0,0,0,1.36.11c.95-.11,2,1,2.75.51a2.17,2.17,0,0,0,.67-3.37c-.5-.7.68-2.1,1.89-.88.57.57-.49-1.09.74-2.51.34-.39,1-.06,1.06-.27a3.14,3.14,0,0,0-2.68-1,5.37,5.37,0,0,0-2.74.53A4.45,4.45,0,0,0,64,15.69a8.54,8.54,0,0,1-1.6,3C62.35,18.94,62.61,19,62.57,19.27Z" fill="#2a3f55" stroke="#2a3f55" stroke-miterlimit="10" stroke-width="0.2"/><path d="M60.8,20.37a2,2,0,0,1,0-2.35,3.65,3.65,0,0,1,2.56-1.57,2.69,2.69,0,0,1,1.26.19,2.64,2.64,0,0,1,1.29,1.89,2.77,2.77,0,0,1,.09.86,2.38,2.38,0,0,1-1.5,2.08A2.85,2.85,0,0,1,60.8,20.37Z" fill="#2a3f55" stroke="#2a3f55" stroke-miterlimit="10" stroke-width="0.2"/><path d="M40.13,12.26a3.23,3.23,0,0,0,.33-1.42c.56.35,1.13.7,1.72,1.05.3-.4.32-.62.62-1-1.71-.84-3.66-2.13-5.54-3.27a20.11,20.11,0,0,0-3.1-1.67c-1.08-.41-2.33-.94-3.37-.43s-.69,1-.51,1.06c.59.38.75-.27,1.44-.22a8.68,8.68,0,0,1,2.63.57,11.25,11.25,0,0,0-.59,1.15,4.57,4.57,0,0,0-2-.51,1.15,1.15,0,0,0-.95.56c-.46.71.92,1.33,3.37,3.13.71.51,1.19,1.44,1.2,4.48a24.64,24.64,0,0,1,0,2.5.21.21,0,0,0,.23.22,10.8,10.8,0,0,0,3.78-.95.22.22,0,0,0,.12-.26,7.24,7.24,0,0,1-.29-2.84C39.28,13.75,40,12.92,40.13,12.26Zm-5.7-3.84L35,7.22A12.43,12.43,0,0,1,36.23,8c1.07.76,2.09,1.47,3.12,2.15a4.2,4.2,0,0,1-.6.82h0A16.82,16.82,0,0,1,36,9.36C35.47,9.06,35,8.72,34.43,8.42Z" fill="#55bfaa" stroke="#2a3f55" stroke-miterlimit="10" stroke-width="0.2"/><path d="M65.77,86.37c-.13-.48-.71-1-1-.6a.61.61,0,0,0-.14.68c.5.8-.65,1.82-4,1.75h-.29V86.91c1.31,0,2.81,0,2.32-.81-.68-1.14-1.92-.91-4-1.89-2.51-1.19-2-2.08-2-2.63a22.71,22.71,0,0,1,.61-2.92.22.22,0,0,0-.21-.26c-.94-.07-3.61-.37-4.51-.51a.31.31,0,0,0-.35.2c-.5,1.62.2,3.85-.31,6.89a1.69,1.69,0,0,0,0,.38.69.69,0,0,0,0,.13,1.74,1.74,0,0,0,.23.66c.11.27.25.56.37.81a.85.85,0,0,1,0,.8l-.6,0c-.55,0-1,1-.33,1.08a72.4,72.4,0,0,0,10,.27c1.42-.07,2.24,0,3.17-.61A1.84,1.84,0,0,0,65.77,86.37Zm-11.56,1.5.11-1.11c2.22.16,3.13.16,5.09.16l0,1.25C57,88.11,56.78,88.05,54.21,87.87Z" fill="#55bfaa" stroke="#2a3f55" stroke-miterlimit="10" stroke-width="0.2"/><path d="M846,75.1c3.44-2.56,7.06-4.44,10.38-7.16a20.61,20.61,0,0,0,2.47-2.23.22.22,0,0,1,.2-.08,15.9,15.9,0,0,0,2.77.22.24.24,0,0,1,.19.37,7.47,7.47,0,0,1-1.56,1.37,157.14,157.14,0,0,1-13.82,10.15,102.25,102.25,0,0,0-8.52,6c-1.33,1-2.74,2.14-4.07,3.1a11.19,11.19,0,0,1-5.57,2.33,4.69,4.69,0,0,1-2.46-.38,2.75,2.75,0,0,1-1.5-1.72.22.22,0,0,1,.1-.25l2.32-1.5a.22.22,0,0,1,.33.11,1.64,1.64,0,0,0,1.5.85c.7,0,1.58-.35,3.45-1.61C832.24,84.62,842.81,77.49,846,75.1Z" fill="#2a3f55" stroke="#2a3f55" stroke-miterlimit="10" stroke-width="0.2"/><path d="M883.72,15.6c.86-1.14,2.51-1.29,3.93-1.17a7.45,7.45,0,0,1,4.73,1.78,14.92,14.92,0,0,1,1.8,2.63,4.38,4.38,0,0,0,2.35,2c-.16-1.47-.32-2.93-.49-4.4-.09-.88-.16-1.87.67-2.46a2,2,0,0,1,2.33.17c1.19,1,1.33,2.5,1.43,3.94q.25,3.45.49,6.91a4.69,4.69,0,0,1-.34,2.7,1.92,1.92,0,0,1-1.06.88c-.91.29-1.36-.3-1.92-.7a9.26,9.26,0,0,0-2.48-1,10.29,10.29,0,0,1-4.76-3.4,6.77,6.77,0,0,0-2.32-2.4c-1,.47-1.05,1-1.4,2a25.49,25.49,0,0,1-1.77,4.24c-.7,1.35-3,4-3.82,5.29-1.22,2.1-.14,2.43,1.12,5.06s2.56,4.9,3.85,7.48a22.86,22.86,0,0,0,3.88,5.44A3.44,3.44,0,0,1,891.16,53a3.4,3.4,0,0,1-.15,1.58c-.42,1.26-.83,2.52-1.36,3.73-.4.91-.86,1.79-1.18,2.73a19.06,19.06,0,0,0-.75,4.69c-.15,2.06-.36,6-.51,8-1.43.42-3.61,2.32-5.06,2,1.61-4.3.33-10.31,0-13.15-.61-5.9,2.21-7.77,1.9-8.37-1.36-1.58-2.88-2.55-4.24-4.14-.7-.82-1-1.27-3-3.41-.49-.52-2.15-3.22-3.38-4.12a8.22,8.22,0,0,0-1.08.87l-9,9a2.91,2.91,0,0,0-.81,1.13,4.21,4.21,0,0,0-.06,1.42c.09,2.49-1.54,4.71-3.31,6.47a32.46,32.46,0,0,0-3.34,3.5,6.41,6.41,0,0,0-1.43,4.51,2.76,2.76,0,0,1,0,1,2.17,2.17,0,0,1-.9,1.07c-2.25,1.73-3.67,4-7.4,5.78a1.8,1.8,0,0,1-1,.19.74.74,0,0,1-.41-.16.83.83,0,0,1-.06-.85c.5-1.56,2-2.47,3-3.82a30.86,30.86,0,0,0,3.51-6.65c1.25-3.3,3.36-6.31,4.45-9.67.53-1.64.68-3.38,1.18-5,1.4-4.67,5.33-8.1,7.68-12.37,1.34-2.45,2.15-5.16,3.47-7.63,1.43-2.66,3.48-5.14,4-8.1a.89.89,0,0,0-.09-.6,5.93,5.93,0,0,1-.13-2.83c.29-1.68-.75-1.3-.49-3.69A6.11,6.11,0,0,1,872.52,13c.29-.35-.27-.57.18-.68,1-.24,2.87.36,3.86.51,1.7.27,3-1.53,4.69-1.34a2.65,2.65,0,0,1,2,1.53A8.24,8.24,0,0,1,883.72,15.6Z" fill="#2a9faa" stroke="#2a3f55" stroke-miterlimit="10" stroke-width="0.2"/><path d="M865,27.41c2.69-.77,6.08-3.57,8-7.55.38-.78,1.22-1.25,1.63-2a5.8,5.8,0,0,0,.34-3.41,2.94,2.94,0,0,0-.38-1.27,2.08,2.08,0,0,0-2-.79,5.06,5.06,0,0,0-2.07.88c-2.33,1.47-4.07,4.22-6,6.19a6.51,6.51,0,0,0-.95,1.26c-.82,1.34-1.35,2.88-2.44,4a10.89,10.89,0,0,0-2.47,5.66,1.76,1.76,0,0,0,0,.94c.27.59,1.06.65,1.71.73,2,.23,3.73,1.46,5.7,1.79,1.8.3,3.8-.13,5.34.83.37.23.78.55,1.19.4a1.17,1.17,0,0,0,.55-.64c.56-1.12,1.11-2.24,1.64-3.38A67.05,67.05,0,0,0,865,27.41Z" fill="#2a9faa" stroke="#2a3f55" stroke-miterlimit="10" stroke-width="0.2"/><path d="M885.58,16.55a1.38,1.38,0,0,0,.47-.49l1.77-2.54a2.27,2.27,0,0,0,.57-2A1.54,1.54,0,0,0,888,11a5.61,5.61,0,0,0-5-1.22,1.17,1.17,0,0,0-.32.09,1.25,1.25,0,0,0-.37.28,3.69,3.69,0,0,0,.18,5.35,5.79,5.79,0,0,0,2,1.07A1.37,1.37,0,0,0,885.58,16.55Z" fill="#ffdfaa" stroke="#2a3f55" stroke-miterlimit="10" stroke-width="0.2"/><path d="M883.47,7.9a2.43,2.43,0,0,0-.87,1,9.61,9.61,0,0,0-1,5.5,1.32,1.32,0,0,1-1.36-.68,3.64,3.64,0,0,1-.43-1.56,21.56,21.56,0,0,1-.23-2.78,5.19,5.19,0,0,1,2.22-4.22,7.7,7.7,0,0,1,3.66-.88.61.61,0,0,1,.3,0,.52.52,0,0,1,.18.35,2.56,2.56,0,0,1-.9,2.2,7.65,7.65,0,0,1-2.11,1.27Z" fill="#2a3f55" stroke="#2a3f55" stroke-miterlimit="10" stroke-width="0.2"/><path d="M918.14,82a2.36,2.36,0,0,1,.07.65A3.68,3.68,0,0,1,915.28,86a14,14,0,0,1-5.4-.2c-6.79-1.63-16.94-4.22-23.57-6.37-9.08-2.94-18-4.42-18.44-4.93s1.18-1.21,1.9-1.21c.41,0,9.33,2.13,13.25,3.23,11.38,3.2,21.12,6.84,29.77,8.15a7,7,0,0,0,2.69-.3A2,2,0,0,0,917,82.79c.14-.55-.12-.63,0-.81S918.07,81.72,918.14,82Z" fill="#2a3f55" stroke="#2a3f55" stroke-miterlimit="10" stroke-width="0.2"/><path d="M894,78.62a1,1,0,0,1-.91.76,2.92,2.92,0,0,1-1.24-.17l-5.6-1.53-2.88-.79c-.53-.15-1.33-.36-1.28-.91a3.91,3.91,0,0,1,1-2.11c.7-.64,1.09-.62,1.79-1.26.37-.34.88-.7,1.32-.46a1.57,1.57,0,0,1,.52.66c2.1,3.58,6.41,4.5,6.73,4.76A1.14,1.14,0,0,1,894,78.62Z" fill="#2a9faa" stroke="#2a3f55" stroke-miterlimit="10" stroke-width="0.2"/><path d="M881.66,31.75c-5.46,6.39-11.77,12-18.07,17.54s-29.66,28.79-33.2,31.21c-.3.21-.17.52.19.61a1.17,1.17,0,0,0,1-.4c2.06-1.73,3.73-3.45,5.76-5.22s4.89-4.78,5.4-5.22c1.73-1.52,11.68-11.43,14.3-13.88,4.41-4.13,8-7.36,12.89-11.66.91-.81,1.7-1.76,2.65-2.53s8.7-9,9.58-10C882.68,31.6,882.06,32,881.66,31.75Z" fill="#2a3f55" stroke="#2a3f55" stroke-miterlimit="10" stroke-width="0.2"/><path d="M837,77.51a2.93,2.93,0,0,0-1.23-2.59,2.51,2.51,0,0,0-1.73-.16,1.47,1.47,0,0,0-.83.42,1.42,1.42,0,0,0-.27.55,2.48,2.48,0,0,0,.07,1.57A4.5,4.5,0,0,0,834.56,79a2.15,2.15,0,0,0,1.72.11A1.8,1.8,0,0,0,837,77.51Zm-.71.24a1.05,1.05,0,0,1-.49.83,1,1,0,0,1-.74,0,2.41,2.41,0,0,1-1.28-3.08,1.47,1.47,0,0,1,2,.18A2.55,2.55,0,0,1,836.33,77.75Z" fill="#2a3f55" stroke="#2a3f55" stroke-miterlimit="10" stroke-width="0.2"/><path d="M880.87,31.23a.83.83,0,0,1,.19-.44,1.13,1.13,0,0,1,1.41-.17,1.47,1.47,0,0,1,.63,1.32.92.92,0,0,1-.56.85.61.61,0,0,1-.42,0,1.37,1.37,0,0,1-.28-.21l-.45-.43A1.23,1.23,0,0,1,880.87,31.23Z" fill="#2a3f55" stroke="#2a3f55" stroke-miterlimit="10" stroke-width="0.2"/><path d="M893.8,1.79a.79.79,0,0,1-.23-.43,1.12,1.12,0,0,1,.75-1.19,1.45,1.45,0,0,1,1.43.34.9.9,0,0,1,.3,1,.55.55,0,0,1-.29.29,1.21,1.21,0,0,1-.34.09l-.62.08A1.2,1.2,0,0,1,893.8,1.79Z" fill="#2a3f55" stroke="#2a3f55" stroke-miterlimit="10" stroke-width="0.2"/><path d="M897.38,42c-.6-16-.83-27.85-1.76-36.91-.1-1-.19-1.95-.29-2.93a1.35,1.35,0,0,0-.2-.66.45.45,0,0,0-.62-.12.34.34,0,0,0-.13.22c.19,2.34,1,12.48,1,15.81.57,19.08,2.42,50.59,3.09,61.27,0,.31.11.7.42.74s.52-.42.52-.77C899.46,78.07,897.5,45.17,897.38,42Z" fill="#2a3f55" stroke="#2a3f55" stroke-miterlimit="10" stroke-width="0.2"/><path d="M900.78,74.54a3.16,3.16,0,0,0-2.25-.51,2.8,2.8,0,0,0-2.09.63,1.66,1.66,0,0,0-.34,1.49,2.51,2.51,0,0,0,.88,1.29c.47.38,1.1.19,1.69,0a4.24,4.24,0,0,0,1.89-.79A1.74,1.74,0,0,0,900.78,74.54ZM899.94,76a1.77,1.77,0,0,1-.65.56,2.44,2.44,0,0,1-1.11.37,1.13,1.13,0,0,1-.56-2.17,2.13,2.13,0,0,1,2,.1,1,1,0,0,1,.4.32A.76.76,0,0,1,899.94,76Z" fill="#2a3f55" stroke="#2a3f55" stroke-miterlimit="10" stroke-width="0.2"/><path d="M881.74,6a4.1,4.1,0,0,0-.16,3.81c-.12.62.2.66.69,1.05a17.93,17.93,0,0,0,2.2,1.47,7.18,7.18,0,0,0,2.47,1,3.27,3.27,0,0,0,2.53-.59A3.94,3.94,0,0,0,890.7,10a8.13,8.13,0,0,0-.08-1.91,5.07,5.07,0,0,0-1-2.35,4.19,4.19,0,0,0-2.85-1.45,6.77,6.77,0,0,0-3.46.46A3.61,3.61,0,0,0,881.74,6Z" fill="#2a3f55" stroke="#2a3f55" stroke-miterlimit="10" stroke-width="0.2"/><path d="M899.69,15a10.63,10.63,0,0,0-.5-4.4,2,2,0,0,0-.43-.91,2,2,0,0,0-.78-.45,12,12,0,0,0-3.48-.52,3.3,3.3,0,0,0-1.79.25c-.53.3-.58.82-.28,1.1a4.6,4.6,0,0,0,3.05.46,11.07,11.07,0,0,0-2.65,1c-.43.21-1,.65-.75,1.07.46.78,2.31-.16,3.39,0a14.11,14.11,0,0,0-2.57.92c-.36.2-.74.53-.68.93a2.33,2.33,0,0,0,1.78.1,7.35,7.35,0,0,1,1.76-.17,7.57,7.57,0,0,0-2.22.52c-.37.19-.79.54-.68.95.81.52,1.94-.09,2.86.24a11.77,11.77,0,0,0,1.08.51C897.57,16.76,899.49,16.12,899.69,15Z" fill="#2a9faa" stroke="#2a3f55" stroke-miterlimit="10" stroke-width="0.2"/><path d="M871.22,32.93a2.35,2.35,0,0,1,1-1.76,3.15,3.15,0,0,1,1.77-.25,10.41,10.41,0,0,1,4.33,1.39,24.81,24.81,0,0,1,2.69,1.52.77.77,0,0,1-.31,1.18c-.46.19-.52.31-1,.2.55.41.64.11.75.86a.82.82,0,0,1-.44.81,1.78,1.78,0,0,1-.89.06,1.15,1.15,0,0,1,.19,1.41,1,1,0,0,1-1.36.29.85.85,0,0,1-.1,1c-.25.27-.87.23-1.22.12-.51-.15-.64-.49-1.06-.81a10.83,10.83,0,0,0-1.94-.84A4.87,4.87,0,0,1,871.22,32.93Z" fill="#2a9faa" stroke="#2a3f55" stroke-miterlimit="10" stroke-width="0.2"/><path d="M739.47,15.31c.78,0,1-1,1.8-1,1,0,2.8.29,3.75-.08a11.26,11.26,0,0,1,.4,3.66,14.89,14.89,0,0,1-.47,4.32,5.35,5.35,0,0,1-2.6,3.34.42.42,0,0,1-.24.07.48.48,0,0,1-.25-.14,20.94,20.94,0,0,1-2.42-2.56l-.29-.34c-1.48-1.76-3-3.67-3.22-6a1.09,1.09,0,0,1,.11-.69,1.26,1.26,0,0,1,1.05-.41C737.82,15.46,738.74,15.35,739.47,15.31Z" fill="#2a3f55" stroke="#2a3f55" stroke-miterlimit="10" stroke-width="0.2"/><path d="M738.3,48.55a4.17,4.17,0,0,1,.12,1.79c.91,2.24,1.44,1.95,1.1,4.34-.32,2.2-2.21,3.21-2.25,3.87-.07,1.07,1.62,1.53,2.83,4.23,2.13,4.72,1.58,8.68,1.33,13.79,0,.25.15.5,0,.72a1,1,0,0,1-.59.39c-2,.67-.93,1.8-2.3.13-.84-1-1.48-.29-1.62-1.62a24.17,24.17,0,0,0-4.77-12.66c-1-1.47-1.68-2.41-1.21-4.13.23-.83,1-4.33,1.3-5.13a5.85,5.85,0,0,0,.65-2.47,6.13,6.13,0,0,1,1.8-3.89C735.85,47,737.89,47.14,738.3,48.55Z" fill="#55bfaa" stroke="#2a3f55" stroke-miterlimit="10" stroke-width="0.2"/><path d="M745.43,50.25a1.9,1.9,0,0,0,.15,1.57,27.62,27.62,0,0,0,2.3,4.29c.49.75,1.49,1.75,1.56,2.26s-1.42,2.14-2.27,3.12c-2.29,2.66-3.51,10.34-2.7,14.93,1.91.23,1.67,4.33,2.68,2.7.34-.56.56-3.38.72-4,1.49-6,7.88-13.64,8.37-15.66s-.42-5.27-.87-7.42A4.59,4.59,0,0,0,753.84,49a3.82,3.82,0,0,0-2-.52C749.64,48.33,747.43,49.3,745.43,50.25Z" fill="#55bfaa" stroke="#2a3f55" stroke-miterlimit="10" stroke-width="0.2"/><path d="M733.3,39a8,8,0,0,0-1.2.07c-1.09.25-1.62,1.47-1.84,2.56-1,4.92.86,9.73.1,14.91,2.51,1.06,6.89,1.85,8.55.59a5.69,5.69,0,0,0,1-1.89c1-2.59,1.35-5.25,2.34-7.84,2.77,3.31,3.47,7.21,4.73,8.87,3.55.09,7.47-1.12,9-2.65-.72-3.15-2.18-6.19-3.29-9.36a18.29,18.29,0,0,0-3.42-5.72A7,7,0,0,0,743.69,36c-2.28-.12-4.7-.17-6.68,1C735.78,37.68,734.72,38.85,733.3,39Z" fill="#2a3f55" stroke="#2a3f55" stroke-miterlimit="10" stroke-width="0.2"/><path d="M752.59,42.7c-.81,0-1.48-2.86-1.52-3.68-.32-5.83.95-11.61,2.22-17.31a9.54,9.54,0,0,1,2-4.67,8.41,8.41,0,0,1,3.82-2c-3.9-2.5-9.17-2.54-13.7-1.37a1.22,1.22,0,0,0-.88.85,10.14,10.14,0,0,0-.3,2.15,23,23,0,0,1-1.76,7.1c-.21.43-.73.9-1.07.57A27.34,27.34,0,0,1,737.16,17c-.32-.86-.16-1.84-1-2.24a2.65,2.65,0,0,0-1.37-.17,11.9,11.9,0,0,0-3.18.7,17.22,17.22,0,0,0-5.4,2.86,10.58,10.58,0,0,0-3.56,4.61c2.78-1,7.14-.61,7.93,2.22a12.64,12.64,0,0,1,.06,4.55,34.58,34.58,0,0,0,1,11.81A4,4,0,0,0,733.26,44a4.11,4.11,0,0,0,2,.34l7,.08a23.35,23.35,0,0,0,5.09-.31C749.33,43.64,751.06,44.08,752.59,42.7Z" fill="#ffbf55" stroke="#2a3f55" stroke-miterlimit="10" stroke-width="0.2"/><path d="M726.31,19.72a10,10,0,0,0-4.93,4.82,14.83,14.83,0,0,0-.64,1.47c-.66,1.73-1.22,4.38-1.89,6.11-.55,1.42-1.09,3-.46,4.42a15.44,15.44,0,0,0,3.28,4.66,15.55,15.55,0,0,1,1.9,2.17c1.16,1.82,1.22,4.38,2.94,5.67,1.07.79,2.57.92,3.49,1.87.36.38.63.88,1.1,1.11a2.42,2.42,0,0,0,1.92-.21c1.83-.73,3.91-1.75,4.26-3.69a5.21,5.21,0,0,0-.39-2.6c-1.8-5-5.53-8.33-10.34-10.62a19.92,19.92,0,0,0,4.5-4.39,7.91,7.91,0,0,0,1.41-7.26C731.69,20.81,729.44,18.51,726.31,19.72Z" fill="#ffbf55" stroke="#2a3f55" stroke-miterlimit="10" stroke-width="0.2"/><path d="M755.63,33.88c-.07.19-.41-.05-.26-.18a5.28,5.28,0,0,1,.17-2,8.07,8.07,0,0,1,1.1-2.17,17,17,0,0,1,3.94-4.09A12.87,12.87,0,0,1,754,21.32c-.48-.56-2.5-.75-3.28-2.74-.85-2.18.6-3.77,2.73-4.73A6.19,6.19,0,0,1,760,14.91a3.15,3.15,0,0,0,1.18.85,5.66,5.66,0,0,0,1.09.08c1.36.12,2.27,1.42,2.89,2.63s1.25,2.59,2.5,3.13c.56.24,1.18.29,1.75.5a2.72,2.72,0,0,1,1.93,2.55c-.06.68-2.3,3.23-3.82,4.67-2,1.91-2.93,5-5.42,6.21A5.32,5.32,0,0,1,755.63,33.88Z" fill="#ffbf55" stroke="#2a3f55" stroke-miterlimit="10" stroke-width="0.2"/><path d="M735.85,11.76c.11-.3-.22.57-.11.27-.63,1.51.27,2.65,1.23,4a3.26,3.26,0,0,0,1,1,4.1,4.1,0,0,0,4.25-.22c1-.88,1-2.52.94-3.86a3.51,3.51,0,0,0-1.9-3.33,3.27,3.27,0,0,0-1.52-.17C738.49,9.5,736.77,10.88,735.85,11.76Z" fill="#ffdfaa" stroke="#2a3f55" stroke-miterlimit="10" stroke-width="0.2"/><path d="M735.06,11.35a1.66,1.66,0,0,1,1,0,7.72,7.72,0,0,0,.82,3.83,4.5,4.5,0,0,0,2,2,3.23,3.23,0,0,0,3.84-1.51,4.81,4.81,0,0,0,0-4.34,2,2,0,0,1,.9-.07,6.64,6.64,0,0,1-.85,5.63,2.79,2.79,0,0,1-.71.66,4.54,4.54,0,0,1-.94.63,4,4,0,0,1-2.21.09c-1.41-.23-2.49-1.77-3-3.11A28.07,28.07,0,0,1,735.06,11.35Z" fill="#e83434" stroke="#2a3f55" stroke-miterlimit="10" stroke-width="0.2"/><path d="M762.3,35.17a14.26,14.26,0,0,0-5.57-2.78,2.41,2.41,0,0,0-1-.1c-.94.13-1.48,1.1-2,1.9a10.17,10.17,0,0,1-2.13,2.4,3.88,3.88,0,0,0-1,1.06,1,1,0,0,0,.22,1.34,1.29,1.29,0,0,0,1.3-.16,3.27,3.27,0,0,1,1.23-.6c-.45,1-.91,2.07-1.37,3.11a2.86,2.86,0,0,0-.34,1.39c.12,1.15,1.51,1.66,2.66,1.83.72.11,1.45.2,2.18.25a3.2,3.2,0,0,0,1.6-.17,2.79,2.79,0,0,0,1.32-1.8c.6-1.91.47-4.11,1.65-5.72C761.53,36.49,762.19,35.94,762.3,35.17Z" fill="#55bfaa" stroke="#2a3f55" stroke-miterlimit="10" stroke-width="0.2"/><path d="M732.67,53.49a3.78,3.78,0,0,0-.95-1.12c-.33-.3-1.23-.39-1.14-1,.3-2.06,3.73-3.46,5.78-3.86.41-.08,1.09,0,1.07.4-.08,1.12.11,2.31,1.33,2.52a2.1,2.1,0,0,1,1.12.36,1.43,1.43,0,0,1,.33,1.19c-.17,2.64-1.67,2.79-3.91,4.08-.52.3-3.61.8-3.52-.22A4.54,4.54,0,0,0,732.67,53.49Z" fill="#55bfaa" stroke="#2a3f55" stroke-miterlimit="10" stroke-width="0.2"/><path d="M731.62,56.07c7.81-5.4,13.42-9.73,20.76-15.75a4.33,4.33,0,0,0,1.82-2.53c0-.23-.21-.24-.42-.34-.6-.28-1.76.79-2.48,1.43q-5.14,4.63-10.63,8.87c-1,.8-22.5,15.11-27.28,18a5.64,5.64,0,0,1-6.5-.5c-1.29-1-1.62-2.78-1.9-4.41a.29.29,0,0,0-.15-.23,1.25,1.25,0,0,0-1.31.14.31.31,0,0,0-.11.23,7.13,7.13,0,0,0,4.18,6.89,8.88,8.88,0,0,0,8.26-1.23C722.35,61.92,730.13,57.1,731.62,56.07Z" fill="#2a3f55" stroke="#2a3f55" stroke-miterlimit="10" stroke-width="0.2"/><path d="M735.16,88.85a2.59,2.59,0,0,1-1,.29.94.94,0,0,1-.88-.42,1.36,1.36,0,0,1-.14-.56,13.59,13.59,0,0,1,0-2.78,1.58,1.58,0,0,1,.31-.9.57.57,0,0,1,.84,0,.77.77,0,0,1,.08.54c0,.45-.07.91-.11,1.37s0,1,.45,1.18a1,1,0,0,0,.77-.19c1.29-.72,2.65-1.27,3.87-2.1a4.07,4.07,0,0,0,1.89-2.52c0-.46-.13-.92-.07-1.37s.62-1,1-.79c.06,1.47.43,2.87-.43,4.07a11.47,11.47,0,0,1-2.9,2.12A40.23,40.23,0,0,1,735.16,88.85Z" fill="#2a3f55" stroke="#2a3f55" stroke-miterlimit="10" stroke-width="0.2"/><path d="M750.68,82.81c-.17.68.15,1.63-.36,2.11s-.86.12-1.37,0a15.47,15.47,0,0,1-3.57-1.78,2.84,2.84,0,0,1-1.13-1,2.19,2.19,0,0,1-.07-1.43,1.85,1.85,0,0,0,.07-.77.78.78,0,0,0-.77-.47A6.1,6.1,0,0,0,743,82a1.42,1.42,0,0,0,.08.65,1.69,1.69,0,0,0,.56.57,23.37,23.37,0,0,0,5.84,2.94,2,2,0,0,0,1.84-.17,1.7,1.7,0,0,0,.63-1.46,8.91,8.91,0,0,1,.15-1.63A2.52,2.52,0,0,0,750.68,82.81Z" fill="#2a3f55" stroke="#2a3f55" stroke-miterlimit="10" stroke-width="0.2"/><path d="M736.87,74.44a9.29,9.29,0,0,0,1.28.27c0,1.07.15,1.51.16,2.58a5.81,5.81,0,0,0,.49-2.17.55.55,0,0,1,.07-.31.53.53,0,0,1,.33-.17,7.16,7.16,0,0,0,2.57-.72c-.06,1-.23,1.94-.29,3a4.2,4.2,0,0,0,.06,1.37c.24.94,1.1,1.72,1.05,2.7,0,.65-.74,1-1.35,1.21s-1.27.3-1.86.56c-1.26.54-2.07,1.81-3.28,2.44a3.55,3.55,0,0,1-1.63.41,1.45,1.45,0,0,1-1-.25c-.6-.47-.4-1.48.13-2A16.62,16.62,0,0,1,735.51,82a4.69,4.69,0,0,0,1.55-3.11,13.16,13.16,0,0,0-.17-3.54C736.83,74.91,736.49,74.33,736.87,74.44Z" fill="#2a3f55" stroke="#2a3f55" stroke-miterlimit="10" stroke-width="0.2"/><path d="M746,81.46a2.7,2.7,0,0,0-1.64-.67,2.08,2.08,0,0,1-1-.13,1.08,1.08,0,0,1-.43-1.14,3.84,3.84,0,0,1,.55-1.18,5.16,5.16,0,0,0,.7-1.93c.15-1.28-.45-2.55-.37-3.84.2,0,.23,0,.44,0,.39,0,2.3.61,2.69.65a.48.48,0,0,1,.35.14.45.45,0,0,1,.06.28,6.77,6.77,0,0,0,.29,2.1,8.8,8.8,0,0,0,.47-2.32c0-.25.59-.41.59-.13s-.12.85-.22,1.48a7,7,0,0,0,.12,3.12,3,3,0,0,0,.65,1.29,10.69,10.69,0,0,0,1.63,1.36,3.33,3.33,0,0,1,1.24,1.68,1.18,1.18,0,0,1,0,.56,1.41,1.41,0,0,1-1.23,1,2.64,2.64,0,0,1-1,0,4.93,4.93,0,0,1-1.59-.79A16.57,16.57,0,0,1,746,81.46Z" fill="#2a3f55" stroke="#2a3f55" stroke-miterlimit="10" stroke-width="0.2"/><path d="M737.45,5.66a3.93,3.93,0,0,0-1.63.71,4.42,4.42,0,0,0-1.1,2.55,8,8,0,0,0,.22,3.58.32.32,0,0,0,.41.22,23.1,23.1,0,0,1,8.21-1.11.45.45,0,0,0,.26,0,.46.46,0,0,0,.13-.3,9.26,9.26,0,0,0,0-3.06,3.15,3.15,0,0,0-1.76-2.37A5.22,5.22,0,0,0,741,5.48,7.43,7.43,0,0,0,737.45,5.66Z" fill="#2a3f55" stroke="#2a3f55" stroke-miterlimit="10" stroke-width="0.2"/><path d="M733.57,56.83c-.71-.19-2.3-.82-1.13-2.07s5.85-5.27,7.07-4.46.9,3.46-.54,4.54S735.82,57.41,733.57,56.83Z" fill="#71d3a4" stroke="#2a3f55" stroke-miterlimit="10" stroke-width="0.2"/><path d="M208.6,88.32a1.24,1.24,0,0,0,.25.6.6.6,0,0,0,.59.21c.31-.1.43-.46.49-.77a13.67,13.67,0,0,0,.18-4.42.87.87,0,0,0-.05-.22.51.51,0,0,0-.55-.23,1.39,1.39,0,0,0-.56.3l-.33,3A5.24,5.24,0,0,0,208.6,88.32Z" fill="#2a3f55" stroke="#2a3f55" stroke-miterlimit="10" stroke-width="0.2"/><path d="M167.23,85.26c.35.17.73-.16,1-.46l2-2.4a1.76,1.76,0,0,0,.55-1.1.9.9,0,0,0-.72-.83,15.6,15.6,0,0,1-1.91,1.81,3.38,3.38,0,0,0-1.25,2.25A.74.74,0,0,0,167.23,85.26Z" fill="#2a3f55" stroke="#2a3f55" stroke-miterlimit="10" stroke-width="0.2"/><path d="M190.31,35.16s0,0,0,0,0,0,.06,0a2.68,2.68,0,0,1,.59-.78,2.33,2.33,0,0,1,2.58-.26,2.73,2.73,0,0,1,1.55,2.25,4.83,4.83,0,0,1-.33,1.8,4.52,4.52,0,0,1-1.64,2.61,4.88,4.88,0,0,1-3,.37,2,2,0,0,1-1-.29,1.84,1.84,0,0,1-.45-.51l-.64-.92c-.37-.53-.75-1.22-.44-1.79a.54.54,0,0,1,.73-.27c.2.13.24.42.41.59a1,1,0,0,0,1,.09c.53-.16,1.14-.46,1.19-1a2.1,2.1,0,0,0-.46-1.14c-.2-.37-.26-.92.1-1.13Z" fill="#ffdfaa" stroke="#2a3f55" stroke-miterlimit="10" stroke-width="0.2"/><path d="M230.7,6.53a.34.34,0,0,1-.31-.22c-.16-.42.2-.86.4-1.26a2.59,2.59,0,0,0,.17-1.8,4.8,4.8,0,0,0-.83-1.64,1.64,1.64,0,0,1-.37-.7.53.53,0,0,1,.37-.63.81.81,0,0,1,.39.1,6.74,6.74,0,0,1,1.23.75A1.91,1.91,0,0,1,231,.22a1.27,1.27,0,0,1,1.13.28,4.08,4.08,0,0,1,.75,1,1.16,1.16,0,0,0-.1-.51c0-.16,0-.39.16-.44s.29.08.39.2a10,10,0,0,1,2.28,4.68,1.61,1.61,0,0,1-.16,1.33c-.27.33-.73.43-1.07.68s-.65.82-1.12,1a1.47,1.47,0,0,1-1.42-.62C231.49,7.33,231.25,6.53,230.7,6.53Z" fill="#ffdfaa" stroke="#2a3f55" stroke-miterlimit="10" stroke-width="0.2"/><path d="M181.64,25.36a2.28,2.28,0,0,0-1.28.89,1.64,1.64,0,0,0-.14,1.09c.23,1.44,2.91,4,3.92,5,3,3.11,4.94,3.2,6.61,4.56.11.09.29,0,.41-.09a1.05,1.05,0,0,0,.23-.24l1.69-2.27a.56.56,0,0,0,.15-.34c0-.22-.26-.33-.47-.39-.93-.31-4.94-3.53-5.23-4.46a10.28,10.28,0,0,1,2.73.59c3.65.8,5.71.39,7.21-.64a4.29,4.29,0,0,0,1.07-1,5.5,5.5,0,0,0,.61-1.21,5.29,5.29,0,0,0,.47-2.06c0-.71,1.57-1.49,1-1.85s-1.24-.89-3.63-.4c-1,.22-4.18.28-5.22.49-1.91.38-4.25.88-6.18,1.19A18.39,18.39,0,0,0,181.64,25.36Z" fill="#ffbf55" stroke="#2a3f55" stroke-miterlimit="10" stroke-width="0.2"/><path d="M212.93,71.34c.43-3.1.56-3.26,2-6s2.9-5.82,2.45-8.92c-.32-2.18-1.58-4.25-1.33-6.44a9.53,9.53,0,0,1,.52-2l1.14-3.32a25.61,25.61,0,0,0,1.34-5.07,8.5,8.5,0,0,0-.8-5.1,8.14,8.14,0,0,0-4.63-3.61,17.75,17.75,0,0,0-5.94-.72c-2.64,0-5.38,0-7.84.92a11.73,11.73,0,0,0-6.1,6.43,54.15,54.15,0,0,0-2.53,8.72,20.33,20.33,0,0,1-3.7,8.22c-2.46,2.93-6.23,4.59-8.45,7.7a20.6,20.6,0,0,0-2.21,4.46l-1.6,4c-.68,1.74-1.38,3.64-.8,5.41.34,1.08,2.52.22,3.28-.63a21.23,21.23,0,0,0,1.72-2.93c1.3-2,3.67-3.07,5.74-4.33a23.78,23.78,0,0,0,4.66-3.7,7.49,7.49,0,0,0,1.78-2.55c.66-1.77.2-4,1.39-5.44.89-1.1,2-2.3,3-3.35,3.4-3.69,7.75-7.92,9-12.79,1.56,3.39,2.18,7,4.21,10.17a5.08,5.08,0,0,1,1,2.18c.13,1.4-.89,2.61-1.27,4a16.54,16.54,0,0,0-.81,4.61,42.8,42.8,0,0,0,.46,4.65c.39,3.24-.11,4.91-.06,8.65,0,.48,0,2.14.37,2.47a1.16,1.16,0,0,0,.82.28C211.35,77.33,212.65,73.31,212.93,71.34Z" fill="#55bfaa" stroke="#2a3f55" stroke-miterlimit="10" stroke-width="0.2"/><path d="M207.67,81.35c-.09,1,.06,3,.77,3.67a2.12,2.12,0,0,0,2.62.26,3.75,3.75,0,0,0,1.14-2,25.88,25.88,0,0,0,.45-7c-.36-3.15.58-4.65.37-4.8s-1.14,1-2.42.82a3,3,0,0,1-2-1.09c-.42-.37-.05,4.9-.09,5.34C208.35,78.05,207.79,80.16,207.67,81.35Z" fill="#2a3f55" stroke="#2a3f55" stroke-miterlimit="10" stroke-width="0.2"/><path d="M174.64,80.71a8.55,8.55,0,0,0,2.65-3.52,15.27,15.27,0,0,1,1.14-2.42c.64-1,2-3.35,1.56-3.2a3.08,3.08,0,0,1-4.21-2.42c-.7.51-1.31,3.09-1.82,3.79s-.73,1.16-1.15,1.69-2.42,1.74-3.15,2.7a5.19,5.19,0,0,0-1.08,3.14c0,1,.11,2.14.93,2.7s1.91.07,2.77-.46A16,16,0,0,0,174.64,80.71Z" fill="#2a3f55" stroke="#2a3f55" stroke-miterlimit="10" stroke-width="0.2"/><path d="M215.8,29.14c-.31,1,.37,4.88-5.25,5.38-1.32.12-2.66-.27-4-.07-2.39.36-3.89,1.71-6.67,1.07a5.06,5.06,0,0,1-3.78-4c-.13-.46-3.59-1.59-3.4-1.48s1.16.31,3.89-1.65c.85-.61,2.25-1.21,2.28-3.33s-.89-2.36-.37-2.62,3.37-.83,4.3-1.18a12.71,12.71,0,0,1,2.56-.74c2.86-.4,4.88-.55,7.74-.94a3,3,0,0,0,1.26-.37,3,3,0,0,0,.83-1c.64-1.09,3.61-5,3.92-5.72a5.94,5.94,0,0,1,.81-1.68,4.11,4.11,0,0,1,.94-.77A45.65,45.65,0,0,1,230,5.38a1.21,1.21,0,0,1,.64-.11,1,1,0,0,1,.54.32,7.65,7.65,0,0,1,1.69,2.18,1,1,0,0,1,.15.63,1.08,1.08,0,0,1-.39.51,35.79,35.79,0,0,1-6.24,4.61,14,14,0,0,0-1.8,1c-1.42,1-1.89,2.72-2.33,4.43s-.92,3.54-1.41,5.24C220.06,27.11,218.21,27.34,215.8,29.14Z" fill="#ffbf55" stroke="#2a3f55" stroke-miterlimit="10" stroke-width="0.2"/><path d="M207.61,29.38a2,2,0,0,0,1-.5,7.25,7.25,0,0,0,2.28-5.14,4,4,0,0,0-.1-1.38,3,3,0,0,0-2.55-1.95,5.62,5.62,0,0,0-3.26.78c-.51.27-1.79.08-2,.61-.13.07-.2.63-.24.76-.29.77.19,1.72.35,2.52a4.67,4.67,0,0,0,.72,1.49,12,12,0,0,0,.78,1.09,5.78,5.78,0,0,0,1.71,1.4A2.14,2.14,0,0,0,207.61,29.38Z" fill="#ffdfaa" stroke="#2a3f55" stroke-miterlimit="10" stroke-width="0.2"/><path d="M210.64,25.15a2.77,2.77,0,0,0,1-1.42A12.7,12.7,0,0,0,212,20a5.85,5.85,0,0,0-1.37-3.48A6.07,6.07,0,0,0,205,14.91a5.32,5.32,0,0,0-1.24.51,6,6,0,0,0-2.46,2.18,2.7,2.7,0,0,0-.45,1,5.91,5.91,0,0,0,.72,4.38,10.28,10.28,0,0,0,1.82,2.94,8.7,8.7,0,0,1-.27-1.88,3.27,3.27,0,0,1,.22-1,2.52,2.52,0,0,1,1.45-1.34,9.67,9.67,0,0,1,3.41-.5,2.81,2.81,0,0,1,1.08.21,2.69,2.69,0,0,1,.88.73,2.66,2.66,0,0,1,.72,1.7A9.66,9.66,0,0,1,210.64,25.15Z" fill="#2a3f55" stroke="#2a3f55" stroke-miterlimit="10" stroke-width="0.2"/><path d="M208.81,22.16a11.44,11.44,0,0,0-4.85.57,1,1,0,0,0-.52.9,2.31,2.31,0,0,0,.37.89,2.57,2.57,0,0,0,1,1.08,1.09,1.09,0,0,0,1.36-.25c.24-.34.2-.84.5-1.13a.67.67,0,0,1,1,.13,2.23,2.23,0,0,1,.16.43,1.28,1.28,0,0,0,1.79.59,1.91,1.91,0,0,0,.65-.83,2.72,2.72,0,0,0,.21-1.4C210.38,22.71,210.19,22.18,208.81,22.16Z" fill="#2a3f55" stroke="#2a3f55" stroke-miterlimit="10" stroke-width="0.2"/><path d="M961.22,25.9l3.13-1-1.51.74a.56.56,0,0,0-.28.22.41.41,0,0,0,.21.53,1.18,1.18,0,0,0,.62.06,19,19,0,0,0,2.35-.43l1.94-.44a1,1,0,0,0,.58-.28,1,1,0,0,0,.16-.51c.05-.51.11-1,.17-1.53-.81-.32-1-.36-1.78-.68a7.24,7.24,0,0,0-3.2-.52c-1.06.2-1.65.94-2.87,2-.39.32-2.08,1.66-2.06,1.92a.65.65,0,0,0,.6.52A10.71,10.71,0,0,0,961.22,25.9Z" fill="#ffdfaa" stroke="#2a3f55" stroke-miterlimit="10" stroke-width="0.2"/><path d="M1039.34,11.3c.24.1,1.4-.35,1.66-.35a28.8,28.8,0,0,1,5.91.61c1.55.29,3.29.28,4.41,1.38.13.12.89.17.76-.66,0-.33-.43-.49-.74-.6a27.49,27.49,0,0,0-5-1.06c-1.28-.19-2.58-.38-3.88-.46-.81-.05-1.64-.05-2.45,0-.31,0-.79,0-1,.33A.58.58,0,0,0,1039.34,11.3Z" fill="#2a3f55" stroke="#2a3f55" stroke-miterlimit="10" stroke-width="0.2"/><path d="M1011.79,19.65a1.53,1.53,0,0,1,1.05-.37c3.45-.36,6.11-2.75,9-4.66a7.73,7.73,0,0,1,4-1c1.4-.05,2.8.08,4.2,0a24.72,24.72,0,0,0,7-1.94l-.6-3c-3,0-6.08-.45-9.08,0a15.53,15.53,0,0,0-2.93.74,19.14,19.14,0,0,0-3.84,1.54,10.23,10.23,0,0,1-5,1.09c-3.57.19-7.21.58-10.43,2.14-.16.08-.49.24-.44.41a3.76,3.76,0,0,0-.49,1.47c-.2,1.15-.34,2.32-.63,3.46a7.15,7.15,0,0,1-1.58,3.1.5.5,0,0,1-.36.22c-.2,0-.34-.2-.44-.37l-1.1-1.92A5.66,5.66,0,0,1,999,16.75a8.5,8.5,0,0,0-1.12-.21,22.14,22.14,0,0,0-3,.47,18.71,18.71,0,0,0-4.54,1.35c-1.1.54-2.08,1.29-3.14,1.91a6.57,6.57,0,0,1-3.47,1.06,10.83,10.83,0,0,0-4.06.25c-3.84,1.52-8,.44-12.06,1.2a24,24,0,0,1-.2,2.81c1.89-.06,9.41.89,11.31,1.05a8.33,8.33,0,0,0,3.11-.12,21.72,21.72,0,0,1,2.41-.87,8.06,8.06,0,0,1,1.77,0A15.72,15.72,0,0,0,994.43,24c.16.27,1.66,2.46,2.14,3.47a19.89,19.89,0,0,0,4.52,6.51c.73.65,1.54,1.21,2.22,1.91a15.87,15.87,0,0,1,1.83,2.46,9.51,9.51,0,0,1,1.81,4.18c0,.5,0,1,0,1.49s.81,7.72,1.88,10.44c.56,1.41,1.38,2.71,2.06,4.08a9.44,9.44,0,0,1,1.17,4.38,6.52,6.52,0,0,0,0,1.82,4.4,4.4,0,0,0,.88,1.54,13.16,13.16,0,0,1,2.52,4.47,15.44,15.44,0,0,1,.36,9.73.55.55,0,0,0,0,.31c0,.24.31.36.55.42a12.91,12.91,0,0,0,3.15.48c1.25-2.79,2.64-5.53,3-8.56a10.62,10.62,0,0,0,0-3,9.37,9.37,0,0,0-3.6-5.76,7.08,7.08,0,0,1-1.42-1.25,1.91,1.91,0,0,1-.23-1.78c.48-1.41.59-1.77.92-2.79a24.19,24.19,0,0,0,.62-2.51c.63-3.12-.24-6.31-1-9.39a1.54,1.54,0,0,1-.06-.43,1.13,1.13,0,0,1,.21-.49,3.48,3.48,0,0,1,2.13-1.26,20.93,20.93,0,0,1,2.51-.27c5.42-.53,10.61-2.73,14.62-4.11a35.88,35.88,0,0,0,4.27-2.1c1.1-.42,1.92-1.88,1.56-3.73a31.2,31.2,0,0,1-1-4.56c-.37-5.82-.16-11.52.76-12,0,0,0,0,0,.07s0,0-.07,0c-1.31,0-1-1.52-2.34-1.3-1.85,1.56-2.92,4.65-3.71,8.44a11.41,11.41,0,0,0,.31,6.87c.48,1.16,1.33,1.51.7,1.83s-2.87,0-3.62-.09a35.57,35.57,0,0,0-10.9.44c-1.41.31-2.78.82-4.21,1a2,2,0,0,1-.74,0,2.34,2.34,0,0,1-.55-.27,12.49,12.49,0,0,1-2.65-2.27,3.33,3.33,0,0,1-.5-1.06c-.84-2.19-.5-4.63-.85-6.95a11.7,11.7,0,0,0-1-3.36C1012.51,20.84,1011.54,19.94,1011.79,19.65Z" fill="#ff3f55" stroke="#2a3f55" stroke-miterlimit="10" stroke-width="0.2"/><path d="M998.64,13.48c.18.26.64.47.69,1,.07.79.6,1.5-1,2-.39.12,1,3.5,1.31,4.13a8.57,8.57,0,0,0,2.82,3.13c.09.06.2.11.29,0a.23.23,0,0,0,.07-.14c.87-3,.89-4.79,1.83-7.8.18-.59.33-1.79.18-1.66-.84.77-1.18-.77-1.29-1.21-.19-.77-.2-1.2-.29-1.42a5,5,0,0,1-.57-2.42l-3,2.13a9.8,9.8,0,0,0-1.43,1C997.93,12.75,998.38,13.09,998.64,13.48Z" fill="#ffdfaa" stroke="#2a3f55" stroke-miterlimit="10" stroke-width="0.2"/><path d="M997,4.67a5.31,5.31,0,0,0-1.33,2.89,4.9,4.9,0,0,0,0,1.21c.1.38.45.55.49.67a1.66,1.66,0,0,1-.41,1.46,3.36,3.36,0,0,0-.65,1.22.19.19,0,0,0,.15.21,3.63,3.63,0,0,0,1.23.07,8.74,8.74,0,0,1,.55,1.71,4.75,4.75,0,0,0,.25,1.13.38.38,0,0,0,.15.22.45.45,0,0,0,.23,0,6.41,6.41,0,0,0,3.26-1.32,14.88,14.88,0,0,0,2.05-1.66,5.76,5.76,0,0,0,1.09-1.28,5.86,5.86,0,0,0,.79-3.16,4.91,4.91,0,0,0-1.26-3.39,4.06,4.06,0,0,0-2-1.34,6.85,6.85,0,0,0-3.4.5A2.47,2.47,0,0,0,996.72,5Z" fill="#ffdfaa" stroke="#2a3f55" stroke-miterlimit="10" stroke-width="0.2"/><path d="M1018.89,86.75c-3,.07-7.39,0-8.83,0-.61,0-1.31.2-1.75-.22s-.25-.85.14-1.33a3.43,3.43,0,0,1,1.58-.91,34.41,34.41,0,0,0,3.73-1.33,3.28,3.28,0,0,0,1.54-1.3,4.94,4.94,0,0,0,.47-1.59,11.86,11.86,0,0,0,.24-1.66c0-.26.12-.87.43-.83.89.11,2.69,2,3.67,3,.29.27-.25,1.64-.18,2s.3,1.28.57,2.41a1.38,1.38,0,0,1-.55,1.4A2.48,2.48,0,0,1,1018.89,86.75Z" fill="#2a3f55" stroke="#2a3f55" stroke-miterlimit="10" stroke-width="0.2"/><path d="M1012.58,88.47c.13,0,0-.54-.07-.67a2.26,2.26,0,0,1,0-1A1.18,1.18,0,0,1,1013,86a17.9,17.9,0,0,0-2.64,0,1.39,1.39,0,0,1,.91,1.22c.05,1.07-.36,1-.35,1.22.41.22,1.05,1.16,1.46,0C1012.39,88.48,1012.54,88.48,1012.58,88.47Z" fill="#2a3f55" stroke="#2a3f55" stroke-miterlimit="10" stroke-width="0.2"/><path d="M1017.11,85.9a5.94,5.94,0,0,1,.33.67,1.64,1.64,0,0,1,0,.54,4.77,4.77,0,0,1-.15.92l1.58.18a4.82,4.82,0,0,1-.17-1.19,1.31,1.31,0,0,1,.4-1.08,4.26,4.26,0,0,0-1.18-.23,1.94,1.94,0,0,0-.76,0s-.09,0-.1.08A.14.14,0,0,0,1017.11,85.9Z" fill="#2a3f55" stroke="#2a3f55" stroke-miterlimit="10" stroke-width="0.2"/><path d="M1020.35,87.68a3.42,3.42,0,0,1,.08,1.15c-.59,0-8.7.33-10.3.31a9.59,9.59,0,0,1-4-.67,1.55,1.55,0,0,1-1-1.42,1.24,1.24,0,0,1,.49-1c.16-.11.3-.3.49-.35a.47.47,0,0,1,.51.19c.19.35-.3.74-.24,1.13s0,.7.82.9c2.75.63,5.57.27,8.4.15C1017.28,88,1019,87.88,1020.35,87.68Z" fill="#2a3f55" stroke="#2a3f55" stroke-miterlimit="10" stroke-width="0.2"/><path d="M1043.3,16.78a2.15,2.15,0,0,1,.4-1.15,1.67,1.67,0,0,1,.85-.42,24.38,24.38,0,0,1,3.82-.52c1.68-.21,2-1,.53-1.37-2-.51-3.66-.64-5.72-1a6.52,6.52,0,0,0-1.25-.1,6,6,0,0,0-2.41.83.76.76,0,0,0-.19.12.7.7,0,0,0-.14.37,15.12,15.12,0,0,0-.16,2.33,7.33,7.33,0,0,1-.08,1.15,2,2,0,0,1-.81,1.3.36.36,0,0,0-.14.27c0,.23,1.24.33,1.48.32a9.13,9.13,0,0,0,3.29-.42A6.8,6.8,0,0,0,1043.3,16.78Z" fill="#2a3f55" stroke="#2a3f55" stroke-miterlimit="10" stroke-width="0.2"/><path d="M1041.75,10.18A5.71,5.71,0,0,0,1040.46,9a7.7,7.7,0,0,0-1.81-.79c-2-.65-2.35.45-2.36.56a6.76,6.76,0,0,0,.89,3.67,1.75,1.75,0,0,0,.64.71.72.72,0,0,0,.88-.12,1.54,1.54,0,0,1,.17-.19.31.31,0,0,1,.39.1,1.33,1.33,0,0,1,.19.4,2.08,2.08,0,0,0,1.71,1.31,1.12,1.12,0,0,0,1.12-.47,2.52,2.52,0,0,0,.43-2.05A4.58,4.58,0,0,0,1041.75,10.18Z" fill="#ffdfaa" stroke="#2a3f55" stroke-miterlimit="10" stroke-width="0.2"/><path d="M1047.33,13.51a.71.71,0,0,1-.2-.55,4.58,4.58,0,0,1,.08-.83c.06-.3-.08-.86.21-1s.73.22,1,.31a2.69,2.69,0,0,1-.15.79,4.28,4.28,0,0,0-.15,1.23.12.12,0,0,1,0,.1.13.13,0,0,1-.09,0l-.7,0C1047.11,13.58,1047.46,13.6,1047.33,13.51Z" fill="#2a3f55" stroke="#2a3f55" stroke-miterlimit="10" stroke-width="0.2"/><path d="M999.58,10.79a.45.45,0,0,0,.43.2c.21-.05.32-.27.41-.46a1.11,1.11,0,0,1,.62-.7.82.82,0,0,1,.87.39,2.35,2.35,0,0,1,.27,1,2.64,2.64,0,0,0,.22,1,.56.56,0,0,0,.16.21c.24.19.5.22.9-.09a4.81,4.81,0,0,0,1.58-2.08,5.31,5.31,0,0,0,0-3.63,4.28,4.28,0,0,0-2.63-3.24,8.14,8.14,0,0,0-2-.29,5,5,0,0,0-2.07.47,4.9,4.9,0,0,0-1.58.88,2.83,2.83,0,0,0-.89,1.89,1,1,0,0,0,0,.24.59.59,0,0,0,.22.25c.75.56,1.85.43,2.6,1A1.69,1.69,0,0,1,999.37,9,12.8,12.8,0,0,0,999.58,10.79Z" fill="#ffbf55" stroke="#2a3f55" stroke-miterlimit="10" stroke-width="0.2"/></svg>